<svg xmlns="http://www.w3.org/2000/svg" viewBox="0 0 2500 2500">
  <title>VitalikPepe1Front1</title>
  <g>
    <!--<path d="M1679.41,2148.81l-5.78-15.17-26.19,2.76h0c-29.47,62-189.93,59-254.95,60.11q-389.4,6.67-637.71-157.5c-129.3,16.62-356.12,257.88-410.13,461h1618c-91.14-179.87-218.68-314.41-283.25-351.19" style="fill: #5686fc;fill-rule: evenodd"/>-->
    <!--<path d="M1966.5,2498a1201.78,1201.78,0,0,0-152.16-230c-47.65-56.3-96.66-101.78-131.49-122.06l-5.24-13.75a4.26,4.26,0,0,0-4.42-2.71l-26.19,2.76a4.25,4.25,0,0,0-3.45,2.52c-26.34,55-167.67,56.59-235.62,57.37-5.61.06-10.81,0.12-15.51,0.2-257.51,4.41-471.26-48.34-635.29-156.8a4.28,4.28,0,0,0-2.89-.67c-63.11,8.11-151.31,68.64-235.91,161.92-41,45.15-78.52,95.54-108.64,145.72-32.8,54.65-56.07,107.3-69.15,156.48a4.25,4.25,0,0,0-.14,1.09H349l1.92-6.62h0c26.42-92.39,89.35-197.93,173.72-290.95,39.79-43.87,81.82-81.72,121.55-109.45,40.33-28.16,77.48-45.26,107.59-49.54,82.48,54.3,177.88,95.06,283.57,121.16,106.15,26.21,225.66,38.39,355.22,36.16,4.69-.08,9.87-0.14,15.46-0.2,74.15-.84,211.38-2.4,242.17-60.17l20.63-2.18,4.62,12.11,0.09,0.23,0.63,1.66,0.07,0c0.88,1.75,2.34,3.44,5,2.64,61.33,37.31,182.28,163,272.64,337.18h0l0.44,0.9,1.42,2.73,0.9,2.38,1.13,2H1967a4.26,4.26,0,0,0-.46-2"/>-->
    <!--<g>-->
      <!--<path d="M2050.71,1782.56s-115.55,55.23-264.37,53.15-322.26-1.61-437.51-45.84c-110-42.23-178.28-101.74-201-48s21.44,132.23,57,150c78,39,285.94,61.66,412,69.93s310.06,28.94,386.54,6.2,51.68-64.08,20.67-76.49c0,0,59.95-31,70.28-59.94S2050.71,1782.56,2050.71,1782.56Z" style="fill: #ac693c;stroke: #000;stroke-width: 9.3018px"/>-->
      <!--<path d="M2024.05,1891.53S1887,1925,1633,1905c-246.54-19.41-350.18-34.12-404.18-88.12" style="fill: none;stroke: #000;stroke-width: 9.3018px"/>-->
    <!--</g>-->
    <!--<g>-->
      <path d="M912.26,1293.53q-10,61.31-16.61,116.3" style="fill: none;stroke: #000;stroke-linecap: round;stroke-linejoin: round;stroke-width: 8.504px"/>
      <path d="M1570.34,1561.52q-76.9,41.92-190.71,78.74" style="fill: none;stroke: #000;stroke-linecap: round;stroke-linejoin: round;stroke-width: 8.504px"/>
      <path d="M1706.14,1576q64.76,26.56,106.91,53.46" style="fill: none;stroke: #000;stroke-linecap: round;stroke-linejoin: round;stroke-width: 8.504px"/>
      <path d="M1943.8,1591.14q-77.59,16.21-166.35,17.73" style="fill: none;stroke: #000;stroke-linecap: round;stroke-linejoin: round;stroke-width: 8.504px"/>
      <path d="M1198.32,1482.79Q1288.5,1540,1430.2,1542q58.51-.35,120.63.72,48.28-20.71,76.57-15.17,72.25-34.83,37.56-75.85" style="fill: none;stroke: #000;stroke-linecap: round;stroke-linejoin: round;stroke-width: 8.504px"/>
      <path d="M1191.1,1415.61q-24.35-6.18-63.57-6.5-32-1.4-31.78-22.39,2.21-27.42,33.23-22.39,64.09,1.87,99-16.62,207.08-146.59,418.25-40.45,20.49-32.68-5.06-47.68-59.58-40.71-90.29-85.24,105.35-27.09,238.38-20.23,27.93,0.67,42.62,7.95,12.84,7.63,35.4-.72,11.93-1,16.61,6.5,12.29,9.16,32.51,5.78" style="fill: none;stroke: #000;stroke-linecap: round;stroke-linejoin: round;stroke-width: 8.504px"/>
      <path d="M1603.79,1231.31q-219.58-28-325.28,34.77-61.41,55.19-138,63.57" style="fill: none;stroke: #000;stroke-linecap: round;stroke-linejoin: round;stroke-width: 8.504px"/>
      <path d="M1653.88,1290.93q178.55-92.91,405.49-32.07" style="fill: none;stroke: #000;stroke-linecap: round;stroke-linejoin: round;stroke-width: 8.504px"/>
      <path d="M1662.8,1315.92q241.08-96.35,445.7,4.33" style="fill: none;stroke: #000;stroke-linecap: round;stroke-linejoin: round;stroke-width: 8.504px"/>
      <!--<g>-->
        <!--<path d="M1665,1451.72q-275.18,128.46-473.87-36.12,122.86-139.85,327.23-117,134.51,20.35,162.53,63.57,5.05,37.71-15.89,89.57" style="fill: #fff;fill-rule: evenodd"/>-->
        <!--<path d="M1508.8,1304.32q-14.89-5-28.79-8.61-82.59-3.06-150.79,22.59-20,19.85-31.49,52.1-18.21,77.86,9.47,113.94,81.48,30.86,173.45,21.5,36.5-14.38,50.83-47.66Q1566.25,1361.89,1508.8,1304.32Z" style="fill: #497190"/>-->
        <!--<path d="M1665,1451.72q-275.18,128.46-473.87-36.12,122.86-139.85,327.23-117,134.51,20.35,162.53,63.57Q1685.91,1399.86,1665,1451.72Z" style="fill: none;stroke: #000;stroke-linecap: round;stroke-linejoin: round;stroke-width: 8.504px"/>-->
        <!--<path d="M1501,1443.06q25.47-70.52-16.61-112.69-122.74-41.35-154.59,48.4-21.22,90.72,42.62,104,105.09,14.91,128.58-39.73" style="fill-rule: evenodd"/>-->
        <!--<path d="M1402.75,1341.93q0.12-7.48-5.06-9.39-15.54-4.39-21.67,7.95-1.94,14.23,13.73,19.5,15.64-5.41,13-18.06" style="fill: #fff;fill-rule: evenodd"/>-->
        <!--<path d="M1393.36,1407.66a22.53,22.53,0,0,0,9.39-7.22q5.71-14.09-13.72-15.17-9.18,3.38-8.67,15.17,3.27,10.65,13,7.22" style="fill: #fff;fill-rule: evenodd"/>-->
        <!--<path d="M1448.26,1393.94q34.29-15.07,8.67-35.4-22-7.92-29.62,12.28-1.89,23,20.95,23.11" style="fill: #fff;fill-rule: evenodd"/>-->
      <!--</g>-->
      <!--<g>-->
        <!--<path d="M1675.33,1470.52a208.68,208.68,0,0,1-15.57-16.4c1.73-.79,3.46-1.58,5.21-2.39q13.87-34.35,16.34-62.49h0q183.5-146,375.18-48,53,3.82,71.51,26.73,41.93,54.94-21.67,80.91-210.7,75.92-431,21.68" style="fill: #fff;fill-rule: evenodd"/>-->
        <!--<path d="M1984.37,1312.89q-92.31-25.2-182.69,7.12-17.26,18.42-27.43,47.06-21.75,93,24.94,123.71a716.89,716.89,0,0,0,173.32-7,80.28,80.28,0,0,0,25.38-32.71Q2028.49,1366.28,1984.37,1312.89Z" style="fill: #497190"/>-->
        <!--<path d="M1675.33,1470.52a208.68,208.68,0,0,1-15.57-16.4c1.73-.79,3.46-1.58,5.21-2.39q13.87-34.35,16.34-62.49h0q183.5-146,375.18-48,53,3.82,71.51,26.73,41.93,54.94-21.67,80.91Q1895.63,1524.75,1675.33,1470.52Z" style="fill: none;stroke: #000;stroke-linecap: round;stroke-linejoin: round;stroke-width: 8.504px"/>-->
        <!--<path d="M1972.32,1438.38q25.46-70.52-16.62-112.69-122.74-41.35-154.59,48.4-21.22,90.72,42.62,104,105.09,14.91,128.58-39.73" style="fill-rule: evenodd"/>-->
        <!--<path d="M1874.08,1337.24q0.12-7.48-5.06-9.39-15.54-4.39-21.67,7.95-1.94,14.23,13.73,19.5,15.64-5.41,13-18.06" style="fill: #fff;fill-rule: evenodd"/>-->
        <!--<path d="M1864.69,1403a22.52,22.52,0,0,0,9.39-7.22q5.71-14.09-13.72-15.17-9.18,3.38-8.67,15.17,3.27,10.65,13,7.22" style="fill: #fff;fill-rule: evenodd"/>-->
        <!--<path d="M1919.59,1389.25q34.29-15.07,8.67-35.4-22-7.92-29.62,12.28-1.89,23,20.95,23.11" style="fill: #fff;fill-rule: evenodd"/>-->
      <!--</g>-->
      <!--<g>-->
        <path d="M771,1459c-7.35-10.29-172-384-116-536S919,695,975,671s952.36,172.4,980.22,234.43C1995,994,1918,1168,1918,1168s-56-62.21-107-70c-193.7-29.56-639-48.16-696-7-72,52-156,300-168,332S811,1515,771,1459Z" style="fill: #68984e"/>
        <path d="M1955.22,905.43c39.78,88.57-43.55,266.24-43.55,266.24" style="fill: none;stroke: #000;stroke-linecap: round;stroke-linejoin: round;stroke-width: 8.504px"/>
        <path d="M687,1599s-176-176-192-440c-11.83-195.21,33.16-405.66,286.34-488,0,0,82.5-295.11,616-258.19,443.87,30.71,596.66,451.85,623.83,492.62l-13.92,20.34,18.12,58.89s-32.24,53.6-172.66,21.89l13.59,40.77s-214.78-44.77-260.07-67.41L1595,1022s-210.68-24-346.57-101l9.06,31.71S1112,770.66,985.18,752.54c0,0,63.42,108.71,45.3,212.89,0,0-49.83-181.19-144.95-217.42,0,0-27.18,95.12-126.83,163.07S719,1060.35,719,1083s77.29,293.12,68.77,403.84c-9,117-27,210-27,210S750.42,1553.7,687,1599Z" style="fill: #54502d;stroke: #000;stroke-linecap: round;stroke-linejoin: round;stroke-width: 9px;isolation: isolate"/>
        <!--<g>-->
          <!--<path d="M551,1079c0-2.19-.19-4.58-0.32-7C550.3,1073.94,551,1076.47,551,1079Z" style="fill: #636f3c"/>-->
          <!--<path d="M1772.07,866.64c-8.89-2.67-18.67.89-28.46-1.78a66.65,66.65,0,0,1-14.23-3.56c-15.12-6.23-30.24-14.23-46.24-19.56-33.79-9.78-65.81-17.79-99.6-29.35-3.56-.89-7.11,0-10.67,0-12.45-.89-23.12-7.11-35.57-8-10.67-.89-21.34-5.34-32-10.67-7.11-3.56-14.23-6.23-20.45-10.67-35.57-25.79-72.92-46.24-95.15-83.59-2.67-5.34-6.23-15.12-16-15.12,0,4.45-.89,9.78,0,14.23,16.9,57.8,42.68,110.27,96,145.84V848c-0.89-.89-1.78-2.67-3.56-3.56-2.67-.89-4.45.89-7.11,0-1.78-.89-1.78-2.67-3.56-3.56-15.12-2.67-27.57-8.89-39.13-16.9-18.67-14.23-37.35-24-56.91-32-9.78-4.45-19.56-7.11-28.46-10.67-8-3.56-16.9-4.45-24.9-8-9.78-5.34-18.67-8-28.46-11.56-7.11-2.67-14.23-7.11-21.34-10.67-22.23-11.56-41.8-25.79-56.91-48.91-1.78-1.78-5.34-1.78-7.11-3.56-10.67-13.34-22.23-21.34-35.57-32V663h-3.56c0.89,13.34,6.22,26.68,10.67,39.13,1.78,3.56,5.34,7.11,7.11,10.67,1.78,4.45,1.78,9.78,3.56,14.23,1.78,3.56,5.34,7.11,7.11,10.67s1.78,7.11,3.56,10.67c5.34,7.11,8,14.23,10.67,21.34,1.78,2.67,5.34,4.45,7.11,7.11,6.23,8.89,8,17.79,7.11,28.46-10.67-1.78-13.34-13.34-21.34-17.79-6.22-3.56-12.45-6.22-17.79-10.67-14.23-11.56-27.57-21.34-41.8-32.9-16.9-14.23-35.57-24-47.13-41.8,2.67,9.78,11.56,15.12,14.23,24.9,1.78,2.67,5.34,4.45,7.11,7.11,1.78,3.56,1.78,7.11,3.56,10.67,10.79,19.91,25.44,37.51,31.69,59.28A604.07,604.07,0,0,1,1201,855.14C1265.29,875.85,1328,895,1395,912c5.34,1.78,8.89,5.34,14.23,7.11a38.28,38.28,0,0,0,14.23,0v-3.56h-3.56c-0.89-1.78.89-5.34,0-7.11h-3.56c-9.78-14.23-21.34-23.12-32-35.57-0.89-1.78,0-4.45,0-7.11v3.56c10.67,4.45,19.56,11.56,29.35,16.9,17.79,10.67,38.24,13.34,59.58,17.79,8.89,1.78,16.9.89,24.9,4.45,3.56,0.89,7.11,0,10.67,0,6.23,1.78,11.56,4.45,17.79,7.11,3.56,0.89,7.11-.89,10.67,0,2.67,0.89,4.45,2.67,7.11,3.56,6.22,0.89,12.45,1.78,17.79-.89,0.89,0,.89-4.45,0-6.23-11.56-18.67-24-33.79-38.24-50.69-1.78-1.78-1.78-8,0-8.89,2.67-2.67,8.89-1.78,13.34,0,29.35,8.89,58.69,18.67,88.93,22.23,39.13,5.34,78.26,2.67,117.38,1.78,2.67,0,4.45-2.67,7.11-3.56,6.22-.89,11.56.89,17.79,0C1771.18,872,1773.85,867.53,1772.07,866.64Z" style="fill: #636f3c"/>-->
          <!--<path d="M1763,627a61.73,61.73,0,0,0-5.16-7.18C1758.35,622.86,1759.44,625.81,1763,627Z" style="fill: #636f3c"/>-->
          <!--<path d="M1656.87,556.63c27.79,14.82,50,34.28,69.48,63.92,3.71,4.63,7.41,11.12,11.12,18.53,0.38,1.5.45,3.47,0.78,5.39a57.33,57.33,0,0,1,4.78,6.65c-3.3-1.1-4.31-3.83-4.78-6.65-11-13.27-28.22-23.09-43.39-29.48-3.71-1.85-7.41,0-11.12-.93-36.13-11.12-68.55-29.64-107.46-21.31,0,0-.93,4.63,0,5.56,14.82,12,26.86,22.23,41.69,33.35,41.69,31.5,81.52,55.58,125.06,86.15,11.12,8.34,14.82,19.45,21.31,30.57,2.78,3.71,2.78,10.19,0,13-0.93,1.85-7.41,1.85-9.26,0-11.12-8.34-22.23-9.26-34.28-14.82-8.34-3.71-14.82-11.12-23.16-16.67-2.78-2.78-9.26,0-13.9-.93v-3.71c-4.63-.93-10.19-0.93-14.82.93-5.56,1.85-11.12,8.34-6.48,13,14.82,16.67,36.13,16.67,55.58,29.64,9.26,6.48,21.31,7.41,32.42,12,2.78,1.85,4.63,6.48,7.41,6.48,12,1.85,16.67,11.12,25,16.67,3.71,1.85,6.49,6.48,11.12,11.12,16.67,16.67,26.87,38,36.13,59.29,3.71,7.41,7.41,16.67,8.34,25a53.9,53.9,0,0,0,4.63,14.82c0.93,3.71-.93,7.41,0,11.12,1.85,2.78,5.56,4.63,7.41,7.41,0.93,1.85-.93,5.56,0,7.41,4.63,5.56,10.19,16.67,11.12,13.9,13-37.05-18.53-73.18-31.5-109.31-6.48-21.31-25.94-40.76-28.72-63.92,0-1.85-4.63-5.56-2.78-6.48,9.26-.93,14.82,9.26,22.23,13,27.79,15.75,58.36,24.09,80.59,46.32,8.34,9.26,22.23,22.23,33.35,15.75,5.35-3,8.16-7.83,9.79-13.5-60.35-112.72-194.1-316.58-452.87-371.08,5.92,3.73,11.86,7.49,17.89,11.25C1559.6,506.6,1606.85,528.84,1656.87,556.63Z" style="fill: #636f3c"/>-->
          <!--<path d="M954.34,574.52c10.3-.61,21.21-3.64,31.52,1.82-14.94-1.32-22.87,11.07-33,20.52a52.55,52.55,0,0,1,13.64-6.58c1.82-.61,3-3,4.85-4.24,21.82-8.48,41.21-21.21,65.46-26.06,10.91-2.42,20.61-4.85,31.52-7.27,10.3-1.82,20.61-1.21,31.52-2.42,27.88-2.42,57.58,3,80,21.21,1.21,0.61,3,0,4.85,0-0.61-3.64-1.82-6.06-7.27-7.88-3-.61-3-4.85-5.46-6.06-17.58-12.12-34.55-21.82-55.15-27.88-11.52-4.24-23.64-8.49-36.36-9.09-1.82-.61-3-1.82-4.85-2.42-3-.61-6.67,0-9.7,0,0-5.45-6.67.61-4.24-4.85,1.21-2.42,4.85-2.42,9.09-2.42,1.82,0,3-1.82,4.85-2.42,9.09-.61,17.58-0.61,26.67-1.21,29.7-3,59.4.61,89.7-2.42,10.3-.61,21.21-0.61,31.52-1.21-4.24,0-8.48.61-12.12-.61a75.41,75.41,0,0,1-9.7-2.42c-7.27-1.82-13.94-6.67-21.82-7.27-3,0-6.06-3-9.7-4.24-1.82-.61-3.64.61-4.85,0a75.3,75.3,0,0,1-23.64-17.58,89.36,89.36,0,0,1-8.07-10C987.36,480.26,927.24,550.24,904.75,589c10.56-6,22.8-9.25,35-12C944.64,575.73,949.49,574.52,954.34,574.52Z" style="fill: #636f3c"/>-->
          <!--<path d="M880.49,640.85c-7.08,4.54-13.9,9.6-21.49,14.15C867.25,652,874.13,646.76,880.49,640.85Z" style="fill: #636f3c"/>-->
          <!--<path d="M707.19,1384c-0.1,3.66-.19,7.32-0.19,11C707,1391.34,707.82,1387.68,707.19,1384Z" style="fill: #636f3c"/>-->
          <!--<path d="M752.17,1429.39c-10.19-23.11-20.38-45.36-31.35-68.47-1.57-2.57-4.7-4.28-5.49-6.85-7.05-21.4-21.16-35.95-34.49-52.21-1.57-.86-1.57-4.28-3.92-6h-3.14v-3.42c-3.14,14.55,8.62,24,11.76,37.66a114.54,114.54,0,0,0,3.14,13.69c1.57,4.28,0,9.42.78,13.69,0.78,2.57,2.35,4.28,3.14,6.85a210.94,210.94,0,0,1,.15,21.41c0.49,3.13-.15,6.27-0.15,9.4,0-3.13.07-6.27,0.15-9.4,0-.29-0.09-0.58-0.15-0.87-1.57-4.28-2.35-8.56-3.92-13.69-11.76-37.66-30.57-69.33-52.52-102.71a63.07,63.07,0,0,0-21.95-17.12v-3.42h-3.14c5.49,31.67,21.95,59.91,21.95,92.44,0,2.57,2.35,4.28,3.14,6.85,0.78,6.85,0,13.69,0,20.54-11.76-29.1-30.57-55.63-53.3-75.32,0,6-1.57,12.84.78,16.26,16.46,24.82,29,47.93,35.27,77,5.49,24.82.78,51.35,1.57,77.89h3.14c9.41-15.41,11-40.23,28.22-42.79,4.7-.86,7.05,7.7,11,13.69,8.62,12.84,16.46,28.25,18,46.22,0,2.57,2.35,4.28,5.49,3.42v3.42c7.05,0.86,16.46-2.57,21.16,1.71,18.28,15.08,31.59,34,42.12,54.93,2.32-21.58,4.53-45.38,6.3-70.47,0.53-7.5.63-15.87,0.38-24.91-1.6-4.12-3.38-8.18-4.12-12.62C752.17,1433.67,753,1431.1,752.17,1429.39Z" style="fill: #636f3c"/>-->
          <!--<path d="M867,790.75c0.74-1.39,1.47-2.76,2.16-4.1A14.44,14.44,0,0,0,867,787v3.75Z" style="fill: #636f3c"/>-->
          <!--<path d="M573.16,976.89H577c1,10.58,1.92,21.17-1,30.79-4.81,17.32-2.89,35.6-1.92,53.88,0,4.81,2.89,8.66,2.89,15.39,0,2.89,2.89,4.81,3.85,7.7,0,2.89-1,4.81,0,7.7,1,1.92,2.89,1.92,3.85,3.85,1,3.85-1,7.7,0,11.54,1,2.89,5.77,5.77,6.73,3.85,2.89-5.77,0-12.51,1.92-19.24,6.73-26.94,0-53.88,2.89-80.81,1-1,2.89-3.85,3.85-3.85s2.89,1.92,3.85,3.85a168.82,168.82,0,0,0,11.54,30.79c1,1.92,0,4.81,0,7.7,1,7.7,10.58,11.54,11.54,19.24,0,2.89-1,4.81,0,7.7a108.31,108.31,0,0,0,20.2,33.67c17.32,16.35,25,40.41,39.44,59.65,5.77,7.7,13.47,17.32,16.35,26,1.92,11.54,9.62,20.2,12.51,30.79,0,2.89-1,5.77,0,7.7a287.67,287.67,0,0,0,13.84,26.43c-18.75-89.88-40.78-172.35-40.78-184.21,0-21.79-57.69-100,38.19-165.4A327.86,327.86,0,0,0,830.87,796h-3.72v3.85H823.3v3.85h-3.85v3.85H815.6v3.85c-3.85-1-5.77,1-7.7,3.85-19.24,27.9-49.06,42.33-77,56.76-2.89,1.92-7.7,1-11.54,1,1-9.62,12.51-11.54,14.43-19.24,1.92-9.62,9.62-14.43,12.51-23.09,4.81-14.43,3.85-27.9,3.85-42.33v3.85h-3.85V796h-3.85v3.85h-3.85c0,8.66-6.73,11.54-12.51,14.43-15.39,10.58-24.05,24.05-38.48,34.63-14.43,11.54-26.94,22.13-35.6,36.56-2.89,4.81-11.54,6.73-9.62,14.43h-3.85a23.45,23.45,0,0,1,0-11.54c1-1.92,2.89-2.89,3.85-3.85,1-10.58-1-20.2,1-30.79,1-4.81,2.89-8.66,2.89-15.39,0-1,2.89-1.92,3.85-3.85,1-2.89-1-4.81,0-7.7,1-1.92,2.89-1.92,3.85-3.85,1-2.89-1-4.81,0-7.7,1-1.92,2.89-1.92,3.85-3.85,1-2.89,0-4.81,0-7.7v3.85c-29.82,19.24-49.06,44.25-72.15,70.23-8.66,9.62-15.39,19.24-23.09,30.79-1.92,2.89-1.92,6.73-4.81,10.58C551,927.82,546.22,938.4,541.41,949c-5.77,13.47-5.77,26-6.73,39.44-1,2.89-2.89,4.81-3.85,7.7-1,20.2,1,41.37,0,61.57H527a35.37,35.37,0,0,0-.31,8.67,3.8,3.8,0,0,1,.31-1C547.19,1035.57,546.22,1000.94,573.16,976.89Z" style="fill: #636f3c"/>-->
        <!--</g>-->
        <!--<path d="M929.43,1193.37s30,120-6,168-132,180-66,293.94,210,180,275.94,359.93" style="fill: none;stroke: #000;stroke-linecap: round;stroke-linejoin: round;stroke-width: 8.504px"/>-->
      <!--</g>-->
      <!--<path d="M1500.27,1046.48q51.28,62.89,50.56,127.86-243.92-145.8-430.53,4.34" style="fill: none;stroke: #000;stroke-linecap: round;stroke-linejoin: round;stroke-width: 8.504px"/>-->
    <!--</g>-->
    <!--<path d="M844.34,2210.71c2.11-20.4,2.7-46.21-14.75-60.15-21.57-17.23-52.11,4.78-68.48-9.56-18.08-15.83-18.29-35.62-48.56-29.59-34.11,6.79-46.63,28.76-61,57.64-40.48-48.86-73.92,22.4-74.84,57.65-28.39-.35-45.28,19.14-39.79,48.81,4.13,22.33,55.67,35.09,86.09,27.88,14.11,25.11,50.23,17.32,77.61-.13,7.54,41,103.42,34.42,116.25,1.85,26.43,16.29,83.5,12.19,92.19-24C918.27,2242.66,881.57,2208.46,844.34,2210.71Z" style="fill: #fff"/>-->
    <!--<g>-->
      <!--<path d="M1460.28,2304.64L1453,2313c99.75,31.26,186.19,135.67,223.87,187h16.62C1617.09,2367.66,1494,2316.56,1460.28,2304.64Z" style="fill: #ff1f2f"/>-->
      <!--<path d="M1761.22,2500h16c-75.84-151.37-232.8-224.58-276-242.37l-6.58,7.55C1532.1,2279,1685.52,2343.81,1761.22,2500Z" style="fill: #9244ed"/>-->
      <!--<path d="M1777.22,2500h15.57c-93.2-173.4-285.79-249-285.79-249l-5.78,6.63C1544.42,2275.42,1701.38,2348.63,1777.22,2500Z" style="fill: #4230a9"/>-->
      <!--<path d="M1742.6,2500h18.62c-75.7-156.19-229.12-221-266.57-234.82l-9.07,10.41C1518.8,2287.63,1665.18,2348,1742.6,2500Z" style="fill: #1962bd"/>-->
      <!--<path d="M1725.79,2500h16.8c-77.42-152-223.8-212.37-257-224.4l-9,10.36C1512.11,2298,1649.93,2352.88,1725.79,2500Z" style="fill: #92e800"/>-->
      <!--<path d="M1476.55,2286l-8.41,9.65c36.56,12.41,165.79,64.72,241,204.39h16.65C1649.93,2352.88,1512.11,2298,1476.55,2286Z" style="fill: #ffd200"/>-->
      <!--<path d="M1468.15,2295.61l-7.87,9c33.71,11.92,156.81,63,233.22,195.36h15.64C1633.94,2360.32,1504.71,2308,1468.15,2295.61Z" style="fill: #f70"/>-->
    <!--</g>-->
    <!--<path d="M1231,2211c-10.5,16.09-17.9,30.45-18.3,45.69-28.39-.35-45.28,19.14-39.79,48.81,4.13,22.33,55.67,35.09,86.09,27.88,14.11,25.11,50.23,17.32,77.61-.13,7.54,41,103.42,34.42,116.25,1.85,26.43,16.29,83.5,12.19,92.19-24,9.23-38.45-27.47-72.65-64.69-70.41a151.29,151.29,0,0,0,.89-23.81C1463.29,2218.85,1254.07,2217.35,1231,2211Z" style="fill: #fff"/>-->
    <!--<path d="M1149,2285l-86-4s-38-48-60-42-28,52-28,52-104,30-108,36,102,8,158,6S1149,2285,1149,2285Z" style="fill: #422177"/>-->
    <!--<path d="M1257,2399.13l-76.25-3.55s-33.69-42.55-53.19-37.24-24.82,46.1-24.82,46.1-92.2,26.6-95.75,31.92,90.43,7.09,140.08,5.32S1257,2399.13,1257,2399.13Z" style="fill: #422177"/>-->
    <!--<path d="M979,2407.36l-58-2.7s-25.61-32.35-40.43-28.3-18.87,35-18.87,35-70.08,20.22-72.78,24.26,68.74,5.39,106.47,4S979,2407.36,979,2407.36Z" style="fill: #422177"/>-->
    <!--<g>-->
      <!--<path d="M2414.1,2224.45c-28.49-34.19-111.11,76.92-111.11,76.92s102.56-151,79.77-182.33S2266,2215.91,2266,2215.91s96.86-173.79,68.37-193.73-128.2,122.5-128.2,122.5,68.37-122.5,39.88-148.14-111.11,131.05-136.75,196.58-51.28,111.11-59.83,19.94-65.53-102.56-71.22-62.68-8.55,245-8.55,245c-7.35,47.18-4.68,80.92,4.77,104.61h257.78C2315.43,2433.27,2438.21,2253.38,2414.1,2224.45Z" style="fill: #68984e;isolation: isolate"/>-->
      <!--<path d="M1973.66,2396a4.07,4.07,0,0,0,0-.57c0-2,2.91-205.32,8.51-244.49,1.67-11.71,8.15-18.57,17.34-18.34,15.43,0.37,40.37,22.21,45.87,80.83,3.41,36.42,9.62,53.32,20.1,54.8,12.58,1.77,26.34-19.57,47.5-73.65,10.74-27.46,33-74.56,58.55-117.88,27.54-46.73,51.21-75.4,64.93-78.65a7,7,0,0,1,6.81,1.48c10.13,9.11,6.48,37.21-10.28,79.12a633.3,633.3,0,0,1-30.43,64.05,4,4,0,0,0,6.83,4.28c0.25-.35,25.17-35.86,53.2-68.45,16.37-19,30.55-33.32,42.16-42.48,12.83-10.13,22.49-13.89,27.22-10.58,3.53,2.47,12.19,16.95-24.85,99.34-20.35,45.26-44.49,88.68-44.73,89.12a4,4,0,0,0,6.78,4.35c20.44-27.87,78.94-100.2,103.81-100.15a7.45,7.45,0,0,1,6.48,3.27c4.76,6.54,7,28-31.59,98.56-22.44,41-48,78.75-48.25,79.13a4,4,0,0,0,6.58,4.68c16.74-22.5,66.14-81.07,93.4-81.82A13.47,13.47,0,0,1,2411,2227c1.89,2.27,4.23,8.7-1.32,26.25-11.2,35.39-49.65,97.79-95.68,155.28-32.41,40.47-63.2,72.18-88.29,91.44h12.73c24.22-20,52.49-49.71,81.86-86.39,47.32-59.1,85.43-121.08,97.08-157.89,5.19-16.41,5.14-27.48-.17-33.85a21.36,21.36,0,0,0-17.8-8c-18.34.51-42.56,20.85-62.55,41.53,5.9-9.85,12.11-20.57,18.11-31.53,23.49-42.94,35.11-73.36,35.11-92.1,0-6.39-1.35-11.42-4-15.13a15.53,15.53,0,0,0-13-6.6c-14.83,0-37.3,17.05-68.69,52.22-5,5.56-9.73,11.12-14.17,16.45,7.57-14.87,16.25-32.56,24.34-50.57,22.4-49.83,29.18-76.67,29.18-91.59,0-10.56-3.39-15.16-7-17.71-14-9.8-40.22,8-80.16,54.45-9.34,10.86-18.33,22-26.2,32.15,3.43-7.48,6.94-15.53,10.22-23.75,10.93-27.33,16.41-48.84,16.41-64.35,0-11-2.73-18.92-8.2-23.84a15,15,0,0,0-14.07-3.34c-38.4,9.09-108.84,149.58-129.14,201.44-8.91,22.77-16.37,39.35-22.81,50.71-9.82,17.31-14.76,18.07-16,17.88-1.48-.21-9.06-3.48-13.19-47.55-5.61-59.8-31.77-87.61-53.71-88.14-13.27-.32-23.29,9.6-25.53,25.27-5.63,39.4-8.43,234.23-8.58,245.27a324.24,324.24,0,0,0-4.17,49.36q0,32.52,8.72,55.56h8.67C1968.49,2475.23,1966.73,2440.44,1973.66,2396Z"/>-->
    <!--</g>-->
    <!--<g>-->
      <!--<path d="M2051.06,2308.46c-28.49-34.19-111.11,76.92-111.11,76.92s102.56-151,79.77-182.33-116.81,96.86-116.81,96.86,96.86-173.79,68.37-193.73-128.2,122.5-128.2,122.5,68.37-122.5,39.88-148.14-111.11,131.05-136.75,196.58-51.28,111.11-59.83,19.94-65.53-102.56-71.22-62.68-8.55,245-8.55,245Q1605,2490.16,1604,2500h346.19C2013.09,2422.5,2067.9,2328.66,2051.06,2308.46Z" style="fill: #68984e;isolation: isolate"/>-->
      <!--<path d="M1610.62,2480a4.07,4.07,0,0,0,0-.57c0-2,2.91-205.32,8.51-244.49,1.67-11.71,8.15-18.57,17.34-18.34,15.43,0.37,40.37,22.21,45.87,80.83,3.41,36.42,9.62,53.32,20.1,54.8,12.58,1.77,26.34-19.57,47.5-73.65,10.74-27.46,33-74.56,58.55-117.88,27.54-46.73,51.21-75.4,64.93-78.65a7,7,0,0,1,6.81,1.48c10.13,9.11,6.48,37.21-10.28,79.12a633.34,633.34,0,0,1-30.43,64.05,4,4,0,0,0,6.83,4.28c0.25-.35,25.17-35.86,53.2-68.45,16.37-19,30.55-33.32,42.16-42.48,12.83-10.13,22.49-13.89,27.22-10.58,3.53,2.47,12.19,16.95-24.85,99.34-20.35,45.26-44.49,88.68-44.73,89.12a4,4,0,0,0,6.78,4.35c20.44-27.87,78.94-100.2,103.81-100.15a7.45,7.45,0,0,1,6.48,3.27c4.76,6.54,7,28-31.59,98.56-22.44,41-48,78.75-48.25,79.13a4,4,0,0,0,6.58,4.68c16.74-22.5,66.14-81.07,93.4-81.82A13.47,13.47,0,0,1,2048,2311c1.89,2.27,4.23,8.7-1.32,26.25-11.2,35.39-49.65,97.79-95.68,155.28-2,2.51-4,5-6,7.43h10.4l1.92-2.38c47.32-59.1,85.43-121.08,97.08-157.89,5.19-16.41,5.14-27.48-.17-33.85a21.36,21.36,0,0,0-17.8-8c-18.34.51-42.56,20.85-62.55,41.53,5.9-9.85,12.11-20.57,18.11-31.53,23.49-42.94,35.11-73.36,35.11-92.1,0-6.39-1.35-11.42-4-15.13a15.53,15.53,0,0,0-13-6.6c-14.83,0-37.3,17.05-68.69,52.22-5,5.56-9.73,11.13-14.17,16.45,7.57-14.87,16.25-32.56,24.34-50.57,22.4-49.83,29.18-76.67,29.18-91.59,0-10.56-3.39-15.16-7-17.71-14-9.8-40.22,8-80.16,54.45-9.34,10.86-18.33,22-26.2,32.15,3.43-7.48,6.94-15.53,10.22-23.75,10.93-27.33,16.41-48.84,16.41-64.35,0-11-2.73-18.92-8.2-23.84a15,15,0,0,0-14.07-3.34c-38.4,9.09-108.84,149.58-129.14,201.44-8.91,22.77-16.37,39.35-22.81,50.71-9.82,17.31-14.76,18.07-16,17.88-1.48-.21-9.06-3.48-13.19-47.55-5.61-59.8-31.77-87.61-53.71-88.14-13.27-.32-23.29,9.6-25.53,25.27-5.63,39.4-8.43,234.23-8.58,245.27q-1.68,10.82-2.67,20.91H1608Q1609,2490.35,1610.62,2480Z"/>-->
    <!--</g>-->
  </g>
</svg>
