<?xml version="1.0" encoding="iso-8859-1"?>
<!-- Generator: Adobe Illustrator 21.1.0, SVG Export Plug-In . SVG Version: 6.00 Build 0)  -->
<svg version="1.1" xmlns="http://www.w3.org/2000/svg" xmlns:xlink="http://www.w3.org/1999/xlink" x="0px" y="0px"
	 viewBox="0 0 2500 2500" style="enable-background:new 0 0 2500 2500;" xml:space="preserve">
<g id="Head">
	
		<path style="fill-rule:evenodd;clip-rule:evenodd;fill:#68984E;stroke:#000000;stroke-width:8.5039;stroke-linecap:round;stroke-linejoin:round;stroke-miterlimit:2.6131;" d="
		M867.603,1293.527c135.408-338.495,331.41-420.844,588.004-247.048c241.577-117.709,380.271-75.33,416.082,127.137
		c85.736,16.593,133.412,45.005,143.028,85.238c38.849,13.16,55.222,33.628,49.121,61.401
		c34.595,16.186,41.096,32.078,19.504,47.676c27.655,37.786,20.431,64.754-21.671,80.905c15.662,25.919-1.675,43.978-52.01,54.177
		c-17.8,44.837-54.641,74.213-110.522,88.128c78.07,53.384,133.361,153.359,109.076,195.761
		c-96.726,186.205-207.247,292.151-331.565,317.84c-25.241,2.762-41.134,12.394-47.676,28.895
		c-84.606,9.871-201.87,13.723-351.791,11.557c-265.722-14.316-452.573-58.139-560.555-131.47
		C551.93,1890.923,644.393,1306.53,867.603,1293.527z"/>
	
		<path style="fill-rule:evenodd;clip-rule:evenodd;fill:#68984E;stroke:#000000;stroke-width:8.5039;stroke-linecap:round;stroke-linejoin:round;stroke-miterlimit:2.6131;" d="
		M1602.782,2136.4l0.003,0.001c-29.47,61.966-189.929,58.995-254.948,60.108c-259.599,4.447-472.17-48.054-637.709-157.502
		c-0.339-9.494,1.828-17.921,6.501-25.282c107.982,73.33,294.833,117.153,560.555,131.47
		C1412.208,2147.146,1520.737,2144.214,1602.782,2136.4z"/>
	
		<path style="fill-rule:evenodd;clip-rule:evenodd;fill:none;stroke:#000000;stroke-width:8.5039;stroke-linecap:round;stroke-linejoin:round;stroke-miterlimit:2.6131;" d="
		M867.603,1293.527c-6.666,40.876-12.204,79.643-16.615,116.301"/>
	
		<path style="fill-rule:evenodd;clip-rule:evenodd;fill:none;stroke:#000000;stroke-width:8.5039;stroke-linecap:round;stroke-linejoin:round;stroke-miterlimit:2.6131;" d="
		M1525.676,1561.525c-51.268,27.946-114.836,54.192-190.704,78.737"/>
	
		<path style="fill-rule:evenodd;clip-rule:evenodd;fill:none;stroke:#000000;stroke-width:8.5039;stroke-linecap:round;stroke-linejoin:round;stroke-miterlimit:2.6131;" d="
		M1661.48,1575.972c43.172,17.706,78.809,35.524,106.91,53.455"/>
	
		<path style="fill-rule:evenodd;clip-rule:evenodd;fill:none;stroke:#000000;stroke-width:8.5039;stroke-linecap:round;stroke-linejoin:round;stroke-miterlimit:2.6131;" d="
		M1899.139,1591.141c-51.724,10.804-107.176,16.714-166.355,17.731"/>
	
		<path style="fill-rule:evenodd;clip-rule:evenodd;fill:none;stroke:#000000;stroke-width:8.5039;stroke-linecap:round;stroke-linejoin:round;stroke-miterlimit:2.6131;" d="
		M1153.659,1482.787c60.118,38.148,137.411,57.893,231.879,59.234c39.01-0.234,79.221,0.007,120.635,0.722
		c32.19-13.808,57.713-18.865,76.571-15.17c48.169-23.217,60.691-48.499,37.562-75.848"/>
	
		<path style="fill-rule:evenodd;clip-rule:evenodd;fill:none;stroke:#000000;stroke-width:8.5039;stroke-linecap:round;stroke-linejoin:round;stroke-miterlimit:2.6131;" d="
		M1455.607,1046.479c34.191,41.927,51.047,84.546,50.566,127.858c-162.616-97.202-306.126-95.756-430.529,4.334"/>
	
		<path style="fill-rule:evenodd;clip-rule:evenodd;fill:none;stroke:#000000;stroke-width:8.5039;stroke-linecap:round;stroke-linejoin:round;stroke-miterlimit:2.6131;" d="
		M1871.688,1173.615c-13.481,2.256-24.317,0.329-32.506-5.78c-3.124-4.977-8.661-7.145-16.614-6.501
		c-15.036,5.566-26.834,5.807-35.396,0.723c-9.792-4.853-23.998-7.501-42.619-7.946c-88.686-4.572-168.146,2.17-238.38,20.226
		c20.481,29.685,50.58,58.098,90.295,85.239c17.034,9.995,18.72,25.887,5.057,47.676c-140.781-70.757-280.197-57.274-418.249,40.452
		c-23.248,12.323-56.235,17.861-98.964,16.615c-20.681-3.351-31.758,4.112-33.229,22.393c-0.159,13.995,10.436,21.459,31.784,22.394
		c26.147,0.214,47.337,2.38,63.568,6.501"/>
	
		<path style="fill-rule:evenodd;clip-rule:evenodd;fill:none;stroke:#000000;stroke-width:8.5039;stroke-linecap:round;stroke-linejoin:round;stroke-miterlimit:2.6131;" d="
		M1559.124,1231.308c-146.388-18.638-254.816-7.048-325.282,34.77c-40.94,36.795-86.93,57.984-137.972,63.568"/>
	
		<path style="fill-rule:evenodd;clip-rule:evenodd;fill:none;stroke:#000000;stroke-width:8.5039;stroke-linecap:round;stroke-linejoin:round;stroke-miterlimit:2.6131;" d="
		M1609.225,1290.928c119.034-61.942,254.197-72.633,405.492-32.075"/>
	
		<path style="fill-rule:evenodd;clip-rule:evenodd;fill:none;stroke:#000000;stroke-width:8.5039;stroke-linecap:round;stroke-linejoin:round;stroke-miterlimit:2.6131;" d="
		M1618.139,1315.921c160.721-64.233,309.287-62.788,445.699,4.334"/>
</g>
<g id="Layer_1">
</g>
</svg>
