<?xml version="1.0" encoding="iso-8859-1"?>
<!-- Generator: Adobe Illustrator 21.1.0, SVG Export Plug-In . SVG Version: 6.00 Build 0)  -->
<svg version="1.1" xmlns="http://www.w3.org/2000/svg" xmlns:xlink="http://www.w3.org/1999/xlink" x="0px" y="0px"
	 viewBox="0 0 2500 2500" style="enable-background:new 0 0 2500 2500;" xml:space="preserve">
<g id="Head">
	
		<path style="fill-rule:evenodd;clip-rule:evenodd;fill:#68984E;stroke:#000000;stroke-width:8.5039;stroke-linecap:round;stroke-linejoin:round;stroke-miterlimit:2.6131;" d="
		M867.603,1293.527c135.408-338.495,331.41-420.844,588.004-247.048c241.577-117.709,380.271-75.33,416.082,127.137
		c85.736,16.593,133.412,45.005,143.028,85.238c38.849,13.16,55.222,33.628,49.121,61.401
		c34.595,16.186,41.096,32.078,19.504,47.676c27.655,37.786,20.431,64.754-21.671,80.905c15.662,25.919-1.675,43.978-52.01,54.177
		c-17.8,44.837-54.641,74.213-110.522,88.128c78.07,53.384,133.361,153.359,109.076,195.761
		c-96.726,186.205-207.247,292.151-331.565,317.84c-25.241,2.762-41.134,12.394-47.676,28.895
		c-84.606,9.871-201.87,13.723-351.791,11.557c-265.722-14.316-452.573-58.139-560.555-131.47
		C551.93,1890.923,644.393,1306.53,867.603,1293.527z"/>
	
		<path style="fill-rule:evenodd;clip-rule:evenodd;fill:#68984E;stroke:#000000;stroke-width:8.5039;stroke-linecap:round;stroke-linejoin:round;stroke-miterlimit:2.6131;" d="
		M1602.782,2136.4l0.003,0.001c-29.47,61.966-189.929,58.995-254.948,60.108c-259.599,4.447-472.17-48.054-637.709-157.502
		c-0.339-9.494,1.828-17.921,6.501-25.282c107.982,73.33,294.833,117.153,560.555,131.47
		C1412.208,2147.146,1520.737,2144.214,1602.782,2136.4z"/>
	
</g>
<g id="Layer_1">
</g>
</svg>
