<?xml version="1.0" encoding="iso-8859-1"?>
<!-- Generator: Adobe Illustrator 21.1.0, SVG Export Plug-In . SVG Version: 6.00 Build 0)  -->
<svg version="1.1" xmlns="http://www.w3.org/2000/svg" xmlns:xlink="http://www.w3.org/1999/xlink" x="0px" y="0px"
	 viewBox="0 0 2500 2500" style="enable-background:new 0 0 2500 2500;" xml:space="preserve">
<g id="_x37_0s_Hair">
	<path style="fill-rule:evenodd;clip-rule:evenodd;fill:#ff0000;stroke:#000;stroke-linecap:round;stroke-linejoin:round;stroke-width:8.5px" d="M1807.019,1205.509c55.016,9.891,79.399,21.24,70.981-30.509
		c12.941,47.305,48.782,34.291,103.794,32.332L1976,1209c16.692,12.565,35.051,33.477,39,50c39.143,13.26,56.147,34.016,50,62
		c34.857,16.308,38.658,24.153,16.902,39.869c27.864,38.072,20.586,65.244-21.835,81.517c15.78,26.115-1.688,44.31-52.404,54.587
		c-15.915,40.089-46.941,67.909-93.071,83.464c-1.931,4.715-3.91,9.441-5.895,14.17c70.103,52.102,102.611,114.9,97.51,188.403
		C1976,1844,1976,1844,1945,1894c-23,39-23,26-37,50c-17,24-24,35-49.655,51.183c-58.221,58.416-120.29,94.448-186.211,108.07
		c-25.432,2.783-41.445,12.487-48.037,29.114c5.823,15.284,7.764,20.379,5.823,15.284c44.942,25.604,120.192,98.171,192.704,200.349
		c111.518-79.971,229.314-284.798,301.842-697.734c35.666-428.587-51.463-1028.798-684.403-923.527
		c-212.555-82.868-404.77-47.985-576.645,104.646c-118.145,107.005-208.426,277.059-270.848,510.165
		c-52.684,95.096-83.748,190.151-93.194,285.17c3.935,340.602,80.625,535.073,230.073,583.419
		c89.572,34.636,199.273,43.357,329.097,26.161c54.868-1.891,114.087-20.206,177.651-54.94
		c-77.722,8.664-136.937-4.416-177.651-39.244c-71.389-69.14-90.803-174.658-58.249-316.562
		c-25.399-138.035-23.456-267.102,5.827-387.202c17.42-71.219,31.01-142.732,40.772-214.531
		c149.042-78.318,292.718-99.249,431.028-62.79c1.841-32.395,12.521-65.534,32.035-99.416c1.729,45.603,6.583,82.229,14.56,109.882
		c59.673,15.487,106.272,22.464,139.792,20.929c38.653,12.008,72.631,13.751,101.935,5.235
		c10.742-11.075,21.419-38.11,32.034-81.105C1805.98,1158.312,1808.89,1187.961,1807.019,1205.509z"/>
</g>
<g id="Layer_1">
</g>
</svg>
