<?xml version="1.0" encoding="iso-8859-1"?>
<!-- Generator: Adobe Illustrator 21.1.0, SVG Export Plug-In . SVG Version: 6.00 Build 0)  -->
<svg version="1.1" xmlns="http://www.w3.org/2000/svg" xmlns:xlink="http://www.w3.org/1999/xlink" x="0px" y="0px"
	 viewBox="0 0 2500 2500" style="enable-background:new 0 0 2500 2500;" xml:space="preserve">
<g id="Beanie">
	<path style="fill-rule:evenodd;clip-rule:evenodd;fill:#5B3B3B;stroke:#000001;stroke-width:8.5039;stroke-miterlimit:2.6131;" d="
		M786.898,1129.22c2.9,27.917,14.554,76.866-5.615,99.451c-26.908,30.131-35.748,57.508-32.149,94.936
		c80.133,82.121,303.276-182.703,745.325-149.744c280.97-9.014,245.957-9.128,372.618-0.701
		c11.784-41.416,0.839-70.263-16.199-84.234c-16.931-13.886-20.432-40.336-28.201-60.013
		c-164.1-415.619-597.211-670.677-1000.885-363.059C628.468,813.176,595.605,1056.134,786.898,1129.22z"/>
	<path style="fill-rule:evenodd;clip-rule:evenodd;fill:none;stroke:#000001;stroke-width:8.5039;stroke-miterlimit:2.6131;" d="
		M781.284,1228.67c469.468-265.54,635.896-91.588,1069.594-139.742"/>
	
		<path style="fill-rule:evenodd;clip-rule:evenodd;fill:#5E5F5F;stroke:#000001;stroke-width:8.5039;stroke-linecap:round;stroke-linejoin:round;stroke-miterlimit:2.6131;" d="
		M762.519,1042.021c6.778,16.807,13.277,35.922,18.609,57.216c2.582,10.312,4.669,20.25,6.353,29.743"/>
</g>
<g id="Layer_1">
</g>
</svg>
