<svg xmlns="http://www.w3.org/2000/svg" viewBox="0 0 2500 2500">
  <title>Big bun</title>
  <g>
    <path d="M535.07,1047.55c-32.49,37.71-82.55,11-86.8-19.6,0,0-49.91,5.77-59.65-47.3,0,0-89.13-8.49-82.83-91.59,0,0-47.72-37.84-28.94-94.2,0,0-61.57-51.41-46.08-98.73s37.7-42.65,37.7-42.65S231.3,638.27,244,579.71s38.11-57.87,38.11-57.87-46.08-23.58-5.77-87.48,62-38.95,62-38.95-41.14-55.94,18.78-93.93,97.22-27.85,97.22-27.85S453.67,223.85,507,204s83,11.37,83,11.37S624.52,139.09,694.45,144s78,43.73,78,43.73,8.63-56.63,80.76-57.74,82.69,59.09,82.69,59.09,38.66-40.59,74.18-2.06,25,91,25,91,38.67-3,56.5,51.28-25.5,79.54-25.5,79.54,21.95,52.38-4,72-41.69,1.92-41.69,1.92-33.19-49.63-71.17-34.41-105.72,41.83-123,80c0,0-123.28-22.61-162.08,23.05s-45,123.69-62.92,149.61-33.18,63.08-37.42,107.65c0,0-60.33,90.78-47.29,134.8S535.07,1047.55,535.07,1047.55Z" style="fill:#ff0000;stroke:#000;stroke-width: 10px"/>
    <path d="M639,1679c-80,36-140-44-124-96,0,0-84-28-60-120,0,0-136-80-64-208,0,0-48-96,24-172,0,0-60-128,0-192s92-40,92-40-48-52,16-136,104-64,104-64-56-72,56-144,128-16,128-16S787,371,911,355s176,28,176,28,36-80,136-72,124,80,124,80,112-96,220-36,92,128,92,128,56-84,172-32,88,156,88,156,92-36,120,52-28,164-28,164,64,24,52,124-100,108-100,108-4,100-60,112-68-28-68-28-16-104-88-108-200-12-256,36c0,0-180-128-276-84s-164,164-212,192-100,76-140,144c0,0-164,100-176,180S639,1679,639,1679Z" style="fill:#ff0000;stroke:#000;stroke-width: 10px"/>
    <g>
      <path d="M1171.81,856.78s-9-87,60-99,93,51,93,51S1213.82,739.77,1171.81,856.78Z" style="fill:#575353"/>
      <path d="M1418.19,845.3s32.7-81.13,99.32-59.49,58.4,88.56,58.4,88.56S1510,761.47,1418.19,845.3Z" style="fill:#575353"/>
      <path d="M1424.19,497.26s32.7-81.13,99.32-59.49,58.4,88.56,58.4,88.56S1516,413.44,1424.19,497.26Z" style="fill:#575353"/>
      <path d="M1631.21,614.27s32.7-81.13,99.32-59.49,58.4,88.56,58.4,88.56S1723,530.45,1631.21,614.27Z" style="fill:#575353"/>
      <path d="M1736.7,759.71s74.4-46,115.26,10.9-5.41,105.94-5.41,105.94S1860.32,746.56,1736.7,759.71Z" style="fill:#575353"/>
      <path d="M1136.87,514.86s7.16-87.18,77.19-86.29,82,67.24,82,67.24S1199.67,407.56,1136.87,514.86Z" style="fill:#575353"/>
      <path d="M918.65,583.48S906.51,496.85,975,482.36,1069.83,530,1069.83,530,956.4,465,918.65,583.48Z" style="fill:#575353"/>
      <path d="M1110.67,688.49s-12.14-86.63,56.39-101.12S1261.85,635,1261.85,635,1148.42,570,1110.67,688.49Z" style="fill:#575353"/>
      <path d="M738.63,670.49S726.49,583.86,795,569.37,889.81,617,889.81,617,776.38,552,738.63,670.49Z" style="fill:#575353"/>
      <path d="M591.1,854.29s-44.89-75.08,12.6-115.09,105.85,7,105.85,7S579.78,730.49,591.1,854.29Z" style="fill:#575353"/>
      <path d="M801.12,845.29s-44.89-75.08,12.6-115.09,105.85,7,105.85,7S789.81,721.49,801.12,845.29Z" style="fill:#575353"/>
      <path d="M519.09,1040.31s-44.89-75.08,12.6-115.09,105.85,7,105.85,7S507.78,916.5,519.09,1040.31Z" style="fill:#575353"/>
      <path d="M703.38,1061.19s-40.15-77.71,19.71-114.08,105.21,13.52,105.21,13.52S699.76,936.92,703.38,1061.19Z" style="fill:#575353"/>
      <path d="M985.41,953.18s-40.15-77.71,19.71-114.08,105.21,13.52,105.21,13.52S981.79,828.91,985.41,953.18Z" style="fill:#575353"/>
      <path d="M442.36,434.13S402.21,356.42,462.07,320s105.21,13.52,105.21,13.52S438.74,309.86,442.36,434.13Z" style="fill:#575353"/>
      <path d="M310.35,605.15s-40.15-77.71,19.71-114.08,105.21,13.52,105.21,13.52S306.72,480.88,310.35,605.15Z" style="fill:#575353"/>
      <path d="M652.38,386.13S612.23,308.41,672.09,272,777.3,285.56,777.3,285.56,648.76,261.86,652.38,386.13Z" style="fill:#575353"/>
    </g>
  </g>
</svg>
