<?xml version="1.0" encoding="iso-8859-1"?>
<!-- Generator: Adobe Illustrator 21.1.0, SVG Export Plug-In . SVG Version: 6.00 Build 0)  -->
<svg version="1.1" xmlns="http://www.w3.org/2000/svg" xmlns:xlink="http://www.w3.org/1999/xlink" x="0px"
	 y="0px" viewBox="0 0 2500 2500" style="enable-background:new 0 0 2500 2500;" xml:space="preserve">
<g id="Cap_Bitcoin">
	<path style="fill-rule:evenodd;clip-rule:evenodd;fill:#F99F30;stroke:#000000;stroke-width:8.5039;stroke-miterlimit:2.6131;" d="
	M1166.133,1119.125c90.864-80.249,212.317-167.096,364.363-260.55c-307.885-182.03-550.312-158.429-727.288,70.798
	c-153.615,149.804-191.712,328.206-114.294,535.215c33.036-59.87,91.08-112.615,174.12-158.237
	C1004.668,1234.586,1105.7,1172.176,1166.133,1119.125L1166.133,1119.125z"/>
<path style="fill-rule:evenodd;clip-rule:evenodd;fill:#AD661F;stroke:#000000;stroke-width:8.5039;stroke-miterlimit:2.6131;" d="
	M1530.496,858.574c-171.095,107.636-292.548,194.489-364.363,260.55c134.708-28.247,245.904-11.083,333.589,51.495
	c136.449-40.485,236.575-66.85,356.778-55.12c142.882-63.51,236.786-181.197,220.84-279.135
	C2036.637,586.319,1655.786,775.896,1530.496,858.574L1530.496,858.574z"/>
<path style="fill-rule:evenodd;clip-rule:evenodd;fill:#F99F30;stroke:#000000;stroke-width:8.5039;stroke-miterlimit:2.6131;" d="
	M812.394,917.729c17.309-24.178,37.76-46.078,61.353-65.695C814.074,843.608,793.623,865.508,812.394,917.729L812.394,917.729z"/>
<path style="fill:none;stroke:#000000;stroke-width:8.5039;stroke-miterlimit:2.6131;" d="M812.394,917.729
	c-35.804,128.791-27.673,263.382,24.397,403.779 M873.747,852.034c190.115-25.661,340.98,21.53,452.59,141.573"/>
<path style="fill-rule:evenodd;clip-rule:evenodd;fill:#D9BF3C;stroke:#D9BF3C;stroke-width:17.0079;stroke-miterlimit:2.6131;" d="
	M2005.001,872.737c-21.614,39.217-71.23,53.485-110.822,31.862c-39.575-21.616-54.145-70.939-32.526-110.153
	c21.61-39.224,71.228-53.494,110.807-31.877C2012.05,784.189,2026.616,833.516,2005.001,872.737L2005.001,872.737L2005.001,872.737z
	"/>
<path style="fill-rule:evenodd;clip-rule:evenodd;" d="M2005.001,872.737c-21.614,39.217-71.23,53.485-110.822,31.862
	c-39.575-21.616-54.145-70.939-32.526-110.153c21.61-39.224,71.228-53.494,110.807-31.877
	C2012.05,784.189,2026.616,833.516,2005.001,872.737L2005.001,872.737L2005.001,872.737z M1971.105,831.591
	c3.932-9.118-1.126-16.329-9.581-22.545c-1.467-1.079-1.891-3.089-1.012-4.684l3.92-7.112c0.976-1.771,0.327-3.998-1.448-4.967
	l-1.698-0.927c-1.765-0.964-3.977-0.319-4.948,1.442l-3.585,6.504c-0.961,1.743-3.138,2.395-4.899,1.466
	c-0.022-0.012-0.044-0.023-0.065-0.035c-1.807-0.953-2.483-3.202-1.496-4.991l3.558-6.455c0.976-1.771,0.327-3.998-1.447-4.967
	l-1.695-0.926c-1.765-0.964-3.976-0.319-4.947,1.441l-3.791,6.875c-0.961,1.742-3.145,2.398-4.903,1.467
	c-0.682-0.361-1.356-0.723-2.021-1.085l0.021-0.042l-7.986-4.365c-1.765-0.965-3.979-0.32-4.949,1.442l-1.177,2.137
	c-0.982,1.782-0.317,4.022,1.477,4.982c1.396,0.747,2.695,1.459,2.62,1.485c3.055,1.669,3.292,3.925,2.837,5.68
	c-0.067,0.259-0.178,0.504-0.307,0.738l-8.09,14.681c0.226,0.125,0.516,0.296,0.826,0.524c-0.27-0.147-0.558-0.307-0.858-0.467
	l-11.608,21.057c-0.708,0.945-2.215,2.246-4.512,0.996c0.029,0.078-1.625-0.829-3.187-1.7c-1.564-0.872-3.528-0.48-4.64,0.923
	l-2.275,2.874c-1.405,1.774-0.874,4.386,1.113,5.471l6.75,3.686c0.876,0.48,1.742,0.962,2.601,1.443
	c1.752,0.98,2.381,3.189,1.413,4.947l-3.833,6.958c-0.975,1.771-0.326,3.997,1.448,4.966l1.69,0.924
	c1.765,0.964,3.978,0.32,4.948-1.442l3.74-6.787c0.977-1.773,3.214-2.408,4.981-1.421c0.022,0.012,0.044,0.025,0.066,0.037
	c1.755,0.979,2.384,3.187,1.414,4.947l-3.714,6.735c-0.977,1.771-0.328,3.999,1.447,4.968l1.698,0.927
	c1.765,0.964,3.976,0.319,4.947-1.442l3.958-7.178c0.902-1.636,2.902-2.344,4.616-1.601c12.693,5.5,23.073,6.257,30.66-4.913
	c4.992-7.345,4.855-13.262,1.568-18.338c-1.27-1.961-0.506-4.656,1.697-5.435C1965.998,839.236,1969.013,836.464,1971.105,831.591
	L1971.105,831.591L1971.105,831.591z M1944.034,853.932c-4.663,8.469-17.342,2.144-24.428-1.792
	c-1.759-0.977-2.393-3.191-1.422-4.954l6.272-11.378c0.958-1.737,3.123-2.393,4.882-1.477
	C1936.52,838.07,1948.918,845.073,1944.034,853.932L1944.034,853.932z M1954.013,826.926c-4.122,7.474-14.209,2.743-20.194-0.553
	c-1.766-0.972-2.402-3.193-1.429-4.958l5.371-9.743c0.958-1.739,3.127-2.396,4.886-1.476
	C1948.696,813.361,1958.326,819.099,1954.013,826.926L1954.013,826.926L1954.013,826.926z"/>
</g>
</svg>
