<svg xmlns="http://www.w3.org/2000/svg" viewBox="0 0 2500 2500">
  <title>Bun beard</title>
  <g>
    <g>
      <path d="M971,683s60-200-160-228S407,635,455,811,707,959,779,915,971,683,971,683Z" style="fill:#ff0000;stroke:#000;stroke-linecap: round;stroke-width: 9px;isolation: isolate"/>
      <path d="M1699,1699c96-8,324,76,324,76s24-44-4-64-116-56-236-76-216-12-316,12-316,68-464-4c-120-58.39-132.19-214.12-132.5-270.9,16.44-39.61,23.24-119,92.5-217.1,96-136,184-136,284-132s224,56,300,64,152-60,204-64,104,56,104,56,68-12,100-104-100-488-716-388-709.61,474.12-716,736c-8,328,196,280,196,280-56-36-40-140,28-192,34.33-26.25,46.23-27,55.77-22.37C819.87,1447.52,835,1623,835,1623s-108,360,32,456,672,96,764.5,73.21S1891,2027,1891,2027l-216-44s-324,84-440,64-220-108-148-232S1603,1707,1699,1699Z" style="fill:#ff0000;stroke:#000;stroke-linecap: round;stroke-width: 9px;isolation: isolate"/>
    </g>
    <path d="M1495.35,681.37a4,4,0,0,0,2,5.28c0.25,0.11,25.6,11.52,54,34.88,26.11,21.44,60.28,57.65,74.78,108.39,19,66.39.63,141.36-54.52,222.83a4,4,0,0,0,6.63,4.48c56.56-83.55,75.25-160.79,55.56-229.58-15.11-52.79-50.53-90.3-77.59-112.48-29.25-24-54.6-35.36-55.66-35.84A4,4,0,0,0,1495.35,681.37Z"/>
    <path d="M1547.4,665.25a4,4,0,0,0,1.85,5.34c0.29,0.14,29.85,14.62,61.7,41.55,29.19,24.68,66.37,65.2,77.71,118.07,12.41,57.89-8,119.2-60.72,182.21a4,4,0,1,0,6.14,5.13c54.38-65,75.37-128.63,62.4-189.06-11.83-55.13-50.32-97.11-80.53-122.61-32.59-27.52-62-41.89-63.2-42.49A4,4,0,0,0,1547.4,665.25Z"/>
    <path d="M1732.69,695.74a4,4,0,0,0-.95,5.58c0.27,0.37,26.57,38.06,31.82,93.44a204.45,204.45,0,0,1-13.8,95.38c-15.33,38.72-42.72,75.68-81.4,109.87a4,4,0,0,0,5.3,6c39.71-35.09,67.85-73.16,83.63-113.15a212.33,212.33,0,0,0,14.2-99.23c-5.54-57.4-32.09-95.35-33.22-96.93A4,4,0,0,0,1732.69,695.74Z"/>
    <path d="M1323.21,717.73a4,4,0,0,0,2.53,5.06c0.71,0.24,72.18,24.45,134.37,76.41,36.32,30.35,62.42,64.1,77.57,100.32,18.88,45.14,20.73,94.37,5.49,146.35a4,4,0,0,0,7.68,2.25c15.78-53.82,13.81-104.89-5.84-151.8-15.68-37.42-42.57-72.21-79.94-103.4-63.35-52.87-136.07-77.48-136.8-77.72A4,4,0,0,0,1323.21,717.73Z"/>
    <path d="M1147.06,782.33a4,4,0,0,0,3.27,4.62c0.88,0.15,88.61,15.41,174.63,55.25,50.3,23.3,90.17,50.31,118.5,80.29,35.09,37.14,52.44,79,51.54,124.43a4,4,0,0,0,8,.16c0.93-47.62-17.16-91.4-53.78-130.14-29-30.73-69.77-58.34-121-82.07-87-40.26-175.62-55.66-176.51-55.81A4,4,0,0,0,1147.06,782.33Z"/>
    <path d="M683,523s200-68,172,164" style="fill: none;stroke:#000"/>
    <path d="M630.34,555.05a4,4,0,0,0,1.31,7.89c0.52-.08,52-8.1,89.95,25.55,30.13,26.69,44.06,71.89,41.4,134.33a4,4,0,1,0,8,.34c2.77-65-12.09-112.36-44.16-140.72C685.94,546.28,632.59,554.68,630.34,555.05Z"/>
    <path d="M859.37,481.33a4,4,0,0,0,2,5.3,133.4,133.4,0,0,1,41.76,33.12c24,29.25,28.15,63.46,12.22,101.7a4,4,0,1,0,7.38,3.08c21.43-51.43,4.43-88.25-13.61-110.09a139.08,139.08,0,0,0-44.42-35.09A4,4,0,0,0,859.37,481.33Z"/>
    <path d="M739,882.46c-0.21,1.55-4.94,38.51,11.72,82.94a187.71,187.71,0,0,0,45.14,69c25.12,24.49,58,43.47,97.87,56.44a4,4,0,0,0,2.48-7.61c-38.55-12.55-70.37-30.85-94.58-54.39a179.79,179.79,0,0,1-43.28-65.86c-16.07-42.6-11.46-79-11.41-79.41A4,4,0,0,0,739,882.46Z"/>
    <path d="M670.11,991.1a4,4,0,0,0-3,4.79c0.33,1.46,8.43,36.11,32.52,74.24,22.32,35.34,63.11,80.13,130.64,92.8a4,4,0,0,0,1.47-7.86,176.44,176.44,0,0,1-77.15-34.87c-18.21-14.28-34.38-32.49-48.07-54.12-23.42-37-31.54-71.63-31.62-72A4,4,0,0,0,670.11,991.1Z"/>
    <path d="M607,1070.43c-0.37,2.56-8.54,63.27,27.61,111.28,22,29.19,55.56,47.1,99.8,53.25a4,4,0,0,0,1.1-7.92c-42-5.84-73.81-22.69-94.47-50.08-34.16-45.31-26.21-104.8-26.12-105.4A4,4,0,0,0,607,1070.43Z"/>
  </g>
</svg>
