<svg xmlns="http://www.w3.org/2000/svg" viewBox="0 0 2500 2500">
    <title>PepeFrogChaplin</title>
    <g>
        <path d="M832.82,1134.16S817.5,828.06,1099.15,694.69s775.1-99.4,847,335.09C1946.19,1029.79,1447.91,1277.06,832.82,1134.16Z" style="fill: #332d33;stroke: #000;stroke-width: 10px"/>
        <path d="M631.11,1121.87c-20.68,62.64-22.09,144.69,427.45,138.21s1137.11-88.77,1100.53-241.33c-40.19-167.57-254.59,41.69-767.1,89.74C1056.1,1140,679.71,974.69,631.11,1121.87Z" style="fill: #332d33;stroke: #000;stroke-width: 10px"/>
        <path d="M1631.87,1627.86c-47.24.29-90-3-90-3v144s78,36,159,27,102-33,102-33-72-123-87-135C1709.43,1622.7,1667.44,1627.64,1631.87,1627.86Z" style="fill: #332d33;stroke: #000;stroke-width: 10px"/>
    </g>
</svg>
