<svg id="Layer_1" data-name="Layer 1" xmlns="http://www.w3.org/2000/svg" viewBox="0 0 2500 2500">
  <title>Cowboy Hat</title>
  <g>
    <path d="M902,1137c49-57,99-100,164-144q5.09-3.46,10.19-6.84c-52.94-6-95.42-9.88-121.19-11.16-160-8-536.73-18.53-580,68-42.43,84.85,123.41,221.76,433,231.45a43.61,43.61,0,0,0,6-9.45C838,1218,866,1178,902,1137Z" style="fill:#ac693c;stroke:#000;stroke-width: 9.3018px"/>
    <path d="M1151.38,1031.41s-24,120-90,198-180,96-150,252,42,192,30,216-132,54-138-6,18-228-24-246-126,114-144,240c0,0-54-287.94,18-449.91s132-198,216-222S1151.38,1031.41,1151.38,1031.41Z" style="fill:#00ff00;stroke:#000;stroke-width: 9.3018px"/>
    <path d="M375,1043s204-68,538.44,24.41c238.19,65.82,449.91,126,725.85,162s683.86-12,737.85-216-377.92-144-527.89-84c0,0-134.26-420.44-194.25-438.44s-250,56-304,56-352.74-41.63-396-20c-80,40-143.54,390.44-143.54,390.44S395,927,375,1043Z" style="fill:#ac693c;stroke:#000;stroke-width: 9.3018px"/>
    <path d="M811.46,917.44s108-24,395.92,84,707.86,192,911.82,126,198-180,198-180" style="fill: none;stroke:#000;stroke-linecap: round;stroke-linejoin: round;stroke-width: 9.3018px"/>
    <path d="M1849.25,929.44s-18,168-401.92,138" style="fill: none;stroke:#000;stroke-linecap: round;stroke-linejoin: round;stroke-width: 9.3018px"/>
    <path d="M823,815s120-44,288-4,296,88,416,72,280-96,280-96,60,100,52,132c0,0-16,184-460,140,0,0-428-152-600-144C799,915,799,847,823,815Z" style="fill:#68383c;stroke:#000;stroke-width: 9.3018px"/>
    <path d="M966,899c-1-6,4-12,4-18a395.35,395.35,0,0,1,13-86.64,564.73,564.73,0,0,0-86,4.53C889.7,819.76,885.34,841.73,881,864c-4,18.16-5.27,36.57-5.12,55.1,27.41,3.36,57.31,8.49,88.46,14.83C965,922.08,966.38,910.1,966,899Z" style="fill:#825a5d;stroke:#000;stroke-width: 9.3018px"/>
    <path d="M1236,857q2-6.53,4.15-13c-36-9.45-73.84-19.59-114-29.38-13,51.07-17.55,102.17-18.41,153.77,32.13,8.69,63.7,17.76,93.53,26.66C1204.75,983,1208.56,971,1213,959,1225,926,1226,891,1236,857Z" style="fill:#825a5d;stroke:#000;stroke-width: 9.3018px"/>
    <path d="M1496.17,885.72a464.72,464.72,0,0,1-75.17-3.07V1061q39.74,3.37,74.77,4.32C1496.34,1005.47,1496.29,945.6,1496.17,885.72Z" style="fill:#825a5d;stroke:#000;stroke-width: 9.3018px"/>
    <path d="M1667.33,846A383.32,383.32,0,0,1,1687,938c2.61,37.16,2.24,74.32,1.67,111.48,32.55-7.67,58.88-17.51,80.2-28.35-6.64-67.1-23-134.45-57.7-191.8C1697.35,834.85,1682.61,840.48,1667.33,846Z" style="fill:#825a5d;stroke:#000;stroke-width: 9.3018px"/>
    <path d="M1576.85,541.75s-75,24-246,3" style="fill: none;stroke:#000;stroke-linecap: round;stroke-linejoin: round;stroke-width: 9.3018px"/>
  </g>
</svg>
