<svg xmlns="http://www.w3.org/2000/svg" viewBox="0 0 2500 2500">
	<title>PepeFrogCryptoPepesHat</title>
	<g>
		<g>
			<g>
				<path d="M996.74,1230.41l-212.59,95.25S704,1419.13,683,1477c0,0-19.69-158.05,12.58-315.54s110.94-307.37,215-391.77,361-153.9,432.48-140.83,332.45,116.39,364,167.35,85.18,171.14,85.18,171.14-259,37.84-389.92,88.64S996.74,1230.41,996.74,1230.41Z" style="fill: #b1b1b1;isolation: isolate"/>
				<g style="isolation: isolate">
					<path d="M861.91,1015.89c7.67-6.1,25.64-17.43,31.11-24.89,26.33-35.92-.14-47.9-28.57-75.79,11.62-20.93,67.55-51.81,24.76-80.4-6.69-4.47-22.7-5.64-36.63-8.46-55.64,64.29-100.79,147.81-131,238.34a103.73,103.73,0,0,0,23.35,2.22c18.15-.23,39.43,3.52,57,1,34.3-4.95,12.1,1.14,31.12-17.78,1-1,9.74-21.22,11.88-24.09S858.18,1018.85,861.91,1015.89Z" style="fill: #8a8a8a"/>
					<path d="M1707.08,796.2c-7.08-11.44-25.71-25.51-51.16-40.61-22.1,12.2-39.73,31.65-30,51.39,7.26,14.73,32,8.35,39.38,18.83,10.79,15.41-4.94,33-.26,49.19,7.19,24.92,50.31,43.1,75.78,51.1a109.67,109.67,0,0,0,34.83,4.9C1757.27,891.39,1727.53,829.25,1707.08,796.2Z" style="fill: #8a8a8a"/>
					<path d="M1293.63,1022.3c-6-27.34-23.36-42.23-48.4-38.49-19.67,2.94-25,25.22-48.4,23.16-13.15-1.16-13.15-14.45-16.6-15.17-43.91-9.17-125.24,23.9-155.2,59.32-52.35,61.87,18.84,109.7,14.87,160,80.72-36,255.44-113.17,355.67-152.48a39.29,39.29,0,0,0-2.27-3.63C1376,1030.43,1321.42,1021.07,1293.63,1022.3Z" style="fill: #8a8a8a"/>
					<path d="M808.22,1278c-4.58-52.81-17.35-41.22-66.68-39.6,15.12-58-16.28-72.05-49.2-60.12C664.71,1330,683,1477,683,1477c21-57.87,101.13-151.34,101.13-151.34l28.38-12.72C800.59,1295,810.56,1305,808.22,1278Z" style="fill: #8a8a8a"/>
					<path d="M1014.34,936.26c-15.21,45.22,67.46,48.49,110.59,42.83,13.38-1.76,40.88,5.08,51.28-4.79,17.48-16.58-1.5-22.33,3.83-39.21,7.59-24-6.62-26.28,25-24.09,12.92,0.89,27.38,19,36.89,19.17,25.44,0.46,51-25.34,51.1-51.17,0.2-46.36-49.18-55.91-83.1-55-48.7,1.31-21.77,1.86-51.7-26.11-25.55-23.89-73.37-25.45-104.48-14.19,7.79,46.85-49.3,46.23-65.09,79.3C976.67,888.07,993.17,916.64,1014.34,936.26Z" style="fill: #8a8a8a"/>
					<path d="M1661.63,943.06c-14.17-21.49,16-47.58-17.49-55.24-13.73-3.14-39.12,17-50.33,22.78-10.87-28.76-40.27-24.27-57-2.7-8.58,11.08-2,26.34-8.6,35.19-8.24,11-18.75,10.24-27.3,19.91-24.29,27.46-28,37.73-14,66,82.87-22.59,179.67-40.75,241.69-51.35a43.79,43.79,0,0,0-7.39-9.8C1706.23,952.54,1673.44,961,1661.63,943.06Z" style="fill: #8a8a8a"/>
					<path d="M1528.23,731.51c6,38.32,59.78,16.46,76.13-3.56-34.44-17-73.56-34.1-111.39-49.24C1477.36,720.57,1465.42,765.26,1528.23,731.51Z" style="fill: #8a8a8a"/>
					<path d="M942.2,1066.79c-28.74-40.37-69-19.82-78.3,15.69-15.36,4.35-29.7,16.94-30.05,32.72-0.52,22.95,24.6,16,26.48,44.68,1.72,26.14-37.3,45.84,11.61,47.3,20.38,0.61,47.76-21.86,62-35.11,18.15-16.91,30.71-30.75,28.29-54.18C962.09,1116.89,943.68,1068.88,942.2,1066.79Z" style="fill: #8a8a8a"/>
					<path d="M1421,711c-12.57-1.47-22.72,8-36,8-8.44,0-18.28-5.65-27-7.7a16.7,16.7,0,0,0,3-.08c30.41-3.75,48.67-31.71,52.46-62.09-29.67-10.12-54.63-17.38-70.38-20.26C1294.72,620,1161.41,649,1048,694.8c5.69,18.74,24.84,33.31,48.79,32.17,29.42-1.39,62.71-36,68.9,15.33,41,7.14,42.47-23.4,71.21-30.49,21.39-5.28,40.92,7.37,61.17,4.27,6.82-1,14.17-11.35,26.92-13.08,10.3-1.4,19.69,5.36,28.74,7.61a15.74,15.74,0,0,0-4.74.31c-27.48,6.43-35.82,36.09-19.41,48-6,7.15-9.15,14.91-5.75,21.16,12.74,23.39,57-12.92,49.86,30.22C1434.66,836.74,1494.82,719.63,1421,711Z" style="fill: #8a8a8a"/>
					<path d="M1000.42,755.29c6.73-7.27,4.7-23.66-.88-39.2-34.75,16.62-65.65,34.74-88.92,53.6-2.19,1.77-4.36,3.59-6.52,5.42,15.55,2.69,36.54-.27,45.21-3.89-2.49,1,13.66-17.11,19.92-20.39C975.66,747.46,988.59,768.06,1000.42,755.29Z" style="fill: #8a8a8a"/>
				</g>
				<path d="M1138.06,659.37C1039.27,689.51,955.56,728.73,908.41,767,857.75,808,811,866.67,773.1,936.49c-36.79,67.85-64.77,145.4-80.93,224.26-32,156.25-12.82,315.09-12.62,316.68a3.5,3.5,0,0,0,6.76.76c19.73-54.34,93.43-141.94,100-149.67l211.87-94.93c2.75-1.24,276.05-124.16,405.43-174.35,129.09-50.08,386.57-88.06,389.16-88.44a3.5,3.5,0,0,0,2.69-4.89c-0.54-1.2-54.1-121-85.4-171.55-32.5-52.52-296.39-156.17-366.33-169C1307.88,618.86,1227.15,632.19,1138.06,659.37Zm-457.4,700.71c0-56.63,4-127.55,18.37-197.92,16-78.2,43.76-155.08,80.23-222.33,37.42-69,83.61-126.92,133.56-167.43C959.3,734.71,1042.14,696,1140.1,666.07c86.75-26.47,168.08-40,202.37-33.77,35.86,6.56,120.22,36.32,196.21,69.24,91.77,39.75,152.06,74.93,165.42,96.51,27.76,44.86,73.34,145,83.07,166.52-35.24,5.35-265.79,41.48-386.1,88.15-129.53,50.25-402.94,173.22-405.77,174.49l-212.59,95.25a3.51,3.51,0,0,0-1.23.92c-3.05,3.56-70,82-96.4,139.52C683.36,1444,680.66,1406.95,680.66,1360.08Z"/>
			</g>
			<g>
				<path d="M2112.44,1219.09s-41-225.19-243.5-244-391.66,88.75-552,231.51-456.86,145.92-532.76,119c0,0,266.93-242,657.4-323.05,261.18-54.23,529.18-92.29,623.1,50S2112.44,1219.09,2112.44,1219.09Z" style="fill: #a4a4a4;isolation: isolate"/>
				<path d="M1016,1304c-4-21-23-33-44-36-2-1-4-5-3-5,23-7,45-13,62-29,4-3,0-8-3-10-7-6-17-11-26-14-7-2-15-7-17-14a39,39,0,0,1-1-12.06C857.69,1259,784.15,1325.66,784.15,1325.66c37.34,13.24,128.08,19.2,229.74,4.84C1018.95,1322.94,1018.6,1313.47,1016,1304Z" style="fill: #8a8a8a"/>
				<path d="M1380,1088a54.38,54.38,0,0,0-18,0,116.27,116.27,0,0,1-18,4c-23,4-27,29-43,43-4,3-11,2-17,3-17,2-37,2-47,17-3,3-2,9,0,14,5,12,21,26,12,34-14,12-41,9-54,27-3,4-3,12,0,17a74.72,74.72,0,0,0,21.29,25.16c36.68-17.54,71-39.13,100.61-65.51,41.84-37.24,85.63-72.08,131.11-102.91a82.4,82.4,0,0,0-32-8.73C1403,1094,1392,1090,1380,1088Z" style="fill: #8a8a8a"/>
				<path d="M1665,982c-5,3-12,0-18,1v3c-2,1-4-1-6,0-14,7-24,29-38,22-22-9-49-12-69-2-6,2-6,14-1,22,1,3-1,6,0,9,1.88,4.14,3.62,8.28,5.54,12.26,50.91-26.71,103.55-47.61,157.59-60.73-0.7-.52-1.41-1-2.13-1.54C1687,981,1674,977,1665,982Z" style="fill: #8a8a8a"/>
				<path d="M1962,976.3c-5.09,10.45-5.63,21.38,6.78,29.56l2.7,1.56c3,0.85,6.94.06,11.5,1.58,5,2,10,0,15,1a42.34,42.34,0,0,0,12,4c3,0,5,4,6,8,1,5,0,9,3,15,0.76,2.28.37,4.56,0.13,6.84,6.42,6.24,12.43,12.7,18,19.3,4.57,1.15,9.64,1.83,14.82,2.86,7.24,1.61,14.47.63,21.71,0.71q-4.31-6.85-9.08-14.08C2040.74,1016.39,2005.54,991.85,1962,976.3Z" style="fill: #8a8a8a"/>
				<path d="M2052,1066c-5.18-1-10.25-1.72-14.82-2.86,59.63,70.1,75.24,156,75.24,156s43-22.55-38.71-152.39C2066.49,1066.63,2059.26,1067.61,2052,1066Z" style="fill: #8a8a8a"/>
				<path d="M2019,1037c-3-6-2-10-3-15-1-4-3-8-6-8a42.34,42.34,0,0,1-12-4c-5-1-10,1-15-1-4.56-1.52-8.54-.73-11.5-1.58a248.71,248.71,0,0,1,47.64,36.42C2019.39,1041.56,2019.78,1039.28,2019,1037Z" style="fill: #8a8a8a"/>
				<path d="M1221,1103c14-9,16-25,27-36,2-1,5,0,9-2,9-4,11,6,18,11,10,6,22,5,33,2,6-2,12-1,18-2l6-3c5-1,9,0,15-3,3-1,7,1,9-1,3-2,6-1,9-2l3-3h9c1-1,2-3,3-3,20,1,41-6,56-19,13.7-12.72,20.27-27.36,22.25-42.84l-16.71,3.44c-120,24.92-228.37,65-320.89,108.68A35.46,35.46,0,0,0,1140,1121C1169,1125,1196,1117,1221,1103Z" style="fill: #8a8a8a"/>
				<path d="M1440.84,999.17c-89.29,18.54-179.49,47.1-268.11,84.89A1616,1616,0,0,0,964.6,1191.55c-114.5,70-182.13,130.91-182.8,131.52A3.5,3.5,0,0,0,783,1329c38.73,13.73,132.36,19.61,236.39,4.29,87.8-12.94,211.09-44.95,299.87-124,87.6-78,174.85-137.12,259.33-175.76,98.62-45.11,196.2-63.58,290-54.88,45.51,4.22,86.44,19.46,121.64,45.3,28.21,20.71,52.87,48.25,73.28,81.86,34.88,57.43,45.36,113.39,45.46,113.94a3.5,3.5,0,0,0,5.07,2.47c0.82-.43,8.11-4.57,11.51-17.77,5.57-21.59,0-65.79-58-153.73-43.42-65.79-125.75-98.6-251.7-100.29C1699.86,948.85,1561.19,974.19,1440.84,999.17ZM968.41,1197.42a1608.9,1608.9,0,0,1,207.18-107c88.15-37.58,177.88-66,266.68-84.43,120-24.91,258.17-50.17,373.51-48.62,123.46,1.66,203.91,33.43,246,97.14,48.18,73,58.49,113.93,58.49,135.59a50.88,50.88,0,0,1-1.27,11.92,28.43,28.43,0,0,1-4.41,10.15,393.23,393.23,0,0,0-44.9-109.87c-20.88-34.44-46.16-62.7-75.13-84-36.26-26.65-78.4-42.36-125.24-46.7-95.08-8.81-193.86,9.86-293.61,55.48-85.11,38.93-172.95,98.45-261.07,176.9-37,33-83.86,60.55-139.16,82-47.55,18.41-100.39,32-157.08,40.33-98,14.44-186.32,10-227.24-2.11C808,1309.56,871.23,1256.82,968.41,1197.42Z"/>
			</g>
		</g>
		<g>
			<path d="M1252.8,836.05c-3.27.23-9.41,5.42-16.53,11.43-6.7,5.66-15,12.7-18,12.23a0.78,0.78,0,0,1-.59-0.36c-3.78-5.77-12.87-28.69-8-36.93,6.14-10.41,17.55-23.61,20.37-22.34,1.29,0.58,2.89,3.58,4.45,6.48,2.86,5.33,6.09,11.37,10.65,9.8,6.5-2.24,15.87-17.61,15.32-23.32a1.07,1.07,0,0,0-.19-0.51c-0.78-1.09-19.2-26.67-29.13-27.14-5.44-.26-17.54,6.45-28.15,15.61-7.86,6.78-21.57,20.68-25.13,37.58-6.22,29.49,5.12,60.44,26.39,72,7.41,4,17.09,3.32,28-2,15.59-7.63,29.08-22.33,30.17-27.08,1.36-5.93-.42-17.57-4.45-22.69C1256.44,836.87,1254.66,835.92,1252.8,836.05Z"/>
			<path d="M1323.95,809.1c4.12-2.62,17.23-11.77,19.15-23.29a17,17,0,0,0,.23-2.49c0.07-4.35-1.6-8.51-5-12.41-12.32-14.16-45.44-19.45-62.13-13.22-6.93,2.59-10.59,6.87-10.59,12.38,0,20.21,20.06,91.68,20.91,94.71a0.8,0.8,0,0,0,0,.11c1.16,2.74,3.88,4.44,8.1,5.06,9.68,1.42,24.54-3.28,26.87-6.1a2.43,2.43,0,0,0,.48-1.55c0.05-3.17-3.23-9.81-9.3-21.31-3.07-5.82-6.84-13-7.18-15.19,4.83,0.75,35.38,23.4,38.23,27.5,1.45,2.09,5,2.69,9.15,1.58,4.7-1.25,9.63-4.56,10-9.14,0-.06,0-0.11,0-0.17C1363.09,838.41,1332.67,815.51,1323.95,809.1Zm-27.39-12.67c-2.16-3.61-3.53-10.45-3.49-13.16a2.81,2.81,0,0,1,.12-0.87c5.61-1,15.83.64,19.09,3.2a2.12,2.12,0,0,1,.93,1.32c0,0.82-.71,2.11-2,3.55-3.62,3.9-10.22,7.7-12.7,7.8C1298,798.28,1297.26,797.59,1296.56,796.42Z"/>
			<path d="M1428.17,740.06c-4.94-1.14-10.24-.84-12.32.68-1.75,1.28-4.58,9.14-9,21.94-2.39,6.87-5.3,15.23-6.64,17.52-1.14-2-3.49-8.35-5.42-13.6C1390,753.85,1387,746,1384.84,745c-5.67-2.73-24-.46-29.07,4.57a4,4,0,0,0-1.08,4.87c1.73,3.66,10.31,14.82,18.6,25.61,7.36,9.56,16.51,21.47,16.83,23.18,0.07,0.71-.07,3.82-0.25,7.76-1.14,26-1.07,41.42,2.65,43.12,4.43,2,16.94,1.23,22.31-1.4,1.61-.79,2.55-1.73,2.8-2.81,0.5-2.11-.29-9.82-1.65-22.26-1-9.51-2.21-20.28-1.8-23,0.27-1.73,4-8.41,7.91-15.49,11-19.79,19.86-36.59,17.09-41.84C1437.35,743.85,1433.44,741.27,1428.17,740.06Z"/>
			<path d="M1601.36,776.23c19.87-.52,26.1-1.41,26.69-3.84,0.24-1,5.84-24.43-1.57-27.25-6.3-2.39-74.81-9.4-78-8a1,1,0,0,0-.56.79c-0.37,4.08-1.84,22.23.33,29.7a6,6,0,0,0,1.42,2.74c3.73,3.38,19.43,2.42,24.18,2-0.61,4.37-2.79,20.5-4.41,36.68-2.55,25.56-2.06,34.82-1,38.31,0.53,1.82,1.2,2.07,1.66,2.25,5.05,1.92,22.48,4.19,28.19.91a3.61,3.61,0,0,0,2-2.52c0.4-2.42-.92-15.15-2.45-29.9-1.7-16.38-4-38.6-3.16-41.68C1595.71,776.38,1598.35,776.31,1601.36,776.23Z"/>
			<path d="M1675.12,768.63c-7.53-3.81-15.79-3.52-24.55.85-5.08,2.54-11.29,15.48-13.72,38.69s9.75,57.62,26.93,62.85c8.69,2.65,22.58,1.49,32.54-7.31,6.28-5.54,13.09-16,9.88-34.59-3.78-21.88-10.77-39.65-19.58-50.65A35.93,35.93,0,0,0,1675.12,768.63ZM1668,840.34a4.42,4.42,0,0,1-1.36-1.19c-4.72-5.89-6.13-27.72-3.75-37,0.68-2.66,1.47-3.35,1.79-3.34,5.43,0.13,10.22,16.12,11.75,26.89,1,6.76-.3,12.86-3.07,14.82C1672,841.53,1670.2,841.46,1668,840.34Z"/>
			<path d="M1528.76,770a18.78,18.78,0,0,0,1.54-9.31,20.56,20.56,0,0,0-2.06-7.08c-8.08-16.58-38.51-28.55-56.84-26.35-8,1-12.85,4.44-14.07,10.07-4.3,19.75.17,93.85,0.36,97a0.68,0.68,0,0,0,0,.12c0.55,2.93,2.85,5.17,6.84,6.67,9.16,3.44,24.67,2,27.55-.26,0.84-.66,1.11-2.14.88-4.56-0.37-3.91-2-10.29-4.65-19.66-1.58-5.67-3.49-12.51-3.77-15.49a5.63,5.63,0,0,1,0-.86C1489.28,798.73,1521.14,787.72,1528.76,770Zm-46.3-5c-0.4-4.24,0-8.82.58-9.78,5.7,0.17,15.32,4,18,7.18a2.58,2.58,0,0,1,.64,1.24,1,1,0,0,1,0,.25h0c-0.14.81-1.14,1.91-2.75,3-4.36,3-11.62,5.36-14.07,4.93-0.49-.09-1-0.91-1.47-2.2A21.53,21.53,0,0,1,1482.47,765Z"/>
		</g>
		<g>
			<path d="M1637,899.85c-11.19-5.95-16.09-12-15.92-15.16a1.85,1.85,0,0,1,1.31-1.72c2.24-.88,7.11-0.65,11.4-0.44,4.69,0.22,8.74.41,10.78-.5,3.41-1.53,5-6.58,3.94-12.85-1.56-9.65-9-20-22.2-21.31-12.48-1.26-24.34,9.92-31.28,20.8-7.88,12.35-10.29,24.86-6.13,31.85,4.3,7.24,13.75,10.35,22.9,13.35,9.82,3.23,19.09,6.28,20.47,14,0.84,4.68,0,7.65-2.45,8.84-3.77,1.81-10.65-.89-13-3.55-2.84-3.25-6.29-6.54-10.34-6.32-2.74.15-5.31,1.93-7.65,5.3a21.34,21.34,0,0,0-3.11,18.31c1.34,4.33,4.88,10.23,14.13,13.74,11.37,4.32,30.31,3.19,43.13-2.58,7.3-3.28,12.23-7.82,14.24-13.13C1673.55,931.94,1653.55,908.64,1637,899.85Z"/>
			<path d="M1569.86,929.86c-2.41-.43-8.1,1.38-14.7,3.48-6.22,2-15.63,5-17.37,3.79a0.17,0.17,0,0,1-.09-0.16l-0.36-3.56c-0.44-3.89-1-9.23.27-10.88a1,1,0,0,1,.74-0.41l3-.18c5.57-.24,13.21-0.58,14.7-4.89,1.72-5,1.56-15.49-4.86-18.78a18.49,18.49,0,0,0-8.47-1.64c-2.7-.05-3.84-0.17-4.18-1.17a12.15,12.15,0,0,1-.38-4.25c0.14-2.62.78-5.22,1.4-5.64,0.87,0.11,5.48,1.62,9.58,3,7.23,2.37,15.42,5.06,17.89,5.19,2.05,0.11,3.95-3.41,5.63-10.48,1.37-5.75,3.9-21.12-.78-23.17a1,1,0,0,0-.35-0.08c-0.12,0-12.8-.69-25.59-0.64-23.49.08-27.41,2.39-28.2,4.39-1.33,3.36-3.54,27.57-4.46,48.89-1.31,30-.1,46.43,3.58,48.85,4.36,2.87,18.66,4.44,30.1,4.69,7.35,0.16,24.79,0,27.89-4.54,3.46-5.11,2.46-19.35-.75-27C1572.89,931.75,1571.47,930.15,1569.86,929.86Z"/>
			<path d="M1444.35,862.44c-7.61,1.86-11.91,5.8-12.43,11.4-1.84,19.53,11.08,90.36,11.63,93.37a0.75,0.75,0,0,0,0,.12c0.88,2.78,3.38,4.68,7.42,5.67,9.24,2.25,24-1,26.57-3.48,0.57-.57.75-1.54,0.59-3-0.39-3.55-2.88-9.93-7-20-2.38-5.75-5.29-12.79-5.54-15.13,0,0,0-.07,0-0.11,4.56-2.13,33.78-16.42,39-34.31a18.58,18.58,0,0,0,.7-7.36,19.37,19.37,0,0,0-3.12-8.43C1492.49,866.18,1461.76,858.18,1444.35,862.44Zm14.48,31.16a15.77,15.77,0,0,1,0-5.44c5.5-.49,15.15,2,18.05,4.8a2.24,2.24,0,0,1,.75,1.18,0.79,0.79,0,0,1,0,.13c-0.06,1.17-2,3.49-6.21,6-3.49,2.13-7.27,3.6-9,3.51-0.34,0-.92-0.5-1.55-1.78A27.91,27.91,0,0,1,1458.83,893.6Z"/>
			<path d="M1410,943.61c-2.44.13-7.58,3.19-13.52,6.75-5.61,3.35-14.08,8.42-16,7.66a0.17,0.17,0,0,1-.13-0.14l-1.16-3.38c-1.32-3.69-3.12-8.75-2.22-10.65a1,1,0,0,1,.62-0.57l2.91-.87c5.37-1.51,12.73-3.58,13.2-8.12,0.54-5.23-2-15.44-9-17.17a18.49,18.49,0,0,0-8.62.34c-2.65.57-3.78,0.71-4.34-.19a12.14,12.14,0,0,1-1.34-4.05c-0.46-2.59-.43-5.26.07-5.81,0.87-.09,5.7.32,10,0.7,7.58,0.66,16.17,1.4,18.6,1,2-.36,3.06-4.22,3.09-11.49,0-5.91-1-21.45-6-22.38a1,1,0,0,0-.36,0c-0.12,0-12.62,2.25-25.06,5.22-22.85,5.45-26.13,8.59-26.45,10.71-0.52,3.57,2.85,27.65,6.82,48.62,5.58,29.5,10.5,45.22,14.64,46.74,4.9,1.8,19.18.07,30.37-2.3,7.2-1.53,24.15-5.63,26.12-10.79,2.2-5.77-2-19.4-6.9-26.1C1413.42,944.76,1411.66,943.52,1410,943.61Z"/>
			<path d="M1341.09,924.28a19.39,19.39,0,0,0,0-4.66,18.71,18.71,0,0,0-5.07-10.48c-12.15-13.16-43.8-15.78-60.23-8.61-7.18,3.13-10.74,7.75-10.3,13.36,1.53,19.56,26.38,87.13,27.44,90L1293,1004c1.34,2.58,4.13,4,8.28,4.32,9.49,0.64,23.53-5.06,25.58-8a2.63,2.63,0,0,0,.32-1.89c-0.4-3.2-4.06-9.31-10.59-19.63-3.41-5.39-7.56-12-8.06-14.08C1312.68,961.85,1339,942.8,1341.09,924.28Zm-42.2,12.43c-2.22-3-4-9-4.39-11.9a4.21,4.21,0,0,1,0-1.44c5.34-1.42,15.26-.56,18.59,1.65a2,2,0,0,1,1,1.16c0.38,3.24-9.5,11.56-13.33,12C1300.39,938.24,1299.74,937.87,1298.89,936.71Z"/>
		</g>
	</g>
</svg>
