<svg xmlns="http://www.w3.org/2000/svg" viewBox="0 0 2500 2500">
    <title>PepeFrogEgyptianHat</title>
    <g>
        <g>
            <g>
                <path d="M2014.39,1240.82c-114-105-465.91-69.82-465.91-69.82-724,36-900,432-900,432S471.31,1112.21,296.87,768.57c-31.73-62.51-123.36-264.12-153.82-313,0,0,208.42-260.86,761.85-347.93,683.86-107.59,947.81,120,965.81,204S2014.39,1240.82,2014.39,1240.82Z" style="fill: #437dc0;isolation: isolate"/>
                <path d="M904.35,104.13C777.88,124,659,154.74,551.14,195.41c-86.36,32.55-166,71.52-236.57,115.83C194.18,386.78,140.84,452.68,140.31,453.34a3.5,3.5,0,0,0-.24,4c19.7,31.64,66.17,129.71,103.52,208.5,20.95,44.2,39,82.37,50.16,104.28,172.35,339.51,349.68,829.13,351.45,834a3.5,3.5,0,0,0,6.49.23c0.44-1,45.39-99.67,177.84-201.46,77.81-59.8,170.14-109,274.43-146.11,130.44-46.46,280.06-74.17,444.7-82.36h0.17a1514.71,1514.71,0,0,1,189.79-4.45c59.12,2.51,111,8.9,154.12,19,53.6,12.54,93.73,30.84,119.28,54.37a3.5,3.5,0,0,0,5.83-3.09c-1.26-8.45-125.92-846.35-143.73-929.49-5.26-24.53-28.41-55.29-63.52-84.39-43.34-35.92-102.8-67.73-171.95-92-85.59-30-185.4-48.76-296.66-55.66C1210.44,70.61,1063.2,79.14,904.35,104.13ZM318.65,316.95c70.21-44,149.36-82.74,235.25-115.09,107.38-40.45,225.65-71,351.54-90.81,158.35-24.91,305.08-33.42,436.12-25.3,110.62,6.86,209.8,25.46,294.78,55.28,68.38,24,127.09,55.39,169.8,90.78,33.42,27.7,56.28,57.79,61.14,80.47,16.75,78.19,128.54,827.58,142.27,919.8-26.49-21.39-65.17-38.16-115.26-49.88-43.58-10.2-95.89-16.64-155.46-19.17a1522.43,1522.43,0,0,0-190.62,4.48c-165.44,8.23-315.82,36.12-447,82.88-105,37.45-198,87-276.4,147.34C755,1451.44,710,1503.92,684.48,1538.48c-19.09,25.87-30.26,45.54-35.51,55.62-23.28-63.69-188.26-510.5-349-827.12-11.08-21.83-29.15-60-50.07-104.11-38.53-81.3-82.07-173.17-102.58-207C156.87,444.66,210.4,384.81,318.65,316.95Z"/>
            </g>
            <g>
                <path d="M1548.48,1171s351.9-35.19,465.91,69.82c0,0-19.65-132.13-44.52-297.11C1880.42,911.19,1477.28,792.53,956.48,1067c0,0,40,116,8,152s-120,108-192,156-92,72-116,52c-17.67-14.72-33.18-27.28-75.24-2.54C622.75,1531.71,648.48,1603,648.48,1603S824.48,1207,1548.48,1171Z" style="fill: #ffc52b;isolation: isolate"/>
                <path d="M1624.92,886.73c-99.92.33-202.13,12.85-303.78,37.23-122.7,29.43-245.94,76.51-366.29,139.94a3.5,3.5,0,0,0-1.68,4.24c0.39,1.14,39,114.47,8.69,148.53-32.38,36.43-121.79,109.05-191.33,155.41-15.3,10.2-28.1,19.21-39.39,27.15-43.14,30.36-56.3,38.52-72.43,25.07-17.9-14.92-34.81-29-79.26-2.87a3.5,3.5,0,0,0-1.49,4.28c41,106,67,177.76,67.22,178.47a3.5,3.5,0,0,0,6.49.23c0.44-1,45.39-99.67,177.84-201.46,77.81-59.8,170.14-109,274.43-146.11,130.44-46.46,280.06-74.17,444.7-82.36h0.17a1514.71,1514.71,0,0,1,189.79-4.45c59.12,2.51,111,8.9,154.12,19,53.6,12.54,93.73,30.84,119.28,54.37a3.5,3.5,0,0,0,5.83-3.09c-0.2-1.32-19.93-134-44.52-297.11a3.5,3.5,0,0,0-2.26-2.77C1926.13,924.09,1802.45,886.16,1624.92,886.73Zm-302.15,44c101.12-24.25,202.79-36.71,302.17-37,174-.57,295.68,36,341.78,52.57,20.74,137.59,38,253.14,42.83,285.78-26.49-21.39-65.17-38.16-115.26-49.88-43.58-10.2-95.89-16.64-155.46-19.17a1522.43,1522.43,0,0,0-190.62,4.48c-165.44,8.23-315.82,36.12-447,82.88-105,37.45-198,87-276.4,147.34C755,1451.44,710,1503.92,684.48,1538.48c-19.09,25.87-30.26,45.54-35.51,55.62-7.67-21-30.63-83.41-63.37-168.08,38.18-21.61,51.7-10.46,68.65,3.67,10.32,8.6,20.33,10.08,33.45,4.94,12-4.71,26.91-15.18,47.49-29.67,11.26-7.92,24-16.9,39.24-27.05,71.16-47.44,159.4-119.15,192.67-156.59,9.81-11,13.28-28.82,13.28-48.49,0-41.55-15.49-91.5-19.63-104.1C1079.75,1006.28,1201.53,959.85,1322.77,930.77Z"/>
            </g>
            <g>
                <path d="M760.48,1239l20-196c-125.73,0-294.21-29.92-375.76-46,37.14,83.52,72.57,167.73,104.35,245.71C634.87,1264.12,760.48,1239,760.48,1239Z" style="fill: #ffc52b;isolation: isolate"/>
                <path d="M455.79,1030c-10.16-1.8-19.8-3.53-28.83-5.17q2.14,12.52,4.32,25c17.08,40.92,33.83,84.69,51.36,128.84C476.71,1128.64,466.19,1079.27,455.79,1030Z" style="fill: #4353c0;isolation: isolate"/>
                <path d="M493.14,1036.5c0.07,2.19.17,4.37,0.34,6.5,5.8,59.7,17.79,117.33,22.28,176.32,36.59,4.07,76.49,5.24,112.79,4.84,1.17-7.5,2.57-14.93,3.93-22.16,9-48.61,13.47-95.54,18.94-142.46C598,1053.42,542,1044.76,493.14,1036.5Z" style="fill: #f37028"/>
                <path d="M752.85,1067.55c-17.73-.53-36.85-1.75-56.78-3.48-4.22,52.89-15,105-19.12,158.62,26.56-1.34,48.17-3.35,60.61-5.2Z" style="fill: #4353c0;isolation: isolate"/>
                <path d="M402,994.79a3.5,3.5,0,0,0-.46,3.61c33.51,75.36,68.6,158,104.3,245.61a3.5,3.5,0,0,0,2.65,2.13c125,21.29,251.42-3.46,252.68-3.71a3.5,3.5,0,0,0,2.8-3.08l20-196a3.5,3.5,0,0,0-3.48-3.86c-123.82,0-288.14-28.79-375.08-46A3.5,3.5,0,0,0,402,994.79Zm8.65,6.91c87.76,17.14,245.1,44.2,366,44.77L757.27,1236c-18.16,3.3-132.28,22.39-245.7,3.5C477.05,1154.89,443.13,1075,410.64,1001.7Z"/>
            </g>
            <g>
                <path d="M1926.58,658.83c-12.06-78.56-23.55-152.56-33.07-212.38C1680.22,398.44,846.2,256.28,323,821.11c24.4,50,48.69,102.18,72.35,154.91C587.25,837.23,1137.61,512.4,1926.58,658.83Z" style="fill: #ffc52b;isolation: isolate"/>
                <g>
                    <path d="M353.07,825.78c17,35.17,34.62,72.81,52.59,112.34,19.27-13.34,39.33-26.57,60-39.57-18.38-43-36.28-86.4-54.7-129.54Q381.1,796.38,353.07,825.78Z" style="fill: #f37028"/>
                    <path d="M419.18,761.51c18.61,44,36.93,88.05,53.22,132.81q13.81-8.62,27.93-17.08c-20.08-44.85-38.88-89.95-59.6-134.67Q429.84,751.92,419.18,761.51Z" style="fill: #4353c0;isolation: isolate"/>
                    <path d="M555.91,655.08C579,706.67,600.69,758.29,622,810.29q14.69-7.39,29.56-14.53c-20.17-53.56-47.28-104.57-71.65-156.35Q567.81,647.12,555.91,655.08Z" style="fill: #4353c0;isolation: isolate"/>
                    <path d="M593.77,630.73c24.3,52.89,53.5,103,79.46,154.77q63.17-29.52,128.7-54.7c-17.8-60.27-35.64-120.25-61.4-177.89A1265.11,1265.11,0,0,0,593.77,630.73Z" style="fill: #f37028"/>
                    <path d="M768.84,540.57c-1.53.64-3,1.31-4.57,2,27.28,57,41.29,119.39,59.67,180q24.72-9.17,49.7-17.69c-19.69-61.18-47.91-118.59-66.9-179.53Q787.59,532.67,768.84,540.57Z" style="fill: #4353c0;isolation: isolate"/>
                    <path d="M835,514.73C860.43,573.64,882.59,634,902.15,695.3q13.74-4.46,27.54-8.73,85.45-26.36,173.34-45.07c-18.68-61.79-32.47-124.77-51-186.92A1515.1,1515.1,0,0,0,835,514.73Z" style="fill: #f37028"/>
                    <path d="M1082.91,448.71c14.27,63.07,35.17,124.05,53.23,186q23-4.51,46.13-8.48c-12.36-62.78-29.54-124.75-48.72-185.91Q1108,444.18,1082.91,448.71Z" style="fill: #4353c0;isolation: isolate"/>
                    <path d="M1226.88,428.85q-31.26,3-61.94,7.08a248.71,248.71,0,0,1,6.54,27.07c9.47,54.81,17.58,108.24,32.36,159.68q87.3-14.05,175.81-20.51,19.33-1.4,38.74-2.43c-6.09-60.06-12-120.09-22.36-179.74C1341.66,420.54,1285,423.23,1226.88,428.85Z" style="fill: #f37028"/>
                    <path d="M1871.49,467.21c-8.84-1.89-18.62-3.91-29.25-6,6.15,53.87,10.75,107.68,18.06,161.09q18.13,2.78,36.26,5.84C1886.93,565.57,1878.53,511.65,1871.49,467.21Z" style="fill: #4353c0;isolation: isolate"/>
                    <path d="M1622.46,429.65q-23.05-2.16-47.36-3.93c8.83,58,19.66,115,22.26,172.18q24,0.77,48.08,2.07C1645.43,543.2,1630.85,486.42,1622.46,429.65Z" style="fill: #4353c0;isolation: isolate"/>
                    <path d="M1807.48,456v-1.32c-43.32-7.74-96.64-15.85-157.47-22.29,1.27,5.61,2.62,11.19,3.47,16.61,8,51.63,15.6,102.12,19.58,152.65q77.46,5.22,155.33,16C1822.24,563.84,1811,510.4,1807.48,456Z" style="fill: #f37028"/>
                    <path d="M459.31,726.94q26.51,71.23,55.84,141.52c25.46-15,51.51-29.46,77.86-43.28q6.91-3.62,13.85-7.19c-23.38-50.62-43.45-103.14-61.33-155.89Q500.9,692.66,459.31,726.94Z" style="fill: #f37028"/>
                </g>
                <path d="M1224.14,400.48c-169,16.34-325.9,54.64-466.37,113.82C588.71,585.54,441.57,688,320.45,818.73a3.5,3.5,0,0,0-.58,3.91c23.08,47.25,47.41,99.33,72.3,154.81a3.5,3.5,0,0,0,5.24,1.4c43.39-31.38,114.84-79.14,208.83-128.44A1959.36,1959.36,0,0,1,938.1,713.81a1998.8,1998.8,0,0,1,443.62-83.22c178.11-12.94,361.22-2.28,544.23,31.68a3.5,3.5,0,0,0,4.1-4c-13.19-86-24.32-157.43-33.08-212.4a3.5,3.5,0,0,0-2.69-2.86C1838,430.36,1746.73,412.91,1632,401.82,1492.12,388.29,1354.88,387.84,1224.14,400.48ZM760.49,520.75c139.81-58.91,296-97,464.32-113.31,300.47-29.05,563.95,19.18,665.62,41.9,8.53,53.6,19.27,122.59,32,205.17-182-33.37-364-43.78-541.17-30.91A2005.8,2005.8,0,0,0,936,707.12,1966.39,1966.39,0,0,0,603,844.22c-91.93,48.22-162.33,94.94-206.19,126.47-23.93-53.23-47.32-103.3-69.58-148.92C447.36,692.56,593.1,591.28,760.49,520.75Z"/>
            </g>
            <g>
                <path d="M1372.8,95.59s36,246,36,299.94-102,72-90,168,90,42,120,90,26.55,155.29,32.55,200.3,51,42,78,33,45-24,42-45-51-174-42-186,93-21,81-114-126-126-141-171-63-258-72-273S1373.27,72.48,1372.8,95.59Z" style="fill: #ffc52b;isolation: isolate"/>
                <path d="M1381.29,79.24c-7.56,2-11.82,7.79-12,16.28a3.46,3.46,0,0,0,0,.58c0.36,2.46,36,246.31,36,299.43,0,20.89-16.76,36.34-36.17,54.23-28.61,26.37-61,56.26-53.79,114.17,7.46,59.72,40.9,64.19,70.39,68.14,19.95,2.67,38.79,5.19,50.09,23.26,21.68,34.69,25.62,102.95,28.49,152.78,1.06,18.37,2,34.23,3.56,46.12,2.08,15.6,8.78,27,19.9,34,22.06,13.78,53.56,4.92,62.68,1.88,31.6-10.53,47.35-27.87,44.36-48.82-1-7-6.56-27.19-13.61-52.76-7-25.34-15.67-56.87-21.71-82.44-9.46-40-8-47.07-7.32-48.28,1.41-1.88,7.44-4.54,13.81-7.36,13-5.74,32.64-14.41,47.45-30.84,17.69-19.62,24.54-46,20.37-78.3-7.54-58.4-54.36-93.79-92-122.22-23.45-17.72-43.71-33-49.18-49.45-6.88-20.65-21-78-34.72-133.5-20.21-81.94-32.83-132.27-37.61-140.23C1413.4,84.35,1393.7,75.94,1381.29,79.24Zm1.8,6.76c9.51-2.53,25.87,4.53,31.24,13.5,4.57,7.62,21.7,77,36.81,138.3,13.72,55.61,27.91,113.12,34.88,134,6.16,18.48,27.22,34.39,51.6,52.82,36.58,27.64,82.1,62,89.26,117.54,4,30.64-2.14,54.43-18.63,72.72-13.81,15.32-31.89,23.3-45.08,29.13-8.48,3.74-14.07,6.21-16.62,9.61-6.06,8.08,4.17,50.53,27.92,136.73,6.7,24.33,12.49,45.34,13.42,51.89,3.15,22.07-19.82,34.58-39.65,41.19-8.39,2.8-37.29,11-56.76-1.18-9.27-5.79-14.88-15.54-16.67-29-1.55-11.63-2.46-27.37-3.51-45.6-2.92-50.59-6.91-119.88-29.54-156.09-13-20.87-34.42-23.73-55.09-26.49-29.61-4-57.58-7.7-64.38-62.07a119,119,0,0,1-.95-14.77c0-45,27.76-70.55,52.54-93.39,19.76-18.22,38.42-35.42,38.42-59.38,0-53.15-33.95-286.2-36-300.09C1376.48,90.27,1378.69,87.18,1383.09,86Z"/>
            </g>
            <g>
                <path d="M1349.95,598.75s-58.31,66-110.79,24-61.23-216,61.23-192,306.33,163.89,345.68,138.39,5.83-76.5-27.69-81-87.45-54-87.45-54l-17.49-24s51,22.5,94.74,25.5,109.32,31.5,103.49,114-81.62,88.5-151.59,54-249.24-126-279.85-102-7.29,85.5,17.49,79.5S1377.41,569.89,1349.95,598.75Z" style="fill: #ffc52b;isolation: isolate"/>
                <path d="M1666.28,530.09c-4.73-22.17-26-42.55-47.47-45.43-6.65-.89-14.21-3.68-22-7.54a91.32,91.32,0,0,0,6,10.29,66,66,0,0,0,15.11,4.19c18.51,2.48,37.61,20.8,41.71,40,2.1,9.86,1.14,23.86-15.39,34.57-18.7,12.12-80.06-20.15-145-54.31S1360.67,439,1301,427.3c-43.17-8.46-75.7,6.8-91.59,43-10.35,23.57-13,55-7.13,86.24,5.65,30.3,18.65,56.1,34.77,69,22.58,18.07,49.8,19.49,78.73,4.1a140.17,140.17,0,0,0,25-17.27q-1.83-3-3.53-6.13a134.28,134.28,0,0,1-24.74,17.26c-26.71,14.16-50.69,13-71.27-3.49-14.86-11.89-26.92-36.12-32.27-64.8-5.57-29.85-3.14-59.76,6.65-82,10.24-23.3,33.14-49,84.12-39,58.7,11.5,131.85,50,196.4,83.91,72.5,38.12,129.76,68.23,151.74,54,12.7-8.23,19.39-19.73,19.39-33A43.08,43.08,0,0,0,1666.28,530.09Z"/>
                <path d="M1692.37,471.79c-28.21-33.38-71.41-38.78-84-39.65-42.63-2.92-93.12-25-93.63-25.22a3.29,3.29,0,0,0-2.3-.13c4.35,3.25,7.65,7.89,12,11.58,17.89,6.88,52.26,18.61,83.52,20.76,11.91,0.82,52.81,5.92,79.29,37.26,14.21,16.81,21.38,38,21.38,63.12q0,4.84-.36,9.87c-2,28.78-12.74,49.15-31.83,60.55-27.11,16.19-70.07,12.65-114.89-9.45l-14.48-7.16c-39-19.35-98-48.59-151.22-70.35-66.54-27.23-103.94-34.89-117.69-24.11-18.91,14.83-19.24,43.44-9.79,64,7.37,16.06,18.91,24.36,30.12,21.64a172.77,172.77,0,0,1,27.49-4.25q-1.16-3.38-2.18-6.8a215.87,215.87,0,0,0-26.87,4.24c-7.79,1.88-16.58-5.11-22.41-17.82-8.28-18.05-8.28-42.91,7.76-55.49,7.8-6.11,33.4-6.73,111.06,25,53,21.67,111.82,50.85,150.78,70.15l14.49,7.17c46.86,23.11,92.19,26.54,121.25,9.19,20.85-12.45,33-35.3,35.2-66.09C1717.26,518.49,1709.63,492.22,1692.37,471.79Z"/>
            </g>
        </g>
        <g style="isolation: isolate">
            <path d="M2137.48,1352.5c-18-8-18,2-36,0s-86-58-184-68-242,20-268,64c0,0-66-84-186-88s-268,92-312,100-108.41-19.41-116.41.59,2.36,29.16,40.5,51,53.91,62.42,141.91,102.42,264,46,328,32,96-58,96-58,74,56,222,46,214-42,252-94S2155.48,1360.5,2137.48,1352.5Zm-344,138c-102,6-172-36-172-36s-162,76-290,52-160-94-160-94,54-74,158-96,222-2,268,20,46.56,54.58,46.56,54.58c48-34,137.44-76.58,221.44-76.58s182,52,200,56,36,40,36,40C2077.48,1468.5,1895.48,1484.5,1793.48,1490.5Z"/>
        </g>
    </g>
</svg>
