<?xml version="1.0" encoding="iso-8859-1"?>
<!-- Generator: Adobe Illustrator 21.1.0, SVG Export Plug-In . SVG Version: 6.00 Build 0)  -->
<svg version="1.1" xmlns="http://www.w3.org/2000/svg" xmlns:xlink="http://www.w3.org/1999/xlink" x="0px" y="0px"
	 viewBox="0 0 2500 2500" style="enable-background:new 0 0 2500 2500;" xml:space="preserve">
<g id="Elvis_Hair">
	<path style="fill-rule:evenodd;clip-rule:evenodd;fill:#ff0000;stroke:#000;stroke-linecap:round;stroke-linejoin:round;stroke-width:8.5px" d="M2156.303,863.044c-96.96-322.284-303.36-420.1-619.202-293.447
		c-151.681,41.738-397.264,180.582-536.297,193.168C848.308,776.319,774.641,874.653,743.9,1009.672
		c-100.261,194.153-135.306,409.209-105.118,645.173c8-80.141,36.561-166.031,85.685-257.667c3.258-7.309,6.356-14.597,9.312-21.867
		c15.916,176.195,48.801,350.787,53.289,462.998c50.913,25.779,108.86,52.734,173.841,80.863
		c-50.333-220.651-67.782-329.768-19.11-623.799c51.182-231.768,455.512-46.326,922.789-116.444
		C2079.6,1136.432,2176.838,1031.138,2156.303,863.044z"/>
</g>
<g id="Layer_1">
</g>
</svg>
