<svg xmlns="http://www.w3.org/2000/svg" viewBox="0 0 2500 2500">
   <title>PepeFrogFrakenstein1</title>
   <g>
      <path d="M1871.89,1164.73S1912,958.93,1885,874.92c0,0-135.63-129.54-579.67-93.54S694,880.92,697,910.92s-4.23,367.82,16.78,499.83c0,0,60-108,153-96l78-9,45-168,33,93,69-174,105,27,18-69,96,63,48-63,84,81,15-63,96,63,24-63,66,57,54-63,51,75,39-45Z" style="stroke: #000;stroke-linecap: round;stroke-linejoin: round;stroke-width: 8.504px"/>
      <g>
         <path d="M1232.59,1088c-2.4-22.57,16.5-45,30-27s24,72,9,78S1240.09,1158.52,1232.59,1088Z" style="fill: #fff;stroke: #000;stroke-width: 9px"/>
         <path d="M1394.41,1112.89c0.8-22.68,22.67-42.22,33.5-22.5s13.62,74.66-2.08,78.49S1391.9,1183.74,1394.41,1112.89Z" style="fill: #fff;stroke: #000;stroke-width: 9px"/>
         <path d="M1564.41,1142.89c0.8-22.68,22.67-42.22,33.5-22.5s13.62,74.66-2.08,78.49S1561.9,1213.74,1564.41,1142.89Z" style="fill: #fff;stroke: #000;stroke-width: 9px"/>
         <path d="M1690.41,1120.89c0.8-22.68,22.67-42.22,33.5-22.5s13.62,74.66-2.08,78.49S1687.9,1191.74,1690.41,1120.89Z" style="fill: #fff;stroke: #000;stroke-width: 9px"/>
         <path d="M1808,1166.67c-11.6-19.51-3.78-47.78,16-37.05s51.85,55.42,40.72,67.13S1844.2,1227.62,1808,1166.67Z" style="fill: #fff;stroke: #000;stroke-width: 9px"/>
         <path d="M1066.59,1162c-2.4-22.57,16.5-45,30-27s24,72,9,78S1074.09,1232.52,1066.59,1162Z" style="fill: #fff;stroke: #000;stroke-width: 9px"/>
      </g>
      <g>
         <path d="M736.24,1331.26S881.87,1345,903.52,1349,937,1376.53,935,1421.79s-25.58,70.85-37.39,66.92-157.45,0-157.45,0Z" style="fill: #868386;stroke: #000;stroke-width: 9px"/>
         <path d="M624.05,1270.25c31.49-11.81,118.08-3.94,129.89,21.65s25.58,104.31,21.65,167.29-27.55,88.56-39.36,94.47-104.31,15.75-122,3.94S604.47,1277.6,624.05,1270.25Z" style="fill: #585358;stroke: #000;stroke-width: 9px"/>
         <path d="M578.55,1328.14c10.44-52.19,70.86-94.48,106.29-20.67s8,224.48-35.43,245.05C593.32,1579.1,543.12,1505.29,578.55,1328.14Z" style="fill: #868386;stroke: #000;stroke-width: 9px"/>
      </g>
   </g>
</svg>
