<?xml version="1.0" encoding="iso-8859-1"?>
<!-- Generator: Adobe Illustrator 21.1.0, SVG Export Plug-In . SVG Version: 6.00 Build 0)  -->
<svg version="1.1" xmlns="http://www.w3.org/2000/svg" xmlns:xlink="http://www.w3.org/1999/xlink" x="0px" y="0px"
	 viewBox="0 0 2500 2500" style="enable-background:new 0 0 2500 2500;" xml:space="preserve">
<g id="Goku_Hair">
	<path style="fill-rule:evenodd;clip-rule:evenodd;fill:#ff0000;stroke:#000;stroke-linecap:round;stroke-linejoin:round;stroke-width:8.5px" d="M816.952,1021.731c-144.431,3.568-279.517,29.839-403.758,79.608
		c-127.156,50.937-244.249,127.114-349.871,228.713c290.092-21.954,429.392-5.635,595.29,47.223
		c-114.443,76.684-193.821,109.023-264.366,200.946C608.733,1464.208,771.279,1550.49,883,1542
		c-63.934-44.227-33.149-139.358,32-197c-24,113,149.543,231.318,224,233c-92-92-122.38-245.552-112.223-317.379
		c44.511,50.232,111.127,226.765,127.223,255.379c-2.758-113.854-12.102-314.607,93.153-389.832
		c-18.796,92.595,6.258,151.8,23.949,239.457c168.962-134.619,115.599-98.32,241.177-171.484
		c39.413,97.56,99.807,105.724,46.72,197.859c105.276-80.592,171.331-144.937,198-181c-8,37,54.367,11.184-0.273,64.367
		c50.606-10.277,85.181-20.295,104.224-29.915c-8.882,27.471-25.247,52.03-48.126,73.515
		c72.022-34.424,115.551-39.166,150.175-65.967c-1.3,38.306,72.956,72.973,129.561,120.19
		c21.846-39.384,127.456-48.605,204.979-61.474c-58.118-22.067-158.487-45.77-198.675-57.873
		c130.838-47.064,199.412-75.585,275.208-110.418c-56.724-1.926-136.391-0.935-239.958,3.004
		c149.238-91.778,270.419-160.389,365.885-207.647c-100.555-9.987-219.187-11.094-357.466-2.856
		c47.085-25.669,107.133-68.523,179.636-128.086c-139.837,17.753-270.392,36.045-390.949,54.717
		c-19.995-100.221-98.932-162.039-238.988-186.498c18.232-148.513-21.281-269.674-117.966-366.175
		c-97.269-97.082-255.571-171.744-480.043-224.806c59.161,96.035,99.575,184.98,121.437,266.884
		c21.943,82.208,25.438,158.137,10.211,227.715c-56.492-50.365-144.313-104.862-265.216-164.057
		c-134.638-13.03-267.623-10.245-399.051,8.922c-134.455,19.608-268.033,56.525-400.612,111.72
		c163.089,60.055,298.453,130.531,406.813,211.118C675.359,827.368,758.267,918.867,816.952,1021.731z"/>
</g>
<g id="Layer_1">
</g>
</svg>
