<?xml version="1.0" encoding="iso-8859-1"?>
<!-- Generator: Adobe Illustrator 21.1.0, SVG Export Plug-In . SVG Version: 6.00 Build 0)  -->
<svg version="1.1" xmlns="http://www.w3.org/2000/svg" xmlns:xlink="http://www.w3.org/1999/xlink" x="0px" y="0px"
	 viewBox="0 0 2500 2500" style="enable-background:new 0 0 2500 2500;" xml:space="preserve">
<g id="Hat_2">
	<g>
		
			<path style="fill-rule:evenodd;clip-rule:evenodd;fill:#000001;stroke:#000001;stroke-width:2.8797;stroke-miterlimit:2.6131;" d="
			M1676.763,983.118c-384.829,32.963-663.819,74.06-836.97,123.29c-390.217,78.86-93.878,270.49,365.698,245.38
			C1710.474,1324.194,2285.841,1010.632,1676.763,983.118z"/>
		
			<path style="fill-rule:evenodd;clip-rule:evenodd;fill:#000001;stroke:#000001;stroke-width:2.8797;stroke-miterlimit:2.6131;" d="
			M1677.597,1028.319c-6.395-284.887-30.01-488.422-70.844-610.608c-52.855-158.159-367.857-128.418-517.277-106.563
			c-131.361,19.215-248.885,63.21-357.994,126.957c-134.509,78.58-105.769,60.829-49.278,187.359
			c99.176,222.146,151.986,397.527,158.422,526.144C1193.578,1199.51,1472.568,1158.413,1677.597,1028.319z"/>
		
			<path style="fill-rule:evenodd;clip-rule:evenodd;fill:#D91F26;stroke:#000001;stroke-width:2.8797;stroke-miterlimit:2.6131;" d="
			M1616.211,1065.327c-90.177,47.736-198.961,78.902-326.343,93.497c-100.98,11.57-166.1,12.059-338.012,3.473
			c-111.604-5.575-107.044-3.603-119.919-89.05c-2.634-17.48-3.925-22.472-8.076-42.825
			c391.611,8.683,674.696-36.159,849.255-134.52c1.024,24.26,1.883,46.129,2.573,65.605
			C1678.247,1033.687,1689.781,1026.386,1616.211,1065.327z"/>
		
			<path style="fill-rule:evenodd;clip-rule:evenodd;fill:#5E5F5F;stroke:#000001;stroke-width:2.8797;stroke-miterlimit:2.6131;" d="
			M663.651,487.84c-5.855,4.472-12.497,10.757-20.605,17.331c287.604,66.217,565.41,34.997,865.58-96.902
			C1195.67,518.339,924.507,543.273,663.651,487.84z"/>
	</g>
</g>
<g id="Layer_1">
</g>
</svg>
