<?xml version="1.0" encoding="iso-8859-1"?>
<!-- Generator: Adobe Illustrator 21.1.0, SVG Export Plug-In . SVG Version: 6.00 Build 0)  -->
<svg version="1.1" xmlns="http://www.w3.org/2000/svg" xmlns:xlink="http://www.w3.org/1999/xlink" x="0px" y="0px"
	 viewBox="0 0 2500 2500" style="enable-background:new 0 0 2500 2500;" xml:space="preserve">
<g id="Hat">
	<g>
		
			<path style="fill-rule:evenodd;clip-rule:evenodd;fill:#3E4E5C;stroke:#000001;stroke-width:8.5039;stroke-miterlimit:2.6131;" d="
			M2060,1289.314c-5.621-19.855-14.124-36.57-43.069-51.681c-215.977-112.758-606.678-88.386-843.111,8.814
			C1536.187,1227.647,1836.895,1264.245,2060,1289.314z"/>
		
			<path style="fill-rule:evenodd;clip-rule:evenodd;fill:#3E4E5C;stroke:#000001;stroke-width:8.5039;stroke-miterlimit:2.6131;" d="
			M2016.931,1237.633c-2.147,1.899-392.271-92.01-692.241-21.033c-233.094,51.06-384.025,58.177-552.853,124.431
			C697.041,707.077,1737.446,663.182,2016.931,1237.633z"/>
		<path style="fill-rule:evenodd;clip-rule:evenodd;fill:none;stroke:#000001;stroke-width:8.5039;stroke-miterlimit:2.6131;" d="
			M1218.925,836.295c-204.064,122.433-267.24,271.229-290.302,456.638"/>
		
			<path style="fill-rule:evenodd;clip-rule:evenodd;fill:#3E4E5C;stroke:#000001;stroke-width:8.5039;stroke-miterlimit:2.6131;" d="
			M1177.4,846.228c20.84,20.058,89.419,4.617,96.637-10.758C1270.95,797.39,1179.477,794.982,1177.4,846.228z"/>
	</g>
</g>
<g id="Layer_1">
</g>
</svg>
