<svg xmlns="http://www.w3.org/2000/svg" viewBox="0 0 2500 2500">
    <title>PepeFrogIndianHatBAck</title>
    <g>
        <g>
            <path d="M1855.93,913s153.5-51.68,222.23-155.27,47.91-136,47.91-136-141.66,33-220.27,101.94S1770,894.41,1770,894.41l21.8,38Z" style="fill: #ff6819;stroke: #000;stroke-width: 8px"/>
            <path d="M2064.54,640.05c35.71-12.25,61.52-18.26,61.52-18.26s17.2,26.77-31.28,109.42c-13.29-2.57-26.33-6.13-39.28-10C2059.94,694.19,2062.35,667.08,2064.54,640.05Z" style="fill: #ffed31;stroke: #000;stroke-width: 8px"/>
            <path d="M2055.51,721.21c13,3.87,26,7.43,39.28,10-4.86,8.29-10.37,17.13-16.63,26.56-15.46,23.3-35.2,44-56.52,62-28.9-4.2-57.59-9.74-86.51-14.57a1029.87,1029.87,0,0,0,23.38-118.34c35.79-20.52,74.72-36.07,106-46.82C2062.35,667.08,2059.94,694.19,2055.51,721.21Z" style="fill: #fff;stroke: #000;stroke-width: 8px"/>
            <path d="M2126,632c-1.58-1-15.27,20.7-43.93,49.64-28.37,29.18-70.93,65.76-120,103.18-98.37,74.73-183,127.8-181.16,131.33,1.58,3.23,89.49-44.57,188.69-119.92,49.5-37.71,91.78-76.06,119-107.62C2116.15,657.22,2127.53,632.83,2126,632Z"/>
        </g>
        <g>
            <path d="M1988.46,638.31s98.14-137.18,99.19-264.49-33.27-141-33.27-141-98.42,114.56-126,219.61-20.17,223.66-20.17,223.66l38.09,17.61Z" style="fill: #ff6819;stroke: #000;stroke-width: 8px"/>
            <path d="M2013.74,285.85c22.71-32.1,40.64-53,40.64-53s28.35,11.29,32.72,108.93c-12.25,6.12-24.83,11.25-37.49,16.09C2038.84,333,2026.36,309.33,2013.74,285.85Z" style="fill: #ffed31;stroke: #000;stroke-width: 8px"/>
            <path d="M2049.61,357.89c12.67-4.84,25.24-10,37.49-16.09,0.44,9.79.64,20.43,0.54,32-0.24,28.63-5.38,57.76-13.22,85.71-25.9,14.42-52.35,27.62-78.61,41.54a1007.22,1007.22,0,0,0-43.95-111.35c18.37-38.92,42-75.72,61.87-103.88C2026.36,309.33,2038.84,333,2049.61,357.89Z" style="fill: #fff;stroke: #000;stroke-width: 8px"/>
            <path d="M2059.74,241.28c-1.85.12-1.47,26.39-9.5,67.8-7.67,41.43-23,97.68-43.28,158.67-40.71,122-81.75,217.77-78.32,219.51,3,1.67,49.52-91.81,90.57-214.81,20.42-61.47,34.61-119,40.09-161.69C2065.16,268,2061.47,241,2059.74,241.28Z"/>
        </g>
        <g>
            <path d="M1787.12,1014.1s154.43,48.35,264.9,3,109.76-84.77,109.76-84.77-135-56.88-235.88-46.23-200.78,61.36-200.78,61.36l-1.34,44.6Z" style="fill: #ff6819;stroke: #000;stroke-width: 8px"/>
            <path d="M2101.15,910.89c36,11.05,60.64,21.42,60.64,21.42s0.58,32.54-82.26,72.54c-9.76-10.06-18.79-20.78-27.59-31.72C2069.51,953.25,2085.45,932.1,2101.15,910.89Z" style="fill: #ffed31;stroke: #000;stroke-width: 8px"/>
            <path d="M2051.93,973.13c8.81,10.93,17.84,21.66,27.59,31.72-8.3,4-17.43,8.09-27.5,12.23-24.84,10.21-51.91,15.67-78.95,18-21.92-20.7-43-42.41-64.59-63.66a932.05,932.05,0,0,0,80.27-84.67c40.36,4.22,80.78,14.44,112.4,24.14C2085.45,932.1,2069.51,953.25,2051.93,973.13Z" style="fill: #fff;stroke: #000;stroke-width: 8px"/>
            <path d="M2156.47,940.74c-0.78-1.81-23.36,8.16-62.1,15.2-38.62,7.42-92.87,12.56-153,14.49C1821,974.13,1723.23,967.92,1723,972c-0.34,3.64,97.46,16.15,218.8,12.45,60.61-1.95,115.54-8.72,154.45-18.79C2135.33,955.93,2157.34,942.38,2156.47,940.74Z"/>
        </g>
        <g>
            <path d="M1772.82,1149.29s143,79.22,259.5,57.4,122.78-60.63,122.78-60.63-122.39-83.59-223.33-93.9-208,18.93-208,18.93l-9.23,43.51Z" style="fill: #ff6819;stroke: #000;stroke-width: 8px"/>
            <path d="M2099.38,1112.57c33.42,18.26,55.72,33.5,55.72,33.5s-5.2,32.06-93.62,54.28c-7.8-11.88-14.75-24.26-21.46-36.81C2060.8,1147.65,2080.2,1130.16,2099.38,1112.57Z" style="fill: #ffed31;stroke: #000;stroke-width: 8px"/>
            <path d="M2040,1163.54c6.7,12.54,13.66,24.93,21.46,36.81-8.86,2.23-18.55,4.36-29.16,6.34-26.2,4.91-53.74,4.7-80.69,1.44-17.84-24.83-34.66-50.47-52.11-75.77a893.87,893.87,0,0,0,93.81-66.6c38.87,12.44,76.73,30.79,106,46.81C2080.2,1130.16,2060.8,1147.65,2040,1163.54Z" style="fill: #fff;stroke: #000;stroke-width: 8px"/>
            <path d="M2148.38,1153.25c-0.44-1.94-24.38,3.2-63.65,2.15-39.23-.66-93.39-6.78-152.75-17.25-118.77-21.13-213.68-47.35-214.65-43.41-1,3.5,92.79,35.9,212.56,57.23,59.84,10.56,115,15.21,154.94,13.33C2124.94,1163.81,2148.95,1155,2148.38,1153.25Z"/>
        </g>
        <g>
            <path d="M1775.55,1260.61s109.3,127,225.71,149.34,134.63-11.86,134.63-11.86-88.53-123.56-180.15-170.35-201.48-58.65-201.48-58.65l-22.47,37.5Z" style="fill: #ff6819;stroke: #000;stroke-width: 8px"/>
            <path d="M2094.14,1346.12c25.62,29.45,41.75,52,41.75,52s-15.06,28.22-105.2,16.61c-3.56-14-6.17-28.23-8.5-42.48C2046.76,1364.91,2070.53,1355.61,2094.14,1346.12Z" style="fill: #ffed31;stroke: #000;stroke-width: 8px"/>
            <path d="M2022.19,1372.21c2.32,14.25,4.94,28.45,8.5,42.48-9-1.17-18.82-2.72-29.42-4.76-26.18-5-52-15.33-76.3-28.31-8.9-29.9-16.58-60.18-25-90.37a843.37,843.37,0,0,0,109.29-28.12c32.59,26,62.36,57.15,84.83,83C2070.53,1355.61,2046.76,1364.91,2022.19,1372.21Z" style="fill: #fff;stroke: #000;stroke-width: 8px"/>
            <path d="M2127.3,1402.37c0.2-2-23.93-6-60.51-21.37-36.66-15-85.63-40.7-138.11-72.36-104.94-63.52-185.83-123-188-119.69-2,2.93,75.84,67.85,181.65,131.92,52.9,31.92,103.23,56.55,141.41,69.48C2101.91,1403.68,2127.26,1404.26,2127.3,1402.37Z"/>
        </g>
        <g>
            <path d="M1757,1416.61s109.3,127,225.71,149.34,134.63-11.86,134.63-11.86-88.53-123.56-180.15-170.35-201.47-58.64-201.47-58.64l-22.47,37.5Z" style="fill: #ff6819;stroke: #000;stroke-width: 8px"/>
            <path d="M2075.56,1502.12c25.62,29.45,41.75,52,41.75,52s-15.06,28.22-105.2,16.61c-3.56-14-6.17-28.23-8.5-42.48C2028.18,1520.91,2052,1511.61,2075.56,1502.12Z" style="fill: #ffed31;stroke: #000;stroke-width: 8px"/>
            <path d="M2003.61,1528.21c2.33,14.25,4.94,28.45,8.5,42.48-9-1.17-18.82-2.72-29.42-4.76-26.18-5-52-15.33-76.3-28.31-8.9-29.9-16.58-60.18-25-90.37a843.42,843.42,0,0,0,109.29-28.12c32.59,26,62.36,57.15,84.83,83C2052,1511.61,2028.18,1520.91,2003.61,1528.21Z" style="fill: #fff;stroke: #000;stroke-width: 8px"/>
            <path d="M2108.72,1558.37c0.2-2-23.93-6-60.51-21.37-36.66-15-85.63-40.7-138.11-72.36-104.94-63.52-185.83-123-188-119.69-2,2.93,75.84,67.85,181.65,131.92,52.9,31.92,103.23,56.55,141.41,69.48C2083.34,1559.68,2108.69,1560.26,2108.72,1558.37Z"/>
        </g>
        <g>
            <path d="M1753.26,1604.61s109.3,127,225.71,149.33,134.63-11.86,134.63-11.86-88.53-123.56-180.15-170.35S1732,1513.09,1732,1513.09l-22.47,37.5Z" style="fill: #ff6819;stroke: #000;stroke-width: 8px"/>
            <path d="M2071.85,1690.12c25.62,29.45,41.75,52,41.75,52s-15.06,28.22-105.2,16.61c-3.56-14-6.17-28.23-8.5-42.48C2024.47,1708.91,2048.24,1699.61,2071.85,1690.12Z" style="fill: #ffed31;stroke: #000;stroke-width: 8px"/>
            <path d="M1999.9,1716.21c2.33,14.25,4.94,28.45,8.5,42.48-9-1.17-18.82-2.72-29.42-4.76-26.18-5-52-15.33-76.3-28.31-8.9-29.9-16.58-60.18-25-90.37A843.45,843.45,0,0,0,1987,1607.14c32.59,26,62.36,57.15,84.83,83C2048.24,1699.61,2024.47,1708.91,1999.9,1716.21Z" style="fill: #fff;stroke: #000;stroke-width: 8px"/>
            <path d="M2105,1746.37c0.2-2-23.93-6-60.51-21.37-36.66-15-85.63-40.7-138.11-72.36-104.94-63.52-185.83-123-188-119.69-2,2.93,75.84,67.85,181.65,131.92,52.9,31.92,103.23,56.55,141.4,69.48C2079.62,1747.68,2105,1748.26,2105,1746.37Z"/>
        </g>
        <g>
            <path d="M1735.9,1750s95.63,139.22,209.05,175.2,135,4.19,135,4.19-75.35-133.31-161.62-190.68-194.25-82.19-194.25-82.19l-26.17,34.61Z" style="fill: #ff6819;stroke: #000;stroke-width: 8px"/>
            <path d="M2043.79,1872.79c22.45,32.31,36.18,56.6,36.18,56.6s-17.85,26.26-106.26,4c-2.11-14.37-3.25-28.79-4.1-43.23C1994.78,1885.85,2019.36,1879.42,2043.79,1872.79Z" style="fill: #ffed31;stroke: #000;stroke-width: 8px"/>
            <path d="M1969.61,1890.19c0.85,14.44,2,28.87,4.1,43.23-8.86-2.23-18.42-4.94-28.76-8.22-25.51-8.09-50.11-21.41-72.94-37.18-5.78-30.77-10.32-61.78-15.55-92.78a835.92,835.92,0,0,0,111.51-15c29.73,29.69,56.13,64.2,75.82,92.54C2019.36,1879.42,1994.78,1885.85,1969.61,1890.19Z" style="fill: #fff;stroke: #000;stroke-width: 8px"/>
            <path d="M2071,1932.64c0.4-1.95-23.17-8.75-58-28.42-34.9-19.3-80.94-50.61-129.87-88.3-97.8-75.58-172.11-144.34-174.6-141.26-2.32,2.67,68.43,76.44,167,152.66,49.31,38,96.81,68.45,133.43,85.83C2045.63,1930.93,2070.77,1934.51,2071,1932.64Z"/>
        </g>
        <g>
            <path d="M1679.18,1902.16s89.35,144,201,185.75S2014.9,2099,2014.9,2099s-69.35-137-153-198.77-190.38-92.08-190.38-92.08l-27.67,33.22Z" style="fill: #ff6819;stroke: #000;stroke-width: 8px"/>
            <path d="M1981.27,2040.64c21,33.43,33.63,58.4,33.63,58.4s-19,25.31-106.32-1.44c-1.46-14.46-2-28.92-2.18-43.39C1931.74,2051.16,1956.57,2046,1981.27,2040.64Z" style="fill: #ffed31;stroke: #000;stroke-width: 8px"/>
            <path d="M1906.4,2054.21c0.21,14.47.71,28.94,2.18,43.39-8.75-2.68-18.18-5.88-28.36-9.69-25.12-9.39-49.11-24-71.2-40.89-4.41-31-7.57-62.24-11.42-93.48a834.21,834.21,0,0,0,112-9.24c28.38,31.18,53.22,67,71.63,96.33C1956.57,2046,1931.74,2051.16,1906.4,2054.21Z" style="fill: #fff;stroke: #000;stroke-width: 8px"/>
            <path d="M2005.79,2101.82c0.49-1.93-22.76-9.93-56.63-31.37-34-21.07-78.61-54.71-125.8-94.88-94.34-80.52-165.51-153-168.13-150.08-2.44,2.54,65,79.87,160.08,161.08,47.57,40.49,93.66,73.35,129.47,92.59C1980.53,2098.8,2005.48,2103.67,2005.79,2101.82Z"/>
        </g>
        <g>
            <path d="M1597.44,2066.16s89.35,144,201,185.75S1933.17,2263,1933.17,2263s-69.35-137-153-198.77-190.38-92.08-190.38-92.08l-27.67,33.22Z" style="fill: #ff6819;stroke: #000;stroke-width: 8px"/>
            <path d="M1899.54,2204.64c21,33.43,33.63,58.4,33.63,58.4s-19,25.31-106.32-1.44c-1.46-14.46-2-28.92-2.18-43.39C1850,2215.16,1874.84,2210,1899.54,2204.64Z" style="fill: #ffed31;stroke: #000;stroke-width: 8px"/>
            <path d="M1824.67,2218.21c0.21,14.47.71,28.94,2.18,43.39-8.75-2.68-18.18-5.88-28.36-9.69-25.12-9.39-49.11-24-71.2-40.89-4.41-31-7.57-62.24-11.42-93.48a834.22,834.22,0,0,0,112-9.24c28.38,31.18,53.22,67,71.63,96.33C1874.84,2210,1850,2215.16,1824.67,2218.21Z" style="fill: #fff;stroke: #000;stroke-width: 8px"/>
            <path d="M1924.06,2265.82c0.49-1.93-22.76-9.93-56.63-31.37-34-21.07-78.61-54.71-125.8-94.88-94.34-80.52-165.51-153-168.13-150.08-2.44,2.54,65,79.87,160.08,161.08,47.57,40.49,93.66,73.35,129.47,92.59C1898.8,2262.8,1923.75,2267.67,1924.06,2265.82Z"/>
        </g>
        <g>
            <path d="M1515.71,2174.16s89.35,144,201,185.75S1851.44,2371,1851.44,2371s-69.35-137-153-198.77-190.38-92.08-190.38-92.08l-27.67,33.22Z" style="fill: #ff6819;stroke: #000;stroke-width: 8px"/>
            <path d="M1817.81,2312.64c21,33.43,33.63,58.4,33.63,58.4s-19,25.31-106.32-1.44c-1.46-14.46-2-28.92-2.18-43.39C1768.27,2323.16,1793.11,2318,1817.81,2312.64Z" style="fill: #ffed31;stroke: #000;stroke-width: 8px"/>
            <path d="M1742.94,2326.21c0.21,14.47.71,28.94,2.18,43.39-8.75-2.68-18.18-5.88-28.36-9.69-25.12-9.39-49.11-24-71.2-40.89-4.41-31-7.57-62.24-11.42-93.48a834.21,834.21,0,0,0,112-9.24c28.38,31.18,53.22,67,71.63,96.33C1793.11,2318,1768.27,2323.16,1742.94,2326.21Z" style="fill: #fff;stroke: #000;stroke-width: 8px"/>
            <path d="M1842.32,2373.82c0.49-1.93-22.76-9.93-56.63-31.37-34-21.07-78.61-54.71-125.8-94.88-94.34-80.52-165.51-153-168.13-150.08-2.44,2.54,65,79.87,160.08,161.08,47.57,40.49,93.66,73.35,129.47,92.59C1817.07,2370.8,1842,2375.67,1842.32,2373.82Z"/>
        </g>
        <g>
            <path d="M1929,558.31s98.14-137.18,99.19-264.49-33.27-141-33.27-141-98.42,114.56-126,219.61-20.17,223.66-20.17,223.66l38.08,17.61Z" style="fill: #ff6819;stroke: #000;stroke-width: 8px"/>
            <path d="M1954.3,205.85c22.71-32.1,40.64-53,40.64-53s28.35,11.29,32.72,108.93c-12.25,6.12-24.82,11.25-37.49,16.09C1979.4,253,1966.92,229.33,1954.3,205.85Z" style="fill: #ffed31;stroke: #000;stroke-width: 8px"/>
            <path d="M1990.17,277.89c12.67-4.84,25.24-10,37.49-16.09,0.44,9.79.64,20.43,0.54,32-0.24,28.63-5.39,57.76-13.22,85.71-25.9,14.42-52.35,27.62-78.61,41.54a1007,1007,0,0,0-43.95-111.35c18.37-38.92,42-75.72,61.87-103.88C1966.92,229.33,1979.4,253,1990.17,277.89Z" style="fill: #fff;stroke: #000;stroke-width: 8px"/>
            <path d="M2000.3,161.28c-1.85.12-1.47,26.39-9.5,67.8-7.67,41.43-23,97.68-43.28,158.67-40.71,122-81.75,217.77-78.32,219.51,3,1.67,49.52-91.81,90.57-214.81,20.42-61.47,34.61-119,40.09-161.69C2005.72,188,2002,161,2000.3,161.28Z"/>
        </g>
        <g>
            <path d="M1815.82,491.39s74.86-153.25,55.65-278.87-55.2-132.74-55.2-132.74-78.74,131-89.22,239.61,15.71,224.08,15.71,224.08l40.32,10.33Z" style="fill: #ff6819;stroke: #000;stroke-width: 8px"/>
            <path d="M1784.65,139.47c17.26-35.81,31.61-59.69,31.61-59.69s29.73,5.89,49.57,101.28c-11.1,8.29-22.67,15.67-34.38,22.77C1816.88,181.32,1800.82,160.28,1784.65,139.47Z" style="fill: #ffed31;stroke: #000;stroke-width: 8px"/>
            <path d="M1831.46,203.83c11.71-7.1,23.28-14.49,34.38-22.77,2,9.56,3.88,20,5.63,31.46,4.32,28.25,3.88,57.9.61,86.89-23.22,19-47.19,36.86-70.84,55.42a977.32,977.32,0,0,0-61-101.6c11.91-41.73,29.29-82.34,44.43-113.75C1800.82,160.28,1816.88,181.32,1831.46,203.83Z" style="fill: #fff;stroke: #000;stroke-width: 8px"/>
            <path d="M1822.88,87.08c-1.81.46,2.75,26.27,1.42,68.55-1,42.23-7.13,100.49-17.39,164.31-20.7,127.69-45.89,229.63-42.24,230.71,3.24,1.09,34.18-99.59,55.06-228.34,10.34-64.33,15.16-123.63,13.77-166.69C1832.47,112.42,1824.54,86.49,1822.88,87.08Z"/>
        </g>
        <g>
            <path d="M1722.32,459.31s63.69-159,35.57-282.65-64.52-127.78-64.52-127.78S1624.21,186,1621.52,295.16s31.67,222.11,31.67,222.11l40.94,7Z" style="fill: #ff6819;stroke: #000;stroke-width: 8px"/>
            <path d="M1666.11,111c14.65-37.14,27.25-62.13,27.25-62.13s30.06,3.41,56.66,96.88c-10.47,9.18-21.48,17.5-32.65,25.55C1701.23,150.06,1683.71,130.42,1666.11,111Z" style="fill: #ffed31;stroke: #000;stroke-width: 8px"/>
            <path d="M1717.37,171.3c11.17-8.05,22.17-16.37,32.65-25.55,2.67,9.37,5.3,19.63,7.86,30.9,6.33,27.81,8,57.4,6.81,86.58-21.8,20.85-44.41,40.66-66.67,61.12a962.17,962.17,0,0,0-68.09-96.25c8.89-42.6,23.32-84.52,36.18-117.09C1683.71,130.42,1701.23,150.06,1717.37,171.3Z" style="fill: #fff;stroke: #000;stroke-width: 8px"/>
            <path d="M1700.48,55.6c-1.77.61,4.62,26,6.32,68.23,2,42.19.06,100.78-5.61,165.26-11.52,129-29.36,232.75-25.64,233.52,3.31,0.82,27-102.12,38.59-232.22,5.72-65,6.29-124.52,1.83-167.34C1711.86,80.07,1702.09,54.88,1700.48,55.6Z"/>
        </g>
        <g>
            <path d="M1609.92,437.73s39.35-167.9-6.73-285.14-82.61-115.07-82.61-115.07-48,147.26-34.47,255.47,64.14,213.84,64.14,213.84l41.45-.16Z" style="fill: #ff6819;stroke: #000;stroke-width: 8px"/>
            <path d="M1502.87,103.53c9-39.18,17.71-66,17.71-66s30.18-1.79,70.27,85.92c-9,10.86-18.62,21-28.45,30.82C1543.33,136.06,1523.13,119.67,1502.87,103.53Z" style="fill: #ffed31;stroke: #000;stroke-width: 8px"/>
            <path d="M1562.41,154.26c9.83-9.87,19.47-20,28.45-30.82,4,8.79,8.14,18.47,12.34,29.15,10.36,26.37,16.4,55.3,19.54,84.3-18.43,24.33-37.83,47.76-56.77,71.78a929.47,929.47,0,0,0-81.47-83.33c2.47-43.58,10.51-87.44,18.38-121.81C1523.13,119.67,1543.33,136.06,1562.41,154.26Z" style="fill: #fff;stroke: #000;stroke-width: 8px"/>
            <path d="M1528.6,42.94c-1.65.9,8.41,24.84,16.34,66.27,8.27,41.3,15,99.48,18.93,164.11,7.73,129.35,5.47,234.82,9.25,234.94,3.39,0.24,11.5-105.44,3.72-235.88-4-65.15-12.22-124-23-165.52C1543.46,65.14,1530.09,41.94,1528.6,42.94Z"/>
        </g>
        <g>
            <path d="M1518.9,435.73s39.34-167.9-6.73-285.14-82.61-115.07-82.61-115.07-48,147.26-34.47,255.47,64.14,213.84,64.14,213.84l41.45-.16Z" style="fill: #ff6819;stroke: #000;stroke-width: 8px"/>
            <path d="M1411.85,101.53c9-39.18,17.71-66,17.71-66s30.18-1.79,70.27,85.92c-9,10.86-18.62,21-28.45,30.82C1452.31,134.06,1432.11,117.67,1411.85,101.53Z" style="fill: #ffed31;stroke: #000;stroke-width: 8px"/>
            <path d="M1471.39,152.26c9.83-9.87,19.47-20,28.45-30.82,4,8.79,8.14,18.47,12.33,29.15,10.36,26.37,16.4,55.3,19.54,84.3-18.43,24.33-37.83,47.76-56.77,71.78a929.47,929.47,0,0,0-81.47-83.33c2.47-43.58,10.51-87.44,18.38-121.81C1432.11,117.67,1452.31,134.06,1471.39,152.26Z" style="fill: #fff;stroke: #000;stroke-width: 8px"/>
            <path d="M1437.58,40.94c-1.65.9,8.41,24.84,16.34,66.27,8.27,41.3,15,99.48,18.93,164.11,7.73,129.35,5.47,234.82,9.25,234.94,3.39,0.24,11.5-105.44,3.72-235.88-4-65.15-12.23-124-23-165.52C1452.44,63.14,1439.07,39.94,1437.58,40.94Z"/>
        </g>
        <g>
            <path d="M1430.81,441.91s32.47-169.59-18.34-284.55S1325.25,46.3,1325.25,46.3s-41.92,149.38-24,256.85S1374,513.75,1374,513.75l41.4-2.12Z" style="fill: #ff6819;stroke: #000;stroke-width: 8px"/>
            <path d="M1310.25,113.09c7.37-39.56,15-66.79,15-66.79s30.08-3.21,73.7,82.52c-8.53,11.27-17.74,21.82-27.17,32.14C1352,143.67,1331.14,128.25,1310.25,113.09Z" style="fill: #ffed31;stroke: #000;stroke-width: 8px"/>
            <path d="M1371.79,161c9.42-10.32,18.64-20.87,27.17-32.14,4.37,8.59,8.88,18.07,13.51,28.54,11.42,25.85,18.64,54.47,23,83.3-17.42,25.17-35.84,49.5-53.79,74.39a920.43,920.43,0,0,0-84.78-79.41c0.7-43.65,6.94-87.85,13.4-122.56C1331.14,128.25,1352,143.67,1371.79,161Z" style="fill: #fff;stroke: #000;stroke-width: 8px"/>
            <path d="M1333.49,51.33c-1.62,1,9.41,24.42,19,65.44,9.94,40.87,19,98.68,25.59,163.06,13,128.86,15,234.33,18.82,234.28,3.39,0.08,7.2-105.88-5.89-235.83-6.63-64.9-17.26-123.31-29.69-164.27C1349.23,72.82,1334.93,50.27,1333.49,51.33Z"/>
        </g>
        <g>
            <path d="M1340.74,454.82s21.48-171.61-36.6-282.5S1210,68,1210,68s-32.2,152.15-7.44,258,86.17,204.67,86.17,204.67l41.17-5.2Z" style="fill: #ff6819;stroke: #000;stroke-width: 8px"/>
            <path d="M1199.31,135.78C1204.11,95.77,1210,68,1210,68s29.8-5.45,78.84,76.82c-7.79,11.88-16.3,23.09-25,34.09C1242.92,163.18,1221.13,149.35,1199.31,135.78Z" style="fill: #ffed31;stroke: #000;stroke-width: 8px"/>
            <path d="M1263.79,178.94c8.73-11,17.25-22.21,25-34.09,4.92,8.25,10,17.36,15.32,27.47,13.06,24.94,22.1,52.95,28.26,81.39-15.76,26.41-32.57,52.06-48.88,78.23A906.44,906.44,0,0,0,1193.83,259c-2.12-43.6,1.27-88.16,5.48-123.26C1221.13,149.35,1242.92,163.18,1263.79,178.94Z" style="fill: #fff;stroke: #000;stroke-width: 8px"/>
            <path d="M1218.52,72.45c-1.55,1.1,11,23.66,23.18,63.86,12.55,40,25.32,97,36,160.76,21.25,127.58,30.07,232.65,33.85,232.31,3.39-.17.37-106.17-21.06-234.82-10.79-64.25-25.16-121.72-40.19-161.66C1235.61,92.7,1219.89,71.28,1218.52,72.45Z"/>
        </g>
        <g>
            <path d="M1247.51,468.18s7.21-173-59.8-277.87-102.39-94.85-102.39-94.85-19.51,154.63,13.91,257.71S1202,548.77,1202,548.77l40.57-9.12Z" style="fill: #ff6819;stroke: #000;stroke-width: 8px"/>
            <path d="M1080.28,164c1.48-40.32,5-68.5,5-68.5s29.23-8.28,84.87,69c-6.77,12.58-14.33,24.56-22.12,36.35C1126,187.06,1103.13,175.38,1080.28,164Z" style="fill: #ffed31;stroke: #000;stroke-width: 8px"/>
            <path d="M1148.06,200.77c7.79-11.79,15.34-23.77,22.12-36.35,5.58,7.74,11.42,16.33,17.52,25.89,15.07,23.59,26.38,50.62,34.87,78.36-13.52,27.82-28.14,55-42.22,82.6a889.69,889.69,0,0,0-95.36-64c-5.71-43.22-6-87.93-4.72-123.3C1103.13,175.38,1126,187.06,1148.06,200.77Z" style="fill: #fff;stroke: #000;stroke-width: 8px"/>
            <path d="M1094.18,99c-1.45,1.24,12.87,22.52,28.37,61.39,15.81,38.67,33.24,94.21,49.16,156.67,31.71,125,49.18,228.84,52.91,228.15,3.36-.5-8.41-105.78-40.37-231.87-16.05-63-35.11-118.83-53.38-157.17C1112.87,117.57,1095.45,97.73,1094.18,99Z"/>
        </g>
        <g>
            <path d="M1155.56,496.68s7.21-173-59.8-277.87S993.37,124,993.37,124s-19.51,154.63,13.91,257.71S1110,577.27,1110,577.27l40.57-9.12Z" style="fill: #ff6819;stroke: #000;stroke-width: 8px"/>
            <path d="M988.34,192.45c1.48-40.32,5-68.5,5-68.5s29.23-8.28,84.87,69c-6.77,12.58-14.32,24.56-22.12,36.35C1034,215.56,1011.19,203.88,988.34,192.45Z" style="fill: #ffed31;stroke: #000;stroke-width: 8px"/>
            <path d="M1056.12,229.27c7.79-11.79,15.34-23.77,22.12-36.35,5.58,7.74,11.42,16.33,17.52,25.89,15.07,23.59,26.38,50.62,34.87,78.36-13.52,27.82-28.14,55-42.22,82.6a889.68,889.68,0,0,0-95.36-64c-5.71-43.22-6-87.93-4.72-123.3C1011.19,203.88,1034,215.56,1056.12,229.27Z" style="fill: #fff;stroke: #000;stroke-width: 8px"/>
            <path d="M1002.24,127.53c-1.45,1.24,12.87,22.52,28.37,61.39,15.81,38.67,33.24,94.21,49.16,156.67,31.71,125,49.18,228.84,52.91,228.15,3.36-.5-8.41-105.78-40.37-231.87-16.05-63-35.11-118.83-53.38-157.17C1020.93,146.06,1003.51,126.23,1002.24,127.53Z"/>
        </g>
        <g>
            <path d="M1054.57,507.81s-8.7-172.9-85-270.15S859,154.16,859,154.16s-5.22,156,37.49,255,120.19,183.72,120.19,183.72l39.54-13.39Z" style="fill: #ff6819;stroke: #000;stroke-width: 8px"/>
            <path d="M860.25,222.86c-2.23-40.28-1.28-68.7-1.28-68.7s28.33-11.35,90.78,59.6c-5.59,13.24-12,26-18.67,38.53C907.84,241,884,231.8,860.25,222.86Z" style="fill: #ffed31;stroke: #000;stroke-width: 8px"/>
            <path d="M931.08,252.28c6.67-12.56,13.09-25.29,18.67-38.53,6.26,7.11,12.86,15,19.81,23.9,17.16,21.87,30.9,47.56,41.89,74.26-10.9,29.12-23,57.7-34.43,86.68a872.76,872.76,0,0,0-100.76-53.55c-9.65-42.41-14.06-86.86-16-122.19C884,231.8,907.84,241,931.08,252.28Z" style="fill: #fff;stroke: #000;stroke-width: 8px"/>
            <path d="M868.12,156.77c-1.33,1.39,14.87,21,33.86,58.07,19.28,36.79,41.72,90.21,63.3,150.67,43,121.06,69.94,222.49,73.58,221.4,3.3-.85-18.07-104.37-61.45-226.44C955.67,299.53,931.57,246,909.87,209.75,888.42,173.23,869.26,155.35,868.12,156.77Z"/>
        </g>
        <g>
            <path d="M971.52,542.26s-25.6-171-111-259-118.17-70.46-118.17-70.46,10.1,155.67,62.28,249.29,137.53,169,137.53,169l38-17.81Z" style="fill: #ff6819;stroke: #000;stroke-width: 8px"/>
            <path d="M750.35,281c-6.17-39.8-8-68.17-8-68.17s27.06-14.51,96.12,48.95c-4.26,13.8-9.39,27.18-14.79,40.43C799.45,293.61,774.88,287.18,750.35,281Z" style="fill: #ffed31;stroke: #000;stroke-width: 8px"/>
            <path d="M823.67,302.2c5.4-13.25,10.54-26.63,14.79-40.43,6.92,6.36,14.26,13.49,22,21.51,19.21,19.8,35.39,43.79,48.94,69.09-8,30.19-17.18,60-25.74,90.11a857.19,857.19,0,0,0-105.45-41.8C764.5,359.61,755.76,315.9,750.35,281,774.88,287.18,799.45,293.61,823.67,302.2Z" style="fill: #fff;stroke: #000;stroke-width: 8px"/>
            <path d="M751.7,214.38c-1.19,1.54,16.85,19.23,39.37,53.9,22.78,34.4,50.33,85,77.72,142.64,54.66,115.49,91.36,213.3,94.88,211.8,3.2-1.22-28.2-101.73-83.31-218.19-27.6-58.13-56.82-108.66-81.95-142.21C773.5,228.44,752.69,212.83,751.7,214.38Z"/>
        </g>
        <g>
            <path d="M880.64,575.44S843.92,406.85,753,325.51s-122.48-61.33-122.48-61.33,20.25,154.52,78.42,243.95S857.14,666.32,857.14,666.32l36.74-20.65Z" style="fill: #ff6819;stroke: #000;stroke-width: 8px"/>
            <path d="M642.92,331.58c-8.75-39.23-12.45-67.39-12.45-67.39s26-16.52,99.08,41.54c-3.34,14.09-7.59,27.83-12.11,41.45C692.74,340.45,667.8,335.89,642.92,331.58Z" style="fill: #ffed31;stroke: #000;stroke-width: 8px"/>
            <path d="M717.45,347.18c4.52-13.63,8.77-27.36,12.11-41.45,7.32,5.82,15.11,12.38,23.4,19.79,20.46,18.29,38.17,41,53.34,65.21-6,30.72-13.21,61.14-19.79,91.84a848.8,848.8,0,0,0-107.92-33.71c-16.4-39.93-28-82.86-35.66-117.28C667.8,335.89,692.74,340.45,717.45,347.18Z" style="fill: #fff;stroke: #000;stroke-width: 8px"/>
            <path d="M639.92,265c-1.09,1.62,18.07,17.91,42.79,50.78,25,32.59,55.76,80.94,86.85,136.39C831.64,563.26,874.64,658,878.06,656.28c3.11-1.46-34.79-99.34-97.37-211.34-31.34-55.89-63.78-104.09-91-135.64C662.59,277.4,640.81,263.41,639.92,265Z"/>
        </g>
        <g>
            <path d="M808.39,617.48S754.68,454.26,656,384.19s-128-46.45-128-46.45,35.91,151.19,102.86,233.18,163.5,139.67,163.5,139.67l34.41-24.87Z" style="fill: #ff6819;stroke: #000;stroke-width: 8px"/>
            <path d="M547.21,403.24c-12.71-38-19.26-65.51-19.26-65.51s24.2-19.5,102.73,29.55c-1.88,14.4-4.7,28.56-7.8,42.64C597.63,406.16,572.38,404.59,547.21,403.24Z" style="fill: #ffed31;stroke: #000;stroke-width: 8px"/>
            <path d="M622.88,409.92c3.1-14.08,5.92-28.24,7.8-42.64,7.87,4.92,16.28,10.51,25.28,16.9,22.2,15.76,42.12,36.23,59.67,58.49-2.81,31.25-6.89,62.33-10.29,93.63a839.24,839.24,0,0,0-110.71-20.72c-20.38-37.74-36.28-79-47.42-112.34C572.38,404.59,597.63,406.16,622.88,409.92Z" style="fill: #fff;stroke: #000;stroke-width: 8px"/>
            <path d="M537.42,337.45c-0.91,1.74,19.79,15.66,47.72,45.4,28.15,29.43,63.69,73.85,100.26,125.28,73,103,125.47,192.15,128.68,190,2.94-1.82-44.72-94.62-118.37-198.52-36.85-51.84-74-95.9-104.34-124C561.22,347.07,538.15,335.74,537.42,337.45Z"/>
        </g>
        <g>
            <path d="M734.55,682S680.84,518.76,582.12,448.68s-128-46.45-128-46.45S490,553.42,557,635.41s163.5,139.67,163.5,139.67l34.41-24.87Z" style="fill: #ff6819;stroke: #000;stroke-width: 8px"/>
            <path d="M473.38,467.74c-12.71-38-19.26-65.51-19.26-65.51s24.2-19.5,102.73,29.55c-1.88,14.4-4.7,28.56-7.8,42.64C523.79,470.66,498.54,469.08,473.38,467.74Z" style="fill: #ffed31;stroke: #000;stroke-width: 8px"/>
            <path d="M549,474.42c3.1-14.08,5.92-28.24,7.8-42.64,7.87,4.92,16.28,10.51,25.28,16.9,22.2,15.76,42.12,36.23,59.67,58.49-2.81,31.25-6.89,62.33-10.29,93.63A839.24,839.24,0,0,0,520.8,580.08c-20.38-37.74-36.28-79-47.42-112.34C498.54,469.08,523.79,470.66,549,474.42Z" style="fill: #fff;stroke: #000;stroke-width: 8px"/>
            <path d="M463.59,402c-0.91,1.74,19.79,15.66,47.72,45.4C539.46,476.79,575,521.2,611.57,572.64c73,103,125.47,192.15,128.68,190,2.94-1.82-44.72-94.62-118.37-198.52-36.85-51.84-74-95.9-104.34-124C487.38,411.56,464.31,400.24,463.59,402Z"/>
        </g>
        <g>
            <path d="M619.52,769.13S532,623.87,420.82,580.48,286.28,567.4,286.28,567.4s67.63,138,150.47,201S626,863.21,626,863.21l28.08-32.82Z" style="fill: #ff6819;stroke: #000;stroke-width: 8px"/>
            <path d="M319.18,626.28c-20.57-33.73-32.9-58.88-32.9-58.88s19.31-25,106.29,3c1.28,14.48,1.61,28.95,1.63,43.42C368.84,616.48,343.95,621.28,319.18,626.28Z" style="fill: #ffed31;stroke: #000;stroke-width: 8px"/>
            <path d="M394.21,613.81c0-14.47-.35-28.94-1.63-43.42,8.72,2.81,18.11,6.14,28.24,10.1,25,9.76,48.8,24.67,70.68,41.92,4,31.09,6.79,62.34,10.25,93.63a834.31,834.31,0,0,0-112.15,7.61c-28-31.59-52.38-67.78-70.42-97.36C343.95,621.28,368.84,616.48,394.21,613.81Z" style="fill: #fff;stroke: #000;stroke-width: 8px"/>
            <path d="M295.43,564.76c-0.51,1.92,22.63,10.26,56.23,32.19,33.74,21.57,77.92,55.85,124.6,96.7C569.58,775.53,639.85,849,642.5,846.15c2.47-2.51-64-80.8-158.06-163.38-47.06-41.18-92.74-74.7-128.3-94.46C320.65,568.14,295.76,562.91,295.43,564.76Z"/>
        </g>
        <g>
            <path d="M522.69,890.64s-111.25-125-228-145.26-134.43,14.27-134.43,14.27S250.71,881.6,343,926.74s202.36,55,202.36,55l21.88-37.9Z" style="fill: #ff6819;stroke: #000;stroke-width: 8px"/>
            <path d="M202.83,810.86c-26.07-29-42.55-51.21-42.55-51.21s14.62-28.49,104.93-18.5c3.78,14,6.61,28.11,9.16,42.32C249.91,791.22,226.29,800.95,202.83,810.86Z" style="fill: #ffed31;stroke: #000;stroke-width: 8px"/>
            <path d="M274.37,783.47c-2.54-14.21-5.38-28.36-9.16-42.32,9.05,1,18.86,2.38,29.49,4.23,26.25,4.55,52.23,14.39,76.73,26.93,9.36,29.73,17.51,59.87,26.35,89.91A845.74,845.74,0,0,0,288.94,892.3c-33-25.39-63.24-56-86.11-81.44C226.29,800.95,249.91,791.22,274.37,783.47Z" style="fill: #fff;stroke: #000;stroke-width: 8px"/>
            <path d="M168.8,755.21c-0.17,2,24,5.52,60.83,20.28,36.89,14.38,86.25,39.15,139.21,69.87C474.76,907,556.56,965,558.67,961.66c2-3-76.88-66.48-183.67-128.63-53.38-31-104.09-54.69-142.46-66.93C194.16,753.44,168.81,753.32,168.8,755.21Z"/>
        </g>
        <g>
            <path d="M459.18,1007.56S329.6,905,211.37,906.73s-130.14,39-130.14,39S189.81,1049.07,288,1076.42s208.13,16.69,208.13,16.69l15.49-41.39Z" style="fill: #ff6819;stroke: #000;stroke-width: 8px"/>
            <path d="M131.34,988.26C101,964.54,81.23,945.7,81.23,945.7S91.08,914.93,181.64,908c6,13.05,11,26.47,15.79,40C174.57,960.18,152.86,974.15,131.34,988.26Z" style="fill: #ffed31;stroke: #000;stroke-width: 8px"/>
            <path d="M197.42,948c-4.78-13.53-9.83-26.94-15.79-40,9.08-.69,19-1.15,29.73-1.3,26.59-.39,53.75,4.5,79.89,12.31,14,27.55,26.82,55.73,40.33,83.68a867.33,867.33,0,0,0-102.41,49.81c-36.55-18.9-71.25-43.46-97.84-64.27C152.86,974.15,174.57,960.18,197.42,948Z" style="fill: #fff;stroke: #000;stroke-width: 8px"/>
            <path d="M88.92,939.74c0.15,2,24.54,1,63.17,8.71,38.64,7.33,91.22,22.58,148.3,43,114.18,41.08,204,83.11,205.58,79.38,1.48-3.29-86.36-51.24-201.49-92.67-57.54-20.61-111.28-34.58-151-39.52C113.62,933.31,88.62,937.89,88.92,939.74Z"/>
        </g>
        <g>
            <path d="M431.33,1129.54S284,1060,169,1089.6s-119,68.72-119,68.72,127,75.25,228.32,78.78,206.47-32.81,206.47-32.81l6.7-44Z" style="fill: #ff6819;stroke: #000;stroke-width: 8px"/>
            <path d="M107.52,1188C73.11,1172,50,1158.32,50,1158.32s3.35-32.34,90.31-60.44c8.46,11.33,16.12,23.23,23.54,35.3C144,1150.44,125.65,1169.18,107.52,1188Z" style="fill: #ffed31;stroke: #000;stroke-width: 8px"/>
            <path d="M163.82,1133.18c-7.41-12.07-15.08-24-23.54-35.3,8.72-2.82,18.26-5.59,28.74-8.28,25.86-6.65,53.36-8.29,80.45-6.83,19.24,23.59,37.5,48.06,56.38,72.14a906.41,906.41,0,0,0-89.79,72.75c-39.51-9.82-78.36-25.6-108.54-39.63C125.65,1169.18,144,1150.44,163.82,1133.18Z" style="fill: #fff;stroke: #000;stroke-width: 8px"/>
            <path d="M56.26,1150.7c0.55,1.91,24.14-4.82,63.41-6.4,39.19-2,93.6.52,153.45,7,119.76,13.15,216,33,216.74,29,0.78-3.56-94.69-29.63-215.46-42.9-60.33-6.53-115.61-7.49-155.41-2.94C79.05,1138.59,55.6,1149,56.26,1150.7Z"/>
        </g>
        <g>
            <path d="M420.47,1230.36s-157.32-36-264.39,18-103.67,93.24-103.67,93.24,138.49,46,238.4,27.41,196-77.12,196-77.12l-1.72-44.59Z" style="fill: #ff6819;stroke: #000;stroke-width: 8px"/>
            <path d="M114.36,1358.2c-36.7-8.17-61.94-16.55-61.94-16.55s-2.8-32.4,77.08-78.86c10.42,9.25,20.16,19.23,29.69,29.44C143,1313.44,128.57,1335.79,114.36,1358.2Z" style="fill: #ffed31;stroke: #000;stroke-width: 8px"/>
            <path d="M159.18,1292.22c-9.53-10.21-19.27-20.19-29.69-29.44,8-4.66,16.83-9.45,26.59-14.38,24.08-12.15,50.7-19.74,77.5-24.22,23.27,18.91,45.76,38.89,68.77,58.36a947.93,947.93,0,0,0-74.26,90.81c-40.54-1-81.55-8-113.74-15.16C128.57,1335.79,143,1313.44,159.18,1292.22Z" style="fill: #fff;stroke: #000;stroke-width: 8px"/>
            <path d="M57.15,1332.81c0.9,1.75,22.74-10,60.89-20.09,38-10.46,91.76-19.89,151.6-26.58,119.76-13.22,217.72-14.78,217.7-18.86,0.09-3.65-98.3-8.38-219.06,4.94-60.31,6.75-114.63,17.85-152.75,31C77.19,1316,56.17,1331.25,57.15,1332.81Z"/>
        </g>
        <g>
            <path d="M420.47,1341.36s-157.32-36-264.39,18-103.67,93.24-103.67,93.24,138.49,46,238.4,27.41,196-77.12,196-77.12l-1.72-44.59Z" style="fill: #ff6819;stroke: #000;stroke-width: 8px"/>
            <path d="M114.36,1469.19c-36.7-8.17-61.94-16.55-61.94-16.55s-2.8-32.4,77.08-78.86c10.42,9.25,20.16,19.23,29.69,29.44C143,1424.43,128.57,1446.79,114.36,1469.19Z" style="fill: #ffed31;stroke: #000;stroke-width: 8px"/>
            <path d="M159.18,1403.22c-9.53-10.21-19.27-20.19-29.69-29.44,8-4.66,16.83-9.45,26.59-14.38,24.08-12.15,50.7-19.74,77.5-24.22,23.27,18.91,45.76,38.89,68.77,58.36a947.93,947.93,0,0,0-74.26,90.81c-40.54-1-81.55-8-113.74-15.16C128.57,1446.79,143,1424.43,159.18,1403.22Z" style="fill: #fff;stroke: #000;stroke-width: 8px"/>
            <path d="M57.15,1443.8c0.9,1.75,22.74-10,60.89-20.09,38-10.46,91.76-19.89,151.6-26.58,119.76-13.22,217.72-14.78,217.7-18.86,0.09-3.65-98.3-8.38-219.06,4.94-60.31,6.75-114.63,17.85-152.75,31C77.19,1427,56.17,1442.24,57.15,1443.8Z"/>
        </g>
        <g>
            <path d="M430.23,1459.85s-157.31-36-264.39,18-103.67,93.24-103.67,93.24,138.49,46,238.4,27.41,196-77.12,196-77.12l-1.72-44.59Z" style="fill: #ff6819;stroke: #000;stroke-width: 8px"/>
            <path d="M124.11,1587.69c-36.7-8.17-61.94-16.55-61.94-16.55s-2.8-32.4,77.08-78.86c10.42,9.25,20.16,19.23,29.69,29.44C152.76,1542.93,138.32,1565.28,124.11,1587.69Z" style="fill: #ffed31;stroke: #000;stroke-width: 8px"/>
            <path d="M168.94,1521.71c-9.53-10.21-19.27-20.19-29.69-29.44,8-4.66,16.83-9.45,26.59-14.38,24.08-12.15,50.7-19.74,77.5-24.22,23.27,18.91,45.76,38.89,68.77,58.36a948,948,0,0,0-74.26,90.81c-40.54-1-81.55-8-113.74-15.16C138.32,1565.28,152.76,1542.93,168.94,1521.71Z" style="fill: #fff;stroke: #000;stroke-width: 8px"/>
            <path d="M66.9,1562.29c0.9,1.75,22.74-10,60.89-20.09,38-10.46,91.76-19.89,151.59-26.58,119.76-13.22,217.72-14.78,217.7-18.86,0.09-3.65-98.3-8.38-219.06,4.94-60.31,6.75-114.63,17.85-152.75,31C86.94,1545.47,65.92,1560.74,66.9,1562.29Z"/>
        </g>
        <g>
            <path d="M441.5,1559.75S281.66,1540.6,180,1605.68s-94.65,103.76-94.65,103.76,142,31.15,239.75,2,188-97.49,188-97.49l-5.78-44.19Z" style="fill: #ff6819;stroke: #000;stroke-width: 8px"/>
            <path d="M148.54,1719.36c-37.27-4.24-63.15-9.92-63.15-9.92s-5.75-32,69.51-86.64c11.21,8.11,21.81,17,32.23,26.16C173,1671.78,160.63,1695.56,148.54,1719.36Z" style="fill: #ffed31;stroke: #000;stroke-width: 8px"/>
            <path d="M187.12,1649c-10.42-9.15-21-18.05-32.23-26.16,7.54-5.48,15.89-11.19,25.15-17.12,22.85-14.64,48.65-25,74.92-32.3,24.89,16.35,49.09,33.86,73.76,50.8a968,968,0,0,0-65.61,98.23c-40.43,3.29-81.89.67-114.58-3.05C160.63,1695.56,173,1671.78,187.12,1649Z" style="fill: #fff;stroke: #000;stroke-width: 8px"/>
            <path d="M89.28,1700.14c1.06,1.64,21.72-12.34,58.76-26.43,36.87-14.43,89.5-29.5,148.43-42.49,118-25.83,215.32-37.75,214.92-41.81-0.24-3.64-98.59,2.06-217.55,28.09-59.4,13.1-112.44,29.89-149.18,47C107.69,1681.28,88.17,1698.7,89.28,1700.14Z"/>
        </g>
        <g>
            <path d="M457.18,1702.45S298.5,1730.61,217,1822.89s-65,127.48-65,127.48,144.55-11.42,231.31-67.93,156.5-148.67,156.5-148.67l-16.68-40.85Z" style="fill: #ff6819;stroke: #000;stroke-width: 8px"/>
            <path d="M215.3,1941.5c-36.94,6.78-63.29,8.86-63.29,8.86s-13.57-29.08,45.12-103.66c12.83,4.53,25.28,10,37.6,15.78C226.85,1888.59,221,1915.07,215.3,1941.5Z" style="fill: #ffed31;stroke: #000;stroke-width: 8px"/>
            <path d="M234.74,1862.49c-12.33-5.77-24.77-11.25-37.6-15.78,5.88-7.48,12.48-15.4,19.9-23.81,18.32-20.75,40.54-38.26,64-52.94,28.07,8.49,55.77,18.28,83.78,27.4A1015.13,1015.13,0,0,0,326.36,1911c-38.1,15-78.66,24.52-111.06,30.47C221,1915.07,226.85,1888.59,234.74,1862.49Z" style="fill: #fff;stroke: #000;stroke-width: 8px"/>
            <path d="M153.43,1940.28c1.43,1.27,17.8-18.21,49.92-42.58,31.87-24.64,78.74-54.49,132.2-84.18,107.07-59.26,197.78-99.12,196.38-102.9-1.15-3.44-94.39,30.73-202.36,90.47-53.89,29.92-100.72,61.56-131.79,88.73C166.41,1916.76,152,1939.22,153.43,1940.28Z"/>
        </g>
        <g>
            <path d="M499.62,1807.36s-155.26,45.16-227.71,145.77S219.08,2087,219.08,2087s142.75-27,223.82-92.56S584.77,1829.6,584.77,1829.6l-20.4-38.84Z" style="fill: #ff6819;stroke: #000;stroke-width: 8px"/>
            <path d="M281.23,2071.33c-36.12,10.73-62.14,15.65-62.14,15.65s-16.21-27.47,35.24-108c13.19,3.13,26.08,7.23,38.88,11.64C287.79,2017.43,284.39,2044.42,281.23,2071.33Z" style="fill: #ffed31;stroke: #000;stroke-width: 8px"/>
            <path d="M293.21,1990.62c-12.8-4.41-25.7-8.52-38.88-11.64,5.16-8.07,11-16.67,17.59-25.84,16.29-22.62,36.78-42.44,58.74-59.58,28.72,5.41,57.19,12.17,85.91,18.21A1027.12,1027.12,0,0,0,388.89,2029c-36.51,19-76,32.89-107.67,42.31C284.39,2044.42,287.79,2017.43,293.21,1990.62Z" style="fill: #fff;stroke: #000;stroke-width: 8px"/>
            <path d="M219.55,2076.8c1.54,1.11,16-20,45.7-47.75,29.41-28,73.27-62.72,123.7-98,101-70.52,187.55-120,185.8-123.59-1.46-3.3-91,40.76-192.91,111.86C331,1954.88,287.36,1991.42,259,2021.8,230.28,2052,218,2075.89,219.55,2076.8Z"/>
        </g>
        <g>
            <path d="M539.86,1913.28s-149.17,64.72-210,173.89-37.66,139.67-37.66,139.67,138.76-45.06,212-120.56,122.66-181.82,122.66-181.82l-24.54-36Z" style="fill: #ff6819;stroke: #000;stroke-width: 8px"/>
            <path d="M352.17,2203.34c-34.68,15.28-60,23.5-60,23.5s-19.13-25.2,23.06-111.76c13.44,1.41,26.7,3.84,39.89,6.58C352.74,2149,352.35,2176.21,352.17,2203.34Z" style="fill: #ffed31;stroke: #000;stroke-width: 8px"/>
            <path d="M355.16,2121.66c-13.2-2.74-26.45-5.17-39.89-6.58,4.23-8.68,9.06-18,14.61-27.91,13.68-24.55,31.83-46.85,51.74-66.68,29.11,1.7,58.13,4.76,87.32,7.08a1036.62,1036.62,0,0,0-14.52,120c-34.16,23.53-71.81,42.38-102.23,55.79C352.35,2176.21,352.74,2149,355.16,2121.66Z" style="fill: #fff;stroke: #000;stroke-width: 8px"/>
            <path d="M291.54,2216.67c1.65,0.91,13.69-22,40.1-53.27,26.11-31.53,65.82-71.66,112-113.17,92.5-83,173-143.14,170.83-146.5-1.81-3.09-85.9,52.13-179.18,135.77-46.54,41.85-85.84,83.71-110.66,117.52C299.45,2190.66,289.92,2216,291.54,2216.67Z"/>
        </g>
        <g>
            <path d="M700.69,1460.77c5.23-.2,9.61,4.2,9.8,9.83l1.35,40.76c0.19,5.63-3.9,10.35-9.12,10.55l-216.08,8.32c-5.23.2-9.62-4.2-9.8-9.83l-1.35-40.75c-0.19-5.63,3.9-10.35,9.12-10.56Z" style="fill: #ffb181;stroke: #000;stroke-width: 5px"/>
            <g>
                <path d="M525.41,1467.52c3.87,7.81,9.89,18.79,17.19,30.69-9,13-17.31,24.33-21.31,30.68l4-.15a239.66,239.66,0,0,0,20.53-25.31c6.09,9.57,12,17.83,16.75,23.88l4.62-.18c-4.34-7.16-10.82-17.33-17.95-28.84,6-9.93,10.61-18.89,15.05-24.71a98.49,98.49,0,0,1,6.52-7.81l-3.91.15a39.32,39.32,0,0,0-5.5,4.83c-5.06,5.12-10.08,13.39-15.47,22.17-6.17-10-11.8-18.95-16.16-25.57Z"/>
                <path d="M601.74,1525.79l4-.16a239.58,239.58,0,0,0,20.53-25.31c6.09,9.57,12,17.83,16.75,23.88l4.62-.18c-4.34-7.16-10.82-17.33-17.95-28.84,6-9.93,10.62-18.89,15.05-24.71a98.3,98.3,0,0,1,6.51-7.81l-3.91.15a39.7,39.7,0,0,0-5.5,4.83c-5.06,5.12-10.08,13.39-15.47,22.17-6.17-10-11.8-18.95-16.16-25.57l-4.39.17c3.87,7.81,9.89,18.79,17.19,30.7C614,1508.14,605.73,1519.44,601.74,1525.79Z"/>
            </g>
            <polygon points="495.65 1468.66 497.68 1529.8 510.82 1529.29 508.79 1468.15 495.65 1468.66" style="fill: #c7283d;stroke: #000;stroke-width: 5px"/>
            <polygon points="673.35 1461.82 675.38 1522.96 691.68 1522.33 689.65 1461.19 673.35 1461.82" style="fill: #c7283d;stroke: #000;stroke-width: 5px"/>
        </g>
        <g>
            <path d="M704.3,1545.61c4.69-.47,8.85,3.24,9.28,8.28l3.18,36.56c0.44,5-3,9.52-7.69,10L515.25,1620c-4.69.47-8.84-3.24-9.28-8.28l-3.18-36.56c-0.44-5,3-9.52,7.69-10Z" style="fill: #ffb181;stroke: #000;stroke-width: 5px"/>
            <g>
                <path d="M547.08,1561.48c3.85,6.8,9.8,16.33,16.93,26.63-7.49,12.21-14.39,22.83-17.67,28.77l3.61-.36a218.54,218.54,0,0,0,17.23-23.9c5.94,8.26,11.66,15.36,16.21,20.53l4.14-.42c-4.25-6.2-10.56-15-17.52-24.92,4.94-9.26,8.63-17.57,12.34-23a89.43,89.43,0,0,1,5.48-7.38l-3.5.35a36,36,0,0,0-4.72,4.65c-4.3,4.89-8.41,12.6-12.84,20.79-6-8.62-11.52-16.37-15.76-22.08Z"/>
                <path d="M618.49,1609.59l3.61-.37a218,218,0,0,0,17.23-23.9c5.94,8.26,11.66,15.35,16.21,20.52l4.15-.42c-4.25-6.2-10.56-15-17.52-24.92,4.94-9.26,8.63-17.57,12.34-23a89.27,89.27,0,0,1,5.48-7.38l-3.5.35a35.93,35.93,0,0,0-4.71,4.65c-4.3,4.89-8.42,12.6-12.84,20.79-6-8.62-11.52-16.37-15.76-22.08l-3.94.4c3.85,6.8,9.8,16.33,16.93,26.63C628.67,1593,621.78,1603.66,618.49,1609.59Z"/>
            </g>
            <polygon points="520.38 1564.17 525.15 1619.01 536.94 1617.82 532.17 1562.98 520.38 1564.17" style="fill: #c7283d;stroke: #000;stroke-width: 5px"/>
            <polygon points="679.78 1548.09 684.55 1602.92 699.17 1601.45 694.39 1546.61 679.78 1548.09" style="fill: #c7283d;stroke: #000;stroke-width: 5px"/>
        </g>
        <g>
            <path d="M703.09,1598.94a8.29,8.29,0,0,1,11.26,4.64l13.91,33.53a9.47,9.47,0,0,1-4.31,12.12l-177.76,85.46a8.3,8.3,0,0,1-11.26-4.64L521,1696.52a9.47,9.47,0,0,1,4.31-12.12Z" style="fill: #ffb181;stroke: #000;stroke-width: 5px"/>
            <g>
                <path d="M558.89,1668.26c5.68,5.11,14.15,12.09,24,19.37-3.46,14.16-6.83,26.59-8.17,33.35l3.31-1.59a231.43,231.43,0,0,0,9.2-28.59,255.05,255.05,0,0,0,21.47,13.85l3.8-1.83c-5.87-4.4-14.46-10.53-24-17.55,1.92-10.47,2.94-19.62,4.82-26.09,1.08-4,2.29-7,3-8.88l-3.21,1.55a38.41,38.41,0,0,0-3.08,6c-2.62,6.11-4.22,14.84-6,24.12-8.28-6.09-15.79-11.53-21.5-15.47Z"/>
                <path d="M640.87,1689.17l3.31-1.59a231.07,231.07,0,0,0,9.2-28.59,255.37,255.37,0,0,0,21.46,13.84l3.8-1.83c-5.87-4.4-14.46-10.53-24-17.55,1.92-10.47,2.94-19.62,4.82-26.09,1.08-4,2.29-7,3-8.88l-3.21,1.54a38.44,38.44,0,0,0-3.08,6c-2.62,6.12-4.22,14.84-6,24.12-8.28-6.09-15.78-11.53-21.5-15.47l-3.61,1.73c5.68,5.11,14.14,12.09,24,19.37C645.58,1670,642.21,1682.41,640.87,1689.17Z"/>
            </g>
            <polygon points="534.41 1680.03 555.27 1730.32 566.08 1725.12 545.22 1674.83 534.41 1680.03" style="fill: #c7283d;stroke: #000;stroke-width: 5px"/>
            <polygon points="680.6 1609.75 701.45 1660.04 714.86 1653.6 694 1603.3 680.6 1609.75" style="fill: #c7283d;stroke: #000;stroke-width: 5px"/>
        </g>
        <g>
            <path d="M715.94,1660.68a8.14,8.14,0,0,1,11.91,2L748,1692.3a9.65,9.65,0,0,1-1.85,12.83L589,1828.91a8.14,8.14,0,0,1-11.91-2L557,1797.29a9.64,9.64,0,0,1,1.85-12.83Z" style="fill: #ffb181;stroke: #000;stroke-width: 5px"/>
            <g>
                <path d="M588.5,1761.09c6.55,3.71,16.19,8.62,27.22,13.52-0.61,14.62-1.48,27.55-1.47,34.45l2.93-2.31a236,236,0,0,0,3.41-30,245.84,245.84,0,0,0,23.69,8.68l3.36-2.65c-6.6-3-16.2-7-26.91-11.72-0.17-10.68-1-19.85-.38-26.6,0.28-4.15.88-7.33,1.19-9.36l-2.84,2.24a39.6,39.6,0,0,0-1.83,6.6c-1.37,6.57-1.22,15.46-1.12,24.94-9.28-4.08-17.68-7.7-24-10.26Z"/>
                <path d="M672.73,1763l2.93-2.31a235.58,235.58,0,0,0,3.42-30,246,246,0,0,0,23.69,8.68l3.36-2.65c-6.6-3-16.2-7-26.91-11.73-0.17-10.67-1-19.85-.38-26.6,0.28-4.15.88-7.33,1.19-9.36l-2.84,2.24a39.72,39.72,0,0,0-1.83,6.6c-1.37,6.57-1.23,15.46-1.13,24.94-9.28-4.08-17.68-7.7-24-10.26L647,1715c6.55,3.72,16.19,8.62,27.22,13.52C673.59,1743.14,672.72,1756.07,672.73,1763Z"/>
            </g>
            <polygon points="566.87 1778.14 597.07 1822.59 606.63 1815.06 576.42 1770.61 566.87 1778.14" style="fill: #c7283d;stroke: #000;stroke-width: 5px"/>
            <polygon points="696.06 1676.34 726.27 1720.79 738.12 1711.45 707.91 1667.01 696.06 1676.34" style="fill: #c7283d;stroke: #000;stroke-width: 5px"/>
        </g>
        <g>
            <path d="M731.12,1735.22a8.1,8.1,0,0,1,12.06,0l24.11,26a9.68,9.68,0,0,1,0,13l-137.7,148.16a8.1,8.1,0,0,1-12.06,0l-24.1-26a9.68,9.68,0,0,1,0-13Z" style="fill: #ffb181;stroke: #000;stroke-width: 5px"/>
            <g>
                <path d="M619.42,1855.4c7,2.59,17.22,5.85,28.82,8.88,1.47,14.55,2.44,27.47,3.43,34.29l2.56-2.76a236.68,236.68,0,0,0-.89-30.24,241.55,241.55,0,0,0,24.64,4.68l2.94-3.17c-6.94-1.86-17-4.28-28.26-7.16-1.68-10.52-3.76-19.46-4.15-26.23-0.31-4.14-.17-7.39-0.15-9.45l-2.49,2.68a40.11,40.11,0,0,0-.88,6.82c-0.42,6.72,1,15.48,2.43,24.83-9.75-2.5-18.57-4.7-25.22-6.18Z"/>
                <path d="M702.93,1843.42l2.56-2.76a236.27,236.27,0,0,0-.88-30.24,242,242,0,0,0,24.64,4.68l2.95-3.17c-6.94-1.86-17-4.28-28.26-7.16-1.68-10.52-3.76-19.46-4.15-26.22-0.31-4.15-.17-7.39-0.15-9.45l-2.49,2.68a40.22,40.22,0,0,0-.87,6.82c-0.42,6.72,1,15.48,2.42,24.83-9.75-2.5-18.57-4.7-25.22-6.18l-2.8,3c7,2.6,17.22,5.85,28.82,8.88C701,1823.68,701.94,1836.59,702.93,1843.42Z"/>
            </g>
            <polygon points="600.46 1875.81 636.61 1914.77 644.99 1905.76 608.83 1866.8 600.46 1875.81" style="fill: #c7283d;stroke: #000;stroke-width: 5px"/>
            <polygon points="713.7 1753.96 749.86 1792.92 760.25 1781.75 724.09 1742.79 713.7 1753.96" style="fill: #c7283d;stroke: #000;stroke-width: 5px"/>
        </g>
        <g>
            <path d="M562.15,2051.29S413,2116,352.16,2225.18s-37.66,139.67-37.66,139.67,138.76-45.06,212-120.56,122.66-181.82,122.66-181.82l-24.54-36Z" style="fill: #ff6819;stroke: #000;stroke-width: 8px"/>
            <path d="M374.47,2341.36c-34.68,15.28-60,23.5-60,23.5s-19.13-25.2,23.06-111.76c13.44,1.41,26.7,3.84,39.89,6.58C375,2287,374.64,2314.23,374.47,2341.36Z" style="fill: #ffed31;stroke: #000;stroke-width: 8px"/>
            <path d="M377.45,2259.67c-13.2-2.74-26.45-5.17-39.89-6.58,4.23-8.68,9.06-18,14.61-27.91,13.68-24.55,31.83-46.85,51.74-66.68,29.11,1.7,58.13,4.76,87.32,7.08a1036.48,1036.48,0,0,0-14.52,120c-34.16,23.53-71.81,42.38-102.23,55.79C374.64,2314.23,375,2287,377.45,2259.67Z" style="fill: #fff;stroke: #000;stroke-width: 8px"/>
            <path d="M313.83,2354.68c1.65,0.91,13.69-22,40.1-53.27,26.11-31.53,65.82-71.66,112-113.17,92.5-83,173-143.14,170.83-146.5-1.82-3.09-85.9,52.13-179.19,135.77C411,2219.36,371.73,2261.22,346.91,2295,321.74,2328.68,312.21,2354,313.83,2354.68Z"/>
        </g>
        <g>
            <path d="M753.41,1873.23a8.1,8.1,0,0,1,12.06,0l24.11,26a9.69,9.69,0,0,1,0,13l-137.7,148.16a8.1,8.1,0,0,1-12.06,0l-24.1-26a9.68,9.68,0,0,1,0-13Z" style="fill: #ffb181;stroke: #000;stroke-width: 5px"/>
            <g>
                <path d="M641.71,1993.42c7,2.59,17.22,5.85,28.82,8.88,1.47,14.55,2.44,27.47,3.43,34.29l2.56-2.76a236.64,236.64,0,0,0-.89-30.24,241.51,241.51,0,0,0,24.64,4.68l2.94-3.17c-6.94-1.86-17-4.28-28.26-7.16-1.68-10.52-3.76-19.46-4.15-26.23-0.31-4.14-.17-7.39-0.15-9.45l-2.49,2.68a40.16,40.16,0,0,0-.88,6.82c-0.42,6.72,1,15.48,2.43,24.83-9.75-2.5-18.57-4.7-25.22-6.18Z"/>
                <path d="M725.22,1981.43l2.56-2.76a236.34,236.34,0,0,0-.88-30.24,242,242,0,0,0,24.64,4.68l2.95-3.17c-6.94-1.86-17-4.28-28.26-7.16-1.68-10.52-3.76-19.46-4.15-26.22-0.31-4.15-.17-7.39-0.15-9.45l-2.49,2.68a40.26,40.26,0,0,0-.87,6.82c-0.42,6.72,1,15.48,2.42,24.83-9.75-2.5-18.57-4.7-25.22-6.18l-2.8,3c7,2.6,17.22,5.85,28.82,8.88C723.26,1961.69,724.24,1974.61,725.22,1981.43Z"/>
            </g>
            <polygon points="622.75 2013.82 658.91 2052.78 667.28 2043.77 631.12 2004.81 622.75 2013.82" style="fill: #c7283d;stroke: #000;stroke-width: 5px"/>
            <polygon points="735.99 1891.98 772.15 1930.94 782.54 1919.76 746.38 1880.8 735.99 1891.98" style="fill: #c7283d;stroke: #000;stroke-width: 5px"/>
        </g>
        <g>
            <path d="M559.37,2174.31S410.2,2239,349.37,2348.2s-37.66,139.67-37.66,139.67,138.76-45.06,212-120.56,122.66-181.82,122.66-181.82l-24.54-36Z" style="fill: #ff6819;stroke: #000;stroke-width: 8px"/>
            <path d="M371.68,2464.37c-34.68,15.28-60,23.5-60,23.5s-19.13-25.2,23.06-111.76c13.44,1.41,26.7,3.84,39.89,6.58C372.25,2410,371.85,2437.24,371.68,2464.37Z" style="fill: #ffed31;stroke: #000;stroke-width: 8px"/>
            <path d="M374.66,2382.69c-13.2-2.74-26.45-5.17-39.89-6.58,4.23-8.68,9.06-18,14.61-27.91,13.68-24.55,31.83-46.85,51.74-66.68,29.11,1.7,58.13,4.76,87.32,7.08a1036.59,1036.59,0,0,0-14.52,120c-34.16,23.53-71.81,42.38-102.23,55.79C371.85,2437.24,372.25,2410,374.66,2382.69Z" style="fill: #fff;stroke: #000;stroke-width: 8px"/>
            <path d="M311,2477.69c1.65,0.91,13.69-22,40.1-53.27,26.11-31.53,65.82-71.66,112-113.17,92.5-83,173-143.14,170.83-146.5-1.82-3.09-85.9,52.13-179.19,135.77-46.54,41.85-85.84,83.71-110.66,117.52C319,2451.69,309.43,2477,311,2477.69Z"/>
        </g>
        <g>
            <path d="M750.63,1996.25a8.1,8.1,0,0,1,12.06,0l24.11,26a9.69,9.69,0,0,1,0,13l-137.7,148.16a8.1,8.1,0,0,1-12.06,0l-24.1-26a9.68,9.68,0,0,1,0-13Z" style="fill: #ffb181;stroke: #000;stroke-width: 5px"/>
            <g>
                <path d="M638.93,2116.43c7,2.59,17.22,5.85,28.82,8.88,1.47,14.55,2.44,27.47,3.43,34.29l2.57-2.76a236.66,236.66,0,0,0-.89-30.24,241.56,241.56,0,0,0,24.64,4.68l2.94-3.17c-6.94-1.86-17-4.28-28.26-7.16-1.68-10.52-3.76-19.46-4.15-26.23-0.31-4.14-.17-7.39-0.15-9.45l-2.49,2.68a40.11,40.11,0,0,0-.88,6.82c-0.42,6.72,1,15.48,2.43,24.83-9.75-2.5-18.57-4.7-25.22-6.18Z"/>
                <path d="M722.44,2104.45l2.56-2.76a236.09,236.09,0,0,0-.88-30.24,241.92,241.92,0,0,0,24.64,4.68l2.95-3.17c-6.95-1.86-17-4.28-28.26-7.16-1.68-10.52-3.76-19.46-4.15-26.22-0.31-4.15-.17-7.39-0.15-9.45l-2.49,2.68a40.25,40.25,0,0,0-.87,6.82c-0.42,6.72,1,15.48,2.42,24.83-9.75-2.5-18.57-4.7-25.22-6.18l-2.8,3c7,2.6,17.22,5.85,28.82,8.88C720.47,2084.71,721.45,2097.62,722.44,2104.45Z"/>
            </g>
            <polygon points="619.96 2136.84 656.12 2175.8 664.5 2166.78 628.34 2127.82 619.96 2136.84" style="fill: #c7283d;stroke: #000;stroke-width: 5px"/>
            <polygon points="733.21 2014.99 769.36 2053.95 779.75 2042.78 743.59 2003.82 733.21 2014.99" style="fill: #c7283d;stroke: #000;stroke-width: 5px"/>
        </g>
        <g>
            <path d="M1867.83,938.64c-2,5.75-8,8.63-13.39,6.42l-38.7-16c-5.34-2.21-8-8.66-6-14.41l84.78-237.83c2.05-5.75,8-8.63,13.39-6.42l38.7,16c5.34,2.21,8,8.66,6,14.41Z" style="fill: #ffb181;stroke: #000;stroke-width: 5px"/>
            <g>
                <path d="M1936.6,745.72c-9,.85-21.81,2.68-36.07,5.49C1892.21,735.84,1885.2,722,1881,715l-1.58,4.43a276.2,276.2,0,0,0,14.88,33.1,296.21,296.21,0,0,0-29.51,7.93l-1.81,5.09c8.56-1.64,20.84-4.31,34.66-7.11,6.7,10.79,13.12,19.6,16.66,26.9,2.25,4.43,3.59,8.11,4.51,10.41l1.53-4.3a48.35,48.35,0,0,0-2.16-8c-2.62-7.68-8.21-16.67-14.1-26.27,12-2.42,22.77-4.67,30.84-6.57Z"/>
                <path d="M1849.41,803.51l-1.58,4.43a276.56,276.56,0,0,0,14.88,33.1A296.21,296.21,0,0,0,1833.2,849l-1.81,5.08c8.56-1.64,20.84-4.31,34.66-7.11,6.7,10.79,13.12,19.6,16.66,26.9a112.91,112.91,0,0,1,4.51,10.41l1.54-4.3a48.41,48.41,0,0,0-2.16-8c-2.62-7.68-8.21-16.66-14.1-26.27,12-2.42,22.77-4.67,30.83-6.57l1.72-4.83c-9,.85-21.81,2.68-36.07,5.49C1860.66,824.38,1853.64,810.56,1849.41,803.51Z"/>
            </g>
            <polygon points="1948.28 712.96 1890.23 688.98 1885.08 703.44 1943.12 727.43 1948.28 712.96" style="fill: #c7283d;stroke: #000;stroke-width: 5px"/>
            <polygon points="1878.56 908.55 1820.51 884.57 1814.12 902.5 1872.16 926.49 1878.56 908.55" style="fill: #c7283d;stroke: #000;stroke-width: 5px"/>
        </g>
        <g>
            <path d="M1459.38,764.74c0.8,6.1-3.15,11.74-8.82,12.6l-41,6.22c-5.67.86-10.91-3.39-11.71-9.49l-33-252.26c-0.8-6.1,3.15-11.74,8.82-12.6l41-6.22c5.67-.86,10.91,3.39,11.7,9.49Z" style="fill: #ffb181;stroke: #000;stroke-width: 5px"/>
            <g>
                <path d="M1432.64,560.11c-7.45,5.42-17.86,13.73-29.07,23.64-14.2-9.1-26.56-17.52-33.43-21.48l0.61,4.7a249.07,249.07,0,0,0,27.92,21.18c-9,8.23-16.66,16.11-22.23,22.34l0.71,5.39c6.75-5.9,16.29-14.65,27.11-24.31,10.72,5.94,20.3,10.29,26.69,14.83a102.82,102.82,0,0,1,8.63,6.75l-0.6-4.56a44.11,44.11,0,0,0-5.51-5.9c-5.75-5.35-14.68-10.29-24.16-15.61,9.38-8.37,17.81-16,24-21.85Z"/>
                <path d="M1382.41,656.18l0.62,4.7a248.87,248.87,0,0,0,27.92,21.18c-9,8.23-16.66,16.11-22.23,22.34l0.7,5.39c6.75-5.9,16.29-14.65,27.11-24.31,10.72,5.94,20.3,10.29,26.68,14.83a103.09,103.09,0,0,1,8.63,6.75l-0.6-4.56a44.07,44.07,0,0,0-5.51-5.9c-5.75-5.35-14.68-10.29-24.16-15.61,9.39-8.37,17.81-16,24-21.84l-0.67-5.12c-7.45,5.42-17.87,13.73-29.07,23.63C1401.64,668.55,1389.28,660.13,1382.41,656.18Z"/>
            </g>
            <polygon points="1428.1 525.37 1366.53 534.69 1368.54 550.04 1430.1 540.71 1428.1 525.37" style="fill: #c7283d;stroke: #000;stroke-width: 5px"/>
            <polygon points="1455.21 732.82 1393.64 742.15 1396.13 761.18 1457.69 751.85 1455.21 732.82" style="fill: #c7283d;stroke: #000;stroke-width: 5px"/>
        </g>
        <g>
            <path d="M1531.74,762.48c0.46,6.14-3.79,11.52-9.49,12l-41.31,3.59c-5.71.5-10.7-4.08-11.16-10.22l-19-253.92c-0.46-6.14,3.79-11.52,9.5-12l41.31-3.59c5.7-.5,10.7,4.08,11.16,10.22Z" style="fill: #ffb181;stroke: #000;stroke-width: 5px"/>
            <g>
                <path d="M1516.29,556.51c-7.74,4.93-18.59,12.57-30.32,21.74-13.67-10-25.54-19.18-32.19-23.57l0.36,4.73a252.09,252.09,0,0,0,26.71,22.92c-9.42,7.64-17.51,15-23.42,20.89l0.41,5.43c7.06-5.46,17.06-13.59,28.4-22.54,10.37,6.61,19.7,11.57,25.82,16.51a104.8,104.8,0,0,1,8.25,7.29l-0.35-4.59a44.61,44.61,0,0,0-5.18-6.24c-5.45-5.71-14.09-11.21-23.26-17.12,9.83-7.75,18.66-14.81,25.17-20.28Z"/>
                <path d="M1460.87,649.21l0.35,4.73a252.52,252.52,0,0,0,26.71,22.92c-9.42,7.64-17.51,15-23.42,20.89l0.41,5.43c7.06-5.46,17.06-13.59,28.4-22.54,10.37,6.61,19.7,11.57,25.82,16.51a103.86,103.86,0,0,1,8.25,7.28l-0.34-4.59a44.86,44.86,0,0,0-5.18-6.24c-5.45-5.71-14.09-11.21-23.26-17.12,9.83-7.75,18.66-14.81,25.17-20.28l-0.39-5.16c-7.74,4.94-18.59,12.57-30.32,21.74C1479.39,662.79,1467.52,653.6,1460.87,649.21Z"/>
            </g>
            <polygon points="1513.67 521.54 1451.7 526.92 1452.86 542.37 1514.83 536.98 1513.67 521.54" style="fill: #c7283d;stroke: #000;stroke-width: 5px"/>
            <polygon points="1529.33 730.36 1467.36 735.74 1468.79 754.9 1530.77 749.51 1529.33 730.36" style="fill: #c7283d;stroke: #000;stroke-width: 5px"/>
        </g>
        <g>
            <path d="M1606,769c0.14,6.16-4.39,11.27-10.12,11.42l-41.44,1c-5.72.14-10.47-4.73-10.6-10.89l-5.55-254.68c-0.13-6.16,4.39-11.27,10.12-11.42l41.44-1c5.72-.14,10.47,4.73,10.6,10.89Z" style="fill: #ffb181;stroke: #000;stroke-width: 5px"/>
            <g>
                <path d="M1601.49,562.42c-8,4.45-19.22,11.4-31.42,19.84-13.12-10.81-24.49-20.72-30.89-25.51l0.1,4.74A255.34,255.34,0,0,0,1564.73,586c-9.81,7-18.28,13.92-24.49,19.41l0.12,5.45c7.34-5,17.75-12.52,29.55-20.76,10,7.24,19.05,12.76,24.91,18.07a105.41,105.41,0,0,1,7.85,7.78l-0.1-4.6a45.35,45.35,0,0,0-4.84-6.55c-5.14-6-13.47-12.06-22.32-18.53,10.22-7.14,19.41-13.64,26.2-18.7Z"/>
                <path d="M1541.24,651.56l0.1,4.74a255.36,255.36,0,0,0,25.45,24.53c-9.81,7-18.28,13.92-24.49,19.41l0.12,5.45c7.34-5,17.76-12.52,29.55-20.76,10,7.24,19.05,12.76,24.91,18.07a105.45,105.45,0,0,1,7.84,7.78l-0.1-4.6a45.42,45.42,0,0,0-4.84-6.55c-5.14-6-13.47-12.06-22.32-18.52,10.22-7.14,19.41-13.64,26.2-18.7l-0.11-5.17c-8,4.45-19.22,11.4-31.42,19.84C1559,666.26,1547.65,656.35,1541.24,651.56Z"/>
            </g>
            <polygon points="1600.72 527.34 1538.57 528.91 1538.9 544.41 1601.06 542.83 1600.72 527.34" style="fill: #c7283d;stroke: #000;stroke-width: 5px"/>
            <polygon points="1605.29 736.78 1543.13 738.36 1543.55 757.57 1605.71 755.99 1605.29 736.78" style="fill: #c7283d;stroke: #000;stroke-width: 5px"/>
        </g>
        <g>
            <path d="M1674.45,770.65c-0.61,6.13-5.72,10.56-11.41,9.9l-41.21-4.76c-5.69-.66-9.81-6.16-9.2-12.28l25.26-253.29c0.61-6.13,5.72-10.56,11.41-9.9l41.21,4.76c5.69,0.66,9.81,6.16,9.2,12.28Z" style="fill: #ffb181;stroke: #000;stroke-width: 5px"/>
            <g>
                <path d="M1694.94,565.19c-8.46,3.29-20.44,8.61-33.55,15.27-11.7-12.56-21.78-24-27.55-29.62l-0.47,4.72a262.86,262.86,0,0,0,22.27,27.88A308.17,308.17,0,0,0,1629,599.26l-0.54,5.42c7.88-3.95,19.12-9.92,31.8-16.44,9,8.58,17.35,15.32,22.51,21.4a108.64,108.64,0,0,1,6.84,8.81l0.46-4.58a46.66,46.66,0,0,0-4-7.17c-4.37-6.7-11.9-13.84-19.89-21.49,11-5.65,20.9-10.81,28.24-14.87Z"/>
                <path d="M1624.44,645.13l-0.47,4.72a262.88,262.88,0,0,0,22.27,27.88,308.39,308.39,0,0,0-26.63,15.82l-0.54,5.42c7.89-4,19.12-9.92,31.81-16.44,9,8.58,17.35,15.32,22.51,21.4a108.75,108.75,0,0,1,6.84,8.81l0.46-4.58a46.51,46.51,0,0,0-4-7.17c-4.37-6.7-11.9-13.84-19.89-21.49,11-5.64,20.89-10.81,28.23-14.87l0.51-5.15c-8.46,3.29-20.44,8.61-33.55,15.27C1640.28,662.19,1630.21,650.78,1624.44,645.13Z"/>
            </g>
            <polygon points="1698.42 530.3 1636.6 523.15 1635.06 538.56 1696.88 545.7 1698.42 530.3" style="fill: #c7283d;stroke: #000;stroke-width: 5px"/>
            <polygon points="1677.65 738.6 1615.83 731.45 1613.92 750.56 1675.74 757.71 1677.65 738.6" style="fill: #c7283d;stroke: #000;stroke-width: 5px"/>
        </g>
        <g>
            <path d="M1756.28,802.49c-0.94,6.08-6.29,10.18-11.93,9.16l-40.88-7.38c-5.64-1-9.45-6.77-8.51-12.85l39.13-251.24C1735,534.1,1740.38,530,1746,531l40.88,7.38c5.64,1,9.45,6.77,8.5,12.85Z" style="fill: #ffb181;stroke: #000;stroke-width: 5px"/>
            <g>
                <path d="M1788,598.69c-8.62,2.75-20.87,7.3-34.33,13.11-11-13.28-20.42-25.32-25.87-31.32l-0.73,4.68a265.85,265.85,0,0,0,20.7,29.25,305.13,305.13,0,0,0-27.45,14.09l-0.83,5.37c8.09-3.44,19.63-8.69,32.65-14.39,8.56,9.14,16.48,16.4,21.29,22.8a110,110,0,0,1,6.34,9.23l0.71-4.54a47.08,47.08,0,0,0-3.6-7.41c-4-7-11.12-14.57-18.67-22.72,11.29-4.93,21.45-9.46,29-13Z"/>
                <path d="M1713.25,674l-0.73,4.68a266.18,266.18,0,0,0,20.7,29.25A304.89,304.89,0,0,0,1705.77,722l-0.84,5.37c8.09-3.44,19.63-8.69,32.65-14.39,8.56,9.14,16.48,16.4,21.3,22.8a109.91,109.91,0,0,1,6.34,9.23l0.71-4.54a47.29,47.29,0,0,0-3.61-7.41c-4-7-11.12-14.57-18.67-22.72,11.29-4.93,21.45-9.46,29-13l0.8-5.11c-8.62,2.75-20.88,7.3-34.33,13.11C1728.13,692,1718.7,680,1713.25,674Z"/>
            </g>
            <polygon points="1793.41 564.09 1732.09 553.02 1729.71 568.3 1791.03 579.37 1793.41 564.09" style="fill: #c7283d;stroke: #000;stroke-width: 5px"/>
            <polygon points="1761.23 770.7 1699.91 759.63 1696.96 778.58 1758.27 789.65 1761.23 770.7" style="fill: #c7283d;stroke: #000;stroke-width: 5px"/>
        </g>
        <g>
            <path d="M1817.38,852.13c-1.82,5.84-7.69,9-13.12,7L1765,845c-5.42-2-8.35-8.28-6.54-14.12l75.13-241.56c1.82-5.84,7.69-9,13.12-7l39.3,14.17c5.43,2,8.35,8.28,6.54,14.12Z" style="fill: #ffb181;stroke: #000;stroke-width: 5px"/>
            <g>
                <path d="M1878.32,656.19c-8.91,1.27-21.68,3.69-35.81,7.17-8.93-15-16.49-28.45-21-35.29l-1.4,4.5a273.59,273.59,0,0,0,16.2,32.37,297.36,297.36,0,0,0-29.16,9.3l-1.61,5.17c8.49-2,20.65-5.28,34.34-8.72,7.13,10.47,13.89,19,17.72,26.1,2.42,4.33,3.91,7.94,4.92,10.19l1.35-4.37a47.84,47.84,0,0,0-2.48-7.93c-2.93-7.55-8.87-16.27-15.15-25.59,11.87-3,22.56-5.73,30.54-8Z"/>
                <path d="M1793.54,718l-1.4,4.5a274.25,274.25,0,0,0,16.2,32.38,298,298,0,0,0-29.16,9.3l-1.61,5.17c8.49-2,20.65-5.28,34.34-8.72,7.13,10.47,13.89,19,17.72,26.1a112.42,112.42,0,0,1,4.92,10.19l1.36-4.37a48,48,0,0,0-2.48-7.93c-2.93-7.55-8.87-16.27-15.14-25.59,11.87-3,22.56-5.73,30.54-8l1.53-4.91c-8.92,1.26-21.68,3.69-35.82,7.17C1805.61,738.31,1798,724.83,1793.54,718Z"/>
            </g>
            <polygon points="1888.67 622.91 1829.72 601.66 1825.15 616.35 1884.1 637.61 1888.67 622.91" style="fill: #c7283d;stroke: #000;stroke-width: 5px"/>
            <polygon points="1826.88 821.57 1767.93 800.31 1762.26 818.53 1821.21 839.79 1826.88 821.57" style="fill: #c7283d;stroke: #000;stroke-width: 5px"/>
        </g>
        <g>
            <path d="M1385.1,770.29c1.06,6.06-2.64,11.89-8.27,13l-40.73,8.26c-5.62,1.14-11-2.85-12.1-8.9l-43.77-250.35c-1.06-6.06,2.64-11.89,8.27-13l40.73-8.25c5.62-1.14,11,2.84,12.1,8.9Z" style="fill: #ffb181;stroke: #000;stroke-width: 5px"/>
            <g>
                <path d="M1349.6,567.21c-7.21,5.78-17.26,14.6-28,25.06-14.57-8.38-27.28-16.18-34.32-19.79l0.82,4.66a246.31,246.31,0,0,0,28.8,19.77c-8.62,8.67-15.95,16.92-21.25,23.43l0.94,5.35c6.49-6.23,15.64-15.44,26-25.63,11,5.4,20.72,9.27,27.29,13.49a101.91,101.91,0,0,1,8.91,6.31l-0.79-4.53a43.72,43.72,0,0,0-5.76-5.62c-6-5.06-15.11-9.55-24.81-14.39,9-8.83,17.1-16.85,23-23Z"/>
                <path d="M1303.55,665.67l0.82,4.66a246.58,246.58,0,0,0,28.8,19.77c-8.62,8.66-15.95,16.92-21.25,23.43l0.94,5.35c6.49-6.23,15.64-15.45,26-25.63,11,5.4,20.72,9.27,27.29,13.49a101.42,101.42,0,0,1,8.91,6.31l-0.79-4.53a43.7,43.7,0,0,0-5.76-5.62c-6-5.06-15.11-9.55-24.81-14.39,9-8.82,17.11-16.84,23-23l-0.89-5.09c-7.21,5.78-17.26,14.6-28,25.06C1323.3,677.08,1310.59,669.29,1303.55,665.67Z"/>
            </g>
            <polygon points="1343.57 532.73 1282.47 545.11 1285.13 560.34 1346.23 547.96 1343.57 532.73" style="fill: #c7283d;stroke: #000;stroke-width: 5px"/>
            <polygon points="1379.56 738.61 1318.46 751 1321.76 769.88 1382.87 757.5 1379.56 738.61" style="fill: #c7283d;stroke: #000;stroke-width: 5px"/>
        </g>
        <g>
            <path d="M1307.7,790.12c1.29,6-2.18,12-7.76,13.39l-40.38,10.07c-5.57,1.39-11.14-2.35-12.43-8.35L1193.75,557c-1.29-6,2.18-12,7.76-13.39l40.38-10.07c5.58-1.39,11.14,2.35,12.43,8.35Z" style="fill: #ffb181;stroke: #000;stroke-width: 5px"/>
            <g>
                <path d="M1264.4,588.8c-7,6.1-16.68,15.36-27,26.29-14.88-7.73-27.88-14.95-35.05-18.24l1,4.62a244.52,244.52,0,0,0,29.54,18.46c-8.28,9-15.28,17.62-20.33,24.35l1.14,5.31c6.24-6.52,15-16.13,25-26.77,11.16,4.9,21.06,8.34,27.79,12.26a101.11,101.11,0,0,1,9.15,5.91l-1-4.49a43.34,43.34,0,0,0-6-5.36c-6.17-4.78-15.46-8.86-25.34-13.27,8.67-9.22,16.44-17.6,22.14-24Z"/>
                <path d="M1222.19,689.24l1,4.62a244.28,244.28,0,0,0,29.54,18.46c-8.28,9-15.28,17.62-20.33,24.35l1.14,5.31c6.24-6.52,15-16.13,25-26.77,11.16,4.9,21.06,8.34,27.79,12.26a101.07,101.07,0,0,1,9.15,5.91l-1-4.49a43.37,43.37,0,0,0-6-5.36c-6.17-4.79-15.46-8.87-25.34-13.27,8.67-9.22,16.44-17.59,22.14-24l-1.08-5c-7,6.1-16.68,15.36-27,26.29C1242.35,699.75,1229.36,692.53,1222.19,689.24Z"/>
            </g>
            <polygon points="1257.05 554.62 1196.48 569.72 1199.73 584.81 1260.3 569.71 1257.05 554.62" style="fill: #c7283d;stroke: #000;stroke-width: 5px"/>
            <polygon points="1300.94 758.72 1240.37 773.82 1244.4 792.54 1304.97 777.44 1300.94 758.72" style="fill: #c7283d;stroke: #000;stroke-width: 5px"/>
        </g>
        <g>
            <path d="M1087.89,840.83c2.42,5.58.18,12.22-5,14.83l-37.56,18.87c-5.19,2.61-11.35.19-13.77-5.39l-100-230.86c-2.42-5.58-.18-12.22,5-14.83l37.56-18.87c5.19-2.61,11.35-.19,13.77,5.39Z" style="fill: #ffb181;stroke: #000;stroke-width: 5px"/>
            <g>
                <path d="M1006.74,653.57c-5.66,7.53-13.36,18.75-21.38,31.76-16-4.23-30.15-8.4-37.8-10l1.86,4.3a235.8,235.8,0,0,0,32.45,11.46c-6.36,10.7-11.55,20.65-15.19,28.37l2.14,4.94c4.85-7.77,11.59-19.14,19.32-31.78,11.86,2.3,22.21,3.45,29.55,5.78a97.51,97.51,0,0,1,10.09,3.73l-1.81-4.17a41.44,41.44,0,0,0-6.87-3.91c-7-3.3-16.83-5.22-27.35-7.32,6.7-11,12.69-20.88,17-28.45Z"/>
                <path d="M984.8,761.25l1.86,4.3A235.87,235.87,0,0,0,1019.11,777c-6.36,10.69-11.55,20.65-15.19,28.37l2.14,4.94c4.85-7.77,11.6-19.14,19.33-31.78,11.86,2.3,22.21,3.45,29.54,5.78A97.26,97.26,0,0,1,1065,788l-1.81-4.17a41.49,41.49,0,0,0-6.87-3.91c-7-3.3-16.83-5.22-27.35-7.32,6.7-11,12.69-20.88,17-28.45l-2-4.69c-5.66,7.53-13.36,18.75-21.38,31.75C1006.55,767,992.45,762.87,984.8,761.25Z"/>
            </g>
            <polygon points="992.96 621.77 936.62 650.07 942.7 664.12 999.05 635.81 992.96 621.77" style="fill: #c7283d;stroke: #000;stroke-width: 5px"/>
            <polygon points="1075.23 811.62 1018.89 839.93 1026.43 857.34 1082.78 829.03 1075.23 811.62" style="fill: #c7283d;stroke: #000;stroke-width: 5px"/>
        </g>
        <g>
            <path d="M1156.47,815.89c2.11,5.73-.5,12.21-5.82,14.48l-38.53,16.44c-5.32,2.27-11.34-.53-13.45-6.26L1011.5,603.73c-2.11-5.73.5-12.21,5.81-14.48l38.53-16.44c5.32-2.27,11.34.53,13.45,6.26Z" style="fill: #ffb181;stroke: #000;stroke-width: 5px"/>
            <g>
                <path d="M1085.76,623.79c-6.06,7.15-14.36,17.87-23.09,30.34-15.79-5.25-29.64-10.3-37.19-12.4l1.62,4.41a237.88,237.88,0,0,0,31.77,13.51c-6.93,10.27-12.67,19.87-16.73,27.35l1.87,5.06c5.27-7.45,12.63-18.36,21-30.5,11.72,3.06,22,4.86,29.18,7.66a98.48,98.48,0,0,1,9.86,4.37l-1.58-4.28a41.93,41.93,0,0,0-6.65-4.34c-6.76-3.74-16.52-6.28-26.9-9.05,7.29-10.51,13.82-20,18.56-27.31Z"/>
                <path d="M1057.94,729.88l1.62,4.41a238.13,238.13,0,0,0,31.77,13.51c-6.93,10.27-12.67,19.87-16.73,27.35l1.86,5.06c5.27-7.45,12.63-18.37,21-30.5,11.71,3.06,22,4.86,29.18,7.66a98.24,98.24,0,0,1,9.86,4.37l-1.58-4.28a42,42,0,0,0-6.65-4.34c-6.76-3.74-16.52-6.28-26.9-9.05,7.29-10.51,13.82-20,18.56-27.31l-1.77-4.81c-6.06,7.16-14.36,17.87-23.09,30.34C1079.34,737,1065.48,732,1057.94,729.88Z"/>
            </g>
            <polygon points="1073.75 591.17 1015.95 615.83 1021.26 630.24 1079.06 605.57 1073.75 591.17" style="fill: #c7283d;stroke: #000;stroke-width: 5px"/>
            <polygon points="1145.44 785.93 1087.64 810.59 1094.22 828.46 1152.02 803.79 1145.44 785.93" style="fill: #c7283d;stroke: #000;stroke-width: 5px"/>
        </g>
        <g>
            <path d="M1227.79,813.4c1.61,5.91-1.55,12.11-7,13.84L1181,839.75c-5.49,1.73-11.25-1.67-12.85-7.58l-66.3-244.54c-1.6-5.92,1.55-12.11,7-13.84l39.79-12.51c5.49-1.73,11.25,1.67,12.85,7.58Z" style="fill: #ffb181;stroke: #000;stroke-width: 5px"/>
            <g>
                <path d="M1174,615c-6.65,6.52-15.85,16.35-25.61,27.89-15.26-6.81-28.62-13.23-36-16.08l1.23,4.56A241.91,241.91,0,0,0,1144.13,648c-7.79,9.53-14.34,18.52-19,25.55l1.42,5.23c5.89-6.89,14.16-17,23.58-28.25,11.4,4.22,21.46,7,28.39,10.55a100.07,100.07,0,0,1,9.44,5.34l-1.2-4.42a42.8,42.8,0,0,0-6.24-5c-6.41-4.4-15.9-7.91-26-11.71,8.17-9.73,15.49-18.57,20.84-25.33Z"/>
                <path d="M1137.12,717.88l1.24,4.56a241.88,241.88,0,0,0,30.46,16.64c-7.79,9.53-14.33,18.52-19,25.55l1.42,5.23c5.89-6.89,14.16-17,23.59-28.25,11.4,4.22,21.46,7,28.39,10.55a99.74,99.74,0,0,1,9.44,5.34l-1.2-4.42a42.94,42.94,0,0,0-6.24-5c-6.41-4.4-15.9-7.91-26-11.71,8.17-9.73,15.49-18.57,20.84-25.33l-1.35-5c-6.65,6.52-15.85,16.35-25.62,27.89C1157.81,727.15,1144.45,720.73,1137.12,717.88Z"/>
            </g>
            <polygon points="1164.87 581.36 1105.19 600.12 1109.22 614.99 1168.91 596.23 1164.87 581.36" style="fill: #c7283d;stroke: #000;stroke-width: 5px"/>
            <polygon points="1219.4 782.47 1159.72 801.22 1164.72 819.67 1224.4 800.91 1219.4 782.47" style="fill: #c7283d;stroke: #000;stroke-width: 5px"/>
        </g>
        <g>
            <path d="M1018.36,869.52a11.59,11.59,0,0,1-4.37,15.06L977.29,905.3c-5.07,2.86-11.33.75-14-4.7L853.45,675c-2.66-5.46-.7-12.2,4.37-15.06l36.71-20.72c5.07-2.86,11.33-.76,14,4.7Z" style="fill: #ffb181;stroke: #000;stroke-width: 5px"/>
            <g>
                <path d="M929.26,686.5c-5.33,7.8-12.54,19.4-20,32.79-16.21-3.43-30.48-6.89-38.19-8.12l2,4.2A234.46,234.46,0,0,0,906,725.21c-5.89,11-10.66,21.2-14,29.09l2.35,4.82c4.51-8,10.76-19.69,17.94-32.71,11.95,1.71,22.33,2.34,29.76,4.31a96.79,96.79,0,0,1,10.24,3.23l-2-4.08a41,41,0,0,0-7-3.56c-7.09-3-17-4.37-27.63-6,6.23-11.28,11.78-21.49,15.79-29.27Z"/>
                <path d="M912,795.16l2,4.2a234.49,234.49,0,0,0,32.91,9.83c-5.89,11-10.66,21.2-14,29.09l2.35,4.82c4.51-8,10.76-19.69,17.94-32.71,11.95,1.71,22.33,2.34,29.76,4.31a96.6,96.6,0,0,1,10.24,3.23l-2-4.08a41.12,41.12,0,0,0-7-3.56c-7.09-3-17-4.37-27.63-6,6.23-11.28,11.78-21.49,15.79-29.27l-2.23-4.58c-5.33,7.8-12.54,19.4-20,32.79C933.94,799.85,919.68,796.4,912,795.16Z"/>
            </g>
            <polygon points="914.13 655.42 859.06 686.5 865.75 700.23 920.81 669.15 914.13 655.42" style="fill: #c7283d;stroke: #000;stroke-width: 5px"/>
            <polygon points="1004.47 840.98 949.4 872.06 957.68 889.08 1012.75 858 1004.47 840.98" style="fill: #c7283d;stroke: #000;stroke-width: 5px"/>
        </g>
        <g>
            <path d="M954.78,912.42c2.66,5.46.7,12.2-4.37,15.06L913.71,948.2c-5.07,2.86-11.33.76-14-4.7L789.87,717.87c-2.66-5.46-.7-12.2,4.37-15.06l36.71-20.72c5.07-2.86,11.33-.76,14,4.7Z" style="fill: #ffb181;stroke: #000;stroke-width: 5px"/>
            <g>
                <path d="M865.68,729.4c-5.33,7.8-12.54,19.4-20,32.79-16.21-3.43-30.48-6.89-38.19-8.12l2,4.2a234.37,234.37,0,0,0,32.91,9.83c-5.89,11-10.66,21.2-14,29.09l2.35,4.82c4.51-8,10.76-19.69,17.94-32.71,11.95,1.71,22.33,2.34,29.76,4.31a96.81,96.81,0,0,1,10.24,3.23l-2-4.08a41.07,41.07,0,0,0-7-3.56c-7.09-3-17-4.37-27.63-6,6.22-11.28,11.78-21.5,15.79-29.27Z"/>
                <path d="M848.38,838.06l2,4.2a234.34,234.34,0,0,0,32.91,9.83c-5.89,11-10.66,21.2-14,29.09l2.35,4.82c4.51-8,10.76-19.69,17.94-32.71,11.95,1.71,22.33,2.34,29.76,4.31a96.62,96.62,0,0,1,10.24,3.23l-2-4.08a41.11,41.11,0,0,0-7-3.56c-7.09-3-17-4.37-27.63-6C899.24,836,904.8,825.75,908.8,818l-2.23-4.58c-5.33,7.8-12.54,19.4-20,32.79C870.37,842.75,856.1,839.3,848.38,838.06Z"/>
            </g>
            <polygon points="850.55 698.32 795.49 729.4 802.17 743.13 857.23 712.05 850.55 698.32" style="fill: #c7283d;stroke: #000;stroke-width: 5px"/>
            <polygon points="940.89 883.88 885.82 914.96 894.11 931.97 949.17 900.89 940.89 883.88" style="fill: #c7283d;stroke: #000;stroke-width: 5px"/>
        </g>
        <g>
            <path d="M779.94,1044.94c5.1,2.8,7.13,9.51,4.53,15l-18.81,39.77c-2.6,5.49-8.84,7.67-13.94,4.88L540.9,989c-5.1-2.8-7.13-9.52-4.53-15l18.81-39.77c2.6-5.49,8.84-7.67,13.94-4.88Z" style="fill: #ffb181;stroke: #000;stroke-width: 5px"/>
            <g>
                <path d="M608.93,951.14c-0.15,9.68.2,23.63,1.3,39.2-15.07,7.3-28.56,13.37-35.52,17.16l3.93,2.15a236.67,236.67,0,0,0,32.13-12.48c1.11,12.64,2.7,23.93,4.24,32.42l4.51,2.47c-0.62-9.34-1.8-22.77-2.94-37.86,10.67-6,19.47-12,26.59-15a97.33,97.33,0,0,1,10.08-3.74l-3.81-2.09a39.77,39.77,0,0,0-7.65,1.48c-7.37,2-16.25,7-25.74,12.36-1-13.08-1.94-24.87-2.85-33.71Z"/>
                <path d="M653.2,1050.55l3.93,2.15a236.75,236.75,0,0,0,32.13-12.48c1.11,12.64,2.7,23.93,4.24,32.42l4.51,2.47c-0.62-9.34-1.8-22.77-2.94-37.86,10.66-6,19.47-12,26.59-15a96.89,96.89,0,0,1,10.08-3.74l-3.81-2.09a39.71,39.71,0,0,0-7.65,1.48c-7.37,2-16.25,7-25.74,12.36-1-13.08-1.94-24.87-2.85-33.7l-4.28-2.35c-0.15,9.68.2,23.63,1.3,39.2C673.65,1040.68,660.15,1046.75,653.2,1050.55Z"/>
            </g>
            <polygon points="579.89 935.21 551.67 994.86 564.49 1001.89 592.71 942.25 579.89 935.21" style="fill: #c7283d;stroke: #000;stroke-width: 5px"/>
            <polygon points="753.27 1030.31 725.05 1089.95 740.95 1098.68 769.17 1039.03 753.27 1030.31" style="fill: #c7283d;stroke: #000;stroke-width: 5px"/>
        </g>
        <g>
            <path d="M835.58,990.84a11.76,11.76,0,0,1,1,15.74l-27.3,33.58a9.86,9.86,0,0,1-14.62,1l-178-167.79a11.76,11.76,0,0,1-1-15.74l27.3-33.58a9.86,9.86,0,0,1,14.62-1Z" style="fill: #ffb181;stroke: #000;stroke-width: 5px"/>
            <g>
                <path d="M691.16,854.74c-2.35,9.34-5.19,23-7.67,38.34-16.27,3.1-30.74,5.42-38.34,7.26l3.32,3.13a230.84,230.84,0,0,0,34-3.61c-1.81,12.55-2.84,23.91-3.27,32.56L683,936c1.53-9.22,3.44-22.55,5.77-37.48,11.72-3,21.61-6.49,29.2-7.54a95.45,95.45,0,0,1,10.63-1l-3.22-3a39.35,39.35,0,0,0-7.75-.59c-7.6,0-17.36,2.54-27.77,5.18,2-12.94,3.79-24.62,4.92-33.43Z"/>
                <path d="M711.43,962.8l3.32,3.13a231,231,0,0,0,34-3.61c-1.81,12.55-2.84,23.91-3.27,32.55l3.81,3.59c1.53-9.22,3.44-22.55,5.77-37.48,11.72-3,21.61-6.49,29.2-7.54a95,95,0,0,1,10.63-1l-3.22-3a39.44,39.44,0,0,0-7.75-.59c-7.6,0-17.36,2.54-27.77,5.18,2-12.94,3.79-24.62,4.92-33.43l-3.62-3.41c-2.36,9.35-5.2,23-7.67,38.34C733.5,958.64,719,961,711.43,962.8Z"/>
            </g>
            <polygon points="666.64 831.63 625.69 882 636.52 892.2 677.47 841.83 666.64 831.63" style="fill: #c7283d;stroke: #000;stroke-width: 5px"/>
            <polygon points="813.05 969.61 772.1 1019.98 785.53 1032.64 826.48 982.27 813.05 969.61" style="fill: #c7283d;stroke: #000;stroke-width: 5px"/>
        </g>
        <g>
            <path d="M899.1,955.5A11.69,11.69,0,0,1,896.28,971l-34.41,24.88a9.92,9.92,0,0,1-14.38-3L715.57,781.35a11.7,11.7,0,0,1,2.82-15.48L752.8,741a9.91,9.91,0,0,1,14.38,3Z" style="fill: #ffb181;stroke: #000;stroke-width: 5px"/>
            <g>
                <path d="M792.09,784c-4.51,8.38-10.51,20.75-16.57,34.93-16.46-1.52-31-3.28-38.79-3.61l2.46,3.94a231.88,231.88,0,0,0,33.71,5.93c-4.75,11.62-8.46,22.32-10.95,30.55l2.82,4.52c3.68-8.48,8.71-20.83,14.54-34.61,12.05,0.31,22.44-.28,30,0.81a95.86,95.86,0,0,1,10.5,2l-2.39-3.82a40.38,40.38,0,0,0-7.35-2.72c-7.34-2.11-17.38-2.36-28.07-2.69,5.05-11.94,9.55-22.74,12.75-30.94Z"/>
                <path d="M785.84,894l2.46,3.94A232,232,0,0,0,822,903.87c-4.75,11.62-8.46,22.32-10.95,30.55l2.82,4.52c3.68-8.48,8.72-20.83,14.54-34.61,12.05,0.31,22.44-.28,30,0.81a95.47,95.47,0,0,1,10.5,2l-2.38-3.82a40.54,40.54,0,0,0-7.35-2.72c-7.34-2.11-17.38-2.36-28.07-2.69,5.05-11.94,9.55-22.74,12.75-30.94l-2.68-4.3c-4.51,8.38-10.51,20.75-16.58,34.93C808.16,896.09,793.63,894.33,785.84,894Z"/>
            </g>
            <polygon points="773.92 754.83 722.31 792.16 730.33 805.02 781.94 767.7 773.92 754.83" style="fill: #c7283d;stroke: #000;stroke-width: 5px"/>
            <polygon points="882.41 928.75 830.8 966.07 840.75 982.02 892.36 944.7 882.41 928.75" style="fill: #c7283d;stroke: #000;stroke-width: 5px"/>
        </g>
        <g>
            <path d="M738.08,1111.31c5.5,1.71,8.66,7.9,7.07,13.82L733.62,1168c-1.59,5.92-7.34,9.33-12.83,7.62l-227.27-70.83c-5.5-1.71-8.66-7.9-7.07-13.82L498,1048.09c1.59-5.92,7.34-9.33,12.83-7.62Z" style="fill: #ffb181;stroke: #000;stroke-width: 5px"/>
            <g>
                <path d="M553.72,1053.85c1.54,9.54,4.32,23.17,8.13,38.23-13.52,10.22-25.71,18.92-31.88,24.06l4.23,1.32a244.94,244.94,0,0,0,29.37-18.77c3.3,12.19,6.83,23,9.84,31l4.86,1.51c-2.24-9-5.75-22-9.51-36.58,9.42-8.1,17-15.73,23.49-20.15a100.64,100.64,0,0,1,9.25-5.72l-4.11-1.28a40.44,40.44,0,0,0-7.26,3c-6.89,3.46-14.73,10.21-23.12,17.35-3.25-12.64-6.25-24-8.69-32.53Z"/>
                <path d="M614.58,1142.51l4.23,1.32a244.6,244.6,0,0,0,29.37-18.76c3.3,12.19,6.83,23,9.84,31l4.86,1.51c-2.24-9-5.75-22-9.51-36.58,9.42-8.1,17-15.73,23.49-20.15a100.28,100.28,0,0,1,9.25-5.72l-4.11-1.28a40.58,40.58,0,0,0-7.26,3c-6.89,3.46-14.73,10.21-23.12,17.35-3.25-12.64-6.25-24-8.69-32.52l-4.62-1.44c1.54,9.54,4.32,23.17,8.13,38.23C632.94,1128.67,620.75,1137.37,614.58,1142.51Z"/>
            </g>
            <polygon points="522.42 1044.1 505.13 1108.4 518.96 1112.71 536.24 1048.4 522.42 1044.1" style="fill: #c7283d;stroke: #000;stroke-width: 5px"/>
            <polygon points="709.32 1102.35 692.03 1166.65 709.18 1171.99 726.46 1107.69 709.32 1102.35" style="fill: #c7283d;stroke: #000;stroke-width: 5px"/>
        </g>
        <g>
            <path d="M725,1185.72c5.65,1,9.52,6.66,8.64,12.74l-6.39,44.09c-0.88,6.09-6.18,10.25-11.84,9.3l-233.77-39.29c-5.65-1-9.52-6.66-8.64-12.74l6.39-44.09c0.88-6.09,6.18-10.25,11.84-9.3Z" style="fill: #ffb181;stroke: #000;stroke-width: 5px"/>
            <g>
                <path d="M535.38,1153.85c2.65,9.25,7,22.39,12.56,36.82-12.21,12-23.29,22.27-28.8,28.21l4.35,0.73A251.48,251.48,0,0,0,550.43,1197c4.7,11.64,9.48,21.84,13.4,29.39l5,0.84c-3.29-8.67-8.29-21-13.73-35,8.39-9.32,15-17.92,20.93-23.18a103.09,103.09,0,0,1,8.5-6.93l-4.23-.71a41.52,41.52,0,0,0-6.85,4c-6.42,4.37-13.41,12.14-20.89,20.36-4.71-12.1-9-23-12.44-31.08Z"/>
                <path d="M606.17,1233.5l4.35,0.73a251,251,0,0,0,26.93-22.61c4.7,11.64,9.48,21.84,13.4,29.39l5,0.84c-3.29-8.67-8.29-21-13.73-35,8.39-9.32,15-17.92,20.93-23.18a103.22,103.22,0,0,1,8.5-6.93l-4.23-.71a41.47,41.47,0,0,0-6.84,4c-6.42,4.37-13.41,12.14-20.89,20.36-4.71-12.1-9-23-12.44-31.08l-4.75-.8c2.65,9.25,7,22.39,12.56,36.82C622.76,1217.27,611.68,1227.56,606.17,1233.5Z"/>
            </g>
            <polygon points="503.18 1148.43 493.59 1214.57 507.81 1216.96 517.4 1150.82 503.18 1148.43" style="fill: #c7283d;stroke: #000;stroke-width: 5px"/>
            <polygon points="695.43 1180.75 685.84 1246.89 703.47 1249.85 713.06 1183.71 695.43 1180.75" style="fill: #c7283d;stroke: #000;stroke-width: 5px"/>
        </g>
        <g>
            <path d="M716.54,1361.09c5.72,0.28,10.14,5.5,9.88,11.66l-1.9,44.58c-0.26,6.16-5.11,10.92-10.83,10.64l-236.35-11.67c-5.72-.28-10.14-5.5-9.88-11.66l1.9-44.58c0.26-6.15,5.11-10.92,10.83-10.63Z" style="fill: #ffb181;stroke: #000;stroke-width: 5px"/>
            <g>
                <path d="M524.82,1351.62c3.57,8.89,9.23,21.44,16.21,35.13-10.93,13.34-20.9,24.87-25.78,31.41l4.4,0.22a257.43,257.43,0,0,0,24.49-25.64c5.85,11,11.63,20.6,16.29,27.65l5.05,0.25c-4.14-8.23-10.37-19.94-17.19-33.18,7.4-10.25,13.14-19.58,18.46-25.5a105.49,105.49,0,0,1,7.75-7.89l-4.27-.21a42.44,42.44,0,0,0-6.4,4.74c-5.94,5.1-12.1,13.64-18.71,22.69-5.91-11.48-11.3-21.79-15.51-29.44Z"/>
                <path d="M603.24,1422.51l4.4,0.22a257.52,257.52,0,0,0,24.48-25.64c5.85,11,11.63,20.6,16.29,27.65l5.05,0.25c-4.14-8.23-10.36-19.94-17.19-33.18,7.4-10.25,13.14-19.58,18.46-25.5a105.3,105.3,0,0,1,7.75-7.89l-4.27-.21a42.52,42.52,0,0,0-6.4,4.74c-5.94,5.1-12.1,13.64-18.71,22.69-5.9-11.48-11.3-21.79-15.51-29.44l-4.8-.24c3.57,8.89,9.23,21.44,16.21,35.13C618.09,1404.43,608.12,1416,603.24,1422.51Z"/>
            </g>
            <polygon points="492.27 1350.02 489.42 1416.89 503.8 1417.6 506.64 1350.73 492.27 1350.02" style="fill: #c7283d;stroke: #000;stroke-width: 5px"/>
            <polygon points="686.64 1359.61 683.79 1426.48 701.62 1427.37 704.47 1360.49 686.64 1359.61" style="fill: #c7283d;stroke: #000;stroke-width: 5px"/>
        </g>
        <g>
            <path d="M719,1265.37c5.7,0.6,9.86,6.06,9.3,12.19l-4,44.41c-0.56,6.13-5.63,10.62-11.32,10l-235.47-24.84c-5.69-.6-9.86-6.06-9.3-12.19l4-44.41c0.56-6.13,5.63-10.62,11.32-10Z" style="fill: #ffb181;stroke: #000;stroke-width: 5px"/>
            <g>
                <path d="M528,1245.22c3.14,9.07,8.19,21.92,14.5,36-11.56,12.71-22.06,23.67-27.25,29.93l4.39,0.46a254.23,254.23,0,0,0,25.69-24.24c5.31,11.34,10.62,21.22,14.94,28.52l5,0.53c-3.74-8.45-9.39-20.49-15.57-34.09,7.88-9.82,14.07-18.82,19.67-24.43a104.4,104.4,0,0,1,8.12-7.45l-4.26-.45a41.94,41.94,0,0,0-6.62,4.38c-6.18,4.76-12.74,12.94-19.78,21.62-5.35-11.79-10.23-22.39-14.07-30.26Z"/>
                <path d="M602.91,1320.38l4.39,0.46A254.53,254.53,0,0,0,633,1296.61c5.31,11.34,10.62,21.22,14.94,28.52l5,0.53c-3.74-8.45-9.39-20.49-15.57-34.09,7.88-9.82,14.07-18.82,19.67-24.43a104.39,104.39,0,0,1,8.12-7.44l-4.26-.45a42.05,42.05,0,0,0-6.62,4.38c-6.18,4.76-12.74,12.94-19.78,21.61-5.34-11.79-10.23-22.4-14.07-30.26l-4.78-.51c3.14,9.08,8.19,21.93,14.5,36C618.61,1303.17,608.1,1314.12,602.91,1320.38Z"/>
            </g>
            <polygon points="495.58 1241.8 489.51 1308.42 503.84 1309.93 509.9 1243.31 495.58 1241.8" style="fill: #c7283d;stroke: #000;stroke-width: 5px"/>
            <polygon points="689.23 1262.23 683.16 1328.85 700.92 1330.73 706.99 1264.1 689.23 1262.23" style="fill: #f00;stroke: #000;stroke-width: 5px"/>
        </g>
    </g>
</svg>
