<svg xmlns="http://www.w3.org/2000/svg" viewBox="0 0 2500 2500">
    <title>PepeFrogIndianHat</title>
    <g>
        <path d="M703.78,1189.81s-150-75-177-39,3,72,51,72S703.78,1189.81,703.78,1189.81Z" style="fill: #fff;stroke: #000;stroke-width: 8px"/>
        <path d="M707,1247.54s-167.7-2.71-176.46,41.44,33.86,63.62,77.14,42.85S707,1247.54,707,1247.54Z" style="fill: #fff;stroke: #000;stroke-width: 8px"/>
        <path d="M713.67,1324.43s-160.58,48.42-155.5,93.14,51.61,50.31,86.52,17.35S713.67,1324.43,713.67,1324.43Z" style="fill: #fff;stroke: #000;stroke-width: 8px"/>
        <g>
            <g>
                <path d="M764.37,1603.6S739,1736,782.79,1825s74.31,85.47,74.31,85.47,33.54-116.8,17.39-200.27S811.21,1547,811.21,1547l-34.69,2.13Z" style="fill: #ff6819;stroke: #000;stroke-width: 8px"/>
                <path d="M869,1858.25c-5.75,30.89-11.86,52.18-11.86,52.18s-25.18,2.85-62.68-63.4c7-8.87,14.64-17.19,22.43-25.34C833.64,1834.92,851.28,1846.68,869,1858.25Z" style="fill: #ffed31;stroke: #000;stroke-width: 8px"/>
                <path d="M816.85,1821.69c-7.79,8.15-15.4,16.46-22.43,25.34-3.76-6.64-7.64-14-11.63-22.07-9.86-20-16.21-42.2-20.14-64.6,14.34-19.8,29.52-39,44.3-58.55a752.3,752.3,0,0,0,71.93,60.85c-0.12,34-4.88,68.49-9.92,95.58C851.28,1846.68,833.64,1834.92,816.85,1821.69Z" style="fill: #fff;stroke: #000;stroke-width: 8px"/>
                <path d="M850.14,1906.6c1.35-.78-8.15-18.91-16.65-50.74-8.77-31.7-17-76.62-23.2-126.67C798,1629,795.18,1546.91,792,1547c-2.84,0-4.9,82.53,7.47,183.56,6.25,50.45,15.8,95.82,26.65,127.57C836.71,1890.06,848.94,1907.45,850.14,1906.6Z"/>
            </g>
            <g>
                <path d="M770.72,1383.08a7.15,7.15,0,0,1,7-7.25l28.59-.42a7.15,7.15,0,0,1,7.25,7L816,1545.65a7.15,7.15,0,0,1-7,7.25l-28.59.42a7.15,7.15,0,0,1-7.25-7Z" style="fill: #ffb181;stroke: #000;stroke-width: 5px"/>
                <g>
                    <path d="M772.67,1515.46c5.53-2.8,13.33-7.19,21.79-12.53,9,7,16.78,13.42,21.17,16.53l0-3a171.24,171.24,0,0,0-17.42-15.87c6.81-4.46,12.69-8.81,17-12.29l-0.05-3.49c-5.09,3.17-12.32,7.91-20.5,13.12-6.86-4.7-13.07-8.29-17.08-11.73a70.13,70.13,0,0,1-5.37-5l0,3a29.18,29.18,0,0,0,3.3,4.23c3.51,3.89,9.23,7.8,15.29,12-7.09,4.51-13.47,8.62-18.18,11.82Z"/>
                    <path d="M814.73,1458.71l0-3a170.94,170.94,0,0,0-17.42-15.87c6.81-4.46,12.69-8.81,17-12.29l-0.05-3.49c-5.09,3.17-12.32,7.91-20.5,13.12-6.86-4.7-13.07-8.29-17.08-11.72a69.93,69.93,0,0,1-5.37-5l0,3a29.28,29.28,0,0,0,3.3,4.22c3.51,3.9,9.23,7.8,15.29,12-7.09,4.51-13.47,8.62-18.18,11.82l0,3.32c5.54-2.8,13.33-7.19,21.79-12.52C802.55,1449.19,810.34,1455.6,814.73,1458.71Z"/>
                </g>
                <rect x="772.93" y="1527.7" width="42.89" height="9.93" transform="translate(-22.53 11.89) rotate(-0.85)" style="fill: #fff;stroke: #000;stroke-width: 5px"/>
                <rect x="770.93" y="1391.1" width="42.89" height="12.31" transform="translate(-20.53 11.84) rotate(-0.85)" style="fill: #c7283d;stroke: #000;stroke-width: 5px"/>
            </g>
        </g>
        <g>
            <g>
                <path d="M684.62,1586.58s-39,129.08-4.6,222.07,65.06,92.71,65.06,92.71,45.46-112.7,38-197.39-46-168.83-46-168.83l-34.72-1.48Z" style="fill: #ff6819;stroke: #000;stroke-width: 8px"/>
                <path d="M762.27,1850.69c-8.92,30.13-17.2,50.67-17.2,50.67s-25.34.22-55.77-69.55c7.91-8.1,16.34-15.58,24.93-22.88C729.56,1823.83,745.89,1837.35,762.27,1850.69Z" style="fill: #ffed31;stroke: #000;stroke-width: 8px"/>
                <path d="M714.23,1808.93c-8.59,7.3-17,14.78-24.93,22.88-3.05-7-6.15-14.68-9.29-23.15-7.73-20.91-11.75-43.65-13.34-66.33,16.31-18.21,33.4-35.69,50.13-53.64a752.37,752.37,0,0,0,65.24,68c-3.64,33.8-11.95,67.61-19.77,94C745.89,1837.35,729.56,1823.83,714.23,1808.93Z" style="fill: #fff;stroke: #000;stroke-width: 8px"/>
                <path d="M738.54,1896.83c1.42-.64-6.15-19.65-11.3-52.19-5.44-32.44-9-78-10-128.39-1.83-100.92,3.85-182.87.68-183.12-2.83-.32-13.42,81.58-11.58,183.35,1,50.83,5.79,96.94,13.29,129.64C726.9,1879,737.27,1897.55,738.54,1896.83Z"/>
            </g>
            <g>
                <path d="M713.77,1367.9a7.15,7.15,0,0,1,7.75-6.48L750,1364a7.15,7.15,0,0,1,6.48,7.76L742,1534.29a7.15,7.15,0,0,1-7.76,6.48l-28.48-2.54a7.15,7.15,0,0,1-6.48-7.75Z" style="fill: #ffb181;stroke: #000;stroke-width: 5px"/>
                <g>
                    <path d="M702,1499.77c5.79-2.22,14-5.77,23-10.2,8.21,7.9,15.3,15.09,19.34,18.63l0.27-3a171.18,171.18,0,0,0-15.68-17.59c7.23-3.73,13.53-7.45,18.18-10.46l0.31-3.48c-5.39,2.63-13.07,6.59-21.75,10.93-6.34-5.38-12.14-9.6-15.77-13.43a70.47,70.47,0,0,1-4.82-5.56l-0.26,2.94a29.35,29.35,0,0,0,2.84,4.55c3.09,4.24,8.37,8.72,14,13.52-7.52,3.75-14.29,7.18-19.31,9.88Z"/>
                    <path d="M749.71,1447.69l0.27-3a171,171,0,0,0-15.68-17.58c7.23-3.73,13.53-7.44,18.18-10.46l0.31-3.48c-5.39,2.63-13.07,6.59-21.75,10.93-6.34-5.38-12.14-9.6-15.77-13.43a70,70,0,0,1-4.82-5.56l-0.26,2.94a29.33,29.33,0,0,0,2.85,4.54c3.09,4.24,8.37,8.72,14,13.52-7.52,3.75-14.29,7.18-19.31,9.88l-0.3,3.3c5.8-2.22,14-5.77,23-10.2C738.59,1437,745.67,1444.14,749.71,1447.69Z"/>
                </g>
                <rect x="716.84" y="1497.68" width="9.93" height="42.89" transform="translate(-855.47 2103.04) rotate(-84.9)" style="fill: #c7283d;stroke: #000;stroke-width: 5px"/>
                <rect x="727.69" y="1362.8" width="12.31" height="42.89" transform="translate(-710.15 1992.14) rotate(-84.9)" style="fill: #c7283d;stroke: #000;stroke-width: 5px"/>
            </g>
        </g>
        <g>
            <path d="M706.78,1195.82s-39-75,141-258,636.06-246,822.08-192,204,123,204,171-276,21-456,72S706.78,1195.82,706.78,1195.82Z" style="fill: #101010;stroke: #000;stroke-width: 8px"/>
            <g>
                <path d="M1925.45,1114.11c-14.67-75.86-37.58-182.92-54.56-209.33-27-42-393-135-774.08,0-280.9,99.53-393,276-393,276l3.57,126.79A780.66,780.66,0,0,0,956,1235C1103.52,1163.13,1515.75,987.53,1925.45,1114.11Z" style="fill: #1ea45b;stroke: #000;stroke-width: 8px"/>
                <path d="M956,1235a780.66,780.66,0,0,1-248.65,72.6l2.43,86.23s75,6,189-45,162-117,411-159,546.06-33,630.06,3c0,0-5.79-33.91-14.45-78.7C1515.75,987.53,1103.52,1163.13,956,1235Z" style="fill: #101010;stroke: #000;stroke-width: 8px"/>
            </g>
            <g>
                <polygon points="1504.86 853.78 1252.84 976.79 1549.87 1051.8 1756.89 958.79 1504.86 853.78" style="fill: #ffbd35;stroke: #000;stroke-linecap: round;stroke-linejoin: round;stroke-width: 8px"/>
                <polygon points="1504.86 905.64 1384.85 964.22 1526.29 999.94 1624.87 955.65 1504.86 905.64" style="fill: #fff;stroke: #000;stroke-width: 8px"/>
            </g>
            <g>
                <polygon points="955.91 1010.42 784.91 1159.76 1032.88 1155.68 1175.04 1039.29 955.91 1010.42" style="fill: #ffbd35;stroke: #000;stroke-linecap: round;stroke-linejoin: round;stroke-width: 8px"/>
                <polygon points="966.86 1050.96 885.43 1122.07 1003.51 1120.13 1071.2 1064.7 966.86 1050.96" style="fill: #fff;stroke: #000;stroke-width: 8px"/>
            </g>
            <path d="M1913.86,1056.61c-7.16-34-15.11-68.71-22.92-96.93L1830,961Z" style="fill: #ffbd35;stroke: #000;stroke-linecap: round;stroke-linejoin: round;stroke-width: 8px"/>
        </g>
    </g>
</svg>
