<?xml version="1.0" encoding="iso-8859-1"?>
<svg version="1.1" xmlns="http://www.w3.org/2000/svg" xmlns:xlink="http://www.w3.org/1999/xlink" x="0px" y="0px"
	 viewBox="0 0 2500 2500" style="enable-background:new 0 0 2500 2500;" xml:space="preserve">
          <g>
        <path d="M676.92,1023L664.35,1092s19.46,186.19,60.86,258.54,132.21-22.9,132.21-22.9,98.32-135,185.68-176.29Z" style="fill: #90d460;stroke: #000;stroke-linecap: round;stroke-linejoin: round;stroke-width: 9px"/>
        <path d="M1051.75,1050.17s14.2,96.13-6.85,102-102-3.85-102-3.85S694.37,1089.2,664.35,1092c0,0-44-126.38-34.21-216.31s75.65-77.38,75.65-77.38,30.38-44.75,54.38-44.55,56.9,12.48,56.9,12.48,24.2-23.8,42.2-23.65,83.93,9.7,83.93,9.7,39.28-32.68,72.25-29.4,77.93,9.65,77.93,9.65,45.28-32.63,84.18-20.3,57,3.47,72,3.6,92.86,18.77,104.88,15.87,96.31-35.21,135.21-22.88,74.76,30.63,74.76,30.63,45.23-26.63,57.15-17.53,53.8,24.45,53.8,24.45,138,7.15,152.69,40.28S1871.47,976,1868,1036s-27.43,50.78-27.43,50.78-41.5-60.35-65.41-72.55-50.83-21.43-50.83-21.43-216.66,76.21-258.67,75.86S1219.93,1030.57,1051.75,1050.17Z" style="stroke: #000;stroke-linecap: round;stroke-linejoin: round;stroke-width: 9px"/>
        <g>
          <circle cx="795.94" cy="1168.25" r="9" transform="translate(-378.89 1954.43) rotate(-89.52)"/>
          <circle cx="734.55" cy="1214.74" r="10" transform="translate(-486.24 1939.18) rotate(-89.52)"/>
          <circle cx="810.2" cy="1257.37" r="12" transform="translate(-453.88 2057.06) rotate(-89.52)"/>
          <circle cx="722.09" cy="1149.63" r="9" transform="translate(-433.49 1862.16) rotate(-89.52)"/>
          <circle cx="876.9" cy="1173.92" r="14" transform="matrix(0.01, -1, 1, 0.01, -304.28, 2041.02)"/>
          <circle cx="853.66" cy="1202.73" r="5" transform="translate(-356.11 2046.37) rotate(-89.52)"/>
          <circle cx="923.92" cy="1171.31" r="5" transform="translate(-255.02 2085.48) rotate(-89.52)"/>
          <circle cx="884.4" cy="1233.98" r="4" transform="translate(-356.94 2108.03) rotate(-89.52)"/>
          <circle cx="751" cy="1281.88" r="5" transform="translate(-537.07 2022.21) rotate(-89.52)"/>
          <circle cx="783.54" cy="1216.15" r="5" transform="translate(-439.06 1989.57) rotate(-89.52)"/>
          <circle cx="758.21" cy="1135.93" r="5" transform="translate(-383.98 1884.69) rotate(-89.52)"/>
          <circle cx="706.87" cy="1176.51" r="4" transform="translate(-475.46 1873.59) rotate(-89.52)"/>
          <circle cx="687.34" cy="1120.34" r="6" transform="translate(-438.67 1798.36) rotate(-89.52)"/>
          <circle cx="756.89" cy="1174.92" r="4" transform="translate(-424.28 1922.03) rotate(-89.52)"/>
          <circle cx="829.08" cy="1151.52" r="6" transform="translate(-329.28 1971.02) rotate(-89.52)"/>
          <circle cx="861.21" cy="1256.79" r="5" transform="translate(-402.69 2107.54) rotate(-89.52)"/>
          <circle cx="813.87" cy="1297.4" r="6" transform="translate(-490.24 2100.47) rotate(-89.52)"/>
        </g>
        <g>
          <path d="M1471.88,1058.86c-1.32-.22,3.51-20.54,3.55-53.7,0.25-33-7.89-79.22-33.54-122.91-25.42-43.69-58.77-76.2-83.17-98.63-24.67-22.37-41-35.16-40.27-36,0.49-.65,17.83,10.74,43.54,32.33,25.39,21.63,59.87,54,86,98.85,26.35,44.83,34,92.95,32.42,126.47C1479,1039,1472.43,1059.05,1471.88,1058.86Z" style="fill: #323232"/>
          <path d="M1466.49,744.81c0.78-.43,10.55,14.46,24.79,39.58,13.91,25.09,32.8,61.27,40.93,105.29,4.15,22.27,4.39,43.06,3.06,62.58a116.08,116.08,0,0,1-5.69,27.08c-3.13,8.43-7.48,15.22-11.59,21.24-8.42,11.88-15.66,20.83-19.75,27.66s-5.64,11-6.19,10.78c-0.38-.08.23-4.69,3.8-12.09s10.3-17.13,18-29.08c17.81-22.78,18.21-64.6,11.48-106.91-7.88-42.78-25.66-78.65-38.41-104.24C1473.86,761.13,1465.57,745.31,1466.49,744.81Z" style="fill: #323232"/>
          <path d="M1562.35,761.61c1-.13,3.86,15.32,10.72,39.8,6.3,24.43,18.18,58.54,18.06,98.44-0.69,39.31-10.73,75.51-27.7,95.9-16.52,19.64-22.45,33.86-23.3,33.69-1.15-.17,3.75-16.2,19.29-36.59,15.12-20,24-54.82,24.71-93,0.18-38.35-10.71-72.27-15.86-97.21C1562.59,777.62,1561.46,761.7,1562.35,761.61Z" style="fill: #323232"/>
          <path d="M1646.4,756.3c0.87-.16,4.77,14.5,8.69,38.73,3.74,24.15,7.67,58.37,2.7,96s-20.06,69.65-34.59,89.54c-14.48,20.12-26.43,29.85-26.91,29.33-0.89-.82,9.72-11.74,22.8-32.09,13.16-20.19,27-51.13,31.76-87.73s1.8-70.25-.67-94.4C1647.54,771.48,1645.36,756.49,1646.4,756.3Z" style="fill: #323232"/>
          <path d="M1732.14,787c0.87-.13,3.91,12.46,6.39,33.27,2.32,20.72,4.26,50.14-2.28,82-6.35,31.94-22.75,58-38.14,72.52-15.3,14.81-27.39,20.34-27.7,19.73-0.72-1,10.3-8,24.13-23.16,13.94-14.92,28.71-39.81,34.86-70.55,6.31-30.64,5.25-59.48,4.2-80.1S1731.1,787.16,1732.14,787Z" style="fill: #323232"/>
          <path d="M1790.19,781.5c0.92,0,1.86,11.93,1.92,31.28s-0.87,46.28-7.29,75.46-18.79,54.12-31.23,69.29c-12.28,15.39-22.61,22.07-23,21.48-0.81-.87,8.23-8.82,19.06-24.42,11-15.44,22.21-39.48,28.38-67.88s7.86-54.93,9.17-74.09S1789.18,781.49,1790.19,781.5Z" style="fill: #323232"/>
          <path d="M1825.36,881.8c1.5-.45,5.08,32.58-11.71,68.76-8.35,17.86-20.43,31.7-30.83,39.33s-18.14,10.09-18.43,9.4c-1.19-1.58,27.53-16.66,42.93-51.71C1823.28,913.38,1823,881.56,1825.36,881.8Z" style="fill: #323232"/>
          <path d="M1050.42,991.36c-1.25.61-8.89-19.59-29.78-46.67C1000,917.57,964.9,884.94,919.4,859.37a427.61,427.61,0,0,0-124.49-46.68c-33.58-6.76-55-6.65-54.95-7.92-0.07-.66,21.54-2.54,55.84,3.05,34.14,5.55,80.88,19.16,127,45.46,46.31,26,81.76,60,101.76,88.45C1044.9,970.15,1051,991.28,1050.42,991.36Z" style="fill: #323232"/>
          <path d="M1402.23,1016.28c-1.3.22,0.85-22.49-14.86-53.69-15.06-31.23-46.86-68.32-87.58-102.41-39.27-36.37-80-62.2-110.18-79.9s-49.67-27.18-49.19-28.18c0.34-.74,20.59,7.27,51.61,23.87,30.82,16.6,72.91,42.39,112.27,78.87,41.22,34.49,73.18,72.9,87.55,105.65C1406.89,993.31,1402.83,1016.77,1402.23,1016.28Z" style="fill: #323232"/>
          <path d="M1350.71,957.85c-1.12.84-12.78-16.88-37.1-40.37-23.95-23.77-61.75-51.82-108.24-74.28-23.17-11.43-45.95-20.45-66.94-28.81-20.83-8.65-39.31-16.69-55.24-22.31-31.82-11.75-53.08-11.79-53-12.89-0.2-.84,21.78-2.55,54.58,8.2,16.36,5.1,35.24,12.76,56.07,21,20.91,7.94,44.23,17,67.62,28.51,47.09,22.73,85.29,52.05,108.67,77.08C1340.92,938.78,1351.18,957.61,1350.71,957.85Z" style="fill: #323232"/>
          <path d="M1278.18,1021.25c-1.14.51-7.12-23.65-31.43-54.08-23.94-30.21-65-66.72-118-92.76-26.34-12.7-54.33-19.24-79.11-25.87-25-6.31-47.7-11.77-66.53-17.28-37.82-10.75-59.49-22.32-59.12-23,0.48-1.1,22.59,8.75,60.43,18.19,18.87,4.87,41.57,9.8,66.77,15.8,25.09,6.38,53.05,12.6,80.6,25.83,54.29,26.64,95.46,64.39,118.93,96.05C1274.53,996.1,1278.92,1021.36,1278.18,1021.25Z" style="fill: #323232"/>
          <path d="M968.47,984.68c-0.59.84-14.66-8.32-37.49-22.81s-54.62-34.18-92-51.27c-37.26-17.26-73.5-26.71-100.21-28.61-26.75-2.14-43.3,1.71-43.5.41-0.25-.57,16.2-6.25,43.78-5.35,27.49,0.65,65,9.64,102.83,27.18,37.93,17.37,69.51,38.06,91.8,53.52C956,973.36,969,983.94,968.47,984.68Z" style="fill: #323232"/>
          <path d="M1014,1045.06c-0.81,1.87-57.61-22.09-131.6-39.17-18.39-4.76-36.07-8.07-52.18-12.24S800,985.35,788,982.44c-24-6-39.4-6.54-39.4-7.6-0.08-.88,15.74-2.13,40.45,2.76,12.33,2.32,26.79,6,42.74,9.78s33.85,6.93,52.29,11.7C958.57,1016.29,1014.87,1043.44,1014,1045.06Z" style="fill: #323232"/>
        </g>
      </g>

</svg>