<?xml version="1.0" encoding="iso-8859-1"?>
<svg version="1.1" xmlns="http://www.w3.org/2000/svg" xmlns:xlink="http://www.w3.org/1999/xlink" x="0px" y="0px"
	 viewBox="0 0 2500 2500" style="enable-background:new 0 0 2500 2500;" xml:space="preserve">
    <g>
      <path d="M842.52,1359.63L855,1470c27.07-1.64,53.46,3.19,71.93,26.69a85.12,85.12,0,0,1,9.48,16.78l51.29-4.53c3.16-50.55-5-106.44-15.55-154.13C928.92,1357.8,885.72,1359.86,842.52,1359.63Z" style="fill: #c9c9c9;stroke: #000;stroke-linecap: round;stroke-linejoin: round;stroke-width: 8px"/>
      <path d="M830.72,1254.88l11.8,104.75c43.2,0.23,86.4-1.83,129.6-4.77a940.16,940.16,0,0,0-33-114.92C916.66,1239.94,830.72,1254.88,830.72,1254.88Z" style="fill: #8a8a8a;stroke: #000;stroke-linecap: round;stroke-linejoin: round;stroke-width: 8px"/>
      <path d="M770.06,1237.74c-4.69-65.6,37.49-138.23,65.6-32.8s56.23,299.89,42.17,335-58.57,18.74-65.6-14.06S770.06,1237.74,770.06,1237.74Z" style="fill: #2f2f2f;stroke: #000;stroke-linecap: round;stroke-linejoin: round;stroke-width: 8px"/>
      <path d="M790.9,1283.82s-218,7.59-254.24,7.59-66.89,38-58.53,124,44.59,113.9,75.25,103.78,64.1-53.15,83.61-55.68,176.2-10.12,184.56-15.19S824.35,1304.07,790.9,1283.82Z" style="fill: #2f2f2f;stroke: #000;stroke-linecap: round;stroke-linejoin: round;stroke-width: 8px"/>
      <g>
        <path d="M586,1302.15c-1.09-4.2-2.19-8.09-3.27-11.68l-4.35.12c0.91,3.88,1.85,8.11,2.81,12.69,5.34,24.86,9.83,59.75,11.35,98.58,1.39,34.75,1.11,66.67,1.29,91.34q2.77-2.31,5.49-4.61c0.8-24,1.53-54.16.21-87C598,1362.4,592.64,1327,586,1302.15Z"/>
        <path d="M668.81,1287.89l-5.24.17a625.06,625.06,0,0,1,9.92,87.15c1.27,32.71,1,62.66.48,85.52l5.29-.34a820.24,820.24,0,0,0,1.22-85.51A473,473,0,0,0,668.81,1287.89Z"/>
        <path d="M769.51,1377.73c-0.51-35.1-6.82-66.82-15.26-88.35q-0.85-2.2-1.71-4.25l-4.9.17q1,2.74,1.94,5.73c7,21.39,12.42,52.32,12.93,86.84a686.31,686.31,0,0,1-3.68,77.26l5.62-.41A506.27,506.27,0,0,0,769.51,1377.73Z"/>
      </g>
      <path d="M978,1555c-0.58-.51,3.66-18.79,2-50.14-1.08-31.12-5.73-74.17-12.44-121.56s-14.82-89.8-24.52-119.15c-4.81-14.66-10-26-14.61-33-4.54-7.22-8.52-9.34-8.39-10.14,0.08-1.23,6.27-.22,12.63,6.72,6.54,6.67,13.42,18.13,19.64,33,12.54,29.71,22.44,72.83,29.12,120.68s9.93,91.63,8.48,123.56C989.17,1536.84,980.84,1556.63,978,1555Z"/>
    </g>
</svg>
