<svg xmlns="http://www.w3.org/2000/svg" viewBox="0 0 2500 2500">
   <title>PepeFrogMcaffee</title>
   <g>
   <path d="M1964.48,1093.6c-21.08-39.21-34.76-66.44-41.52-110.39-6.57-42.66-6-91.12-49.37-108.19,23.81-3.06,46.34,2.26,65.3,15.37-24.07-63.92-57.4-93.84-113.37-130.58,21.76-1.33,45.83-4.27,64.36,6.61-97.9-121-276.53-216.47-427.42-108.71-1.23-22.58,2.79-50,19.58-65.87-37-2.62-110.19,28.86-101.63,73.76-14.55-36.46-72.09-68.44-110.11-53.79,25.92,18.68,48.63,44.53,67.42,70.71-33.41-15.54-67.63-15.15-100.62-27.3-45.05-16.6-71.37-32.27-122.27-32.21-59.2.07-96.39,11.52-151.15,33.1-46.35,18.26-122.91,31.73-154.62,70.11,24.43-.86,53.72,1.33,72.75,11.7-103.29,49-243.69,225.2-227.69,340.48,16.22-2.43,32.25-11.29,47.86-14.87-40.8,111.56-71.24,201-73.17,322.09,18.75-17,39.88-31.74,60.91-45.2-6.77,42.63-24.84,106-6.95,150.1,13.34-5.49,26.15-13.52,39.53-19.08-2.25,36.73,14.35,115.13,27.14,147.59,16.36-4.41,27.15-15.4,32.66-40,3.44-66.52,25.57-113.55,67.46-168.11,34-44.28,56.71-82.22,66.13-135.57,4.56,25.69,10,59.67,23.78,86.47,2.71-111.3,60.94-282.81,203.52-294-19.7,42.26-26.74,106.44-10.93,150.87,27.43-33.39,27-85,64.52-115.79,25.37-20.78,65.37-39.51,97.87-44,40.93-5.64,84,3,122.46,11.2,37.32,7.93,47.11,33.83,82.93,44.7,0,0,42.24-70.47,129.69-80.14S1757.78,1089,1821.32,1115c27.32,11.16,62.45,30.16,93.69,28,61.16-4.23,12.65-41.63-6.72-74.51C1928.09,1072.56,1948.93,1079.68,1964.48,1093.6Z" style="fill: #ae9f8d;stroke: #000;stroke-width: 7px"/>
   <path d="M1413.58,987.6l18-1.5c-20-12.25-34.43-27.55-56.88-35.62-21.35-7.67-49.69-9.14-71.74-3.74-46,11.25-95.84,36.63-105.17,87,28.51-41.95,88.07-52,135.2-52.16,35.75-.13,68.22,28.45,91.2,53.5-0.62-15.75-17.12-31-27.82-41.65,12.19,1.82,21.81,7.51,32.44,13.12C1425.34,999.2,1420.29,992.14,1413.58,987.6Z" style="fill: #f5e392"/>
   <path d="M1313.56,825.39C1270.4,810.83,1230.87,808.51,1185,809c-78.17.83-113.78,84.9-125.66,149.4,13.33-52.05,95.74-73.4,139.7-73.4,65.37,0,109.42,21.13,165.35,48.85-18.42-23.75-36.23-36.46-63.08-49,13-.77,27.62.61,39.23,6-15.79-14.47-26-24-45.08-34,12.76,0.18,26.94-1.68,39.58,0,14.09,1.92,27.64,11.39,42,12l26,10C1405.11,852.53,1332.29,831.71,1313.56,825.39Z" style="fill: #f5e392"/>
   <path d="M1101.4,994.94c-0.62-7.85-.25-16-0.64-23.82-2.89,3.08-9.08,7.77-11.41,11.73-0.41-4.31-1-9.44-.35-13.84l-4-24c-3.19,24-13.55,52.35-21.61,75.59-6.76,19.51-15.2,46.47-40.18,50.51,36.47-.69,61.69-11.31,79.73-43.79,10.25-18.44,20.65-41.78,24.19-61.71C1119.48,975.77,1110.88,987.07,1101.4,994.94Z" style="fill: #f5e392"/>
   <path d="M1051.51,919.35c-16.24-1-33.7-1.37-49.85.45-2.74-13.44,15.58-21,23.17-28.45-4.49,1-10.88-1.18-15.52-.65,1.3-10.39,13-20.87,21.68-27.7l18-12c-21.31-12.58-70.32,39.38-86.34,54-26.35,24.07-39,46.13-48.21,80A369.68,369.68,0,0,0,901,1084.89c0,18.13-8.23,74.79,3.91,86.28,34-54.78,41.45-118.78,65.7-176.17,9.14-21.62,20.51-33.78,39.48-47.61C1022.06,938.67,1046.09,931.16,1051.51,919.35Z" style="fill: #f5e392"/>
   <path d="M1365,789l26,8c-35.61-49-113.45-69.23-172.44-75.51-39.14-4.17-60.62,1.38-95.51,17.95-27.6,13.11-60.95,36.84-91,39.61,41.87-.37,80.47,1.37,121-8.56,29-7.11,58-5.42,87.89-5.49,49.37-.12,81.32,20.84,115.83,53.54,0.51-11.44-9.33-18.92-15.73-27.27,8.81,2.23,17.46,6.79,26,9.58-3.78-2.7-6.74-8.29-9.94-11.44C1359.8,788.8,1362.26,789,1365,789Z" style="fill: #f5e392"/>
   <path d="M774.55,1061c27.05-7.13,47.32-48.5,56.58-73.32a138.25,138.25,0,0,1-25.83,20.68c-1-16.28,19.92-51.3,21.81-67.29L819,919c4,26.07-19.24,74.26-36.44,94.1-21.52,24.81-56.79,27.6-85.64,39.85C712.7,1063.33,754.35,1066.37,774.55,1061Z" style="fill: #f5e392"/>
   <path d="M789,1101c-8-2.65-36.12,20.87-47.5,26.56-15.3,7.65-29.3,4-44,9.3,18.39,16.93,89.13,11,88.88-19.7-4.89,1.64-12.24,1.11-17.23,3.63A29.53,29.53,0,0,1,775,1109Z" style="fill: #f5e392"/>
   <path d="M1032.57,693a409.43,409.43,0,0,1,88-10c13.28,0,30.53-2.06,46.69-1.37-4.2-.72-8.31-1.48-12.18-2.48,9.22-12.71,34.89-10.16,49.94-10.15l32-2c-19.29-17.77-60.28-20-86-20-31.37,0-66.81-4.57-97.55,1.45-31.42,6.15-53.35,21.08-80.24,37-31.35,18.56-57.64,24.28-94.29,25.76C923.44,757.19,987.22,703,1032.57,693Z" style="fill: #f5e392"/>
   <path d="M1167.25,681.63c11.57,2,23.84,3.67,33.77,9.17C1192.11,684.44,1180,682.18,1167.25,681.63Z" style="fill: #f5e392"/>
   <path d="M919.41,800.84C915.27,783.57,949,771.17,962,765c-6.32,1.57-11.89-1-17-2.26,4-7.84,12.48-12.16,18-19.69l10-8c-35.09,1.57-70.49,42.44-95,64-24.09,21.19-43.4,25.12-71.34,68.9C856.38,832,920.31,826.4,973.33,797.41,957.19,796.09,933.68,793.54,919.41,800.84Z" style="fill: #f5e392"/>
   <path d="M1297.16,629.3c12.76,18.36,34,31.38,46.29,51.21,12.56,20.31,17.73,39.93,25.11,61.63,1-11.71-.19-25.28,1.19-36.14,5,5.52,9.9,11.8,15,15.89,0.36-4.05.86-8.78,0.3-12.89l20,14C1409,670.58,1342.27,626.9,1297.16,629.3Z" style="fill: #f5e392"/>
   <path d="M1447,715l8,4c-16.58-23.52-6.51-66.58-8.4-95.4-7.8,17.79-25.53,19.74-29.71,39.4-3.35,15.76,1.26,35.07,8.56,47.88,3.72-5.3,6.16-13.31,9.48-19.81C1440.57,696.06,1442.69,707.22,1447,715Z" style="fill: #f5e392"/>
   <path d="M1532.35,674.9c-5.6,9.15-20.91,17.2-15.48,28.43,10-5.76,22.14-14.24,33.57-13.92-11.21,5.15-25.57,15.5-23.12,29.53,45.08-22,80-48.07,131.69-47.94,49.59,0.12,123.07,15.52,161,53-30.21-38.58-71.69-71-123-79-31.3-4.88-72.89-15.84-102.5-7.5-24.82,7-98.42,17-107.5,41.5l16-6C1512.71,673,1524.09,671.74,1532.35,674.9Z" style="fill: #f5e392"/>
   <path d="M1682.13,732.39c-18.92-12.63-27.32-20-51-19.28-16.52.53-30.67,3.47-46.46,7.5-41.21,10.51-83.82,37.16-97.58,82.5l18-9c-3.64,5.48-7.07,11.39-8.39,18,7-6.35,17-9.67,24.77-15-8,13.58-18.2,28.18-19.49,43.44C1531.09,769.17,1600.34,716.4,1682.13,732.39Z" style="fill: #f5e392"/>
   <path d="M1761.22,751c-19.19-9.42-40.43-9.4-61.16-15.34l13.5,7.5c4.39,1,7.49.08,7.3,5.77-7.2.37-14.77,0-21.88,0.56,11.7,1.35,27.14,5.08,36.62,12.9-15.13,1-31.85-1.91-46.74,1.39,36.41,6.5,66.51,18.38,100.07,32.75,30.14,12.9,62.61,28.39,89.28,48.31-5.93-23.83-47.81-48.52-67.45-62.65C1795.74,771.35,1778.13,759.25,1761.22,751Z" style="fill: #f5e392"/>
   <path d="M1614.53,846.91c20.24-7.19,38.43-.74,58.61-3.48-7.25-17-36.81-28.88-53.71-29.81-21.5-1.19-36.13,5.76-53.2,18-41.9,30-64.16,83-64.16,133.49l9-4.5c0.17-4.12,1.58-7.64,3-11.15a26.73,26.73,0,0,0,0,7.47c2.84-8.57,9.89-19.37,16.3-25.9,0.54,10.33-1.32,21.92,1.4,31.83,9.52-27.52,17.35-61.29,37.83-84.37C1582,864.52,1596.81,853.21,1614.53,846.91Z" style="fill: #f5e392"/>
   <path d="M1595.12,955.57c12.48-11.12,28.59-16.25,43.33-23.39,26.88-13,95.5-30.28,117.4-.45-14.73-32.61-45.46-55.44-81.32-53.62-19,1-38.48,4.65-56.21,12-24.61,10.2-56.94,43.18-62.25,69h9c5.55-8.44,12.52-17.57,18.25-26.64-7.61,15.3-18.44,42.44-15,59.18C1577.73,981.24,1583.71,965.73,1595.12,955.57Z" style="fill: #f5e392"/>
   <path d="M1728.75,984.05c-42.23-25.86-111.13-8.69-144.18,26.05h16.5c6.73,0.83,13.08-2.61,18.71-4.23-11.57,6.09-21.87,13.5-30.7,23.6,30.63-12.42,67.19-10.51,100.56-8.86,27,1.33,90.75,22.76,94.66,55.17-1.38-16.82.41-33.93-8.12-49.32C1766.74,1009.4,1745.11,994.07,1728.75,984.05Z" style="fill: #f5e392"/>
   <path d="M1784.31,1075.77q0.07,0.91.16,1.82C1784.44,1077,1784.38,1076.38,1784.31,1075.77Z" style="fill: #f5e392"/>
   <path d="M1476.39,719.09c-19.78,6.95-48.39,78.43-40.31,93l1.5,19.5c-0.73,1.61-1.83,2-1.6,4,1.11-4.19,5.16-7.19,7.23-9.84,3.44,4.85,4.81,10.3,7.92,15.17,4.65-5.92,4.85-12.52,8.51-19.29,7.43,5.77,9.09,15.16,12.11,23.09,0.57-20-5.33-41.24-4.16-62.58C1468.74,761,1476.6,740.41,1476.39,719.09Z" style="fill: #f5e392"/>
   <path d="M1706.22,843.91c26.19,11,55.49,31.07,78.28,48.82s48.42,54.78,56.67,82.57c-10.87-33.7-10.2-68.45-30.11-98.23a205.69,205.69,0,0,0-37.17-41.37c-19.34-16.64-53.6-19.45-69.32-38.58l4.5,15c9.13,5.14,19,10.36,23.88,19.19a75.65,75.65,0,0,0-14.94,1.36c5.44,3,10.8,6.89,13.44,12.25C1723.68,843.09,1714.53,843.31,1706.22,843.91Z" style="fill: #f5e392"/>
   <path d="M1924,1042.6c0.53,0.51,1.07,1,1.62,1.52A20.18,20.18,0,0,0,1924,1042.6Z" style="fill: #f5e392"/>
   <path d="M1862,894l2,18c11.1,15.68,16.76,40.75,12.29,60.8-2.92-2.34-6.1-4.7-8.94-7.29,1,6.76,3.66,13,2.5,20-7.49-1.11-10.75-8.16-16.7-11.45-0.82,18.27,4.89,29.18,19.1,41,7.23,6,16.43,11,24.73,15.17s20,6.38,27,12.38C1883.8,1003.71,1917.08,920.23,1862,894Z" style="fill: #f5e392"/>
   <path d="M1866,1063.23c-6.11-13.78-7.11-29.15-10-43.76,0.1,6.19-2.83,11.71-2.87,17.79-7.56-7-8.35-19.29-12.32-28.12A126.89,126.89,0,0,0,1827,986.26c0.1,14.58-.34,16.8-10.95,5.75-4.68-4.88-10.91-11.52-18-12l-14-2c15.94,8.73,30.65,19.17,39.75,34.86,7.11,12.25,7.82,25.78,11.23,39.29,3.58,14.22,12.41,29.77,21.25,41.58,4.71,6.3,11.41,14.25,18.95,17s15.42-.32,22.72,3c-1.17-8-8.54-15.11-13.45-21.53C1877.53,1083.17,1870.61,1073.75,1866,1063.23Z" style="fill: #f5e392"/>
   <path d="M915.64,892.7c21-21.16,46.21-36,70.87-52.2-21.19.57-44.27,1.78-63.4,10.61l33-31.5c-32.75,28.19-78.3,41.51-88.54,89.95-8.18,38.73-2.36,82.58-3,122.29C870.59,983.84,880.34,928.22,915.64,892.7Z" style="fill: #f5e392"/>
   <path d="M741.93,1228c-12.31,9.52-27.38,17.69-37.81,28.25-4.32-11.13-4.35-26.35-4.81-38.46-2.4,4.31-4.7,10.52-6.86,14.16-0.53-6.83-.34-13.93-0.34-20.87l-7.5-13.5c0,26.27-5.66,52.68-10.76,78-4,20.07-14.35,40.67-17.73,59.58,7.39-25,40.1-47.73,58.53-66C727.36,1256.66,733.93,1243.32,741.93,1228Z" style="fill: #f5e392"/>
   <path d="M803,1262.24c-14.64-1.1-20.9,31-27,42.15,0.77-13.17,1.05-35,3.11-51.3l-3-54c-8.34,17.83-4.17,43-8.55,62.36-5,22-13.29,42.6-19.9,64.25-10.22,33.43-17.65,73.75-35.5,103.36,42-33.23,90.44-49.32,122.08-95,17.68-25.51,19-50.2,21.81-79.76-8.45,18.68-30,40.72-41.26,61.92C808.23,1305.45,801.64,1275.82,803,1262.24Z" style="fill: #f5e392"/>
   <path d="M1191,1019c-0.49.08,5-17.82,26.59-37.08,21.14-19.16,58.48-37.11,102.18-39.86,43.64-3.37,83.45,10.32,105.55,28.68,22.57,18.31,28.11,36.42,27.68,36.27-1.29.94-8.38-15.91-30.68-32.33-21.87-16.53-59.94-28.85-102.08-25.63-42.18,2.68-78.3,19.18-99.44,36.65C1199.26,1003.2,1192.26,1019.83,1191,1019Z"/>
   <path d="M1039,1059c-0.4.19-3.53-36.17,10.61-92.49,7.37-27.86,19.34-60.88,41.57-92.5,21.76-31.34,56.74-61,101.29-70,21.93-4.81,44.28-3.95,64.77-1.2a386.38,386.38,0,0,1,58.92,11.53c37,10.21,68.35,26.76,90.31,46a155.9,155.9,0,0,1,40.85,54.78c6.39,14.92,8,23.79,7.67,23.86-0.62.2-3.1-8.39-10.14-22.7a162.24,162.24,0,0,0-41.59-52.16c-21.75-18.18-52.47-33.84-88.83-43.53a392,392,0,0,0-58-10.94c-20.4-2.63-41.46-3.34-62.52,1.24-42.47,8.53-76,36.58-97.49,66.86-21.89,30.51-34.18,62.74-42,90C1039.21,1023,1040.52,1059.19,1039,1059Z"/>
   <path d="M1701,851c-0.51.2-2.63-4.67-6.95-13.12-4.47-8.21-10.81-20.89-23.48-31.52a53.65,53.65,0,0,0-23.75-11.29c-9.35-1.65-19.94-1.1-30.69,1-21.57,4.24-44,15.31-64,31.24-39.66,33-54.29,80.89-61.45,113.17-6.9,33.23-6.38,54.56-7.72,54.5-0.59.08-2.9-21.36,2.86-55.44,6.12-33,20-82.64,61.95-117.7,20.75-16.54,44.22-28,67.12-32.11,11.4-2.05,22.64-2.47,33.06-.37a57.77,57.77,0,0,1,25.8,13.21c13.25,12,18.91,25.44,22.74,34.14C1700.14,845.68,1701.39,850.85,1701,851Z"/>
   <path d="M1783,957c-1.51.74-6.73-20.64-27-47.57-10.32-13.1-25.77-26.62-46.59-34-20.68-7.58-45.56-9.11-71.13-6.67-25.48,2.29-49.31,10-67,23-17.88,12.86-28.9,30.25-34.94,45.77-11.74,31.64-9.6,53.7-11.29,53.45-0.19.24-4.29-21.78,6.65-55.19a103.94,103.94,0,0,1,35.74-49.23c18.66-14.17,43.81-22.42,70.19-24.77,26.24-2.51,52.21-.79,74,7.59,22,8.14,38.09,23,48.27,37C1779.92,935.21,1783.26,957.1,1783,957Z"/>
   <path d="M1819,1069c-1.26.29-1.75-20.73-17.7-49a170.35,170.35,0,0,0-35.4-43.59c-15.79-13.88-36.28-26.66-60.09-30.81-23.83-3.91-47.58.41-67.88,6.1-20.38,5.95-37.78,14.67-49.94,24.92-12.39,10.11-18.53,22-20.62,30.55S1565.67,1021,1565,1021c-0.28.06-1.71-5.06-.3-14.4s7.32-22.52,20-33.7c12.46-11.34,30.37-20.87,51.34-27.37,20.92-6.19,45.26-11,70.94-6.82,25.66,4.51,47,18.21,63.2,32.9a165.41,165.41,0,0,1,35.45,46C1821,1047.54,1819.65,1069.29,1819,1069Z"/>
   <path d="M1033,783c-0.46.14,12.79-25,49.9-48.69,36.36-23.59,97.88-41.43,164.07-30.11,32.81,6.34,62.65,16.46,88.49,29.6,25.68,13.27,46,30.71,58.49,48.88,12.2,18.21,19,34.25,25.32,44.42,6,10.34,10.18,15.54,9.73,15.91-0.28.26-5.21-4.4-12-14.46-7.08-9.86-14.73-25.78-27-43-12.42-17-32.39-33.51-57.41-46s-55.1-22.36-86.72-28.44c-64.31-11-124.24,5.53-160.32,27.44C1048.69,760.48,1034.13,784.19,1033,783Z"/>
   <path d="M893,1225c-0.78.09-5.34-27.56-8.49-72.79-2.5-44.87-4.49-109.2,17.7-175.87,11-33,28.16-62.76,49.37-84.5a276.39,276.39,0,0,1,62.61-49.74c39.71-23.13,69-25.82,68.8-25.11,0.43,1.19-28,5.57-66.26,29.35-37.53,23.22-87.64,65.85-107.9,132.25-21.7,65.06-20.64,128.64-19.38,173.36C891.32,1197,894.14,1224.89,893,1225Z"/>
   <path d="M709,1043c-0.67-.88,7-7.51,18.46-19.17s26.12-28.72,41.35-48.58c16.12-18.79,23.49-40.38,31.87-54.85,8-14.72,15.73-22,16.32-21.4,0.84,0.71-5.27,8.76-11.9,23.63-7,14.41-14,37.21-30.76,56.92-15.32,20-31,36.93-43.47,47.87S709.49,1043.67,709,1043Z"/>
   <path d="M707,1081c0.11,0.09,0,.9-1.26,1.54a9.29,9.29,0,0,1-2.19.52,2.38,2.38,0,0,0-.92.32,1.09,1.09,0,0,0-.35.26l-0.16.18-0.08.08,0,0,0,0c0-.86,0,1.92,0-1.92h0a33.28,33.28,0,0,0,15.26,6.75c14.08,2.89,34.8-1,55.43-9.95s37.65-21.09,47.46-31.93c10.16-10.77,11.8-20.14,12.86-19.93,0.9-.17.86,10.64-9.07,23.11-9.5,12.44-26.85,25.82-48.48,35.17s-43.79,12.84-59.35,8.34a31.2,31.2,0,0,1-16-9.63l0,0h0c0-3.84,0-1.07,0-1.93l0.06,0,0.11-.08,0.22-.15,0.44-.28a3.17,3.17,0,0,1,.94-0.37,4.35,4.35,0,0,1,1.65-.13c0.93,0.1,1.42.2,1.9,0.2C706.26,1081.16,706.8,1080.76,707,1081Z"/>
   <path d="M801,1159c-0.16.64-6.49-.78-11.21-9.38s-3.54-22.45,1.66-34.88c10.4-25.35,28.34-39.49,29.56-37.74,1.22,1.23-13.41,16.73-23.06,40.34-4.81,11.65-6.25,23-3.61,30.32S801.74,1158,801,1159Z"/>
   <path d="M837,1193c-1.67.6-8.44-15.1-8.75-36-0.51-21,7.06-36.83,8.75-36,1.89,0.68-2.26,16.26-1.75,35.91C835.5,1176.53,839,1192.44,837,1193Z"/>
   <path d="M1787,763c-1.22,1-9.14-18.52-35.34-36.12-25.78-17.81-70-28.22-117.79-24.25-47.65,5-89.58,21.68-114.24,40.78-25.44,19.19-29.52,40.34-30.64,39.6-0.82.53,1.71-22.27,27.53-43.46,25-20.93,67.6-38.74,116.71-43.89,49.18-4.12,94.94,7.45,121.23,27.15C1781.14,742.38,1787.5,763.25,1787,763Z"/>
   <path d="M1859,957c-1.24.34-5.12-22.36-21.48-55-16.2-32.19-46.06-74.82-92.55-105.14-23.08-15.06-48-24.68-71.56-28A138.57,138.57,0,0,0,1611,774c-34.43,11.58-51.15,28.49-52,27-0.34,0,15.2-18.43,50.45-31.71a138.61,138.61,0,0,1,64.83-6.78c24.61,3.11,50.68,13,74.49,28.52,48,31.31,77.84,75.51,93.21,108.86C1857.5,933.7,1859.65,957,1859,957Z"/>
      <g>
         <path d="M1985,1693c-32-30-178-66-208-68s-36,38-36,38l-16-28-28,38-20-38-34,26-20-52-176,44c-64,16-310,82-350,114s-44,68-30,92,28,14,36,6,36-72,142-86,376-16,420-12,166-6,238-6,91.63,19.13,101.81,21.56S2017,1723,1985,1693Z" style="fill: #563f38;stroke: #000;stroke-linecap: round;stroke-linejoin: round;stroke-width: 9.3018px"/>
         <path d="M1057,1879s-52.2,129.89-34.19,183.9,225,114,393,111,345-36,426-78,81-114,81-114-93.11,80-156,87c-54,6-3.38-70.9-1.88-91.9l-316-26s-4.86,77-30.16,105.9c-42,48-305.75-5.85-332.75-35.85S1057,1879,1057,1879Z" style="fill: #a3917d;stroke: #000;stroke-width: 7px"/>
         <path d="M1443,1953s20,66-4,100l28-22s-48,60-96,66-122,6-122,6l6-18s-42,2-74-2-100-34-112-56-28-104-12-148c0,0,22,72,38,80s26,8,26,8l-26,20s58,50,100,44,70-34,70-34l-4,36s20,28,56,8a702.72,702.72,0,0,0,66-42l14,40S1437,2013,1443,1953Z" style="fill: #fff;stroke: #000;stroke-linecap: round;stroke-linejoin: round;stroke-width: 9.3018px"/>
         <path d="M1768.56,1979.05s-12,48,0,60,36-16.5,36-16.5l-10.5,21s55.5-16.5,72-34.5,22.5-16.5,22.5-16.5l-1.5,12,36-19.5s-22.5,46.5-51,66-42,15-42,15l7.5,15s-76.5,16.5-100.5,1.5-22.5-70.5-22.5-70.5l10.5,21S1749.06,1976.05,1768.56,1979.05Z" style="fill: #fff;stroke: #000;stroke-linecap: round;stroke-linejoin: round;stroke-width: 9.3018px"/>
      </g>
      <g>
         <path d="M1509.87,1970c-3.25,4.31-5.25,10.8-8.73,15.26-0.62-2.94-1.64-6.26-1.54-9.32l-9.22-16.9c-0.1,11.93,2.72,24.47.2,36,1.61-.77,3.44-0.62,5.45-1.85,16.08,23.88-16.36,57.83-25,79,17.89-11.07,40.32-26.71,49.37-44.68,8-15.87,11.5-37.2,14.29-53.92-7.71,6.93-15.31,17.15-22.26,24.91C1508.07,1990.14,1510.52,1979.13,1509.87,1970Z" style="fill: #f5e392"/>
         <path d="M1593.18,2009.77c-11.46,4.86-11.07-14.36-10.93-22.86-4.94,6.64-10.24,16.76-11.81,25.18-4.54-6.23-2.37-18.41-2.37-26.49l-10.53-15.69c0,31.89-16.89,57.59-22.34,88,15.38-3.06,18.19-19.2,28.7-27.15,4.2,16.92-.1,35.4,6.42,51.87,4.14-13.27,12.27-35.92,24.09-45.15,4.15,7,6.69,20,12.94,25.68,1.84-26.82.27-54.21,0.23-81.16C1607.25,1988.79,1599.33,2007.16,1593.18,2009.77Z" style="fill: #f5e392"/>
         <path d="M1607.56,1981.14c0,0.3,0,.6,0,0.9A7.48,7.48,0,0,0,1607.56,1981.14Z" style="fill: #f5e392"/>
         <path d="M1686.8,2047.48c4.24,4.65,8.95,8.93,14,11.73-2.65-11.65-13.37-22.74-16.69-34.93a126.33,126.33,0,0,1-4.14-34.7c-3.88,10.47-4.74,24.13-9.41,33.45-8.73-3.86-12.12-15.66-14.32-23.85-2,6.59-5.27,13-5.39,20-10.13.53-10.78-15.58-11.72-22.74l-9.22-10.86c2.31,29.79-5.06,59.82,20.8,82.91,0.58-7.45-2.14-19.08,2.58-24.91,7.85,17.54,19,26.21,39.65,27.6C1692.13,2063.47,1685.72,2055.11,1686.8,2047.48Z" style="fill: #f5e392"/>
      </g>
   </g>
</svg>
