<?xml version="1.0" encoding="iso-8859-1"?>
<!-- Generator: Adobe Illustrator 21.1.0, SVG Export Plug-In . SVG Version: 6.00 Build 0)  -->
<svg version="1.1" xmlns="http://www.w3.org/2000/svg" xmlns:xlink="http://www.w3.org/1999/xlink" x="0px" y="0px"
	 viewBox="0 0 2500 2500" style="enable-background:new 0 0 2500 2500;" xml:space="preserve">
<g id="Mine_Hat">
	<path style="fill-rule:evenodd;clip-rule:evenodd;fill:#FFD32F;stroke:#000000;stroke-width:8.5039;stroke-miterlimit:2.6131;" d="
		M1166.133,1119.125c90.864-80.249,715.595-241.734,566.367-339.625c-343.688-225.453-501-573-1060,95
		c-154.972,185.191-86.418,457.991-9,665c33.036-59.87,116.494-187.528,199.534-233.151
		C1004.668,1234.586,1105.7,1172.176,1166.133,1119.125L1166.133,1119.125z"/>
	<path style="fill-rule:evenodd;clip-rule:evenodd;fill:#EAB200;" d="M824,760.988c0,0,141.188-55.029,218.613-30.954
		c77.425,24.075,198.573,90.569,301.504,153.623s-203.908-182.285-284.197-194.895C999.687,679.303,824,760.988,824,760.988z"/>
	<g>
		<polygon style="fill-rule:evenodd;clip-rule:evenodd;" points="1686.062,804.482 1460.872,482.832 1532.794,422.291 
			1761.159,741.46 1686.062,804.482 		"/>
		<g>
			
				<path style="fill-rule:evenodd;clip-rule:evenodd;fill:#FFD32F;stroke:#000000;stroke-width:8.5039;stroke-miterlimit:2.6131;" d="
				M1465.042,522.192c12.699,88.775,72.856,186.18,180.474,292.215C1399.012,977.202,1243.601,587.799,1465.042,522.192
				L1465.042,522.192z"/>
			<path style="fill-rule:evenodd;clip-rule:evenodd;" d="M1460.866,482.836c-45.466,32.85-31.912,131.484,30.272,220.304
				c62.184,88.822,149.451,134.196,194.917,101.346c45.465-32.849,31.912-131.483-30.272-220.305
				C1593.598,495.361,1506.331,449.987,1460.866,482.836L1460.866,482.836z"/>
			
				<path style="fill-rule:evenodd;clip-rule:evenodd;fill:#4D4D4D;stroke:#000000;stroke-width:8.5039;stroke-miterlimit:2.6131;" d="
				M1535.962,419.817c-45.466,32.85-31.912,131.483,30.272,220.304c62.184,88.822,149.451,134.196,194.917,101.346
				c45.465-32.849,31.911-131.483-30.272-220.305C1668.694,432.341,1581.427,386.967,1535.962,419.817L1535.962,419.817z"/>
			
				<path style="fill-rule:evenodd;clip-rule:evenodd;fill:#CCCCCC;stroke:#000000;stroke-width:8.5039;stroke-miterlimit:2.6131;" d="
				M1577.061,480.214c-26.127,18.597-15.339,78.585,24.096,133.989c39.434,55.403,92.583,85.24,118.709,66.644
				c26.127-18.596,15.338-78.584-24.097-133.988C1656.336,491.455,1603.187,461.618,1577.061,480.214L1577.061,480.214z"/>
		</g>
	</g>
	<path style="fill-rule:evenodd;clip-rule:evenodd;fill:#EAB200;stroke:#000000;stroke-width:8.5039;stroke-miterlimit:2.6131;" d="
		M1530.496,858.574c-171.095,107.636-292.548,194.489-364.363,260.55c134.708-28.247,245.904-11.083,333.589,51.495
		c136.449-40.485,236.575-66.85,356.778-55.12c142.882-63.51,129.846-130.886,115-186
		C1898.5,658.5,1655.786,775.896,1530.496,858.574L1530.496,858.574z"/>
</g>
</svg>
