<?xml version="1.0" encoding="iso-8859-1"?>
<svg version="1.1"
    xmlns="http://www.w3.org/2000/svg"
    xmlns:xlink="http://www.w3.org/1999/xlink" x="0px" y="0px"
 	 viewBox="0 0 2500 2500" style="enable-background:new 0 0 2500 2500;" xml:space="preserve">
    <g id="Layer-1">
        <path d="M659.48,1355.34c0,0 -95.981,-509.898 371.926,-683.863c467.907,-173.966 821.836,101.978 887.823,473.904c0,0 257.948,-5.999 263.947,41.992c5.999,47.991 -473.905,29.993 -857.828,71.985c-383.924,41.993 -699.591,176.477 -714.592,149.475c-15.002,-27.002 48.724,-53.493 48.724,-53.493Z" style="fill:#ffc52b;fill-rule:nonzero;stroke:#000;stroke-width:8px;"/>
        <path d="M1434.97,649.647c0,0 62.634,-43.686 158.026,-0.647c95.393,43.038 126.469,116.868 79.721,121.957c-46.746,5.089 -94.27,-134.98 -237.747,-121.31Z" style="fill:#ffc52b;fill-rule:nonzero;stroke:#000;stroke-width:8px;"/>
        <path d="M907,735c0,0 44,-116 280,-156c236,-40 480,100 564,524c11.13,56.179 -212,52 -248,36c-36,-16 -188,-464 -356,-468c-168,-4 -240,64 -240,64Z" style="fill:#ffc52b;fill-rule:nonzero;stroke:#000;stroke-width:8px;"/>
        <path d="M803,819c0,0 32,-100 148,-104c116,-4 192,80 148,108c-44,28 -160,-88 -296,-4Z" style="fill:#ffc52b;fill-rule:nonzero;stroke:#000;stroke-width:8px;"/>
        <path d="M1752.43,930.34c38.483,119.653 -14.824,243.828 -119.066,277.357c-104.242,33.527 -219.943,-36.291 -258.428,-155.944c-38.484,-119.65 14.825,-243.828 119.066,-277.355c104.241,-33.527 219.942,36.291 258.428,155.942Z" style="fill:#ff7414;fill-rule:nonzero;stroke:#000;stroke-width:8px;"/>
        <path d="M1779.58,916.311c44.81,116.495 1.184,241.687 -97.44,279.624c-98.625,37.936 -214.903,-25.748 -259.714,-142.244c-44.811,-116.495 -1.184,-241.687 97.44,-279.623c98.625,-37.937 214.903,25.748 259.714,142.243Z" style="fill:#cd263c;fill-rule:nonzero;stroke:#000;stroke-width:9.3px;"/>
        <path d="M1748.83,932.519c33.934,88.217 0.898,183.02 -73.787,211.749c-74.686,28.728 -162.739,-19.498 -196.672,-107.716c-33.934,-88.218 -0.896,-183.022 73.787,-211.749c74.687,-28.728 162.74,19.498 196.672,107.716Z" style="fill:#fff;fill-rule:nonzero;stroke:#000;stroke-width:8px;"/>
        <path d="M1622.16,966.78c10.84,28.18 0.271,58.508 -23.586,67.685c-23.858,9.177 -52.027,-6.251 -62.866,-34.431c-10.839,-28.18 -0.271,-58.508 23.587,-67.685c23.857,-9.177 52.026,6.251 62.865,34.431Z" style="fill:#a4a4a4;stroke:#000;stroke-width:8px;"/>
        <path d="M1608.24,956.906c3.586,9.324 0.09,19.358 -7.803,22.395c-7.893,3.036 -17.213,-2.068 -20.8,-11.391c-3.587,-9.324 -0.09,-19.358 7.803,-22.395c7.893,-3.036 17.213,2.068 20.8,11.391Z" style="fill:#fff;"/>
        <path d="M659.48,1355.34c0,0 187.52,-88.342 571.52,-136.342" style="fill:none;stroke:#000;stroke-width:8px;"/>
    </g>
</svg>