<?xml version="1.0" encoding="iso-8859-1"?>
<!-- Generator: Adobe Illustrator 21.1.0, SVG Export Plug-In . SVG Version: 6.00 Build 0)  -->
<svg version="1.1" xmlns="http://www.w3.org/2000/svg" xmlns:xlink="http://www.w3.org/1999/xlink" x="0px" y="0px"
	 viewBox="0 0 2500 2500" style="enable-background:new 0 0 2500 2500;" xml:space="preserve">
<g id="Mining_Cap">
	<path style="fill-rule:evenodd;clip-rule:evenodd;fill:#F99F30;stroke:#000000;stroke-width:8.5039;stroke-miterlimit:2.6131;" d="
		M1166.133,1119.125c90.864-80.249,715.595-241.734,566.367-339.625c-343.688-225.453-592.055-334.687-971,123
		c-154,186-175.418,429.991-98,637c33.036-59.87,116.494-187.528,199.534-233.151
		C1004.668,1234.586,1105.7,1172.176,1166.133,1119.125L1166.133,1119.125z"/>
	<path style="fill-rule:evenodd;clip-rule:evenodd;fill:#AD661F;stroke:#000000;stroke-width:8.5039;stroke-miterlimit:2.6131;" d="
		M1530.496,858.574c-171.095,107.636-292.548,194.489-364.363,260.55c134.708-28.247,245.904-11.083,333.589,51.495
		c136.449-40.485,236.575-66.85,356.778-55.12c142.882-63.51,129.846-130.886,115-186
		C1898.5,658.5,1655.786,775.896,1530.496,858.574L1530.496,858.574z"/>
	<path style="fill-rule:evenodd;clip-rule:evenodd;fill:#F99F30;stroke:#000000;stroke-width:8.5039;stroke-miterlimit:2.6131;" d="
		M887.5,784.126c0,0,148.886-45.456,230.534-25.569s209.401,74.814,317.944,126.899c108.543,52.086-215.027-150.575-299.694-160.992
		C1072.767,716.65,887.5,784.126,887.5,784.126z"/>
</g>
<g id="Layer_1">
</g>
</svg>
