<?xml version="1.0" encoding="iso-8859-1"?>
<!-- Generator: Adobe Illustrator 21.1.0, SVG Export Plug-In . SVG Version: 6.00 Build 0)  -->
<svg version="1.1" xmlns="http://www.w3.org/2000/svg" xmlns:xlink="http://www.w3.org/1999/xlink" x="0px" y="0px"
	 viewBox="0 0 2500 2500" style="enable-background:new 0 0 2500 2500;" xml:space="preserve">
<g id="Modern_Hair">
	<path style="fill-rule:evenodd;clip-rule:evenodd;fill:#ff0000;" d="M1894.92,883.411c-40.593,9.495-63.053,23.627-67.381,42.393
		c-40.051-33.313-65.096-37.409-75.135-12.289c-50.089-56.307-87.855-60.403-113.296-12.287
		c-7.392-37.177,4.932-74.449,36.971-111.816c1.696-17.781-5.063-21.467-20.275-11.059c-34.732,31.404-52.223,66.628-52.475,105.673
		c-25.402-48.033-56.012-56.634-91.83-25.804c-34.576-49.293-65.982-55.027-94.215-17.203c-32.748-52.849-64.948-59.813-96.6-20.888
		c-51.365-41.685-94.299-39.637-128.801,6.144c-11.779-11.716-23.741-17.817-35.884-18.314v358.899
		c135.876-30.026,270.874-9.829,404.993,60.605c62.362-55.613,159.507-56.964,314.507-50.964
		C1901.237,1055.808,1904.757,969.151,1894.92,883.411z"/>
	<path style="fill-rule:evenodd;clip-rule:evenodd;fill:#ff0000;stroke:#000;stroke-linecap:round;stroke-linejoin:round;stroke-width:8.5px" d="M833.508,903.072
		c15.52-43.65,42.155-51.023,79.903-22.118c3-68.064,25.66-75.436,67.978-22.118c30.46-25.555,58.089-16.954,82.886,25.804
		c-7.522-63.641,15.535-87.397,69.171-71.268c19.952-10.302,39.431-6.002,58.437,12.902c34.502-45.78,77.436-47.828,128.801-6.144
		c31.652-38.924,63.853-31.96,96.6,20.888c28.233-37.825,59.639-32.091,94.215,17.203c35.818-30.83,66.428-22.229,91.83,25.804
		c0.251-39.045,17.743-74.269,52.475-105.673c15.212-10.408,21.971-6.722,20.275,11.059c-32.04,37.367-44.363,74.64-36.971,111.816
		c25.441-48.116,63.207-44.02,113.296,12.287c10.038-25.12,35.083-21.025,75.134,12.289c4.329-18.766,26.789-32.898,67.381-42.393
		c9.836,85.739,6.317,172.397-19.42,293.089c-155-6-252.145-4.648-314.507,50.964c-203.893-107.076-409.815-98.067-617.766,27.032
		c-5.883,49.339-2.702,108.319,9.541,176.941c-93.909,44.226-134.457,190.039-121.645,437.439
		c-12.016-166.439-34.277-280.304-66.786-341.596c-58.58,19.853-103.501,90.712-134.763,212.576
		c5.82-230.756-10.321-448.934-48.414-654.54c-16.28-6.554-32.691-10.043-46.994-8.991c-121.86,8.969-2.664-50.226,40.981-22.467
		c-6.015-30.473-12.521-60.666-19.514-90.58c25.05-6.04,39.759,0.105,44.126,18.432c-1.048-34.475,19.623-46.763,62.015-36.862
		c46.874-54.637,79.471-66.925,97.793-36.863C782.461,873.591,807.108,871.954,833.508,903.072z"/>
</g>
<g id="Layer_1">
</g>
</svg>
