<?xml version="1.0" encoding="iso-8859-1"?>
<!-- Generator: Adobe Illustrator 21.1.0, SVG Export Plug-In . SVG Version: 6.00 Build 0)  -->
<svg version="1.1" xmlns="http://www.w3.org/2000/svg" xmlns:xlink="http://www.w3.org/1999/xlink" x="0px" y="0px"
	 viewBox="0 0 2500 2500" style="enable-background:new 0 0 2500 2500;" xml:space="preserve">
<g id="Mohawk">
	<path style="fill-rule:evenodd;clip-rule:evenodd;fill:#ff0000;stroke:#000;stroke-linecap:round;stroke-linejoin:round;stroke-width:8.5px" d="M1250.824,961.038
		c69.866-34.562,134.971-75.132,174.519-129.038c11.324,48.82-7.276,127.817-38.63,154.798
		c58.449-9.11,106.617-55.687,144.505-139.729c7.69,88.635-14.608,152.561-66.897,191.775
		c54.6-17.498,97.883-53.569,129.849-108.212c4.088,44.888-10.219,87.355-42.922,127.4c-25.192,30.359-40.453,65.748-45.784,106.166
		c-14.945-145.587-144.778-166.679-280.01-142.7c-137.128,33.779-236.004,99.284-296.639,196.502
		c-3.545,6.411-7.602,13.254-11.916,20.41c-2.694,4.935-5.3,9.94-7.812,15.025c-1.099,1.119-2.187,2.218-3.275,3.313
		c-31.886,53.067-66.196,117.036-17.129,153.672c29.363,26.589,54.564,44.237,75.604,52.944
		c21.267-17.867,39.402-32.441,54.409-43.718c16.086-3.739,20.988,2.79,14.706,19.589c-9.88,8.412-22.273,20.683-37.181,36.814
		c11.697-0.365,24.678-5.119,38.944-14.259c14.269-11.308,28.987-23.088,44.151-35.338c11.137-0.649,14.192,4.951,9.165,16.8
		c-21.437,15.22-38.114,31.43-50.033,48.63c16.056,0.464,34.635-4.181,55.74-13.933c12.111,4.067,11.784,10.674-0.98,19.822
		c-20.909,8.103-39.683,13.102-56.321,14.994c19.299,7.504,39.205,10.749,59.717,9.738c8.852,10.775,6.96,16.369-5.676,16.781
		c-27.256,0.099-47.744-2.086-61.466-6.554c1.241,8.673,7.964,21.762,20.171,39.267c1.531,10.501-2.928,13.901-13.377,10.197
		c-21.373-19.953-45.49-44.73-72.352-74.33c-64.082-23.706-177.396-27.96-193.74-94.112c-5.328-23.675-3.99-42.155-4.166-69.75
		c-15.077,20.081-34.04,33.745-48.707,55.302c-40.872,89.832-65.401,175.025-73.613,255.585c3.196,3.706,7.138,7.31,11.828,10.812
		c22.366,20.252,41.562,33.695,57.589,40.327c16.199-13.609,30.012-24.71,41.443-33.3c12.253-2.849,15.987,2.125,11.202,14.921
		c-7.526,6.408-16.966,15.755-28.322,28.041c8.91-0.277,18.799-3.899,29.664-10.86c10.869-8.614,22.079-17.586,33.63-26.918
		c8.484-0.494,10.811,3.771,6.981,12.797c-16.328,11.592-29.031,23.941-38.11,37.041c12.23,0.354,26.382-3.184,42.458-10.612
		c9.224,3.098,8.975,8.131-0.747,15.098c-15.927,6.172-30.227,9.979-42.9,11.421c14.7,5.715,29.863,8.186,45.487,7.417
		c6.743,8.207,5.303,12.469-4.322,12.782c-20.761,0.075-36.368-1.589-46.819-4.993c0.945,6.607,6.066,16.577,15.364,29.911
		c1.166,7.999-2.231,10.588-10.189,7.767c-16.281-15.199-34.65-34.071-55.111-56.617c-15.513-5.739-39.585-12.986-72.214-21.74
		C636,1776,633,1833,647,1891c-66.252-56.531-68.327-157.744-54.345-304.191c25.636-108.94,57.609-203.729,95.9-284.407
		c0.601-10.446-0.614-21.484-3.648-33.113c4.77,4.987,8.966,9.905,12.592,14.754c2.416-4.83,4.854-9.611,7.318-14.334
		c0.81-10.882-0.373-22.413-3.55-34.593c5.181,5.417,9.686,10.753,13.519,16.009c2.134-3.869,4.284-7.704,6.452-11.497
		c-0.532-12.958-4.109-26.331-10.735-40.119c9.064,6.499,16.649,13.087,22.756,19.764c2.99-4.898,6.009-9.729,9.06-14.49
		c-0.016-13.983-3.616-28.456-10.806-43.417c10.165,7.289,18.468,14.691,24.916,22.204c2.779-4.024,5.579-8.002,8.405-11.919
		c-0.063-12.889-3.113-26.294-9.153-40.217c9.307,7.211,16.958,14.463,22.956,21.754c2.747-3.543,5.513-7.042,8.302-10.489
		c1.52-15.44-1.401-31.647-8.767-48.624c11.568,8.963,20.577,17.988,27.032,27.073c3.385-3.808,6.795-7.557,10.238-11.233
		c1.929-12.748,0.989-26.43-2.825-41.049c7.954,8.316,14.316,16.441,19.092,24.378c3.424-3.361,6.874-6.662,10.353-9.9
		c3.598-14.752,3.128-30.828-1.411-48.229c9.645,10.083,16.952,19.888,21.922,29.414c11.829-16.43,17.193-36.468,16.086-60.118
		c7.957,12.665,13.303,24.491,16.042,35.479c13.466-16.989,19.612-38.064,18.434-63.227c9.336,14.86,15.078,28.566,17.23,41.119
		c3.096-1.781,6.203-3.535,9.335-5.238c8.861-13.499,13.855-29.695,14.983-48.588c6.229,12.678,10.202,24.378,11.926,35.101
		c1.102-0.507,2.196-1.03,3.302-1.527c13.279-15.13,20.619-34.402,22.016-57.821c7.967,16.216,12.247,30.833,12.843,43.851
		c1.908-0.674,3.811-1.358,5.73-2.007c5.079-11.035,8.038-23.55,8.874-37.547c5.494,11.184,9.233,21.606,11.222,31.268
		c2.545-0.731,5.091-1.462,7.655-2.151c10.98-14.4,17.103-32.187,18.367-53.364c8.425,17.148,12.727,32.509,12.91,46.08
		c2.732-0.54,5.464-1.08,8.216-1.574c7.475-12.753,11.73-27.753,12.759-45.003c6.57,13.374,10.633,25.659,12.191,36.858
		c15.2-15.59,23.552-35.957,25.054-61.105c11.919,24.262,15.589,44.943,11.012,62.045c1.977-0.116,3.958-0.221,5.945-0.316
		c21.34-16.582,37.21-39.712,47.602-69.397c3.977,21.755,4.786,40.996,2.431,57.727c28.318-16.75,48.725-42.969,61.219-78.655
		c7.265,39.729,3.967,71.078-9.889,94.051C1247.652,960.654,1249.236,960.843,1250.824,961.038z"/>
</g>
<g id="Layer_1">
</g>
</svg>
