<?xml version="1.0" encoding="iso-8859-1"?>
 <svg version="1.1" xmlns="http://www.w3.org/2000/svg" xmlns:xlink="http://www.w3.org/1999/xlink" x="0px" y="0px"
 	 viewBox="0 0 2500 2500" style="enable-background:new 0 0 2500 2500;" xml:space="preserve">
     <g id="Layer-1">
        <path d="M1907,1623c0,0 52,68 72,36c20,-32 32,-72 16,-140c-16,-68 0,-92 44,-156c44,-64 104,-80 100,-176c-4,-96 -68,-160 -80,-180c-12,-20 -124,-20 -160,108c-36,128 -60,284 -60,364c0,80 40,128 68,144Z" style="fill:#7f7f7f;fill-rule:nonzero;"/>
        <path d="M1910.18,1620.57c-0.323,-0.423 -0.73,-0.778 -1.193,-1.042c-24.507,-14.005 -65.984,-59.361 -65.984,-140.527c0,-85.579 25.73,-241.6 59.851,-362.917c26.783,-95.229 93.566,-111.294 113.396,-113.95c22.206,-2.974 36.592,2.372 39.323,6.925c2.26,3.766 6.129,8.83 11.028,15.24c22.776,29.805 65.173,85.284 68.406,162.869c2.697,64.741 -24.527,92.147 -56.051,123.88c-14.512,14.609 -29.518,29.715 -43.249,49.687c-43.235,62.887 -61.131,88.917 -44.598,159.182c7.37,31.32 9.15,58.132 5.442,81.969c-3.037,19.521 -9.691,36.996 -20.94,54.995c-2.678,4.286 -6.037,6.467 -10.267,6.667c-17.636,0.834 -45.8,-30.74 -55.164,-42.978Zm105.008,-626.365c-23.53,3.15 -47.13,13.982 -66.456,30.497c-24.884,21.266 -42.911,51.283 -53.58,89.216c-34.291,121.923 -60.149,278.874 -60.149,365.083c0,84.062 43.206,131.724 69.294,147.041c5.435,7.011 37.266,46.636 61.422,45.497c6.95,-0.328 12.56,-3.833 16.676,-10.418c16.965,-27.144 34.172,-67.933 16.502,-143.036c-15.722,-66.818 0.377,-90.235 43.402,-152.817c13.322,-19.378 28.07,-34.225 42.333,-48.582c32.845,-33.063 61.211,-61.618 58.367,-129.851c-3.337,-80.105 -48.391,-139.061 -70.042,-167.394c-4.746,-6.211 -8.495,-11.116 -10.524,-14.498c-5.58,-9.3 -25.008,-13.716 -47.245,-10.738Z" style="fill-rule:nonzero;"/>
    </g>
</svg>