<?xml version="1.0" encoding="iso-8859-1"?>
 <svg version="1.1" xmlns="http://www.w3.org/2000/svg" xmlns:xlink="http://www.w3.org/1999/xlink" x="0px" y="0px"
 	 viewBox="0 0 2500 2500" style="enable-background:new 0 0 2500 2500;" xml:space="preserve">
     <g id="Layer-1">
        <path d="M671,1523c0,0 44,-108 100,-100c56,8 32,208 64,228c32,20 80,24 84,-16c4,-40 -12,-68 -4,-88c8,-20 36,-32 8,-92c-28,-60 -24,-88 12,-116c36,-28 92,-44 96,-112c4,-68 -24,-132 68,-188c0,0 252,80 404,12c0,0 96,60 164,48c68,-12 104,-8 120,-4c16,4 24,116 156,80c132,-36 184,-264 76,-336c-108,-72 -160,-28 -204,-60c-44,-32 -135.725,-125.519 -387.674,-155.513c-251.949,-29.994 -359.928,101.979 -491.901,83.983c-131.974,-17.996 -263.947,-5.998 -281.944,83.984c-17.996,89.982 -29.994,149.969 -83.983,191.961c-53.989,41.992 -131.974,71.986 -137.973,203.96c-5.998,131.973 131.019,299.325 239.475,335.625Z" style="fill:#7f7f7f;fill-rule:nonzero;"/>
        <path d="M2073.1,908.611c-9.574,-31.471 -27.515,-56.693 -51.885,-72.939c-65.692,-43.795 -110.378,-45.272 -146.284,-46.459c-22.88,-0.756 -40.953,-1.354 -57.582,-13.448c-4.861,-3.535 -10.298,-7.82 -16.595,-12.782c-24.715,-19.478 -62.067,-48.912 -121.026,-76.53c-70.168,-32.869 -154.93,-55.39 -251.933,-66.938c-146.07,-17.389 -245.843,19.967 -326.013,49.983c-59.482,22.271 -110.853,41.504 -165.821,34.009c-73.493,-10.022 -137.519,-9.48 -185.157,1.567c-58.539,13.574 -92.604,42.372 -101.249,85.595c-17.886,89.43 -29.703,148.511 -82.517,189.589c-8.478,6.594 -17.448,12.816 -26.945,19.403c-50.356,34.928 -107.43,74.517 -112.568,187.532c-2.793,61.462 25.495,136.644 77.611,206.269c48.932,65.371 110.461,115.214 164.59,133.331c2.001,0.67 4.179,-0.328 4.974,-2.283c0.429,-1.051 43.463,-105.017 95.73,-97.55c29.03,4.147 34.933,73.813 39.676,129.792c4.004,47.259 7.463,88.073 22.77,97.64c20.359,12.724 50.159,21.021 70.837,10.872c11.198,-5.496 17.859,-15.824 19.263,-29.866c0.477,-4.77 0.681,-9.35 0.681,-13.759c0,-14.354 -2.163,-26.899 -4.127,-38.282c-1.503,-8.716 -2.815,-16.325 -2.815,-22.985c0,-4.352 0.56,-8.301 1.995,-11.887c1.619,-4.048 4.269,-7.923 7.075,-12.026c6.238,-9.123 13.384,-19.572 13.384,-36.772c0,-11.739 -3.329,-26.624 -12.548,-46.378c-12.296,-26.349 -18.004,-45.656 -18.004,-61.307c0,-2.26 0.119,-4.443 0.355,-6.561c1.777,-15.998 10.561,-29.346 28.48,-43.284c7.929,-6.167 16.781,-11.698 26.152,-17.553c31.95,-19.963 68.163,-42.59 71.385,-97.369c0.31,-5.268 0.43,-10.517 0.43,-15.73c0,-9.241 -0.378,-18.373 -0.748,-27.311c-0.365,-8.833 -0.724,-17.5 -0.724,-26.019c0,-16.584 1.36,-32.606 6.674,-48.197c8.883,-26.06 27.655,-47.259 58.949,-66.615c10.862,3.309 70.061,20.747 143.87,31.098c47.854,6.711 92.43,9.184 132.49,7.347c49.345,-2.262 91.928,-11.146 126.708,-26.336c13.738,8.321 100.563,58.848 165.053,47.467c68.637,-12.112 103.602,-7.742 118.335,-4.059c2.002,0.62 6.063,9.067 9.028,15.234c7.469,15.536 18.756,39.015 41.201,54.827c26.694,18.809 62.961,22.145 107.794,9.918c2.514,-0.686 5.009,-1.452 7.488,-2.279c-8.172,0.154 -16.295,-0.32 -24.32,-1.943c-35.622,7.167 -64.626,3.074 -86.355,-12.235c-20.743,-14.614 -31.062,-36.081 -38.598,-51.755c-5.249,-10.919 -8.718,-18.132 -14.298,-19.527c-15.35,-3.838 -51.569,-8.429 -121.665,3.941c-65.687,11.592 -160.238,-46.861 -161.186,-47.453c-1.129,-0.706 -2.537,-0.803 -3.753,-0.259c-77.617,34.723 -182.426,29.611 -256.681,19.208c-80.752,-11.313 -143.847,-31.17 -144.475,-31.37c-1.102,-0.349 -2.302,-0.205 -3.29,0.396c-33.907,20.639 -54.201,43.458 -63.867,71.813c-8.527,25.017 -7.48,50.33 -6.371,77.129c0.571,13.783 1.16,28.035 0.325,42.24c-2.98,50.654 -35.85,71.192 -67.638,91.054c-9.551,5.968 -18.571,11.604 -26.825,18.024c-38.16,29.68 -41.483,60.175 -13.169,120.848c20.796,44.563 9.647,60.868 -0.19,75.252c-3.061,4.477 -5.953,8.705 -7.899,13.572c-4.47,11.173 -2.229,24.162 0.365,39.202c2.479,14.378 5.29,30.673 3.369,49.885c-1.131,11.306 -6.12,19.207 -14.828,23.48c-15.274,7.497 -41.211,3.189 -63.072,-10.474c-11.914,-7.446 -15.536,-50.193 -19.038,-91.532c-5.499,-64.889 -11.184,-131.988 -46.517,-137.036c-53.142,-7.592 -94.357,79.659 -102.757,98.892c-51.809,-18.556 -110.312,-66.539 -157.264,-129.264c-48.739,-65.114 -76.205,-134.913 -76.205,-193.017c0,-2.725 0.061,-5.423 0.182,-8.095c2.216,-48.746 14.598,-87.569 37.853,-118.687c20.467,-27.388 46.3,-45.306 71.282,-62.634c9.59,-6.652 18.647,-12.934 27.298,-19.663c55.164,-42.905 67.212,-103.146 85.45,-194.333c7.973,-39.867 40.007,-66.571 95.211,-79.372c46.701,-10.829 109.729,-11.325 182.269,-1.433c56.966,7.768 109.212,-11.794 169.707,-34.444c39.986,-14.97 85.306,-31.939 137.685,-42.652c60.001,-12.272 120.376,-14.522 184.578,-6.879c96.153,11.447 180.091,33.733 249.485,66.238c58.125,27.227 95.04,56.319 119.468,75.57c6.361,5.013 11.855,9.342 16.84,12.968c18.617,13.539 38.732,14.204 62.024,14.974c34.891,1.153 78.314,2.589 142.11,45.119c22.811,15.208 39.641,38.933 48.668,68.611c8.441,27.745 10.05,59.983 4.655,93.229c-0.96,5.921 -2.717,12.651 -4.103,18.499c1.908,3.206 4.156,6.237 6.166,9.333c2.288,-8.515 4.425,-17.866 5.834,-26.55c5.59,-34.446 3.895,-67.932 -4.897,-96.839Z" style="fill-rule:nonzero;"/>
        <path d="M1425.51,784.086c-0.381,0.736 -0.094,1.64 0.642,2.021c119.873,62.05 248.255,35.279 372.412,9.389l15.622,-3.251c0.81,-0.169 1.333,-0.964 1.164,-1.775c-0.169,-0.811 -0.962,-1.332 -1.774,-1.163l-15.625,3.252c-61.728,12.872 -125.557,26.182 -187.688,28.323c-69.655,2.399 -129.427,-9.847 -182.732,-37.439c-0.735,-0.381 -1.639,-0.093 -2.021,0.643Z" style="fill:#fff;fill-rule:nonzero;"/>
        <path d="M1666.58,879.311c-0.813,0.155 -1.348,0.94 -1.193,1.754c0.155,0.814 0.94,1.348 1.754,1.193c62.904,-11.966 174.838,-7.886 226.742,38.647c0.616,0.553 1.565,0.502 2.118,-0.115c0.553,-0.617 0.501,-1.565 -0.116,-2.118c-29.887,-26.795 -76.223,-37.608 -109.832,-41.96c-39.419,-5.105 -84.081,-4.133 -119.473,2.599Z" style="fill:#fff;fill-rule:nonzero;"/>
        <path d="M1543.24,927.419c-0.757,0.337 -1.096,1.225 -0.759,1.981c0.336,0.757 1.223,1.097 1.98,0.76c44.949,-20.029 114.013,-10.906 151.179,-3.684c65.5,12.726 150.951,37.153 186.071,81.256c0.517,0.648 1.46,0.755 2.108,0.239c0.648,-0.516 0.755,-1.46 0.24,-2.108c-35.691,-44.818 -121.852,-69.51 -187.847,-82.333c-45.823,-8.903 -109.56,-15.454 -152.972,3.889Z" style="fill:#fff;fill-rule:nonzero;"/>
        <path d="M1968.66,1056.94c-0.476,0.678 -0.312,1.614 0.365,2.09c28.499,20.008 57.166,50.275 76.685,80.964c16.928,26.617 34.961,66.167 24.741,103.43c-0.22,0.8 0.251,1.625 1.05,1.844c0.799,0.219 1.624,-0.251 1.843,-1.05c10.51,-38.322 -7.85,-78.706 -25.103,-105.834c-19.719,-31.004 -48.687,-61.587 -77.491,-81.809c-0.679,-0.476 -1.614,-0.313 -2.09,0.365Z" style="fill:#fff;fill-rule:nonzero;"/>
        <path d="M1255.14,735.434c-53.465,27.339 -128.629,39.879 -188.138,47.748c-61.269,8.102 -108.824,4.351 -149.662,-11.804c-0.77,-0.304 -1.642,0.074 -1.946,0.844c-0.305,0.77 0.073,1.642 0.843,1.946c41.331,16.351 89.363,20.16 151.158,11.988c59.748,-7.901 135.238,-20.503 189.11,-48.051c0.738,-0.377 1.03,-1.281 0.653,-2.019c-0.378,-0.737 -1.281,-1.029 -2.018,-0.652Z" style="fill:#fff;fill-rule:nonzero;"/>
        <path d="M777.904,813.554c-0.675,0.479 -0.835,1.415 -0.356,2.091c57.06,80.499 135.205,108.837 234.984,126.622c0.816,0.145 1.595,-0.398 1.74,-1.214c0.145,-0.815 -0.398,-1.594 -1.213,-1.74c-99.053,-17.654 -176.593,-45.736 -233.063,-125.403c-0.479,-0.676 -1.415,-0.835 -2.092,-0.356Z" style="fill:#fff;fill-rule:nonzero;"/>
        <path d="M799.561,936.305c-0.82,0.118 -1.389,0.878 -1.272,1.698c7.44,51.95 18.788,99.632 33.728,141.722c18.852,53.112 42.966,95.545 71.673,126.118c0.568,0.604 1.517,0.634 2.121,0.067c0.604,-0.567 0.634,-1.516 0.067,-2.12c-28.422,-30.27 -52.321,-72.35 -71.034,-125.069c-14.874,-41.903 -26.174,-89.39 -33.585,-141.144c-0.118,-0.82 -0.878,-1.389 -1.698,-1.272Z" style="fill:#fff;fill-rule:nonzero;"/>
        <path d="M754.477,972.322c-0.812,0.162 -1.338,0.96 -1.177,1.773l4.64,23.323c15.085,76.926 33.86,172.662 97.978,217.627c0.679,0.476 1.615,0.312 2.09,-0.366c0.475,-0.679 0.311,-1.615 -0.367,-2.09c-63.13,-44.272 -81.775,-139.351 -96.757,-215.748l-4.645,-23.349c-0.162,-0.812 -0.949,-1.331 -1.762,-1.17Z" style="fill:#fff;fill-rule:nonzero;"/>
        <path d="M666.292,1084.5l-2.295,11.137c-12.322,59.486 -32.946,159.047 2.542,209.052c0.48,0.676 1.416,0.835 2.091,0.356c0.676,-0.48 0.835,-1.416 0.355,-2.092c-34.731,-48.938 -14.273,-147.7 -2.05,-206.707l2.297,-11.146c0.167,-0.812 -0.356,-1.602 -1.167,-1.77c-0.812,-0.167 -1.606,0.359 -1.773,1.17Z" style="fill:#fff;fill-rule:nonzero;"/>
        <path d="M558.296,1195.45c-13.048,52.193 -14.283,120.957 21.385,157.428c0.579,0.592 1.529,0.602 2.121,0.023c0.593,-0.579 0.603,-1.529 0.024,-2.121c-34.804,-35.586 -33.472,-103.196 -20.619,-154.602c0.201,-0.804 -0.288,-1.618 -1.092,-1.819c-0.803,-0.201 -1.618,0.287 -1.819,1.091Z" style="fill:#fff;fill-rule:nonzero;"/>
        <path d="M822.939,1338.59c-0.687,0.463 -0.868,1.394 -0.405,2.082c15.476,22.949 32.327,36.445 51.839,52.072c5.63,4.51 11.452,9.173 17.443,14.241c0.632,0.536 1.579,0.456 2.114,-0.176c0.535,-0.633 0.456,-1.579 -0.177,-2.115c-6.021,-5.093 -11.859,-9.769 -17.505,-14.291c-19.32,-15.474 -36.006,-28.837 -51.227,-51.409c-0.463,-0.686 -1.395,-0.868 -2.082,-0.404Z" style="fill:#fff;fill-rule:nonzero;"/>
        <path d="M807.736,1419.76c-0.597,0.574 -0.615,1.523 -0.04,2.121c10.429,10.828 22.355,20.118 33.888,29.102c8.214,6.401 15.974,12.446 23.191,18.974c0.615,0.556 1.563,0.509 2.119,-0.106c0.556,-0.615 0.508,-1.563 -0.106,-2.119c-7.299,-6.602 -15.101,-12.68 -23.361,-19.115c-11.449,-8.92 -23.289,-18.143 -33.57,-28.818c-0.575,-0.597 -1.524,-0.614 -2.121,-0.039Z" style="fill:#fff;fill-rule:nonzero;"/>
        <path d="M840.583,1491.94c-0.5,0.661 -0.369,1.602 0.292,2.101c13.391,10.123 28.875,15.936 48.732,18.295c0.823,0.098 1.569,-0.489 1.667,-1.313c0.098,-0.822 -0.49,-1.568 -1.313,-1.666c-19.306,-2.294 -34.329,-7.92 -47.277,-17.709c-0.661,-0.5 -1.602,-0.369 -2.101,0.292Z" style="fill:#fff;fill-rule:nonzero;"/>
    </g>
</svg>