<?xml version="1.0" encoding="iso-8859-1"?>
<!-- Generator: Adobe Illustrator 21.1.0, SVG Export Plug-In . SVG Version: 6.00 Build 0)  -->
<svg version="1.1" xmlns="http://www.w3.org/2000/svg" xmlns:xlink="http://www.w3.org/1999/xlink" x="0px" y="0px"
	 viewBox="0 0 2500 2500" style="enable-background:new 0 0 2500 2500;" xml:space="preserve">
<g id="Nerd_Hair">
	
		<path style="fill-rule:evenodd;clip-rule:evenodd;fill:#78391E;stroke:#000000;stroke-width:8.5039;stroke-linecap:round;stroke-linejoin:round;stroke-miterlimit:2.6131;" d="
		M1321.058,814.127C1756.325,686.98,1987.64,834.605,2015,1257.003c-369.426-243.26-381.016-216.072-509.953-83.71
		c-302.143-376.727-258.788,121.933-640.339,118.053C689.41,1349.093,615.32,1544.644,642.437,1878
		C469.028,1048.438,695.235,693.814,1321.058,814.127z"/>
	
		<path style="fill-rule:evenodd;clip-rule:evenodd;fill:none;stroke:#000000;stroke-width:8.5039;stroke-linecap:round;stroke-linejoin:round;stroke-miterlimit:2.6131;" d="
		M1505.047,1173.293c-18.288-175.083-79.617-294.806-183.989-359.166"/>
	
		<path style="fill-rule:evenodd;clip-rule:evenodd;fill:none;stroke:#000000;stroke-width:8.5039;stroke-linecap:round;stroke-linejoin:round;stroke-miterlimit:2.6131;" d="
		M1725.527,1087.691c-46.513-10.396-98.831-35.205-156.954-74.425"/>
	
		<path style="fill-rule:evenodd;clip-rule:evenodd;fill:none;stroke:#000000;stroke-width:8.5039;stroke-linecap:round;stroke-linejoin:round;stroke-miterlimit:2.6131;" d="
		M1248.617,1060.958c36.036-21.815,71.805-52.116,107.306-90.902"/>
	
		<path style="fill-rule:evenodd;clip-rule:evenodd;fill:none;stroke:#000000;stroke-width:8.5039;stroke-linecap:round;stroke-linejoin:round;stroke-miterlimit:2.6131;" d="
		M864.708,1291.346c50.212-21.178,102.882-63.882,158.007-128.111"/>
	
		<path style="fill-rule:evenodd;clip-rule:evenodd;fill:none;stroke:#000000;stroke-width:8.5039;stroke-linecap:round;stroke-linejoin:round;stroke-miterlimit:2.6131;" d="
		M2007.295,1179.672c-37.879-62.295-79.706-103.548-125.483-123.759"/>
	
		<path style="fill-rule:evenodd;clip-rule:evenodd;fill:none;stroke:#000000;stroke-width:8.5039;stroke-linecap:round;stroke-linejoin:round;stroke-miterlimit:2.6131;" d="
		M1460.436,984.867c170.979-114.96,315.301-110.356,432.966,13.81"/>
	
		<path style="fill-rule:evenodd;clip-rule:evenodd;fill:none;stroke:#000000;stroke-width:8.5039;stroke-linecap:round;stroke-linejoin:round;stroke-miterlimit:2.6131;" d="
		M1414.786,901.99c93.144-84.082,211.635-98.121,355.474-42.115"/>
	
		<path style="fill-rule:evenodd;clip-rule:evenodd;fill:none;stroke:#000000;stroke-width:8.5039;stroke-linecap:round;stroke-linejoin:round;stroke-miterlimit:2.6131;" d="
		M1377.631,858.511c-184.035-31.296-346.768,8.748-488.2,120.132"/>
	
		<path style="fill-rule:evenodd;clip-rule:evenodd;fill:none;stroke:#000000;stroke-width:8.5039;stroke-linecap:round;stroke-linejoin:round;stroke-miterlimit:2.6131;" d="
		M1442.152,946.098c-91.3-44.344-202.621-30.634-333.962,41.13"/>
</g>
<g id="Layer_1">
</g>
</svg>
