<svg xmlns="http://www.w3.org/2000/svg" viewBox="0 0 2500 2500">
    <g>
      <path d="M1640.59,2155.93l-5.78-15.17-26.19,2.76h0c-29.47,62-189.93,59-254.95,60.11q-389.4,6.67-637.71-157.5C588.17,2062.55,365.12,2298.42,307.8,2500H1920.19C1829.32,2323.71,1704.29,2192.23,1640.59,2155.93Z" style="fill: #fff;fill-rule: evenodd"/>
      <path d="M875.27,1650.41s114,263.95,323.94,365.93S1594.69,2109,1651.69,2112s234-63,330-186c0,0-39,78-96,135s-168,156-369,180-636.06-30-741.07-141S794.92,1629.83,875.27,1650.41Z" style="fill: #fff;stroke: #000;stroke-width: 8px"/>
      <path d="M1207.65,1157.93s468-60,708.07,6c0,0-33-165-87-198s-246-57-393,12S1207.65,1157.93,1207.65,1157.93Z" style="fill: #fff;stroke: #000;stroke-width: 8px;fill-rule: evenodd"/>
      <g>
        <path d="M1012.83,1554.13c136-296,280-508,444-564s344.88-34.21,380.88-18.21-0.88-60.34-20.88-61.07-208-84.72-476,79.28-432,536-536,856c-62.9,193.53-111.16,467.53-139.49,653.88h64.75C797,2227.47,919.17,1758,1012.83,1554.13Z" style="fill: #fff;fill-rule: evenodd;isolation: isolate"/>
        <path d="M685.79,2396.74c26.44-159.52,69.21-384.32,122.85-549.38,63.12-194.22,130.56-353.12,206.17-485.76,46.08-80.84,95.49-151.81,146.86-210.92,56.92-65.51,117.91-118.38,181.26-157.15,99.44-60.85,199.38-94.51,297-100,78.68-4.45,134.23,10.55,160.93,17.76,8,2.17,12.87,3.48,15.79,3.58,7.55,0.27,22.21,19.08,29.06,37.27,4.29,11.39,3.27,16.44,2.13,17.51-0.81.76-3.53,0.86-8.54-1.37-34.65-15.4-216-39.23-383.8,18.08-40.42,13.8-81,37.64-120.71,70.84-37.79,31.63-76,72.85-113.68,122.53-69.55,91.79-138.88,213.71-211.95,372.75-70.37,153.17-157,458.49-217.23,687.65C767,2335,744.42,2424.92,726,2500h8.24c18.35-74.67,40.77-163.87,65.49-257.88,60.18-228.85,146.63-533.69,216.76-686.33,72.82-158.5,141.86-279.94,211.05-371.25,37.28-49.2,75.11-90,112.44-121.22,38.92-32.57,78.68-55.92,118.16-69.41,88.87-30.35,178-36.27,237.12-35.89,66.79,0.43,122.41,9.36,140.84,17.55,7.73,3.44,13.54,3.39,17.28-.13,5.92-5.59,3.2-17.31-.13-26.15-6.58-17.48-22.84-42-36.25-42.44-2-.07-7.3-1.5-14-3.31-27.1-7.32-83.5-22.54-163.47-18-99,5.6-200.19,39.64-300.77,101.19-64,39.19-125.66,92.6-183.12,158.73-51.71,59.51-101.42,130.9-147.77,212.21C932,1490.76,864.32,1650.14,801,1844.89c-53.8,165.54-96.66,390.78-123.14,550.58-6.11,36.85-11.64,72-16.58,104.53h8.09C674.28,2467.84,679.76,2433.12,685.79,2396.74Z" style="fill-rule: evenodd"/>
      </g>
      <path d="M1012.83,1554.13c136-296,280-508,444-564s344.88-34.21,380.88-18.21-0.88-60.34-20.88-61.07-208-84.72-476,79.28-432,536-536,856c-62.9,193.53-111.16,467.53-139.49,653.88h64.75C797,2227.47,919.17,1758,1012.83,1554.13Z" style="fill: #fff;isolation: isolate"/>
      <path d="M834,2187s140,116,464,172" style="fill: none;stroke: #000;stroke-linecap: round;stroke-width: 8px"/>
      <path d="M1574,2351s96-68,120-148" style="fill: none;stroke: #000;stroke-linecap: round;stroke-width: 8px"/>
      <path d="M858,2243s208,152,316,184" style="fill: none;stroke: #000;stroke-linecap: round;stroke-width: 8px"/>
      <path d="M944.83,1568.79c96-301.88,320-491.52,348-530.22s225.8-107.15,256.85-114.66c112-27.09,267.15-13.06,267.15-13.06-112-100.63-368-170.29-464-154.81s-416,131.59-640,549.57c-159.66,297.92-364,882.9-468.25,1194.39H689.85C760.68,2226.27,880.07,1772.46,944.83,1568.79Z"/>
      <path d="M1775.51,2275.06c-26.12-30.87-52.65-58.47-77-80.46a49.48,49.48,0,0,1-9.61,2.85c65,57.57,155.08,164.58,226.18,301.67h0l0.42,0.88h9.56A1202,1202,0,0,0,1775.51,2275.06Z"/>
    </g>
</svg>