<svg xmlns="http://www.w3.org/2000/svg" viewBox="0 0 2500 2500">
    <title>NunBack</title>
    <g>
        <path d="M1964.05,1278.48c-84-287.94-156.22-367.63-156.22-367.63-186.21-127.68-629.62,49.7-653.62,73.69s-12,257.95-6,275.94,138,647.87,192,785.84c29.94,76.51,185.32,284,317.81,453.67H2259.7C2185.06,2175,2027.15,1494.82,1964.05,1278.48Z"/>
        <path d="M1971.83,1218.13c-100-292-164-307.28-164-307.28-20,.72-36,27.28-4,63.28s64,120,140,348c56.52,169.56,206,843.53,278.85,1177.88h69C2214.74,2161.43,2047.49,1439.05,1971.83,1218.13Z" style="fill: #fff;fill-rule: evenodd;isolation: isolate"/>
        <path d="M1947.63,1320.86c-75.17-225.51-107.74-312.2-140.81-349.39-11.27-12.68-17.21-25.19-17.21-35.72a23.86,23.86,0,0,1,1.85-9.45,18.58,18.58,0,0,1,15.89-11.38c2.84,1.12,18.24,8.53,43.4,44.78,25.53,36.79,66.61,111.71,117.3,259.72,75.07,219.2,242.35,941.33,319.5,1280.58h8.2c-77-338.65-244.83-1063.27-320.13-1283.17C1876,926.09,1811.46,907.6,1808.76,907l-0.53-.13-0.54,0a26.53,26.53,0,0,0-23.58,16.3c-6.38,14.93-.28,34.48,16.74,53.63,32.59,36.67,67.73,132.21,139.19,346.61,56.06,168.19,205.47,841.71,278.53,1176.61h8.19C2153.81,2165.59,2003.9,1489.67,1947.63,1320.86Z" style="fill-rule: evenodd"/>
    </g>
</svg>
