<svg xmlns="http://www.w3.org/2000/svg" viewBox="0 0 2500 2500">
  <title>Old bun</title>
  <g>
    <path d="M611,895s-108,352,72,576c0,0,92-152,180-164,0,0,76-172,156-248S611,895,611,895Z" style="fill:#c99686;stroke:#000;stroke-width: 8px"/>
    <path d="M611,927c-68.79,21.62-240,0-236-196S563,463,719,547,751,883,611,927Z" style="fill:#864646;stroke:#000;stroke-width: 8px"/>
    <path d="M1551,1143s-136-104-260-132-232,16-272,48-336,88-424-80,84-236,116-252,200.39-73.51,416.39-97.51S1671,655,1823,775s116,284,36,320c0,0-56-48-100-40S1591,1147,1551,1143Z" style="fill:#864646;stroke:#000;stroke-width: 8px"/>
    <g>
      <path d="M1443.91,725a1.5,1.5,0,0,0,.93,1.91c0.42,0.15,42.9,14.94,89,44.71C1576.24,799,1630.5,845.09,1648,909c18.25,66.49-5.93,139.65-71.88,217.44a1.5,1.5,0,0,0,2.29,1.94c66.64-78.6,91-152.68,72.49-220.18-17.8-64.82-72.66-111.44-115.54-139.14-46.38-30-89.15-44.84-89.57-45A1.5,1.5,0,0,0,1443.91,725Z"/>
      <path d="M1588,736.76a1.5,1.5,0,0,0,.62,2,430.08,430.08,0,0,1,70.78,49.81C1692.08,817,1732.11,862,1737,914.43c4.51,48.46-21.27,95.5-76.65,139.8a1.5,1.5,0,0,0,1.88,2.34c56.22-45,82.38-92.89,77.76-142.43-5-53.47-45.54-99-78.69-127.86A433.29,433.29,0,0,0,1590,736.14,1.5,1.5,0,0,0,1588,736.76Z"/>
      <path d="M1822.62,808.09a1.5,1.5,0,0,0-.73,2c0.18,0.39,17.91,39.34,19.36,86.49,0.85,27.61-4,52.59-14.31,74.25-12.92,27.05-34.59,49-64.39,65.27a1.5,1.5,0,0,0,1.44,2.63c30.38-16.57,52.48-39,65.68-66.66,10.55-22.11,15.46-47.57,14.58-75.68-1.49-47.74-19.45-87.17-19.63-87.56A1.5,1.5,0,0,0,1822.62,808.09Z"/>
      <path d="M1222,760.85a1.5,1.5,0,0,0,.76,2c0.84,0.37,84.82,38.15,166.22,98.84,47.76,35.61,85.3,72,111.57,108.21,32.74,45.11,48,90,45.25,133.42a1.5,1.5,0,0,0,3,.19c2.76-44.14-12.66-89.69-45.84-135.39-26.46-36.44-64.22-73.07-112.23-108.86-81.67-60.88-165.91-98.77-166.75-99.15A1.5,1.5,0,0,0,1222,760.85Z"/>
      <path d="M646.15,778.77c-0.3.57-29.45,58-1.19,104.45,24.09,39.62,81.45,59.71,170.49,59.71a1.5,1.5,0,0,0,0-3c-87.91,0-144.4-19.6-167.92-58.25-27.39-45,1-101,1.28-101.53A1.5,1.5,0,0,0,646.15,778.77Z"/>
      <path d="M1121.36,915.93a1.5,1.5,0,0,0,.05,3c0.84,0,84.92-1.29,175.95,16.48,53.4,10.42,98.69,25.26,134.63,44.1,44.76,23.47,75,53.23,89.93,88.48a1.5,1.5,0,0,0,2.76-1.17c-15.19-35.9-45.92-66.18-91.32-90-36.2-19-81.78-33.91-135.48-44.39C1206.56,914.63,1122.2,915.91,1121.36,915.93Z"/>
      <path d="M862.52,711.23A758.37,758.37,0,0,0,761.06,730a1.5,1.5,0,0,0,.8,2.89A755.37,755.37,0,0,1,862.91,714.2c52.5-6.13,127.39-8.91,186,12.67a1.5,1.5,0,1,0,1-2.82C990.77,702.27,915.36,705.05,862.52,711.23Z"/>
      <path d="M622,551.16a1.5,1.5,0,0,0,1.12,1.8,137.23,137.23,0,0,1,49,25.27c31.36,25.53,44.77,60.88,39.86,105.08a1.5,1.5,0,1,0,3,.33c6.27-56.45-18.85-89.78-41-107.81A140.39,140.39,0,0,0,623.83,550,1.5,1.5,0,0,0,622,551.16Z"/>
      <path d="M550.09,563a1.5,1.5,0,0,0,.92,1.91,250.28,250.28,0,0,1,59.65,32.83C637.72,618.05,670,652.54,670,701.47a1.5,1.5,0,0,0,3,0c0-50.2-32.95-85.45-60.59-106.18A253.42,253.42,0,0,0,552,562.08,1.5,1.5,0,0,0,550.09,563Z"/>
      <path d="M532.8,646.16a1.5,1.5,0,0,0,1.41,2.65c0.41-.22,41.18-21.61,66.77-6.25,13.94,8.37,21,26.17,21,52.91a1.5,1.5,0,1,0,3,0c0-27.87-7.56-46.54-22.47-55.49C575.47,623.76,534.53,645.24,532.8,646.16Z"/>
    </g>
  </g>
</svg>
