<?xml version="1.0" encoding="iso-8859-1"?>
 <svg version="1.1" xmlns="http://www.w3.org/2000/svg" xmlns:xlink="http://www.w3.org/1999/xlink" x="0px" y="0px"
 	 viewBox="0 0 2500 2500" style="enable-background:new 0 0 2500 2500;" xml:space="preserve">
     <g id="Layer-1">
        <g>
            <g>
                <path d="M923.809,941.859l218.264,-729.094l599.064,538.693l-817.328,190.401Z" style="fill:#fff;fill-rule:nonzero;"/>
            </g>
        </g>
        <path d="M1248,494.025c56.583,-14.585 113.963,-24.218 171.7,-31.61l-122.959,-110.568c-27.038,6.271 -54.327,11.674 -81.375,17.872c11.311,41.137 20.95,83.019 32.634,124.306Z" style="fill:#cbcbcb;fill-rule:nonzero;"/>
        <path d="M1390.62,783.789l-59.215,-222.93l-16.832,4.471l59.215,222.93l16.832,-4.471Z" style="fill:#cbcbcb;"/>
        <path d="M1449.94,780.747l-41.798,-198.547l-17.041,3.587l41.798,198.548l17.041,-3.588Z" style="fill:#cbcbcb;"/>
        <path d="M1509.04,766.352l-38.317,-142.815l-16.821,4.513l38.318,142.814l16.82,-4.512Z" style="fill:#cbcbcb;"/>
        <path d="M1141.38,208.761c-2.211,0.382 -3.694,2.484 -3.312,4.695l100.796,583.71c0.381,2.211 2.484,3.694 4.695,3.312c2.211,-0.382 3.695,-2.484 3.313,-4.695l-100.796,-583.71c-0.382,-2.212 -2.484,-3.694 -4.696,-3.312Z" style="fill-rule:nonzero;"/>
        <path d="M1143.09,655.696l-145.208,38.722l-5.864,19.587l155.56,-41.483l-4.488,-16.826Z" style="fill:#cbcbcb;fill-rule:nonzero;"/>
        <path d="M1121.58,565.32c-0.885,0.307 -49.673,17.277 -94.92,32.99l-6.16,20.573c46.929,-16.291 102.909,-35.762 106.801,-37.115l-5.721,-16.448Z" style="fill:#cbcbcb;fill-rule:nonzero;"/>
        <path d="M1144.13,220.075c9.297,8.361 577.225,519.055 588.499,529.194c-14.773,3.441 -789.618,183.945 -802.914,187.043c3.912,-13.068 210.831,-704.264 214.415,-716.237Zm-3.151,-11.222c-1.341,0.376 -2.395,1.413 -2.794,2.746l-218.264,729.094c-0.417,1.389 -0.06,2.892 0.932,3.949c0.991,1.055 2.471,1.503 3.882,1.174l817.329,-190.4c1.474,-0.344 2.635,-1.479 3.013,-2.945c0.377,-1.467 -0.094,-3.024 -1.219,-4.034l-599.064,-538.694c-1.035,-0.931 -2.475,-1.267 -3.815,-0.89Z" style="fill-rule:nonzero;"/>
        <g>
            <g>
                <path d="M561.584,1057.96l134.674,283.278l431.883,-190.401c0,0 886.988,-134.672 891.63,-153.248c4.645,-18.576 4.645,-371.513 4.645,-371.513l-970.578,106.81l-492.254,325.074Z" style="fill:#fff;fill-rule:nonzero;"/>
            </g>
        </g>
        <path d="M1680.53,801.787l2.462,17.24l341.038,-48.72c0.03,-5.937 0.058,-11.813 0.082,-17.603l-343.582,49.083Z" style="fill:#cbcbcb;fill-rule:nonzero;"/>
        <path d="M1776.87,906.132l246.372,-30.045c0.064,-5.771 0.122,-11.635 0.178,-17.566l-248.659,30.325l2.109,17.286Z" style="fill:#cbcbcb;fill-rule:nonzero;"/>
        <path d="M1791.77,989.555c73.716,-17.692 175.257,-41.743 230.615,-54.216c0.109,-5.699 0.213,-11.677 0.31,-17.888c-60.752,13.5 -176.717,41.185 -234.988,55.17l4.063,16.934Z" style="fill:#cbcbcb;fill-rule:nonzero;"/>
        <path d="M637.629,1217.91l7.477,15.729l305.462,-147.177l-7.558,-15.69l-305.381,147.138Z" style="fill:#cbcbcb;fill-rule:nonzero;"/>
        <path d="M901.096,1004.65l-294.784,147.392l7.479,15.73l295.092,-147.546l-7.787,-15.576Z" style="fill:#cbcbcb;fill-rule:nonzero;"/>
        <path d="M880.32,959.306l-297.656,142.991l7.478,15.728l297.718,-143.021l-7.54,-15.698Z" style="fill:#cbcbcb;fill-rule:nonzero;"/>
        <path d="M2020.35,630.608c-0.024,99.389 -0.838,342.481 -4.329,364.969c-9.069,5.246 -82.162,23.034 -453.096,82.985c-216.865,35.051 -433.236,67.928 -435.396,68.255c-0.355,0.054 -0.7,0.155 -1.029,0.299c0,0 -421.164,185.675 -428.271,188.808c-3.268,-6.875 -128.534,-270.366 -131.461,-276.523c5.814,-3.839 486.866,-321.515 488.489,-322.587c1.939,-0.213 956.169,-105.224 965.093,-106.206Zm3.62,-8.574l-970.578,106.81c-0.641,0.071 -1.256,0.293 -1.794,0.648l-492.255,325.074c-1.69,1.116 -2.301,3.306 -1.431,5.135l134.673,283.279c0.945,1.985 3.297,2.861 5.309,1.973c0,0 430.403,-189.747 431.39,-190.182c11.893,-1.808 228.808,-34.816 443.578,-69.583c129.111,-20.901 232.185,-38.337 306.359,-51.823c142.259,-25.865 143.444,-30.609 144.491,-34.794c4.712,-18.844 4.765,-358.067 4.765,-372.498c0,-1.156 -0.491,-2.256 -1.35,-3.027c-0.861,-0.77 -2.009,-1.139 -3.157,-1.012Z" style="fill-rule:nonzero;"/>
        <path d="M1053.08,728.891c-2.205,0.418 -3.653,2.545 -3.234,4.75l77.564,408.436c0.419,2.205 2.545,3.652 4.75,3.235c2.205,-0.419 3.653,-2.546 3.234,-4.751l-77.565,-408.436c-0.418,-2.205 -2.545,-3.653 -4.749,-3.234Z" style="fill-rule:nonzero;"/>
        <path d="M1173.2,827.875l384.886,-59.87l47.042,218.101l-372.056,51.318l-59.872,-209.549Z" style="fill:#cbcbcb;fill-rule:nonzero;"/>
    </g>
</svg>