<svg xmlns="http://www.w3.org/2000/svg" viewBox="0 0 2500 2500">
  <title>Pharaoh front</title>
  <g>
    <g>
      <path d="M1699,2161.06l-60-38s-8,116-228,132c-331.87,24.14-672-208-708-220s-64,20-64,20S846.81,2353.4,1100.11,2500h518.54C1765,2399.52,1741,2239.14,1699,2161.06Z" style="fill:#ffd251;isolation: isolate"/>
      <path d="M890.19,2334.37c-133.36-124.72-229.91-257.24-245.33-278.84,7.24-6.88,29.79-25.19,56.72-16.21,5.53,1.84,20.15,10,40.4,21.39,106.89,59.92,390.82,219.09,669.35,198.83,50.66-3.68,94.34-13,129.83-27.71,28.62-11.85,52-27.22,69.6-45.68,21.87-23,29.15-44.82,31.55-55.68l53.25,33.73c17.32,32.57,31.14,78.51,31.14,128.15,0,35-6.87,71.81-24.22,107-19.45,39.49-50.35,73.31-91.9,100.6h15.9c37.42-26.8,65.66-59.24,84.08-96.62,43.73-88.8,23.24-187.19-7.6-244.46a4.5,4.5,0,0,0-1.55-1.67l-60-38a4.51,4.51,0,0,0-6.9,3.48c0,0.28-2.42,28.26-30.8,57.78-26.43,27.48-81.37,61.94-193,70.06-275.84,20.06-558.06-138.15-664.3-197.7-21.45-12-35.61-20-42-22.08-38.4-12.8-67.59,19.91-68.81,21.31a4.5,4.5,0,0,0-.31,5.54c1,1.45,103,147,248.62,283.21,70.79,66.21,140.32,119.58,207.29,159.16h18C1038.72,2460.11,965.2,2404.52,890.19,2334.37Z"/>
    </g>
    <g>
      <path d="M311.55,895.49c-178.17,240.77-162,383.92-114,449.91s42,257.95-6,377.92-78,246,54,323.94,204,222,222,293.94,150,168,228,36-54-437.91-102-497.9,36-341.93,78-377.92S533.51,595.55,311.55,895.49Z" style="fill:#ffd251;isolation: isolate"/>
      <path d="M516,1877.06c22.91-.88,45.05-13.41,67.78-18.42-10.43-38.09-2.27-105,13.42-170.93-57-.81-113.86-2.51-171.21.36-66,3-120-22-180-39-10.12-2.62-20.1-5.53-29.89-8.87-6.26,29.66-14.47,58-24.54,83.14-19.32,48.3-35.72,97.57-39.81,144.3,29.67,2.67,58.68,8,88.24,9.44A2118.25,2118.25,0,0,0,516,1877.06Z" style="fill:#ff0000;isolation: isolate"/>
      <path d="M458.29,2311.3c3.91,10.9,7,21,9.23,29.9,18,72,150,168,228,36,17.54-29.69,24.46-68.18,24.1-110.7-55.68,23.92-113.09,41.81-173.57,43.56C516.76,2311.14,487.53,2311.34,458.29,2311.3Z" style="fill:#ff0000;isolation: isolate"/>
      <path d="M581,2177.06c24,0,43-20,66-27,17.75-5.33,36.29-7.51,53.52-16.32-15.57-62.28-38.51-123.3-60.4-171-34,13.1-66.31,29-100.12,42.35-17,7-32,21-48,21-90.62.71-183.75,11.44-274.07,2.38a249.94,249.94,0,0,0,27.63,18.82c59.39,35.09,106.62,83.55,142.26,132.8C452.49,2183.23,517,2178.53,581,2177.06Z" style="fill:#ff0000;isolation: isolate"/>
      <path d="M671.48,1501.37c11.87-10.18,6-87-13.56-185.29-37.25-.94-74.54-2.15-111.92-3-22-1-45-9-65-18-85-34-169-63-252-102-20.26-9.57-36.4-24.51-52.16-40.39-23.75,92-6.71,155,20.74,192.73,12.31,16.92,21.05,42.14,26.46,72.29,17.63,8.73,35.62,17.12,53,28.37,4,3,11,0,17,2,22,8,39,25,66,24,12,0,24,10,36,10,33,0,64,10,96,13,8,0,16-1,24,0,24,3,47,10,71,11q39.18,1.09,78.35,1.9A46.84,46.84,0,0,1,671.48,1501.37Z" style="fill:#ff0000;isolation: isolate"/>
      <path d="M308.33,893.11C227.78,1002,179.83,1100.28,165.81,1185.34c-13.68,83,8,134.14,28.53,162.42,45.75,62.9,42.48,251.7-6.48,374.09-22,54.91-44,119.17-40.77,179.41,3.43,64.24,35,113.13,96.44,149.45,57.56,34,110.27,85.19,152.43,148,31.74,47.29,57,100.92,67.68,143.46,10.81,43.26,61,95.19,118.49,103.55,32.56,4.73,79.25-3,116.79-66.49,79.48-134.51-54.77-443-102.3-502.43-20-25-17.75-97.71,6-194.51,20.33-82.83,51.72-161,71.45-177.88,9.23-7.91,10-42,2.39-101.42-7.45-57.9-21.69-127.9-40.11-197.1-17.94-67.43-48.05-164.64-89.63-244.83-40.81-78.72-83.27-122.78-126.22-131C382.41,822.81,344.67,844,308.33,893.11ZM583.28,2437.8c-24.78-3.6-50.4-16.55-72.14-36.46-20.16-18.47-34.65-40.74-39.74-61.11-10.85-43.39-36.57-98-68.8-146-42.82-63.8-96.42-115.82-155-150.43-59-34.86-89.25-81.63-92.52-143-3.15-59,19.84-125.08,40.21-176,23.37-58.43,37.69-135.2,39.28-210.61,1.62-77-10.68-139.42-33.76-171.15-19.67-27-40.34-76.14-27.11-156.41,13.81-83.79,61.28-180.94,141.07-288.77,34.35-46.41,69.42-66.58,104.26-59.93,40.41,7.71,81,50.37,120.62,126.8,41.24,79.55,71.16,176.17,89,243.21,18.06,67.87,32.6,139.33,39.9,196.06,8.09,62.89,5.24,90.12.33,94.32-21.18,18.15-53,96.42-74,182-11.69,47.63-35.53,162.61-4.49,201.41,25.18,31.48,69.63,124.76,97.51,220.57,16.15,55.49,25.34,105.95,27.31,150,2.31,51.58-5.48,92.91-23.16,122.82C656.74,2434.87,613.42,2442.18,583.28,2437.8Z"/>
    </g>
    <g>
      <path d="M1385.34,193.63C743.86,170.16,221.57,913.49,275.56,1063.46s305.94,407.92,323.94,551.89,210-491.9,653.87-563.89,581.88,6,581.88,6,114-192,114-323.94S1877.24,211.63,1385.34,193.63Z" style="fill:#ffd251;isolation: isolate"/>
      <g>
        <path d="M955.77,287.88c63.65,184.69,178,534.48,221.31,782a515.28,515.28,0,0,1,76.28-18.46q64-10.39,119.74-16.81c-6.17-278.08-74.55-672.83-105.12-836.91C1158.57,209.3,1053.69,241.78,955.77,287.88Z" style="fill:#ff0000;isolation: isolate"/>
        <path d="M432.05,718.45c72.68,187.32,201.53,495.09,334.54,696.11,45-63.9,99.75-132.71,164.88-193.45C844,1025,683.84,660.12,620.4,515.48A1590.26,1590.26,0,0,0,432.05,718.45Z" style="fill:#ff0000;isolation: isolate"/>
        <path d="M1833.27,395.58c-53.55-68.64-130.66-130-240.9-166.73,6.23,139.87,16.51,499.09-24.24,792.24,85.33-1.17,146.73,5.42,189,13.31C1835.83,813.68,1837.75,530,1833.27,395.58Z" style="fill:#ff0000;isolation: isolate"/>
      </g>
      <path d="M1934.16,595c-17-65.12-43.59-124.48-79.12-176.43A488.55,488.55,0,0,0,1682.87,263.5c-82.7-44.82-182.76-69.68-297.39-73.87-99.87-3.65-202.2,11.19-304.14,44.13-91.52,29.57-183.27,73.83-272.69,131.55C657,463.21,513.62,599,405,747.81c-41.4,56.67-75.29,112.13-99.19,162.13,7.27-8.17,14.14-16.71,21.56-24.86,22-41.34,50.37-86.4,84.09-132.55C519.51,604.54,662.13,469.41,813,372c88.83-57.34,179.95-101.3,270.81-130.66,101.05-32.65,202.46-47.36,301.39-43.74,113.38,4.15,212.26,28.68,293.87,72.91a480.63,480.63,0,0,1,169.38,152.55c71.36,104.34,96.78,228.77,96.78,310.43,0,120.13-96.84,293.1-111.55,318.67-10.86-5.12-47.46-20-122.44-28.7-82.35-9.61-228.75-13.24-458.51,24-68.51,11.11-135.85,36.58-200.16,75.7-54.8,33.34-108.9,77.54-160.8,131.37-94.51,98-165.6,211-212.64,285.83-18,28.54-33.46,53.19-45.57,69.59-15.3,20.71-21.41,22.95-23.69,22.44-1-.23-4.48-2.16-6.41-17.59-10.17-81.35-93.64-198-174.35-310.77-25.83-36.1-51.09-71.4-73.63-105l1.53,4.94c2.43,9.12,6.34,17.86,10.38,26.69,17.54,25.34,36.23,51.45,55.22,78,80.14,112,163,227.77,172.92,307.1,1.19,9.54,3.8,22.45,12.61,24.4,14.86,3.3,34.58-26.92,77.77-95.58,46.87-74.5,117.69-187.1,211.62-284.53,51.42-53.34,105-97.11,159.2-130.09,63.42-38.58,129.79-63.69,197.28-74.64,228.17-37,373.54-33.52,455.3-24.09,88.57,10.22,123.63,29.43,124,29.62a4,4,0,0,0,5.4-1.44,1189.42,1189.42,0,0,0,57.21-112.9c26.15-59.19,57.33-144.2,57.33-213.08C1953.22,709.11,1950.75,658.66,1934.16,595Z"/>
    </g>
    <g>
      <path d="M1493.31,1105.45c-310.53,29.57-515.9,132-635.87,359.93s-204,287.94-222,281.94-60-120-60-120,180-563.89,599.88-701.86,731.85,12,755.85,54-42,168-42,168S1745.26,1081.45,1493.31,1105.45Z" style="fill:#ffd251;isolation: isolate"/>
      <path d="M1174.13,921.68c-96.35,31.66-188,88.44-272.39,168.78-67.42,64.17-130.39,143.44-187.17,235.6-96.62,156.82-142.43,298.66-142.88,300.07a4,4,0,0,0,.06,2.6c0.11,0.29,10.68,28.94,23.33,58,26.21,60.12,35.61,63.25,39.14,64.43,13.46,4.49,43-16.34,77-54.37,32.11-35.89,84.17-104.84,149.78-229.51,58.87-111.85,139-194.51,244.87-252.71,100.94-55.48,227.81-89.85,387.85-105.1,129.49-12.33,229.69-.35,290.94,11.87,66.37,13.24,102.58,29.61,102.94,29.78a4,4,0,0,0,5.21-1.78c2.74-5.22,66.72-128.41,41.92-171.81-7.11-12.45-34.32-30.54-71-47.21-31.9-14.5-85.76-34.81-161.19-49.22C1585.75,858.76,1399.29,847.7,1174.13,921.68ZM721.47,1330.09c56.41-91.54,118.94-170.24,185.86-233.91,83.51-79.47,174.11-135.62,269.3-166.9,223.54-73.45,408.55-62.49,524.4-40.36,136.22,26,216.06,73.87,226.73,92.54,3.17,5.55,4.74,13.13,4.74,22.61,0,18-5.71,42.94-17,73.68a652.09,652.09,0,0,1-28.13,64.53c-10.51-4.39-44.59-17.51-100.84-28.76-61.84-12.37-163-24.5-293.6-12.06-161.15,15.35-289,50-390.94,106-107.32,59-188.47,142.72-248.09,256-65.23,123.95-116.85,192.35-148.66,227.9-37.63,42.05-62,54.28-68.49,52.11-10-3.35-36.76-61.5-57-116.26C584.39,1613.17,630,1478.44,721.47,1330.09Z"/>
    </g>
    <g style="isolation: isolate">
      <path d="M1546.68,868.67c54.89-75.14,203-98.46,224.32-137.61,24-44-56-92-88-96s-48-60-88-60-68,28-196,56-140,80-60,128c58.39,35,65.64,89.25,65.29,116A1042.76,1042.76,0,0,1,1546.68,868.67Z" style="fill:#ffd251;stroke:#000;stroke-width: 12px"/>
    </g>
    <path d="M1667.91,659.88a6,6,0,0,0,1.91,8.27c6.71,4.2,15.6,26.16,14.12,47.91-0.83,12.19-5.21,28.25-21.41,35.53-35.06,15.78-106.16,2.65-217.38-40.13-66.74-25.67-97.09-23.35-110.79-16.88-8.5,4-10.7,9.52-11.05,10.58a5.9,5.9,0,0,0,3.72,7.43,6.11,6.11,0,0,0,7.67-3.64l-0.12.33c0-.05,2.72-5.31,16.4-6.7s40.25,1,89.88,20.07c116,44.6,188,57.27,226.62,39.87,16.86-7.59,27-23.81,28.45-45.66,1.62-23.79-7.6-51.31-19.74-58.9A6,6,0,0,0,1667.91,659.88Z"/>
    <path d="M1700.26,735.37a6,6,0,0,0,9.44,7.41c0.51-.63,12.75-15.28,42.6-11.77a6,6,0,1,0,1.4-11.92C1716.77,714.75,1700.92,734.53,1700.26,735.37Z"/>
    <path d="M1445.32,716.1a6.19,6.19,0,0,0-4.28,7.64c11.38,40.42-17.7,142.58-18,143.61a6.19,6.19,0,0,0,11.9,3.42c1.25-4.33,30.35-106.59,18-150.39A6.19,6.19,0,0,0,1445.32,716.1Z"/>
    <path d="M1609.17,757.67c-41.31,31.29-91.48,102.63-93.6,105.66a6.69,6.69,0,0,0,1.38,9.11,6.12,6.12,0,0,0,8.76-1.43c0.51-.72,51.13-72.71,90.84-102.79a6.69,6.69,0,0,0,1.38-9.11A6.12,6.12,0,0,0,1609.17,757.67Z"/>
    <path d="M1501,639.06a234.27,234.27,0,0,0,30,14S1533,615.06,1501,639.06Z" style="isolation: isolate"/>
    <path d="M1639,765.06s34,60,118,72l-32,6-6,26s-94-36-110-104h30Z" style="fill:#ff535d;stroke:#000;stroke-width: 9px"/>
    <g>
      <path d="M710.76,2097.06a3,3,0,0,0,.24,4.24c0.85,0.76,86.53,77,204.11,154,69.09,45.23,135.53,81.87,197.48,108.9,77.57,33.84,148.32,52.63,210.26,55.84,69.71,3.61,131.91-3.63,184.86-21.54,47.24-16,86.44-40.1,116.5-71.7,44-46.26,65.81-106.78,59.78-166.06a3,3,0,0,0-6,.61c5.85,57.53-15.35,116.33-58.16,161.32-29.39,30.88-67.77,54.48-114.08,70.15-52.23,17.67-113.67,24.81-182.62,21.24-61.21-3.17-131.24-21.79-208.13-55.33-61.63-26.88-127.76-63.35-196.56-108.39C801.25,2173.6,715.85,2097.58,715,2096.82A3,3,0,0,0,710.76,2097.06Z"/>
      <path d="M1426.36,2264.12a3,3,0,0,0-2.29,3.57c0.34,1.56,34.09,156.68,44,223.8a3,3,0,0,0,5.94-.87c-9.9-67.32-43.7-222.64-44-224.2A3,3,0,0,0,1426.36,2264.12Z"/>
      <path d="M1520.7,2251.13a3,3,0,0,0,.38,4.23c1.33,1.11,133.36,112.11,147,178.3a3,3,0,0,0,5.88-1.21c-14-68.24-143.51-177.1-149-181.7A3,3,0,0,0,1520.7,2251.13Z"/>
      <path d="M1608.75,2207.07a3,3,0,0,0,.26,4.23c1,0.9,101.94,90,111.68,101.67a3,3,0,1,0,4.61-3.84c-10-12-108.15-98.65-112.32-102.33A3,3,0,0,0,1608.75,2207.07Z"/>
      <path d="M1288.08,2264.38l-50,216a3,3,0,0,0,5.85,1.35l50-216A3,3,0,0,0,1288.08,2264.38Z"/>
      <path d="M1152.36,2249.64l-90,168a3,3,0,0,0,5.29,2.83l90-168A3,3,0,0,0,1152.36,2249.64Z"/>
      <path d="M1043,2218.79l-134,116a3,3,0,0,0,3.93,4.54l134-116A3,3,0,0,0,1043,2218.79Z"/>
      <path d="M929.39,2174.53l-94,60a3,3,0,1,0,3.23,5.06l94-60A3,3,0,1,0,929.39,2174.53Z"/>
      <path d="M858.13,2124.18l-106,32a3,3,0,1,0,1.73,5.74l106-32A3,3,0,1,0,858.13,2124.18Z"/>
    </g>
    <g style="isolation: isolate">
      <path d="M2131,1343c-18-8-18,2-36,0s-86-58-184-68-242,20-268,64c0,0-66-84-186-88s-268,92-312,100-94-22-102-2,1.73,34.32,39.87,56.16S1123,1465,1211,1505s264,46,328,32,96-58,96-58,74,56,222,46,214-42,252-94S2149,1351,2131,1343Zm-344,138c-102,6-172-36-172-36s-162,76-290,52-160-94-160-94,54-74,158-96,222-2,268,20,50,60,50,60c48-34,134-82,218-82s182,52,200,56,36,40,36,40C2071,1459,1889,1475,1787,1481Z"/>
    </g>
  </g>
</svg>
