<svg xmlns="http://www.w3.org/2000/svg" viewBox="0 0 2500 2500">
  <title>Pharaoh back</title>
  <g>
    <path d="M1949.22,757.52c25.87,172.45-42,299.94,6,365.93s-84,240-54,353.93,108,150,108,180-138,341.93-108,473.91,108,186,54,263.95-228-102-293.94-377.92-24-743.85,30-917.82S1913.23,517.56,1949.22,757.52Z" style="fill:#ffd251;isolation: isolate"/>
    <path d="M1765.54,2273.07c72.69,117.11,155.39,171.65,189.68,122.12,35.19-50.83,14.31-91.48-12.81-150.17-27.77,6.22-54.78,11.9-83.41,17C1827.26,2267.34,1796.22,2270.09,1765.54,2273.07Z" style="fill:#ff0000;isolation: isolate"/>
    <path d="M1715,1984.06c-20.71-1-41.42-3.38-62.12-5.93q3.87,20.13,8.4,39.14a933.4,933.4,0,0,0,44.64,138.33c63,0.63,126.05,1.26,189.08-1.54,4-.22,7.88-0.62,11.77-1.16-2-7-3.84-14.18-5.53-21.65-8.38-36.88-3.64-87.82,7.53-142.72C1844.18,1988.86,1779.59,1988.22,1715,1984.06Z" style="fill:#ff0000;isolation: isolate"/>
    <path d="M1955.22,1123.44c-17.67-24.3-19.63-56.94-16.35-97.08q-9.91,0-19.87-.3-100.62-4.75-201.23-4.94c-10.42,28.8-19.43,55.57-26.5,78.33-9,29.08-17.71,66.38-25.62,109.61,46.39,3,93.17,2.6,139.34,7q74.88,6.35,149.77,7C1966.94,1181.63,1971.73,1146.15,1955.22,1123.44Z" style="fill:#ff0000;isolation: isolate"/>
    <path d="M1789.73,836.63c-44.46,93.12-82.88,199.14-102.28,261.64-28.34,91.33-51.4,252.89-60.16,421.64-10.25,197.3.44,374.26,30.1,498.29,24.36,101.87,66.1,200.17,117.53,276.79,46.17,68.79,96.81,114.18,135.45,121.43,20.28,3.8,36.92-2.75,48.14-19,35.3-51,16.41-91.78-9.73-148.22-15.3-33-32.63-70.44-43.64-118.89-21.61-95.1,46.81-289.83,83.56-394.44,16.11-45.85,24.51-70.16,24.51-78.58,0-12.89-11.61-25.6-27.68-43.18-24.7-27-62-67.87-80.43-137.8-14.63-55.58,10.88-128,33.38-191.85,23.3-66.13,45.3-128.59,20-163.41-24.07-33.09-17.67-83.81-9.58-148,7.47-59.25,16.77-133,4.3-216.15-7.54-50.27-21.17-75.47-41.66-77C1881.45,677.6,1840.48,730.34,1789.73,836.63Zm122.11,1571.93c-36.58-6.86-85.29-51-130.28-118-50.91-75.85-92.25-173.23-116.39-274.19-29.49-123.3-40.1-299.46-29.89-496,8.6-165.59,32.08-330.32,59.81-419.69,19.32-62.24,57.58-167.83,101.86-260.56,47.79-100.11,88.26-154.16,114-152.21,15.77,1.2,27.65,25.49,34.36,70.24,12.31,82.06,3.09,155.2-4.32,214-8.32,66-14.89,118.06,11,153.72,22.85,31.42,1.53,92-21.05,156-22.88,65-48.82,138.59-33.57,196.54,18.9,71.84,57,113.56,82.26,141.16,14.85,16.25,25.59,28,25.59,37.78,0,7.44-10.62,37.66-24.06,75.92-19.21,54.67-45.51,129.53-64.45,203.27-22.78,88.73-29.12,152.71-19.37,195.6,11.2,49.27,28.72,87.1,44.19,120.48,26,56,43.11,93.07,10.41,140.3C1942.51,2406.51,1929,2411.78,1911.84,2408.56Z"/>
  </g>
</svg>
