<svg xmlns="http://www.w3.org/2000/svg" viewBox="0 0 2500 2500">
   <title>PepeFrogRollers1Back</title>
   <g>
      <path d="M1839,1915s-8,208,96,176,88-124,88-124,132,108,144-16-106.8-210.57-106.8-210.57S2031,1779,2039,1803s76,96,48,116-100-64-100-64-60,40-52,72S1839,1915,1839,1915Z" style="fill: #8d3d26;stroke: #000;stroke-linecap: round;stroke-linejoin: round;stroke-width: 7px"/>
      <path d="M1139,819s-24-148,184-200,284,108,308,156-140,132-136,172-116,88-192,72S1139,819,1139,819Z" style="fill: #8d3d26;stroke: #000;stroke-linecap: round;stroke-linejoin: round;stroke-width: 7px"/>
      <g>
         <ellipse cx="2039.77" cy="1548.99" rx="221.3" ry="158" transform="translate(150.1 3277.92) rotate(-79.67)" style="fill: #eb2626;stroke: #000;stroke-linecap: round;stroke-linejoin: round;stroke-width: 7px"/>
         <ellipse cx="2097.06" cy="1569.7" rx="207.89" ry="148.43" transform="translate(-26.9 3102.82) rotate(-72.64)" style="fill: #fff;stroke: #000;stroke-linecap: round;stroke-linejoin: round;stroke-width: 7px"/>
         <ellipse cx="2101" cy="1570.93" rx="179.19" ry="127.93" transform="translate(-25.31 3107.43) rotate(-72.64)" style="fill: #ff9779;stroke: #000;stroke-linecap: round;stroke-linejoin: round;stroke-width: 7px"/>
         <g>
            <path d="M2001.15,1543.93c5.11-16.39.2-30.22-1.54-29.53-2,.42-0.57,13-5.17,27.53s-10.68,26-8.79,27.09C1987,1569.94,1996.1,1560,2001.15,1543.93Z"/>
            <path d="M2004.23,1575.13c1.4,1.17,10.1-8.75,12.3-24.18,1.84-15,1.16-26.42-.5-26.8-2.13-.44-4.7,11.71-6.42,25.71C2007.7,1563.69,2002.49,1574,2004.23,1575.13Z"/>
            <path d="M2033.49,1525.9c-1.89.29-1.3,16.12-8.11,34.36-6.35,18.29-15.11,31.81-13.44,33,1.34,1.18,13.19-11.11,20.05-30.73C2039.32,1542.89,2035.44,1525.3,2033.49,1525.9Z"/>
            <path d="M2027.61,1600.14c1.33,1.41,13.52-9.44,21-27.76,3.63-9.11,5-18.53,3.22-25.22s-5.37-9.5-5.91-8.94c-0.92.66,0.87,4,1,9.65,0.33,5.61-1.5,13.5-4.83,21.91C2035.24,1586.68,2026.18,1598.87,2027.61,1600.14Z"/>
            <path d="M2064.46,1538.15c-1.93.65,1.89,14.78-3.22,31.51-4.89,16.63-12.31,29.66-10.35,30.75,1.31,0.88,11.6-10.48,17.1-28.88C2073.67,1552.57,2066.08,1537,2064.46,1538.15Z"/>
            <path d="M2095.41,1544.21c-2.14,0-2.58,14.76-9,31s-14.42,29-12.55,30.17c1.34,0.93,11.84-10,19.07-27.64C2100,1559.76,2097.12,1543.93,2095.41,1544.21Z"/>
            <path d="M2103,1561.4c1.38,5.37,0,13.66-2.84,22.64-6.11,17.82-11.58,33.33-9.13,34,1.31,0.28,9.27-12.92,15.82-32,3-9.48,4-19.51.82-26.34s-8.36-7.92-8.54-7.21C2098.4,1553.48,2101.77,1556,2103,1561.4Z"/>
            <path d="M2116.26,1590c-3.68,16.79-7.8,30.1-6,30.92s9-12,12.81-29.37,4.39-31.46,2.59-31.81C2123.68,1559.33,2119.9,1573.15,2116.26,1590Z"/>
            <path d="M2138.06,1565.86c-1.55.78,2.56,15.45-6.46,32.49-8.37,16.77-14.86,31.89-12.56,32.71,1.42,0.38,10.05-12,19-29.86,4.2-9.05,5.93-18.7,4.68-25.5S2138.79,1565.51,2138.06,1565.86Z"/>
            <path d="M2161.19,1603.64c5.3-12.77-.57-24.28-2.33-23-1.75.84,0.23,9.83-4.25,20.57-4.16,10.73-8.72,19.91-6.86,20.95C2149.21,1623.07,2156.4,1615.86,2161.19,1603.64Z"/>
            <path d="M2179.63,1589.34c-2,.32-1.54,13.35-7.46,28.27s-11.05,27.69-9,28.55c1.54,0.66,9.37-10.19,15.63-26.16C2185.22,1603.57,2181.5,1588.73,2179.63,1589.34Z"/>
            <path d="M2200,1596.53c-2.08.09-3,11.54-8.17,24.49s-10.54,23.64-8.72,24.69c1.49,0.91,9.53-8.09,15.26-22.18C2204.07,1609.12,2201.82,1596.27,2200,1596.53Z"/>
            <path d="M2031.27,1472.85c3.3-11.16,3.77-20.79,1.92-21.15s-5.4,8.24-8.63,19.17-4.71,20.3-2.85,20.89S2027.93,1484,2031.27,1472.85Z"/>
            <path d="M2040.66,1499.32c1.32,1,10.24-7.19,15.1-21.64,2.34-7.2,2.14-14.76,0-19.54s-4.82-6.67-5.47-6.15c-1.44,1.18,3.55,10.86-1.22,23.62C2044.93,1488.18,2038.86,1498.14,2040.66,1499.32Z"/>
            <path d="M2064,1505.77c0.43,0.72,3.62,0,7.3-3.58s6.82-10.47,7.08-18c0.45-15.27-6.15-25.69-7.66-25-2,.66,1.15,11.69.67,24.62C2071.4,1497.07,2063,1504.12,2064,1505.77Z"/>
            <path d="M2102.61,1485.11c4.06-12.74,0-23.36-1.71-22.78-2.07.41-1.45,9.93-5,20.69s-8,19.77-6.14,20.82C2091.24,1504.76,2098.43,1497.45,2102.61,1485.11Z"/>
            <path d="M2118,1493.82c-0.9,14.48-8.66,23.39-7.45,24.86,0.95,2,13.32-7.28,14.41-24.15,1.43-16.19-4.27-28.12-5.89-27.54C2117.06,1467.48,2119.37,1479.59,2118,1493.82Z"/>
            <path d="M2134.64,1528c1.72,0.81,7.43-9.29,9.28-22.91,1.74-13.4,2.14-23.93.35-24.42-2-.53-5.57,10.24-7.27,23.36S2132.81,1527.24,2134.64,1528Z"/>
            <path d="M2150.31,1534.89c1.41,0.93,9.54-7.66,13.84-21.87,4.38-14.61-1-26.7-2.75-25.83-1.94.58-.14,11.37-4,23.93S2148.45,1533.82,2150.31,1534.89Z"/>
            <path d="M2170.64,1523.5c-2.81,12.16-6.87,22-5,23,1.5,0.89,8.65-7.85,11.84-21.44,3-13.68-.1-24.7-1.84-24.44C2173.54,1500.76,2173.35,1511.33,2170.64,1523.5Z"/>
            <path d="M2195.66,1506.33c-2,0-3.64,9.35-6.72,20.42s-6.19,20.17-4.39,21.09c1.61,0.88,7.81-7.22,11.14-19.25S2197.51,1506.3,2195.66,1506.33Z"/>
            <path d="M2218.23,1509.87c-2,.08-3.56,10.7-7.65,23.5s-6.82,23.93-4.89,24.57c1.73,0.57,7.28-9.11,11.59-22.55C2221.64,1521.77,2220.14,1509.72,2218.23,1509.87Z"/>
            <path d="M1981,1610.5c4-7.18,6.11-14.58,6.06-20.19s-2-8.86-2.77-8.55c-1.33.59-1.49,12.22-9.41,25.34a87.71,87.71,0,0,1-6.75,10.69q0.24,3.92.63,7.77A49.34,49.34,0,0,0,1981,1610.5Z"/>
            <path d="M1995.24,1600.64c-1.93,0-3.51,14.16-13,28.82-3.67,5.88-7.47,11.12-10.61,15.4q0.65,3.23,1.41,6.39a84.8,84.8,0,0,0,15.17-18.13C1998.64,1617,1997.25,1600.24,1995.24,1600.64Z"/>
            <path d="M2001,1653c9.48-10.67,10.13-23.43,7.86-23.34-1.74-.06-4.87,9.37-13.2,18.81-7.89,9.92-16.88,13.47-16.86,15.15C1978.62,1666.14,1992.05,1664.42,2001,1653Z"/>
            <path d="M2017.26,1659.28c-11.2,15.18-24.72,22.4-24.23,23.95,0.42,2.32,17.58-3.07,29.82-19.72,6.11-8.1,9.79-17.06,10.11-24s-1.93-10.92-2.68-10.62c-1.07.29-.64,4.16-2.21,9.84C2026.64,1644.42,2022.83,1651.86,2017.26,1659.28Z"/>
            <path d="M2028.5,1686.83c6.28-3.55,12.21-11.3,16.3-20.55,8.78-18.6,5.6-36.57,3-35.66-1.19.39-1.3,15.53-9.35,32.82-3.76,8.53-8.39,15.61-12.73,19.34s-8.15,4-8.24,5.08C2017.07,1688.67,2022.07,1690.58,2028.5,1686.83Z"/>
            <path d="M2051.78,1692.51c6.43-3,13.71-9.94,18.66-19.29s6.67-19.1,6-26.06-3.15-10.8-3.91-10.46c-1.5.5,1.28,16.29-8.25,33.25-8.52,17.67-23.8,22.83-23.53,24.36C2040.78,1695.11,2045.37,1695.62,2051.78,1692.51Z"/>
            <path d="M2096.85,1684c5.11-9.15,8.05-18.42,8.47-25.46s-1.38-11.33-2.21-11.08c-1.29.4-2,16-12.35,33.1-9.36,17.58-22,26.87-21.59,28.15C2070,1711.36,2086.93,1702.91,2096.85,1684Z"/>
            <path d="M2128.27,1673.34c0.38-5.51-1.34-8.69-2.17-8.48-1.54.51-2.14,11.76-11.17,23.61-8.33,12-17.16,20.4-15.93,22,1,1.53,12.5-4.88,21.69-18C2125.21,1685.91,2128,1678.83,2128.27,1673.34Z"/>
            <path d="M2145.39,1667.69c-2,0-4.21,9.17-10.09,19.73s-10.7,19.56-9,20.73c1.48,1.06,9-6.08,15.22-17.46C2147.93,1679.16,2147.39,1667.55,2145.39,1667.69Z"/>
            <path d="M2105.24,1415.71c0.11-9-5.79-14.32-7.13-13-1.63,1.23.31,6.48,0.13,12.94s-1.5,12.37.34,13.25C2100.13,1429.75,2105,1424.48,2105.24,1415.71Z"/>
            <path d="M2127.25,1413c-0.39-8.52-5-13.83-6.6-13-1.83.87-.63,6.63-0.4,13.17s-0.93,12.08.87,13C2122.69,1427.2,2127.48,1421.62,2127.25,1413Z"/>
            <path d="M2136.8,1433.08c1.65,0.74,6.12-7.19,3.93-17.69s-9.33-15.93-10.61-14.66c-1.59,1.3,2,7.8,3.76,16.12S2134.84,1432.45,2136.8,1433.08Z"/>
            <path d="M2158.65,1439.9c0.65,0.51,3.22-1,5-5.32s1.34-11.16-1.19-17.1c-5.4-11.77-11.16-19-12.71-18.66-2.23.68,1.43,10.85,6.21,21.26C2161.22,1430.68,2157.27,1438.56,2158.65,1439.9Z"/>
            <path d="M2175.78,1446.38c1.86,0.58,5.35-10.06,2.51-22.6a80.69,80.69,0,0,0-5.07-15.63q-2.33-1.34-4.73-2.55c-0.18,3.76,1.07,11.3,2.93,19.57C2174,1436.63,2173.84,1445.9,2175.78,1446.38Z"/>
            <path d="M2197.5,1439.25a86.68,86.68,0,0,0-5-16.52q-2.38-2.3-4.88-4.42c-0.52,3.39,1,12.27,3,22.2,2.59,12.41,1.57,22.22,3.42,22.9S2200.36,1452.83,2197.5,1439.25Z"/>
            <path d="M2043.74,1719.67c0.41-3.57-.2-5.65-1.11-5.73-2.1-.14-3.87,7-10.63,10.84-4.24,2.41-8.7,2.95-11.61,3.49q3.66,2.65,7.54,5a20.91,20.91,0,0,0,7.58-2.39A17.84,17.84,0,0,0,2043.74,1719.67Z"/>
            <path d="M2061.57,1721.51c-1.78-.93-5.45,2.67-10.39,5.87s-9.5,4.93-9.56,6.94c-0.21,1.91,6.79,3.34,13.42-1.09S2063.27,1722.26,2061.57,1721.51Z"/>
            <path d="M2065.58,1732.37c-3.52,3.1-6.27,6.26-5.38,8.06s5.71,1,10.1-2.89c4.3-4,5.31-9.08,3.67-9.89C2072.16,1726.69,2069,1729.18,2065.58,1732.37Z"/>
            <path d="M2020.77,1707.12c-1.65-1.2-5.93,1.81-11,5.43-1.41,1-2.75,2-3.94,2.89q2.32,2.46,4.76,4.75a26.2,26.2,0,0,0,3.24-1.94C2019.82,1714,2022.28,1708.17,2020.77,1707.12Z"/>
            <path d="M2002.88,1691.55c-1.2-1.43-5.54.05-9.2,4.13a18.12,18.12,0,0,0-1.52,2.05q1.83,2.89,3.79,5.63a31.24,31.24,0,0,0,3-3.08C2002.08,1696.79,2004.17,1693.07,2002.88,1691.55Z"/>
         </g>
      </g>
      <g>
         <ellipse cx="1963.87" cy="1055.99" rx="158" ry="221.3" transform="translate(-139.25 1796.77) rotate(-47.67)" style="fill: #eb2626;stroke: #000;stroke-linecap: round;stroke-linejoin: round;stroke-width: 7px"/>
         <ellipse cx="2011.79" cy="1018.37" rx="148.43" ry="207.89" transform="translate(-178.06 1555.91) rotate(-40.64)" style="fill: #fff;stroke: #000;stroke-linecap: round;stroke-linejoin: round;stroke-width: 7px"/>
         <ellipse cx="2014.92" cy="1015.68" rx="127.93" ry="179.19" transform="translate(-175.55 1557.3) rotate(-40.64)" style="fill: #ff9779;stroke: #000;stroke-linecap: round;stroke-linejoin: round;stroke-width: 7px"/>
         <g>
            <path d="M1939.11,1086c-11.19-13-25.52-16.18-25.86-14.34-0.71,1.92,10.74,7.39,20.61,19s16.4,22.84,18.32,21.81C1953.69,1111.8,1950.06,1098.84,1939.11,1086Z"/>
            <path d="M1967.21,1100c1.74-.57-2.07-13.2-14-23.24-11.72-9.49-21.79-15-23-13.78-1.5,1.58,7.44,10.19,18.4,19.06C1959.34,1091,1965.33,1100.85,1967.21,1100Z"/>
            <path d="M1941,1049.07c-0.76,1.76,13,9.64,24.84,25.09,12.15,15.08,19,29.67,20.89,28.9,1.71-.51-2.43-17.08-15.43-33.29C1958.45,1053.13,1941.48,1047.1,1941,1049.07Z"/>
            <path d="M2000.8,1093.4c1.9-.38-0.84-16.47-12.42-32.51-5.8-7.9-13.07-14.06-19.68-16.1s-10.9-.48-10.71.28c0.07,1.12,3.87,1.4,8.72,4.25,4.93,2.7,10.66,8.42,16,15.71C1993.43,1079.79,1999,1093.94,2000.8,1093.4Z"/>
            <path d="M1967.76,1029.29c-0.47,2,13.53,6.23,25,19.43,11.52,13,18.63,26.16,20.6,25.07,1.44-.64-2.74-15.39-15.44-29.8C1984.86,1029.13,1967.67,1027.34,1967.76,1029.29Z"/>
            <path d="M1989.29,1006.26c-1.12,1.82,11.15,10,21.53,24.1s17,27.6,18.94,26.63c1.5-.64-2.21-15.34-13.33-30.82C2004.89,1010.64,1990,1004.66,1989.29,1006.26Z"/>
            <path d="M2007.88,1009c5.29,1.67,11.57,7.26,17.7,14.41,11.87,14.62,22.13,27.48,24,25.77,0.93-1-6-14.71-18.73-30.36-6.47-7.55-14.41-13.76-21.9-14.65s-11.15,2.9-10.64,3.43C1998.74,1008.63,2002.63,1007.09,2007.88,1009Z"/>
            <path d="M2039.16,1012.83c12.29,12,21.39,22.56,23.06,21.46s-5.39-14-18.12-26.42-24.35-20.39-25.61-19.05S2026.82,1000.82,2039.16,1012.83Z"/>
            <path d="M2030.26,981.56c-0.16,1.73,14.46,6,24.13,22.69,9.79,16,19.18,29.5,21.09,28,1.08-1-4.85-14.88-15.28-31.89-5.45-8.36-12.72-14.94-19.15-17.48S2030.35,980.76,2030.26,981.56Z"/>
            <path d="M2074.56,982c-8-11.26-20.89-12.38-20.7-10.19-0.22,1.93,8.46,5,15.19,14.5,6.9,9.21,12.26,17.95,14.13,16.92C2084.68,1002.42,2082.38,992.5,2074.56,982Z"/>
            <path d="M2072.2,958.75c-0.78,1.84,10.5,8.38,20,21.3s17.63,24,19.42,22.8c1.37-1-3.68-13.35-13.91-27.12C2087.23,961.55,2072.67,956.85,2072.2,958.75Z"/>
            <path d="M2089.11,945.26c-1,1.81,8.18,8.67,16.43,19.91s14.46,21.47,16.32,20.48c1.56-.78-1.82-12.37-10.73-24.69C2101.93,948.5,2089.83,943.6,2089.11,945.26Z"/>
            <path d="M1894.79,1022.84c-7.72-8.71-15.64-14.21-16.92-12.84s4.13,8.95,11.68,17.48,14.72,14.75,16.21,13.48S1902.44,1031.56,1894.79,1022.84Z"/>
            <path d="M1922.22,1028.9c1.56-.58-0.67-12.5-10.36-24.27-4.87-5.8-11.38-9.63-16.56-10.36s-8.21.55-8.12,1.38c0.24,1.85,11.09,2.74,19.38,13.55C1915,1019.38,1920.27,1029.81,1922.22,1028.9Z"/>
            <path d="M1940,1012.56c0.84,0,2-3.05.83-8.09s-5.26-11.33-11.54-15.56c-12.72-8.47-25-8.4-25.24-6.74-0.51,2.07,10.52,5.21,21.23,12.47C1936.6,1001.64,1938.11,1012.53,1940,1012.56Z"/>
            <path d="M1943,968.83c-8.66-10.2-19.82-12.35-20.22-10.62-0.74,2,7.65,6.49,14.91,15.18s12.54,17.24,14.41,16.24C1953.63,988.89,1951.24,978.92,1943,968.83Z"/>
            <path d="M1958.55,960.37c11.8,8.44,15.25,19.73,17.13,19.49,2.22,0.27.89-15.16-12.85-25-13-9.79-26.11-11.28-26.48-9.6C1935.7,947.24,1947.19,951.7,1958.55,960.37Z"/>
            <path d="M1996.37,964.43c1.59-1-3.94-11.23-14.51-20-10.44-8.58-19.16-14.49-20.53-13.24s5.74,10.15,16,18.54C1987.36,958.08,1994.72,965.55,1996.37,964.43Z"/>
            <path d="M2010.48,954.77c1.53-.71-1.44-12.15-11.22-23.32-10.07-11.45-23.2-13.26-23.36-11.35-0.54,2,9.57,6.14,18.18,16.06S2008.6,955.77,2010.48,954.77Z"/>
            <path d="M2011.59,931.48c8.82,8.82,15,17.48,16.83,16.42,1.55-.8-2.07-11.49-11.91-21.4-10-9.78-21-13-21.7-11.39C1993.86,917,2002.72,922.74,2011.59,931.48Z"/>
            <path d="M2010.29,901.17c-1.1,1.7,6,8,13.76,16.52s13.82,15.93,15.56,14.9-2-10.45-10.42-19.65S2011.24,899.59,2010.29,901.17Z"/>
            <path d="M2025.26,883.9c-1,1.72,7.19,8.69,15.88,18.94s16.68,18.47,18.25,17.16c1.4-1.17-3.87-11-13-21.77S2026.14,882.2,2025.26,883.9Z"/>
            <path d="M1984.87,1138.45c-4-7.16-9.12-12.91-13.91-15.84s-8.55-3-8.72-2.18c-0.21,1.44,9.58,7.73,16.51,21.41a87.74,87.74,0,0,1,5.48,11.39q3.45,1.87,6.93,3.59A49.36,49.36,0,0,0,1984.87,1138.45Z"/>
            <path d="M1984.07,1121.11c-1,1.65,10.16,10.48,17.53,26.32,3,6.23,5.47,12.22,7.44,17.16q3.08,1.15,6.17,2.19a84.78,84.78,0,0,0-7.34-22.48C1999.71,1126.88,1984.8,1119.19,1984.07,1121.11Z"/>
            <path d="M2031.53,1144c-4-13.69-14.5-21-15.63-19-1,1.44,5.37,9.1,9,21.16,4.23,11.95,2.48,21.45,3.91,22.32C2030.81,1169.91,2036.47,1157.61,2031.53,1144Z"/>
            <path d="M2045.47,1133.51c6.94,17.54,5.9,32.84,7.47,33.24,2.2,0.87,6.71-16.53-.93-35.74-3.63-9.48-9.28-17.34-15-21.3s-10.29-4.15-10.42-3.36c-0.32,1.06,3.19,2.74,7.17,7.09S2042.13,1124.86,2045.47,1133.51Z"/>
            <path d="M2074.79,1138.58c0.32-7.21-3.11-16.35-8.8-24.71-11.12-17.3-28-24.12-28.68-21.4-0.29,1.22,12.48,9.33,22.88,25.32,5.24,7.71,8.79,15.39,9.65,21,1,5.67-.91,9-0.06,9.69C2070.3,1149.25,2074.57,1146,2074.79,1138.58Z"/>
            <path d="M2091.94,1121.84c0.87-7-1.16-16.89-6.47-26s-12.67-15.77-18.93-18.88-10.83-3.06-10.94-2.23c-0.37,1.54,14.49,7.55,23.82,24.61,10.47,16.59,6.75,32.28,8.19,32.86C2088.32,1132.55,2091.19,1128.93,2091.94,1121.84Z"/>
            <path d="M2108.64,1079.13c-5-9.18-11.36-16.59-17.11-20.67s-10.34-4.83-10.57-4c-0.35,1.31,12.54,10.17,21.53,28,9.95,17.26,11.13,32.89,12.43,33.23C2117.57,1116.42,2119.39,1097.55,2108.64,1079.13Z"/>
            <path d="M2116.21,1046.82c-4.47-3.24-8.08-3.47-8.34-2.65-0.38,1.57,8.84,8,14.11,22,5.72,13.39,8.2,25.36,10.19,25.15s2.49-13.19-3.77-27.93C2125.26,1056.08,2120.72,1050,2116.21,1046.82Z"/>
            <path d="M2120.5,1029.31c-1,1.68,5.55,8.43,11.39,19s10.92,19.44,12.8,18.64c1.68-.7-0.4-10.84-6.74-22.15C2131.57,1033.22,2121.44,1027.53,2120.5,1029.31Z"/>
            <path d="M1885.53,929.83c-7.59-4.87-15.21-2.68-14.83-.86,0.17,2,5.66,3.17,11,6.74s9.69,7.83,11.42,6.74C1894.73,941.61,1892.81,934.72,1885.53,929.83Z"/>
            <path d="M1894.89,909.73c-7.43-4.18-14.38-3.08-14.48-1.27-0.23,2,5.29,4.05,11,7.32s9.75,7.19,11.5,6.16C1904.52,921.13,1902.33,914.1,1894.89,909.73Z"/>
            <path d="M1917,912.28c1.5-1-2.85-9-12.92-12.7C1894,896,1885.61,899,1886,900.8c0.27,2,7.66,2.46,15.67,5.35S1915.41,913.6,1917,912.28Z"/>
            <path d="M1934.35,897.36c0.78-.28.89-3.25-1.86-7.06s-8.76-7.05-15.13-8c-12.84-1.66-22-.61-22.55.89-0.6,2.25,10,4.54,21.32,6C1927.89,890.29,1932.48,897.81,1934.35,897.36Z"/>
            <path d="M1948.92,886.27c1.48-1.27-5.7-9.86-17.84-14.1a80.61,80.61,0,0,0-15.94-4q-2.37,1.26-4.67,2.66c3.09,2.15,10.15,5.08,18.15,7.88C1939.71,882.59,1947.48,887.65,1948.92,886.27Z"/>
            <path d="M1954.38,864.07a86.7,86.7,0,0,0-16.67-4.5q-3.21.8-6.33,1.8c2.6,2.24,10.92,5.68,20.42,9.21,11.9,4.37,19.68,10.44,21.24,9.23S1967.41,868.84,1954.38,864.07Z"/>
            <path d="M2110.72,1143.06c-2.8-2.24-4.9-2.83-5.44-2.09-1.23,1.7,3.87,7,3.56,14.75-0.21,4.87-2.11,8.94-3.19,11.7q4.19-1.7,8.2-3.77a20.9,20.9,0,0,0,2-7.7A17.83,17.83,0,0,0,2110.72,1143.06Z"/>
            <path d="M2121.73,1128.9c-1.73,1-.62,6-0.53,11.93s-0.85,10.67.82,11.79c1.51,1.19,6.43-4,6.18-12S2123.26,1127.86,2121.73,1128.9Z"/>
            <path d="M2133.06,1131.27c0.76,4.62,2,8.63,4,8.84,1.84,0.21,3.85-4.33,2.9-10.1-1.14-5.78-4.88-9.31-6.45-8.35C2131.73,1122.67,2132.16,1126.69,2133.06,1131.27Z"/>
            <path d="M2087.91,1155.89c-1.89.76-1.61,6-1.21,12.18,0.09,1.72.2,3.37,0.36,4.88q3.31-.66,6.55-1.52a26.17,26.17,0,0,0,.08-3.77C2093.2,1160.31,2089.59,1155.16,2087.91,1155.89Z"/>
            <path d="M2065.22,1162.81c-1.85.26-2.89,4.72-1.37,10a17.88,17.88,0,0,0,.94,2.37q3.42,0,6.79-.23a30.94,30.94,0,0,0-1-4.17C2069.24,1166.26,2067.19,1162.52,2065.22,1162.81Z"/>
         </g>
      </g>
      <path d="M1401.32,941.43s0-168,162-204,185.59,80.31,230.59,86.31,63-6,117,15c0,0-99,12-87,150S2008,1256.21,2127.47,1205c0,0-12.56,41.81,11.44,68.82s57,81,66,120c0,0-57-84-186-9s-120,261-51,336,123,48,123,48-18,111-123,90-252-129-279-201-137.25-424-178.14-483.52S1401.32,941.43,1401.32,941.43Z" style="fill: #8d3d26;stroke: #000;stroke-linecap: round;stroke-linejoin: round;stroke-width: 7px"/>
      <path d="M1647,751c0.26,1.39-17.72,2.54-43.49,13.91-25.74,11-57.73,35.18-81.2,71.25-23.75,35.83-35.52,73.79-40.81,101.4-5.39,27.76-5.27,45.48-6.5,45.45-0.7.06-2.61-17.8,1.62-46.3a261.62,261.62,0,0,1,39.86-104.43c24.16-37.17,58.06-61.83,85.11-71.93C1628.72,749.82,1647.09,750.49,1647,751Z"/>
      <path d="M1707,807c0.06,1.3-15.41.9-38.94,7.2-23.45,6-54.42,21.3-80.26,48-26,26.51-41.93,56.93-51.1,79.46S1524.14,979.27,1523,979c-0.75-.12.88-15.54,9.07-39.11,8.14-23.38,23.8-55.13,50.73-82.6,26.75-27.69,59.6-43,84.07-47.9C1691.48,804.16,1707.09,806.38,1707,807Z"/>
      <path d="M1743,835c0.16,1.14-10.61,2.65-26.73,8.65a155.2,155.2,0,0,0-55.76,35.81,142.17,142.17,0,0,0-34.4,56.4c-5.22,16.36-5.95,27.24-7.11,27.14-0.75,0-1.82-11.11,2.35-28.49,4-17.27,14.8-40.53,34.18-60s42.16-30.71,59.16-35.58S1743,834.23,1743,835Z"/>
      <path d="M1803,851c0.31,1.09-7.62,3.49-18.49,10.65s-24.36,19.31-35.82,35.62c-23.8,32.63-28,66.09-29.68,65.73-2.23.42-1-35.52,24-69.79,12-17.05,26.87-29.47,39-35.82S1802.88,850.22,1803,851Z"/>
      <path d="M1371,635c0.35,1.06-9.51,4.46-24.09,12.29-14.41,7.8-33.86,20.77-48.15,41.17a100,100,0,0,0-18,59.72c0.41,16.43,3.35,26.52,2.2,26.82-0.68.26-5.4-9.39-7.15-26.54-1.89-16.88,1.64-42.19,17.17-64,15.32-21.83,36.31-34.73,51.7-41.61C1360.33,635.94,1370.79,634.22,1371,635Z"/>
      <path d="M1443,631c1.64,2.28-38.46,15.22-66.69,54.4-28.08,39.72-22.71,82.29-25.31,81.6-0.79.08-3-9.82-1.81-26.1a119.06,119.06,0,0,1,21.4-59.53c14.52-20.62,33.61-33.89,47.91-41.29S1442.71,630.22,1443,631Z"/>
      <path d="M1491,699c0,1.22-8.12.4-19.59,4.9s-25.5,14.72-37.33,29.61c-24.54,29.86-29.55,61.89-31.08,61.49-2.38.4-.25-34.34,25.63-65.89,12.43-15.7,28.26-26.4,41.2-29.91S1491.23,698.34,1491,699Z"/>
   </g>
</svg>
