<svg xmlns="http://www.w3.org/2000/svg" viewBox="0 0 2500 2500">
   <title>PepeFrogRollers1</title>
   <g>
      <path d="M642,1551s88,164,56,324-156,196-216,108,8-180,8-180-172,128-196,0,56-236,124-248c0,0-100,60-68,116s168-8,168-8,32-4,28,20-48,196,4,200,92-128,60-200S618,1527,642,1551Z" style="fill: #8d3d26;stroke: #000;stroke-linecap: round;stroke-linejoin: round;stroke-width: 7px"/>
      <g>
         <ellipse cx="743.99" cy="1523" rx="221.3" ry="158" transform="translate(-950.49 1565.48) rotate(-65.4)" style="fill: #eb2626;stroke: #000;stroke-linecap: round;stroke-linejoin: round;stroke-width: 7px"/>
         <ellipse cx="794.4" cy="1557.19" rx="207.89" ry="148.43" transform="translate(-948.08 1416.92) rotate(-58.37)" style="fill: #fff;stroke: #000;stroke-linecap: round;stroke-linejoin: round;stroke-width: 7px"/>
         <ellipse cx="797.92" cy="1559.36" rx="179.19" ry="127.93" transform="translate(-948.25 1420.94) rotate(-58.37)" style="fill: #ff9779;stroke: #000;stroke-linecap: round;stroke-linejoin: round;stroke-width: 7px"/>
         <g>
            <path d="M707.81,1508.57c9-14.63,7.64-29.24,5.79-29-2-.09-3.76,12.48-11.8,25.41s-16.76,22.58-15.2,24.09C687.72,1530.3,699,1522.9,707.81,1508.57Z"/>
            <path d="M703.1,1539.58c1.07,1.48,11.94-6,17.87-20.4,5.47-14.06,7.64-25.32,6.12-26.1-2-1-7.44,10.19-12.55,23.33C709.29,1529.34,701.7,1538.06,703.1,1539.58Z"/>
            <path d="M743.6,1499.08c-1.9-.19-5.23,15.3-16.33,31.3-10.67,16.16-22.49,27.1-21.17,28.7,1,1.48,15.52-7.52,27-24.84C745.06,1517,745.63,1499,743.6,1499.08Z"/>
            <path d="M719.6,1569.57c0.94,1.7,15.43-5.82,27.19-21.73,5.76-7.93,9.41-16.72,9.34-23.65s-2.86-10.53-3.53-10.12c-1,.41-0.15,4.12-1.39,9.6-1.07,5.52-4.78,12.72-10.08,20C730.31,1558.41,718.52,1568,719.6,1569.57Z"/>
            <path d="M770.6,1518.58c-2,.15-1.81,14.79-10.89,29.74-8.84,14.92-19.24,25.71-17.61,27.25,1.05,1.17,13.83-7.3,23.69-23.78C776,1534.82,772.43,1517.9,770.6,1518.58Z"/>
            <path d="M799.1,1532.08c-2.08-.51-6.14,13.66-16.4,27.85s-21.12,24.56-19.6,26.15c1.07,1.23,13.94-6.78,25.3-22.09C799.67,1548.27,800.82,1532.23,799.1,1532.08Z"/>
            <path d="M802.17,1550.6c0,5.55-3.39,13.23-8.34,21.24-10.31,15.76-19.43,29.45-17.23,30.73,1.2,0.59,12.17-10.24,23.21-27.09,5.22-8.46,8.71-17.91,7.29-25.32s-6.15-9.73-6.5-9.09C799.71,1541.8,802.37,1545,802.17,1550.6Z"/>
            <path d="M808,1581.58c-7.71,15.36-15,27.25-13.42,28.49s11.66-9.39,19.65-25.3,12-29.4,10.35-30.19C822.76,1553.7,815.7,1566.16,808,1581.58Z"/>
            <path d="M835.1,1563.57c-1.7.37-1.33,15.61-14.27,29.89-12.24,14.19-22.26,27.25-20.23,28.61,1.28,0.72,12.7-9.15,25.73-24.27,6.3-7.74,10.36-16.66,10.82-23.56S835.88,1563.42,835.1,1563.57Z"/>
            <path d="M848.2,1605.89c8.28-11.07,5.43-23.67,3.4-22.82-1.91.38-2.2,9.58-9.19,18.89-6.67,9.37-13.36,17.14-11.81,18.61C831.8,1621.77,840.54,1616.55,848.2,1605.89Z"/>
            <path d="M869.59,1596.57c-2-.18-4.79,12.56-14.19,25.56s-17.54,24.12-15.81,25.44c1.34,1,11.6-7.57,21.59-21.5C871.5,1611.74,871.55,1596.45,869.59,1596.57Z"/>
            <path d="M887.59,1608.57c-2-.42-5.77,10.44-14,21.71s-16,20.31-14.54,21.78c1.22,1.25,11.23-5.5,20.25-17.74C888.41,1621.77,889.39,1608.76,887.59,1608.57Z"/>
            <path d="M754.52,1447.11c5.95-10,8.78-19.22,7.07-20s-7.27,6.66-13.09,16.45-9.57,18.51-7.91,19.55S748.55,1457.05,754.52,1447.11Z"/>
            <path d="M757.1,1475.08c1,1.31,11.7-4.44,20-17.25,4-6.4,5.71-13.78,4.82-18.93s-3-7.65-3.79-7.31c-1.69.79,0.77,11.4-7,22.59C764,1465.34,755.65,1473.5,757.1,1475.08Z"/>
            <path d="M778.1,1487.08c0.24,0.8,3.5.94,8-1.67s9.19-8.46,11.31-15.73c4.2-14.69.37-26.42-1.27-26.1-2.12.14-1.76,11.61-5.42,24C787.44,1480.48,777.54,1485.23,778.1,1487.08Z"/>
            <path d="M820.64,1476.57c7.08-11.35,5.73-22.64,4-22.49-2.1-.11-3.86,9.26-9.92,18.83s-12.6,17.19-11.08,18.67C804.78,1492.82,813.54,1487.5,820.64,1476.57Z"/>
            <path d="M833.44,1488.82c-4.44,13.81-14.15,20.54-13.35,22.25,0.42,2.2,14.71-3.77,19.92-19.85,5.37-15.34,2.79-28.31,1.08-28.14C839,1463.05,838.24,1475.36,833.44,1488.82Z"/>
            <path d="M841.09,1526.08c1.47,1.2,9.5-7.17,14.64-19.91,5-12.56,8-22.66,6.36-23.58s-7.92,8.55-12.8,20.85C844.4,1515.56,839.52,1524.85,841.09,1526.08Z"/>
            <path d="M854.59,1536.58c1.14,1.25,11.13-5.07,18.8-17.79,7.84-13.08,5.56-26.13,3.7-25.71-2,.08-2.94,11-9.76,22.21S853.06,1535.09,854.59,1536.58Z"/>
            <path d="M877.11,1530.55c-5.72,11.09-12.08,19.62-10.52,21,1.24,1.23,10.32-5.48,16.76-17.86,6.27-12.52,6-24,4.24-24.14C885.53,1509.23,882.73,1519.43,877.11,1530.55Z"/>
            <path d="M905.59,1520.08c-2-.53-5.84,8.16-11.55,18.14s-11,18-9.45,19.36c1.34,1.25,9.35-5.07,15.54-15.91S907.38,1520.5,905.59,1520.08Z"/>
            <path d="M926.59,1529.08c-1.94-.41-6.09,9.5-13.2,20.89s-12.51,21.51-10.79,22.61c1.54,1,9.3-7,16.79-19C927,1541.45,928.48,1529.4,926.59,1529.08Z"/>
            <path d="M671.83,1568.12c5.61-6,9.52-12.62,10.85-18.07s0.29-9.07-.58-9c-1.43.24-4.45,11.48-15.37,22.24a87.82,87.82,0,0,1-9.18,8.69q-0.73,3.86-1.31,7.69A49.34,49.34,0,0,0,671.83,1568.12Z"/>
            <path d="M688.1,1562.07c-1.88-.45-6.89,12.86-19.73,24.72-5,4.79-10,8.94-14.08,12.31q-0.16,3.29-.21,6.54a84.82,84.82,0,0,0,19.18-13.83C687.38,1578.73,690.16,1562.18,688.1,1562.07Z"/>
            <path d="M680.73,1614.25c11.81-8,15.6-20.21,13.37-20.68-1.67-.49-7,7.88-17.42,15-10.09,7.67-19.68,8.9-20.07,10.52C655.86,1621.46,669.3,1623.1,680.73,1614.25Z"/>
            <path d="M695,1624.33c-14.6,12-29.48,15.62-29.39,17.24-0.16,2.36,17.79,1.35,33.76-11.77,7.92-6.35,13.69-14.12,15.72-20.78s0.82-11.06,0-10.95c-1.11,0-1.64,3.87-4.57,9S702.22,1618.52,695,1624.33Z"/>
            <path d="M699.09,1653.81c7-1.89,14.62-7.94,20.86-15.9,13.1-15.86,14.44-34.06,11.65-33.83-1.25.09-5.09,14.73-17.15,29.5-5.75,7.34-12,13.06-17.11,15.6-5.08,2.7-8.89,1.88-9.24,2.89C687.56,1652.78,691.94,1655.86,699.09,1653.81Z"/>
            <path d="M720.26,1665c7-1.31,15.73-6.25,22.84-14.09s11.17-16.87,12.22-23.78-0.39-11.25-1.21-11.1c-1.57.12-2.78,16.1-16.19,30.19-12.61,15-28.69,16.26-28.81,17.81C709,1664.86,713.27,1666.49,720.26,1665Z"/>
            <path d="M766,1667.94c7.21-7.61,12.35-15.87,14.48-22.59s1.45-11.32.59-11.28c-1.35.07-5.87,15-20.13,29-13.41,14.73-27.94,20.62-27.87,22C733.23,1687.8,751.76,1683.8,766,1667.94Z"/>
            <path d="M799.11,1665.32c1.73-5.25.84-8.75,0-8.75-1.61.11-5,10.87-16.65,20.13-11,9.53-21.66,15.54-20.85,17.37,0.63,1.74,13.32-1.65,25.45-12.09C793,1676.76,797.48,1670.57,799.11,1665.32Z"/>
            <path d="M817.1,1664.07c-1.9-.45-6.34,7.85-14.64,16.64s-15.19,16.32-13.86,17.86c1.18,1.39,10.2-3.68,19-13.17C816.74,1675.81,819.07,1664.43,817.1,1664.07Z"/>
            <path d="M840.3,1410c2.33-8.71-2.08-15.3-3.7-14.38-1.89.78-1.3,6.35-3.06,12.57s-4.5,11.62-2.94,12.92C831.88,1422.32,837.85,1418.39,840.3,1410Z"/>
            <path d="M862.29,1412.76c1.72-8.35-1.44-14.63-3.2-14.18-2,.4-2.25,6.27-3.63,12.67s-3.88,11.48-2.37,12.83C854.37,1425.41,860.39,1421.17,862.29,1412.76Z"/>
            <path d="M866.59,1434.58c1.42,1.13,7.7-5.46,8.17-16.17,0.31-10.66-5.12-17.74-6.67-16.82-1.86.87,0,8-.33,16.55S864.85,1433.48,866.59,1434.58Z"/>
            <path d="M886.09,1446.58c0.5,0.65,3.36-.14,6.16-3.92s4-10.49,3.06-16.86c-2.33-12.73-6.13-21.18-7.71-21.21-2.33.11-1.29,10.87,0.78,22.13C890.85,1438.27,885.09,1444.93,886.09,1446.58Z"/>
            <path d="M901.09,1457.08c1.66,1,7.66-8.43,8-21.28a80.74,80.74,0,0,0-1.06-16.4q-1.92-1.87-4-3.64c-1.1,3.59-1.75,11.22-2,19.69C901.79,1447.19,899.34,1456.13,901.09,1457.08Z"/>
            <path d="M923.9,1455.52a86.66,86.66,0,0,0-.79-17.25q-1.74-2.81-3.64-5.49c-1.34,3.16-2.09,12.13-2.56,22.25-0.54,12.66-4,21.92-2.33,23S923.33,1469.39,923.9,1455.52Z"/>
            <path d="M705.77,1689.39c1.28-3.35,1.2-5.53.34-5.82-2-.66-5.47,5.81-13,7.89-4.7,1.29-9.16.71-12.11,0.52q2.89,3.47,6.09,6.66a20.9,20.9,0,0,0,7.94-.45A17.83,17.83,0,0,0,705.77,1689.39Z"/>
            <path d="M722.6,1695.57c-1.5-1.34-5.94,1.25-11.52,3.13s-10.43,2.44-11,4.37,5.76,4.91,13.27,2.25S724.06,1696.71,722.6,1695.57Z"/>
            <path d="M723.8,1707.08c-4.17,2.13-7.62,4.52-7.2,6.49,0.36,1.81,5.3,2.34,10.5-.32,5.16-2.85,7.38-7.49,6-8.68C731.58,1703.2,727.88,1704.83,723.8,1707.08Z"/>
            <path d="M686.6,1671.57c-1.3-1.57-6.2.29-12,2.56-1.61.61-3.15,1.22-4.53,1.83q1.64,3,3.44,5.78a26.12,26.12,0,0,0,3.62-1.08C684,1678,687.81,1673,686.6,1671.57Z"/>
            <path d="M673.1,1652.07c-0.81-1.68-5.38-1.32-9.93,1.73a18.08,18.08,0,0,0-2,1.62q1.06,3.25,2.29,6.39a31.28,31.28,0,0,0,3.66-2.24C671,1657,674,1653.86,673.1,1652.07Z"/>
         </g>
      </g>
      <g>
         <g>
            <path d="M642.46,950.34C552,868.18,429.69,846.73,376.12,915.61c-69.26,89.05-68.6,138.38-37.45,181.32-4.6-28.61.21-56.06,15.89-78.28,40.73-57.73,139.3-58.28,220.17-1.23s113.39,150.1,72.66,207.83a96.32,96.32,0,0,1-36.77,30.95c35.48-2.25,67-15.41,89.49-40.13C758.75,1151.47,732.95,1032.49,642.46,950.34Z" style="fill: #eb2626;stroke: #000;stroke-linecap: round;stroke-linejoin: round;stroke-width: 7px"/>
            <path d="M588.91,997.31c-93.82-66.19-208.18-65.55-255.44,1.43s-9.51,174.94,84.3,241.13,208.18,65.55,255.44-1.43S682.73,1063.5,588.91,997.31Zm58.46,228c-40.73,57.73-139.3,58.28-220.17,1.23s-113.39-150.1-72.66-207.83,139.3-58.28,220.17-1.23S688.11,1167.53,647.38,1225.26Z" style="fill: #fff;stroke: #000;stroke-linecap: round;stroke-linejoin: round;stroke-width: 7px"/>
            <path d="M509.71,1061.5c-34-24-59.46-54.35-74.51-85.77-33.76,3.28-62.77,17.6-80.64,42.93-40.73,57.73-8.2,150.78,72.66,207.83s179.43,56.5,220.17-1.23c23.6-33.45,22.6-78.77,1.86-122.06C606,1107.39,555.09,1093.52,509.71,1061.5Z" style="fill: #ff9779;stroke: #000;stroke-linecap: round;stroke-linejoin: round;stroke-width: 7px"/>
         </g>
         <g>
            <path d="M510,1073.72c1.92-.66,7.48,12.88,21.71,23.06,14,10.24,27.81,16.07,26.91,18.13-0.51,1.49-15.58-1.27-31.13-12.54C511.5,1090.76,508.09,1073.82,510,1073.72Z"/>
            <path d="M489.15,1097.34c1.71-1.29,11,10.15,26,19.15s29.08,14.27,28.3,16.33c-0.5,1.55-15.49-.75-31.95-10.35C495,1112.45,487.63,1098.15,489.15,1097.34Z"/>
            <path d="M493.61,1115.58c2.17,5.11,8.32,10.83,16,16.25,15.68,10.43,29.45,19.43,27.93,21.47-0.87,1-15.22-4.62-32-15.77-8.13-5.72-15.06-13-16.66-20.41s1.83-11.37,2.4-10.91C492.41,1106.52,491.24,1110.53,493.61,1115.58Z"/>
            <path d="M500.42,1146.36c13.13,11.09,24.49,19.16,23.55,20.92s-14.41-4-28-15.53-22.61-22.31-21.39-23.69S487.29,1135.21,500.42,1146.36Z"/>
            <path d="M468.44,1140.46c1.71-.32,7.36,13.83,24.87,21.87,16.83,8.23,31.18,16.3,29.85,18.34-0.89,1.17-15.27-3.42-33.2-12.19-8.83-4.64-16.07-11.25-19.21-17.4S467.66,1140.62,468.44,1140.46Z"/>
            <path d="M473,1184.52c-12-6.92-14.31-19.63-12.1-19.64,1.91-.4,5.79,7.95,15.88,13.75,9.82,6,19,10.5,18.18,12.47C494.37,1192.66,484.27,1191.31,473,1184.52Z"/>
            <path d="M449.71,1184.37c1.76-.95,9.34,9.66,23.1,17.91s25.61,15.27,24.54,17.17c-0.83,1.46-13.64-2.4-28.31-11.28C453.92,1199.07,447.86,1185,449.71,1184.37Z"/>
            <path d="M437.88,1202.48c1.71-1.19,9.41,7.33,21.37,14.47s22.74,12.37,21.94,14.31c-0.63,1.63-12.49-.64-25.6-8.34C442.33,1214.94,436.3,1203.36,437.88,1202.48Z"/>
            <path d="M490.76,1047.71c0.09,0.83-2.85,2.24-8,1.6s-11.78-4.17-16.59-10c-9.64-11.86-10.73-24.14-9.1-24.49,2-.71,6.19,10,14.43,20C479.57,1045.32,490.55,1045.79,490.76,1047.71Z"/>
            <path d="M447.51,1054.79c-11-7.65-14.18-18.56-12.48-19.12,1.89-.93,7.19,7,16.53,13.41s18.35,10.85,17.53,12.81C468.48,1063.48,458.33,1062,447.51,1054.79Z"/>
            <path d="M440.56,1071.08c9.52,11,21.09,13.31,21,15.21,0.48,2.19-15,2.32-26.12-10.42-11-12-13.7-24.93-12.06-25.45C425.33,1049.57,430.85,1060.59,440.56,1071.08Z"/>
            <path d="M448.18,1108.34c-0.87,1.68-11.55-2.86-21.29-12.55-9.53-9.58-16.24-17.7-15.12-19.18s10.65,4.75,20,14.13S449.14,1106.6,448.18,1108.34Z"/>
            <path d="M439.9,1123.31c-0.56,1.59-12.23-.28-24.28-9-12.35-8.94-15.4-21.84-13.51-22.18,1.89-.72,7,8.94,17.71,16.58S440.72,1121.34,439.9,1123.31Z"/>
            <path d="M416.83,1126.62c9.62,7.95,18.82,13.29,17.94,15.19-0.65,1.62-11.64-1-22.43-9.83-10.69-9-14.93-19.68-13.4-20.53C400.7,1110.34,407.28,1118.61,416.83,1126.62Z"/>
            <path d="M386.52,1128.2c1.59-1.25,8.58,5.21,17.75,12.13s17.17,12.25,16.31,14.08c-0.74,1.68-10.59-1-20.55-8.51S385,1129.29,386.52,1128.2Z"/>
            <path d="M370.76,1144.73c1.62-1.14,9.33,6.34,20.36,14s20,14.86,18.82,16.54c-1,1.51-11.32-2.81-22.91-10.86S369.15,1145.77,370.76,1144.73Z"/>
            <path d="M630.3,1126.33c-14-2.71-22.29-12.45-20.43-13.75,1.34-1.1,9.57,4.48,21.91,6.91,12.3,3.08,21.59.44,22.59,1.78C656,1123.17,644.29,1130,630.3,1126.33Z"/>
            <path d="M621.15,1141.21c18.12,5.25,33.25,2.76,33.8,4.29,1.08,2.1-15.82,8.24-35.66,2.46-9.78-2.72-18.14-7.6-22.63-12.93s-5.11-9.85-4.33-10.06c1-.42,3,2.91,7.73,6.47S612.22,1138.71,621.15,1141.21Z"/>
            <path d="M629,1169.92c-7.14,1-16.57-1.55-25.43-6.41-18.28-9.43-26.67-25.64-24-26.52,1.18-.41,10.47,11.54,27.37,20.38,8.17,4.49,16.16,7.3,21.86,7.61,5.74,0.48,8.91-1.76,9.64-1C639.17,1164.44,636.36,1169,629,1169.92Z"/>
            <path d="M613.94,1188.58c-6.92,1.53-16.92.44-26.54-4s-16.9-11.11-20.59-17.06-4.07-10.49-3.25-10.68c1.49-.51,8.89,13.71,26.76,21.38,17.5,8.85,32.77,3.66,33.49,5C624.26,1184,620.93,1187.16,613.94,1188.58Z"/>
            <path d="M573,1209.25c-9.62-4.16-17.59-9.73-22.2-15.07s-5.79-9.83-5-10.14c1.27-.47,11.31,11.52,29.93,18.78,18.12,8.27,33.8,8,34.26,9.23C611,1214.6,592.35,1218.21,573,1209.25Z"/>
            <path d="M541.55,1219.85c-3.65-4.14-4.22-7.72-3.43-8.05,1.53-.53,8.85,8,23.22,12,13.88,4.43,26,5.77,26,7.77,0.1,1.85-12.89,3.73-28.16-1.11C551.63,1228,545.12,1224,541.55,1219.85Z"/>
            <path d="M524.52,1225.77c1.57-1.17,8.92,4.72,20,9.54s20.39,9,19.77,11c-0.53,1.74-10.83.63-22.69-4.61C529.47,1236.43,522.85,1226.88,524.52,1225.77Z"/>
            <path d="M403.24,1001.28c-5.57-7.1-4.11-14.89-2.26-14.68,2,0,3.69,5.33,7.76,10.36s8.71,8.91,7.79,10.73C415.84,1009.32,408.8,1008.07,403.24,1001.28Z"/>
            <path d="M384.12,1012.5c-4.87-7-4.43-14-2.64-14.29,2-.42,4.53,4.88,8.32,10.21s8.08,9,7.22,10.87C396.38,1021,389.17,1019.49,384.12,1012.5Z"/>
            <path d="M388.74,1034.25c-0.86,1.59-9.23-2-13.87-11.66-4.47-9.68-2.27-18.32-.49-18.09,2.05,0.07,3.17,7.4,6.81,15.09S389.91,1032.56,388.74,1034.25Z"/>
            <path d="M375.54,1053c-0.2.8-3.15,1.19-7.2-1.18s-7.85-8.05-9.44-14.3c-2.87-12.62-2.7-21.89-1.25-22.54,2.19-.82,5.46,9.48,8,20.65C367.9,1047.19,375.81,1051,375.54,1053Z"/>
            <path d="M365.88,1068.51c-1.12,1.59-10.36-4.74-15.73-16.42a80.75,80.75,0,0,1-5.48-15.49q1-2.48,2.2-4.9c2.43,2.87,6,9.63,9.57,17.32C361.35,1059.7,367.11,1066.95,365.88,1068.51Z"/>
            <path d="M344.29,1076a86.62,86.62,0,0,1-6.06-16.17q0.49-3.27,1.19-6.47c2.47,2.38,6.69,10.34,11.11,19.45,5.48,11.43,12.26,18.6,11.2,20.27S350.28,1088.57,344.29,1076Z"/>
            <path d="M636.84,1205.26c-2.5-2.58-3.28-4.61-2.6-5.22,1.58-1.39,7.32,3.19,15,2.15,4.83-.67,8.7-3,11.34-4.28q-1.29,4.33-3,8.52a20.89,20.89,0,0,1-7.48,2.71A17.83,17.83,0,0,1,636.84,1205.26Z"/>
            <path d="M623.79,1217.56c0.85-1.82,6-1.19,11.82-1.65s10.54-1.86,11.81-.3c1.32,1.38-3.36,6.78-11.32,7.28S622.9,1219.19,623.79,1217.56Z"/>
            <path d="M627.21,1228.62c4.68,0.32,8.78,1.16,9.17,3.13,0.38,1.81-3.95,4.24-9.78,3.84-5.86-.59-9.74-4-8.93-5.63C618.54,1228.11,622.58,1228.15,627.21,1228.62Z"/>
            <path d="M647.45,1181.34c0.58-2,5.81-2.17,12-2.36,1.72-.07,3.37-0.11,4.89-0.11q-0.34,3.36-.89,6.67a26.09,26.09,0,0,1-3.75.43C652.36,1186.19,646.89,1183.08,647.45,1181.34Z"/>
            <path d="M652.19,1158.1c0.08-1.87,4.43-3.32,9.81-2.31a18.21,18.21,0,0,1,2.45.71q0.3,3.41.41,6.78a31.38,31.38,0,0,1-4.25-.62C656,1161.78,652.09,1160.09,652.19,1158.1Z"/>
         </g>
      </g>
      <path d="M706,1159S686,983,530,933s-208,72-208,72-16-38,32-126,76-180,224-172,136,60,256,72,244-24,312,12c0,0-184,32-236,92S706,1159,706,1159Z" style="fill: #8d3d26;stroke: #000;stroke-linecap: round;stroke-linejoin: round;stroke-width: 7px"/>
      <path d="M1466,1059s-132-68-260-24-204,232-244,304-156-24-264,24-172,292-52,356c0,0-88,0-124-40,0,0-44-16-52-48,0,0-40-8-44-32,0,0-140-60-88-244s236-216,312-200,48-32,92-140,168-244,404-224S1446,951,1466,1059Z" style="fill: #8d3d26;stroke: #000;stroke-linecap: round;stroke-linejoin: round;stroke-width: 7px"/>
      <g>
         <path d="M654,1187c0.12,1.6-33.08-3.21-83.86,10-49.63,12.9-119,46.84-162.77,114.07-22.19,33-30.92,70.89-31.82,105.16-1.07,34.41,4.36,65.37,10.68,90.67,13.19,50.72,29.1,79.58,27.77,80.13-0.37.33-17.95-27.82-32.55-78.87-7-25.47-13.07-56.84-12.34-92.12,0.49-35,9.46-74.71,32.38-108.77,22.19-34.31,51.9-60.65,81.73-79.13a290.74,290.74,0,0,1,85.72-35.95C621,1180,654.33,1186.7,654,1187Z"/>
         <path d="M666,1211c0.42,1.34-29.3,5.62-71,28-41.11,22.14-94.74,63.63-130.09,126.49a193.3,193.3,0,0,0-25,96.09c0.29,31,7.32,58.53,12.57,81.61C464,1589.37,467,1618.93,466,1619s-5.56-28.81-18.33-74.59c-5.85-22.95-13.54-50.7-14.21-82.73a196,196,0,0,1,25.34-99.57c36.28-64.47,91.55-106.09,133.91-127.47C635.72,1213,666.12,1210.44,666,1211Z"/>
         <path d="M706,1283c0.43,1.14-25.76,10.16-67,26.79-20.38,8.61-44.64,19.67-67.21,37.95-22.7,18.13-42.05,44.22-57.53,74.14-32.2,59.57-34.65,124.05-26.2,166.81,8.52,43.65,27.33,65.68,25.9,66.3,0,0.6-20.7-20.74-30.75-65.29-9.92-43.53-8.24-109.81,24.84-171.07,15.73-30.44,35.93-57.43,59.7-75.93,23.64-18.66,48.63-29.41,69.41-37.51C679.15,1289.63,705.74,1282.34,706,1283Z"/>
         <path d="M918,1167c0.85-.06,2.73,10.22,2.43,27.15-0.49,16.62-3.44,41.27-18.72,63.33s-37.65,33.24-53.22,39.08c-15.92,5.81-26.29,7.25-26.5,6.44-0.3-1,9.58-4.2,24.59-11,14.76-6.87,35.29-18.16,49.37-38.5s17.81-43.44,19.53-59.65C917,1177.42,916.91,1167,918,1167Z"/>
         <path d="M842,1159c0.55-.48,5.88,4.2,9.09,15,3.45,10.55,1.6,27.6-8.74,41.24-10.08,13.78-24.37,21.2-34.93,23.62-10.72,2.54-17.5,1-17.43.2,0-1.12,6.52-1.41,16-4.93a67.65,67.65,0,0,0,30.71-23c9.13-12.17,11.39-26.36,9.56-36C844.61,1165.22,841,1159.6,842,1159Z"/>
         <path d="M806,1147c1.53,1-8.37,16.71-27,29.34s-36.64,16.41-37,14.66c-0.62-2,15.56-8.46,33.1-20.44S804.34,1145.75,806,1147Z"/>
         <path d="M954,983c-0.44-.54,20.71-17.89,59.62-38.51,38.69-20.23,96.52-43.85,164.3-47.4,33.71-1.72,66.17,2.45,94.13,11.29A228.09,228.09,0,0,1,1341,943.65c35.26,27.07,49.37,51.32,49,51.35-1.16,1.12-16.67-21.91-51.93-47.35a233.58,233.58,0,0,0-67.92-33.11c-27.32-8.27-58.91-12.14-91.89-10.46C1112,907.53,1054.73,930,1015.84,948.9,976.76,968.18,954.66,984,954,983Z"/>
         <path d="M974,1051c-0.49-.57,14.24-14.25,41.52-31.71s67.57-38.16,115.92-49.76c48.29-11.9,94.5-9.9,126-1.85,31.7,7.82,48.94,18.87,48.6,19.32-0.53,1.26-18.4-8.08-49.67-14.49-31.08-6.64-75.94-7.81-123.26,3.83C1037.57,999.66,975.14,1053.71,974,1051Z"/>
         <path d="M870,931c-0.44-.52,23.86-22.14,68-50.64,22.13-14,49.33-29.76,81.6-43,32.14-13,70-24,110.8-22.39,40.71,2.71,77.42,15.28,109.4,28.8a409.68,409.68,0,0,1,80.17,45.7c42.84,31.35,58.92,61.38,58.08,61.48-0.86.82-18.07-27.65-61-57.47a430.12,430.12,0,0,0-79.8-43.78c-31.56-13-68.06-25.17-107.17-27.74-39.29-1.53-76.33,8.95-108.09,21.39C990,856,962.85,871.16,940.55,884.56,896.1,911.78,870.73,932,870,931Z"/>
         <path d="M674,991c-0.82.74-14.52-14.28-37.83-37.2-23.43-22.33-56.76-54.4-102.43-73.41a166.28,166.28,0,0,0-67.48-12.33,197.59,197.59,0,0,0-55.54,10.53C380,889.25,362.62,900.2,362,899c-0.33-.45,16.1-13,47-25.08A189.22,189.22,0,0,1,466,861.61a166.83,166.83,0,0,1,70.36,12.28C583.77,893.69,617,927,639.68,950.32,662.25,974.3,674.61,990.45,674,991Z"/>
         <path d="M702,931c-0.87.74-13.48-14.33-35.93-36.45-22.49-21.58-55.93-51.36-101.39-66.29s-90.07-9.75-120.69-4.13c-30.92,6-49.64,12-50,10.87-0.25-.71,17.92-8.4,49-15.71,30.66-6.92,76.53-13.24,123.87,2.33s80.94,46.81,102.74,69.46C691.37,914.33,702.6,930.51,702,931Z"/>
         <path d="M706,843c-1,2.27-52.07-46.32-133.4-65.11-40.12-9.46-78.05-8.33-104.38-2.75C441.72,780.47,426.5,788.19,426,787c-0.36-.52,14.25-9.95,41.15-16.7,26.68-7,65.9-9,107,.77a294.21,294.21,0,0,1,98,43.16C694.92,829.84,706.51,842.48,706,843Z"/>
         <path d="M810,807c1,0-18.17,13.49-50.73,5.74-15.84-3.61-33.42-11.7-51.7-22.1-18.44-10.22-37.45-23.14-59.51-32.24C604.23,738.63,560.3,734.19,529,735.5c-31.44,1.16-50.82,4.71-51,3.5-0.14-.69,18.9-6,50.76-8.44,31.63-2.65,77.29,1.18,122.08,21.43,22.73,9.4,42,22.72,59.94,33.07,17.91,10.59,34.7,18.85,49.69,22.89C790.95,816.57,809.88,805.42,810,807Z"/>
         <path d="M468.73,1738.87c0.5,0.48-8,10.51-26.32,21.12-17.78,10.14-48.13,21-80.25,10.64a75.21,75.21,0,0,1-37.06-26.82,88.28,88.28,0,0,1-14.73-34.18c-3.9-20.88-1.27-33.86-.65-33.77,1.29,0,.51,13,5.47,32.64a90.07,90.07,0,0,0,15.07,31.43,71.43,71.43,0,0,0,34.1,24.05c29.23,9.47,58,.36,75.75-8.37C458.29,1746.51,468,1737.92,468.73,1738.87Z"/>
         <path d="M447.73,1777.87c2,1.49-32.78,28.44-84.59,29.36-12.72.07-25.17-2.12-35.39-7.38s-17.14-14.11-19.95-22.22c-5.35-16.56-1.47-27-1.09-26.75,1.44-.1-0.31,10.6,5.67,24.87a37.47,37.47,0,0,0,18.27,18.34c9.08,4.31,20.47,6.22,32.47,6.14C412.25,1799.42,447.31,1776.42,447.73,1777.87Z"/>
         <path d="M663.75,1810.88c0.64-.34,4.12,15-4.38,37.52-8.2,22.23-28.24,49.7-58.23,70-14.77,9.75-31.13,18.2-47.78,17.93-16.25.13-30.61-7-38.36-16.66a40.29,40.29,0,0,1-9.14-26.68c0.22-6.68,1.48-10.16,1.86-10.09,0.57,0.07.24,3.69,0.86,10s2.72,15.48,10.15,23.54c7.25,8,20,13.89,34.56,13.46,14.49,0,29.47-7.79,43.93-17.29,28.76-19.46,48.6-45.33,57.55-66C664,1825.63,662.5,1810.81,663.75,1810.88Z"/>
         <path d="M648.75,1876.88c0.74-.2,2.88,13.74-4.65,34.27-7.35,20.17-24.44,46.57-52.94,64.34-14.15,8.65-30.3,13.83-45.29,12.16-15.13-1.4-26.8-10.3-33.41-18.9-13.13-17.9-14.13-31.89-13.72-31.86,1.35-.64,4.35,12.92,17.51,28.67,6.64,7.57,17,14.77,30.24,15.67,13.1,1.15,27.74-3.59,41-11.71,26.77-16.66,43.85-41.39,52-60.21C647.86,1890.21,647.58,1876.79,648.75,1876.88Z"/>
      </g>
   </g>
</svg>
