<svg xmlns="http://www.w3.org/2000/svg" viewBox="0 0 2500 2500">
    <title>PepeFrogSamurai</title>
    <g>
        <path d="M1632.86,2128.91s204,57,225,72,12,27,12,27,72,60,84,84-3,51-3,51,72,54,93,123h-138s-258-348-273-366" style="fill: #262938;stroke: #000;stroke-linecap: round;stroke-linejoin: round;stroke-width: 9px"/>
        <path d="M1632.11,2148.81l-5.78-15.17-26.19,2.76h0c-29.47,62-189.93,59-254.95,60.11q-389.4,6.67-637.71-157.5c-129.3,16.62-356.12,257.88-410.13,461h1618c-91.14-179.87-218.68-314.41-283.25-351.19" style="fill: #262938;fill-rule: evenodd"/>
        <path d="M1919.19,2498a1201.78,1201.78,0,0,0-152.16-230c-47.65-56.3-96.66-101.78-131.49-122.06l-5.24-13.75a4.26,4.26,0,0,0-4.42-2.71l-26.19,2.76a4.25,4.25,0,0,0-3.45,2.52c-26.34,55-167.67,56.59-235.62,57.37-5.61.06-10.81,0.12-15.51,0.2-257.51,4.41-471.26-48.34-635.29-156.8a4.28,4.28,0,0,0-2.89-.67c-63.11,8.11-151.31,68.64-235.91,161.92-41,45.15-78.52,95.54-108.64,145.72-32.8,54.65-56.07,107.3-69.15,156.48a4.25,4.25,0,0,0-.14,1.09h8.57l1.92-6.62h0C330,2401,393,2295.44,477.33,2202.42c39.79-43.87,81.82-81.72,121.55-109.45,40.33-28.16,77.48-45.26,107.59-49.54C789,2097.73,884.35,2138.49,990,2164.6c106.15,26.21,225.66,38.39,355.22,36.16,4.69-.08,9.87-0.14,15.46-0.2,74.15-.84,211.38-2.4,242.16-60.17l20.63-2.18,4.62,12.11,0.09,0.23,0.63,1.66,0.07,0c0.89,1.75,2.34,3.44,5,2.64,61.33,37.31,182.28,163,272.64,337.18h0l0.43,0.9,1.42,2.73,0.9,2.38,1.13,2h9.17a4.25,4.25,0,0,0-.45-2"/>
        <g>
            <path d="M334.64,2308S221.29,2401,206.5,2477.2c0,0,168.47-30.33,402.1,22.8,0,0,56.27-153.1,52.84-160.89S359.92,2300.17,334.64,2308Z" style="fill: #262938;stroke: #000;stroke-linecap: round;stroke-linejoin: round;stroke-width: 9px"/>
            <path d="M452.7,2176.78s-130,75.51-142.79,140c0,0,238,18.46,348.26,44.92,0,0,56.86-153.76,53.8-160.37S475,2170.24,452.7,2176.78Z" style="fill: #262938;stroke: #000;stroke-linecap: round;stroke-linejoin: round;stroke-width: 9px"/>
            <path d="M560.75,2046.95s-131.54,85.48-144.24,150c0,0,176.72,17.39,284.94,43.67,0,0,56.07-153.83,53.08-160.43S582.7,2040.38,560.75,2046.95Z" style="fill: #262938;stroke: #000;stroke-linecap: round;stroke-linejoin: round;stroke-width: 9px"/>
        </g>
        <g>
            <path d="M1903.89,2066.87c2.5-12.43,19.6-75.86,4.11-69.87-31,12-103.5,53.77-104.79,84-22-27.06-67.08-4.48-81.21,21.46-33.37-28.26-107-15.38-132,19.72-45.63-48.7-118.26-39.1-170.21-11.47-40.87-33-118.66-35.27-156.78,5.15-35.21-39-80-79.09-135.19-54.69-21.53-55.29-32.81-123.47-96.41-148.9,13.37-26.82,19.27-61.6,15.81-94-2.87-26.95-29.76-54.55-31.39-75.11-2.25-28.31,26.3-54.68,23.19-90-2.61-29.65-17.42-47.61-36.4-70.19,21.7-37.4,16.37-110.77-19.6-128l-88,8.26c-21.57,23.82-76.62,131.24-8.33,124.68-50.82,39.05-51,103.24-7.07,147.77-32.76,32.29-28.54,80.67-17.59,124.14,4.11,16.3,20.39,37.6,22.09,52.44,1.77,15.46-5.68,14.07-6.19,28.91-2.29,65.86,28,145,104.4,112.9-1.93,56.76,62.75,136.35,116,90.71,12.42,43.06,70.37,64.46,109.59,69.85,50.13,6.89,65.67-11.8,98.21-41,28.75,68.47,171.38,75.49,204.73,9.26,73.78,59.27,155.7,20.17,220.18-26.5,37.27,32.58,151.31.72,171.1-45.94C1907.67,2097.27,1901.33,2079.6,1903.89,2066.87Z" style="fill: #b8933b;stroke: #000;stroke-width: 7px"/>
            <g>
                <path d="M763,1265.84S799.6,1010.7,939,859s762.9-179.46,844.9-105.66S1927,1119,1927,1119s-483.4,11.54-622.8,64.84S820.4,1286.34,763,1265.84Z" style="fill: #262938;stroke: #000;stroke-linecap: round;stroke-linejoin: round;stroke-width: 9px"/>
                <path d="M931,1271s12-352,112-480" style="fill: none;stroke: #000;stroke-linecap: round;stroke-linejoin: round;stroke-width: 9px"/>
                <path d="M1087,1219s0-324,72-456" style="fill: none;stroke: #000;stroke-linecap: round;stroke-linejoin: round;stroke-width: 9px"/>
                <path d="M1491,727s60,300,60,412" style="fill: none;stroke: #000;stroke-linecap: round;stroke-linejoin: round;stroke-width: 9px"/>
                <path d="M1639,719s140,124,176,392" style="fill: none;stroke: #000;stroke-linecap: round;stroke-linejoin: round;stroke-width: 9px"/>
                <path d="M1319,743s-52,264-4,436" style="fill: none;stroke: #000;stroke-linecap: round;stroke-linejoin: round;stroke-width: 9px"/>
            </g>
            <g>
                <path d="M1025.49,1924.56a3.5,3.5,0,0,0-3.39,3.61c1.37,42.81-10.55,79-39.87,120.87a3.5,3.5,0,1,0,5.74,4c30.25-43.25,42.55-80.67,41.13-125.11A3.5,3.5,0,0,0,1025.49,1924.56Z"/>
                <path d="M992.54,1767.38A525.8,525.8,0,0,1,894.21,1894a3.5,3.5,0,0,0,4.79,5.11,533,533,0,0,0,99.67-128.36A3.5,3.5,0,1,0,992.54,1767.38Z"/>
                <path d="M987.8,1584.92l-4.25,12.41c-8.2,24.22-15.29,45.13-32.25,65.86-8.65,10.58-31.63,38.67-53.31,39.38a3.5,3.5,0,1,0,.23,7c22-.72,42.83-22.8,58.5-41.95,17.76-21.71,25.39-44.22,33.46-68l4.23-12.34a3.52,3.52,0,0,0-2.17-4.47A3.48,3.48,0,0,0,987.8,1584.92Z"/>
                <path d="M1113.6,2063c-0.1,28.5-7.08,47.39-19.1,70.39a3.5,3.5,0,0,0,6.2,3.24c12.52-24,19.79-43.68,19.9-73.6A3.5,3.5,0,0,0,1113.6,2063Z"/>
                <path d="M1259.32,2120a3.5,3.5,0,0,0-1.26,4.79c6.81,11.65,23.74,29.34,40.29,38.77a3.5,3.5,0,1,0,3.47-6.08c-15.32-8.73-31.51-25.6-37.71-36.22A3.5,3.5,0,0,0,1259.32,2120Z"/>
                <path d="M1425.42,2115.12a3.5,3.5,0,0,0-2.77,4.1c4.7,24.25,47.49,50.33,70.63,52.32a3.5,3.5,0,0,0,.6-7c-20.16-1.74-60.34-25.93-64.36-46.68A3.5,3.5,0,0,0,1425.42,2115.12Z"/>
                <path d="M1592.75,2119.81a3.5,3.5,0,0,0-1.92,4.56c15.53,38,66.95,44,96.21,44.17a3.5,3.5,0,1,0,0-7c-27.52-.17-75.78-5.57-89.78-39.82A3.5,3.5,0,0,0,1592.75,2119.81Z"/>
                <path d="M1720.39,2107.76a3.5,3.5,0,0,0-2.12,4.47c5.79,16.21,17.19,28.14,32.09,33.61a3.5,3.5,0,0,0,2.41-6.57c-12.91-4.74-22.83-15.17-27.91-29.39A3.5,3.5,0,0,0,1720.39,2107.76Z"/>
                <path d="M1803.34,2096.35a3.5,3.5,0,0,0-.48,4.93c21.19,25.79,58.81,18,86.28,12.25l2.63-.55a3.5,3.5,0,0,0-1.42-6.86l-2.64.55c-27.15,5.65-60.94,12.68-79.44-9.84A3.5,3.5,0,0,0,1803.34,2096.35Z"/>
            </g>
            <path d="M1454.9,1077S1219,951.46,1344.46,554.87c0,0-85.34-50.2-125.5-80.32S1118.56,339,1118.56,339s-15.06,50.2,20.08,95.38,45.18,65.26,45.18,100.4S1143.66,1041.82,1454.9,1077Z" style="fill: #b8933b;stroke: #000;stroke-width: 5px"/>
            <path d="M1584,1082.73s226.75-133,74.26-497c0,0,81.69-52.62,119.68-83.48s90.84-133.67,90.84-133.67,18.48,46.13-13.47,90.79-40.58,64.16-38.16,97.13S1892.14,1029.61,1584,1082.73Z" style="fill: #b8933b;stroke: #000;stroke-width: 7px"/>
            <ellipse cx="1523.62" cy="922.79" rx="146.68" ry="160.21" style="fill: #b8933b;stroke: #000;stroke-width: 7px"/>
            <ellipse cx="1537.16" cy="918.27" rx="84.09" ry="91.86" style="fill: #00f;stroke: #000;stroke-width: 7px"/>
            <g>
                <path d="M1932.51,1153.6s134.1,15.42,145.69-86S2011.26,927.91,1978.8,965s-19.87,90.91-24.69,115.08-41.68,41.34-41.68,41.34Z" style="fill: #262938;stroke: #000;stroke-linecap: round;stroke-linejoin: round;stroke-width: 9px"/>
                <path d="M1983.76,1039c2,20,16.89,34.17,33.29,31.75s28.08-20.55,26.1-40.51-16.89-34.17-33.29-31.75S1981.78,1019,1983.76,1039Z" style="fill: #00f;stroke: #000;stroke-width: 7px"/>
            </g>
            <g>
                <path d="M497.66,1674.21s-143.48,161-154.66,282.23c0,0,226-70.27,550.59-18.73,0,0,58.63-247.27,53-259S531.19,1658.56,497.66,1674.21Z" style="fill: #262938;stroke: #000;stroke-linecap: round;stroke-linejoin: round;stroke-width: 9px"/>
                <path d="M643.07,1452.85S474.89,1588.63,465,1691.3c0,0,326.48-3.31,479.83,23.18,0,0,59.36-248.38,54.41-258.32S672.75,1439.6,643.07,1452.85Z" style="fill: #262938;stroke: #000;stroke-linecap: round;stroke-linejoin: round;stroke-width: 9px"/>
                <path d="M775,1235s-169.16,151.62-178.87,254.28c0,0,242.84,3.31,393.4,29.81,0,0,58.28-248.38,53.42-258.32S804.14,1221.75,775,1235Z" style="fill: #262938;stroke: #000;stroke-linecap: round;stroke-linejoin: round;stroke-width: 9px"/>
            </g>
            <path d="M947,1295s688-174,1100-90c0,0-136-114-204-134s-288-32-556,20S947,1295,947,1295Z" style="fill: #262938;stroke: #000;stroke-linecap: round;stroke-linejoin: round;stroke-width: 9px"/>
            <g>
                <path d="M947,1295s-220,48-256-88,88-204,148-160,48,120,60,152,76,48,76,48Z" style="fill: #262938;stroke: #000;stroke-linecap: round;stroke-linejoin: round;stroke-width: 9px"/>
                <circle cx="793" cy="1149" r="50" style="fill: #00f;stroke: #000;stroke-width: 7px"/>
            </g>
        </g>
        <path d="M787,2159s476,284,856,72" style="fill: none;stroke: #000;stroke-linecap: round;stroke-linejoin: round;stroke-width: 9px"/>
        <path d="M796,2279s476,284,856,72" style="fill: none;stroke: #000;stroke-linecap: round;stroke-linejoin: round;stroke-width: 9px"/>
        <path d="M1751,2241s54-28,118-8" style="fill: #262938;stroke: #000;stroke-linecap: round;stroke-linejoin: round;stroke-width: 9px"/>
        <path d="M1861,2383c6,0,46-28,94-20" style="fill: #262938;stroke: #000;stroke-linecap: round;stroke-linejoin: round;stroke-width: 9px"/>
    </g>
</svg>
