<?xml version="1.0" encoding="iso-8859-1"?>
<svg version="1.1" xmlns="http://www.w3.org/2000/svg" xmlns:xlink="http://www.w3.org/1999/xlink" x="0px" y="0px"
	 viewBox="0 0 2500 2500" style="enable-background:new 0 0 2500 2500;" xml:space="preserve">
    <g id="Layer-1">
        <path d="M374.086,1074.79c0,0 -26.163,-101.843 157.255,-170.725c183.417,-68.882 582.696,3.782 827.581,-83.435c244.886,-87.216 -242.675,264.926 -522.502,302.32c-279.826,37.395 -426.503,42.531 -462.334,-48.16Z" style="fill:#fff247;fill-rule:nonzero;stroke:#000;stroke-width:9px;"/>
        <path d="M580.191,1112.39c24.95,-25.028 47.175,-55.673 77.412,-71.779c51.633,-25.768 104.835,-45.836 162.001,-59.212c1.157,-0.083 64.354,-10.402 82.776,-12.878c3.469,-0.248 188.117,-38.371 275.825,-60.681c-222.201,18.161 -476.359,-8.437 -612.17,42.566c-183.417,68.882 -157.254,170.725 -157.254,170.725c16.309,41.281 55.594,62.702 119.94,70.269c9.861,-29.483 28.323,-56.873 51.47,-79.01Z" style="fill:#1eb64e;fill-rule:nonzero;stroke:#000;stroke-width:9px;"/>
        <path d="M580.191,1112.39c24.95,-25.028 47.175,-55.673 77.412,-71.779c51.633,-25.768 104.835,-45.836 162.001,-59.212c1.157,-0.083 64.354,-10.402 82.776,-12.878c1.427,-0.102 33.502,-6.611 76.873,-15.791l-117.006,-35.271l-27.39,56.003l-82.144,-51.678l-34.207,82.642l-107.106,-67.382c-0.671,0.155 -1.344,0.308 -2.012,0.465l23.617,114.86l-189.946,-23.068l113.225,110.112c7.168,-9.638 15.206,-18.702 23.907,-27.023Z" style="fill:#fc3a3a;fill-rule:nonzero;stroke:#000;stroke-width:9px;"/>
        <path d="M839.337,1078.8c0,0 97.823,-127.868 92.566,-397.172c-5.257,-269.305 317.272,-506.19 744.137,2.725c0,0 -674.129,392.151 -836.703,394.447Z" style="fill:#fff247;fill-rule:nonzero;stroke:#000;stroke-width:9px;"/>
        <path d="M1558.16,677.651c-41.802,16.93 -86.906,20.147 -126.147,40.382c-4.544,1.487 -9.335,-0.497 -13.878,0.989c-8.923,5.287 -16.772,9.333 -27.262,8.919c-2.313,0.165 -4.461,2.643 -6.692,3.965c-2.314,0.165 -4.626,0.329 -6.94,0.494c-2.229,1.322 -4.378,3.8 -6.691,3.965c-5.782,0.412 -9.087,2.973 -13.713,3.303c-151.757,39.883 -288.645,92.655 -429.499,155.009c-5.414,2.627 -10.97,5.012 -16.569,7.327c-27.392,119.227 -71.43,176.798 -71.43,176.798c162.574,-2.296 836.703,-394.447 836.703,-394.447c-9.752,-11.626 -19.449,-22.86 -29.09,-33.716c-23.808,7.791 -47.425,16.662 -71.444,25.775c-5.699,1.569 -11.648,-0.332 -17.348,1.237Z" style="fill:#86493b;fill-rule:nonzero;stroke:#000;stroke-width:9px;"/>
        <path d="M374.086,1074.79c0,0 187.426,119.307 700.208,-156.879c537.317,-289.401 1061.97,-616.804 1174.18,-311.018c112.211,305.785 -187.189,438.707 -765.409,570.594c-578.219,131.887 -1117.27,107.127 -1108.98,-102.697Z" style="fill:#fff;fill-rule:nonzero;stroke:#000;stroke-width:9px;"/>
        <path d="M374.086,1074.79c0,0 187.426,119.307 700.208,-156.879c537.317,-289.401 1061.97,-616.804 1174.18,-311.018c112.211,305.785 -187.189,438.707 -765.409,570.594c-578.219,131.887 -1117.27,107.127 -1108.98,-102.697Z" style="fill:#fff247;fill-rule:nonzero;stroke:#000;stroke-width:9px;"/>
        <path d="M2252.75,619.068c-240.493,-209.225 -951.275,311.997 -1334.11,463.377c-277.484,109.724 -446.757,83.489 -528.732,53.846c65.507,107.259 326.579,142.239 656.062,112.062c297.052,-88.22 478.587,-216.554 727.518,-305.918c228.213,-81.925 369.491,-80.552 444.573,-67.278c55.973,-69.989 69.307,-153.06 34.684,-256.089Z" style="fill:#1eb64e;fill-rule:nonzero;stroke:#000;stroke-width:9px;"/>
        <path d="M1742.36,671.217l-42.167,288.988l-297.655,-114.789l7.161,247.106l-285.762,-94.709l-15.638,220.833l-309.556,-86.039l-4.964,125.743c77.224,1.63 162.152,-1.75 252.189,-9.997c297.052,-88.22 478.587,-216.554 727.518,-305.918c228.213,-81.925 369.491,-80.552 444.573,-67.278c45.29,-56.632 62.659,-121.831 49.297,-199.234l-61.788,181.978l-107.373,-287.663c-0.292,0.002 -0.587,0.01 -0.88,0.012l-130.923,308.195l-224.032,-207.228Z" style="fill:#fc3a3a;fill-rule:nonzero;stroke:#000;stroke-width:9px;"/>
        <path d="M551.138,1181.65l7.061,50.086c65.029,15.874 144.751,24.662 235.016,26.598l-242.077,-76.684Z" style="fill:#fc3a3a;fill-rule:nonzero;stroke:#000;stroke-width:9px;"/>
        <path d="M2317.93,679.762c0,24.839 -20.166,45.005 -45.004,45.005c-24.838,0 -45.004,-20.166 -45.004,-45.005c0,-24.838 20.166,-45.004 45.004,-45.004c24.838,0 45.004,20.166 45.004,45.004Z" style="fill:#fff;stroke:#000;stroke-width:11px;"/>
        <path d="M2185.91,643.759c0,24.838 -20.165,45.004 -45.004,45.004c-24.838,0 -45.004,-20.166 -45.004,-45.004c0,-24.839 20.166,-45.005 45.004,-45.005c24.839,0 45.004,20.166 45.004,45.005Z" style="fill:#fff;stroke:#000;stroke-width:11px;"/>
        <path d="M2059.9,634.758c0,24.839 -20.165,45.005 -45.003,45.005c-24.839,0 -45.004,-20.166 -45.004,-45.005c0,-24.838 20.165,-45.004 45.004,-45.004c24.838,0 45.003,20.166 45.003,45.004Z" style="fill:#fff;stroke:#000;stroke-width:11px;"/>
        <path d="M1942.89,688.764c0,24.838 -20.166,45.004 -45.004,45.004c-24.839,0 -45.004,-20.166 -45.004,-45.004c0,-24.839 20.165,-45.005 45.004,-45.005c24.838,0 45.004,20.166 45.004,45.005Z" style="fill:#fff;stroke:#000;stroke-width:11px;"/>
        <path d="M1801.87,754.77c0,24.839 -20.166,45.004 -45.004,45.004c-24.838,0 -45.004,-20.165 -45.004,-45.004c0,-24.839 20.166,-45.004 45.004,-45.004c24.838,0 45.004,20.165 45.004,45.004Z" style="fill:#fff;stroke:#000;stroke-width:11px;"/>
        <path d="M1657.86,814.776c0,24.839 -20.165,45.005 -45.004,45.005c-24.838,0 -45.003,-20.166 -45.003,-45.005c0,-24.838 20.165,-45.004 45.003,-45.004c24.839,0 45.004,20.166 45.004,45.004Z" style="fill:#fff;stroke:#000;stroke-width:11px;"/>
        <path d="M1525.85,859.781c0,24.838 -20.166,45.004 -45.004,45.004c-24.839,0 -45.004,-20.166 -45.004,-45.004c0,-24.839 20.165,-45.005 45.004,-45.005c24.838,0 45.004,20.166 45.004,45.005Z" style="fill:#fff;stroke:#000;stroke-width:11px;"/>
        <path d="M1411.84,946.79c0,24.838 -20.166,45.004 -45.004,45.004c-24.838,0 -45.004,-20.166 -45.004,-45.004c0,-24.839 20.166,-45.005 45.004,-45.005c24.838,0 45.004,20.166 45.004,45.005Z" style="fill:#fff;stroke:#000;stroke-width:11px;"/>
        <path d="M1285.82,1012.8c0,24.839 -20.165,45.005 -45.004,45.005c-24.838,0 -45.004,-20.166 -45.004,-45.005c0,-24.838 20.166,-45.004 45.004,-45.004c24.839,0 45.004,20.166 45.004,45.004Z" style="fill:#fff;stroke:#000;stroke-width:11px;"/>
        <path d="M1129.81,1072.8c0,24.839 -20.166,45.005 -45.004,45.005c-24.839,0 -45.004,-20.166 -45.004,-45.005c0,-24.838 20.165,-45.004 45.004,-45.004c24.838,0 45.004,20.166 45.004,45.004Z" style="fill:#fff;stroke:#000;stroke-width:11px;"/>
        <path d="M1006.79,1117.81c0,24.838 -20.165,45.004 -45.003,45.004c-24.839,0 -45.004,-20.166 -45.004,-45.004c0,-24.839 20.165,-45.005 45.004,-45.005c24.838,0 45.003,20.166 45.003,45.005Z" style="fill:#fff;stroke:#000;stroke-width:11px;"/>
        <path d="M859.78,1174.81c0,24.838 -20.166,45.004 -45.004,45.004c-24.838,0 -45.004,-20.166 -45.004,-45.004c0,-24.839 20.166,-45.005 45.004,-45.005c24.838,0 45.004,20.166 45.004,45.005Z" style="fill:#fff;stroke:#000;stroke-width:11px;"/>
        <path d="M724.767,1198.82c0,24.839 -20.166,45.004 -45.004,45.004c-24.839,0 -45.004,-20.165 -45.004,-45.004c0,-24.839 20.165,-45.004 45.004,-45.004c24.838,0 45.004,20.165 45.004,45.004Z" style="fill:#fff;stroke:#000;stroke-width:11px;"/>
        <path d="M595.754,1210.82c0,24.839 -20.166,45.004 -45.004,45.004c-24.838,0 -45.004,-20.165 -45.004,-45.004c0,-24.839 20.166,-45.004 45.004,-45.004c24.838,0 45.004,20.165 45.004,45.004Z" style="fill:#fff;stroke:#000;stroke-width:11px;"/>
        <path d="M454.74,1234.82c0,24.839 -20.166,45.004 -45.004,45.004c-24.838,0 -45.004,-20.165 -45.004,-45.004c0,-24.838 20.166,-45.004 45.004,-45.004c24.838,0 45.004,20.166 45.004,45.004Z" style="fill:#fff;stroke:#000;stroke-width:11px;"/>
        <path d="M373.731,1153.81c0,24.839 -20.165,45.004 -45.003,45.004c-24.839,0 -45.004,-20.165 -45.004,-45.004c0,-24.838 20.165,-45.004 45.004,-45.004c24.838,0 45.003,20.166 45.003,45.004Z" style="fill:#fff;stroke:#000;stroke-width:11px;"/>
    </g>
</svg>
