<?xml version="1.0" encoding="iso-8859-1"?>
<!-- Generator: Adobe Illustrator 21.1.0, SVG Export Plug-In . SVG Version: 6.00 Build 0)  -->
<svg version="1.1" xmlns="http://www.w3.org/2000/svg" xmlns:xlink="http://www.w3.org/1999/xlink" x="0px" y="0px"
	 viewBox="0 0 2500 2500" style="enable-background:new 0 0 2500 2500;" xml:space="preserve">
<g id="Terrorist">

	<path style="fill-rule:evenodd;clip-rule:evenodd;stroke:#000000;stroke-width:8.5039;stroke-linecap:round;stroke-linejoin:round;stroke-miterlimit:2.6131;" d="
		M1901.5,1592.5c0,0-628.874,56.284-850-133c-125-107-15-158-15-158c187-149,323.889-114.578,500-92
		c38.993,4.999,48.998-49.979,455.78,12.966c-23.343-21.518-63.524-37.806-120.592-48.851
		c-35.811-202.467-174.505-244.845-416.082-127.137c-256.594-173.796-452.595-91.446-588.004,247.048
		c-223.21,13.003-315.674,597.396-150.975,720.197c107.982,73.331,294.833,117.154,560.555,131.47
		c149.921,2.166,247.71,5.177,332.317-4.694c35.883-5.414,76.912-14.417,89-22c139-67,212.989-145.393,309.715-331.598
		c19.663-34.332-12.845-106.402-67.369-160.93L1901.5,1592.5z"/>

	<path style="fill-rule:evenodd;clip-rule:evenodd;fill:#9B8700;stroke:#000000;stroke-width:8.5039;stroke-miterlimit:2.6131;" d="
		M657.385,2369.131c21.669,8.839,49.599,4.986,83.792-11.558c-5.571-81.014-15.925-187.198-31.061-318.554
		c-19.724,1.675-47.185,12.335-82.381,31.982C644.651,2144.002,654.535,2243.379,657.385,2369.131L657.385,2369.131z"/>
	<path style="fill-rule:evenodd;clip-rule:evenodd;fill:#9B8700;stroke:#000000;stroke-width:8.5039;stroke-miterlimit:2.6131;" d="
		M1600.045,2369.854c31.772-3.607,62.833-3.848,93.182-0.723c-3.048-69.429-13.286-136.567-30.713-201.412
		c-10.048-7.754-19.313-14.054-27.797-18.903c-2.803-7.359-4.73-12.416-5.779-15.169c-11.798,1.328-20.528,2.25-26.189,2.764
		c-4.318,8.521-10.247,15.569-17.788,21.143C1599.538,2235.23,1604.565,2305.997,1600.045,2369.854L1600.045,2369.854z"/>
	<path style="fill-rule:evenodd;clip-rule:evenodd;fill:#CD0000;stroke:#000000;stroke-width:8.5039;stroke-miterlimit:2.6131;" d="
		M636.896,2499.89h1.868h1.858h1.848h1.836h1.826h1.816h1.804h1.794h1.784h1.775h1.762h1.752h1.742h1.731h1.72h1.711h1.7h1.688
		h1.679h1.667h1.658h1.647h1.636h1.624h1.615h1.604h1.595h1.583h1.572h1.563h1.551h1.541h1.53h1.52h1.509h1.499h1.488h1.478h1.467
		h1.456h1.445h1.437h1.425h1.413h1.404h1.393h1.381h1.373h1.361h1.351h1.34h1.329h1.319h1.309h1.298h1.287h1.276h1.267h1.256h1.245
		h1.235h1.223h1.214h1.203c1.334-112.579,1.334-202.041,0-268.388c-1.318-22.825-13.768-36.718-37.345-41.68
		c-31.043-3.652-51.355,6.272-60.936,29.772C636.896,2313.727,636.896,2407.159,636.896,2499.89L636.896,2499.89z"/>
	<path style="fill-rule:evenodd;clip-rule:evenodd;fill:#CD0000;stroke:#000000;stroke-width:8.5039;stroke-miterlimit:2.6131;" d="
		M834.622,2499.89c1.138-104.599,1.073-188.383-0.194-251.346c-1.316-22.824-13.767-36.718-37.345-41.679
		c-31.041-3.652-51.354,6.271-60.935,29.772v263.253H834.622L834.622,2499.89z"/>
	<path style="fill-rule:evenodd;clip-rule:evenodd;fill:#CD0000;stroke:#000000;stroke-width:8.5039;stroke-miterlimit:2.6131;" d="
		M934.043,2499.89c0.968-97.496,0.852-176.176-0.353-236.037c-1.316-22.825-13.767-36.719-37.346-41.68
		c-31.041-3.652-51.353,6.272-60.935,29.772v247.945H934.043L934.043,2499.89z"/>
	<path style="fill-rule:evenodd;clip-rule:evenodd;fill:#CD0000;stroke:#000000;stroke-width:8.5039;stroke-miterlimit:2.6131;" d="
		M1033.301,2499.89c0.756-88.101,0.577-159.964-0.543-215.579c-1.316-22.824-13.766-36.718-37.345-41.68
		c-31.041-3.652-51.354,6.272-60.935,29.772v227.487H1033.301L1033.301,2499.89z"/>
	<path style="fill-rule:evenodd;clip-rule:evenodd;fill:#CD0000;stroke:#000000;stroke-width:8.5039;stroke-miterlimit:2.6131;" d="
		M1132.495,2499.89c0.706-85.762,0.51-155.912-0.586-210.443c-1.317-22.826-13.767-36.719-37.345-41.68
		c-31.042-3.652-51.354,6.271-60.935,29.772v222.351H1132.495L1132.495,2499.89z"/>
	<path style="fill-rule:evenodd;clip-rule:evenodd;fill:#CD0000;stroke:#000000;stroke-width:8.5039;stroke-miterlimit:2.6131;" d="
		M1231.63,2499.89c0.658-83.444,0.448-151.892-0.626-205.336c-1.318-22.825-13.767-36.719-37.347-41.68
		c-31.042-3.652-51.353,6.272-60.935,29.772v217.245H1231.63L1231.63,2499.89z"/>
	<path style="fill-rule:evenodd;clip-rule:evenodd;fill:#CD0000;stroke:#000000;stroke-width:8.5039;stroke-miterlimit:2.6131;" d="
		M1330.698,2499.89c0.658-83.444,0.448-151.892-0.626-205.336c-1.317-22.825-13.767-36.719-37.347-41.68
		c-31.041-3.652-51.354,6.272-60.935,29.772v217.245H1330.698L1330.698,2499.89z"/>
	<path style="fill-rule:evenodd;clip-rule:evenodd;fill:#CD0000;stroke:#000000;stroke-width:8.5039;stroke-miterlimit:2.6131;" d="
		M1429.828,2499.89c0.657-83.444,0.448-151.892-0.628-205.336c-1.317-22.825-13.766-36.719-37.345-41.68
		c-31.042-3.652-51.354,6.272-60.936,29.772v217.245H1429.828L1429.828,2499.89z"/>
	<path style="fill-rule:evenodd;clip-rule:evenodd;fill:#CD0000;stroke:#000000;stroke-width:8.5039;stroke-miterlimit:2.6131;" d="
		M1528.915,2499.89c0.706-85.752,0.512-155.895-0.585-210.421c-1.317-22.825-13.766-36.718-37.345-41.679
		c-31.042-3.652-51.354,6.271-60.936,29.772v222.329H1528.915L1528.915,2499.89z"/>
	<path style="fill-rule:evenodd;clip-rule:evenodd;fill:#CD0000;stroke:#000000;stroke-width:8.5039;stroke-miterlimit:2.6131;" d="
		M1628.068,2499.89c0.773-88.867,0.598-161.285-0.528-217.253c-1.317-22.825-13.767-36.719-37.346-41.68
		c-31.041-3.652-51.354,6.272-60.935,29.772v229.162H1628.068L1628.068,2499.89z"/>
	<path style="fill-rule:evenodd;clip-rule:evenodd;fill:#CD0000;stroke:#000000;stroke-width:8.5039;stroke-miterlimit:2.6131;" d="
		M1727.178,2499.89c0.807-90.425,0.641-163.983-0.498-220.665c-1.317-22.824-13.768-36.718-37.345-41.68
		c-31.044-3.652-51.354,6.272-60.936,29.772v232.573H1727.178L1727.178,2499.89z"/>
	<path d="M631.067,2358.396c-12.876-2.844-20.706-14.374-17.487-25.75c3.219-11.377,16.268-18.295,29.145-15.451
		c187.217,41.836,370.684,63.737,550.395,65.701c179.641,1.964,355.875-15.961,528.694-53.774
		c12.877-2.798,25.885,4.157,29.052,15.533c3.166,11.377-4.704,22.87-17.581,25.668c-176.576,38.636-356.822,56.949-540.728,54.938
		C1008.718,2423.252,821.554,2400.962,631.067,2358.396L631.067,2358.396z"/>
	<path style="fill:none;stroke:#FFFF00;stroke-width:8.5039;stroke-miterlimit:2.6131;" d="M697.832,2189.823
		c67.503-50.507,33.261-26.669,77.069-17.19c15.708,3.399-1.707,49.98,55.508,19.15c8.898-4.794,45.058,16.795,48.137,22.407
		c16.144,29.425,82.073-26.925,110.083,21.679c5.077,8.811,88.243-68.654,88.243,11.326c0-20.226,77.692-70.516,92.423-14.873
		c6.162,23.273,17.608,12.799,49.897-1.848c93.412-42.372,27.464,50.767,72.178,6.806c18.842-18.525,68.498-35.705,85.877,8.651
		c9.869-63.977,66.795-79.618,92.093-7.242c6.666,19.071,58.871-85.969,102.051-2.965c6.179,11.879,47.599-117.532,72.234-38.107
		c4.969,16.022,13.592,25.66,28.57,35.477l3.609,3.731"/>
	<path style="fill:none;stroke:#00FF00;stroke-width:8.5039;stroke-miterlimit:2.6131;" d="M697.832,2189.823
		c20.318,8.777,96.213-69.082,174.002-51.506c65.021,14.691,49.766,3.556,120.646,32.323c27.229,11.05,143.02,6.819,201.681,33.441
		c31.223,14.169,77.007,0.634,84.722,43.843c0.086,0.487,82.904-55.781,121.139-59.835c30.651-3.25,31.58-14.393,88.244-7.242
		c47.036,5.935,198.346-20.538,195.299,47.488c-0.364,8.136-4.771,4.484-9.565,6.623"/>
</g>
<g id="Layer_1">
</g>
</svg>
