<?xml version="1.0" encoding="iso-8859-1"?>
<!-- Generator: Adobe Illustrator 21.1.0, SVG Export Plug-In . SVG Version: 6.00 Build 0)  -->
<svg version="1.1" xmlns="http://www.w3.org/2000/svg" xmlns:xlink="http://www.w3.org/1999/xlink" x="0px" y="0px"
	 viewBox="0 0 2500 2500" style="enable-background:new 0 0 2500 2500;" xml:space="preserve">
<g id="Thug_Life_Cap">
	<path style="fill-rule:evenodd;clip-rule:evenodd;stroke:#000000;stroke-width:8.5039;stroke-miterlimit:2.6131;" d="
		M1166.133,1119.125c90.864-80.249,212.317-167.096,364.363-260.55C1222.611,676.544,1153.5,540.5,803.208,929.372
		c-143.607,159.424-191.712,328.206-114.294,535.215c33.036-59.87,91.08-112.615,174.12-158.237
		C1004.668,1234.586,1105.7,1172.176,1166.133,1119.125L1166.133,1119.125z"/>
	<path style="fill-rule:evenodd;clip-rule:evenodd;fill:#5A5A5A;stroke:#000000;stroke-width:8.5039;stroke-miterlimit:2.6131;" d="
		M1530.496,858.574c-171.095,107.636-292.548,194.489-364.363,260.55c134.708-28.247,245.904-11.083,333.589,51.495
		c136.449-40.485,236.575-66.85,356.778-55.12c142.882-63.51,236.786-181.197,220.84-279.135
		C2036.637,586.319,1655.786,775.896,1530.496,858.574L1530.496,858.574z"/>
	<path style="fill-rule:evenodd;clip-rule:evenodd;fill:#5A5A5A;stroke:#5A5A5A;stroke-width:8.5039;stroke-miterlimit:2.6131;" d="
		M812.394,917.729c17.309-24.178,37.76-46.078,61.353-65.695C814.074,843.608,793.623,865.508,812.394,917.729L812.394,917.729z"/>
	
		<path style="fill:none;stroke:#5A5A5A;stroke-width:8.5039;stroke-linecap:round;stroke-linejoin:round;stroke-miterlimit:2.6131;" d="
		M812.394,917.729C776.59,1046.519,774.43,1153.103,826.5,1293.5"/>
	
		<path style="fill:none;stroke:#5A5A5A;stroke-width:8.5039;stroke-linecap:round;stroke-linejoin:round;stroke-miterlimit:2.6131;" d="
		M873.747,852.034C1050.5,858.5,1114.889,911.457,1226.5,1031.5"/>
	<g>
		<g>
			<path style="fill:#FFFFFF;" d="M1186.987,817.184c7.903,9.751,6.917,18.198-3.619,29.203
				c11.423,12.45,22.863,24.919,34.646,37.762c6.629-7.997,4.401-17.138,4.395-25.885c0.38-0.203,0.76-0.406,1.141-0.608
				c1.423,2.701,3.388,5.25,4.178,8.128c4.026,14.677-2.398,29.081-15.099,38.065c-7.495,5.302-15.361,8.035-24.13,7.93
				c-12.012-0.143-21.479-5.204-26.978-16.293c-0.59-1.191-0.329-2.804-0.491-4.217c-0.021-0.183-0.242-0.333-0.312-0.521
				c-0.304-0.81-0.718-1.607-0.849-2.449c-0.266-1.712-0.376-3.45-0.55-5.177c-3.506,0.741-2.332-2.258-2.446-3.547
				c-0.466-5.274-0.552-10.584-0.757-15.374c-5.953,3.994-9.86,10.424-10.284,18.974c-0.073,1.471-0.612,2.922-0.935,4.383
				c-1.172-1.277-2.344-2.554-3.515-3.831c-2.791-8.295-1.61-16.302,2.768-23.668c1.579-2.657,5.24-4.048,6.98-6.659
				c2.51-3.767,5.218-6.43,9.439-8.655c7.364-3.883,13.902-9.346,20.781-14.155c4.788-3.347,5.763-6.106,4.351-12.224
				C1186.129,817.971,1186.558,817.578,1186.987,817.184z M1197.071,897.251c0.242,0.475,0.485,0.95,0.727,1.424
				c4.803-2.199,9.845-3.998,14.341-6.708c4.493-2.709,4.448-5.011,0.968-8.806c-8.093-8.824-16.188-17.645-24.283-26.468
				c-2.606-2.841-5.213-5.682-7.995-8.714c-2.187,1.575-3.978,2.863-6.096,4.388c5.622,6.128,10.525,11.999,15.991,17.289
				c6.13,5.933,8.433,12.867,7.241,21.184C1197.659,892.976,1197.369,895.114,1197.071,897.251z M1183.011,899.436
				c3.4-0.807,6.478-1.537,10.696-2.538c-1.049-2.422-1.779-5.461-3.496-7.761c-2.667-3.573-5.436-7.071-8.797-10.183
				c-5.45-5.046-10.123-10.921-15.252-16.325c-1.065-1.122-2.688-1.713-4.053-2.549c-0.55,1.691-1.912,3.62-1.508,5.031
				c1.736,6.051,3.272,12.348,6.266,17.787c2.83,5.141,7.496,9.239,11.149,13.955c2.284,2.949,4.189,6.194,6.665,9.907
				C1184.062,904.045,1183.6,902.02,1183.011,899.436z"/>
			<path style="fill:#FFFFFF;" d="M1333.68,814.321c-0.761-1.387-2.044-2.719-2.189-4.172c-0.543-5.455-0.715-10.949-1.065-17.12
				c-3.71,0.437-7.242,0.73-10.73,1.304c-2.519,0.414-4.286-0.164-6.053-2.141c-7.599-8.507-15.315-16.912-23.146-25.206
				c-1.989-2.107-1.82-3.529-0.342-5.913c1.963-3.165,2.947-6.918,4.776-10.183c1.234-2.202,3.245-5.682,4.829-5.652
				c4.305,0.083,6.863-3.582,10.824-3.81c4.039-0.232,6.145-2.626,6.436-6.758c0.107-1.516,0.886-2.99,1.359-4.484
				c0.398-0.085,0.795-0.169,1.193-0.254c0.76,2.003,1.521,4.005,2.458,6.473c2.785,0.268,3.696,2.129,1.244,4.822
				c-1.057,1.161-2.305,2.147-3.851,3.565c5.664,6.174,11.161,12.052,16.508,18.063c1.547,1.739,2.667,3.857,4.405,6.425
				c0.336-0.009,1.518-0.04,2.775-0.073c0.223,0.344,0.697,0.743,0.635,1.033c-0.687,3.246,0.745,3.013,3.029,2.052
				c1.101-0.463,2.553-0.731,3.65-0.417c2.408,0.688,4.153,3.732,7.264,1.89c0.928,1.807,2.981,3.904,2.592,5.372
				c-1.788,6.751-2.204,14.123-10.462,17.677c-7.057,3.037-11.583,9.346-14.854,16.326
				C1334.538,813.534,1334.109,813.927,1333.68,814.321z M1297.663,757.542c2.104,3.182,3.701,6.463,6.083,9.01
				c4.06,4.341,9.137,7.802,12.813,12.41c3.819,4.788,7.874,5.53,14.259,2.961c-0.934-3.598-0.939-8.08-3.084-10.969
				c-4.617-6.216-10.217-11.73-15.702-17.245c-1.1-1.106-3.763-1.732-5.209-1.202
				C1303.703,753.651,1300.906,755.69,1297.663,757.542z M1334.431,797.251c7.095-4.829,14.141-9.626,20.704-14.092
				c-6.675-1.624-14.025-3.412-21.682-5.274C1333.783,784.442,1334.123,791.17,1334.431,797.251z"/>
			<path style="fill:#FFFFFF;" d="M1230.027,819.757c-0.503,3.224-1.101,6.493-1.468,9.786c-0.098,0.875,0.264,2.037,0.838,2.704
				c3.359,3.906,6.911,7.647,10.226,11.589c0.616,0.733,0.703,2.152,0.585,3.208c-0.201,1.795-0.76,3.552-1.169,5.325
				c1.737-0.198,3.479-0.355,5.207-0.616c0.678-0.102,1.323-0.435,0.954-0.307c3.224,1.139,5.646,1.995,8.79,3.106
				c-0.375,3.202-0.834,7.119-1.325,11.314c-4.224,0.149-8.103,0.286-10.442,0.368c-2.587-4.057-4.278-7.584-6.754-10.425
				c-6.808-7.811-13.946-15.335-21.112-23.145c-1.691,1.218-3.071,2.212-4.738,3.413c-1.169-1.274-2.369-2.582-3.801-4.142
				c1.286-1.384,2.632-2.834,4.197-4.517c-4.024-5.88-8.69-10.645-16.416-11.201c-0.009-0.356-0.018-0.711-0.027-1.067
				c3.309-0.568,6.617-1.137,10.212-1.755c-0.439-4.864-1.175-9.855,3.694-13.684c0.059,13.248,11.252,18.802,17.474,27.719
				c0.377-0.08,0.755-0.16,1.132-0.241c0.979-6.608,1.958-13.216,2.972-20.061c6.482-0.58,11.978,0.687,16.338,5.448
				c6.437,7.029,12.847,14.083,19.347,21.052c2.797,2.999,3.359,6.943,4.965,10.396c5.215,11.207-1.042,19.649-5.498,28.655
				c-0.746,1.508-2.236,2.653-3.382,3.966c-0.399-0.239-0.797-0.479-1.196-0.718c0.494-1.352,1.068-2.681,1.467-4.059
				c1.281-4.425,3.162-8.81,3.594-13.318c0.807-8.436-3.988-14.485-9.98-19.702c-1.083-0.943-2.209-1.852-3.184-2.899
				c-4.103-4.406-8.346-8.703-12.161-13.349C1236.815,819.494,1233.982,818.641,1230.027,819.757z"/>
			<path style="fill:#FFFFFF;" d="M1292.216,818.228c-0.417-1.73-1.453-3.58-1.134-5.168c0.888-4.424-0.325-7.64-3.588-10.722
				c-4.181-3.949-7.724-8.565-11.814-12.619c-2.507-2.485-5.524-4.456-9.211-7.368c0.236-2.339,0.622-6.173,0.987-9.788
				c0.59-0.341,0.828-0.589,1.082-0.609c11.275-0.869,11.189-0.84,13.431,9.954c0.299,1.437,1.937,2.853,3.309,3.729
				c1.896,1.211,4.127,1.899,7.008,3.158c-1.917,1.243-2.666,1.728-2.526,1.638c2.034,1.371,4.261,2.66,6.228,4.266
				c1.648,1.346,2.984,3.069,4.471,4.613c4.645,4.822,4.647,4.82,10.127,0.875c-0.35,4.542-0.475,8.659-1.121,12.696
				c-0.153,0.959-2.23,2.498-3.123,2.32c-4.079-0.813-8.051-2.142-12.363-3.371c-0.413,1.381-1.163,3.882-1.912,6.383
				L1292.216,818.228z"/>
			<path style="fill:#FFFFFF;" d="M1292.067,818.214c-0.185,4.059-0.369,8.119-0.566,12.452c-6.841-0.211-12.299,0.242-16.885-6.238
				c-5.602-7.915-13.226-14.432-20.288-21.231c-1.18-1.136-3.945-0.629-6.847-0.989c0.339-3.629,0.788-8.432,1.287-13.759
				c4.015-0.119,7.85-0.233,11.629-0.345c3.653,12.94,15.267,19.459,22.749,29.189c1.946,2.53,5.769,3.067,9.073,0.933
				C1292.216,818.228,1292.067,818.214,1292.067,818.214z"/>
		</g>
		<g>
			<path style="fill:#FFFFFF;" d="M1268.819,887.509c-0.602,1.353-1.055,2.798-1.831,4.043c-3.641,5.845-3.227,9.802,1.301,14.823
				c2.092,2.32,3.828,4.971,5.628,7.541c2.212,3.157,5.062,5.271,8.326,7.454c4.116,2.753,7.756,7.222,9.8,11.77
				c2.282,5.078,2.973,11.029,3.546,16.687c0.424,4.195-0.447,8.53-0.738,12.74c4.339-4.935,8.235-9.983,12.775-14.365
				c4.953-4.781,10.75-8.279,18-8.784c1.16-0.081,2.244-2.21,3.261-3.474c0.675-0.838,1.168-1.821,1.742-2.74
				c0.42,0.178,0.839,0.357,1.259,0.535c-0.504,6.861-1.008,13.723-1.578,21.48c-4.458-0.108-8.744-0.251-13.031-0.281
				c-0.806-0.006-2.13,0.217-2.349,0.712c-2.545,5.741-9.071,7.404-12.42,12.191c-4.633,6.621-8.996,13.43-13.433,20.186
				c-0.819,1.248-1.437,2.626-2.148,3.945c-0.495-0.088-0.99-0.176-1.484-0.264c0.165-3.607,0.535-7.221,0.437-10.818
				c-0.097-3.554,0.022-7.348-1.168-10.583c-2.767-7.521-8.164-9.545-15.645-6.655c-0.913,0.353-1.818,0.724-2.727,1.086
				c-0.303-0.29-0.606-0.58-0.909-0.87c2.113-2.709,4.226-5.418,6.365-8.16c-3.477-4.731-8.779-4.204-17.545,1.935
				c-1.291-4.24-0.811-5.352,5.478-12.943c-2.837-4.026-6.235-7.681-8.219-11.994c-1.984-4.311-2.553-9.281-3.859-14.421
				c-2.32,7.011-7.697,10.667-13.913,13.554c-3.508,1.629-5.887,4.172-4.75,8.589c0.261,1.014-0.132,2.201-0.277,3.954
				c-3.864-2.547-5.034-5.857-4.547-9.495c1.017-7.59,2.958-14.654,11.515-17.61c7.869-2.718,13.91-7.627,16.938-15.953
				c0.088,0.731,0.328,1.478,0.242,2.189c-1.145,9.444,2.995,16.748,9.187,23.238c2.092,2.193,3.946,4.692,6.319,6.52
				c3.73,2.872,6.254,6.124,5.316,11.17c5.371-0.938,8.272,0.311,10.221,5.631c2.415,6.593,4.036,13.485,5.94,20.265
				c0.403,1.435,0.547,2.944,0.81,4.419c0.481-0.021,0.962-0.043,1.443-0.065c0.068-4.483,1.043-9.197-0.001-13.396
				c-1.714-6.893-4.74-13.451-7.204-20.154c-0.383-1.042-1.224-2.232-0.988-3.132c0.955-3.639-0.813-4.357-3.84-4.108
				c-0.629,0.052-1.517,0.207-1.87-0.126c-6.994-6.583-15.235-11.978-19.548-21.098c-3.965-8.384-1.232-19.548,6.413-24.874
				c0.768-0.535,1.816-0.667,2.734-0.986C1268.135,887.047,1268.477,887.278,1268.819,887.509z"/>
			<path style="fill:#FFFFFF;" d="M1355.994,912.259c0.473-4.863-1.84-8.792-5.267-12.422c-7.309-7.744-14.432-15.662-21.804-23.697
				c-1.927,1.477-3.491,2.676-5.281,4.048c-2.355-2.696-5.266-4.906-1.331-8.6c0.442-0.415-0.125-2.887-0.918-3.478
				c-6.891-5.129-7.475-11.684-5.508-19.518c0.919-3.661,1.838-6.326,5.601-7.732c2.515-0.939,4.775-2.57,7.443-4.055
				c1.618,3.327,3.038,6.247,4.615,9.489c-3.04,1.932-5.926,3.766-9.133,5.804c2.85,3.106,5.517,6.013,8.532,9.3
				c2.305-1.897,4.704-3.87,7.514-6.181c1.26,2.174,2.378,4.104,3.463,5.978c-1.993,2.055-3.852,3.972-5.945,6.13
				c8.787,9.577,17.283,18.975,25.998,28.166c1.117,1.178,3.432,1.149,5.08,1.917c1.223,0.57,2.264,1.525,4.065,2.783
				c0.552-0.507,1.938-1.778,4.228-3.879c-1.002,4.964-1.79,8.872-2.584,12.804C1368.703,910.13,1362.381,911.189,1355.994,912.259z
				"/>
			<path style="fill:#FFFFFF;" d="M1407.066,861.594c-1.24,7.233-2.32,14.5-3.883,21.665c-0.247,1.132-2.565,2.173-4.106,2.625
				c-5.141,1.506-10.363,2.726-14.608,3.813c-2.425-3.627-4.8-7.984-7.938-11.695c-5.592-6.61-11.711-12.771-17.458-19.254
				c-1.359-1.533-2.19-3.563-3.108-5.441c-0.263-0.538-0.007-1.942,0.054-1.945c6.626-0.329-0.948-6.938,3.823-8.723
				c0.898-0.336-0.015-5.592-0.074-7.893c8.657,0.105,16.676,0.202,25.099,0.304c-0.845,7.762-1.293,15.283-2.594,22.659
				c-0.926,5.247-0.069,9.3,4.201,12.525c1.675,1.265,3.332,3.918,4.822,3.786c3.512-0.311,7.3-1.331,10.21-3.238
				c1.513-0.992,1.284-4.515,2.073-6.818c0.381-1.114,1.294-2.05,1.967-3.066C1406.052,861.129,1406.559,861.362,1407.066,861.594z
				 M1380.724,846.829c-5.431-0.064-10.383-0.123-15.43-0.182c4.094,4.462,8.249,8.991,13.029,14.2
				C1379.2,855.727,1379.938,851.42,1380.724,846.829z"/>
			<path style="fill:#FFFFFF;" d="M1302.542,899.659c0.675-5.116,1.202-9.103,1.791-13.562c2.718-0.085,5.371-0.169,8.258-0.259
				c0.052,1.594,0.094,2.855,0.151,4.611c1.263-1.873,2.281-3.383,3.298-4.894c0.444,0.02,0.888,0.04,1.332,0.06
				c-0.98,7.065,4.428,10.211,7.909,14.574c3.376,4.231,6.38,8.764,9.825,12.935c3.395,4.111,7.293,7.686,12.863,8.512
				c0.937-1.713,1.67-3.055,2.403-4.396c0.582,0.145,1.164,0.291,1.746,0.436c-0.845,5.176-1.138,10.527-2.746,15.46
				c-0.931,2.856-8.464,2.14-11.691-1.208c-4.999-5.187-9.82-10.576-14.335-16.187c-2.297-2.854-3.749-6.386-5.614-9.594
				c-0.284-0.489-0.81-1.306-1.097-1.253C1310.55,906.021,1309.332,896.867,1302.542,899.659z"/>
			<path style="fill:#FFFFFF;" d="M1293.302,867.46c2.004-1.838,3.648-3.347,5.852-5.369c0.515,5.533,0.972,10.443,1.429,15.352
				c-0.238,0.123-0.476,0.246-0.714,0.37C1297.73,874.442,1295.591,871.07,1293.302,867.46z"/>
		</g>
	</g>
</g>
<g id="Layer_1">
</g>
</svg>
