<?xml version="1.0" encoding="UTF-8" standalone="no"?><!DOCTYPE svg PUBLIC "-//W3C//DTD SVG 1.1//EN" "http://www.w3.org/Graphics/SVG/1.1/DTD/svg11.dtd"><svg width="100%" height="100%" viewBox="0 0 2500 2500" version="1.1" xmlns="http://www.w3.org/2000/svg" xmlns:xlink="http://www.w3.org/1999/xlink" xml:space="preserve" xmlns:serif="http://www.serif.com/" style="fill-rule:evenodd;clip-rule:evenodd;"><g id="Layer-1" serif:id="Layer 1"><path d="M1301,621c-0.691,1.556 -1.656,2.869 -2.792,4.039c32.261,4.34 56.819,-1.304 73.108,-16.851c25.509,-24.346 19.82,-63.088 19.565,-64.725c-0.847,-5.445 -5.938,-9.163 -11.385,-8.333c-5.448,0.83 -9.195,5.927 -8.382,11.377c0.045,0.301 4.277,30.252 -13.691,47.294c-11.403,10.817 -29.732,14.705 -54.54,11.667c0.88,5.096 0.775,10.216 -1.883,15.532Z" style="fill:#fff;fill-rule:nonzero;stroke:#000;stroke-width:8px;"/><path d="M1487.47,677.651c0,0 6.135,-61.548 28.401,-80.975c22.267,-19.426 80.064,-15.274 81.617,-0.054c1.554,15.219 -23.793,45.015 -31.938,69.506c-8.146,24.49 -52.036,34.888 -78.08,11.523Z" style="fill:#a4a4a4;fill-rule:nonzero;stroke:#000;stroke-width:8px;"/><path d="M1252.99,656c0,0 16,-76 36,-80c20,-4 56,-4 56,12c0,16 -12,60 -12,60c0,0 -52,20 -80,8Z" style="fill:#a4a4a4;fill-rule:nonzero;stroke:#000;stroke-width:8px;"/><path d="M1795.69,492.2c-0.517,-0.469 -1.931,-2.128 -3.153,-7.101c-0.217,-0.883 -0.358,-1.789 -0.429,-2.716c-0.478,-6.295 2.342,-13.498 6.965,-20.228c0.252,0.495 0.484,1.015 0.674,1.585c1.012,3.046 1.567,6.01 1.778,8.805c0.517,6.812 -1.003,12.617 -2.916,16.136c-1.268,2.333 -2.418,3.244 -2.919,3.519Zm60.034,24.1c-0.423,-0.342 -0.914,-0.774 -1.555,-1.446c-2.805,-2.941 -4.229,-6.659 -4.542,-10.779c-0.492,-6.489 1.775,-13.974 5.755,-20.999c0.713,4.562 1.181,8.666 1.457,12.307c0.85,11.199 -0.085,18.022 -1.115,20.917Zm51.939,11.297c-0.456,-0.174 -1.165,-0.514 -2.19,-1.215c-4.178,-2.852 -5.67,-8.119 -6.045,-13.059c-0.281,-3.7 0.065,-7.217 0.378,-9.396c0.625,-4.364 1.807,-8.715 3.355,-12.805c0.71,2.206 1.381,4.469 1.994,6.785c1.934,7.303 2.905,13.425 3.269,18.223c0.45,5.931 -0.027,9.835 -0.761,11.467Zm32.859,20.132c-0.086,-0.066 -0.138,-0.091 -0.248,-0.185c-0.807,-0.693 -1.263,-1.732 -1.368,-3.106c-0.079,-1.05 0.046,-2.295 0.378,-3.73c0.868,-3.749 2.97,-7.947 5.799,-12.135c-0.076,1.272 -0.169,2.527 -0.297,3.74c-0.942,8.993 -3.021,13.825 -4.264,15.416Zm35.37,17.489c-2.613,-1.613 -3.468,-3.225 -3.587,-4.786c-0.056,-0.727 0.049,-1.442 0.211,-2.141c1.56,-6.747 10.133,-14.966 19.59,-20.176c-0.223,11.284 -2.801,21.399 -6.834,26.25c-2.191,2.635 -4.625,3.788 -9.38,0.853Zm41.339,37.615c-0.449,-0.252 -1.228,-0.79 -2.425,-2.073c-2.804,-3.007 -4.188,-6.569 -4.471,-10.302c-0.536,-7.06 2.862,-14.729 8.033,-20.407c0.972,-1.067 2.051,-2.099 3.211,-3.057c0.177,2.939 0.292,5.913 0.287,8.897c-0.023,16.506 -2.961,24.915 -4.635,26.942Zm-165.329,-136.432c-9.398,11.347 -15.608,25.872 -14.626,38.811c0.51,6.725 2.96,13.017 7.908,18.207c9.569,10.039 16.47,5.092 18.358,3.336c6.097,-5.67 6.646,-19.636 5.705,-32.03c-0.362,-4.767 -0.944,-9.301 -1.517,-13.041c-0.376,-2.469 -1.097,-6.722 -2.212,-11.772c7.25,-7.058 16.814,-12.184 22.13,-7.618c3.085,2.649 6.29,7.319 9.263,13.263c-4.838,8.182 -8.137,17.848 -9.393,26.608c-0.604,4.208 -0.755,8.194 -0.474,11.895c0.762,10.041 4.705,17.984 11.43,22.575c10.968,7.487 17.085,1.205 18.698,-0.898c3.623,-4.723 4.242,-12.619 3.643,-20.519c-0.615,-8.106 -2.514,-16.216 -3.772,-20.91c-0.873,-3.255 -2.875,-10.094 -5.973,-17.544c2.942,-3.704 6.152,-6.378 9.299,-7.4c2.123,-0.689 5.439,-1.097 9.707,3.3c7.981,8.223 12.652,22.715 14.392,37.198c-8.446,8.638 -15.179,18.984 -17.277,28.046c-0.613,2.646 -0.824,5.162 -0.647,7.501c0.355,4.681 2.269,8.654 5.642,11.551c5.612,4.821 12.323,4.658 17.095,-0.415c6.357,-6.755 9.341,-23.68 8.104,-41.866c5.782,-5.121 12.044,-9.106 17.436,-10.51c6.1,-1.588 8.203,0.73 8.994,1.603c3.515,3.875 6.122,10.749 7.417,18.981c-13.974,6.177 -27.948,18.36 -30.81,30.743c-0.466,2.014 -0.621,3.979 -0.478,5.866c0.441,5.807 3.703,10.885 9.427,14.418c9.333,5.762 18.846,4.461 25.447,-3.48c6.339,-7.626 9.98,-21.527 9.738,-37.183c-0.009,-0.583 -0.059,-1.141 -0.078,-1.719c0.732,-0.137 1.46,-0.259 2.166,-0.329c6.982,-0.692 8.397,2.437 8.929,3.616c1.86,4.115 3.394,9.85 4.483,16.397c-4.055,2.217 -7.754,5.194 -10.866,8.611c-7.372,8.096 -12.069,19.183 -11.261,29.826c0.477,6.295 2.883,12.435 7.799,17.708c8.466,9.079 15.413,6.043 18.007,4.315c8.649,-5.759 10.508,-23.546 10.545,-37.453c0.01,-3.764 -0.132,-7.936 -0.46,-12.259c-0.056,-0.753 -0.134,-1.519 -0.203,-2.28c3.784,-0.377 7.718,0.515 11.466,3.407c10.874,8.388 14.27,21.018 15.203,30.137c0.051,0.501 0.096,1.004 0.135,1.509c1.085,14.298 -3.024,29.807 -10.204,38.231c-1.183,0.963 -7.461,4.262 -39.99,9.154c-22.631,3.404 -51.779,6.743 -82.638,10.279c-38.456,4.406 -78.082,8.963 -110.699,14.231c-26.329,-60.311 -69.217,-160.472 -70.789,-181.185c-1.065,-14.018 16.433,-27.451 32.802,-30.74c2.254,-0.452 5.865,-0.967 9.494,-0.628c-5.83,8.822 -9.322,18.531 -8.636,27.565c0.117,1.539 0.354,3.059 0.72,4.551c2.844,11.573 8.194,15.248 12.181,16.292c4.54,1.188 9.344,-0.476 13.179,-4.567c5.275,-5.629 8.958,-16.253 8.05,-28.225c-0.289,-3.814 -1.045,-7.765 -2.365,-11.734c-0.943,-2.842 -2.324,-5.344 -4.087,-7.483c4.053,-3.889 8.574,-7.261 13.153,-9.698c4.324,-2.3 14.993,-6.978 20.641,-0.752c3.812,4.2 7.683,13.281 10.669,24.507Zm-37.14,-34.714c-6.294,3.348 -12.394,8.056 -17.711,13.533c-5.753,-2.043 -12.778,-2.387 -20.592,-0.817c-21.821,4.384 -44.365,22.395 -42.736,43.849c1.575,20.749 34.756,100.208 70.56,182.366c-44.96,8.042 -54.865,14.758 -58.615,20.833c-16.843,27.286 -31.69,74.187 -32.314,76.17c-0.245,0.776 -0.329,1.566 -0.27,2.331c0.187,2.455 1.834,4.668 4.327,5.452c3.27,1.029 6.755,-0.788 7.784,-4.058c0.148,-0.471 15.011,-47.414 31.035,-73.374c1.06,-1.715 8.036,-7.777 53.162,-15.651c2.677,6.122 5.361,12.243 8.04,18.343c4.445,10.119 7.657,17.431 9.002,20.633c0.552,1.316 0.885,2.93 1.027,4.793c1.251,16.481 -12.506,52.459 -22.586,73.471c-0.488,1.017 -0.675,2.1 -0.595,3.149c0.162,2.141 1.432,4.137 3.505,5.132c3.09,1.483 6.798,0.18 8.281,-2.909c0.314,-0.656 7.777,-16.258 14.303,-34.652c7.071,-19.929 10.179,-34.891 9.387,-45.331c-0.247,-3.255 -0.873,-6.069 -1.876,-8.458c-1.385,-3.296 -4.613,-10.647 -9.082,-20.821c-1.984,-4.515 -4.272,-9.722 -6.776,-15.44c31.719,-5.006 69.925,-9.386 106.979,-13.632c86.938,-9.96 123.09,-14.883 130.572,-23.596c9.483,-11.038 14.588,-29.406 13.233,-47.249c-0.048,-0.642 -0.105,-1.284 -0.171,-1.925c-1.67,-16.311 -8.762,-30.056 -19.97,-38.701c-6.705,-5.173 -13.865,-6.742 -20.698,-5.927c-1.166,-6.443 -2.811,-12.604 -5.082,-17.63c-3.57,-7.896 -11.393,-11.853 -21.464,-10.856c-0.721,0.072 -1.47,0.206 -2.215,0.329c-1.788,-9.923 -5.288,-18.201 -10.197,-23.612c-5.122,-5.646 -12.692,-7.52 -21.315,-5.276c-5.188,1.35 -10.757,4.286 -16.16,8.168c-2.714,-14.113 -8.092,-27.591 -16.551,-36.306c-6.544,-6.742 -14.516,-9.036 -22.447,-6.46c-4.129,1.34 -7.93,3.906 -11.352,7.251c-2.709,-4.606 -5.85,-8.842 -9.448,-11.932c-8.797,-7.556 -21.488,-5.981 -33.773,3.638c-2.734,-8.662 -6.496,-17.408 -11.536,-22.963c-8.103,-8.931 -21.102,-9.611 -35.665,-1.865Z" style="fill:#a4a4a4;fill-rule:nonzero;stroke:#000;stroke-width:8px;"/><path d="M539.658,1433.23c0,0 -43.257,-552.38 514.404,-732.124c557.659,-179.745 962.222,90.944 1069.88,453.089c0,0 -807.235,-255.354 -1584.28,279.035Z" style="fill:#a4a4a4;fill-rule:nonzero;stroke:#000;stroke-width:8px;"/><path d="M539.658,1433.23c0,0 -43.257,-552.38 514.404,-732.124c557.659,-179.745 962.222,90.944 1069.88,453.089c0,0 -807.235,-255.354 -1584.28,279.035Z" style="fill:#a4a4a4;fill-rule:nonzero;stroke:#000;stroke-width:8px;"/><path d="M1883,863c-192,-200 -476,-184 -476,-184c275.463,65.735 396.596,317.636 436.25,424.076c94.43,9.384 169.158,23.676 217.691,34.765c-19.543,-61.121 -66.258,-158.505 -177.941,-274.841Z" style="fill:#fff;fill-rule:nonzero;"/><path d="M733.598,1013.36c147.019,-235.051 428.286,-277.494 428.286,-277.494c-256.188,120.703 -323.221,392.058 -340.26,504.359c-90.512,28.505 -160.736,57.784 -205.974,78.568c6.624,-63.826 32.428,-168.708 117.948,-305.433Z" style="fill:#7d7d7d;fill-rule:nonzero;"/><path d="M496.056,1555.97c0,0 27.935,-208.359 640.761,-352.991c612.827,-144.63 1081.93,-41.144 1062.54,56.378c0,0 99.971,-105.218 -240.902,-168.334c-340.873,-63.114 -789.643,-3.338 -1158.2,144.1c-345.56,138.24 -356.344,325.827 -304.202,320.847Z" style="fill:#979797;fill-rule:nonzero;stroke:#000;stroke-width:8px;"/><path d="M841.433,434.618c-2.802,-4.336 -5.322,-11.649 -5.322,-20.454c0,-3.613 0.424,-7.477 1.428,-11.489c0.188,-0.752 0.436,-1.442 0.711,-2.103c6.598,8.199 10.924,17.18 10.924,25.318c0,1.197 -0.093,2.377 -0.285,3.532c-1.085,6.511 -2.742,8.781 -3.361,9.434c-0.67,-0.304 -2.236,-1.363 -4.095,-4.238Zm-74.185,14.295c0,-4.707 0.202,-10.027 0.672,-15.96c5.801,8.64 9.445,18.039 9.445,26.426c0,5.327 -1.468,10.244 -4.784,14.297c-0.759,0.928 -1.348,1.529 -1.858,2.011c-1.606,-3.621 -3.475,-12.299 -3.475,-26.774Zm-64.273,31.697c0,-6.203 0.65,-14.165 2.423,-23.74c0.562,-3.037 1.204,-6.01 1.901,-8.915c2.388,5.106 4.331,10.583 5.561,16.13c0.615,2.771 1.402,7.256 1.402,12.039c0,6.386 -1.403,13.301 -6.494,17.374c-1.25,1 -2.127,1.506 -2.698,1.775c-1.101,-2.025 -2.095,-6.997 -2.095,-14.663Zm-45.156,24.347c-0.282,-1.548 -0.524,-3.152 -0.746,-4.778c4.045,5.106 7.155,10.296 8.636,15.029c0.567,1.812 0.85,3.4 0.85,4.757c0,1.776 -0.485,3.156 -1.455,4.126c-0.131,0.131 -0.195,0.169 -0.301,0.263c-1.751,-1.924 -4.896,-7.933 -6.984,-19.397Zm-48.906,45.143c-5.657,-5.842 -9.956,-18.59 -11.345,-33.07c12.663,5.773 24.484,15.5 27.147,24.019c0.276,0.883 0.48,1.791 0.48,2.73c0,2.018 -0.943,4.174 -4.144,6.501c-5.826,4.238 -9.066,2.992 -12.138,-0.18Zm-45.909,18.383c-0.296,-3.835 -0.439,-7.668 -0.498,-11.462c1.585,1.118 3.072,2.338 4.425,3.615c7.2,6.794 12.316,16.319 12.316,25.444c0,4.826 -1.431,9.539 -4.742,13.677c-1.412,1.765 -2.361,2.533 -2.915,2.9c-2.349,-2.442 -6.944,-12.962 -8.586,-34.174Zm219.083,-189.839c6.652,-8.553 20.82,-3.581 26.602,-1.046c6.124,2.684 12.263,6.577 17.851,11.18c-2.056,2.922 -3.588,6.272 -4.524,10.016c-1.308,5.23 -1.893,10.382 -1.893,15.312c0,15.475 5.77,28.77 13.1,35.49c5.327,4.883 11.663,6.554 17.382,4.583c5.023,-1.731 11.541,-6.974 14.066,-22.126c0.326,-1.953 0.482,-3.93 0.482,-5.92c0,-11.677 -5.435,-23.815 -13.788,-34.585c4.632,-0.788 9.322,-0.48 12.262,-0.118c21.36,2.63 45.159,18.187 45.159,36.307c0,26.774 -45.349,159.688 -73.305,239.77c-42.434,-3.588 -93.807,-5.58 -143.662,-7.491c-40.006,-1.533 -77.793,-2.981 -107.211,-5.148c-42.285,-3.115 -50.676,-6.742 -52.29,-7.864c-10.05,-10.126 -16.843,-29.658 -16.843,-48.14c0,-0.653 0.008,-1.303 0.025,-1.953c0.311,-11.81 3.442,-28.374 16.599,-40.215c4.535,-4.082 9.505,-5.613 14.405,-5.498c-0.014,0.985 -0.039,1.977 -0.039,2.95c0,5.588 0.225,10.964 0.605,15.8c1.404,17.87 5.53,40.549 17.207,47.108c3.502,1.967 12.725,5.192 22.723,-7.304c5.804,-7.255 8.295,-15.381 8.295,-23.519c0,-13.756 -7.119,-27.549 -17.383,-37.234c-4.332,-4.088 -9.378,-7.553 -14.806,-10.007c0.763,-8.521 2.173,-16.041 4.163,-21.512c0.569,-1.566 2.081,-5.726 11.123,-5.518c0.914,0.021 1.861,0.107 2.816,0.212c0.032,0.744 0.022,1.466 0.068,2.217c1.216,20.146 7.25,37.655 16.142,46.838c9.258,9.562 21.611,10.306 33.044,1.991c7.013,-5.1 10.71,-11.944 10.71,-19.45c0,-2.44 -0.391,-4.951 -1.186,-7.494c-4.887,-15.635 -24.036,-29.93 -42.598,-36.505c0.862,-10.707 3.541,-19.796 7.681,-25.118c0.932,-1.199 3.409,-4.384 11.402,-2.939c7.069,1.279 15.506,5.789 23.436,11.807c0.184,23.494 5.671,44.956 14.499,53.017c6.63,6.054 15.27,5.609 22.012,-1.134c4.053,-4.052 6.123,-9.346 6.123,-15.396c0,-3.024 -0.517,-6.237 -1.562,-9.578c-3.581,-11.443 -13.244,-24.081 -24.941,-34.36c0.825,-18.783 5.413,-37.864 14.868,-49.212c5.057,-6.067 9.358,-5.867 12.153,-5.188c4.145,1.007 8.532,4.129 12.674,8.602c-3.255,9.878 -5.161,18.864 -5.964,23.132c-1.159,6.156 -2.809,16.764 -2.809,27.242c0,10.212 1.567,20.299 6.685,26.017c2.278,2.545 10.752,10.022 24.118,-0.671c8.195,-6.556 12.488,-17.15 12.488,-30.128c0,-4.785 -0.584,-9.893 -1.77,-15.243c-2.47,-11.135 -7.652,-23.236 -14.669,-33.28c3.242,-7.929 6.905,-14.244 10.611,-17.949c6.388,-6.388 19.181,-0.733 29.187,7.631c-0.941,6.599 -1.452,12.136 -1.696,15.346c-0.371,4.862 -0.676,10.746 -0.676,16.908c0,16.021 2.068,33.917 10.457,40.61c2.597,2.072 11.949,7.756 23.268,-6.079c5.852,-7.152 8.387,-15.479 8.387,-24.171c0,-16.726 -9.397,-34.788 -22.584,-48.454c2.743,-14.72 6.832,-26.768 11.321,-32.539Zm-12.63,-9.824c-5.936,7.632 -9.916,19.238 -12.585,30.637c-16.728,-11.164 -33.193,-11.949 -43.763,-1.379c-4.321,4.321 -7.944,10.071 -10.977,16.256c-4.725,-3.964 -9.861,-6.892 -15.297,-8.212c-10.445,-2.537 -20.466,1.19 -28.22,10.493c-10.021,12.026 -15.618,29.873 -17.731,48.277c-7.321,-4.463 -14.766,-7.692 -21.566,-8.922c-11.3,-2.043 -20.846,1.103 -26.879,8.86c-5.781,7.433 -9.473,18.414 -10.803,31.342c-0.969,-0.086 -1.945,-0.185 -2.878,-0.206c-13.041,-0.299 -22.71,5.55 -26.527,16.046c-2.429,6.681 -3.941,14.76 -4.812,23.154c-8.86,-0.381 -17.909,2.334 -26.023,9.637c-13.561,12.204 -21.335,30.561 -21.89,51.688c-0.022,0.829 -0.033,1.66 -0.033,2.49c0,23.065 8.355,46.173 21.617,59.435c10.468,10.468 57.411,13.269 170.117,17.588c48.037,1.842 97.568,3.744 138.823,7.084c-2.661,7.593 -5.093,14.509 -7.202,20.505c-4.751,13.511 -8.184,23.274 -9.641,27.645c-1.056,3.168 -1.586,6.847 -1.586,11.053c0,13.496 5.454,32.422 16.486,57.346c10.182,23.003 21.295,42.328 21.763,43.139c2.208,3.827 7.1,5.139 10.927,2.932c2.568,-1.481 4.004,-4.171 4.004,-6.937c0,-1.356 -0.345,-2.731 -1.072,-3.99c-15.005,-26.022 -36.195,-70.92 -36.195,-92.223c0,-2.409 0.271,-4.516 0.852,-6.26c1.416,-4.247 4.83,-13.958 9.556,-27.398c2.849,-8.1 5.701,-16.23 8.544,-24.359c58.766,5.718 68.323,12.828 69.851,14.929c23.128,31.801 46.81,90.684 47.047,91.275c1.641,4.102 6.297,6.097 10.399,4.456c3.128,-1.251 5.03,-4.255 5.03,-7.43c0,-0.989 -0.184,-1.995 -0.574,-2.969c-0.995,-2.488 -24.653,-61.317 -48.963,-94.743c-5.412,-7.442 -18.798,-15.107 -77.365,-21.057c38.002,-109.085 72.895,-214.444 72.895,-241.265c0,-27.733 -30.731,-48.682 -59.204,-52.187c-10.197,-1.255 -19.191,-0.129 -26.386,3.058c-7.368,-6.52 -15.668,-11.975 -24.083,-15.664c-19.472,-8.535 -36.113,-6.393 -45.656,5.876Z" style="fill:#a4a4a4;fill-rule:nonzero;stroke:#000;stroke-width:8px;"/><path d="M1135.81,679.762c0,0 -24.003,-57.006 -51.005,-69.007c-27.003,-12.001 -81.009,9.001 -78.008,24.002c3,15.002 36.004,36.004 51.005,57.006c15.002,21.002 60.007,18.003 78.008,-12.001Z" style="fill:#a4a4a4;fill-rule:nonzero;stroke:#000;stroke-width:8px;"/><path d="M1357.83,676.763c0,6.624 -10.083,12.001 -22.502,12.001c-12.419,0 -22.502,-5.377 -22.502,-12.001c0,-6.624 10.083,-12.001 22.502,-12.001c12.419,0 22.502,5.377 22.502,12.001Z"/><path d="M1315.82,730.769c0,6.623 -10.083,12.001 -22.502,12.001c-12.419,0 -22.502,-5.378 -22.502,-12.001c0,-6.624 10.083,-12.001 22.502,-12.001c12.419,0 22.502,5.377 22.502,12.001Z"/><path d="M1441.84,724.768c0,6.624 -10.083,12.002 -22.502,12.002c-12.419,0 -22.502,-5.378 -22.502,-12.002c0,-6.623 10.083,-12.001 22.502,-12.001c12.419,0 22.502,5.378 22.502,12.001Z"/><path d="M1504.84,685.764c0,6.624 -10.083,12.002 -22.502,12.002c-12.419,0 -22.502,-5.378 -22.502,-12.002c0,-6.623 10.083,-12.001 22.502,-12.001c12.419,0 22.502,5.378 22.502,12.001Z"/><path d="M931.997,788.93c3.193,5.804 -3.049,15.376 -13.931,21.362c-10.881,5.986 -22.308,6.134 -25.5,0.33c-3.193,-5.804 3.05,-15.375 13.931,-21.361c10.881,-5.986 22.308,-6.134 25.5,-0.331Z"/><path d="M826.987,857.938c3.193,5.803 -3.05,15.375 -13.931,21.361c-10.881,5.986 -22.308,6.134 -25.5,0.33c-3.193,-5.803 3.049,-15.375 13.931,-21.361c10.881,-5.986 22.308,-6.134 25.5,-0.33Z"/><path d="M901.994,869.939c3.193,5.803 -3.049,15.375 -13.931,21.361c-10.881,5.986 -22.307,6.134 -25.5,0.33c-3.193,-5.803 3.05,-15.375 13.931,-21.361c10.882,-5.986 22.308,-6.134 25.5,-0.33Z"/><path d="M998.004,836.935c3.193,5.804 -3.049,15.376 -13.931,21.361c-10.881,5.986 -22.308,6.134 -25.5,0.331c-3.193,-5.804 3.049,-15.375 13.931,-21.361c10.881,-5.986 22.308,-6.134 25.5,-0.331Z"/><path d="M1091.01,767.928c3.192,5.804 -3.05,15.376 -13.932,21.362c-10.881,5.986 -22.307,6.134 -25.5,0.33c-3.193,-5.804 3.05,-15.375 13.931,-21.361c10.882,-5.986 22.308,-6.134 25.501,-0.331Z"/><path d="M977.002,893.941c3.193,5.804 -3.049,15.375 -13.931,21.361c-10.881,5.986 -22.308,6.134 -25.5,0.331c-3.193,-5.804 3.049,-15.376 13.931,-21.362c10.881,-5.985 22.308,-6.134 25.5,-0.33Z"/><path d="M811.986,926.944c3.192,5.804 -3.05,15.375 -13.931,21.361c-10.882,5.986 -22.308,6.134 -25.501,0.331c-3.192,-5.804 3.05,-15.376 13.931,-21.362c10.882,-5.986 22.308,-6.134 25.501,-0.33Z"/><path d="M708.31,988.167c1.952,3.547 -1.863,9.397 -8.514,13.056c-6.651,3.658 -13.634,3.749 -15.585,0.202c-1.952,-3.547 1.863,-9.397 8.514,-13.056c6.651,-3.659 13.634,-3.749 15.585,-0.202Z"/><path d="M807.32,1000.17c1.951,3.547 -1.864,9.398 -8.514,13.056c-6.651,3.659 -13.634,3.749 -15.586,0.202c-1.951,-3.547 1.864,-9.397 8.515,-13.056c6.65,-3.658 13.634,-3.749 15.585,-0.202Z"/><path d="M903.329,961.164c1.952,3.548 -1.863,9.398 -8.514,13.056c-6.651,3.659 -13.634,3.749 -15.585,0.202c-1.952,-3.547 1.863,-9.397 8.514,-13.055c6.651,-3.659 13.634,-3.75 15.585,-0.203Z"/><path d="M1020.34,961.164c1.951,3.548 -1.864,9.398 -8.514,13.056c-6.651,3.659 -13.634,3.749 -15.586,0.202c-1.951,-3.547 1.864,-9.397 8.515,-13.055c6.65,-3.659 13.634,-3.75 15.585,-0.203Z"/><path d="M1092.35,904.159c1.951,3.547 -1.864,9.397 -8.515,13.056c-6.65,3.658 -13.634,3.749 -15.585,0.202c-1.952,-3.547 1.864,-9.397 8.514,-13.056c6.651,-3.658 13.634,-3.749 15.586,-0.202Z"/><path d="M1134.35,811.15c1.952,3.547 -1.863,9.397 -8.514,13.056c-6.651,3.658 -13.634,3.749 -15.585,0.202c-1.952,-3.547 1.863,-9.398 8.514,-13.056c6.65,-3.659 13.634,-3.749 15.585,-0.202Z"/><path d="M1134.35,736.143c1.952,3.547 -1.863,9.397 -8.514,13.055c-6.651,3.659 -13.634,3.749 -15.585,0.202c-1.952,-3.547 1.863,-9.397 8.514,-13.055c6.65,-3.659 13.634,-3.75 15.585,-0.202Z"/><path d="M1222.93,762.693c-0.566,4.009 -7.127,6.404 -14.643,5.344c-7.516,-1.06 -13.159,-5.175 -12.594,-9.183c0.565,-4.009 7.126,-6.404 14.642,-5.344c7.516,1.06 13.16,5.175 12.595,9.183Z"/><path d="M1363.94,777.696c-0.565,4.008 -7.126,6.403 -14.642,5.343c-7.516,-1.06 -13.159,-5.175 -12.594,-9.183c0.565,-4.009 7.126,-6.404 14.642,-5.344c7.516,1.06 13.16,5.175 12.594,9.184Z"/><path d="M1469.08,772.157c0.182,4.045 -5.827,7.605 -13.41,7.946c-7.582,0.342 -13.886,-2.665 -14.068,-6.709c-0.182,-4.045 5.826,-7.605 13.409,-7.946c7.583,-0.342 13.887,2.665 14.069,6.709Z"/><path d="M1508.08,739.154c0.182,4.044 -5.827,7.605 -13.41,7.946c-7.582,0.341 -13.886,-2.665 -14.068,-6.71c-0.182,-4.044 5.826,-7.605 13.409,-7.946c7.583,-0.341 13.887,2.666 14.069,6.71Z"/><path d="M1571.09,709.151c0.182,4.044 -5.826,7.605 -13.409,7.946c-7.583,0.341 -13.887,-2.665 -14.069,-6.71c-0.182,-4.044 5.827,-7.605 13.41,-7.946c7.583,-0.341 13.887,2.666 14.068,6.71Z"/><path d="M1298.06,799.16c0.182,4.045 -5.826,7.605 -13.409,7.946c-7.583,0.342 -13.887,-2.665 -14.069,-6.709c-0.182,-4.045 5.827,-7.605 13.409,-7.946c7.583,-0.342 13.887,2.665 14.069,6.709Z"/><path d="M1406.07,817.162c0.182,4.044 -5.827,7.605 -13.409,7.946c-7.583,0.341 -13.887,-2.666 -14.069,-6.71c-0.182,-4.044 5.826,-7.605 13.409,-7.946c7.583,-0.341 13.887,2.665 14.069,6.71Z"/><path d="M1568.09,679.148c0.182,4.044 -5.826,7.604 -13.409,7.946c-7.583,0.341 -13.887,-2.666 -14.069,-6.71c-0.182,-4.044 5.827,-7.605 13.41,-7.946c7.583,-0.341 13.887,2.665 14.068,6.71Z"/><path d="M1544.08,763.156c0.182,4.045 -5.827,7.605 -13.41,7.946c-7.583,0.342 -13.887,-2.665 -14.069,-6.709c-0.181,-4.045 5.827,-7.605 13.41,-7.946c7.583,-0.342 13.887,2.665 14.069,6.709Z"/><path d="M1049.01,737.925c3.193,5.804 -3.05,15.375 -13.931,21.361c-10.881,5.986 -22.308,6.134 -25.5,0.331c-3.193,-5.804 3.049,-15.376 13.931,-21.362c10.881,-5.986 22.308,-6.134 25.5,-0.33Z"/><path d="M1082.01,833.934c3.192,5.804 -3.05,15.376 -13.932,21.362c-10.881,5.985 -22.307,6.134 -25.5,0.33c-3.193,-5.804 3.05,-15.375 13.931,-21.361c10.882,-5.986 22.308,-6.134 25.501,-0.331Z"/><path d="M1225.81,700.765c0,6.624 -10.082,12.002 -22.501,12.002c-12.42,0 -22.502,-5.378 -22.502,-12.002c0,-6.623 10.082,-12.001 22.502,-12.001c12.419,0 22.501,5.378 22.501,12.001Z"/><path d="M1749.59,740.606c1.75,-3.806 8.963,-4.233 16.098,-0.953c7.135,3.28 11.508,9.033 9.758,12.839c-1.749,3.805 -8.962,4.232 -16.097,0.952c-7.136,-3.28 -11.508,-9.033 -9.759,-12.838Z"/><path d="M1818.95,779.35c1.75,-3.806 8.963,-4.233 16.098,-0.952c7.135,3.28 11.508,9.033 9.759,12.838c-1.75,3.806 -8.963,4.232 -16.099,0.952c-7.135,-3.28 -11.507,-9.033 -9.758,-12.838Z"/><path d="M1772.19,790.331c1.75,-3.806 8.963,-4.232 16.099,-0.952c7.135,3.281 11.508,9.033 9.758,12.839c-1.749,3.806 -8.963,4.232 -16.098,0.952c-7.136,-3.28 -11.508,-9.033 -9.759,-12.839Z"/><path d="M1710.14,773.884c1.749,-3.806 8.963,-4.232 16.098,-0.952c7.135,3.281 11.508,9.034 9.758,12.839c-1.749,3.806 -8.963,4.232 -16.098,0.952c-7.135,-3.281 -11.508,-9.033 -9.758,-12.839Z"/><path d="M1648.34,734.594c1.749,-3.806 8.963,-4.232 16.098,-0.952c7.135,3.28 11.508,9.033 9.758,12.839c-1.749,3.805 -8.963,4.232 -16.098,0.951c-7.135,-3.28 -11.508,-9.033 -9.758,-12.838Z"/><path d="M1725.98,808.882c1.75,-3.806 8.963,-4.232 16.099,-0.952c7.135,3.28 11.508,9.033 9.758,12.839c-1.749,3.805 -8.963,4.232 -16.098,0.951c-7.136,-3.28 -11.508,-9.033 -9.759,-12.838Z"/><path d="M1831.56,822.189c1.749,-3.806 8.962,-4.232 16.098,-0.952c7.135,3.28 11.507,9.033 9.758,12.839c-1.75,3.805 -8.963,4.232 -16.098,0.951c-7.135,-3.28 -11.508,-9.033 -9.758,-12.838Z"/><path d="M1899.73,856.085c1.069,-2.326 5.478,-2.586 9.838,-0.582c4.361,2.005 7.034,5.521 5.965,7.847c-1.07,2.326 -5.478,2.587 -9.839,0.582c-4.361,-2.005 -7.034,-5.521 -5.964,-7.847Z"/><path d="M1837.83,868.159c1.069,-2.326 5.478,-2.587 9.839,-0.582c4.36,2.005 7.033,5.521 5.963,7.847c-1.069,2.326 -5.478,2.587 -9.839,0.582c-4.36,-2.005 -7.033,-5.521 -5.963,-7.847Z"/><path d="M1775.5,847.927c1.07,-2.326 5.478,-2.587 9.839,-0.582c4.361,2.005 7.034,5.521 5.964,7.847c-1.069,2.326 -5.478,2.587 -9.839,0.582c-4.361,-2.005 -7.033,-5.521 -5.964,-7.847Z"/><path d="M1701.7,853.25c1.069,-2.325 5.477,-2.586 9.838,-0.581c4.361,2.005 7.034,5.521 5.964,7.847c-1.069,2.325 -5.478,2.586 -9.839,0.581c-4.36,-2.005 -7.033,-5.521 -5.963,-7.847Z"/><path d="M1653.7,820.573c1.069,-2.326 5.478,-2.586 9.839,-0.581c4.361,2.005 7.033,5.521 5.964,7.847c-1.069,2.326 -5.478,2.586 -9.839,0.581c-4.361,-2.005 -7.034,-5.521 -5.964,-7.847Z"/><path d="M1622.97,763.825c1.069,-2.326 5.478,-2.587 9.839,-0.582c4.361,2.005 7.034,5.521 5.965,7.847c-1.07,2.326 -5.478,2.587 -9.84,0.582c-4.361,-2.005 -7.033,-5.521 -5.964,-7.847Z"/><path d="M1619.56,716.518c1.069,-2.326 5.478,-2.586 9.839,-0.581c4.361,2.005 7.033,5.521 5.964,7.847c-1.07,2.326 -5.478,2.586 -9.839,0.581c-4.361,-2.005 -7.034,-5.521 -5.964,-7.847Z"/><path d="M1673.47,713.76c1.749,-3.806 8.963,-4.232 16.098,-0.952c7.135,3.28 11.508,9.033 9.758,12.839c-1.75,3.806 -8.963,4.232 -16.098,0.952c-7.135,-3.281 -11.508,-9.034 -9.758,-12.839Z"/><path d="M1657.02,775.813c1.75,-3.805 8.963,-4.232 16.099,-0.951c7.135,3.28 11.507,9.033 9.758,12.838c-1.75,3.806 -8.963,4.232 -16.098,0.952c-7.136,-3.281 -11.508,-9.033 -9.759,-12.839Z"/><path d="M555,1299c0,0 -208,184 -184,212c24,28 288,-48 316,-116c28,-68 140,-176 120,-192c-20,-16 -56,16 -76,32c-20,16 -88,140 -112,148c-24,8 -140,76 -124,56c16,-20 84,-92 92,-120c8,-28 -32,-20 -32,-20Z" style="fill:#bebebe;fill-rule:nonzero;stroke:#000;stroke-width:8px;"/><path d="M1851.86,98.258c-4.692,-2.606 -14.456,-8.03 -183.7,-20.232c-116.527,-8.401 -261.786,-16.607 -363.124,-22.012c-260.363,-13.886 -526.209,-25.046 -547.027,-22.964c-25.034,2.503 -47.224,20.74 -53.962,44.347c-1.433,5.023 -2.138,10.074 -2.138,15.098c0,19.646 10.786,38.884 30.998,54.431c49.931,38.408 506.9,207.092 571.678,230.902c-0.615,10.454 -2.597,44.146 -3.165,53.805c-20.954,7.749 -41.503,24.029 -57.255,45.623c-16.696,22.887 -26.119,49.062 -26.119,72.32c0,0.988 0.018,1.972 0.052,2.95c0.597,17.06 6.441,32.303 16.901,44.08c11.516,12.967 28.341,21.779 50.009,26.193c4.537,0.924 8.935,1.666 13.204,2.24c1.136,-1.17 2.101,-2.483 2.792,-4.039c2.658,-5.316 2.763,-10.436 1.883,-15.532c-4.431,-0.543 -9.043,-1.28 -13.887,-2.267c-32.363,-6.592 -49.969,-24.357 -50.914,-51.375c-1.439,-41.081 36.005,-92.194 75.595,-103.191c4.119,-1.144 7.054,-4.78 7.305,-9.048l4,-68c0.26,-4.404 -2.399,-8.459 -6.542,-9.977c-180.742,-66.226 -533.174,-199.637 -573.343,-230.536c-18.811,-14.47 -26.56,-31.583 -21.822,-48.188c4.472,-15.665 19.914,-28.255 36.72,-29.936c17.49,-1.749 262.354,8.047 540.201,22.835c377.953,20.116 527.744,33.849 542.034,40.014c13.11,7.332 18.456,20.671 18.456,32.8c0,2.608 -0.248,5.159 -0.716,7.583c-1.787,9.225 -7.51,19.558 -18.21,20.895c-32.179,4.023 -461.33,158.874 -510.158,176.518c-4.073,1.471 -6.605,5.312 -6.605,9.405c0,1.129 0.192,2.276 0.598,3.398c1.877,5.195 7.609,7.884 12.803,6.007c190.916,-68.987 483.177,-172.649 505.842,-175.482c17.831,-2.229 31.382,-16.382 35.364,-36.937c4.033,-20.812 -2.984,-47.97 -27.748,-61.728Z" style="fill:#c9c9c9;fill-rule:nonzero;stroke:#000;stroke-width:8px;"/></g></svg>