<?xml version="1.0" encoding="UTF-8" standalone="no"?><!DOCTYPE svg PUBLIC "-//W3C//DTD SVG 1.1//EN" "http://www.w3.org/Graphics/SVG/1.1/DTD/svg11.dtd"><svg width="100%" height="100%" viewBox="0 0 2500 2500" version="1.1" xmlns="http://www.w3.org/2000/svg" xmlns:xlink="http://www.w3.org/1999/xlink" xml:space="preserve" xmlns:serif="http://www.serif.com/" style="fill-rule:evenodd;clip-rule:evenodd;"><g id="Layer-1" serif:id="Layer 1"><path d="M2087,1147c0,0 64,88 132,116c68,28 24,76 -32,88c-56,12 -156,40 -180,8c-24,-32 -8,-80 4,-84c12,-4 44,-20 44,0c0,20 4,64 24,60c20,-4 112,-20 112,-36c0,-16 -76,-48 -108,-112c-32,-64 -16,-48 4,-40Z" style="fill:#bebebe;fill-rule:nonzero;stroke:#000;stroke-width:8px;"/><path d="M496.056,1555.97c0,0 24.241,67.053 350.79,-9.632c385.911,-90.628 1309.25,-188.192 1352.51,-286.981c43.26,-98.789 -235.346,-190.906 -625.128,-167.026c-389.783,23.88 -1089.6,220.464 -1078.17,463.639Z" style="fill:#565656;fill-rule:nonzero;stroke:#000;stroke-width:8px;"/></g></svg>