<?xml version="1.0" encoding="iso-8859-1"?>
<!-- Generator: Adobe Illustrator 21.1.0, SVG Export Plug-In . SVG Version: 6.00 Build 0)  -->
<svg version="1.1" xmlns="http://www.w3.org/2000/svg" xmlns:xlink="http://www.w3.org/1999/xlink" x="0px" y="0px"
	 viewBox="0 0 2500 2500" style="enable-background:new 0 0 2500 2500;" xml:space="preserve">
<g id="Trump_Hair">
	<g>
		
			<path style="fill-rule:evenodd;clip-rule:evenodd;fill:#E4B833;stroke:#000000;stroke-width:8.5039;stroke-miterlimit:2.6131;" d="
			M1042.646,1138.512c-48.617,1.855-87.584,5.409-116.902,10.661c162.502-26.87,391.831-5.04,687.99,65.488
			c246.614,14.718,422.187,5.364,526.717-28.058c-48.487-15.216-91.208-31.31-128.165-48.281
			c40.95-11.051,80.024-13.81,117.226-8.28c-84.013-35.452-143.29-74.176-177.828-116.173
			c-47.382-203.782-179.03-292.968-394.943-267.56c-276.367-121.923-518.43-119.27-726.189,7.957
			c-103.914,70.06-143.067,144.302-117.456,222.731c-42.345,32.792-60.42,77.989-54.227,135.588
			c-43.708,32.147-64.564,78.867-62.569,140.155c-86.856,78.259-118.354,155.82-94.496,232.681
			c7.472,13.16,14.036,23.884,19.693,32.172c-40.636,96.25-48.857,195.263-24.665,297.042
			c-10.577,20.644-21.515,34.692-32.812,42.143c14.546,4.415,29.683,7.946,45.408,10.592c2.104,33.785,9.348,56.925,21.729,69.42
			c21.045-33.389,41.054-60.324,60.026-80.801c-11.55,58.765-1.826,109.041,29.168,150.827
			c4.013-45.192,15.416-74.644,34.207-88.356c1.462,4.747-53.188-161.714,9.85-369.827c17.437-31.321,31.089-66.313,40.958-104.977
			c91.758,50.439,137.643,25.329,137.656-75.333c56.485,9.875,85.257-26.441,86.319-108.951
			c39.315-2.171,62.33-23.104,69.041-62.801C1005.596,1172.84,1020.351,1153.488,1042.646,1138.512z"/>
		<path style="fill-rule:evenodd;clip-rule:evenodd;fill:none;stroke:#000000;stroke-width:8.5039;stroke-miterlimit:2.6131;" d="
			M705.368,1443.655c-49.787-27.64-107.727-36.238-173.822-25.798"/>
		<path style="fill-rule:evenodd;clip-rule:evenodd;fill:none;stroke:#000000;stroke-width:8.5039;stroke-miterlimit:2.6131;" d="
			M843.024,1368.322c-14.179,0.316-33.239,1.295-57.185,2.94"/>
		<path style="fill-rule:evenodd;clip-rule:evenodd;fill:none;stroke:#000000;stroke-width:8.5039;stroke-miterlimit:2.6131;" d="
			M929.343,1259.371c-11.605,1.726-23.659,3.319-36.164,4.779"/>
		<path style="fill-rule:evenodd;clip-rule:evenodd;fill:none;stroke:#000000;stroke-width:8.5039;stroke-miterlimit:2.6131;" d="
			M596.302,1252.74c122.329-2.129,195.028-31.073,218.095-86.831"/>
		<path style="fill-rule:evenodd;clip-rule:evenodd;fill:none;stroke:#000000;stroke-width:8.5039;stroke-miterlimit:2.6131;" d="
			M658.87,1112.586c13.343-5.078,25.857-11.927,37.543-20.546"/>
		<path style="fill-rule:evenodd;clip-rule:evenodd;fill:none;stroke:#000000;stroke-width:8.5039;stroke-miterlimit:2.6131;" d="
			M808.696,1034.345c72.891-32.885,145.727-33.132,218.507-0.741"/>
		<path style="fill-rule:evenodd;clip-rule:evenodd;fill:none;stroke:#000000;stroke-width:8.5039;stroke-miterlimit:2.6131;" d="
			M713.097,976.998c39.823-17.657,64.802-45.92,74.937-84.793"/>
		<path style="fill-rule:evenodd;clip-rule:evenodd;fill:none;stroke:#000000;stroke-width:8.5039;stroke-miterlimit:2.6131;" d="
			M869.017,935.036c68.053-20.469,130.067-7.983,186.038,37.457c63.524,43.412,134.263,82.256,212.219,116.536"/>
		<path style="fill-rule:evenodd;clip-rule:evenodd;fill:none;stroke:#000000;stroke-width:8.5039;stroke-miterlimit:2.6131;" d="
			M1728.068,951.941c36.638,66.046,90.598,110.044,161.883,131.99"/>
		<path style="fill-rule:evenodd;clip-rule:evenodd;fill:none;stroke:#000000;stroke-width:8.5039;stroke-miterlimit:2.6131;" d="
			M1951.685,1013.87c-28.373-18.834-48.776-37.83-61.21-56.987"/>
		<path style="fill-rule:evenodd;clip-rule:evenodd;fill:none;stroke:#000000;stroke-width:8.5039;stroke-miterlimit:2.6131;" d="
			M664.41,1548.632c-33.251,51.49-70.537,89.27-111.855,113.336"/>
		<path style="fill-rule:evenodd;clip-rule:evenodd;fill:none;stroke:#000000;stroke-width:8.5039;stroke-miterlimit:2.6131;" d="
			M496.833,1814.635c23.884-13.629,40.213-33.825,48.989-60.585"/>
		<path style="fill-rule:evenodd;clip-rule:evenodd;fill:none;stroke:#000000;stroke-width:8.5039;stroke-miterlimit:2.6131;" d="
			M521.498,1517.594c8.686-16.52,13.836-35.045,15.453-55.575"/>
		<path style="fill-rule:evenodd;clip-rule:evenodd;fill:none;stroke:#000000;stroke-width:8.5039;stroke-miterlimit:2.6131;" d="
			M1556.742,746.31c18.424,7.542,31.464,14.86,39.12,21.958"/>
	</g>
</g>
<g id="Layer_1">
</g>
</svg>
