<svg xmlns="http://www.w3.org/2000/svg" viewBox="0 0 2500 2500">
    <title>PepeFrogTurkishHat</title>
    <g>
        <g>
            <g>
                <path d="M1937,1133.8c-232.68-64.43-663.38-45.4-1043.5,156.54-114.83,61-171.41,82-195.12,89.1,0.38,28.81,1.52,50,3.63,60.57,0,0,44.66-5.23,208-92,384-204,820-220,1048-152C1958,1196,1950.06,1172.35,1937,1133.8Z" style="stroke: #000;stroke-width: 7px"/>
                <path d="M1937,1133.8c-55.17-162.6-201.89-590.23-231-625.8-36-44-588-132-980,164,0,0-30.13,518.2-27.63,707.43,23.71-7.11,80.29-28.1,195.12-89.1C1273.59,1088.4,1704.3,1069.37,1937,1133.8Z" style="fill: #eb1700;stroke: #000;stroke-width: 7px"/>
            </g>
            <g>
                <path d="M852,794s-2-164,34-226,170-62,170-62-124,36-138,60-40,216-40,216Z"/>
                <g>
                    <circle cx="865.73" cy="817.27" r="65.5"/>
                    <path d="M952.37,1180.66c-14.87-33-11.93-59.72-1.35-94.91,21.7-72.16,14.76-185.64-56.64-231.92l-54.58,5.46c-65.81,25.83-56,138.46-47,191,8.52,49.5,27,143.67-9.29,184.89,15.31,7.26,33.3,9.69,50.36,11.2,6.43-30.64,8.33-52.72,11.39-83.37,2.52,27.64,12.57,53.75,14.06,83.37,16.51,2.07,34.09-2.42,51-2.73,5.35-26.16,5.2-57.71-5-81.76,10.86,23.53,20.21,45.58,25,70.78,11.49,0.68,40.66,6,46.11-7.58C980.52,1215,956.43,1189.66,952.37,1180.66Z"/>
                </g>
            </g>
        </g>
        <g>
            <path d="M1681.86,1663.86s-210,39-255,54-42,27,54,33,198,0,207-15S1699.87,1660.86,1681.86,1663.86Z"/>
            <path d="M1754.07,1668.45s174.37,36,211.82,50.35,35.1,26.4-44.33,33.77-164,2.84-171.6-12S1739.13,1665.7,1754.07,1668.45Z"/>
        </g>
    </g>
</svg>
