<svg xmlns="http://www.w3.org/2000/svg" viewBox="0 0 2500 2500">
  <title>Two braids</title>
  <g>
    <g>
      <path d="M2133.11,1095.85c38.88-26.17,129.86-2.5,109.24,85.93s-14,113.19-14,113.19-62.13-12-105.29-64.45S2078.29,1132.75,2133.11,1095.85Z" style="fill:#ffd942;stroke:#000;stroke-width: 9px"/>
      <path d="M1715.89,859.53c27.62-91.26,182.27-45.65,187.85,21.2,0,0,52.7-46.14,117.91-3.66S2056.91,980,2056.91,980s77-16.66,98.07,45.67-21.1,124.56-60.21,123.79-90.26-32.85-91.32-84.2c0,0-98.74,23.6-119.64-71.87,0,0-41.33,53.27-106.83,13.77S1702.6,903.46,1715.89,859.53Z" style="fill:#ffd942;stroke:#000;stroke-width: 9px"/>
    </g>
    <path d="M719,1399S503,1023,899,795s884-80,972,84,72,272,72,272l-248-28-28-104-8,112-184-4-28-100-16,96-168,24-40-120,4,112s-84,60-132,56l-48-100s-24,168-72,216-120,72-120,72S779,1311,719,1399Z" style="fill:#ffd942;stroke:#000;stroke-width: 9px"/>
    <g>
      <path d="M751.77,943.79c-18.7-93.5-177-63-189,3,0,0-48-51-117-15s-45,99-45,99-75-24-102,36,9,126,48,129,93-24,99-75c0,0,96,33,126-60,0,0,36,57,105,24S760.77,988.79,751.77,943.79Z" style="fill:#ffd942;stroke:#000;stroke-width: 9px"/>
      <path d="M313.73,1138.81c-36.18-29.79-129-15-117,75s3,114,3,114,63-6,111-54S364.73,1180.81,313.73,1138.81Z" style="fill:#ffd942;stroke:#000;stroke-width: 9px"/>
    </g>
  </g>
</svg>
