<svg xmlns="http://www.w3.org/2000/svg" viewBox="0 0 2500 2500">
   <title>PepeFrogUASFHat</title>
   <g>
      <g>
         <g>
            <path d="M998.72,1230.41l-212.59,95.25S706,1419.13,685,1477c0,0-19.69-158.05,12.58-315.54s110.94-307.37,215-391.77,361-153.9,432.48-140.83,332.45,116.39,364,167.35,85.18,171.14,85.18,171.14-259,37.84-389.92,88.64S998.72,1230.41,998.72,1230.41Z" style="fill: #b1b1b1;isolation: isolate"/>
            <g style="isolation: isolate">
               <path d="M863.89,1015.89c7.67-6.1,25.64-17.43,31.11-24.89,26.33-35.92-.14-47.9-28.57-75.79,11.62-20.93,67.55-51.81,24.76-80.4-6.69-4.47-22.7-5.64-36.63-8.46-55.64,64.29-100.79,147.81-131,238.34a103.73,103.73,0,0,0,23.35,2.22c18.15-.23,39.43,3.52,57,1,34.3-4.95,12.1,1.14,31.12-17.78,1-1,9.74-21.22,11.88-24.09S860.16,1018.85,863.89,1015.89Z" style="fill: #8a8a8a"/>
               <path d="M1709.06,796.2c-7.08-11.44-25.71-25.51-51.16-40.61-22.1,12.2-39.73,31.65-30,51.39,7.26,14.73,32,8.35,39.38,18.83,10.79,15.41-4.94,33-.26,49.19,7.19,24.92,50.31,43.1,75.78,51.1a109.67,109.67,0,0,0,34.83,4.9C1759.25,891.39,1729.51,829.25,1709.06,796.2Z" style="fill: #8a8a8a"/>
               <path d="M1295.6,1022.3c-6-27.34-23.36-42.23-48.4-38.49-19.67,2.94-25,25.22-48.4,23.16-13.15-1.16-13.15-14.45-16.6-15.17-43.91-9.17-125.24,23.9-155.2,59.32-52.35,61.87,18.84,109.7,14.87,160,80.72-36,255.44-113.17,355.67-152.48a39.29,39.29,0,0,0-2.27-3.63C1378,1030.43,1323.39,1021.07,1295.6,1022.3Z" style="fill: #8a8a8a"/>
               <path d="M810.2,1278c-4.58-52.81-17.35-41.22-66.68-39.6,15.12-58-16.28-72.05-49.2-60.12C666.69,1330,685,1477,685,1477c21-57.87,101.13-151.34,101.13-151.34l28.38-12.72C802.56,1295,812.54,1305,810.2,1278Z" style="fill: #8a8a8a"/>
               <path d="M1016.32,936.26c-15.21,45.22,67.46,48.49,110.59,42.83,13.38-1.76,40.88,5.08,51.28-4.79,17.48-16.58-1.5-22.33,3.83-39.21,7.59-24-6.62-26.28,25-24.09,12.92,0.89,27.38,19,36.89,19.17,25.44,0.46,51-25.34,51.1-51.17,0.2-46.36-49.18-55.91-83.1-55-48.7,1.31-21.77,1.86-51.7-26.11-25.55-23.89-73.37-25.45-104.48-14.19,7.79,46.85-49.3,46.23-65.09,79.3C978.65,888.07,995.15,916.64,1016.32,936.26Z" style="fill: #8a8a8a"/>
               <path d="M1663.6,943.06c-14.17-21.49,16-47.58-17.49-55.24-13.73-3.14-39.12,17-50.33,22.78-10.87-28.76-40.27-24.27-57-2.7-8.58,11.08-2,26.34-8.6,35.19-8.24,11-18.75,10.24-27.3,19.91-24.29,27.46-28,37.73-14,66,82.87-22.59,179.67-40.75,241.69-51.35a43.79,43.79,0,0,0-7.39-9.8C1708.21,952.54,1675.42,961,1663.6,943.06Z" style="fill: #8a8a8a"/>
               <path d="M1530.21,731.51c6,38.32,59.78,16.46,76.13-3.56-34.44-17-73.56-34.1-111.39-49.24C1479.34,720.57,1467.4,765.26,1530.21,731.51Z" style="fill: #8a8a8a"/>
               <path d="M944.18,1066.79c-28.74-40.37-69-19.82-78.3,15.69-15.36,4.35-29.7,16.94-30.05,32.72-0.52,22.95,24.6,16,26.48,44.68,1.72,26.14-37.3,45.84,11.61,47.3,20.38,0.61,47.76-21.86,62-35.11,18.15-16.91,30.71-30.75,28.29-54.18C964.07,1116.89,945.66,1068.88,944.18,1066.79Z" style="fill: #8a8a8a"/>
               <path d="M1423,711c-12.57-1.47-22.72,8-36,8-8.44,0-18.28-5.65-27-7.7a16.7,16.7,0,0,0,3-.08c30.41-3.75,48.67-31.71,52.46-62.09-29.67-10.12-54.63-17.38-70.38-20.26C1296.7,620,1163.39,649,1050,694.8c5.69,18.74,24.84,33.31,48.79,32.17,29.42-1.39,62.71-36,68.9,15.33,41,7.14,42.47-23.4,71.21-30.49,21.39-5.28,40.92,7.37,61.17,4.27,6.82-1,14.17-11.35,26.92-13.08,10.3-1.4,19.69,5.36,28.74,7.61a15.74,15.74,0,0,0-4.74.31c-27.48,6.43-35.82,36.09-19.41,48-6,7.15-9.15,14.91-5.75,21.16,12.74,23.39,57-12.92,49.86,30.22C1436.64,836.74,1496.8,719.63,1423,711Z" style="fill: #8a8a8a"/>
               <path d="M1002.4,755.29c6.73-7.27,4.7-23.66-.88-39.2-34.75,16.62-65.65,34.74-88.92,53.6-2.19,1.77-4.36,3.59-6.52,5.42,15.55,2.69,36.54-.27,45.21-3.89-2.49,1,13.66-17.11,19.92-20.39C977.64,747.46,990.57,768.06,1002.4,755.29Z" style="fill: #8a8a8a"/>
            </g>
            <path d="M1140,659.37C1041.25,689.51,957.54,728.73,910.39,767,859.73,808,812.94,866.67,775.08,936.49c-36.79,67.85-64.77,145.4-80.93,224.26-32,156.25-12.82,315.09-12.62,316.68a3.5,3.5,0,0,0,6.76.76c19.73-54.34,93.43-141.94,100-149.67l211.87-94.93c2.75-1.24,276.05-124.16,405.43-174.35,129.09-50.08,386.57-88.06,389.16-88.44a3.5,3.5,0,0,0,2.69-4.89c-0.54-1.2-54.1-121-85.4-171.55-32.5-52.52-296.39-156.17-366.33-169C1309.86,618.86,1229.13,632.19,1140,659.37Zm-457.4,700.71c0-56.63,4-127.55,18.37-197.92,16-78.2,43.76-155.08,80.23-222.33,37.42-69,83.61-126.92,133.56-167.43,46.48-37.69,129.32-76.45,227.28-106.33,86.75-26.47,168.08-40,202.37-33.77,35.86,6.56,120.22,36.32,196.21,69.24,91.77,39.75,152.06,74.93,165.42,96.51,27.76,44.86,73.34,145,83.07,166.52-35.24,5.35-265.79,41.48-386.1,88.15-129.53,50.25-402.94,173.22-405.77,174.49L784.7,1322.46a3.51,3.51,0,0,0-1.23.92c-3.05,3.56-70,82-96.4,139.52C685.34,1444,682.64,1406.95,682.64,1360.08Z"/>
         </g>
         <g>
            <path d="M2114.42,1219.09s-41-225.19-243.5-244-391.66,88.75-552,231.51-456.86,145.92-532.76,119c0,0,266.93-242,657.4-323.05,261.18-54.23,529.18-92.29,623.1,50S2114.42,1219.09,2114.42,1219.09Z" style="fill: #a4a4a4;isolation: isolate"/>
            <path d="M1018,1304c-4-21-23-33-44-36-2-1-4-5-3-5,23-7,45-13,62-29,4-3,0-8-3-10-7-6-17-11-26-14-7-2-15-7-17-14a39,39,0,0,1-1-12.06C859.67,1259,786.13,1325.66,786.13,1325.66c37.34,13.24,128.08,19.2,229.74,4.84C1020.93,1322.94,1020.58,1313.47,1018,1304Z" style="fill: #8a8a8a"/>
            <path d="M1382,1088a54.38,54.38,0,0,0-18,0,116.27,116.27,0,0,1-18,4c-23,4-27,29-43,43-4,3-11,2-17,3-17,2-37,2-47,17-3,3-2,9,0,14,5,12,21,26,12,34-14,12-41,9-54,27-3,4-3,12,0,17a74.72,74.72,0,0,0,21.29,25.16c36.68-17.54,71-39.13,100.61-65.51,41.84-37.24,85.63-72.08,131.11-102.91a82.4,82.4,0,0,0-32-8.73C1405,1094,1394,1090,1382,1088Z" style="fill: #8a8a8a"/>
            <path d="M1667,982c-5,3-12,0-18,1v3c-2,1-4-1-6,0-14,7-24,29-38,22-22-9-49-12-69-2-6,2-6,14-1,22,1,3-1,6,0,9,1.88,4.14,3.62,8.28,5.54,12.26,50.91-26.71,103.55-47.61,157.59-60.73-0.7-.52-1.41-1-2.13-1.54C1689,981,1676,977,1667,982Z" style="fill: #8a8a8a"/>
            <path d="M1964,976.3c-5.09,10.45-5.63,21.38,6.78,29.56l2.7,1.56c3,0.85,6.94.06,11.5,1.58,5,2,10,0,15,1a42.34,42.34,0,0,0,12,4c3,0,5,4,6,8,1,5,0,9,3,15,0.76,2.28.37,4.56,0.13,6.84,6.42,6.24,12.43,12.7,18,19.3,4.57,1.15,9.64,1.83,14.82,2.86,7.24,1.61,14.47.63,21.71,0.71q-4.31-6.85-9.08-14.08C2042.72,1016.39,2007.52,991.85,1964,976.3Z" style="fill: #8a8a8a"/>
            <path d="M2054,1066c-5.18-1-10.25-1.72-14.82-2.86,59.63,70.1,75.24,156,75.24,156s43-22.55-38.71-152.39C2068.47,1066.63,2061.24,1067.61,2054,1066Z" style="fill: #8a8a8a"/>
            <path d="M2021,1037c-3-6-2-10-3-15-1-4-3-8-6-8a42.34,42.34,0,0,1-12-4c-5-1-10,1-15-1-4.56-1.52-8.54-.73-11.5-1.58a248.71,248.71,0,0,1,47.64,36.42C2021.37,1041.56,2021.76,1039.28,2021,1037Z" style="fill: #8a8a8a"/>
            <path d="M1223,1103c14-9,16-25,27-36,2-1,5,0,9-2,9-4,11,6,18,11,10,6,22,5,33,2,6-2,12-1,18-2l6-3c5-1,9,0,15-3,3-1,7,1,9-1,3-2,6-1,9-2l3-3h9c1-1,2-3,3-3,20,1,41-6,56-19,13.7-12.72,20.27-27.36,22.25-42.84l-16.71,3.44c-120,24.92-228.37,65-320.89,108.68A35.46,35.46,0,0,0,1142,1121C1171,1125,1198,1117,1223,1103Z" style="fill: #8a8a8a"/>
            <path d="M1442.82,999.17c-89.29,18.54-179.49,47.1-268.11,84.89a1616,1616,0,0,0-208.13,107.48c-114.5,70-182.13,130.91-182.8,131.52A3.5,3.5,0,0,0,785,1329c38.73,13.73,132.36,19.61,236.39,4.29,87.8-12.94,211.09-44.95,299.87-124,87.6-78,174.85-137.12,259.33-175.76,98.62-45.11,196.2-63.58,290-54.88,45.51,4.22,86.44,19.46,121.64,45.3,28.21,20.71,52.87,48.25,73.28,81.86,34.88,57.43,45.36,113.39,45.46,113.94a3.5,3.5,0,0,0,5.07,2.47c0.82-.43,8.11-4.57,11.51-17.77,5.57-21.59,0-65.79-58-153.73-43.42-65.79-125.75-98.6-251.7-100.29C1701.84,948.85,1563.17,974.19,1442.82,999.17ZM970.39,1197.42a1608.9,1608.9,0,0,1,207.18-107c88.15-37.58,177.88-66,266.68-84.43,120-24.91,258.17-50.17,373.51-48.62,123.46,1.66,203.91,33.43,246,97.14,48.18,73,58.49,113.93,58.49,135.59a50.88,50.88,0,0,1-1.27,11.92,28.43,28.43,0,0,1-4.41,10.15,393.23,393.23,0,0,0-44.9-109.87c-20.88-34.44-46.16-62.7-75.13-84-36.26-26.65-78.4-42.36-125.24-46.7-95.08-8.81-193.86,9.86-293.61,55.48-85.11,38.93-172.95,98.45-261.07,176.9-37,33-83.86,60.55-139.16,82-47.55,18.41-100.4,32-157.08,40.33-98,14.44-186.32,10-227.24-2.11C810,1309.56,873.21,1256.82,970.39,1197.42Z"/>
         </g>
      </g>
      <g>
         <path d="M1165,824.93l59.2-10.62,4.55,34.91h-18.21s16.7,110.8,21.25,119.91,25.8,16.7,34.91,13.66,22.77-6.07,24.29-15.18-16.7-121.43-16.7-121.43h-16.7L1250,806.72l56.16-3,7.59,42.5-16.7,1.52s27.32,119.91,19.73,139.64-87.55,37.9-107.77,0c-12.14-22.77-25.8-138.13-25.8-138.13l-19.73,3Z"/>
         <path d="M1482.23,925.76l-20.82,3.63-64.89-137-46.35,3.54,2,151.17-15.94,7.09,2.28,27.16,61.47-8.27-4.55-27.16L1384,944.74V916.4l31.44-8s15.8,17,19,26.77c1.23,3.79-5.68,5.31-7.59,6.3L1437.51,966l57.67-6.3Zm-101.7-46.46-0.76-49.61L1401,874.58Z"/>
         <path d="M1547.55,818.19s-11.38-37.56-36.43-42.12-63.75,13.66-64.89,25,17.08,77.41,34.15,79.68,52.36-11.38,60.33,0,20.87,33.39,16.32,41.36-32.63,7.21-36-.76l-3.42-8,12.52-4.55-5.69-19.35-48.57,4.93,6.83,27.32,12.52-2.28s9.11,37.57,23.91,37.57,66-5.69,67.16-15.94-14.8-78.54-29.6-83.1-59.19-2.28-63.75-10.25-10.24-36.43-3.41-39.84,23.9-4.55,26.18,1.14a88.45,88.45,0,0,1,3.41,10.25l-13.66,2.28,5.69,18.21,51.22-3.42-4.55-18.21h-10.25Z"/>
         <polygon points="1611.54 933.44 1572.4 805.96 1554.51 808.2 1546.68 783.6 1639.49 780.25 1650.67 818.26 1629.43 822.74 1627.19 805.96 1600.35 811.55 1611.54 858.52 1635.02 859.64 1631.66 847.34 1648.43 843.98 1660.73 883.12 1645.08 888.71 1639.49 876.41 1620.48 885.35 1633.1 929.63 1644.29 927.39 1649.13 943.05 1604.77 948.64 1601.42 937.46 1611.54 933.44"/>
      </g>
   </g>
</svg>
