<svg xmlns="http://www.w3.org/2000/svg" viewBox="0 0 2500 2500">
    <title>PepeFrogUASFHatBack</title>
    <g>
        <path d="M1448.09,1056.79s138.22-47.74,287.42,20.38,163.8,240.26,163.8,240.26,178.77-28.47,216.44-98.34-91.53-266.44-289-260.82S1448.09,1056.79,1448.09,1056.79Z" style="fill: #8a8a8a;isolation: isolate"/>
        <path d="M2098.33,1118c-25-12-53-17-78-3-8,5-11,16-7,23,8,15,34,24,23,40-6,9-29,19-38,5-25,30-57,66-43,108a47,47,0,0,0,6.54,12.69c55.38-14.74,130.9-42,153.88-84.6,12.48-23.15,6.64-60.21-13.93-99.21Q2100.1,1118.89,2098.33,1118Z" style="fill: #707070"/>
        <path d="M1804.33,990c10,11,30,5,46,1,12-2,24,2,28,14,4,14-12,22-16,34-1,5-1,11,4,11,23,3,41,11,55,31,13,17,43,4,58-11,15.3-14,29.84-28.74,42.36-44.85-50.5-40.17-117.45-69.09-194.91-66.88q-13.39.38-26.66,1.28C1796.45,970,1796.85,980.86,1804.33,990Z" style="fill: #707070"/>
        <path d="M1826.67,954.77c-102.43,2.92-200.33,29.65-264.42,51.55-69.43,23.73-115.31,47.11-115.77,47.35a3.5,3.5,0,0,0,2.74,6.42c0.34-.12,34.9-11.86,87.09-15.19,48.08-3.06,121.42.6,197.74,35.44a255.72,255.72,0,0,1,87.26,65.29c19.53,22.45,35.93,48.82,48.74,78.38,21.87,50.47,25.73,93.28,25.77,93.71a3.5,3.5,0,0,0,4,3.16,723.76,723.76,0,0,0,94.61-23.09c66.45-21.32,108.29-47.24,124.36-77,14.38-26.66,5.75-71.71-22.51-117.55C2052.69,1032.43,1955.9,951.09,1826.67,954.77Zm-262,58.13c63.6-21.73,160.72-48.25,262.23-51.14,126.24-3.6,220.84,75.92,263.49,145.1,18.57,30.13,28.41,59.62,28.41,83,0,10.57-2,19.9-6.1,27.51-33.51,62.15-184.91,91.42-210.29,95.93-1.46-11.68-7.29-49.11-25.8-91.9-13.09-30.26-29.87-57.28-49.88-80.3A262.7,262.7,0,0,0,1737,1074c-77.74-35.49-152.4-39.19-201.34-36a430.38,430.38,0,0,0-52.83,6.64C1502.78,1035.88,1530.89,1024.44,1564.64,1012.91Z"/>
    </g>
</svg>
