<?xml version="1.0" encoding="iso-8859-1"?>
 <svg version="1.1" xmlns="http://www.w3.org/2000/svg" xmlns:xlink="http://www.w3.org/1999/xlink" x="0px" y="0px"
 	 viewBox="0 0 2500 2500" style="enable-background:new 0 0 2500 2500;" xml:space="preserve">
     <g id="Layer-1">
        <path d="M1609.82,614.438c0,0 235.019,20.985 239.345,-77.253c4.328,-98.239 -75.922,-220.607 -47.224,-346.942c28.701,-126.335 87.577,-92.847 87.577,-92.847c0,0 -38.299,44.151 1.282,124.207c39.581,80.055 303.931,355.087 253.543,494.261c-50.389,139.174 -401.367,235.65 -489.959,208.038c-88.591,-27.611 -154.867,-271.503 -44.564,-309.465Z" style="fill:#ffca51;fill-rule:nonzero;stroke:#000;stroke-width:8px;"/>
        <path d="M1343.68,484.627c1.19,15.858 -22.422,30.577 -52.696,32.848c-30.274,2.272 -55.818,-8.759 -57.008,-24.616c-1.19,-15.858 22.422,-30.577 52.696,-32.848c30.274,-2.272 55.818,8.758 57.008,24.616Z" style="fill:#3c3c3c;stroke:#000;stroke-width:8px;"/>
        <path d="M683.475,1151.38c0,0 -11.998,-431.913 431.913,-575.884c406.144,-131.723 683.863,47.99 815.837,353.929c0,0 -1073.79,107.978 -1247.75,221.955Z" style="fill:#3c3c3c;fill-rule:nonzero;stroke:#000;stroke-width:8px;"/>
        <path d="M1455,947c0,0 20,-328 -280,-392c0,0 4,-32 24,-48c20,-16 172,-32 212,-20c40,12 292,80 368,424c0,0 -264,52 -324,36Z" style="fill:#636363;fill-rule:nonzero;stroke:#000;stroke-width:8px;"/>
        <path d="M1481.82,794.729c2.83,5.66 4.716,14.149 6.603,21.695c0.943,1.887 4.717,3.774 5.66,5.66c0.943,1.887 -0.943,3.773 0,5.66c3.773,5.659 5.659,10.376 5.659,16.979c0,0.943 2.83,1.886 2.83,2.83c0.944,7.546 -1.886,16.035 0.944,22.638c2.829,4.717 0,11.32 1.886,16.979c0,0 1.886,0 2.83,0c0,0.943 0,1.887 0,2.83c0.943,0 2.83,0 2.83,0c0.943,-9.433 1.886,-18.866 -0.944,-28.298c-18.865,-65.086 -29.241,-129.229 -66.029,-188.655c-41.758,-66.401 -94.45,-115.412 -154.1,-161.459c-35.063,4.385 -65.259,10.761 -73.229,17.138c-1.463,1.17 -2.823,2.438 -4.11,3.768c3.924,2.655 7.895,5.076 12.599,5.664c54.71,13.206 161.143,48.814 256.571,256.571Z" style="fill:#fff;fill-rule:nonzero;"/>
        <path d="M951,659c0,0 -248,40 -260,-64c-12,-104 64,-240 24,-372c-40,-132 -100,-92 -100,-92c0,0 44,44 8,132c-36,88 -296,400 -232,544c64,144 444,220 536,184c92,-36 144,-300 24,-332Z" style="fill:#ffca51;fill-rule:nonzero;stroke:#000;stroke-width:8px;"/>
        <path d="M2136.86,1166.11c-19.031,-33.18 -54.66,-46.793 -86.958,-64.406c16.686,-23.299 50.876,-52.538 77.2,-59.327c-17.428,-2.487 -73.789,0.309 -84.158,-12.688c-30.988,-38.843 40.258,-64.146 62.216,-70.098c-32,-1.076 -62.163,1.586 -92.683,6.991c-1.264,-41.512 23.379,-73.837 37.183,-110.578c-29.844,2.404 -59.79,18.777 -85.209,36.497c-0.627,-24.167 -5.046,-49.982 12.783,-68.854c-28.398,16.545 -45.037,44.445 -66.819,67.847c-1.77,-25.967 6.73,-55.013 18.465,-78.1c-31.854,20.364 -65.023,51.16 -103.799,54.486c3.528,-19.15 7.783,-37.804 9.055,-57.101c-31.289,-1.836 -57.819,33.711 -78.368,54.89c-3.953,-27.028 -8.145,-55.704 -6.625,-83.851c-34.391,1.198 -52.864,67.641 -90.238,78.267c-6.82,-20.559 -11.083,-42.432 -18.429,-62.604c-26.785,16.836 -35.157,63.37 -71.818,65.019c-0.682,-18.799 0.499,-38.386 -0.184,-57.186c-26.398,-3.3 -44.559,25.319 -63.456,41.585c19.727,-65.115 -36.751,-15.863 -64.242,12.7c-22.791,-24.409 -39.831,-59.152 -73.376,-67.648c-3.425,20.388 -0.899,42.915 1.848,62.175c-47.284,-17.447 -96.738,-57.441 -145.938,-65.027c-3.648,26.859 9.118,49.598 6.09,75.783c-58.211,-40.21 -115.301,-32.109 -186.425,-35.36c18.706,9.217 31.495,24.485 28.555,45.393c-46.749,-15.835 -96.096,-23.43 -146.792,-24.285c-0.178,20.514 5.954,40.818 1.889,61.727c-38.401,-5.914 -61.968,-23.716 -102.314,-9.52c10.726,19.548 8.839,43.901 6.536,66.125c-29.255,5.261 -63.354,-24.246 -89.095,-14.65c-34.02,12.682 1.308,29.206 -6.482,62.235c-72.992,7.822 -113.137,-8.967 -178.779,42.265c27.702,0.146 56.014,0.055 83.369,2.284c-22.469,47.176 -91.604,80.258 -126.49,123.064c28.191,1.814 51.595,-14.855 79.262,-11.539c-10.867,21.624 -38.326,33.854 -54.92,53.278c-21.438,25.093 -35.61,57.936 -49.435,87.482c35.647,-5.974 78.23,-37.741 114.917,-51.437c-37.526,40.431 -69.524,102.915 -64.879,159.792c5.874,-26.429 32.101,-37.531 54.31,-46.624c-3.817,15.81 -6.614,35.789 -4.004,53.182c14.939,-9.58 17.996,-44.213 36.294,-44.382c12.686,-0.116 35.598,42.13 43.747,51.432c23.329,-15.765 18.787,-48.159 36.396,-66.911c7.381,25.553 16.272,53.637 18.404,80.638c30.525,-27.14 22.524,-96.89 49.921,-116.175c29.451,-20.731 58.294,33.36 80.237,51.298c4.39,-27 15.005,-82.437 34.589,-98.672c17.075,19.913 27.037,55.405 51.837,64.182c5.05,-24.315 9.527,-121.896 29.22,-134.268c28.463,-17.879 59.71,64.953 81.011,79.194c16.226,-19.877 3.641,-79.56 27.474,-91.494c29.577,-14.811 41.08,37.792 54.321,52.635c35,-44.381 36.644,-126.767 95.26,-43.96c34.136,-29.497 30.318,-107.362 76.282,-34.581c8.514,-64.633 67.365,-12.404 85.417,14.15c9.191,-27.272 4.11,-55.065 38.1,-56.648c21.852,-1.018 71.595,35.733 83.741,51.235c10.912,-65.897 44.752,-48.553 71.704,1.611c9.952,-23.988 21.308,-48.328 34.021,-70.67c31.654,11.771 70.106,13.384 89.603,44.846c-4.342,-80.088 100.583,-6.555 116.396,29.408c0.312,-71.199 129.604,-27.496 140.399,12.796c34.243,-30.655 59.231,-0.34 97.354,2.003c-1.106,-16.075 -12.958,-30.227 -25.283,-39.348c30.861,-7.565 72.632,-18.418 101.792,-0.503Z" style="fill:#a23724;fill-rule:nonzero;stroke:#000;stroke-width:8px;"/>
        <path d="M1616.7,710.461c-2.652,24.139 -27.076,41.29 -54.507,38.276c-27.431,-3.014 -47.548,-25.059 -44.895,-49.198c2.652,-24.139 27.076,-41.29 54.507,-38.276c27.431,3.014 47.548,25.059 44.895,49.198Z" style="fill:#3c3c3c;stroke:#000;stroke-width:8px;"/>
        <path d="M1487.99,567.022c-4.204,20.547 -29.566,32.738 -56.602,27.207c-27.036,-5.531 -45.573,-26.703 -41.37,-47.251c4.204,-20.547 29.566,-32.738 56.602,-27.207c27.036,5.531 45.573,26.703 41.37,47.251Z" style="fill:#3c3c3c;stroke:#000;stroke-width:8px;"/>
    </g>
</svg>