<svg xmlns="http://www.w3.org/2000/svg" viewBox="0 0 2500 2500">
  <title>Vitalik hair front</title>
    <g>
      <path d="M736.5,1459c-7.35-10.29-172-384-116-536s264-228,320-252,952.36,172.4,980.22,234.43C1960.5,994,1883.5,1168,1883.5,1168s-13.1,4.63-18.25-.5c-17.31-17.26-49.42-63.5-88.75-69.5-193.7-29.56-639-48.16-696-7-72,52-156,300-168,332S776.5,1515,736.5,1459Z" style="fill: #68984e"/>
      <path d="M1920.72,905.43c39.78,88.57-43.22,266.94-43.22,266.94" style="fill: none;stroke: #000;stroke-linecap: round;stroke-linejoin: round;stroke-width: 8.504px"/>
      <path d="M652.5,1599s-176-176-192-440c-11.83-195.21,33.16-405.66,286.34-488,0,0,82.5-295.11,616-258.19,443.87,30.71,596.66,451.85,623.83,492.62l-13.92,20.34,18.12,58.89s-32.24,53.6-172.66,21.89l13.59,40.77s-214.78-44.77-260.07-67.41L1560.5,1022s-210.68-24-346.57-101l9.06,31.71S1077.51,770.66,950.68,752.54c0,0,63.42,108.71,45.3,212.89,0,0-49.83-181.19-144.95-217.42,0,0-27.18,95.12-126.83,163.07S684.5,1060.35,684.5,1083s77.29,293.12,68.77,403.84c-9,117-27,210-27,210S715.92,1553.7,652.5,1599Z" style="fill: #54502d;stroke: #000;stroke-linecap: round;stroke-linejoin: round;stroke-width: 9px;isolation: isolate"/>

      <path d="M516.5,1079c0-2.19-.19-4.58-0.32-7C515.8,1073.94,516.5,1076.47,516.5,1079Z" style="fill: #636f3c"/>
      <path d="M1737.58,866.64c-8.89-2.67-18.67.89-28.46-1.78a66.65,66.65,0,0,1-14.23-3.56c-15.12-6.23-30.24-14.23-46.24-19.56C1614.86,832,1582.84,824,1549,812.4c-3.56-.89-7.11,0-10.67,0-12.45-.89-23.12-7.11-35.57-8-10.67-.89-21.34-5.34-32-10.67-7.11-3.56-14.23-6.23-20.45-10.67-35.57-25.79-72.92-46.24-95.15-83.59-2.67-5.34-6.23-15.12-16-15.12,0,4.45-.89,9.78,0,14.23,16.9,57.8,42.68,110.27,96,145.84V848c-0.89-.89-1.78-2.67-3.56-3.56-2.67-.89-4.45.89-7.11,0-1.78-.89-1.78-2.67-3.56-3.56-15.12-2.67-27.57-8.89-39.13-16.9-18.67-14.23-37.35-24-56.91-32-9.78-4.45-19.56-7.11-28.46-10.67-8-3.56-16.9-4.45-24.9-8-9.78-5.34-18.67-8-28.46-11.56C1236,759,1228.91,754.6,1221.8,751c-22.23-11.56-41.8-25.79-56.91-48.91-1.78-1.78-5.34-1.78-7.11-3.56-10.67-13.34-22.23-21.34-35.57-32V663h-3.56c0.89,13.34,6.22,26.68,10.67,39.13,1.78,3.56,5.34,7.11,7.11,10.67,1.78,4.45,1.78,9.78,3.56,14.23,1.78,3.56,5.34,7.11,7.11,10.67s1.78,7.11,3.56,10.67c5.34,7.11,8,14.23,10.67,21.34,1.78,2.67,5.34,4.45,7.11,7.11,6.23,8.89,8,17.79,7.11,28.46-10.67-1.78-13.34-13.34-21.34-17.79-6.23-3.56-12.45-6.22-17.79-10.67-14.23-11.56-27.57-21.34-41.8-32.9-16.9-14.23-35.57-24-47.13-41.8,2.67,9.78,11.56,15.12,14.23,24.9,1.78,2.67,5.34,4.45,7.11,7.11,1.78,3.56,1.78,7.11,3.56,10.67,10.79,19.91,25.44,37.51,31.69,59.28a604.06,604.06,0,0,1,62.44,51.05c64.26,20.71,126.93,39.88,194,56.85,5.34,1.78,8.89,5.34,14.23,7.11a38.28,38.28,0,0,0,14.23,0v-3.56h-3.56c-0.89-1.78.89-5.34,0-7.11h-3.56c-9.78-14.23-21.34-23.12-32-35.57-0.89-1.78,0-4.45,0-7.11v3.56c10.67,4.45,19.56,11.56,29.35,16.9,17.79,10.67,38.24,13.34,59.58,17.79,8.89,1.78,16.9.89,24.9,4.45,3.56,0.89,7.11,0,10.67,0,6.23,1.78,11.56,4.45,17.79,7.11,3.56,0.89,7.11-.89,10.67,0,2.67,0.89,4.45,2.67,7.11,3.56,6.22,0.89,12.45,1.78,17.79-.89,0.89,0,.89-4.45,0-6.23-11.56-18.67-24-33.79-38.24-50.69-1.78-1.78-1.78-8,0-8.89,2.67-2.67,8.89-1.78,13.34,0,29.35,8.89,58.69,18.67,88.93,22.23,39.13,5.34,78.26,2.67,117.38,1.78,2.67,0,4.45-2.67,7.11-3.56,6.22-.89,11.56.89,17.79,0C1736.69,872,1739.35,867.53,1737.58,866.64Z" style="fill: #636f3c"/>
      <path d="M1728.5,627a61.73,61.73,0,0,0-5.16-7.18C1723.85,622.86,1724.94,625.81,1728.5,627Z" style="fill: #636f3c"/>
      <path d="M1622.37,556.63c27.79,14.82,50,34.28,69.48,63.92,3.71,4.63,7.41,11.12,11.12,18.53,0.38,1.5.45,3.47,0.78,5.39a57.32,57.32,0,0,1,4.78,6.65c-3.3-1.1-4.31-3.83-4.78-6.65-11-13.27-28.22-23.09-43.39-29.48-3.71-1.85-7.41,0-11.12-.93-36.13-11.12-68.55-29.64-107.46-21.31,0,0-.93,4.63,0,5.56,14.82,12,26.86,22.23,41.69,33.35,41.69,31.5,81.52,55.58,125.06,86.15,11.12,8.34,14.82,19.45,21.31,30.57,2.78,3.71,2.78,10.19,0,13-0.93,1.85-7.41,1.85-9.26,0-11.12-8.34-22.23-9.26-34.28-14.82-8.34-3.71-14.82-11.12-23.16-16.67-2.78-2.78-9.26,0-13.9-.93v-3.71c-4.63-.93-10.19-0.93-14.82.93-5.56,1.85-11.12,8.34-6.48,13,14.82,16.67,36.13,16.67,55.58,29.64,9.26,6.48,21.31,7.41,32.42,12,2.78,1.85,4.63,6.48,7.41,6.48,12,1.85,16.67,11.12,25,16.67,3.71,1.85,6.49,6.48,11.12,11.12,16.67,16.67,26.87,38,36.13,59.29,3.7,7.41,7.41,16.67,8.34,25a53.9,53.9,0,0,0,4.63,14.82c0.93,3.71-.93,7.41,0,11.12,1.85,2.78,5.56,4.63,7.41,7.41,0.93,1.85-.93,5.56,0,7.41,4.63,5.56,10.19,16.67,11.12,13.9,13-37.05-18.53-73.18-31.5-109.31-6.48-21.31-25.94-40.76-28.72-63.92,0-1.85-4.63-5.56-2.78-6.48,9.26-.93,14.82,9.26,22.23,13,27.79,15.75,58.36,24.09,80.59,46.32,8.34,9.26,22.23,22.23,33.35,15.75,5.35-3,8.16-7.83,9.79-13.5-60.35-112.72-194.1-316.58-452.87-371.08,5.92,3.73,11.86,7.49,17.89,11.25C1525.1,506.6,1572.35,528.84,1622.37,556.63Z" style="fill: #636f3c"/>
      <path d="M919.84,574.52c10.3-.61,21.21-3.64,31.52,1.82-14.94-1.32-22.87,11.07-33,20.52A52.55,52.55,0,0,1,932,590.27c1.82-.61,3-3,4.85-4.24,21.82-8.48,41.21-21.21,65.46-26.06,10.91-2.42,20.61-4.85,31.52-7.27,10.3-1.82,20.61-1.21,31.52-2.42,27.88-2.42,57.58,3,80,21.21,1.21,0.61,3,0,4.85,0-0.61-3.64-1.82-6.06-7.27-7.88-3-.61-3-4.85-5.46-6.06-17.58-12.12-34.55-21.82-55.15-27.88-11.52-4.24-23.64-8.49-36.36-9.09-1.82-.61-3-1.82-4.85-2.42-3-.61-6.67,0-9.7,0,0-5.45-6.67.61-4.24-4.85,1.21-2.42,4.85-2.42,9.09-2.42,1.82,0,3-1.82,4.85-2.42,9.09-.61,17.58-0.61,26.67-1.21,29.7-3,59.39.61,89.7-2.42,10.3-.61,21.21-0.61,31.52-1.21-4.24,0-8.48.61-12.12-.61a75.4,75.4,0,0,1-9.7-2.42c-7.27-1.82-13.94-6.67-21.82-7.27-3,0-6.06-3-9.7-4.24-1.82-.61-3.64.61-4.85,0a75.3,75.3,0,0,1-23.64-17.58,89.38,89.38,0,0,1-8.07-10C952.86,480.26,892.74,550.24,870.26,589c10.56-6,22.8-9.25,35-12C910.14,575.73,915,574.52,919.84,574.52Z" style="fill: #636f3c"/>
      <path d="M846,640.85c-7.08,4.54-13.9,9.6-21.49,14.15C832.75,652,839.63,646.76,846,640.85Z" style="fill: #636f3c"/>
      <path d="M672.7,1384c-0.1,3.66-.19,7.32-0.19,11C672.5,1391.34,673.32,1387.68,672.7,1384Z" style="fill: #636f3c"/>
      <path d="M717.67,1429.39c-10.19-23.11-20.38-45.36-31.35-68.47-1.57-2.57-4.7-4.28-5.49-6.85-7.05-21.4-21.16-35.95-34.49-52.21-1.57-.86-1.57-4.28-3.92-6h-3.14v-3.42c-3.14,14.55,8.62,24,11.76,37.66a114.56,114.56,0,0,0,3.14,13.69c1.57,4.28,0,9.42.78,13.69,0.78,2.57,2.35,4.28,3.14,6.85a210.94,210.94,0,0,1,.15,21.41c0.49,3.13-.15,6.27-0.15,9.4,0-3.13.07-6.27,0.15-9.4,0-.29-0.09-0.58-0.15-0.87-1.57-4.28-2.35-8.56-3.92-13.69-11.76-37.66-30.57-69.33-52.52-102.71a63.06,63.06,0,0,0-21.95-17.12v-3.42h-3.14c5.49,31.67,21.95,59.91,21.95,92.44,0,2.57,2.35,4.28,3.14,6.85,0.78,6.85,0,13.69,0,20.54-11.76-29.1-30.57-55.63-53.3-75.32,0,6-1.57,12.84.78,16.26,16.46,24.82,29,47.93,35.27,77,5.49,24.82.78,51.35,1.57,77.89h3.14c9.41-15.41,11-40.23,28.22-42.79,4.7-.86,7.05,7.7,11,13.69,8.62,12.84,16.46,28.25,18,46.22,0,2.57,2.35,4.28,5.49,3.42v3.42c7.05,0.86,16.46-2.57,21.16,1.71,18.28,15.08,31.59,34,42.12,54.93,2.32-21.58,4.53-45.38,6.3-70.47,0.53-7.5.63-15.87,0.38-24.91-1.6-4.12-3.38-8.18-4.12-12.62C717.67,1433.67,718.46,1431.1,717.67,1429.39Z" style="fill: #636f3c"/>
      <path d="M832.5,790.75c0.74-1.39,1.47-2.76,2.16-4.1a14.43,14.43,0,0,0-2.16.35v3.75Z" style="fill: #636f3c"/>
      <path d="M538.66,976.89h3.85c1,10.58,1.92,21.17-1,30.79-4.81,17.32-2.89,35.6-1.92,53.88,0,4.81,2.89,8.66,2.89,15.39,0,2.89,2.89,4.81,3.85,7.7,0,2.89-1,4.81,0,7.7,1,1.92,2.89,1.92,3.85,3.85,1,3.85-1,7.7,0,11.54,1,2.89,5.77,5.77,6.73,3.85,2.89-5.77,0-12.51,1.92-19.24,6.73-26.94,0-53.88,2.89-80.81,1-1,2.89-3.85,3.85-3.85s2.89,1.92,3.85,3.85A168.82,168.82,0,0,0,581,1042.31c1,1.92,0,4.81,0,7.7,1,7.7,10.58,11.54,11.54,19.24,0,2.89-1,4.81,0,7.7a108.31,108.31,0,0,0,20.2,33.67c17.32,16.35,25,40.41,39.44,59.65,5.77,7.7,13.47,17.32,16.35,26,1.92,11.54,9.62,20.2,12.51,30.79,0,2.89-1,5.77,0,7.7a287.69,287.69,0,0,0,13.84,26.43c-18.75-89.88-40.78-172.35-40.78-184.21,0-21.79-57.69-100,38.19-165.4A327.86,327.86,0,0,0,796.37,796h-3.72v3.85H788.8v3.85H785v3.85H781.1v3.85c-3.85-1-5.77,1-7.7,3.85-19.24,27.9-49.06,42.33-77,56.76-2.89,1.92-7.7,1-11.54,1,1-9.62,12.51-11.54,14.43-19.24,1.92-9.62,9.62-14.43,12.51-23.09,4.81-14.43,3.85-27.9,3.85-42.33v3.85h-3.85V796H708v3.85h-3.85c0,8.66-6.73,11.54-12.51,14.43-15.39,10.58-24.05,24.05-38.48,34.63-14.43,11.54-26.94,22.13-35.6,36.56-2.89,4.81-11.54,6.73-9.62,14.43h-3.85a23.45,23.45,0,0,1,0-11.54c1-1.92,2.89-2.89,3.85-3.85,1-10.58-1-20.2,1-30.79,1-4.81,2.89-8.66,2.89-15.39,0-1,2.89-1.92,3.85-3.85,1-2.89-1-4.81,0-7.7,1-1.92,2.89-1.92,3.85-3.85,1-2.89-1-4.81,0-7.7,1-1.92,2.89-1.92,3.85-3.85,1-2.89,0-4.81,0-7.7v3.85c-29.82,19.24-49.06,44.25-72.15,70.23-8.66,9.62-15.39,19.24-23.09,30.79-1.92,2.89-1.92,6.73-4.81,10.58-6.73,8.66-11.54,19.24-16.35,29.82-5.77,13.47-5.77,26-6.73,39.44-1,2.89-2.89,4.81-3.85,7.7-1,20.2,1,41.37,0,61.57h-3.85a35.36,35.36,0,0,0-.31,8.67,3.8,3.8,0,0,1,.31-1C512.69,1035.57,511.73,1000.94,538.66,976.89Z" style="fill: #636f3c"/>
    </g>
</svg>
