<?xml version="1.0" encoding="iso-8859-1"?>
<!-- Generator: Adobe Illustrator 21.1.0, SVG Export Plug-In . SVG Version: 6.00 Build 0)  -->
<svg version="1.1" xmlns="http://www.w3.org/2000/svg" xmlns:xlink="http://www.w3.org/1999/xlink" x="0px" y="0px"
	 viewBox="0 0 2500 2500" style="enable-background:new 0 0 2500 2500;" xml:space="preserve">
<g id="Wig">
	<path style="fill-rule:evenodd;clip-rule:evenodd;fill:#FFFFFF;" d="M678.654,1866.763c-9.389-43.138-13.769-85.544-13.141-127.217
		c45.865-33.868,89.298-136.233,130.303-307.098c127.213-23.405,227.662-108.833,301.344-256.283
		c131.782-90.338,385.238-112.145,760.369-65.42c154.117-601.207-287.771-628.669-694.89-517.555
		c-344.2,93.943-502.473,326.672-518.904,768.851C562.382,1597.406,574.021,1765.646,678.654,1866.763z"/>
	<path style="fill-rule:evenodd;clip-rule:evenodd;fill:#FFFFFF;" d="M777.226,2235.798
		c-14.272-102.506-47.129-225.516-98.572-369.035c-120.688,185.066-116.839,343.985,11.55,476.76
		C766.963,2348.629,795.971,2312.722,777.226,2235.798z"/>
	<path style="fill-rule:evenodd;clip-rule:evenodd;fill:#FFFFFF;" d="M1857.53,1110.746c12.95-50.364,21.616-97.254,25.999-140.669
		c74.385,75.036,104.31,153.612,89.778,235.726c-27.749-16.156-61.168-27.678-100.254-34.566
		C1869.337,1149.89,1864.164,1129.726,1857.53,1110.746z"/>
	<path style="fill-rule:evenodd;clip-rule:evenodd;fill:none;stroke:#E6E6E6;stroke-width:8.5039;stroke-miterlimit:2.6131;" d="
		M1737.936,1097.795c29.486-120.79,36.974-235.012,22.465-342.666"/>
	<path style="fill-rule:evenodd;clip-rule:evenodd;fill:none;stroke:#E6E6E6;stroke-width:8.5039;stroke-miterlimit:2.6131;" d="
		M1653.559,1091.328c54.272-152.959,49.519-283.8-14.261-392.525"/>
	<path style="fill-rule:evenodd;clip-rule:evenodd;fill:none;stroke:#E6E6E6;stroke-width:8.5039;stroke-miterlimit:2.6131;" d="
		M670.491,2271.708c-6.518-50.773,15.074-82.692,64.775-95.755"/>
	<path style="fill-rule:evenodd;clip-rule:evenodd;fill:none;stroke:#E6E6E6;stroke-width:8.5039;stroke-miterlimit:2.6131;" d="
		M1494.429,1086.984c88.035-140.393,86.1-288.563-5.803-444.508"/>
	<path style="fill-rule:evenodd;clip-rule:evenodd;fill:none;stroke:#E6E6E6;stroke-width:8.5039;stroke-miterlimit:2.6131;" d="
		M1395.257,1091.304c65.91-165.76,65.116-303.165-2.384-412.215"/>
	<path style="fill-rule:evenodd;clip-rule:evenodd;fill:none;stroke:#E6E6E6;stroke-width:8.5039;stroke-miterlimit:2.6131;" d="
		M1264.263,1109.79c-2.694-151.085-7.702-276.347-15.022-375.783"/>
	<path style="fill-rule:evenodd;clip-rule:evenodd;fill:none;stroke:#E6E6E6;stroke-width:8.5039;stroke-miterlimit:2.6131;" d="
		M1138.491,1147.072c-67.746-109.925-88.095-223.207-61.045-339.842"/>
	<path style="fill-rule:evenodd;clip-rule:evenodd;fill:none;stroke:#E6E6E6;stroke-width:8.5039;stroke-miterlimit:2.6131;" d="
		M1065.514,1233.044c-121.156-81.28-154.727-181.911-100.72-301.897"/>
	<path style="fill-rule:evenodd;clip-rule:evenodd;fill:none;stroke:#E6E6E6;stroke-width:8.5039;stroke-miterlimit:2.6131;" d="
		M795.816,1432.449c-61.594-100.683-89.053-221.746-82.376-363.189"/>
	<path style="fill-rule:evenodd;clip-rule:evenodd;fill:none;stroke:#E6E6E6;stroke-width:8.5039;stroke-miterlimit:2.6131;" d="
		M936.832,1373.755c-83.562-89.688-116.486-208.123-98.771-355.302"/>
	<path style="fill-rule:evenodd;clip-rule:evenodd;fill:none;stroke:#E6E6E6;stroke-width:8.5039;stroke-miterlimit:2.6131;" d="
		M748.993,1594.847c-51.855-98.668-79.431-168.759-82.726-210.274"/>
	<path style="fill-rule:evenodd;clip-rule:evenodd;fill:#FFFFFF;" d="M591.706,2095.451c2.655-31.854,8.56-61.376,17.72-88.564
		c-150.933,50.036-207.216,135.272-168.853,255.712C484.098,2200.163,534.477,2144.446,591.706,2095.451z"/>
	<path style="fill-rule:evenodd;clip-rule:evenodd;fill:none;stroke:#E6E6E6;stroke-width:8.5039;stroke-miterlimit:2.6131;" d="
		M690.204,2343.523c32.714-17.672,45.857-46.774,39.429-87.306"/>
	<path style="fill-rule:evenodd;clip-rule:evenodd;fill:none;stroke:#E6E6E6;stroke-width:8.5039;stroke-miterlimit:2.6131;" d="
		M625.43,2137.933c33.191-18.832,62.527-18.832,88.011,0"/>
	<path style="fill-rule:evenodd;clip-rule:evenodd;fill:none;stroke:#E6E6E6;stroke-width:8.5039;stroke-miterlimit:2.6131;" d="
		M501.513,2098.504c27.808-2.419,52.183,1.499,73.123,11.751"/>
	<path style="fill-rule:evenodd;clip-rule:evenodd;fill:none;stroke:#E6E6E6;stroke-width:8.5039;stroke-miterlimit:2.6131;" d="
		M470.534,2123.851c18.322,8.878,34.534,12.509,48.634,10.892"/>
	<path style="fill-rule:evenodd;clip-rule:evenodd;fill:none;stroke:#000000;stroke-width:8.5039;stroke-miterlimit:2.6131;" d="
		M678.654,1866.763c-9.389-43.138-13.769-85.544-13.141-127.217c45.865-33.868,89.298-136.233,130.303-307.098
		c127.213-23.405,227.662-108.833,301.344-256.283c131.782-90.338,385.238-112.145,760.369-65.42
		c154.117-601.207-287.771-628.669-694.89-517.555c-344.2,93.943-502.473,326.672-518.904,768.851
		C562.382,1597.406,574.021,1765.646,678.654,1866.763z"/>
	<path style="fill-rule:evenodd;clip-rule:evenodd;fill:none;stroke:#000000;stroke-width:8.5039;stroke-miterlimit:2.6131;" d="
		M777.226,2235.798c-14.272-102.506-47.129-225.516-98.572-369.035c-120.688,185.066-116.839,343.985,11.55,476.76
		C766.963,2348.629,795.971,2312.722,777.226,2235.798z"/>
	<path style="fill-rule:evenodd;clip-rule:evenodd;fill:none;stroke:#000000;stroke-width:8.5039;stroke-miterlimit:2.6131;" d="
		M1857.53,1110.746c12.95-50.364,21.616-97.254,25.999-140.669c74.385,75.036,104.31,153.612,89.778,235.726
		c-27.749-16.156-61.168-27.678-100.254-34.566C1869.337,1149.89,1864.164,1129.726,1857.53,1110.746z"/>
	<path style="fill-rule:evenodd;clip-rule:evenodd;fill:none;stroke:#000000;stroke-width:8.5039;stroke-miterlimit:2.6131;" d="
		M591.706,2095.451c2.655-31.854,8.56-61.376,17.72-88.564c-150.933,50.036-207.216,135.272-168.853,255.712
		C484.098,2200.163,534.477,2144.446,591.706,2095.451z"/>
	<path style="fill-rule:evenodd;clip-rule:evenodd;fill:none;stroke:#000000;stroke-width:8.5039;stroke-miterlimit:2.6131;" d="
		M629.126,1956.147c-11.717-50.503-12.471-103.314-2.263-158.435c23.523-40.518,47.29-72.007,71.305-94.464
		c17.065,44.076,22.156,108.536,15.273,193.378C692.057,1923.571,663.952,1943.412,629.126,1956.147z"/>
	<path style="fill-rule:evenodd;clip-rule:evenodd;fill:#FFFFFF;" d="M678.654,1866.763
		c130.443,103.248,169.099,222.917,141.252,271.096C739.476,2277.019,662.092,1994.487,678.654,1866.763z"/>
	<path style="fill-rule:evenodd;clip-rule:evenodd;fill:none;stroke:#E6E6E6;stroke-width:8.5039;stroke-miterlimit:2.6131;" d="
		M745.254,2079.475c2.514-33.028,14.827-55.774,36.94-68.232"/>
	<path style="fill-rule:evenodd;clip-rule:evenodd;fill:none;stroke:#E6E6E6;stroke-width:8.5039;stroke-miterlimit:2.6131;" d="
		M713.44,2021.147c-1.291-23.567,9.269-41.904,31.682-55.008"/>
	<path style="fill-rule:evenodd;clip-rule:evenodd;fill:none;stroke:#E6E6E6;stroke-width:8.5039;stroke-miterlimit:2.6131;" d="
		M738.082,2102.73c38.761,12.348,61.761,1.081,68.999-33.796"/>
	<path style="fill-rule:evenodd;clip-rule:evenodd;fill:none;stroke:#000000;stroke-width:8.5039;stroke-miterlimit:2.6131;" d="
	M678.654,1866.763c130.443,103.248,169.099,222.917,141.252,271.096C739.476,2277.019,662.092,1994.487,678.654,1866.763z"/>

	<path style="fill-rule:evenodd;clip-rule:evenodd;fill:#ff0000" d="M629.126,1956.147c-11.717-50.503-12.471-103.314-2.263-158.435
		c23.523-40.518,47.29-72.007,71.305-94.464c17.065,44.076,22.156,108.536,15.273,193.378
		C692.057,1923.571,663.952,1943.412,629.126,1956.147z"/>
</g>
<g id="Layer_1">
</g>
</svg>
