<?xml version="1.0" encoding="iso-8859-1"?>
 <svg version="1.1" xmlns="http://www.w3.org/2000/svg" xmlns:xlink="http://www.w3.org/1999/xlink" x="0px" y="0px"
 	 viewBox="0 0 2500 2500" style="enable-background:new 0 0 2500 2500;" xml:space="preserve">
     <g id="Layer-1">
        <path d="M1841.24,1019.41c0,0 -295.923,-808.779 -451.883,-860.766c-155.96,-51.987 -311.92,-51.987 -415.893,-6.499c-103.974,45.489 -422.392,389.9 -565.355,415.894c-142.964,25.993 -84.479,90.976 12.996,77.98c97.475,-12.997 344.412,-45.488 363.907,-45.488c19.495,0 -58.485,38.989 -25.994,58.484c32.493,19.495 71.482,-6.498 71.482,-6.498c0,0 -96.041,599.852 -135.031,690.829c0,0 326.98,-310.939 1145.77,-323.936Z" style="fill:#5d42b3;fill-rule:nonzero;stroke:#000;stroke-width:10px;"/>
        <path d="M1167.21,276.144l43.923,98.749l51.662,-94.929l107.487,-11.259l-74.318,-78.468l11.541,-54.196c-24.159,-5.312 -48.094,-9.377 -71.608,-12.222l-15.017,7.145l-17.935,-10.363c-24.007,-1.769 -47.45,-2.222 -70.114,-1.4l8.474,64.856l-80.342,72.288l106.247,19.799Z" style="fill:#ffff1e;fill-rule:nonzero;stroke:#000;stroke-width:10px;"/>
        <path d="M719.91,412.259l14.982,-70.355c-60.711,52.732 -124.272,106.84 -182.316,149.073l38.58,7.189l43.923,98.749l51.662,-94.929l107.488,-11.259l-74.319,-78.468Z" style="fill:#ffff1e;fill-rule:nonzero;stroke:#000;stroke-width:10px;"/>
        <path d="M941.932,814.3l22.51,-105.707l-97.593,46.433l-48.524,-28.038c-7.281,43.946 -17.32,103.643 -28.699,168.83l23.552,4.389l43.923,98.748l51.662,-94.929l107.487,-11.258l-74.318,-78.468Z" style="fill:#ffff1e;fill-rule:nonzero;stroke:#000;stroke-width:10px;"/>
        <path d="M1289.97,531.304l-71.585,-80.97l-20.724,106.071l-99.128,43.06l94.475,52.488l10.321,107.583l79.113,-73.632l105.504,23.429l-45.58,-97.995l54.887,-93.102l-107.283,13.068Z" style="fill:#ffff1e;fill-rule:nonzero;stroke:#000;stroke-width:10px;"/>
        <path d="M1632.98,519.865l-18.277,93.545l-99.127,43.061l94.475,52.487l10.321,107.583l79.113,-73.631l35.773,7.943c-30.527,-73.112 -65.575,-153.543 -102.278,-230.988Z" style="fill:#ffff1e;fill-rule:nonzero;stroke:#000;stroke-width:10px;"/>
        <path d="M1590,945.345l-71.585,-80.97l-20.725,106.071l-99.127,43.06l64.355,35.754c56.821,-8.431 117.137,-15.402 181.04,-20.522l-1.562,-3.359l54.887,-93.102l-107.283,13.068Z" style="fill:#ffff1e;fill-rule:nonzero;stroke:#000;stroke-width:10px;"/>
        <path d="M1160.96,993.35l-71.585,-80.97l-20.725,106.071l-99.127,43.06l94.475,52.488l2.977,31.027c47.501,-16.73 99.918,-32.918 157.469,-47.804l-11.088,-23.838l54.887,-93.102l-107.283,13.068Z" style="fill:#ffff1e;fill-rule:nonzero;stroke:#000;stroke-width:10px;"/>
        <path d="M228.344,1457.32c0,0 60.66,41.993 418.558,-155.968c357.898,-197.961 746.126,-293.941 1043.36,-305.939c297.237,-11.997 655.133,47.99 630.87,113.977c-24.265,65.987 -473.154,-95.981 -794.655,-5.999c-321.501,89.982 -588.408,173.964 -849.249,323.935c-260.84,149.971 -479.218,113.977 -509.549,71.987c-30.33,-41.993 18.198,-65.987 60.661,-41.993Z" style="fill:#5d42b3;fill-rule:nonzero;stroke:#000;stroke-width:10px;"/>
        <path d="M155.306,514.886l93.577,54.072l97.593,-46.433l-22.508,105.707l74.318,78.468l-107.488,11.259l-51.662,94.928l-43.923,-98.748l-106.247,-19.799l80.342,-72.288l-14.002,-107.166Z" style="fill:#ffff1e;fill-rule:nonzero;stroke:#000;stroke-width:10px;"/>
        <path d="M785.016,600.529c0,0 81.989,-67.53 121.989,-175.53" style="fill:none;stroke:#000;stroke-width:10px;stroke-linecap:round;"/>
        <path d="M835.005,652.999c0,0 132,-40 200,-108" style="fill:none;stroke:#000;stroke-width:10px;stroke-linecap:round;"/>
    </g>
</svg>