<?xml version="1.0" encoding="iso-8859-1"?>
<!-- Generator: Adobe Illustrator 21.1.0, SVG Export Plug-In . SVG Version: 6.00 Build 0)  -->
<svg version="1.1" xmlns="http://www.w3.org/2000/svg" xmlns:xlink="http://www.w3.org/1999/xlink" x="0px" y="0px"
	 viewBox="0 0 2500 2500" style="enable-background:new 0 0 2500 2500;" xml:space="preserve">
<g id="Alien_Eyes_and_Nose">
	<path style="fill-rule:evenodd;clip-rule:evenodd;fill:#68984E;" d="M1437.5,1052.5l15-3l12-3l53,14l317,62l32,48l6,8l96,44l30,21
		l10,9l4,12l47,46v4v11l-153,250l-11,25l-74,38l-212,36l-387-14l-214-118c0,0-27-204-26-213s11-115,18-117s120-114,120-114l82-44
		L1437.5,1052.5z"/>
	<path style="fill-rule:evenodd;clip-rule:evenodd;" d="M1496.165,1674.608c-122.444-111.112-198.439-188.199-227.985-231.26
		c-87.115-161.064,38.111-287.323,165.705-221.211c114.574,59.366,138.123,266.535,130.552,405.754
		C1560.47,1677.007,1537.713,1692.58,1496.165,1674.608L1496.165,1674.608z"/>
	<path style="fill:#FFFFFF;" d="M1389.273,1253.466c-4.292-0.696-7.18-5.262-6.45-10.197c0.73-4.934,4.802-8.369,9.094-7.672
		c17.338,2.874,32.318,8.119,44.933,15.731c12.906,7.787,23.3,18.001,31.178,30.639c2.496,4.008,1.622,9.67-1.952,12.64
		c-3.574,2.971-8.497,2.13-10.994-1.879c-6.513-10.446-15.145-18.915-25.891-25.399
		C1418.155,1260.67,1404.847,1256.047,1389.273,1253.466L1389.273,1253.466z"/>
	
		<path style="fill:none;stroke:#000000;stroke-width:8.5039;stroke-linecap:round;stroke-linejoin:round;stroke-miterlimit:2.6131;" d="
		M1690.763,1677.351c1.046,22.655-2.888,43.161-11.805,61.521 M1721.454,1674.223c-0.332,27.181,1.242,49.773,4.722,67.777"/>
	<path style="fill-rule:evenodd;clip-rule:evenodd;" d="M1865.053,1657.276c35.299-27.249,66.464-51.959,93.493-74.128
		c53.468-43.853,134.889-109.917,152.2-183.895c37.123-158.632-254.714-294.095-299,210.669
		C1810.833,1653.56,1828.602,1669.345,1865.053,1657.276L1865.053,1657.276z"/>
	<path style="fill:#FFFFFF;" d="M1995.273,1288.668c4.573-0.281,8.471,3.956,8.703,9.463c0.233,5.507-3.286,10.2-7.859,10.48
		c-13.333,0.866-24.92,3.73-34.755,8.591c-9.51,4.702-17.425,11.323-23.74,19.859c-3.048,4.125-8.299,4.493-11.724,0.822
		c-3.425-3.67-3.73-9.993-0.683-14.117c7.982-10.79,17.932-19.132,29.846-25.022
		C1966.653,1293.015,1980.058,1289.655,1995.273,1288.668L1995.273,1288.668z"/>
</g>
<g id="Layer_1">
</g>
</svg>
