<?xml version="1.0" encoding="iso-8859-1"?>
<!-- Generator: Adobe Illustrator 21.1.0, SVG Export Plug-In . SVG Version: 6.00 Build 0)  -->
<svg version="1.1" xmlns="http://www.w3.org/2000/svg" xmlns:xlink="http://www.w3.org/1999/xlink" x="0px" y="0px"
	 viewBox="0 0 2500 2500" style="enable-background:new 0 0 2500 2500;" xml:space="preserve">
<g id="Closed_Eyes">
	
		<path style="fill-rule:evenodd;clip-rule:evenodd;fill:#68984E;stroke:#000000;stroke-width:8.5039;stroke-linecap:round;stroke-linejoin:round;stroke-miterlimit:2.6131;" d="
		M1620.306,1451.725c-183.453,85.64-341.41,73.601-473.87-36.118c81.906-93.234,190.983-132.241,327.231-117.023
		c89.674,13.565,143.851,34.754,162.532,63.568C1639.566,1387.294,1634.269,1417.151,1620.306,1451.725z"/>
	
		<path style="fill-rule:evenodd;clip-rule:evenodd;fill:#68984E;stroke:#000000;stroke-width:8.5039;stroke-linecap:round;stroke-linejoin:round;stroke-miterlimit:2.6131;" d="
		M1630.669,1470.517c-6.027-5.755-11.21-11.219-15.568-16.401c1.734-0.795,3.466-1.58,5.204-2.392
		c9.248-22.898,14.693-43.727,16.338-62.487h0.002c122.337-97.366,247.398-113.377,375.182-48.035
		c35.336,2.547,59.174,11.457,71.514,26.728c27.951,36.626,20.728,63.594-21.671,80.905
		C1921.202,1499.447,1777.535,1506.674,1630.669,1470.517z"/>
</g>
<g id="Layer_1">
</g>
</svg>
