<?xml version="1.0" encoding="iso-8859-1"?>
<!-- Generator: Adobe Illustrator 21.1.0, SVG Export Plug-In . SVG Version: 6.00 Build 0)  -->
<svg version="1.1" xmlns="http://www.w3.org/2000/svg" xmlns:xlink="http://www.w3.org/1999/xlink" x="0px" y="0px"
	 viewBox="0 0 2500 2500" style="enable-background:new 0 0 2500 2500;" xml:space="preserve">
<g id="Closed_Eyes_2">
	<path style="stroke:#000000;stroke-width:8.5039;stroke-linecap:round;stroke-linejoin:round;" d="M1662.455,1381.023
		c0,0,136.456-169.349,385.092-2.664c0,0-244.811-109.873-348.114,2.938l35.682,23.182L1662.455,1381.023z"/>
	<path style="stroke:#000000;stroke-width:8.5039;stroke-linecap:round;stroke-linejoin:round;" d="M1147.056,1415.191
		c0,0,103.725-69.34,215.361-102.231c111.636-32.891,234.939,43.467,240.459,57.567c5.52,14.095-38.435,47.574-38.435,47.574
		l14.103-43.463c0,0-116.795-41.811-216.737-23.499C1262.659,1369.306,1147.056,1415.191,1147.056,1415.191z"/>
	<path style="fill-rule:evenodd;clip-rule:evenodd;fill:#68984E;" d="M1283.5,1464.5c0,0-166-20-167-13s29,69,29,74s169,50,169,50
		l192-21l97-12c0,0,54-19,58-21s0-59,0-59l-43-28l-35,30c0,0-122,27-134,27S1283.5,1464.5,1283.5,1464.5z"/>
	<path style="fill:none;stroke:#000000;stroke-width:8.5039;stroke-linecap:round;stroke-linejoin:round;" d="M1618.072,1382.846
		c0,0,48.164,96.887-29.802,182.788"/>
</g>
<g id="Layer_1">
</g>
</svg>
