<?xml version="1.0" encoding="iso-8859-1"?>
<!-- Generator: Adobe Illustrator 21.1.0, SVG Export Plug-In . SVG Version: 6.00 Build 0)  -->
<svg version="1.1" xmlns="http://www.w3.org/2000/svg" xmlns:xlink="http://www.w3.org/1999/xlink" x="0px" y="0px"
	 viewBox="0 0 2500 2500" style="enable-background:new 0 0 2500 2500;" xml:space="preserve">
<g id="Colored_Eyes">
	
		<path style="fill-rule:evenodd;clip-rule:evenodd;fill:#FFFFFF;stroke:#000000;stroke-width:8.5039;stroke-linecap:round;stroke-linejoin:round;stroke-miterlimit:2.6131;" d="
		M1620.306,1451.725c-183.453,85.64-341.41,73.601-473.87-36.118c81.906-93.234,190.983-132.241,327.231-117.023
		c89.674,13.565,143.851,34.754,162.532,63.568C1639.566,1387.294,1634.269,1417.151,1620.306,1451.725z"/>
	
		<path style="fill-rule:evenodd;clip-rule:evenodd;fill:#FFFFFF;stroke:#000000;stroke-width:8.5039;stroke-linecap:round;stroke-linejoin:round;stroke-miterlimit:2.6131;" d="
		M1630.669,1470.517c-6.027-5.755-11.21-11.219-15.568-16.401c1.734-0.795,3.466-1.58,5.204-2.392
		c9.248-22.898,14.693-43.727,16.338-62.487h0.002c122.337-97.366,247.398-113.377,375.182-48.035
		c35.336,2.547,59.174,11.457,71.514,26.728c27.951,36.626,20.728,63.594-21.671,80.905
		C1921.202,1499.447,1777.535,1506.674,1630.669,1470.517z"/>
	<path style="fill-rule:evenodd;clip-rule:evenodd;fill:#0B4AA8;stroke:#000000;stroke-width:8.5039;stroke-miterlimit:10;" d="
		M1456.328,1443.056c16.978-47.016,11.439-84.579-16.614-112.689c-81.824-27.566-133.352-11.433-154.586,48.399
		c-14.148,60.477,0.06,95.151,42.62,104.02C1397.808,1492.729,1440.667,1479.486,1456.328,1443.056z"/>
	<path style="fill-rule:evenodd;clip-rule:evenodd;fill:#FFFFFF;" d="M1358.088,1341.926c0.079-4.984-1.606-8.115-5.057-9.391
		c-10.363-2.927-17.587-0.278-21.671,7.947c-1.294,9.487,3.281,15.989,13.725,19.504
		C1355.514,1356.377,1359.848,1350.357,1358.088,1341.926z"/>
	<path style="fill-rule:evenodd;clip-rule:evenodd;fill:#FFFFFF;" d="M1348.697,1407.661c3.692-1.507,6.822-3.914,9.391-7.224
		c3.804-9.394-0.771-14.451-13.725-15.17c-6.118,2.252-9.007,7.309-8.668,15.17
		C1337.875,1407.539,1342.209,1409.947,1348.697,1407.661z"/>
	<path style="fill-rule:evenodd;clip-rule:evenodd;fill:#FFFFFF;" d="M1403.597,1393.936c22.864-10.049,25.753-21.848,8.668-35.396
		c-14.656-5.277-24.529-1.183-29.618,12.281C1381.388,1386.17,1388.371,1393.875,1403.597,1393.936z"/>
	<path style="fill-rule:evenodd;clip-rule:evenodd;fill:#0B4AA8;stroke:#000000;stroke-width:8.5039;stroke-miterlimit:10;" d="
		M1927.663,1438.375c16.977-47.016,11.44-84.579-16.614-112.689c-81.824-27.566-133.352-11.433-154.586,48.399
		c-14.147,60.477,0.06,95.151,42.62,104.02C1869.142,1488.047,1912.002,1474.804,1927.663,1438.375z"/>
	<path style="fill-rule:evenodd;clip-rule:evenodd;fill:#FFFFFF;" d="M1829.422,1337.244c0.079-4.984-1.605-8.115-5.057-9.391
		c-10.363-2.927-17.587-0.278-21.671,7.947c-1.295,9.487,3.281,15.989,13.725,19.504
		C1826.848,1351.695,1831.182,1345.675,1829.422,1337.244z"/>
	<path style="fill-rule:evenodd;clip-rule:evenodd;fill:#FFFFFF;" d="M1820.031,1402.98c3.692-1.507,6.822-3.914,9.391-7.224
		c3.805-9.394-0.771-14.451-13.725-15.17c-6.118,2.252-9.007,7.309-8.668,15.17
		C1809.21,1402.858,1813.544,1405.265,1820.031,1402.98z"/>
	<path style="fill-rule:evenodd;clip-rule:evenodd;fill:#FFFFFF;" d="M1874.931,1389.255c22.864-10.049,25.753-21.848,8.668-35.396
		c-14.656-5.277-24.529-1.183-29.617,12.281C1852.723,1381.489,1859.706,1389.194,1874.931,1389.255z"/>
</g>
<g id="Layer_1">
</g>
</svg>
