<?xml version="1.0" encoding="iso-8859-1"?>
<!-- Generator: Adobe Illustrator 21.1.0, SVG Export Plug-In . SVG Version: 6.00 Build 0)  -->
<svg version="1.1" xmlns="http://www.w3.org/2000/svg" xmlns:xlink="http://www.w3.org/1999/xlink" x="0px" y="0px"
	 viewBox="0 0 2500 2500" style="enable-background:new 0 0 2500 2500;" xml:space="preserve">
<g id="Crying_Eyes_2">
	<polygon style="fill:#68984E;" points="1449,1046 1461,1046 1574,1084 1828,1134 1866,1166 1876,1181 2007.5,1250.5 2014,1266 
		2060,1313 2056,1335 1714,1467 1618,1540 1533,1544 1458,1559 1211,1589 1075,1540 1002,1449 1002,1292 1051,1176 1126,1070 
		1290,1046 	"/>
	<path style="stroke:#000000;stroke-width:8.5039;" d="M1125.886,1471.588c0,0,112.908-65.933,202.564-125.269
		c89.657-59.335,215.84-0.005,242.41,65.933c0,0-85.51-74.177-182.643-61.817
		C1338.702,1356.741,1172.377,1484.774,1125.886,1471.588z"/>
	<path style="stroke:#000000;stroke-width:8.5039;" d="M1622.912,1392.245c0,0,70.525-85.013,181.35-92.515
		s216.612,60.01,234.243,52.508c0,0-68.006-5.001-141.05-22.504C1824.412,1312.232,1731.218,1327.234,1622.912,1392.245z"/>
	<path style="fill:none;stroke:#000000;stroke-width:8.5039;" d="M1580.935,1336.401c0,0-6.72-83.348-47.02-100.016
		c0,0-4.89-130.065-83.045-193.385"/>
	<path style="fill:none;stroke:#000000;stroke-width:8.5039;" d="M1876.5,1174.5c0,0-154.521-41.466-342.585,61.885
		c0,0-152.35-118.735-431.916,23.778"/>
	<path style="fill:none;stroke:#000000;stroke-width:8.5039;" d="M1592.687,1389.744c0,0-45.337-170.027-251.875-95.015
		c-206.537,75.012-191.425,140.022-256.912,150.024s-100.75,35.006-65.487,50.008c35.263,15.002,95.712-5.001,95.712-5.001"/>
	<path style="fill:none;stroke:#000000;stroke-width:8.5039;" d="M1053.676,1384.744c0,0,50.375-20.003,85.637-60.009
		c35.262-40.006,317.362-165.026,433.224-25.004"/>
	<path style="fill:none;stroke:#000000;stroke-width:8.5039;" d="M2014.5,1258.5c0,0-269.006-75.453-433.565,64.569"/>
	<path style="fill:none;stroke:#000000;stroke-width:8.5039;" d="M1594.365,1339.736c0,0,193.348-128.965,469.135-20.236"/>
	<path style="fill:none;stroke:#000000;stroke-width:8.5039;" d="M1597.725,1434.751c0,0,25.188,70.011-15.112,105.017"/>
	<g>
		<path style="fill:#AEDBFF;stroke:#000000;stroke-width:8.5039;" d="M2121.624,1279.727c0,0,36.94-100.021,77.24-83.348
			c40.3,16.673,3.365,53.343-23.505,53.343C2148.489,1249.722,2121.624,1279.727,2121.624,1279.727z"/>
		<path style="fill:#AEDBFF;stroke:#000000;stroke-width:8.5039;" d="M2171.999,1289.729c0,0,97.39-43.342,120.9,6.666
			c23.51,50.008-26.865,50.013-50.375,36.676C2219.013,1319.733,2171.999,1289.729,2171.999,1289.729z"/>
	</g>
	<g>
		<path style="fill:#AEDBFF;stroke:#000000;stroke-width:8.5039;" d="M1003.687,1357.615c0,0-45.849-96.319-84.477-76.116
			c-38.625,20.203,1.481,53.427,28.243,51.029C974.215,1330.13,1003.687,1357.615,1003.687,1357.615z"/>
		<path style="fill:#AEDBFF;stroke:#000000;stroke-width:8.5039;" d="M968.218,1485.595c0,0-85.63,20.037-75.911,54.232
			c9.716,34.195,43.404,7.955,46.041-13.757C940.984,1504.357,968.218,1485.595,968.218,1485.595z"/>
		<path style="fill:#AEDBFF;stroke:#000000;stroke-width:8.5039;" d="M893.972,1395.414c0,0-100.92-34.478-119.805,17.429
			c-18.886,51.903,31.285,47.41,53.491,32.032C849.864,1429.492,893.972,1395.414,893.972,1395.414z"/>
	</g>
</g>
<g id="Layer_1">
</g>
</svg>
