<?xml version="1.0" encoding="iso-8859-1"?>
<!-- Generator: Adobe Illustrator 21.1.0, SVG Export Plug-In . SVG Version: 6.00 Build 0)  -->
<svg version="1.1" xmlns="http://www.w3.org/2000/svg" xmlns:xlink="http://www.w3.org/1999/xlink" x="0px" y="0px"
	 viewBox="0 0 2500 2500" style="enable-background:new 0 0 2500 2500;" xml:space="preserve">
<g id="Crying_Eyes">
	
		<path style="fill-rule:evenodd;clip-rule:evenodd;fill:#FFFFFF;stroke:#000000;stroke-width:8.5039;stroke-linecap:round;stroke-linejoin:round;stroke-miterlimit:2.6131;" d="
		M1620.306,1451.725c-183.453,85.64-341.41,73.601-473.87-36.118c81.906-93.234,190.983-132.241,327.231-117.023
		c89.674,13.565,143.851,34.754,162.532,63.568C1639.566,1387.294,1634.269,1417.151,1620.306,1451.725z"/>
	
		<path style="fill-rule:evenodd;clip-rule:evenodd;fill:#FFFFFF;stroke:#000000;stroke-width:8.5039;stroke-linecap:round;stroke-linejoin:round;stroke-miterlimit:2.6131;" d="
		M1630.669,1470.517c-6.027-5.755-11.21-11.219-15.568-16.401c1.734-0.795,3.466-1.58,5.204-2.392
		c9.248-22.898,14.693-43.727,16.338-62.487h0.002c122.337-97.366,247.398-113.377,375.182-48.035
		c35.336,2.547,59.174,11.457,71.514,26.728c27.951,36.626,20.728,63.594-21.671,80.905
		C1921.202,1499.447,1777.535,1506.674,1630.669,1470.517z"/>
	<path style="fill-rule:evenodd;clip-rule:evenodd;" d="M1500.022,1453.786c21.181-59.376,14.272-106.815-20.727-142.315
		c-102.08-34.814-166.365-14.439-192.856,61.123c-17.65,76.377,0.075,120.166,53.171,131.368
		C1427.013,1516.518,1480.484,1499.793,1500.022,1453.786z"/>
	<path style="fill-rule:evenodd;clip-rule:evenodd;fill:#FFFFFF;" d="M1374.088,1347.926c0.079-4.984-1.606-8.115-5.057-9.391
		c-10.363-2.927-17.587-0.278-21.671,7.947c-1.294,9.487,3.281,15.989,13.725,19.504
		C1371.514,1362.377,1375.848,1356.357,1374.088,1347.926z"/>
	<path style="fill-rule:evenodd;clip-rule:evenodd;fill:#FFFFFF;" d="M1340.264,1408.677c2.327-0.95,4.301-2.468,5.92-4.554
		c2.398-5.922-0.486-9.11-8.652-9.563c-3.857,1.419-5.678,4.607-5.464,9.563C1333.442,1408.6,1336.174,1410.118,1340.264,1408.677z"
		/>
	<path style="fill-rule:evenodd;clip-rule:evenodd;fill:#FFFFFF;" d="M1412.597,1415.936c22.864-10.049,25.753-21.848,8.668-35.396
		c-14.656-5.277-24.529-1.183-29.618,12.281C1390.388,1408.17,1397.371,1415.875,1412.597,1415.936z"/>
	<path style="fill-rule:evenodd;clip-rule:evenodd;" d="M1939.753,1444.386c19.888-53.244,13.401-95.783-19.462-127.616
		c-95.852-31.218-156.214-12.948-181.089,54.81c-16.573,68.488,0.07,107.755,49.927,117.799
		C1871.199,1500.638,1921.407,1485.641,1939.753,1444.386z"/>
	<path style="fill-rule:evenodd;clip-rule:evenodd;fill:#FFFFFF;" d="M1841.422,1348.244c0.079-4.984-1.605-8.115-5.057-9.391
		c-10.363-2.927-17.587-0.278-21.671,7.947c-1.295,9.487,3.281,15.989,13.725,19.504
		C1838.848,1362.695,1843.182,1356.675,1841.422,1348.244z"/>
	<path style="fill-rule:evenodd;clip-rule:evenodd;fill:#FFFFFF;" d="M1802.791,1402.251c2.49-1.016,4.602-2.641,6.335-4.873
		c2.566-6.337-0.52-9.748-9.258-10.233c-4.127,1.519-6.076,4.93-5.847,10.233
		C1795.491,1402.169,1798.415,1403.793,1802.791,1402.251z"/>
	<path style="fill-rule:evenodd;clip-rule:evenodd;fill:#FFFFFF;" d="M1820.791,1456.251c2.49-1.016,4.602-2.641,6.335-4.873
		c2.566-6.337-0.52-9.748-9.258-10.233c-4.127,1.519-6.076,4.93-5.847,10.233
		C1813.491,1456.169,1816.415,1457.793,1820.791,1456.251z"/>
	<path style="fill-rule:evenodd;clip-rule:evenodd;fill:#FFFFFF;" d="M1862.931,1427.255c22.864-10.049,25.753-21.848,8.668-35.396
		c-14.656-5.277-24.529-1.183-29.617,12.281C1840.723,1419.489,1847.706,1427.194,1862.931,1427.255z"/>
	<path style="fill-rule:evenodd;clip-rule:evenodd;fill:#FFFFFF;" d="M1367.421,1454.125c2.823-1.152,5.217-2.993,7.182-5.524
		c2.909-7.184-0.59-11.051-10.496-11.601c-4.679,1.722-6.888,5.589-6.629,11.601
		C1359.145,1454.032,1362.46,1455.873,1367.421,1454.125z"/>
	<path style="fill-rule:evenodd;clip-rule:evenodd;fill:#9DD8E8;" d="M2104.337,1418.725
		c-23.319,12.108-52.393,18.426-87.222,18.953c-84.764,22.054-170.021,27.886-255.77,17.499c-2.516-1.014-5.131-1.351-7.659-1.124
		c-41.67-6.077-82.349-15.705-122.011-28.978c-2.131-0.544-4.261-0.559-6.291-0.186c0.002-0.013,0.005-0.025,0.007-0.038
		c-0.025,0.019-0.051,0.036-0.076,0.055c-4.096,0.774-7.69,3.276-9.881,6.904c-29.312,19.104-66.487,30.882-111.577,35.287
		c-86.901,32.42-168.872,28.095-245.914-12.975c-0.001,0.001-0.003,0.002-0.004,0.003c-41.632-35.342-79.192-47.676-112.677-36.987
		c12.928,22.817,19.205,51.046,18.832,84.689c-1.415,27.908,3.266,116.109,10.636,170.567c0.003,0,0.006-0.001,0.01-0.001
		c-1.994,30.949,4.752,40.471,10.49,48.534c4.573,6.427,7.855,11.038-20.125,84.763c-15.638,41.203-2.798,72.349,8.866,100.636
		c9.928,24.078,18.729,45.424-2.678,67.65l-1.711,2.116c-8.133,12.289-9.478,26.319-4.033,42.082
		c4.469,12.942,13.743,27.013,27.815,42.208c15.535,23.339,17.646,43.214,6.33,59.621l-1.697,3.222
		c-4.746,12.64-5.63,25.851-2.65,39.628c2.803,12.956,9.001,26.17,18.589,39.638c4.751,6.691,13.999,8.244,20.655,3.47
		c6.656-4.774,8.201-14.069,3.45-20.76c-7.3-10.255-11.909-19.803-13.821-28.639c-1.618-7.479-1.299-14.614,0.953-21.4
		c17.902-27.389,15.243-58.203-7.985-92.438l-1.471-1.844c-11.714-12.518-19.137-23.307-22.263-32.361
		c-2.09-6.049-2.009-11.086,0.24-15.108c33.456-35.705,21.29-65.227,7.581-98.478c-9.499-23.037-19.958-48.401-8.479-78.642
		c33.637-88.627,26.494-98.665,16.539-112.653c-3.946-5.545-8.699-12.271-3.099-48.62c19.58-52.617,29.718-110.408,59.273-143.91
		c28.047-8.396,56.337-4.558,84.872,11.516c27.205,4.548,32.277,15.162,15.215,31.844c-3.802,11.341-7.095,24.79-9.878,40.348
		c-29.737,23.183-31.184,51.355-4.341,84.513c1.842,11.686,3.699,25.078,5.565,40.169c0.127,6.148,0.294,11.995,0.497,17.535
		c0.231,6.316,0.496,12.152,0.793,17.505c0.509,9.172,1.095,17.447,1.755,24.826c0.715,7.979,1.535,15.481,2.46,22.496
		c0.083,0.64,0.213,1.263,0.382,1.867c2.284,11.486-1.502,15.803-5.151,19.961c-4.386,4.996-8.681,9.889-10.75,18.565
		c-4.203,17.629,1.43,28.239,7.627,39.906c6.668,12.556,14.323,26.968-3.076,63.156c-2.217,4.612-2.357,4.896-2.527,5.242
		c-5.184,10.588-9.982,20.385-12.413,32.149l-0.011-0.003c-6.199,30.094,5.89,51.416,20.602,77.368
		c17.507,30.881,39.326,69.369,31.036,140.574c-0.807,7.125,4.285,13.561,11.374,14.373c7.089,0.812,13.492-4.305,14.299-11.43
		c9.26-79.537-14.891-122.139-34.27-156.321c-12.021-21.203-21.898-38.626-17.644-59.276l-0.012-0.002l0.011-0.048
		c1.771-8.599,5.857-16.942,10.271-25.958c1.532-3.129,2.135-4.322,2.627-5.346c23.1-48.047,12.134-68.692,2.583-86.677
		c-3.777-7.112-7.212-13.58-5.276-21.705c0.588-2.466,2.727-4.904,4.911-7.391c7.888-8.986,16.072-18.317,11.088-42.487
		c-0.887-6.742-1.665-13.834-2.33-21.268c-3.177-58.006,0.717-111.741,11.683-161.206c8.195-14.819,14.04-41.708,17.535-80.668
		c47.511-42.547,87.384-54.708,119.618-36.486c31.687-4.261,54.331-10.677,68.042-19.222c-0.005,0.019-0.009,0.037-0.014,0.056
		c-4.133,16.615-7.538,30.478-10.218,41.605c-0.445,1.857-0.522,3.716-0.279,5.5c0.548,8.414,2.87,16.463,6.963,24.143
		c3.578,6.71,8.519,13.15,14.821,19.316c1.108,3.938,0.905,8.098-0.607,12.476c-2.333,6.754-7.585,14.203-15.754,22.34
		c-1.293,1.281-2.3,2.742-3.024,4.304c-6.847,12.925-7.982,27.685-3.403,44.277c3.827,13.864,11.797,29.138,23.906,45.816
		c0.689,22.588,1.713,42.513,3.072,59.771c1.479,18.802,3.407,35.199,5.778,49.187c0.192,1.155,0.513,2.255,0.944,3.291
		l-0.035,0.014c4.237,10.115,8.274,18.648,12.105,25.594c3.475,6.299,6.868,11.39,10.175,15.273
		c4.586,11.276,3.12,22.417-4.4,33.418c-6.683,7.909-11.717,17.636-15.094,29.177c-2.762,9.435-4.392,20.134-4.892,32.095
		c-10.571,10.986-19.305,20.359-26.68,29.114c-8.657,10.275-15.355,19.574-20.724,29.292c-6.424,11.626-10.943,23.816-14.606,38.895
		c-3.296,13.563-5.803,29.037-8.374,48.417c-12.134,16.235-20.093,32.095-23.872,47.574c-4.287,17.559-3.258,34.371,3.089,50.434
		c3.004,7.645,11.606,11.395,19.211,8.377c7.606-3.018,11.336-11.663,8.332-19.308c-4.06-10.275-4.707-21.078-1.94-32.407
		c2.985-12.226,9.857-25.284,20.609-39.167c1.793-2.115,3.016-4.758,3.398-7.719c2.677-20.641,5.135-36.453,8.236-49.221
		c2.955-12.163,6.606-22.007,11.802-31.411c4.477-8.104,10.111-15.916,17.424-24.595c7.683-9.121,17.298-19.317,29.313-31.731
		l-0.01-0.01c2.555-2.646,4.141-6.247,4.169-10.226c0.114-11.583,1.406-21.591,3.873-30.021c2.225-7.601,5.429-13.82,9.609-18.647
		l-0.002-0.002c0.32-0.372,0.626-0.763,0.914-1.173c14.899-21.196,17.108-43.056,6.627-65.577l-0.007,0.004
		c-0.673-1.454-1.595-2.824-2.764-4.043c-2.112-2.197-4.626-5.936-7.537-11.212c-3.076-5.576-6.439-12.674-10.087-21.291
		c-2.011-12.322-3.706-27.234-5.083-44.736c-1.465-18.62-2.524-39.441-3.176-62.453c0.023-3.169-0.958-6.371-3.015-9.089
		c-11.401-15.112-18.663-28.321-21.781-39.619c-2.32-8.407-2.197-15.479,0.365-21.212c10.474-10.781,17.548-21.494,21.221-32.128
		c4.244-12.288,3.993-24.154-0.749-35.598c-0.79-2.234-2.124-4.312-3.993-6.017c-5.008-4.568-8.766-9.203-11.269-13.899
		c-1.902-3.57-3.063-7.147-3.482-10.728c3.598-14.914,6.798-28.005,9.595-39.253c0.999-4.019,2.071-8.296,3.176-12.692
		c48.017,1.443,86.211,5.473,114.436,12.13c18.709,7.585,29.867,16.031,33.467,25.331c3.175,8.199,0.401,18.836-8.314,31.911
		c-8.099,9.495-13.775,18.76-17.023,27.787c-3.804,10.569-4.342,20.682-1.611,30.336c2.683,9.484,8.33,17.988,16.939,25.505
		c8.742,7.634,20.774,14.341,36.092,20.12c8.83,6.589,15.288,13.508,19.371,20.757c3.729,6.621,5.505,13.708,5.325,21.259
		c-3.557,15.693-4.421,30.626-2.585,44.79c1.791,13.827,6.105,26.805,12.938,38.933c0.381,4.659,0.009,11.038-1.115,19.135
		c-1.509,10.868-4.325,24.076-8.448,39.621c-2.231,8.395,2.305,17.007,10.244,19.983c5.558,2.391,10.215,4.909,13.965,7.551
		c5.622,3.961,9.07,8.064,10.342,12.306c1.242,4.145,0.622,9.183-1.861,15.109c-1.641,3.915-4.002,8.084-7.083,12.501
		c-3.738,5.358-3.905,12.158-1.002,17.548l-0.019,0.011c9.698,17.847,13.377,33.691,11.033,47.525
		c-2.264,13.357-10.361,25.722-24.289,37.088c-24.342,17.327-48.336,33.099-71.976,47.312
		c-22.645,13.615-44.905,25.75-66.776,36.401c-27.311,2.557-48.945,8.173-64.899,16.851c-19.151,10.417-30.45,25.021-33.891,43.802
		c-1.65,9.096,4.348,17.816,13.398,19.476c9.05,1.659,17.725-4.368,19.375-13.464c1.516-8.277,7.179-15.084,16.984-20.417
		c12.408-6.749,30.703-11.139,54.882-13.167l0-0.006c1.952-0.162,3.906-0.675,5.779-1.571c23.627-11.391,47.689-24.451,72.18-39.177
		c24.327-14.625,49.154-30.958,74.476-48.993l-0.006-0.009c0.264-0.188,0.525-0.384,0.781-0.59
		c20.803-16.786,33.055-36.093,36.753-57.916c3.2-18.881-0.155-38.946-10.059-60.188c1.962-3.408,3.63-6.754,5.007-10.038
		c5.609-13.385,6.658-25.936,3.147-37.647c-3.484-11.615-11.217-21.644-23.198-30.085c-2.415-1.702-5-3.336-7.755-4.904
		c2.742-11.469,4.722-21.584,5.937-30.343c1.752-12.63,1.978-23.054,0.673-31.264c-0.273-2.305-1.03-4.59-2.307-6.702
		c-5.446-8.978-8.836-18.606-10.166-28.875c-1.38-10.649-0.607-22.13,2.316-34.44h-0.002c0.224-0.954,0.366-1.939,0.422-2.952
		c0.799-14.573-2.38-28.212-9.536-40.916c-6.741-11.967-16.946-22.859-30.61-32.674c-1.241-0.911-2.63-1.665-4.148-2.218
		c-12.453-4.53-21.738-9.466-27.848-14.801c-3.618-3.159-5.855-6.249-6.707-9.263c-0.805-2.845-0.531-6.147,0.82-9.9
		c1.904-5.289,5.742-11.274,11.511-17.947l-0.009-0.008c0.411-0.476,0.799-0.979,1.162-1.512
		c14.651-21.541,19.226-41.424,13.751-59.65c26.502-0.183,67.195-3.919,122.215-11.244c23.882-16.351,46.759-24.331,68.632-23.939
		c21.724,1.11,40.748-2.4,57.09-10.5c-2.433,8.379-6.452,15.494-12.064,21.34c-9.268,9.654-23.072,16.281-41.413,19.876
		c-1.147,0.221-2.218,0.613-3.192,1.144l-0.007-0.014c-13.546,7.428-25.756,16.27-36.627,26.525
		c-9.659,9.111-18.196,19.297-25.607,30.554c-63.61,12.251-81.868,35.984-54.755,71.199c2.694,3.496,7.044,4.941,11.078,4.085
		l0.003,0.012c16.612-3.562,28.221-4.064,34.823-1.505c2.91,1.129,4.288,3.709,4.137,7.739l-0.268,0.572
		c-5.92,12.939-6.089,25.06-0.509,36.356c5.069,10.26,14.918,19.197,29.541,26.804c0.858,0.446,1.69,0.87,2.496,1.271
		c6.808,11.36,10.851,23.422,12.127,36.182c1.395,13.947-0.504,28.839-5.695,44.667c-1.918,5.857,1.251,12.17,7.079,14.097
		c5.828,1.928,12.108-1.256,14.025-7.113c6.179-18.842,8.417-36.792,6.711-53.844c-1.709-17.108-7.381-33.213-17.008-48.309
		c-1.113-1.903-2.798-3.492-4.946-4.479c-1.831-0.846-3.365-1.592-4.611-2.24c-10.302-5.359-16.925-11.017-19.866-16.971
		c-2.429-4.916-2.151-10.637,0.831-17.157c0.221-0.483,0.408-0.882,0.559-1.195c0.722-1.253,1.213-2.669,1.403-4.196
		c2.076-16.52-3.927-27.511-18.011-32.972c-9.393-3.642-22.616-3.997-39.663-1.067c-5.562-13.783,10.818-24.077,49.149-30.878
		l-0.003-0.017c2.998-0.53,5.767-2.291,7.496-5.095c6.997-11.301,15.206-21.395,24.622-30.278
		c9.039-8.527,19.271-15.99,30.695-22.391c22.158-4.617,39.296-13.235,51.406-25.85c12.756-13.289,19.718-30.606,20.884-51.95
		c0.048-0.893-0.038-1.758-0.19-2.601C2093.591,1434.007,2099.271,1426.891,2104.337,1418.725z"/>
</g>
<g id="Layer_1">
</g>
</svg>
