<?xml version="1.0" encoding="iso-8859-1"?>
<!-- Generator: Adobe Illustrator 21.1.0, SVG Export Plug-In . SVG Version: 6.00 Build 0)  -->
<svg version="1.1" xmlns="http://www.w3.org/2000/svg" xmlns:xlink="http://www.w3.org/1999/xlink" x="0px"
	 y="0px" viewBox="0 0 2500 2500" style="enable-background:new 0 0 2500 2500;" xml:space="preserve">
	<g id="Ethereum_Eyes">
<path style="fill-rule:evenodd;clip-rule:evenodd;fill:#FFFFFF;stroke:#000000;stroke-width:8.5039;stroke-linecap:round;stroke-linejoin:round;stroke-miterlimit:2.6131;" d="
	M1620.306,1466.956c-183.453,111.72-341.41,96.015-473.87-47.117c81.906-121.626,190.983-172.513,327.231-152.66
	c89.674,17.696,143.851,45.337,162.532,82.927C1639.566,1382.904,1634.269,1421.854,1620.306,1466.956z"/>
<path style="fill-rule:evenodd;clip-rule:evenodd;fill:#FFFFFF;stroke:#000000;stroke-width:8.5039;stroke-linecap:round;stroke-linejoin:round;stroke-miterlimit:2.6131;" d="
	M1630.669,1491.471c-6.027-7.507-11.21-14.636-15.568-21.395c1.734-1.036,3.466-2.061,5.204-3.12
	c9.248-29.871,14.693-57.043,16.338-81.517h0.002C1758.983,1258.423,1857.5,1241.5,2009.5,1309.5c36,18,53,27,73.842,48.144
	c27.951,47.779,20.728,82.96-21.671,105.543C1921.202,1529.211,1777.535,1538.639,1630.669,1491.471z"/>
<g>
	<g>
		<polygon style="fill:#FFFFFF;" points="1481.919,1400.159 1389.079,1266.886 1314.619,1411.255 1401.564,1455.136 		"/>
		<polygon style="fill:#FFFFFF;" points="1402.615,1470.989 1315.67,1427.107 1407.154,1539.428 1407.154,1539.428 
			1483.036,1416.007 		"/>
	</g>
	<g>
		<path style="opacity:0.45;fill:#010101;" d="M1314.619,1411.255l86.945,43.882l-12.485-188.25L1314.619,1411.255z"/>
		<path style="opacity:0.6;fill:#010101;" d="M1395.762,1367.655l-81.143,43.6l86.945,43.882l80.356-54.977L1395.762,1367.655z"/>
		<path style="opacity:0.8;fill:#010101;" d="M1389.079,1266.886l12.485,188.25l80.356-54.977L1389.079,1266.886z"/>
		<path style="opacity:0.45;fill:#010101;" d="M1315.67,1427.107l91.484,112.322l-4.539-68.44L1315.67,1427.107z"/>
		<path style="opacity:0.8;fill:#010101;" d="M1402.615,1470.989l4.539,68.44l75.883-123.421L1402.615,1470.989z"/>
	</g>
</g>
<polygon style="fill-rule:evenodd;clip-rule:evenodd;fill:#C8C8C8;" points="1363.604,1379.428 1338.195,1363.314 
	1313.572,1380.604 1329.686,1355.195 1312.396,1330.572 1337.805,1346.686 1362.428,1329.396 1346.314,1354.805 "/>
<polygon style="fill-rule:evenodd;clip-rule:evenodd;fill:#C8C8C8;" points="1493.024,1422.931 1479.188,1405.809 
	1458.069,1412.024 1475.191,1398.188 1468.976,1377.069 1482.812,1394.191 1503.931,1387.976 1486.809,1401.812 "/>
<g>
	<g>
		<polygon style="fill:#FFFFFF;" points="1930.449,1398.454 1859.026,1272.714 1781.219,1394.625 1854.717,1440.631 		"/>
		<polygon style="fill:#FFFFFF;" points="1854.355,1454.771 1780.856,1408.765 1852.788,1515.819 1852.788,1515.819 
			1930.145,1412.595 		"/>
	</g>
	<g>
		<path style="opacity:0.45;fill:#010101;" d="M1781.219,1394.625l73.499,46.006l4.308-167.917L1781.219,1394.625z"/>
		<path style="opacity:0.6;fill:#010101;" d="M1856.719,1362.598l-75.501,32.027l73.499,46.006l75.732-42.177L1856.719,1362.598z"/>
		<path style="opacity:0.8;fill:#010101;" d="M1859.026,1272.714l-4.308,167.917l75.732-42.177L1859.026,1272.714z"/>
		<path style="opacity:0.45;fill:#010101;" d="M1780.856,1408.765l71.932,107.054l1.566-61.048L1780.856,1408.765z"/>
		<path style="opacity:0.8;fill:#010101;" d="M1854.355,1454.771l-1.566,61.047l77.357-103.223L1854.355,1454.771z"/>
	</g>
</g>
<polygon style="fill-rule:evenodd;clip-rule:evenodd;fill:#C8C8C8;" points="1846.912,1484.068 1820.528,1479.437 1806.136,1502.03 
	1810.767,1475.646 1788.174,1461.254 1814.558,1465.885 1828.95,1443.292 1824.319,1469.676 "/>
<polygon style="fill-rule:evenodd;clip-rule:evenodd;fill:#C8C8C8;" points="1900.959,1364.173 1895.22,1345.433 1875.711,1343.55 
	1894.452,1337.81 1896.335,1318.301 1902.074,1337.042 1921.583,1338.925 1902.843,1344.664 "/>
	</g>
</svg>
