<svg xmlns="http://www.w3.org/2000/svg" viewBox="0 0 2500 2500">
    <title>PepeFrogFutureRobotEyes</title>
    <g>
        <path d="M1171.76,1141.27s131.31-33.08,220.73-26.37l50.52,83.5s68.58,25.91,198.23,46.8c93.25,15,197.27-59.86,197.27-59.86l22-56.78s101.27,19.36,145.56,37.06c0,0,144,90.33,147.84,238.1,2,77.87-83.55,210.84-177.88,232.69l-216.3,14.19s-276-32.67-385.93-35.87c-110.19-3.22-312.31-46-366.18-154.24S1027.4,1202.68,1171.76,1141.27Z" style="fill: #3a514e;stroke: #000;stroke-width: 9px"/>
        <path d="M1194.58,1172.71c-70.39,30.22-126.37,86.16-149.91,150a182.89,182.89,0,0,0-11.59,57.83c-0.71,24.49,4.15,47.87,14.57,68.64,25.71,51.28,93,83.37,144.93,101.26,69.85,24.07,145.6,34.13,193.21,35.52,103.84,3,351,31.69,379.06,35l207.85-13.5c36-8.89,74.75-39,106.6-82.88,28.06-38.69,46.17-82.82,47.09-114.15q0.07-2.31,0-4.52c-1.4-53.3-23.87-104.84-66.78-153.18a357.75,357.75,0,0,0-64.95-57.42c-29.88-11.39-85.84-23.73-115.91-29.94l-16.7,42.77-6,4.32c-4.51,3.23-111.69,78.84-212.28,62.72-128.37-20.57-196.73-45.91-199.58-47l-8.08-3-47.26-77.57C1312.62,1145.2,1210.11,1169,1194.58,1172.71Z" style="fill: #3a60ff;stroke: #000;stroke-linecap: round;stroke-linejoin: round;stroke-width: 8px"/>
        <g>
            <g>
                <ellipse cx="1831.8" cy="1422.9" rx="140" ry="152" transform="translate(356.05 3212.4) rotate(-88.33)" style="fill: #3ac7ff;isolation: isolate"/>
                <ellipse cx="1843.85" cy="1421.25" rx="73.68" ry="79.99" transform="translate(369.4 3222.85) rotate(-88.33)" style="fill: #191e68;isolation: isolate"/>
            </g>
            <g>
                <path d="M1707,1413.26c-2.36,80.89,67,148.79,154.65,151.34s160.85-61.17,163.21-142.06-67-148.79-154.65-151.34S1709.39,1332.37,1707,1413.26Zm8.15,0.24c2.23-76.4,71.68-136.58,154.82-134.15s149,66.56,146.74,143-71.68,136.58-154.82,134.15S1712.95,1489.9,1715.18,1413.5Z" style="fill: #fff"/>
                <path d="M1746.2,1409.75c-1.89,64.81,53.69,119.2,123.9,121.25s128.87-49,130.76-113.82S1947.17,1298,1877,1295.93,1748.09,1344.94,1746.2,1409.75Zm6.53,0.19c1.79-61.21,57.43-109.42,124-107.48s119.35,53.32,117.56,114.53-57.43,109.42-124,107.48S1750.94,1471.15,1752.73,1409.94Z" style="fill: #fff"/>
                <path d="M1785.24,1410.89c-1.31,44.94,37.23,82.66,85.91,84.08s89.36-34,90.67-78.92-37.23-82.66-85.91-84.08S1786.55,1366,1785.24,1410.89Zm4.53,0.13c1.24-42.44,39.82-75.88,86-74.53s82.76,37,81.52,79.42-39.82,75.88-86,74.53S1788.52,1453.47,1789.76,1411Z" style="fill: #fff"/>
            </g>
        </g>
        <g>
            <polygon points="1560.85 1347.72 1524.1 1346.51 1506.78 1314.08 1526.2 1282.86 1562.95 1284.07 1580.28 1316.5 1560.85 1347.72" style="fill: #2392ff"/>
            <polygon points="1563.62 1423.15 1526.87 1421.93 1509.55 1389.5 1528.97 1358.28 1565.72 1359.49 1583.05 1391.93 1563.62 1423.15" style="fill: #2392ff"/>
            <polygon points="1627.69 1387.5 1590.94 1386.29 1573.61 1353.86 1593.04 1322.64 1629.79 1323.85 1647.11 1356.28 1627.69 1387.5" style="fill: #2392ff"/>
            <polygon points="1979.6 1259.7 1942.85 1258.49 1925.53 1226.06 1944.95 1194.84 1981.7 1196.05 1999.03 1228.48 1979.6 1259.7" style="fill: #2392ff"/>
            <polygon points="2086.63 1397.9 2049.88 1396.68 2032.55 1364.25 2051.97 1333.03 2088.72 1334.24 2106.05 1366.68 2086.63 1397.9" style="fill: #2392ff"/>
            <polygon points="1631.5 1462.64 1594.75 1461.43 1577.42 1429 1596.85 1397.78 1633.6 1398.99 1650.92 1431.42 1631.5 1462.64" style="fill: #2392ff"/>
            <polygon points="1570.09 1561.39 1533.34 1560.17 1516.02 1527.74 1535.44 1496.52 1572.19 1497.73 1589.52 1530.17 1570.09 1561.39" style="fill: #2392ff"/>
            <polygon points="1108.26 1411.85 1071.51 1410.64 1054.18 1378.2 1073.61 1346.98 1110.36 1348.2 1127.68 1380.63 1108.26 1411.85" style="fill: #2392ff"/>
            <polygon points="1114.36 1340 1077.61 1338.78 1060.28 1306.35 1079.71 1275.13 1116.46 1276.34 1133.78 1308.78 1114.36 1340" style="fill: #2392ff"/>
            <polygon points="1173.67 1295.71 1136.92 1294.49 1119.6 1262.06 1139.03 1230.84 1175.78 1232.06 1193.1 1264.49 1173.67 1295.71" style="fill: #2392ff"/>
        </g>
        <g>
            <g>
                <ellipse cx="1312.92" cy="1381.42" rx="155.83" ry="169.18" transform="translate(-106.22 2653.47) rotate(-88.33)" style="fill: #3ac7ff;isolation: isolate"/>
                <ellipse cx="1326.33" cy="1379.59" rx="82.01" ry="89.04" transform="translate(-91.36 2665.11) rotate(-88.33)" style="fill: #191e68;isolation: isolate"/>
            </g>
            <g>
                <path d="M1174,1370.69c-2.63,90,74.59,165.61,172.13,168.45s179-68.09,181.66-158.13-74.59-165.61-172.13-168.45S1176.67,1280.65,1174,1370.69Zm9.07,0.26c2.48-85,79.79-152,172.33-149.32s165.81,74.08,163.32,159.12-79.79,152-172.33,149.32S1180.63,1456,1183.12,1371Z" style="fill: #fff"/>
                <path d="M1217.64,1366.78c-2.11,72.14,59.76,132.68,137.91,135s143.44-54.55,145.55-126.69-59.76-132.68-137.91-135S1219.75,1294.65,1217.64,1366.78Zm7.27,0.21c2-68.13,63.93-121.79,138.07-119.63s132.84,59.35,130.85,127.48-63.92,121.79-138.06,119.63S1222.92,1435.13,1224.91,1367Z" style="fill: #fff"/>
                <path d="M1261.09,1368.05c-1.46,50,41.44,92,95.63,93.58s99.46-37.83,100.92-87.85-41.44-92-95.63-93.59S1262.55,1318,1261.09,1368.05Zm5,0.15c1.38-47.24,44.33-84.46,95.74-83s92.12,41.16,90.74,88.4-44.33,84.46-95.74,83S1264.75,1415.44,1266.13,1368.2Z" style="fill: #fff"/>
            </g>
        </g>
    </g>
</svg>
