<?xml version="1.0" encoding="iso-8859-1"?>
<!-- Generator: Adobe Illustrator 21.1.0, SVG Export Plug-In . SVG Version: 6.00 Build 0)  -->
<svg version="1.1" xmlns="http://www.w3.org/2000/svg" xmlns:xlink="http://www.w3.org/1999/xlink" x="0px" y="0px"
	 viewBox="0 0 2500 2500" style="enable-background:new 0 0 2500 2500;" xml:space="preserve">
<g id="Half_Closed_Eyes">
	<g>
		<path style="fill:#FFFFFF;stroke:#000000;stroke-width:8.5039;" d="M1630.507,1393.378c0,0,77.542-68.053,178.195-87.966
			c100.643-19.918,207.885,36.511,207.885,36.511s47.862,1.66,66.002,26.563c18.141,24.892,26.401,43.14,3.29,63.058
			c-23.09,19.923-130.333,59.754-250.776,63.074c-120.454,3.32-209.546-18.258-209.546-18.258l-13.201-18.258L1630.507,1393.378z"/>
		<path style="fill:#FFFFFF;stroke:#000000;stroke-width:8.5039;" d="M1132.232,1414.951c0,0,89.097-91.286,209.538-117.843
			c120.444-26.557,275.537,26.557,287.088,61.414c11.551,34.856-13.2,91.28-13.2,91.28s-99.003,58.094-232.636,59.749
			C1249.375,1511.21,1132.232,1414.951,1132.232,1414.951z"/>
		<g>
			<path d="M1429.223,1331.876c-50.978-30.166-120.438-21.578-148.489,33.186c-28.048,54.78-6.6,119.498,49.496,122.823
				c56.101,3.325,113.843-8.299,123.744-53.109C1463.873,1389.965,1457.273,1348.475,1429.223,1331.876z"/>
			<path style="fill:#FFFFFF;" d="M1392.921,1386.641c0,10.093-9.224,18.264-20.62,18.264c-11.386,0-20.621-8.171-20.621-18.264
				c0-10.072,9.234-18.253,20.621-18.253C1383.698,1368.388,1392.921,1376.568,1392.921,1386.641z"/>
			<path style="fill:#FFFFFF;" d="M1336.83,1412.363c0,7.799-7.758,14.119-17.325,14.119c-9.562,0-17.32-6.32-17.32-14.119
				c0-7.784,7.758-14.098,17.32-14.098C1329.072,1398.265,1336.83,1404.579,1336.83,1412.363z"/>
			<path style="fill:#FFFFFF;" d="M1340.13,1345.98c0,4.129-4.807,7.474-10.72,7.474c-5.929,0-10.736-3.346-10.736-7.474
				c0-4.119,4.807-7.464,10.736-7.464C1335.323,1338.516,1340.13,1341.861,1340.13,1345.98z"/>
		</g>
		<g>
			<path d="M1906.055,1325.237c-45.863-20.501-115.504-19.918-138.594,14.939c-23.111,34.856-24.751,92.94-9.9,114.518
				c14.85,21.578,39.591,26.552,75.892,28.217c36.301,1.65,80.852-3.325,94.052-44.815
				C1940.696,1396.599,1935.746,1338.516,1906.055,1325.237z"/>
			<path style="fill:#FFFFFF;" d="M1874.704,1376.687c0,10.078-9.234,18.258-20.63,18.258c-11.386,0-20.62-8.181-20.62-18.258
				c0-10.083,9.234-18.258,20.62-18.258C1865.47,1358.429,1874.704,1366.604,1874.704,1376.687z"/>
			<path style="fill:#FFFFFF;" d="M1818.602,1402.409c0,7.794-7.748,14.114-17.32,14.114c-9.562,0-17.32-6.32-17.32-14.114
				c0-7.789,7.758-14.104,17.32-14.104C1810.855,1388.305,1818.602,1394.62,1818.602,1402.409z"/>
			<path style="fill:#FFFFFF;" d="M1821.902,1336.021c0,4.129-4.796,7.474-10.72,7.474c-5.924,0-10.72-3.345-10.72-7.474
				c0-4.119,4.797-7.47,10.72-7.47C1817.106,1328.551,1821.902,1331.902,1821.902,1336.021z"/>
		</g>
		<path style="fill:#68984E;stroke:#000000;stroke-width:8.5039;" d="M1631.799,1384.914c0.431-9.304-0.297-18.413-2.941-26.392
			c-11.55-34.856-166.644-87.971-287.088-61.414c-93.942,20.717-168.809,80.806-197.206,106.245
			C1296.235,1330.825,1474.511,1332.042,1631.799,1384.914z"/>
		<path style="fill:#68984E;stroke:#000000;stroke-width:8.5039;" d="M1623.907,1416.925l-11.55,41.176l13.201,18.258
			c0,0,89.092,21.578,209.546,18.258c120.443-3.32,227.686-43.151,250.776-63.074c14.712-12.681,16.644-24.702,11.473-38.166
			C1942.5,1433.25,1776.188,1479.571,1623.907,1416.925z"/>
		<path style="fill:#68984E;stroke:#000000;stroke-width:8.5039;" d="M2097.025,1392.502c-3.008-7.433-8.097-15.315-14.436-24.016
			c-18.14-24.903-66.002-26.563-66.002-26.563s-107.243-56.429-207.885-36.511c-100.653,19.913-178.195,87.966-178.195,87.966
			l-3.505,12.505C1771.771,1334.799,1940.245,1361.027,2097.025,1392.502z"/>
		<path style="fill:#68984E;stroke:#000000;stroke-width:8.5039;" d="M1134.974,1412.25c-1.781,1.722-2.742,2.701-2.742,2.701
			s117.143,96.26,250.789,94.6c133.633-1.655,232.636-59.749,232.636-59.749s7.353-16.83,12.17-37.769
			C1465.897,1455.75,1294.784,1455.823,1134.974,1412.25z"/>
	</g>
</g>
<g id="Layer_1">
</g>
</svg>
