<?xml version="1.0" encoding="iso-8859-1"?>
<!-- Generator: Adobe Illustrator 21.1.0, SVG Export Plug-In . SVG Version: 6.00 Build 0)  -->
<svg version="1.1" xmlns="http://www.w3.org/2000/svg" xmlns:xlink="http://www.w3.org/1999/xlink" x="0px" y="0px"
	 viewBox="0 0 2500 2500" style="enable-background:new 0 0 2500 2500;" xml:space="preserve">
<g id="Illuminati_Eye">
	<path style="fill:#FFFFFF;stroke:#000000;stroke-width:8.5039;" d="M1630.507,1393.378c0,0,77.542-68.053,178.195-87.966
		c100.643-19.918,207.885,36.511,207.885,36.511s47.862,1.66,66.002,26.563c18.141,24.892,26.401,43.14,3.29,63.058
		c-23.09,19.923-130.333,59.754-250.776,63.074c-120.454,3.32-209.546-18.258-209.546-18.258l-13.201-18.258L1630.507,1393.378z"/>
	<path style="fill:#FFFFFF;stroke:#000000;stroke-width:8.5039;" d="M1132.232,1414.951c0,0,89.097-91.286,209.538-117.843
		c120.444-26.557,275.537,26.557,287.088,61.414c11.551,34.856-13.2,91.28-13.2,91.28s-99.003,58.094-232.636,59.749
		C1249.375,1511.21,1132.232,1414.951,1132.232,1414.951z"/>
	<g>
		<path d="M1429.223,1331.876c-50.978-30.166-120.438-21.578-148.489,33.186c-28.048,54.78-6.6,119.498,49.496,122.823
			c56.101,3.325,113.843-8.299,123.744-53.109C1463.873,1389.965,1457.273,1348.475,1429.223,1331.876z"/>
		<path style="fill:#FFFFFF;" d="M1392.921,1386.641c0,10.093-9.224,18.264-20.62,18.264c-11.386,0-20.621-8.171-20.621-18.264
			c0-10.072,9.234-18.253,20.621-18.253C1383.698,1368.388,1392.921,1376.568,1392.921,1386.641z"/>
		<path style="fill:#FFFFFF;" d="M1336.83,1412.363c0,7.799-7.758,14.119-17.325,14.119c-9.562,0-17.32-6.32-17.32-14.119
			c0-7.784,7.758-14.098,17.32-14.098C1329.072,1398.265,1336.83,1404.579,1336.83,1412.363z"/>
		<path style="fill:#FFFFFF;" d="M1340.13,1345.98c0,4.129-4.807,7.474-10.72,7.474c-5.929,0-10.736-3.346-10.736-7.474
			c0-4.119,4.807-7.464,10.736-7.464C1335.323,1338.516,1340.13,1341.861,1340.13,1345.98z"/>
	</g>
	<path d="M2159,1390.953c0,0.667,0,1.333,0,2c-51.199,1.657-102.399,3.314-154.405,4.998c2.596,3.884,3.136,8.117,8.067,8.928
		c44.669,7.354,89.326,14.775,133.98,22.22c3.222,0.537,6.387,1.415,9.579,2.134c-0.122,0.733-0.245,1.466-0.367,2.198
		c-45.931-4.468-91.862-8.937-138.418-13.466c3.778,6.192,5.57,12.487,13.648,14.816c32.319,9.318,64.421,19.391,96.599,29.199
		c6.987,2.13,13.955,4.321,20.931,6.483c-0.129,0.469-0.259,0.938-0.388,1.407c-38.623-8.931-77.246-17.863-116.541-26.949
		c3.474,6.042,6.243,11.57,9.719,16.611c1.842,2.672,4.566,5.238,7.478,6.592c27.372,12.728,54.872,25.178,82.325,37.732
		c1.667,0.762,3.241,1.726,4.859,2.596c-0.302,0.683-0.605,1.366-0.907,2.049c-27.539-10.29-55.077-20.58-83.679-31.267
		c7.061,12.238,13.389,23.341,19.897,34.338c0.955,1.613,2.59,2.998,4.207,4.017c13.202,8.317,26.48,16.515,39.716,24.78
		c0.965,0.602,1.777,1.449,2.66,2.182c-0.21,0.3-0.42,0.599-0.63,0.899c-12.893-6.833-25.786-13.667-39.716-21.049
		c4.023,7.06,7.413,13.01,11.296,19.824c-11.25,0-21.519,0-32.632,0c13.893,11.527,26.976,22.383,40.06,33.238
		c-0.335,0.517-0.67,1.035-1.005,1.552c-1.381-0.687-2.881-1.205-4.123-2.086c-14.495-10.291-28.943-20.647-43.433-30.945
		c-1.168-0.83-2.548-1.91-3.843-1.929c-10.757-0.155-21.518-0.088-33.568-0.088c20.356,21.836,39.867,42.767,59.379,63.698
		c-0.336,0.336-0.671,0.672-1.007,1.008c-0.587-0.453-1.217-0.862-1.756-1.367c-21.403-20.026-42.781-40.078-64.23-60.054
		c-1.484-1.382-3.445-3.043-5.261-3.14c-6.905-0.369-13.842-0.149-21.594-0.149c21.73,30.51,42.956,60.311,64.182,90.113
		c-0.428,0.443-0.856,0.887-1.285,1.33c-1.358-1.203-2.907-2.249-4.046-3.633c-23.469-28.52-46.879-57.088-70.367-85.592
		c-0.843-1.023-2.32-2.053-3.557-2.124c-4.437-0.256-8.897-0.1-14.129-0.1c20.14,37.854,39.954,75.097,59.768,112.34
		c-0.379,0.215-0.757,0.43-1.135,0.645c-0.732-1.039-1.516-2.045-2.188-3.121c-22.079-35.357-44.189-70.696-66.144-106.131
		c-1.821-2.939-3.793-4.137-7.118-3.787c-2.225,0.234-4.494,0.044-7.474,0.044c16.404,43.946,32.516,87.108,48.627,130.269
		c-0.503,0.337-1.006,0.674-1.51,1.011c-0.869-1.265-1.951-2.432-2.577-3.808c-18.422-40.47-36.794-80.963-55.188-121.445
		c-3.122-6.871-4.135-7.298-11.82-5.167c10.981,47.475,21.965,94.96,32.949,142.445c-0.488,0.134-0.975,0.267-1.463,0.401
		c-14.597-47.812-29.195-95.623-43.758-143.323c-2.825,0-5.375,0-8.157,0c4.835,50.472,9.632,100.546,14.429,150.619
		c-0.665,0.125-1.329,0.249-1.994,0.374c-3.597-11.917-4.425-24.477-6.776-36.663c-2.448-12.69-4.14-25.526-6.226-38.287
		c-2.087-12.765-4.247-25.518-6.388-38.275c-2.128-12.679-4.273-25.355-6.368-37.784c-2.81,0-4.872,0-7.167,0
		c-0.789,23.977-1.573,47.604-2.344,71.23c-0.896,27.469-1.781,54.939-2.671,82.408c-0.667,0-1.333,0-2,0
		c-1.661-51.233-3.322-102.465-4.978-153.55c-3.002,0-5.375,0-7.681,0c-4.235,35.55-24.544,148.832-27.913,151.313
		c4.964-51.009,9.854-101.252,14.748-151.548c-3.213,0-5.513,0-7.834,0c-14.629,47.908-29.2,95.626-43.771,143.345
		c-0.492-0.142-0.983-0.284-1.475-0.426c10.998-47.512,21.996-95.025,32.998-142.553c-9.099-1.558-9.039-1.529-12.571,6.234
		c-18.215,40.031-36.459,80.049-54.722,120.058c-0.677,1.482-1.652,2.828-2.489,4.238c-0.64-0.293-1.279-0.585-1.919-0.878
		c16.209-43.224,32.417-86.448,48.657-129.756c-7.331-1.414-12.109-0.442-16.483,6.835c-20.287,33.745-41.483,66.944-62.358,100.335
		c-1.167,1.866-2.377,3.705-3.567,5.557c-0.406-0.247-0.811-0.494-1.216-0.74c19.856-37.324,39.711-74.648,59.828-112.464
		c-3.364,0-5.915,0.337-8.343-0.067c-6.037-1.003-9.611,1.878-13.261,6.375c-22.025,27.127-44.337,54.022-66.576,80.976
		c-1.172,1.421-2.555,2.669-3.84,3.997c-0.593-0.473-1.186-0.947-1.779-1.42c21.215-29.711,42.43-59.423,64.159-89.855
		c-7.837,0-14.631-0.104-21.416,0.093c-1.269,0.037-2.709,1.063-3.721,2.007c-21.437,19.997-42.821,40.05-64.227,60.079
		c-0.962,0.9-2.031,1.685-3.05,2.524c-0.315-0.347-0.63-0.693-0.945-1.04c19.534-20.956,39.068-41.913,59.35-63.672
		c-12.066,0-22.723-0.069-33.376,0.079c-1.497,0.021-3.165,0.838-4.44,1.733c-9.384,6.584-18.677,13.296-28.02,19.938
		c-6.302,4.48-12.638,8.913-19.077,13.451c-0.456-0.948-0.937-1.7-0.841-1.782c12.766-10.989,25.575-21.93,39.185-33.559
		c-10.569,0-20.349,0-30.713,0c3.981-6.963,7.521-13.155,11.58-20.252c-14.464,7.668-27.884,14.782-41.304,21.896
		c-0.224-0.365-0.449-0.73-0.673-1.095c0.756-0.568,1.474-1.196,2.273-1.696c9.856-6.163,19.43-12.862,29.669-18.308
		c11.156-5.935,19.229-14.115,24.518-25.573c3.123-6.765,7.361-13.015,11.749-20.626c-29.395,10.966-57.467,21.439-85.538,31.911
		c-0.284-0.538-0.568-1.077-0.853-1.615c1.248-0.843,2.407-1.881,3.759-2.499c27.004-12.354,54.019-24.681,81.06-36.953
		c4.954-2.248,10.087-3.822,12.569-9.634c2.072-4.849,5.188-9.252,8.342-14.719c-40.077,9.271-78.96,18.265-117.844,27.26
		c-0.139-0.456-0.279-0.913-0.418-1.369c1.617-0.527,3.227-1.08,4.854-1.578c39.131-11.986,78.268-23.952,117.378-36.002
		c1.613-0.497,3.454-1.458,4.369-2.773c2.147-3.085,3.796-6.516,6.113-10.636c-8.673,0.85-16.55,1.652-24.432,2.388
		c-19.041,1.778-38.091,3.463-57.126,5.301c-18.535,1.79-37.053,3.752-55.589,5.527c-1.047,0.1-2.192-0.819-3.291-1.264
		c0.138-0.43,0.276-0.859,0.413-1.289c24.851-4.089,49.708-8.147,74.553-12.275c23.074-3.834,46.106-7.944,69.227-11.469
		c5.5-0.839,6.468-4.336,8.128-8.416c-25.273-0.846-50.08-1.688-74.888-2.505c-26.639-0.877-53.28-1.731-79.919-2.595
		c0-0.667,0-1.333,0-2c5.498-0.053,11,0.008,16.494-0.177c47.282-1.59,94.562-3.275,141.847-4.761
		c4.163-0.131,6.007-1.799,6.637-5.699c-13.728-2.287-27.289-4.554-40.854-6.803c-13.581-2.252-27.168-4.471-40.748-6.731
		c-13.738-2.286-27.517-4.364-41.193-6.977c-13.095-2.502-26.486-3.729-39.209-8.186c13.506,0.211,26.841,1.397,40.165,2.693
		c15.391,1.497,30.77,3.113,46.159,4.637c15.554,1.54,31.114,3.019,46.669,4.548c11.419,1.122,22.827,2.368,34.26,3.321
		c1.515,0.126,3.147-1.152,4.725-1.78c-0.14-0.458-0.281-0.915-0.421-1.373c-54.721-16.704-109.442-33.408-164.163-50.112
		c0.733-1.163,1.224-1.392,1.64-1.296c39.045,9.059,78.085,18.141,117.124,27.226c16.299,3.793,32.589,7.629,48.906,11.344
		c1.651,0.376,3.461,0.05,5.198,0.05c0.059-0.591,0.119-1.183,0.178-1.774c-53.538-24.432-107.076-48.865-160.614-73.297
		c0.192-0.599,0.384-1.199,0.575-1.798c1.575,0.319,3.227,0.432,4.713,0.988c22.002,8.227,43.981,16.514,65.968,24.784
		c31.141,11.713,62.279,23.431,93.434,35.105c1.306,0.489,2.77,0.555,4.16,0.818c0.167-0.484,0.334-0.968,0.501-1.453
		c-50.414-31.478-100.828-62.956-151.242-94.434c0.264-0.437,0.528-0.874,0.792-1.311c52.513,27.944,105.026,55.888,157.539,83.833
		c0.431-0.643,0.861-1.286,1.292-1.929c-45.961-37.943-91.923-75.885-137.928-113.865c0.856-0.913,1.239-1.377,1.276-1.351
		c47.968,33.793,95.914,67.619,143.859,101.444c0.516-1.552,0.299-2.956-0.494-3.847c-4.099-4.601-8.333-9.083-12.544-13.585
		c-34.59-36.974-69.187-73.94-103.759-110.93c-0.615-0.658-0.945-1.582-1.407-2.382c0.284-0.207,0.569-0.415,0.853-0.622
		c41.869,39.082,83.737,78.164,125.605,117.246c0.558-0.319,1.115-0.638,1.673-0.957c-0.532-1.734-0.66-3.754-1.656-5.16
		c-22.102-31.199-44.301-62.33-66.479-93.475c-10.184-14.301-20.363-28.604-30.544-42.907c0.208-0.365,0.417-0.73,0.625-1.096
		c0.965,0.358,2.174,0.468,2.843,1.126c1.412,1.39,2.523,3.082,3.79,4.623c25.351,30.849,50.704,61.695,76.063,92.538
		c7.758,9.436,15.533,18.858,23.285,28.268c4.571-3.568,2.058-6.735,0.383-9.877c-23.819-44.675-47.648-89.345-71.461-134.023
		c-0.706-1.325-1.258-2.732-1.882-4.101c0.393-0.204,0.786-0.409,1.179-0.613c27.272,43.685,54.544,87.369,81.913,131.21
		c3.834-4.298,4.773-8.051,2.642-13.634c-16.599-43.492-32.74-87.158-49.006-130.777c-0.516-1.384-0.849-2.836-1.268-4.255
		c0.711-0.283,1.422-0.566,2.133-0.849c19.505,42.385,38.544,84.99,58.693,128.968c1.61-6.635,7.554-9.856,6.017-16.456
		c-8.49-36.469-16.946-72.946-25.406-109.423c-1.145-4.938-2.242-9.888-3.36-14.833c0.474-0.117,0.949-0.234,1.423-0.352
		c11.643,38.144,23.286,76.288,35.307,115.671c5.595-11.114,13.065-19.458,11.276-32.688c-3.919-28.979-6.134-58.19-8.957-87.314
		c-0.112-1.156,0.68-2.399,1.05-3.602c0.468,0.085,0.935,0.171,1.403,0.256c4.869,29.277,9.739,58.555,14.824,89.132
		c7.204-12.45,13.785-23.74,20.235-35.105c0.604-1.064,0.479-2.596,0.524-3.916c0.599-17.647,1.169-35.295,1.746-52.943
		c0.667,0,1.333,0,2,0c0.439,16.32,0.857,32.64,1.347,48.958c0.059,1.98-0.034,4.254,0.871,5.874
		c6.592,11.804,13.422,23.476,20.84,36.34c1.801-11.12,3.357-20.922,4.981-30.712c1.628-9.812,3.107-19.655,5.052-29.404
		c1.868-9.363,2.209-19.107,6.125-28.033c0.739,1.071,0.916,2.03,0.832,2.966c-0.995,11.094-1.985,22.189-3.064,33.276
		c-1.481,15.222-2.14,30.597-4.813,45.611c-2.676,15.025,0.535,27.595,10.591,38.924c11.581-37.884,23.137-75.683,34.692-113.481
		c1.149,0.765,1.313,1.259,1.213,1.692c-8.986,38.883-17.61,77.858-27.285,116.569c-2.225,8.904,1.505,14.336,5.765,21.294
		c19.544-42.787,38.784-84.905,58.023-127.023c0.633,0.24,1.266,0.479,1.898,0.719c-0.431,1.791-0.679,3.651-1.321,5.363
		c-16.024,42.755-31.958,85.545-48.309,128.175c-2.125,5.541-2.139,9.667,2.388,14.049c27.109-43.406,54.202-86.787,81.295-130.167
		c0.417,0.251,0.834,0.502,1.252,0.753c-0.737,1.435-1.456,2.881-2.215,4.305c-23.637,44.377-47.278,88.752-70.919,133.128
		c-2.919,5.479-2.92,5.479,1.014,9.674c34.736-42.091,69.458-84.166,104.18-126.241c0.551,0.362,1.102,0.724,1.653,1.087
		c-0.539,1.148-0.929,2.399-1.643,3.426c-3.225,4.64-6.539,9.218-9.827,13.814c-28.332,39.614-56.682,79.215-84.927,118.892
		c-1.035,1.454-1.027,3.651-1.505,5.501c0.505,0.187,1.01,0.374,1.514,0.561c41.628-38.854,83.256-77.707,124.884-116.561
		c0.393,0.36,0.786,0.719,1.178,1.079c-1.139,1.237-2.271,2.481-3.419,3.709c-17.177,18.373-34.366,36.734-51.531,55.118
		c-20.575,22.036-41.146,44.076-61.648,66.181c-1.089,1.174-1.519,2.958-2.255,4.458c0.477,0.258,0.954,0.517,1.431,0.775
		c47.567-33.903,95.133-67.806,142.7-101.709c0.399,0.344,0.799,0.687,1.198,1.031c-0.847,1.212-1.473,2.693-2.573,3.598
		c-43.703,35.926-87.454,71.793-131.158,107.718c-1.144,0.94-1.831,2.436-2.731,3.672c0.327,0.299,0.654,0.598,0.98,0.896
		c52.192-27.781,104.383-55.562,156.575-83.343c-0.308,1.74-1.193,2.578-2.206,3.211c-30.98,19.355-61.974,38.689-92.964,58.028
		c-17.189,10.727-34.386,21.44-51.538,32.226c-1.091,0.686-1.82,1.949-2.717,2.943c0.358,0.349,0.717,0.697,1.075,1.046
		c1.385-0.493,2.777-0.968,4.154-1.482c52.86-19.76,105.716-39.532,158.601-59.224c1.205-0.449,2.751,0.019,4.138,0.06
		c-0.986,0.876-1.832,2.055-2.978,2.581c-16.122,7.409-32.282,14.732-48.437,22.069c-34.432,15.638-68.87,31.265-103.292,46.926
		c-1.611,0.733-3.091,1.755-4.632,2.642c0.259,0.7,0.518,1.401,0.776,2.101c56.951-13.165,113.903-26.33,170.854-39.495
		c0.136,0.489,0.271,0.977,0.407,1.466c-54.528,16.648-109.055,33.296-163.565,49.938c1.264,4.89,4.769,3.563,7.457,3.306
		c22.51-2.157,45-4.522,67.506-6.718c30.947-3.02,61.901-5.961,92.859-8.856c1.155-0.108,2.388,0.623,3.584,0.964
		c-0.076,0.494-0.152,0.987-0.228,1.481c-53.678,8.912-107.356,17.824-161.204,26.765c1.049,4.192,3.151,5.531,7.174,5.622
		c24.814,0.562,49.621,1.43,74.429,2.222C2104.058,1389.156,2131.529,1390.06,2159,1390.953z M1666.186,1516.611
		c125.112,0,249.705,0,374.687,0c-20.07-34.934-39.875-69.406-59.796-104.079c-33.262,41.486-76.302,61.86-128.307,62.233
		c-52.142,0.374-94.942-20.019-126.907-62.128C1705.806,1447.583,1686.065,1481.976,1666.186,1516.611z M1748.001,1374.104
		c57.504-57.288,149.54-60.448,211.076,0.061c-35.074-61.082-70.149-122.163-105.56-183.833
		C1818.084,1252.044,1783.042,1313.074,1748.001,1374.104z M1834.818,1369.431c-10.078,1.924-20.176,3.755-30.209,5.89
		c-1.259,0.268-2.62,1.958-3.181,3.303c-4.145,9.949-5.113,20.43-2.812,30.806c6.974,31.441,33.451,49.319,65.189,44.526
		c33.769-5.099,55.504-44.779,41.577-75.976c-0.496-1.11-1.363-2.684-2.294-2.874c-10.253-2.086-20.554-3.939-30.842-5.856
		c21.466,18.093,16.609,41.892,5.109,53.34c-13.611,13.548-35.648,13.132-48.616-1.036
		C1817.196,1408.943,1814.719,1386.01,1834.818,1369.431z M1885.172,1456.904c38.894-6.133,76.084-27.569,94.645-46.345
		c-6.802-7.896-50.688-29.456-63.202-31.103C1924.142,1412.26,1914.069,1438.014,1885.172,1456.904z M1726.347,1410.359
		c27.908,24.78,59.207,40.056,94.995,46.252c-13.255-8-22.921-18.967-28.776-33.294c-5.807-14.209-5.728-28.762-2.055-44.051
		C1767.38,1387.029,1746.504,1397.137,1726.347,1410.359z M1731.143,1404.651c82.133-65.125,163.91-66.095,245.636,0.811
		c-0.622-1.422-1.219-2.439-2.041-3.218c-16.204-15.365-33.249-29.587-52.968-40.394c-25.399-13.919-52.268-21.003-81.308-17.824
		c-22.278,2.439-42.673,10.523-61.735,22.078C1761.179,1376.743,1745.432,1389.664,1731.143,1404.651z M1838.478,1391.413
		c3.985-3.761,7.535-7.091,11.058-10.448c0.9-0.857,1.72-1.798,2.577-2.7c-1.19-1.023-2.235-2.622-3.595-2.963
		c-4.571-1.145-8.745,0.17-11.283,4.169C1834.725,1383.427,1835.207,1387.559,1838.478,1391.413z"/>
</g>
<g id="Layer_1">
</g>
</svg>
