<?xml version="1.0" encoding="iso-8859-1"?>
<svg version="1.1" xmlns="http://www.w3.org/2000/svg" xmlns:xlink="http://www.w3.org/1999/xlink" x="0px" y="0px"
 	 viewBox="0 0 2500 2500" style="enable-background:new 0 0 2500 2500;" xml:space="preserve">
	<g id="Layer-1">
		<path d="M1680.86,1451.73c-183.453,85.64 -341.41,73.601 -473.871,-36.119c81.906,-93.233 190.983,-132.241 327.231,-117.022c89.673,13.564 143.851,34.754 162.533,63.568c3.368,25.142 -1.93,54.999 -15.893,89.573Z" style="fill:#fff;stroke:#000;stroke-width:8.5px;"/>
		<path d="M1691.23,1470.52c-6.028,-5.756 -11.211,-11.221 -15.569,-16.402c1.735,-0.794 3.466,-1.58 5.205,-2.391c9.248,-22.898 14.692,-43.727 16.338,-62.487l0.002,0c122.336,-97.366 247.399,-113.377 375.182,-48.035c35.336,2.547 59.174,11.457 71.513,26.728c27.952,36.626 20.728,63.594 -21.67,80.905c-140.468,50.611 -284.136,57.838 -431.001,21.682Z" style="fill:#fff;stroke:#000;stroke-width:8.5px;"/>
		<path d="M1358.31,1438.79c70.058,9.942 112.92,-3.302 128.58,-39.73c15.225,-42.162 12.329,-76.717 -8.659,-103.675c-59.41,0.031 -113.014,11.647 -160.825,34.829c-0.589,1.491 -1.166,3.005 -1.715,4.555c-14.149,60.478 0.058,95.151 42.619,104.021Z" style="fill:#ff0000;"/>
		<path d="M1379.26,1363.66c3.691,-1.507 6.822,-3.914 9.391,-7.224c3.804,-9.394 -0.771,-14.451 -13.725,-15.169c-6.119,2.252 -9.008,7.308 -8.668,15.169c2.18,7.102 6.514,9.51 13.002,7.224" style="fill:#fff;"/>
		<path d="M1434.15,1349.94c22.864,-10.049 25.752,-21.848 8.668,-35.396c-14.655,-5.277 -24.529,-1.185 -29.617,12.281c-1.26,15.349 5.723,23.054 20.949,23.115" style="fill:#fff;"/>
		<path d="M1807.64,1422.11c70.058,9.942 112.918,-3.301 128.58,-39.73c11.047,-30.594 12.549,-57.181 4.53,-79.77c-60.781,-4.373 -120.929,10.211 -180.441,43.761c-3.842,43.102 11.921,68.36 47.331,75.739Z" style="fill:#ff0000;fill-rule:nonzero;"/>
		<path d="M1828.59,1355.98c3.691,-1.505 6.822,-3.914 9.39,-7.223c3.805,-9.395 -0.769,-14.451 -13.724,-15.17c-6.117,2.252 -9.005,7.309 -8.668,15.17c2.182,7.101 6.516,9.51 13.002,7.223" style="fill:#fff;"/>
		<path d="M1883.49,1346.25c22.864,-10.049 25.752,-21.848 8.668,-35.396c-14.655,-5.277 -24.529,-1.182 -29.617,12.282c-1.26,15.348 5.725,23.053 20.949,23.114" style="fill:#fff;"/>
	</g>
</svg>
