<?xml version="1.0" encoding="iso-8859-1"?>
<!-- Generator: Adobe Illustrator 21.1.0, SVG Export Plug-In . SVG Version: 6.00 Build 0)  -->
<svg version="1.1" xmlns="http://www.w3.org/2000/svg" xmlns:xlink="http://www.w3.org/1999/xlink" x="0px" y="0px"
	 viewBox="0 0 2500 2500" style="enable-background:new 0 0 2500 2500;" xml:space="preserve">
<g id="Mad_Eyes">
	<polygon style="fill:#68984E;" points="1449,1046 1461,1046 1574,1084 1828,1134 1866,1166 1876,1181 2007.5,1250.5 2014,1266 
		2060,1313 2056,1335 1714,1467 1618,1540 1533,1544 1458,1559 1211,1589 1075,1540 1002,1449 1002,1292 1051,1176 1126,1070 
		1290,1046 	"/>
	<g>
		<path style="fill:#FFFFFF;stroke:#000000;stroke-width:8.5039;" d="M2080.5,1368.5c-129.034-4.408-227.865-92.764-380.906,42.685
			c-34.6,19.167-44.79,19.018-44.79,19.018l-18.407,62.673l13.386,17.68c0,0,90.384,20.894,212.572,17.68
			s167.274-31.012,196.551-40.381c31.939-10.223,52.623-48.489,40.594-89.355C2096.786,1389.281,2090.107,1376.706,2080.5,1368.5z"
			/>
		<path style="fill:#FFFFFF;stroke:#000000;stroke-width:8.5039;" d="M1571.839,1413.741
			c-63.878-30.668-133.079-66.447-202.28-81.781c-58.742-10.577-112.413,12.888-159.279,46.91
			c-39.469,36.518-60.946,72.222-60.946,72.222s82.878,112.484,218.452,110.876c135.569-1.602,271.954-77.129,271.954-77.129
			s22.119-48.123,15.153-81.946C1630.222,1419.167,1602.093,1426.654,1571.839,1413.741z"/>
		<g>
			<path d="M1454.163,1362.588c-54.464-30.758-128.676-22.003-158.639,33.848c-29.966,55.865-7.054,121.863,52.888,125.257
				c59.927,3.384,121.616-8.465,132.195-54.163C1491.191,1421.832,1484.136,1379.514,1454.163,1362.588z"/>
			<path style="fill:#FFFFFF;" d="M1415.383,1418.438c0,10.298-9.861,18.629-22.031,18.629c-12.169,0-22.03-8.331-22.03-18.629
				c0-10.267,9.861-18.613,22.03-18.613C1405.522,1399.824,1415.383,1408.171,1415.383,1418.438z"/>
			<path style="fill:#FFFFFF;" d="M1355.456,1444.673c0,7.951-8.287,14.396-18.512,14.396c-10.215,0-18.506-6.444-18.506-14.396
				c0-7.942,8.291-14.381,18.506-14.381C1347.169,1430.293,1355.456,1436.731,1355.456,1444.673z"/>
			<path style="fill:#FFFFFF;" d="M1358.98,1376.969c0,4.218-5.131,7.627-11.452,7.627c-6.331,0-11.468-3.409-11.468-7.627
				c0-4.198,5.136-7.612,11.468-7.612C1353.849,1369.356,1358.98,1372.771,1358.98,1376.969z"/>
		</g>
		<g>
			<path d="M1926.348,1348.886c-46.521-19.851-117.167-19.287-140.596,14.465c-23.439,33.753-25.103,89.997-10.043,110.891
				c15.065,20.895,40.168,25.711,76.993,27.323c36.82,1.597,82.02-3.22,95.406-43.396
				C1961.494,1417.989,1956.472,1361.744,1926.348,1348.886z"/>
			<ellipse style="fill:#FFFFFF;" cx="1873.622" cy="1398.707" rx="20.921" ry="17.68"/>
			<path style="fill:#FFFFFF;" d="M1837.637,1423.614c0,7.547-7.865,13.667-17.575,13.667c-9.7,0-17.571-6.12-17.571-13.667
				c0-7.542,7.87-13.656,17.571-13.656C1829.772,1409.958,1837.637,1416.072,1837.637,1423.614z"/>
			<path style="fill:#FFFFFF;" d="M1840.985,1359.328c0,3.998-4.865,7.238-10.88,7.238c-6.004,0-10.875-3.24-10.875-7.238
				c0-3.988,4.871-7.232,10.875-7.232C1836.119,1352.096,1840.985,1355.34,1840.985,1359.328z"/>
		</g>
	</g>
	<path style="fill:none;stroke:#000000;stroke-width:8.5039;" d="M965,1301.292c0,0,111.786-138.005,186.31-138.005
		s409.882,163.562,420.529,127.783c10.646-35.779-26.616-71.558-26.616-71.558s-22.915-105.68-91.304-175.511"/>
	<path style="fill:none;stroke:#000000;stroke-width:8.5039;" d="M1874.5,1174.5c0,0-84.412,14.344-148.29,50.123
		c-63.878,35.779-60.71,110.877-155.71,35.877"/>
	<path style="fill:none;stroke:#000000;stroke-width:8.5039;" d="M1575.5,1268.5c0,0,26.5,48.131,54.893,65.167
		c28.394,17.036,46.136,30.663,24.843,85.185"/>
	<path style="fill:none;stroke:#000000;stroke-width:8.5039;" d="M1659.671,1354.961c0,0,74.478-136.813,361.829-93.461"/>
	<path style="fill:none;stroke:#000000;stroke-width:8.5039;" d="M1664.994,1370.295c0,0,101.984-163.481,400.506-49.795"/>
	<path style="fill:none;stroke:#000000;stroke-width:8.5039;" d="M1641.04,1339.627c0,0-130.417-38.335-236.88-71.558
		s-231.557-30.668-303.419,48.557"/>
	<path style="fill:none;stroke:#000000;stroke-width:8.5039;" d="M1350.928,1273.18c0,0-109.125,0-162.356,43.446
		s-69.201,71.558-109.125,89.448c-39.924,17.89-74.524,23.001-47.908,46.002c26.616,23.001,117.795-0.983,117.795-0.983"/>
</g>
<g id="Layer_1">
</g>
</svg>
