<?xml version="1.0" encoding="iso-8859-1"?>
<!-- Generator: Adobe Illustrator 21.1.0, SVG Export Plug-In . SVG Version: 6.00 Build 0)  -->
<svg version="1.1" xmlns="http://www.w3.org/2000/svg" xmlns:xlink="http://www.w3.org/1999/xlink" x="0px" y="0px"
	 viewBox="0 0 2500 2500" style="enable-background:new 0 0 2500 2500;" xml:space="preserve">
	<g id="Money_Eyes">
<path style="fill-rule:evenodd;clip-rule:evenodd;fill:#FFFFFF;stroke:#000000;stroke-width:8.5039;stroke-linecap:round;stroke-linejoin:round;stroke-miterlimit:2.6131;" d="
	M1620.306,1466.956c-183.453,111.72-341.41,96.015-473.87-47.117c81.906-121.626,190.983-172.513,327.231-152.66
	c89.674,17.696,143.851,45.337,162.532,82.927C1639.566,1382.904,1634.269,1421.854,1620.306,1466.956z"/>
<path style="fill-rule:evenodd;clip-rule:evenodd;fill:#FFFFFF;stroke:#000000;stroke-width:8.5039;stroke-linecap:round;stroke-linejoin:round;stroke-miterlimit:2.6131;" d="
	M1630.669,1491.471c-6.027-7.507-11.21-14.636-15.568-21.395c1.734-1.036,3.466-2.061,5.204-3.12
	c9.248-29.871,14.693-57.043,16.338-81.517h0.002C1758.983,1258.423,1857.5,1241.5,2009.5,1309.5c36,18,53,27,73.842,48.144
	c27.951,47.779,20.728,82.96-21.671,105.543C1921.202,1529.211,1777.535,1538.639,1630.669,1491.471z"/>
<path style="fill-rule:evenodd;clip-rule:evenodd;" d="M1308.562,1454.551c19.438,4.985,35.894,8.13,49.385,9.566l-6.691-56.031
	c-16.281-4.479-28.972-10.065-38.027-16.74c-10.884-7.962-16.984-17.752-18.365-29.316c-1.874-15.694,5.952-29.66,23.47-41.945
	c6.234-4.387,13.25-8.212,21.042-11.48l-4.362-36.527l25.764-3.077l3.773,31.599c7.615-1.776,15.747-3.181,24.394-4.214
	c4.552-0.544,9.272-0.963,14.159-1.26l-3.671-30.741l25.771-3.078l3.98,33.331c11.791,0.222,24.756,1.033,38.945,2.391l5.453,45.66
	c-13.957-3.672-27.146-6.352-39.618-8.033l5.4,45.217c23.537,5.932,40.092,12.113,49.704,18.54
	c11.521,7.747,18.011,17.724,19.479,30.021c2.269,18.998-6.125,35.592-25.188,49.738c-8.625,6.379-18.735,11.725-30.341,16.044
	l4.664,39.06l-25.771,3.078l-4.162-34.854c-7.492,1.624-15.44,2.936-23.847,3.94c-4.721,0.564-9.629,1.016-14.727,1.359
	l4.081,34.171l-25.764,3.077l-4.349-36.423c-12.808-0.014-26.936-0.625-42.206-1.819L1308.562,1454.551L1308.562,1454.551z
	 M1384.189,1465.048c4.662-0.171,9.264-0.528,13.805-1.07c9.765-1.166,17.945-3.216,24.542-6.131l-3.884-32.527
	c-6.653-2.506-15.021-4.928-25.111-7.26c-4.618-1.077-8.181-1.955-10.679-2.541l-4.716-1.074L1384.189,1465.048L1384.189,1465.048z
	 M1369.45,1341.62l2.565,21.483c3.741,2.003,8.691,3.643,14.893,4.97l25.581,5.644l-4.901-41.044c-4.54,0-8.716,0.228-12.536,0.684
	c-10.375,1.239-18.331,3.632-23.947,7.141C1370.52,1340.865,1369.969,1341.238,1369.45,1341.62z"/>
<path style="fill-rule:evenodd;clip-rule:evenodd;" d="M1778.926,1417.397c15.297,8.834,28.503,15.402,39.6,19.818l7.611-49.089
	c-12.742-7.657-22.176-15.402-28.27-23.207c-7.34-9.331-10.191-19.077-8.62-29.208c2.132-13.75,12.078-23.734,29.842-29.996
	c6.325-2.242,13.18-3.821,20.561-4.744l4.962-32.002l22.572,3.5l-4.292,27.684c6.877,0.3,14.105,1.036,21.68,2.211
	c3.988,0.618,8.089,1.382,12.303,2.288l4.176-26.932l22.578,3.501l-4.528,29.201c9.943,2.984,20.743,6.745,32.45,11.26
	l-6.202,40.003c-10.962-6.422-21.508-11.821-31.683-16.203l-6.142,39.615c18.548,10.609,31.118,19.774,37.743,27.502
	c7.931,9.299,11.067,19.296,9.397,30.07c-2.581,16.644-13.631,28.722-33.146,36.196c-8.825,3.363-18.663,5.498-29.526,6.409
	l-5.306,34.22l-22.578-3.501l4.734-30.536c-6.737-0.4-13.786-1.172-21.152-2.314c-4.136-0.641-8.405-1.421-12.807-2.339
	l-6.642,41.938l-22.572-3.5l6.948-43.91c-10.855-3.048-22.688-6.916-35.35-11.548L1778.926,1417.397L1778.926,1417.397z
	 M1840.553,1444.226c3.993,0.96,7.979,1.748,11.957,2.365c8.555,1.326,15.976,1.528,22.26,0.62l4.418-28.497
	c-5.046-3.701-11.567-7.739-19.568-12.108c-3.66-2.008-6.473-3.597-8.451-4.686l-3.743-2.029L1840.553,1444.226L1840.553,1444.226z
	 M1857.319,1336.09l-2.918,18.822c2.697,2.585,6.504,5.149,11.448,7.744l20.349,10.85l5.575-35.959
	c-3.849-1.076-7.443-1.873-10.79-2.392c-9.089-1.409-16.402-1.267-21.995,0.377
	C1858.406,1335.704,1857.85,1335.889,1857.319,1336.09z"/>
<polygon style="fill-rule:evenodd;clip-rule:evenodd;fill:#C8C8C8;" points="1282.535,1410.331 1284.232,1364.625 
	1242.669,1345.535 1288.375,1347.232 1307.465,1305.669 1305.768,1351.375 1347.331,1370.465 1301.625,1368.768 "/>
<polygon style="fill-rule:evenodd;clip-rule:evenodd;fill:#C8C8C8;" points="1964.025,1466.749 1949.895,1435.105 
	1915.251,1436.025 1946.895,1421.895 1945.975,1387.251 1960.105,1418.895 1994.749,1417.975 1963.105,1432.105 "/>
<polygon style="fill-rule:evenodd;clip-rule:evenodd;fill:#C8C8C8;" points="1510.024,1482.931 1496.188,1465.809 
	1475.069,1472.024 1492.191,1458.188 1485.976,1437.069 1499.812,1454.191 1520.931,1447.976 1503.809,1461.812 "/>
	</g>
</svg>
