<?xml version="1.0" encoding="iso-8859-1"?>
 <svg version="1.1" xmlns="http://www.w3.org/2000/svg" xmlns:xlink="http://www.w3.org/1999/xlink" x="0px" y="0px"
 	 viewBox="0 0 2500 2500" style="enable-background:new 0 0 2500 2500;" xml:space="preserve">
     <g id="Layer-1">
        <path d="M1620.31,1451.73c-183.453,85.64 -341.41,73.601 -473.871,-36.119c81.907,-93.233 198.317,-143.825 334.565,-128.606c89.674,13.564 136.518,46.338 155.198,75.152c3.368,25.142 -1.929,54.999 -15.892,89.573Z" style="fill:#fff;fill-rule:nonzero;stroke:#000;stroke-width:8.5px;"/>
        <path d="M1630.67,1470.52c-6.026,-5.756 -11.21,-11.221 -15.567,-16.402c1.733,-0.794 3.463,-1.58 5.204,-2.391c9.248,-22.898 14.692,-43.727 16.338,-62.487l0.002,0c122.336,-97.366 225.986,-152.422 354.354,-88.238c60,30 80.002,51.66 92.342,66.931c27.951,36.626 20.726,63.594 -21.671,80.905c-140.469,50.611 -284.136,57.838 -431.002,21.682Z" style="fill:#fff;fill-rule:nonzero;stroke:#000;stroke-width:8.5px;"/>
        <path d="M1575.07,1422.53c8.777,-24.305 5.913,-43.723 -8.588,-58.255c-42.298,-14.25 -68.936,-5.911 -79.913,25.02c-7.313,31.264 0.031,49.187 22.033,53.774c36.216,5.139 58.373,-1.708 66.468,-20.539"/>
        <path d="M1524.29,1370.25c0.041,-2.576 -0.83,-4.194 -2.614,-4.854c-5.358,-1.513 -9.092,-0.144 -11.203,4.108c-0.668,4.904 1.697,8.266 7.095,10.083c5.392,-1.866 7.632,-4.979 6.722,-9.337" style="fill:#fff;"/>
        <path d="M1519.43,1404.23c1.908,-0.779 3.526,-2.023 4.854,-3.734c1.967,-4.856 -0.398,-7.471 -7.096,-7.843c-3.162,1.164 -4.656,3.78 -4.48,7.843c1.127,3.671 3.367,4.916 6.722,3.734" style="fill:#fff;"/>
        <path d="M1547.81,1397.14c11.818,-5.196 13.312,-11.294 4.48,-18.298c-7.576,-2.729 -12.68,-0.612 -15.311,6.348c-0.65,7.935 2.96,11.917 10.83,11.95" style="fill:#fff;"/>
        <path d="M1960.51,1418.01c8.412,-23.295 5.667,-41.906 -8.232,-55.833c-40.54,-13.658 -66.069,-5.665 -76.589,23.979c-7.01,29.964 0.029,47.143 21.116,51.537c34.712,4.926 55.945,-1.635 63.705,-19.683"/>
        <path d="M1911.83,1367.91c0.04,-2.469 -0.795,-4.02 -2.505,-4.652c-5.135,-1.451 -8.715,-0.139 -10.737,3.936c-0.641,4.701 1.626,7.922 6.8,9.664c5.168,-1.788 7.314,-4.771 6.442,-8.948" style="fill:#fff;"/>
        <path d="M1907.18,1400.48c1.829,-0.747 3.38,-1.94 4.652,-3.581c1.886,-4.654 -0.382,-7.159 -6.8,-7.515c-3.031,1.116 -4.463,3.621 -4.295,7.515c1.081,3.52 3.229,4.712 6.443,3.581" style="fill:#fff;"/>
        <path d="M1934.38,1393.68c11.328,-4.979 12.759,-10.825 4.295,-17.537c-7.262,-2.615 -12.154,-0.586 -14.674,6.085c-0.624,7.604 2.836,11.422 10.379,11.452" style="fill:#fff;"/>
        <path d="M991,1145c0,0 4,18 -18,42c-22,24 -34,54 -8,68c26,14 40,-14 34,-40" style="fill:none;stroke:#edeaed;stroke-width:8.5px;"/>
        <path d="M905,1407c0,0 4,32 -8,52c-12,20 -36,72 -2,72c34,0 34,-28 24,-54" style="fill:none;stroke:#edeaed;stroke-width:8.5px;"/>
        <path d="M795,1475c0,0 -42,36 -50,48c-8,12 -2,60 22,40c24,-20 18,-50 18,-50" style="fill:none;stroke:#edeaed;stroke-width:8.5px;"/>
        <path d="M1755,1027c0,0 -12,58 10,74c22,16 30,-22 10,-48" style="fill:none;stroke:#edeaed;stroke-width:8.5px;"/>
        <path d="M1571.07,1074.6c0,0 -22.499,46.498 0,50.997c22.499,4.5 10.5,-28.499 9,-35.998" style="fill:none;stroke:#edeaed;stroke-width:8.5px;"/>
        <path d="M1223.07,1010.6c0,0 -22.499,46.498 0,50.997c22.499,4.5 10.5,-28.499 9,-35.998" style="fill:none;stroke:#edeaed;stroke-width:8.5px;"/>
    </g>
</svg>