<?xml version="1.0" encoding="iso-8859-1"?>
<!-- Generator: Adobe Illustrator 21.1.0, SVG Export Plug-In . SVG Version: 6.00 Build 0)  -->
<svg version="1.1" xmlns="http://www.w3.org/2000/svg" xmlns:xlink="http://www.w3.org/1999/xlink" x="0px" y="0px"
	 viewBox="0 0 2500 2500" style="enable-background:new 0 0 2500 2500;" xml:space="preserve">
<g id="Red_Eyes">
	<path style="fill-rule:evenodd;clip-rule:evenodd;fill:#F98B8C;stroke:#000000;stroke-width:8.5039;stroke-miterlimit:10;" d="
		M1630.669,1470.517c-6.027-5.755-11.21-11.219-15.568-16.401c1.734-0.795,3.466-1.58,5.204-2.392
		c9.248-22.898,14.693-43.727,16.338-62.487h0.002c122.337-97.366,247.398-113.377,375.182-48.035
		c35.336,2.547,59.174,11.457,71.514,26.728c27.951,36.626,20.728,63.594-21.671,80.905
		C1921.202,1499.447,1777.535,1506.674,1630.669,1470.517z"/>
	<path style="fill-rule:evenodd;clip-rule:evenodd;" d="M1968.508,1475.928c5.819-10.13,10.186-21.736,13.087-34.831
		c7.219-71.174-15.581-108.116-68.398-110.827c-86.184,0.831-135.758,23.301-148.724,67.409
		c-8.689,38.176-5.602,69.627,9.229,94.372C1839.293,1495.58,1904.229,1490.21,1968.508,1475.928z"/>
	<path style="fill-rule:evenodd;clip-rule:evenodd;fill:#F98B8C;stroke:#000000;stroke-width:8.5039;stroke-miterlimit:10;" d="
		M1620.306,1451.725c-183.453,85.64-341.41,73.601-473.87-36.118c81.906-93.234,190.983-132.241,327.231-117.023
		c89.674,13.565,143.851,34.754,162.532,63.568C1639.566,1387.294,1634.269,1417.151,1620.306,1451.725z"/>
	<path style="fill-rule:evenodd;clip-rule:evenodd;fill:#FFFFFF;" d="M1819.422,1408.257c3.999-1.632,7.389-4.24,10.172-7.824
		c4.121-10.175-0.836-15.652-14.866-16.43c-6.627,2.439-9.755,7.916-9.389,16.43
		C1807.701,1408.125,1812.395,1410.733,1819.422,1408.257z"/>
	<path style="fill-rule:evenodd;clip-rule:evenodd;fill:#FFFFFF;" d="M1879.182,1475.712c36.286-15.948,40.87-34.673,13.757-56.175
		c-23.26-8.375-38.929-1.878-47.004,19.49C1843.936,1463.388,1855.019,1475.616,1879.182,1475.712z"/>
	<path style="fill-rule:evenodd;clip-rule:evenodd;" d="M1545.678,1481.629c5.733-10.059,10.044-21.564,12.917-34.531
		c7.219-71.174-15.581-108.116-68.398-110.827c-86.184,0.831-135.758,23.301-148.724,67.409
		c-9.671,42.49-4.766,76.657,14.698,102.509C1415.682,1512.019,1478.849,1503.839,1545.678,1481.629z"/>
	<path style="fill-rule:evenodd;clip-rule:evenodd;fill:#FFFFFF;" d="M1396.422,1414.257c3.999-1.632,7.389-4.24,10.172-7.824
		c4.121-10.175-0.836-15.652-14.866-16.43c-6.627,2.439-9.755,7.916-9.389,16.43
		C1384.701,1414.125,1389.395,1416.733,1396.422,1414.257z"/>
	<path style="fill-rule:evenodd;clip-rule:evenodd;fill:#FFFFFF;" d="M1456.182,1481.712c36.286-15.948,40.87-34.673,13.757-56.175
		c-23.26-8.375-38.929-1.878-47.004,19.49C1420.936,1469.388,1432.019,1481.616,1456.182,1481.712z"/>
</g>
<g id="Layer_1">
</g>
</svg>
