<?xml version="1.0" encoding="iso-8859-1"?>
<svg version="1.1" xmlns="http://www.w3.org/2000/svg" xmlns:xlink="http://www.w3.org/1999/xlink" x="0px" y="0px"
	 viewBox="0 0 2500 2500" style="enable-background:new 0 0 2500 2500;" xml:space="preserve">
    <g>
      <path d="M1626.14,1458.85q-275.18,128.46-473.87-36.12,122.86-139.85,327.23-117Q1614,1326.06,1642,1369.28q5.05,37.71-15.89,89.57" style="fill-rule: evenodd"/>
      <path d="M1626.14,1458.85q-275.18,128.46-473.87-36.12,122.86-139.85,327.23-117Q1614,1326.06,1642,1369.28,1647.08,1407,1626.14,1458.85Z" style="fill: none;stroke: #000;stroke-linecap: round;stroke-linejoin: round;stroke-width: 8.504px"/>
      <path d="M1636.5,1477.64a208.84,208.84,0,0,1-15.57-16.4c1.73-.79,3.46-1.58,5.2-2.39q13.87-34.35,16.34-62.49h0q183.51-146,375.18-48,53,3.82,71.51,26.73Q2131.1,1430,2067.5,1456q-210.7,75.92-431,21.68" style="fill-rule: evenodd"/>
      <path d="M1636.5,1477.64a208.84,208.84,0,0,1-15.57-16.4c1.73-.79,3.46-1.58,5.2-2.39q13.87-34.35,16.34-62.49h0q183.51-146,375.18-48,53,3.82,71.51,26.73Q2131.1,1430,2067.5,1456,1856.8,1531.88,1636.5,1477.64Z" style="fill: none;stroke: #000;stroke-linecap: round;stroke-linejoin: round;stroke-width: 8.504px"/>
      <path d="M1462.16,1450.18q25.47-70.52-16.61-112.69-122.74-41.35-154.59,48.4-21.22,90.72,42.62,104,105.09,14.91,128.58-39.73" style="fill: #868848;fill-rule: evenodd"/>
      <path d="M1446.93,1438.89q19.45-53.85-12.68-86-93.72-31.57-118,37-16.2,69.27,32.54,79.43,80.24,11.39,98.18-30.34" style="fill: #97c762;fill-rule: evenodd"/>
      <path d="M1430.06,1427.55q12.47-34.52-8.13-55.16-60.08-20.24-75.67,23.69-10.39,44.41,20.86,50.92,51.44,7.3,62.94-19.45" style="fill-rule: evenodd"/>
      <path d="M1363.92,1349.05q0.12-7.48-5.06-9.39-15.54-4.39-21.67,7.95-1.94,14.23,13.73,19.5,15.64-5.41,13-18.06" style="fill: #fff;fill-rule: evenodd"/>
      <path d="M1354.53,1414.79a22.53,22.53,0,0,0,9.39-7.22q5.71-14.09-13.73-15.17-9.18,3.38-8.67,15.17,3.27,10.65,13,7.22" style="fill: #fff;fill-rule: evenodd"/>
      <path d="M1409.43,1401.06q34.29-15.07,8.67-35.4-22-7.92-29.62,12.28-1.89,23,20.95,23.11" style="fill: #fff;fill-rule: evenodd"/>
      <path d="M1933.5,1445.5q25.47-70.52-16.61-112.69-122.74-41.35-154.59,48.4-21.22,90.72,42.62,104,105.09,14.91,128.58-39.73" style="fill: #868848;fill-rule: evenodd"/>
      <path d="M1912,1434.82q18.9-52.33-12.33-83.62-91.08-30.68-114.71,35.92-15.75,67.32,31.63,77.19,78,11.07,95.42-29.48" style="fill: #97c762;fill-rule: evenodd"/>
      <path d="M1885.23,1416.31q10.28-28.46-6.71-45.48-49.53-16.69-62.38,19.53-8.56,36.61,17.2,42,42.41,6,51.89-16" style="fill-rule: evenodd"/>
      <path d="M1835.25,1344.37q0.12-7.48-5.06-9.39-15.54-4.39-21.67,7.95-1.94,14.23,13.73,19.5,15.64-5.41,13-18.06" style="fill: #fff;fill-rule: evenodd"/>
      <path d="M1825.86,1410.1a22.52,22.52,0,0,0,9.39-7.22q5.71-14.09-13.72-15.17-9.18,3.38-8.67,15.17,3.27,10.65,13,7.22" style="fill: #fff;fill-rule: evenodd"/>
      <path d="M1880.76,1396.38q34.3-15.07,8.67-35.4-22-7.92-29.62,12.28-1.89,23,20.95,23.11" style="fill: #fff;fill-rule: evenodd"/>
    </g>
</svg>

