<?xml version="1.0" encoding="iso-8859-1"?>
<!-- Generator: Adobe Illustrator 21.1.0, SVG Export Plug-In . SVG Version: 6.00 Build 0)  -->
<svg version="1.1" xmlns="http://www.w3.org/2000/svg" xmlns:xlink="http://www.w3.org/1999/xlink" x="0px" y="0px"
	 viewBox="0 0 2500 2500" style="enable-background:new 0 0 2500 2500;" xml:space="preserve">
<g id="Smug_Eyes">
	
		<path style="fill-rule:evenodd;clip-rule:evenodd;fill:#FFFFFF;stroke:#000000;stroke-width:8.5039;stroke-linecap:round;stroke-linejoin:round;stroke-miterlimit:2.6131;" d="
		M1624.1,1457.619c-185.995,85.663-345.406,72.061-478.233-40.805c83.511-94.258,193.998-133.059,331.458-116.404
		c90.442,14.576,144.972,36.615,163.59,66.12C1644.101,1392.164,1638.496,1422.527,1624.1,1457.619L1624.1,1457.619z"/>
	
		<path style="fill-rule:evenodd;clip-rule:evenodd;fill:#FFFFFF;stroke:#000000;stroke-width:8.5039;stroke-linecap:round;stroke-linejoin:round;stroke-miterlimit:2.6131;" d="
		M1634.405,1476.846c-6.037-5.912-11.224-11.521-15.581-16.835c1.757-0.794,3.513-1.58,5.276-2.391
		c9.535-23.242,15.212-44.408,17.034-63.501h0.002c124.377-98.123,250.807-113.368,379.292-45.737
		c35.663,2.894,59.66,12.17,71.99,27.828c27.914,37.538,20.388,64.943-22.577,82.213
		C1927.554,1508.774,1782.409,1514.916,1634.405,1476.846L1634.405,1476.846z"/>
	<path style="fill-rule:evenodd;clip-rule:evenodd;" d="M1458.58,1447.4c17.547-47.739,12.276-86.042-15.814-114.908
		c-82.395-28.769-134.569-12.776-156.524,47.98c-14.805,61.472-0.754,96.906,42.15,106.3
		C1399.057,1497.492,1442.453,1484.368,1458.58,1447.4L1458.58,1447.4z"/>
	<path style="fill-rule:evenodd;clip-rule:evenodd;fill:#FFFFFF;" d="M1360.236,1343.57c0.123-5.076-1.552-8.278-5.026-9.607
		c-10.44-3.069-17.758-0.432-21.953,7.909c-1.388,9.651,3.177,16.312,13.694,19.98
		C1357.513,1358.266,1361.941,1352.172,1360.236,1343.57L1360.236,1343.57z"/>
	<path style="fill-rule:evenodd;clip-rule:evenodd;fill:#FFFFFF;" d="M1350.19,1410.438c3.741-1.503,6.923-3.929,9.545-7.277
		c3.922-9.535-0.655-14.724-13.731-15.566c-6.198,2.241-9.158,7.367-8.884,15.376
		C1339.262,1410.222,1343.619,1412.711,1350.19,1410.438L1350.19,1410.438z"/>
	<path style="fill-rule:evenodd;clip-rule:evenodd;fill:#FFFFFF;" d="M1405.748,1396.926c23.175-10.04,26.193-22.032,9.057-35.975
		c-14.755-5.498-24.761-1.413-30.015,12.256C1383.387,1388.828,1390.374,1396.735,1405.748,1396.926L1405.748,1396.926z"/>
	<path style="fill-rule:evenodd;clip-rule:evenodd;" d="M1934.602,1446.631c17.547-47.739,12.276-86.041-15.814-114.908
		c-82.395-28.769-134.569-12.776-156.524,47.98c-14.804,61.473-0.754,96.906,42.15,106.3
		C1875.079,1496.723,1918.474,1483.599,1934.602,1446.631L1934.602,1446.631z"/>
	<path style="fill-rule:evenodd;clip-rule:evenodd;fill:#FFFFFF;" d="M1836.257,1342.802c0.123-5.076-1.552-8.278-5.026-9.607
		c-10.44-3.069-17.758-0.432-21.953,7.909c-1.388,9.651,3.177,16.311,13.694,19.98
		C1833.534,1357.498,1837.963,1351.404,1836.257,1342.802L1836.257,1342.802z"/>
	<path style="fill-rule:evenodd;clip-rule:evenodd;fill:#FFFFFF;" d="M1826.211,1409.67c3.741-1.503,6.923-3.929,9.546-7.277
		c3.922-9.535-0.655-14.724-13.731-15.566c-6.198,2.241-9.158,7.367-8.884,15.376
		C1815.284,1409.454,1819.64,1411.943,1826.211,1409.67L1826.211,1409.67z"/>
	<path style="fill-rule:evenodd;clip-rule:evenodd;fill:#FFFFFF;" d="M1881.77,1396.157c23.175-10.04,26.193-22.032,9.057-35.975
		c-14.755-5.499-24.761-1.413-30.015,12.256C1859.409,1388.06,1866.395,1395.967,1881.77,1396.157L1881.77,1396.157z"/>
	
		<path style="fill-rule:evenodd;clip-rule:evenodd;fill:#68984E;stroke:#000000;stroke-width:8.5039;stroke-linecap:round;stroke-linejoin:round;stroke-miterlimit:2.6131;" d="
		M1145.866,1416.814c113.634-120.314,276.74-166.757,485.634-69.314C1471.65,1358.264,1304.3,1381.734,1145.866,1416.814
		L1145.866,1416.814z"/>
	
		<path style="fill-rule:evenodd;clip-rule:evenodd;fill:#68984E;stroke:#000000;stroke-width:8.5039;stroke-linecap:round;stroke-linejoin:round;stroke-miterlimit:2.6131;" d="
		M2020.427,1348.381c-113.546-58.38-223.104-54.898-328.673,10.447c139.754,12.382,278.698,29.732,416.832,52.05
		C2103.308,1373.229,2073.922,1352.397,2020.427,1348.381L2020.427,1348.381z"/>
</g>
<g id="Layer_1">
</g>
</svg>
