<?xml version="1.0" encoding="iso-8859-1"?>
<!-- Generator: Adobe Illustrator 21.1.0, SVG Export Plug-In . SVG Version: 6.00 Build 0)  -->
<svg version="1.1" xmlns="http://www.w3.org/2000/svg" xmlns:xlink="http://www.w3.org/1999/xlink" x="0px" y="0px"
	 viewBox="0 0 2500 2500" style="enable-background:new 0 0 2500 2500;" xml:space="preserve">
<g id="Wide_Eyes">
	<polygon style="fill:#68984E;" points="1449,1046 1461,1046 1574,1084 1828,1134 1866,1166 1876,1181 2007.5,1250.5 2014,1266
		2060,1313 2056,1335 1714,1467 1618,1540 1533,1544 1458,1559 1211,1589 1075,1540 1002,1449 1002,1292 1051,1176 1126,1070
		1290,1046 	"/>
	<path style="fill:#FFFFFF;stroke:#000000;stroke-width:8.5039;" d="M1856.83,1199.624
		c-118.419-20.116-201.968,57.227-256.99,110.299c-55.297-73.394-163.012-143.283-280.433-133.173
		c-227.682,19.609-209.201,287.592-209.201,287.592s64.641,101.313,252.483,91.509c118.129-6.166,203.193-45.925,250.084-74.596
		c50.294,23.979,139.49,64.35,240.453,58.252c162.31-9.804,244.727-79.737,248.875-94.774
		C2118.333,1385.907,2029.961,1229.037,1856.83,1199.624z"/>
	<g>
		<path d="M1535.244,1354.378c-52.56-28.016-124.178-20.04-153.1,30.821c-28.917,50.874-6.805,110.979,51.039,114.066
			c57.838,3.088,117.373-7.707,127.581-49.323C1570.976,1408.326,1564.166,1369.793,1535.244,1354.378z"/>
		<path style="fill:#FFFFFF;" d="M1497.821,1405.239c0,9.374-9.516,16.961-21.266,16.961c-11.74,0-21.261-7.588-21.261-16.961
			c0-9.354,9.521-16.952,21.261-16.952C1488.305,1388.287,1497.821,1395.884,1497.821,1405.239z"/>
		<path style="fill:#FFFFFF;" d="M1439.982,1429.127c0,7.243-7.994,13.112-17.863,13.112c-9.854,0-17.858-5.869-17.858-13.112
			c0-7.229,8.005-13.093,17.858-13.093C1431.988,1416.034,1439.982,1421.898,1439.982,1429.127z"/>
		<path style="fill:#FFFFFF;" d="M1443.385,1367.476c0,3.835-4.95,6.942-11.053,6.942c-6.108,0-11.064-3.107-11.064-6.942
			c0-3.825,4.956-6.932,11.064-6.932C1438.434,1360.544,1443.385,1363.651,1443.385,1367.476z"/>
	</g>
	<g>
		<path d="M1821.288,1348.217c-47.282-19.039-119.085-18.498-142.898,13.874c-23.824,32.372-25.515,86.315-10.208,106.354
			c15.312,20.04,40.826,24.659,78.254,26.206c37.423,1.532,83.363-3.088,96.969-41.62
			C1857.01,1414.492,1851.906,1360.549,1821.288,1348.217z"/>
		<ellipse style="fill:#FFFFFF;" cx="1767.699" cy="1395.999" rx="21.264" ry="16.957"/>
		<path style="fill:#FFFFFF;" d="M1731.125,1419.887c0,7.239-7.994,13.108-17.863,13.108c-9.859,0-17.858-5.869-17.858-13.108
			c0-7.233,7.999-13.098,17.858-13.098C1723.131,1406.79,1731.125,1412.654,1731.125,1419.887z"/>
		<path style="fill:#FFFFFF;" d="M1734.527,1358.232c0,3.834-4.945,6.941-11.058,6.941c-6.102,0-11.053-3.107-11.053-6.941
			c0-3.825,4.951-6.937,11.053-6.937C1729.582,1351.295,1734.527,1354.407,1734.527,1358.232z"/>
	</g>
	<path style="fill:none;stroke:#000000;stroke-width:8.5039;stroke-linecap:round;" d="M1607.956,1491.304
		c0,0,8.115,36.766-40.577,49.022s-259.695,132.359-438.236-7.353"/>
	<path style="fill:none;stroke:#000000;stroke-width:8.5039;stroke-linecap:round;" d="M1110.206,1464.342
		c0,0-72.139,55.557-93.78,29.413c-21.641-26.143,32.462-52.287,43.283-75.165c10.821-22.879-7.215-215.701,162.31-271.258
		c169.524-55.556,270.519,58.826,299.372,58.826c28.853,0,84.763,31.05,78.45,103.765c0,0,56.808,120.104,5.41,171.577"/>
	<path style="fill:none;stroke:#000000;stroke-width:8.5039;stroke-linecap:round;" d="M1871.984,1173.117
		c0,0-184.68-55.193-300.098,49.386"/>
	<path style="fill:none;stroke:#000000;stroke-width:8.5039;stroke-linecap:round;" d="M1450.232,1046
		c0,0,74.767,35.967,114.441,169.963"/>
	<path style="fill:none;stroke:#000000;stroke-width:8.5039;stroke-linecap:round;" d="M1002,1264.985
		c0,0,32.462-150.331,191.165-183.013c158.704-32.683,317.405,39.218,339.046,58.826c0,0,144.277-78.435,270.516-29.413"/>
	<path style="fill:none;stroke:#000000;stroke-width:8.5039;stroke-linecap:round;" d="M1609.757,1258.45
		c0,0,74.579-101.879,230.842-71.9c150.901,28.95,173.901,71.95,173.901,71.95"/>
</g>
<g id="Layer_1">
</g>
</svg>
