<?xml version="1.0" encoding="iso-8859-1"?>
 <svg version="1.1" xmlns="http://www.w3.org/2000/svg" xmlns:xlink="http://www.w3.org/1999/xlink" x="0px" y="0px"
 	 viewBox="0 0 2500 2500" style="enable-background:new 0 0 2500 2500;" xml:space="preserve">
     <g id="Layer-1">
       <polygon style="fill:#68984E;" points="1461,1046 1574,1024 1840,1040 1928,1064 2000,1160 2010,1181 2007.5,1250.5 2014,1266
            2040,1543 2070,1583 2056,1625 1965,1705 1714,1690 1618,1700 1533,1704 1458,1709 1211,1589 1075,1540 1002,1449 1002,1292 1051,1176 1126,1070
           1290,1016"/>
        <path d="M1248.28,1427.38c-1.61,1.207 -39.326,29.744 -42.713,69.574c-2.115,24.932 9.761,48.371 35.312,69.687c1.48,1.249 3.804,0.922 5.173,-0.73c1.366,-1.656 1.261,-4.006 -0.236,-5.252c-23.751,-19.82 -34.844,-41.256 -32.946,-63.721c3.038,-36.117 38.984,-63.381 39.348,-63.646c1.709,-1.283 2.203,-3.629 1.112,-5.25c-1.088,-1.633 -3.347,-1.928 -5.05,-0.662" style="fill-rule:nonzero;"/>
        <path d="M1687.59,1375.69c28.349,-126.933 213.082,-234.482 327.725,-143.955c114.646,90.528 98.754,291.625 6.695,324.391c-92.058,32.764 -385.855,49.869 -334.42,-180.436Z" style="fill:#fff;stroke:#000;stroke-width:14px;"/>
        <path d="M2032.94,1400.21c0,67.978 -48.75,123.167 -108.796,123.167c-60.046,0 -108.796,-55.189 -108.796,-123.167c0,-67.978 48.75,-123.167 108.796,-123.167c60.046,0 108.796,55.189 108.796,123.167Z" style="fill:#2249fc;"/>
        <path d="M1962.77,1226.71c-5.678,5.827 -8.053,10.32 -7.701,14.57c0.418,5.043 4.534,8.062 8.514,10.983c3.229,2.369 6.566,4.818 8.839,8.513c2.413,3.928 3.398,14.387 1.101,22.504c-1.062,3.758 -2.721,6.446 -4.551,7.371c-1.913,0.969 -2.679,3.303 -1.71,5.217c0.967,1.912 3.303,2.68 5.216,1.711c3.872,-1.961 6.816,-6.174 8.516,-12.185c2.724,-9.629 1.845,-22.496 -1.958,-28.682c-3.068,-4.992 -7.389,-8.162 -10.86,-10.709c-2.697,-1.979 -5.244,-3.847 -5.369,-5.364c-0.081,-0.978 0.528,-3.386 5.522,-8.511c1.496,-1.536 1.464,-3.994 -0.07,-5.49c-1.536,-1.496 -3.993,-1.464 -5.489,0.072Z" style="fill:#ff001b;fill-rule:nonzero;"/>
        <path d="M2009.23,1245.71c-1.355,5.312 -5.583,5.7 -14.904,5.325c-7.987,-0.324 -17.929,-0.725 -21.241,9.055c-0.688,2.029 0.403,4.232 2.432,4.922c2.03,0.687 4.232,-0.405 4.92,-2.432c1.313,-3.873 5.145,-4.129 13.576,-3.789c8.308,0.336 19.688,0.797 22.74,-11.161c0.529,-2.077 -0.724,-4.191 -2.801,-4.721c-2.078,-0.531 -4.191,0.723 -4.722,2.801Z" style="fill:#ff001b;fill-rule:nonzero;"/>
        <path d="M1863.09,1499.04c-3.358,5.209 -7.643,9.711 -9.752,10.248c-1.887,0.481 -4.156,-0.242 -6.784,-1.074c-3.312,-1.051 -7.066,-2.24 -11.341,-1.412c-4.68,0.908 -9.631,5.795 -14.418,10.519c-2.112,2.084 -5.211,5.137 -6.599,5.873c-1.569,-0.189 -3.161,0.575 -3.92,2.065c-0.975,1.908 -0.217,4.248 1.692,5.221c4.315,2.203 8.496,-1.922 14.28,-7.633c3.213,-3.17 8.068,-7.963 10.443,-8.422c2.335,-0.453 4.851,0.344 7.516,1.189c3.286,1.043 7.011,2.225 11.047,1.198c6.234,-1.59 12.568,-10.784 14.361,-13.565c1.162,-1.801 0.643,-4.203 -1.159,-5.365c-1.801,-1.162 -4.203,-0.643 -5.366,1.158Z" style="fill:#ff001b;fill-rule:nonzero;"/>
        <path d="M1849.79,1512.21c-1.787,1.808 -2.684,3.64 -3.405,5.113c-0.704,1.44 -1.213,2.479 -2.451,3.594c-0.906,0.816 -2.528,1.342 -4.244,1.9c-2.746,0.889 -6.161,1.996 -8.536,5.008c-2.016,2.559 -2.295,5.311 -2.519,7.524c-0.143,1.406 -0.266,2.619 -0.796,3.558c-0.874,1.547 -2.319,2.688 -3.992,4.006c-1.14,0.9 -2.318,1.828 -3.422,2.977c-1.487,1.542 -1.44,4 0.105,5.488c1.544,1.486 4.001,1.439 5.489,-0.106c0.736,-0.763 1.658,-1.492 2.634,-2.261c2.026,-1.598 4.321,-3.407 5.947,-6.286c1.33,-2.357 1.568,-4.707 1.759,-6.595c0.175,-1.735 0.303,-2.752 0.891,-3.498c0.916,-1.16 2.732,-1.748 4.833,-2.43c2.304,-0.746 4.913,-1.594 7.049,-3.518c2.353,-2.121 3.392,-4.244 4.227,-5.949c0.591,-1.209 1.059,-2.164 1.953,-3.068c1.506,-1.526 1.492,-3.983 -0.033,-5.488c-1.524,-1.508 -3.982,-1.495 -5.489,0.031Z" style="fill:#ff001b;fill-rule:nonzero;"/>
        <path d="M1985.09,1488.81c-2.044,0.644 -3.18,2.824 -2.535,4.869c1.541,4.89 5.311,8.728 8.957,12.441l3.314,3.467c2.189,2.418 2.106,2.861 1.955,3.666c-0.25,1.34 -0.629,3.365 0.469,6.428c2.968,8.273 11.461,9.836 18.955,11.212c3.353,0.618 6.519,1.2 9.08,2.286c1.974,0.838 4.251,-0.086 5.089,-2.059c0.837,-1.973 -0.086,-4.252 -2.058,-5.088c-3.348,-1.42 -7.089,-2.109 -10.707,-2.773c-7.212,-1.326 -11.69,-2.407 -13.049,-6.198c-0.39,-1.084 -0.314,-1.49 -0.148,-2.382c0.611,-3.262 0.182,-5.871 -3.829,-10.301l-3.532,-3.699c-3.143,-3.2 -6.11,-6.221 -7.092,-9.334c-0.643,-2.043 -2.823,-3.18 -4.869,-2.536Z" style="fill:#ff001b;fill-rule:nonzero;"/>
        <path d="M1995.37,1512.53c-1.388,7.641 -6.013,8.075 -15.507,8.27c-3.172,0.064 -6.45,0.133 -9.651,0.703c-6.32,1.123 -26.378,10.297 -26.66,20.074c-0.061,2.131 1.609,3.885 3.74,3.963c2.131,0.076 3.926,-1.607 4.02,-3.738l0,0.004c0.216,-2.922 12.972,-11.363 20.259,-12.66c2.606,-0.463 5.578,-0.524 8.452,-0.584c8.611,-0.178 20.404,-0.422 22.986,-14.645c0.384,-2.109 -1.017,-4.131 -3.126,-4.514c-2.11,-0.382 -4.13,1.018 -4.513,3.127Z" style="fill:#ff001b;fill-rule:nonzero;"/>
        <path d="M2029.03,1496.02c-1.292,1.494 -5.207,0.732 -8.994,-0.004c-6.889,-1.342 -18.419,-3.586 -22.016,10.187c-0.543,2.074 0.7,4.194 2.775,4.737c2.074,0.543 4.194,-0.702 4.736,-2.776c1.612,-6.17 4.676,-6.152 13.022,-4.527c5.68,1.105 12.119,2.357 16.352,-2.543c1.402,-1.621 1.222,-4.072 -0.4,-5.475c-1.622,-1.4 -4.073,-1.22 -5.475,0.401Z" style="fill:#ff001b;fill-rule:nonzero;"/>
        <path d="M2073.75,1413.62c-2.126,0.272 -3.629,2.217 -3.357,4.344c0.092,0.723 -1.427,2.059 -5.031,3.414c-4.587,1.723 -11.019,3.002 -17.83,4.355c-15.058,2.997 -29.282,5.827 -32.185,14.682c-0.667,2.037 0.442,4.229 2.48,4.897c2.037,0.668 4.23,-0.442 4.898,-2.479c1.489,-4.545 16.433,-7.517 26.322,-9.484c15.618,-3.108 30.371,-6.041 29.047,-16.371c-0.273,-2.127 -2.217,-3.631 -4.344,-3.358Z" style="fill:#ff001b;fill-rule:nonzero;"/>
        <path d="M2068.86,1379.95c-2.14,0.114 -3.785,1.942 -3.671,4.082c0.19,3.617 -1.906,6.674 -4.333,10.213c-1.87,2.727 -3.803,5.549 -4.958,8.987c-1.94,5.789 -2.131,11.873 -2.316,17.759c-0.091,2.856 -0.176,5.553 -0.454,8.141c-0.228,2.131 1.314,4.045 3.446,4.275c2.131,0.229 4.045,-1.314 4.274,-3.445c0.309,-2.881 0.403,-5.854 0.493,-8.727c0.168,-5.324 0.341,-10.83 1.919,-15.535c0.807,-2.41 2.358,-4.672 4,-7.064c2.816,-4.11 6.012,-8.766 5.681,-15.014c-0.112,-2.139 -1.939,-3.783 -4.081,-3.672Z" style="fill:#ff001b;fill-rule:nonzero;"/>
        <path d="M1809.39,1346.31c-5.762,0.355 -10.697,2.699 -15.468,4.966c-2.581,1.227 -5.018,2.387 -7.489,3.188c-7.155,2.318 -34.694,3.771 -38.412,0.824c0.084,0.068 0.333,0.348 0.456,0.818c0.537,2.077 -0.71,4.194 -2.785,4.733c-2.076,0.537 -4.193,-0.709 -4.732,-2.785c0.307,1.183 1.158,2.863 3.475,4.132c8.67,4.758 37.664,1.842 44.391,-0.337c2.953,-0.957 5.737,-2.282 8.429,-3.561c4.294,-2.039 8.349,-3.967 12.613,-4.23c2.912,-0.18 5.792,0.673 8.841,1.58c3.443,1.019 7.345,2.177 11.688,1.863c2.138,-0.154 3.747,-2.012 3.592,-4.15c-0.154,-2.139 -2.012,-3.747 -4.151,-3.592c-2.933,0.211 -5.841,-0.653 -8.921,-1.567c-3.396,-1.006 -7.244,-2.148 -11.527,-1.882Z" style="fill:#ff001b;fill-rule:nonzero;"/>
        <path d="M1771.86,1326.2c0.658,0.504 0.772,0.602 0.926,1.049c0.512,1.48 0.642,3.017 0.791,4.799c0.134,1.588 0.285,3.388 0.759,5.275c1.72,6.863 6.019,18.606 15.477,20.137c2.117,0.342 4.11,-1.096 4.453,-3.211c0.033,-0.211 0.049,-0.42 0.049,-0.625c0,-1.871 -1.355,-3.52 -3.261,-3.828c-3.647,-0.59 -7.081,-5.959 -9.188,-14.362c-0.32,-1.275 -0.433,-2.617 -0.553,-4.039c-0.17,-2.007 -0.36,-4.283 -1.188,-6.679c-0.921,-2.668 -2.561,-3.924 -3.539,-4.676c0,0 -0.244,-0.197 -0.377,-0.305c-0.007,-0.07 -0.015,-0.16 -0.015,-0.299c0,-0.052 0.001,-0.111 0.003,-0.175c-0.005,0.14 -0.072,0.255 -0.092,0.39l-0.006,-0.006c0.001,0.002 0.003,0.008 0.005,0.012c-0.277,1.94 -1.922,3.416 -3.924,3.346c-2.143,-0.076 -3.818,-1.875 -3.742,-4.018c-0.159,4.469 2.17,6.254 3.422,7.215Z" style="fill:#ff001b;fill-rule:nonzero;"/>
        <path d="M1845.2,1236.98c-2.018,0.723 -3.067,2.945 -2.343,4.963c1.273,3.553 1.155,8.704 -0.361,15.75c-0.333,1.547 -1.584,3.922 -2.794,6.219c-2.247,4.27 -4.571,8.684 -3.94,12.692c0.935,5.951 6.354,9.443 11.595,12.822c5.329,3.432 10.359,6.674 10.969,11.894c0.243,2.082 2.113,3.594 4.201,3.416c-0.588,0.049 -1.476,-0.318 -2.058,-0.923c-0.309,-0.592 -0.499,-1.231 -0.499,-1.877c0,-1.241 0.556,-2.463 1.626,-3.2c1.029,-0.709 2.249,-0.875 3.333,-0.552c0.58,0.593 1.005,1.349 1.108,2.234c-0.08,-0.691 -0.264,-1.316 -0.421,-1.959c0.482,0.258 0.917,0.623 1.265,1.107l0.015,0.022l-0.062,-0.1c-0.37,-0.605 -0.82,-1.062 -1.308,-1.449c-1.973,-7.349 -8.543,-11.646 -13.961,-15.139c-3.98,-2.564 -7.739,-4.986 -8.134,-7.501c-0.012,-0.079 -0.018,-0.163 -0.018,-0.252c0,-1.618 1.887,-5.202 3.159,-7.618c1.521,-2.888 2.957,-5.615 3.514,-8.203c0.686,-3.189 1.411,-7.26 1.411,-11.414c0,-2.913 -0.356,-5.867 -1.332,-8.588c-0.724,-2.018 -2.946,-3.068 -4.965,-2.344Z" style="fill:#ff001b;fill-rule:nonzero;"/>
        <path d="M1815.17,1270.63c-0.584,2.062 0.619,4.209 2.682,4.793l1.989,0.564c6.26,1.776 14.052,3.987 20.161,4.729c2.128,0.258 4.062,-1.258 4.321,-3.385c0.259,-2.127 -1.257,-4.062 -3.384,-4.322c-5.509,-0.67 -12.978,-2.789 -18.98,-4.49l-2.001,-0.569c-2.063,-0.584 -4.204,0.617 -4.788,2.68Z" style="fill:#ff001b;fill-rule:nonzero;"/>
        <path d="M1891.24,1241.7c-2.72,6.404 -10.252,11.767 -17.537,16.95c-9.622,6.846 -19.572,13.926 -20.706,24.705c-0.224,2.131 1.323,4.041 3.455,4.266c2.132,0.225 4.042,-1.322 4.267,-3.455c0.767,-7.295 8.887,-13.072 17.485,-19.191c8.163,-5.809 16.606,-11.817 20.182,-20.24c0.839,-1.974 -0.081,-4.251 -2.056,-5.09c-1.973,-0.838 -4.25,0.081 -5.09,2.055Z" style="fill:#ff001b;fill-rule:nonzero;"/>
        <path d="M1909.05,1262.19l0,14.664c0,2.145 1.737,3.883 3.882,3.883c2.143,0 3.882,-1.738 3.882,-3.883l0,-14.664c0,-2.144 -1.739,-3.882 -3.882,-3.882c-2.145,0 -3.882,1.738 -3.882,3.882Z" style="fill:#ff001b;fill-rule:nonzero;"/>
        <path d="M1780.85,1441.58c-4.36,2.273 -8.48,4.73 -10.973,9.768c-1.285,2.595 -1.084,5.419 -0.923,7.687c0.071,0.996 0.178,2.502 -0.007,2.941c-1.683,2.961 -7.895,3.633 -13.903,4.286c-4.811,0.521 -9.784,1.06 -13.7,2.892c-1.942,0.91 -2.78,3.221 -1.871,5.162c0.909,1.942 3.219,2.78 5.161,1.871c2.747,-1.285 7.068,-1.754 11.246,-2.207c7.95,-0.861 16.171,-1.754 19.83,-8.193c1.34,-2.357 1.153,-4.984 0.988,-7.303c-0.099,-1.4 -0.213,-2.986 0.137,-3.693c1.463,-2.955 4.075,-4.486 7.604,-6.326c7.374,-3.844 13.729,-2.791 21.087,-1.569c6.108,1.014 12.423,2.061 19.533,0.202c2.074,-0.543 3.314,-2.665 2.772,-4.739c-0.543,-2.074 -2.665,-3.316 -4.738,-2.773c-5.506,1.441 -10.747,0.572 -16.295,-0.35c-7.627,-1.265 -16.273,-2.699 -25.948,2.344Z" style="fill:#ff001b;fill-rule:nonzero;"/>
        <path d="M1744.75,1409.59c-1.016,1.887 -0.309,4.242 1.579,5.258c5.102,2.744 10.192,2.83 14.682,2.906c4.707,0.078 8.771,0.146 12.62,3.01c5.026,3.736 9.741,8.904 14.301,13.902c2.448,2.684 4.979,5.459 7.54,7.99c-1.526,-1.508 -1.539,-3.965 -0.032,-5.49c1.508,-1.525 3.965,-1.539 5.491,-0.031c-2.418,-2.391 -4.772,-4.971 -7.263,-7.701c-4.808,-5.27 -9.779,-10.719 -15.403,-14.901c-5.855,-4.353 -11.841,-4.453 -17.123,-4.543c-4.129,-0.068 -7.694,-0.129 -11.133,-1.98c-1.888,-1.016 -4.242,-0.309 -5.259,1.58Z" style="fill:#ff001b;fill-rule:nonzero;"/>
        <path d="M2029.01,1297.74c-0.857,4.748 -2.483,6.526 -5.434,9.754l-2.065,2.297c-2.701,3.098 -5.018,6.44 -7.26,9.672c-2.284,3.293 -4.442,6.404 -6.946,9.236c-0.765,0.866 -1.644,1.612 -2.576,2.403c-2.565,2.177 -5.757,4.888 -5.969,10.306c-0.084,2.143 1.585,3.948 3.726,4.032c2.143,0.084 3.947,-1.586 4.031,-3.729c0.073,-1.853 0.85,-2.664 3.238,-4.691c1.046,-0.889 2.233,-1.897 3.366,-3.178c2.807,-3.174 5.197,-6.621 7.51,-9.955c2.219,-3.199 4.314,-6.221 6.732,-8.996l1.942,-2.158c3.268,-3.573 6.09,-6.659 7.345,-13.614c0.381,-2.109 -1.021,-4.129 -3.132,-4.51c-2.109,-0.38 -4.127,1.02 -4.508,3.131Z" style="fill:#ff001b;fill-rule:nonzero;"/>
        <path d="M2016,1317c-2.129,0.246 -3.655,2.172 -3.409,4.303c0.246,2.129 2.173,3.654 4.303,3.408c2.481,-0.287 9.506,2.492 15.153,4.727c11.094,4.386 22.565,8.923 29.6,5.529c2.491,-1.203 4.253,-3.307 5.095,-6.084c0.623,-2.051 -0.535,-4.219 -2.587,-4.84c-2.05,-0.623 -4.218,0.535 -4.84,2.586c-0.249,0.818 -0.598,1.131 -1.044,1.346c-3.969,1.916 -15.644,-2.702 -23.369,-5.758c-8.98,-3.551 -14.697,-5.703 -18.902,-5.217Z" style="fill:#ff001b;fill-rule:nonzero;"/>
        <path d="M1935.38,1341.16l4.89,-56.215c-5.254,-0.935 -10.64,-1.425 -16.127,-1.425c-1.681,0 -3.352,0.048 -5.013,0.14l4.952,62.949l11.298,-5.449Z" style="fill:#ff001b;fill-rule:nonzero;"/>
        <path d="M1925.23,1454.68l-1.959,62.22c0.29,0.002 0.581,0.012 0.873,0.012c6.862,0 13.567,-0.765 20.055,-2.213l-7.428,-55.156l-11.541,-4.863Z" style="fill:#ff001b;fill-rule:nonzero;"/>
        <path d="M1896.83,1355.07l-35.07,-47.746l-2.828,2.516c-4.445,4.115 -8.578,8.642 -12.359,13.529l45.49,43.711l4.767,-12.01Z" style="fill:#ff001b;fill-rule:nonzero;"/>
        <path d="M1963.04,1445.69l32.227,38.991c4.435,-4.788 8.488,-10.022 12.114,-15.633l-32.703,-27.961l-11.638,4.603Z" style="fill:#ff001b;fill-rule:nonzero;"/>
        <path d="M1874.78,1397.75l-53.539,-4.373c-0.115,2.262 -0.18,4.539 -0.18,6.832c0,5.101 0.291,10.125 0.851,15.053l58.225,-5.776l-5.357,-11.736Z" style="fill:#ff001b;fill-rule:nonzero;"/>
        <path d="M2026.72,1388.59l-38.669,6.209l-4.507,12.119l43.459,0.918c0.143,-2.522 0.225,-5.063 0.225,-7.627c0,-3.92 -0.174,-7.797 -0.508,-11.619Z" style="fill:#ff001b;fill-rule:nonzero;"/>
        <path d="M1891.32,1442.86l-40.369,39.52c4.827,5.512 10.137,10.48 15.851,14.82l36.425,-50.56l-11.907,-3.78Z" style="fill:#ff001b;fill-rule:nonzero;"/>
        <path d="M1971.13,1365.11l33.892,-37.248c-3.951,-5.654 -8.355,-10.882 -13.151,-15.619l-26.268,41.219l5.527,11.648Z" style="fill:#ff001b;fill-rule:nonzero;"/>
        <path d="M1913.11,1344.4l-17.057,-56.496c-6.894,2.205 -13.492,5.207 -19.718,8.905l28.364,57.173l8.411,-9.582Z" style="fill:#ff001b;fill-rule:nonzero;"/>
        <path d="M1945.68,1453.22l19.648,53.996c6.12,-3.022 11.93,-6.697 17.361,-10.949l-24.568,-43.215l-12.441,0.168Z" style="fill:#ff001b;fill-rule:nonzero;"/>
        <path d="M1878.11,1421.05l-51.299,17.658c2.184,7.084 4.955,13.853 8.246,20.238l52.332,-29.23l-9.279,-8.666Z" style="fill:#ff001b;fill-rule:nonzero;"/>
        <path d="M1981.83,1385.65l41.541,-17.136c-1.606,-6.455 -3.691,-12.686 -6.207,-18.635l-35.653,22.773l0.319,12.998Z" style="fill:#ff001b;fill-rule:nonzero;"/>
        <path d="M1887.19,1509.18c6.519,2.836 13.356,4.943 20.434,6.234l14.783,-60.738l-12.38,1.316l-22.837,53.188Z" style="fill:#ff001b;fill-rule:nonzero;"/>
        <path d="M1974.51,1298.38c-5.952,-3.781 -12.27,-6.912 -18.878,-9.309l-10.098,54.492l9.402,8.518l19.574,-53.701Z" style="fill:#ff001b;fill-rule:nonzero;"/>
        <path d="M1882.68,1372.79l-48.713,-29.141c-3.208,6.542 -5.877,13.467 -7.94,20.704l56.691,21.439l-0.038,-13.002Z" style="fill:#ff001b;fill-rule:nonzero;"/>
        <path d="M1977.24,1429.68l39.957,20.796c2.458,-5.822 4.505,-11.91 6.093,-18.216l-37.014,-11.522l-9.036,8.942Z" style="fill:#ff001b;fill-rule:nonzero;"/>
        <path d="M2000.05,1400.21c0,38.534 -27.635,69.819 -61.674,69.819c-34.039,0 -61.674,-31.285 -61.674,-69.819c0,-38.534 27.635,-69.819 61.674,-69.819c34.039,0 61.674,31.285 61.674,69.819Z"/>
        <path d="M1974.73,1369.81c0,9.775 -7.01,17.711 -15.645,17.711c-8.634,0 -15.644,-7.936 -15.644,-17.711c0,-9.775 7.01,-17.711 15.644,-17.711c8.635,0 15.645,7.936 15.645,17.711Z" style="fill:#fff;"/>
        <path d="M1299.71,1405c22.546,-147.709 216.8,-284 347.697,-188c130.898,96 126.807,328 28.634,372c-98.174,44 -417.235,84 -376.331,-184Z" style="fill:#fff;stroke:#000;stroke-width:14px;"/>
        <path d="M1229.44,1306.83c0,0 144.015,-219.022 291.03,-201.02c147.014,18.002 171.016,132.013 171.016,152.013" style="fill:none;stroke:#000;stroke-width:9px;"/>
        <path d="M1681.49,1208.82c0,0 54.005,-126.013 297.024,-65.008" style="fill:none;stroke:#000;stroke-width:9px;"/>
        <path d="M1449.47,1043.8c0,0 191.009,12.004 151.011,86.01" style="fill:none;stroke:#000;stroke-width:9px;"/>
        <path d="M1895.47,1053.8c0,0 81.009,42.004 101.011,106.01" style="fill:none;stroke:#000;stroke-width:9px;"/>
        <path d="M1944.47,1138.0c0,0 91.009,02.004 55.011,80.01" style="fill:none;stroke:#000;stroke-width:9px;"/>
        <path d="M1259.44,1207.82c0,0 81.009,-192.019 321.033,-130.012" style="fill:none;stroke:#000;stroke-width:9px;"/>
        <path d="M1605.48,1114.81c0,0 64.008,-108.01 294.024,-60.0" style="fill:none;stroke:#000;stroke-width:9px;"/>
        <path d="M2035.47,1553.8c0,0 101.009,32.004 -70.0,146.01" style="fill:none;stroke:#000;stroke-width:9px;"/>
        <path d="M1529.63,1675c0,0 120,-44 160,-96" style="fill:none;stroke:#000;stroke-width:9px;"/>
        <path d="M1837.63,1579c0,0 112,44 156,52" style="fill:none;stroke:#000;stroke-width:9px;"/>
        <path d="M1672.76,1417c0,78.803 -56.514,142.781 -126.123,142.781c-69.609,0 -126.123,-63.978 -126.123,-142.781c0,-78.803 56.514,-142.781 126.123,-142.781c69.609,0 126.123,63.978 126.123,142.781Z" style="fill:#2249fc;"/>
        <path d="M1591.41,1215.86c-6.582,6.755 -9.335,11.965 -8.927,16.891c0.486,5.846 5.256,9.346 9.871,12.731c3.742,2.746 7.612,5.585 10.246,9.871c2.798,4.552 3.939,16.677 1.277,26.087c-1.231,4.358 -3.155,7.471 -5.276,8.545c-2.218,1.123 -3.106,3.83 -1.983,6.047c1.122,2.219 3.829,3.106 6.047,1.983c4.488,-2.272 7.901,-7.155 9.872,-14.125c3.157,-11.162 2.139,-26.078 -2.269,-33.25c-3.557,-5.786 -8.566,-9.461 -12.59,-12.414c-3.126,-2.293 -6.079,-4.46 -6.225,-6.218c-0.094,-1.134 0.612,-3.924 6.403,-9.867c1.734,-1.78 1.697,-4.629 -0.083,-6.364c-1.78,-1.734 -4.628,-1.697 -6.363,0.083Z" style="fill:#ff001b;fill-rule:nonzero;"/>
        <path d="M1645.27,1237.89c-1.572,6.157 -6.472,6.609 -17.278,6.172c-9.26,-0.374 -20.784,-0.84 -24.624,10.498c-0.798,2.353 0.467,4.906 2.819,5.705c2.353,0.797 4.906,-0.467 5.705,-2.819c1.521,-4.49 5.963,-4.787 15.737,-4.392c9.632,0.39 22.823,0.924 26.361,-12.939c0.614,-2.407 -0.839,-4.858 -3.247,-5.473c-2.408,-0.614 -4.858,0.84 -5.473,3.248Z" style="fill:#ff001b;fill-rule:nonzero;"/>
        <path d="M1475.85,1531.56c-3.894,6.039 -8.86,11.255 -11.306,11.878c-2.187,0.557 -4.818,-0.279 -7.864,-1.244c-3.839,-1.216 -8.191,-2.597 -13.147,-1.636c-5.426,1.05 -11.165,6.716 -16.715,12.195c-2.448,2.416 -6.041,5.953 -7.649,6.807c-1.819,-0.219 -3.664,0.666 -4.545,2.392c-1.13,2.215 -0.251,4.926 1.962,6.055c5.003,2.553 9.849,-2.231 16.555,-8.85c3.724,-3.676 9.351,-9.23 12.105,-9.763c2.706,-0.526 5.624,0.4 8.713,1.378c3.81,1.209 8.128,2.579 12.807,1.389c7.226,-1.842 14.569,-12.5 16.648,-15.725c1.347,-2.087 0.745,-4.873 -1.344,-6.22c-2.088,-1.346 -4.873,-0.744 -6.22,1.344Z" style="fill:#ff001b;fill-rule:nonzero;"/>
        <path d="M1460.43,1546.84c-2.073,2.098 -3.113,4.221 -3.948,5.928c-0.816,1.668 -1.406,2.873 -2.841,4.168c-1.05,0.945 -2.931,1.554 -4.921,2.201c-3.182,1.031 -7.141,2.314 -9.894,5.806c-2.338,2.965 -2.661,6.157 -2.921,8.721c-0.165,1.629 -0.307,3.037 -0.923,4.127c-1.012,1.793 -2.688,3.113 -4.628,4.643c-1.321,1.043 -2.686,2.119 -3.966,3.449c-1.724,1.791 -1.669,4.639 0.122,6.363c1.79,1.723 4.638,1.668 6.362,-0.123c0.854,-0.885 1.923,-1.728 3.055,-2.621c2.347,-1.852 5.008,-3.949 6.892,-7.285c1.543,-2.733 1.819,-5.457 2.04,-7.647c0.203,-2.011 0.352,-3.191 1.034,-4.054c1.061,-1.346 3.166,-2.028 5.602,-2.819c2.67,-0.865 5.695,-1.845 8.171,-4.076c2.729,-2.461 3.933,-4.92 4.9,-6.896c0.686,-1.403 1.228,-2.51 2.264,-3.559c1.747,-1.767 1.731,-4.615 -0.037,-6.363c-1.768,-1.746 -4.616,-1.731 -6.363,0.037Z" style="fill:#ff001b;fill-rule:nonzero;"/>
        <path d="M1617.28,1519.71c-2.37,0.748 -3.686,3.273 -2.939,5.645c1.786,5.669 6.157,10.119 10.384,14.421l3.841,4.02c2.538,2.805 2.441,3.318 2.267,4.25c-0.29,1.555 -0.728,3.902 0.544,7.453c3.439,9.59 13.285,11.4 21.973,12.998c3.886,0.715 7.557,1.389 10.526,2.649c2.288,0.97 4.929,-0.1 5.899,-2.387c0.971,-2.287 -0.099,-4.928 -2.385,-5.899c-3.881,-1.646 -8.218,-2.443 -12.413,-3.214c-8.361,-1.538 -13.551,-2.789 -15.127,-7.186c-0.452,-1.256 -0.364,-1.727 -0.17,-2.76c0.707,-3.783 0.21,-6.806 -4.44,-11.943l-4.094,-4.287c-3.643,-3.709 -7.084,-7.211 -8.221,-10.821c-0.747,-2.369 -3.274,-3.685 -5.645,-2.939Z" style="fill:#ff001b;fill-rule:nonzero;"/>
        <path d="M1629.2,1547.19c-1.608,8.858 -6.971,9.362 -17.976,9.588c-3.677,0.076 -7.478,0.155 -11.189,0.815c-7.326,1.302 -30.578,11.937 -30.905,23.271c-0.071,2.471 1.865,4.504 4.335,4.594c2.47,0.09 4.552,-1.863 4.661,-4.334l0,0.004c0.25,-3.387 15.037,-13.172 23.485,-14.674c3.021,-0.537 6.466,-0.609 9.798,-0.678c9.982,-0.207 23.652,-0.488 26.647,-16.978c0.444,-2.446 -1.179,-4.787 -3.624,-5.231c-2.446,-0.445 -4.788,1.178 -5.232,3.623Z" style="fill:#ff001b;fill-rule:nonzero;"/>
        <path d="M1668.23,1528.06c-1.497,1.732 -6.037,0.849 -10.426,-0.006c-7.987,-1.555 -21.353,-4.157 -25.523,11.81c-0.629,2.405 0.812,4.862 3.217,5.491c2.404,0.628 4.862,-0.813 5.49,-3.217c1.87,-7.153 5.421,-7.133 15.096,-5.25c6.585,1.283 14.049,2.734 18.956,-2.946c1.625,-1.88 1.417,-4.722 -0.464,-6.347c-1.88,-1.625 -4.721,-1.416 -6.346,0.465Z" style="fill:#ff001b;fill-rule:nonzero;"/>
        <path d="M1720.06,1432.54c-2.465,0.317 -4.207,2.57 -3.892,5.037c0.107,0.838 -1.654,2.387 -5.832,3.957c-5.317,1.998 -12.774,3.481 -20.669,5.051c-17.457,3.473 -33.946,6.752 -37.312,17.018c-0.773,2.361 0.513,4.904 2.875,5.677c2.362,0.774 4.904,-0.511 5.678,-2.875c1.727,-5.267 19.051,-8.713 30.515,-10.994c18.105,-3.601 35.207,-7.002 33.673,-18.978c-0.317,-2.465 -2.571,-4.207 -5.036,-3.893Z" style="fill:#ff001b;fill-rule:nonzero;"/>
        <path d="M1714.39,1393.51c-2.482,0.131 -4.388,2.248 -4.257,4.73c0.221,4.194 -2.208,7.737 -5.022,11.84c-2.168,3.162 -4.41,6.432 -5.747,10.418c-2.25,6.709 -2.472,13.764 -2.686,20.586c-0.105,3.313 -0.203,6.44 -0.526,9.44c-0.264,2.47 1.524,4.689 3.994,4.955c2.471,0.263 4.69,-1.524 4.955,-3.995c0.359,-3.337 0.467,-6.785 0.572,-10.117c0.194,-6.172 0.395,-12.552 2.224,-18.008c0.937,-2.794 2.734,-5.416 4.637,-8.189c3.266,-4.764 6.969,-10.162 6.587,-17.404c-0.131,-2.481 -2.249,-4.387 -4.731,-4.256Z" style="fill:#ff001b;fill-rule:nonzero;"/>
        <path d="M1437.31,1358.51c-3.4,0.244 -6.772,-0.756 -10.342,-1.815c-3.937,-1.168 -8.399,-2.492 -13.363,-2.185c-6.68,0.412 -12.4,3.131 -17.931,5.759c-2.992,1.422 -5.817,2.766 -8.683,3.694c-6.592,2.137 -28.106,3.637 -38.823,2.447c-1.049,2.972 -2.053,5.824 -2.068,8.733c13.933,2.054 37.328,-0.564 43.667,-2.618c3.423,-1.111 6.649,-2.644 9.77,-4.127c4.978,-2.365 9.679,-4.599 14.622,-4.906c3.376,-0.207 6.715,0.783 10.249,1.832c3.991,1.184 8.515,2.526 13.55,2.162c2.479,-0.179 4.343,-2.334 4.164,-4.812c-0.179,-2.479 -2.333,-4.344 -4.812,-4.164Z" style="fill:#ff001b;fill-rule:nonzero;"/>
        <path d="M1392.68,1360.22c-4.227,-0.684 -8.208,-6.909 -10.651,-16.649c-0.371,-1.478 -0.502,-3.034 -0.64,-4.681c-0.197,-2.329 -0.418,-4.967 -1.378,-7.746c-0.117,-0.336 -0.246,-0.646 -0.38,-0.945c-3.415,-0.382 -6.452,0.988 -9.111,2.736c0.678,0.521 0.812,0.65 0.984,1.148c0.593,1.716 0.743,3.498 0.916,5.561c0.155,1.842 0.331,3.93 0.88,6.117c1.994,7.956 6.978,21.568 17.942,23.343c2.453,0.397 4.764,-1.269 5.161,-3.723c0.039,-0.243 0.059,-0.486 0.059,-0.725c0,-2.168 -1.572,-4.078 -3.782,-4.436Z" style="fill:#ff001b;fill-rule:nonzero;"/>
        <path d="M1455.11,1227.76c-2.34,0.838 -3.556,3.415 -2.717,5.754c1.476,4.118 1.339,10.09 -0.418,18.257c-0.386,1.793 -1.836,4.547 -3.239,7.211c-2.605,4.95 -5.3,10.067 -4.568,14.713c1.085,6.899 7.367,10.947 13.443,14.863c6.176,3.979 12.008,7.737 12.715,13.79c0.282,2.412 2.449,4.166 4.87,3.959c-0.682,0.058 -1.712,-0.368 -2.386,-1.071c-0.358,-0.685 -0.579,-1.426 -0.579,-2.176c0,-1.439 0.646,-2.855 1.886,-3.709c1.193,-0.822 2.607,-1.013 3.863,-0.64c0.673,0.687 1.165,1.564 1.286,2.592c-0.094,-0.803 -0.308,-1.528 -0.489,-2.274c0.558,0.301 1.064,0.723 1.466,1.285l0.018,0.026l-0.073,-0.115c-0.428,-0.704 -0.95,-1.233 -1.515,-1.682c-2.288,-8.52 -9.904,-13.502 -16.186,-17.551c-4.613,-2.973 -8.969,-5.779 -9.428,-8.695c-0.014,-0.09 -0.021,-0.188 -0.021,-0.291c0,-1.875 2.188,-6.031 3.662,-8.83c1.763,-3.35 3.428,-6.512 4.073,-9.512c0.795,-3.696 1.636,-8.415 1.636,-13.231c0,-3.377 -0.413,-6.802 -1.544,-9.956c-0.839,-2.339 -3.415,-3.556 -5.755,-2.717Z" style="fill:#ff001b;fill-rule:nonzero;"/>
        <path d="M1420.3,1266.77c-0.677,2.391 0.719,4.881 3.109,5.557l2.306,0.654c7.257,2.059 16.29,4.621 23.372,5.483c2.467,0.299 4.71,-1.457 5.01,-3.924c0.299,-2.467 -1.457,-4.711 -3.924,-5.01c-6.386,-0.777 -15.045,-3.234 -22.002,-5.207l-2.32,-0.658c-2.392,-0.678 -4.873,0.715 -5.551,3.105Z" style="fill:#ff001b;fill-rule:nonzero;"/>
        <path d="M1508.49,1233.24c-3.153,7.424 -11.885,13.639 -20.331,19.648c-11.154,7.937 -22.688,16.146 -24.003,28.64c-0.259,2.471 1.533,4.686 4.005,4.946c2.472,0.259 4.686,-1.534 4.946,-4.004c0.89,-8.457 10.303,-15.157 20.27,-22.248c9.464,-6.735 19.25,-13.699 23.396,-23.465c0.972,-2.287 -0.093,-4.927 -2.382,-5.901c-2.287,-0.971 -4.928,0.095 -5.901,2.384Z" style="fill:#ff001b;fill-rule:nonzero;"/>
        <path d="M1529.13,1257l0,17c0,2.484 2.015,4.5 4.5,4.5c2.485,0 4.5,-2.016 4.5,-4.5l0,-17c0,-2.486 -2.015,-4.5 -4.5,-4.5c-2.485,0 -4.5,2.014 -4.5,4.5Z" style="fill:#ff001b;fill-rule:nonzero;"/>
        <path d="M1380.52,1464.96c-5.054,2.635 -9.832,5.484 -12.721,11.324c-1.49,3.01 -1.257,6.281 -1.07,8.912c0.082,1.155 0.207,2.899 -0.008,3.409c-1.952,3.431 -9.153,4.212 -16.118,4.968c-5.576,0.604 -11.341,1.229 -15.881,3.354c-2.251,1.053 -3.222,3.732 -2.169,5.982c1.053,2.252 3.732,3.223 5.983,2.17c3.184,-1.49 8.193,-2.033 13.037,-2.558c9.216,-1 18.746,-2.034 22.988,-9.498c1.553,-2.733 1.336,-5.78 1.145,-8.467c-0.115,-1.621 -0.246,-3.461 0.159,-4.28c1.696,-3.427 4.724,-5.203 8.816,-7.336c8.547,-4.455 15.915,-3.234 24.445,-1.818c7.08,1.176 14.401,2.391 22.643,0.235c2.404,-0.629 3.842,-3.09 3.213,-5.495c-0.629,-2.404 -3.088,-3.841 -5.493,-3.213c-6.383,1.67 -12.458,0.663 -18.889,-0.406c-8.842,-1.467 -18.865,-3.129 -30.08,2.717Z" style="fill:#ff001b;fill-rule:nonzero;"/>
        <path d="M1338.67,1427.87c-1.178,2.188 -0.358,4.918 1.83,6.096c5.914,3.182 11.814,3.281 17.02,3.369c5.457,0.092 10.169,0.17 14.63,3.488c5.827,4.332 11.292,10.325 16.579,16.118c2.837,3.111 5.772,6.328 8.74,9.261c-1.768,-1.748 -1.783,-4.595 -0.036,-6.363c1.748,-1.768 4.596,-1.783 6.364,-0.037c-2.803,-2.772 -5.531,-5.762 -8.419,-8.926c-5.573,-6.109 -11.337,-12.426 -17.856,-17.275c-6.787,-5.045 -13.727,-5.162 -19.85,-5.266c-4.786,-0.08 -8.919,-0.148 -12.906,-2.295c-2.189,-1.178 -4.918,-0.359 -6.096,1.83Z" style="fill:#ff001b;fill-rule:nonzero;"/>
        <path d="M1668.2,1298.2c-0.993,5.504 -2.878,7.565 -6.299,11.307l-2.394,2.662c-3.13,3.592 -5.817,7.467 -8.415,11.213c-2.649,3.818 -5.15,7.424 -8.053,10.707c-0.887,1.002 -1.906,1.869 -2.986,2.785c-2.974,2.525 -6.675,5.668 -6.92,11.949c-0.098,2.483 1.837,4.574 4.32,4.672c2.483,0.098 4.575,-1.838 4.672,-4.32c0.085,-2.151 0.986,-3.09 3.754,-5.44c1.213,-1.031 2.589,-2.199 3.902,-3.683c3.254,-3.68 6.026,-7.676 8.706,-11.541c2.573,-3.709 5.001,-7.211 7.805,-10.428l2.25,-2.502c3.789,-4.143 7.06,-7.721 8.516,-15.783c0.441,-2.445 -1.184,-4.787 -3.63,-5.229c-2.446,-0.441 -4.786,1.184 -5.228,3.631Z" style="fill:#ff001b;fill-rule:nonzero;"/>
        <path d="M1653.11,1320.53c-2.468,0.285 -4.238,2.52 -3.952,4.989c0.285,2.468 2.519,4.238 4.987,3.951c2.877,-0.332 11.022,2.89 17.567,5.478c12.86,5.088 26.159,10.348 34.313,6.41c2.889,-1.394 4.932,-3.832 5.909,-7.05c0.721,-2.379 -0.622,-4.891 -3,-5.614c-2.377,-0.72 -4.89,0.621 -5.612,3c-0.288,0.95 -0.692,1.309 -1.21,1.559c-4.6,2.223 -18.135,-3.131 -27.09,-6.674c-10.41,-4.117 -17.038,-6.613 -21.912,-6.049Z" style="fill:#ff001b;fill-rule:nonzero;"/>
        <path d="M1559.66,1348.54l5.67,-65.168c-6.092,-1.084 -12.336,-1.652 -18.697,-1.652c-1.948,0 -3.885,0.056 -5.811,0.16l5.74,72.977l13.098,-6.317Z" style="fill:#ff001b;fill-rule:nonzero;"/>
        <path d="M1547.89,1480.14l-2.272,72.129c0.337,0.004 0.673,0.015 1.011,0.015c7.956,0 15.728,-0.888 23.25,-2.568l-8.611,-63.94l-13.378,-5.636Z" style="fill:#ff001b;fill-rule:nonzero;"/>
        <path d="M1514.96,1364.67l-40.655,-55.35l-3.28,2.916c-5.151,4.772 -9.943,10.02 -14.326,15.686l52.734,50.67l5.527,-13.922Z" style="fill:#ff001b;fill-rule:nonzero;"/>
        <path d="M1591.72,1469.72l37.359,45.199c5.142,-5.551 9.84,-11.619 14.044,-18.125l-37.912,-32.412l-13.491,5.338Z" style="fill:#ff001b;fill-rule:nonzero;"/>
        <path d="M1489.41,1414.15l-62.065,-5.068c-0.134,2.621 -0.209,5.26 -0.209,7.92c0,5.914 0.337,11.736 0.987,17.449l67.497,-6.695l-6.21,-13.606Z" style="fill:#ff001b;fill-rule:nonzero;"/>
        <path d="M1665.54,1403.53l-44.827,7.196l-5.225,14.05l50.38,1.065c0.167,-2.924 0.261,-5.869 0.261,-8.842c0,-4.545 -0.202,-9.039 -0.589,-13.469Z" style="fill:#ff001b;fill-rule:nonzero;"/>
        <path d="M1508.58,1466.43l-46.798,45.814c5.596,6.389 11.75,12.149 18.374,17.18l42.226,-58.614l-13.802,-4.38Z" style="fill:#ff001b;fill-rule:nonzero;"/>
        <path d="M1601.1,1376.3l39.291,-43.182c-4.581,-6.555 -9.687,-12.615 -15.246,-18.105l-30.453,47.783l6.408,13.504Z" style="fill:#ff001b;fill-rule:nonzero;"/>
        <path d="M1533.84,1352.3l-19.774,-65.492c-7.992,2.556 -15.64,6.037 -22.858,10.322l32.882,66.279l9.75,-11.109Z" style="fill:#ff001b;fill-rule:nonzero;"/>
        <path d="M1571.6,1478.44l22.778,62.596c7.095,-3.504 13.829,-7.766 20.126,-12.693l-28.481,-50.098l-14.423,0.195Z" style="fill:#ff001b;fill-rule:nonzero;"/>
        <path d="M1493.27,1441.15l-59.47,20.471c2.533,8.211 5.744,16.059 9.559,23.461l60.666,-33.887l-10.755,-10.045Z" style="fill:#ff001b;fill-rule:nonzero;"/>
        <path d="M1613.51,1400.11l48.157,-19.865c-1.862,-7.484 -4.279,-14.705 -7.196,-21.603l-41.331,26.4l0.37,15.068Z" style="fill:#ff001b;fill-rule:nonzero;"/>
        <path d="M1503.79,1543.32c7.557,3.288 15.481,5.729 23.688,7.227l17.136,-70.41l-14.35,1.523l-26.474,61.66Z" style="fill:#ff001b;fill-rule:nonzero;"/>
        <path d="M1605.02,1298.95c-6.901,-4.385 -14.224,-8.013 -21.885,-10.793l-11.705,63.17l10.898,9.875l22.692,-62.252Z" style="fill:#ff001b;fill-rule:nonzero;"/>
        <path d="M1498.57,1385.2l-56.471,-33.783c-3.719,7.584 -6.813,15.613 -9.203,24l65.718,24.855l-0.044,-15.072Z" style="fill:#ff001b;fill-rule:nonzero;"/>
        <path d="M1608.18,1451.16l46.32,24.111c2.85,-6.75 5.223,-13.808 7.063,-21.119l-42.909,-13.355l-10.474,10.363Z" style="fill:#ff001b;fill-rule:nonzero;"/>
        <path d="M1634.63,1417c0,44.671 -32.036,80.938 -71.496,80.938c-39.46,0 -71.496,-36.267 -71.496,-80.938c0,-44.671 32.036,-80.938 71.496,-80.938c39.46,0 71.496,36.267 71.496,80.938Z"/>
        <path d="M1605.27,1381.75c0,11.332 -8.127,20.531 -18.136,20.531c-10.01,0 -18.136,-9.199 -18.136,-20.531c0,-11.331 8.126,-20.531 18.136,-20.531c10.009,0 18.136,9.2 18.136,20.531Z" style="fill:#fff;"/>
    </g>
</svg>