<svg id="Layer_1" data-name="Layer 1" xmlns="http://www.w3.org/2000/svg" viewBox="0 0 2500 2500">
  <title>Bad ass Mouth</title>
  <g>
    <path style="fill-rule:evenodd;clip-rule:evenodd;fill:#AC693C;stroke:#000000;stroke-width:8.5039;stroke-linecap:round;stroke-linejoin:round;stroke-miterlimit:2.6131;" d="
		M1408.653,1817.963c-89.816-18.32-157.236-29.878-202.262-34.673c-88.842-11.63-140.612,19.432-155.308,93.185
		c-0.759,35.818,18.504,54.118,57.789,54.9c81.009-4.737,161.673,2.968,241.992,23.115c229.51,41.612,419.25,54.374,569.222,38.286
		c63.522-24.771,79.896-57.518,49.12-98.242c81.821-49.944,94.824-85.821,39.008-107.632
		C1850.094,1860.848,1650.24,1871.201,1408.653,1817.963z"/>

    <path style="fill-rule:evenodd;clip-rule:evenodd;fill:none;stroke:#000000;stroke-width:8.5039;stroke-linecap:round;stroke-linejoin:round;stroke-miterlimit:2.6131;" d="
		M994.739,1919.817c11.104,52.276,43.37,79.967,96.796,83.072"/>

    <path d="M1659,1587s-176-52-312,32-160,156-160,156,248,48,540,36,340-64,340-64-120-144-148-148S1691,1607,1659,1587Z" style="fill:#ff0000;stroke:#000;stroke-width:9px"/>

    <path style="fill-rule:evenodd;clip-rule:evenodd;fill:none;stroke:#000000;stroke-width:8.5039;stroke-linecap:round;stroke-linejoin:round;stroke-miterlimit:2.6131;" d="
		M1969.207,1894.534c-127.733,19.224-249.637,26.119-365.711,20.687c-138.029-6.46-347.82-75.145-452.727-54.638"/>

    <path style="fill-rule:evenodd;clip-rule:evenodd;fill:none;stroke:#000000;stroke-width:8.5039;stroke-linecap:round;stroke-linejoin:round;stroke-miterlimit:2.6131;" d="
		M994.739,1919.817c11.104,52.276,43.37,79.967,96.796,83.072"/>
    <path d="M1227,1871s-96,124-116,204,72,100,116,64,92-272,92-272S1267,1851,1227,1871Z" style="fill: #68383c;stroke: #000;stroke-width: 9.3018px"/>
    <path d="M1125,2085c5.86-39.57,44-44,78-24s20,66-6,74S1117,2139,1125,2085Z" style="fill: #ac263c;stroke: #000;stroke-width: 9.3018px"/>
    <path d="M931.65,1208.62c-35.18,16.53-61.18,60.06-59.17,99.1,1.35,26.26,15.46,46,38.73,54.14,0,0-81.42-91,30.23-132.42,24.31-9,49-4.79,73.79,18,29.43,27.07,41.68,51.22,39.74,78.29-1.9,26.51-16.68,55.65-35.38,92.54-17.3,34.12-38.84,76.59-55.53,129.23-16.84,53.12-14.9,98.32,5.94,138.19,18.41,35.22,48.41,62,80.17,90.25,28.56,25.45,52,56.54,79.13,85.16,60.54,63.76,38.46,165.36,38.46,165.36,2.19-2.55,52.69-63.75-19-177.61-22.76-36.15-53.53-63.56-83.29-90.08-30.15-26.86-58.62-52.23-75.09-83.73-18.1-34.64-19.5-73-4.39-120.59,16.13-50.85,36.31-90.66,54.12-125.78,19.88-39.2,35.58-70.16,37.81-101.29,2.46-34.26-12.51-65-47.11-96.87C987.91,1191.09,950.27,1199.87,931.65,1208.62Z" style="fill: #fff"/>
    <path d="M1099.8,2011.9s45-111-42-165-156,99-84,120,43.81-43.33,43.81-43.33,0,36-36,34.5-19.5-114,58.5-103.5S1099.8,2011.9,1099.8,2011.9Z" style="fill: #fff"/>

  </g>
</svg>
