<?xml version="1.0" encoding="iso-8859-1"?>
<!-- Generator: Adobe Illustrator 21.1.0, SVG Export Plug-In . SVG Version: 6.00 Build 0)  -->
<svg version="1.1" xmlns="http://www.w3.org/2000/svg" xmlns:xlink="http://www.w3.org/1999/xlink" x="0px" y="0px"
	 viewBox="0 0 2500 2500" style="enable-background:new 0 0 2500 2500;" xml:space="preserve">
<g id="Basic_Lips">
	
		<path style="fill-rule:evenodd;clip-rule:evenodd;fill:#AC693C;stroke:#000000;stroke-width:8.5039;stroke-linecap:round;stroke-linejoin:round;stroke-miterlimit:2.6131;" d="
		M1408.653,1817.963c-89.816-18.32-157.236-29.878-202.262-34.673c-88.842-11.63-140.612,19.432-155.308,93.185
		c-0.759,35.818,18.504,54.118,57.789,54.9c81.009-4.737,161.673,2.968,241.992,23.115c229.51,41.612,419.25,54.374,569.222,38.286
		c63.522-24.771,79.896-57.518,49.12-98.242c81.821-49.944,94.824-85.821,39.008-107.632
		C1850.094,1860.848,1650.24,1871.201,1408.653,1817.963z"/>
	
		<path style="fill-rule:evenodd;clip-rule:evenodd;fill:none;stroke:#000000;stroke-width:8.5039;stroke-linecap:round;stroke-linejoin:round;stroke-miterlimit:2.6131;" d="
		M1969.207,1894.534c-127.733,19.224-249.637,26.119-365.711,20.687c-138.029-6.46-347.82-75.145-452.727-54.638"/>
	
		<path style="fill-rule:evenodd;clip-rule:evenodd;fill:none;stroke:#000000;stroke-width:8.5039;stroke-linecap:round;stroke-linejoin:round;stroke-miterlimit:2.6131;" d="
		M994.739,1919.817c11.104,52.276,43.37,79.967,96.796,83.072"/>
</g>
<g id="Layer_1">
</g>
</svg>
