<?xml version="1.0" encoding="iso-8859-1"?>
<!-- Generator: Adobe Illustrator 21.1.0, SVG Export Plug-In . SVG Version: 6.00 Build 0)  -->
<svg version="1.1" xmlns="http://www.w3.org/2000/svg" xmlns:xlink="http://www.w3.org/1999/xlink" x="0px" y="0px"
	 viewBox="0 0 2500 2500" style="enable-background:new 0 0 2500 2500;" xml:space="preserve">
<g id="Cool_Smile">
	<g>
		<path d="M1044.535,1727.488c-1.614,1.021-39.435,25.187-45.939,63.113c-4.067,23.74,5.137,47.241,27.369,69.867
			c1.287,1.323,3.498,1.209,4.922-0.261c1.422-1.471,1.518-3.734,0.216-5.058c-20.666-21.039-29.302-42.55-25.645-63.94
			c5.867-34.393,41.919-57.489,42.284-57.714c1.712-1.085,2.372-3.294,1.483-4.943
			C1048.34,1726.893,1046.243,1726.417,1044.535,1727.488z"/>
	</g>
	<g>
		<g>
			<path style="fill:#9F4238;stroke:#000000;stroke-width:8.5039;" d="M2003.216,1725.161
				c-35.358,14.67-145.15,26.15-347.112,30.921s-432.626-55.425-503.558-65.875c-70.931-10.45-134.279,69.511-59.331,166.772
				c74.948,97.261,302.254,217.185,585.911,220.979c284.399,3.806,424.364-159.805,324.486-280.44c0,0,38.873-18.316,35.135-54.471
				C2035.009,1706.891,2003.216,1725.161,2003.216,1725.161z"/>
			<g>
				<path style="fill:#1E1E1E;stroke:#000000;stroke-width:8.5039;" d="M1589.17,1828.829
					c-255.214-13.02-453.344-117.719-477.891-70.548c-24.547,47.171,251.765,241.375,546.184,246.534
					c275.19,4.818,362.542-97.841,291.318-193.782C1885.171,1822.133,1760.419,1837.567,1589.17,1828.829z"/>
			</g>
			<path style="fill:#AC0A2B;stroke:#000000;stroke-width:8.5039;" d="M1603.524,1861.304
				c-42.703-12.816-92.12-8.082-129.099,16.779c-67.153-28.253-148.607-27.036-194.812,26.979
				c101.47,51.928,237.589,97.293,377.851,99.753c39.693,0.696,75.351-0.912,107.314-4.343
				C1739.88,1931.71,1671.652,1882.613,1603.524,1861.304z"/>
			<g>
				<path style="fill:#832D38;stroke:#000000;stroke-width:8.5039;" d="M1948.781,1811.033
					c-42.452,7.407-112.162,16.735-204.721,19.531c32.063,18.828,58.841,43.114,72.343,78.371
					c11.248,29.367,9.509,57.853-0.533,83.88C1964.003,1963.398,2003.863,1885.23,1948.781,1811.033z"/>
			</g>
			<path style="fill:#9F4238;stroke:#000000;stroke-width:8.5039;" d="M1948.781,1811.033c0,0,28.742-5.676,54.83-13.515"/>
		</g>
		<g>
			<path style="fill:#FFFFFF;stroke:#000000;stroke-width:8.5039;" d="M1148.635,1785.204c18.693,16.175,55.989,32.244,71.92,29.439
				c15.931-2.804,26.428-27.286,26.428-27.286s-5.108,38.019,21.499,43.294c26.606,5.276,135.822,50.783,300.641,57.985
				c164.819,7.201,337.552,3.503,356.052-15.597c11.227-11.591,18.742-38.409,10.371-59.784
				c-66.862,10.79-186.296,23.74-346.376,15.574c-216.058-11.022-391.167-87.721-454.718-82.387
				C1134.677,1758.195,1137.171,1775.284,1148.635,1785.204z"/>
		</g>
		<g>
			<path d="M1708.528,1831.286c1.8,20.824,2.784,40.152,1.515,60.744c3.348,0.013,6.691,0.026,9.998,0.023
				c1.236-20.714,0.263-40.106-1.522-60.898C1715.213,1831.205,1711.881,1831.251,1708.528,1831.286z"/>
			<path d="M1865.544,1886.761c0.35-18.493-3.854-38.376-7.536-55.675l-1.578-7.66c-3.274,0.326-6.61,0.647-9.987,0.958l1.829,8.862
				c3.629,17.071,7.806,36.806,7.279,54.41C1858.981,1887.37,1862.317,1887.07,1865.544,1886.761z"/>
			<path d="M1565.077,1827.291c-3.323-0.246-6.632-0.514-9.935-0.786c-1.51,20.085-2.887,41.642,1.753,61.501
				c3.484,0.197,6.979,0.384,10.514,0.544C1562.197,1869.288,1563.557,1847.514,1565.077,1827.291z"/>
			<path d="M1442.787,1811.755c-3.32-0.586-6.635-1.165-9.919-1.767c-6.859,20.608-6.927,43.207-0.729,63.148
				c3.684,0.673,7.425,1.341,11.213,1.992C1435.874,1855.64,1435.452,1832.514,1442.787,1811.755z"/>
			<path d="M1326.079,1786.831c-2.858,19.536-5.71,41.706-1.45,60.486c3.593,1.055,7.373,2.147,11.256,3.248
				c-5.945-17.249-3.178-40.055-0.076-61.362C1332.525,1788.417,1329.307,1787.624,1326.079,1786.831z"/>
		</g>
	</g>
</g>
<g id="Layer_1">
</g>
</svg>
