<?xml version="1.0" encoding="iso-8859-1"?>
<!-- Generator: Adobe Illustrator 21.1.0, SVG Export Plug-In . SVG Version: 6.00 Build 0)  -->
<svg version="1.1" xmlns="http://www.w3.org/2000/svg" xmlns:xlink="http://www.w3.org/1999/xlink" x="0px" y="0px"
	 viewBox="0 0 2500 2500" style="enable-background:new 0 0 2500 2500;" xml:space="preserve">
<g id="Crying_Lips">
	<g>
		<path style="fill:#9F4238;stroke:#000000;stroke-width:8.5039;" d="M1318.063,1750.648
			c108.961-84.871,291.722-173.446,403.859-104.252s56.089,113.969,86.634,168.223c30.545,54.254,64.9,164.579-26.001,170.755
			c-40.103,2.725-75.206-0.011-105.557,27.655c-41.307,37.658-156.493,90.761-217.153,45.479
			c-56.588-42.243-30.968-20.94-124.196-9.485C1273.397,2056.674,1073.177,1941.396,1318.063,1750.648z"/>
		<path style="stroke:#000000;stroke-width:8.5039;" d="M1351.877,1773.955c88.28-68.763,252.606-144.989,343.46-88.936
			c90.854,56.067,45.445,92.343,70.191,136.294c24.747,43.961,52.579,133.346-21.069,138.349
			c-32.49,2.208-60.932-0.011-85.523,22.399c-33.468,30.513-126.785,73.54-175.93,36.847
			c-45.85-34.226-58.552-21.036-134.086-11.753C1298.487,2013.352,1153.477,1928.494,1351.877,1773.955z"/>
		<path style="fill:#9F4238;stroke:#000000;stroke-width:8.5039;" d="M1495.435,1844.43c0,0-96.37-48.072-116.312,1.076
			c-19.942,49.148,112.62,99.932,153.772,102.212c138.398,7.665,118.415-101.926,95.295-125.96
			C1593.199,1785.389,1504.896,1746.491,1495.435,1844.43z"/>
	</g>
</g>
<g id="Layer_1">
</g>
</svg>
