<svg xmlns="http://www.w3.org/2000/svg" viewBox="0 0 2500 2500">
   <title>PepeFrogDrinkCoffee</title>
   <g>
      <g>
         <g>
            <g>
               <path d="M2462.75,2307.25c-9.62-122.64-73.84-23.45-73.84-23.45s-40.15,157.9-207.1,216.2h233.74C2435.59,2466.28,2469.62,2394.81,2462.75,2307.25Z" style="fill: #68984e;isolation: isolate"/>
               <path d="M2212.27,2492.12a325.61,325.61,0,0,0,110.84-83c50.44-57.93,67.23-116.17,69.21-123.52,7.78-11.82,30.15-39.74,45.75-35.11,11,3.28,18.28,23,21,57.07,0.6,7.61.87,15.08,0.87,22.41,0,52.79-14.36,98-27.33,128.11a345,345,0,0,1-21.51,41.88h9a357.22,357.22,0,0,0,19.22-38.15c13.35-30.92,28.14-77.45,28.14-131.83q0-11.34-.9-23.11c-3-38.87-11.7-59.89-26.45-64.27-24.09-7.15-53,36.93-54.17,38.81l-0.37.58-0.18.68c-0.16.61-16.23,61.92-67.87,121.1a318.14,318.14,0,0,1-108.29,80.88,334.9,334.9,0,0,1-40.42,15.32h24.81Q2203.06,2496.32,2212.27,2492.12Z"/>
            </g>
            <path d="M2343.05,2234.05c-13.3-17.41-60.39-50.26-83.11-35.24s-9.54,48.33,14.76,58,46,35,46,35l0.37-2.47C2335.6,2287,2356.35,2251.46,2343.05,2234.05Z" style="fill: #68984e;stroke: #000;stroke-width: 7px"/>
            <path d="M2224.36,2066.41s48-28.32,81.08,24.5,3.84,256.24-108.55,199,10.92-54.41,25.22-49.53,53.09-.76,57.64-37.81c6.11-49.67-6.84-109-45.22-90.2C2215.35,2121.79,2184.08,2084.27,2224.36,2066.41Z" style="fill: #fff;stroke: #000;stroke-linecap: round;stroke-linejoin: round;stroke-width: 8px"/>
            <g>
               <ellipse cx="2004.7" cy="2370.13" rx="142.89" ry="40.31" transform="translate(-45.98 39.67) rotate(-1.12)" style="fill: #fff;stroke: #000;stroke-linecap: round;stroke-linejoin: round;stroke-width: 8px"/>
               <path d="M1754,2145.63c-18.17-73.08-47.51-130.41-47.51-130.41s367.2-44.85,555.67-5.12c0,0-35.77,75.38-41.31,146.83-4.13,53.29,3.44,105-19.49,143.25-30.55,51-118.94,71.25-191.81,74.21-81,3.29-147.48-15.4-190.25-49.17C1783.63,2297,1768.58,2204.24,1754,2145.63Z" style="fill: #fff;stroke: #000;stroke-linecap: round;stroke-linejoin: round;stroke-width: 8px"/>
            </g>
            <path d="M2447.29,2159.67s-25-44.47-62.79-63.73-157.54.73-157.1,27.94,11.75,36.15,29.47,35.65c0,0-35.6,23.14-27.54,44.71s53.13,1.66,90.35,15.85c0,0-19.67,7.45-22.35,28.3s14.7,25.7,14.7,25.7-29.46,3.29-32.81,28.57-6.49,22.09,4.74,43.69,38.43,21.16,37.93,3.44,15.89-9.37,20.81,9,7.14,60.79,42,51.56S2526.43,2322.22,2447.29,2159.67Z" style="fill: #68984e;stroke: #000;stroke-width: 7px"/>
            <g>
               <path d="M2256.86,2159.53s87.4-41,125.56,5.93" style="fill: none;stroke: #000;stroke-linecap: round;stroke-linejoin: round;stroke-width: 8px"/>
               <path d="M2319.68,2220.09s46.46-1.77,58.26,25.52" style="fill: none;stroke: #000;stroke-linecap: round;stroke-linejoin: round;stroke-width: 8px"/>
               <path d="M2309.55,2273.72s35.71-4,49,11.67" style="fill: none;stroke: #000;stroke-linecap: round;stroke-linejoin: round;stroke-width: 8px"/>
            </g>
         </g>
         <g>
            <path d="M2107.9,1568.49c0.93,0.52-1.57,6.58-6.54,17-4.32,10.25-13.58,26-10.1,44.16,1.79,8.84,7.45,18.11,15.42,25.79,8,7.92,19.66,14.43,29.8,26.21a57,57,0,0,1,12.28,46.17c-3.18,17.09-13.46,31.24-24.37,43.34-22,24.3-48.15,41.15-57.37,64.5-9.52,23-1.53,47.64,6.74,65.22,17.62,37.06,43.84,46.29,42.69,48.07-0.16.77-7.11,0.26-17.62-5.93s-23.75-18.32-34.43-37.21a118.45,118.45,0,0,1-12.85-33.19c-2.8-12.54-3-27.85,2.65-42,11.36-29.33,39.21-46.86,59.1-69.47,10.2-11.22,18.61-23.37,21.05-36a43.7,43.7,0,0,0-8.55-34.76c-7.5-9.49-18.81-16.64-27.91-26.16s-15.38-21-17.06-32.76,1.4-22,4.8-29.87a123.06,123.06,0,0,1,10.66-19C2102.9,1573,2107,1568,2107.9,1568.49Z"/>
            <path d="M2240.44,1782.25c1.48,1.3-6,12-22.84,23.39-16.16,11.84-42.66,21.87-58.43,44-7.72,11.06-12.5,23.89-13.13,35.15a47.29,47.29,0,0,0,7.53,28.89c10,15,21.92,20.23,20.61,22.49-0.28,1.32-14.28.13-29.07-16.13-7.21-8-12.89-20.95-12.85-35.62s5.33-29.93,14.7-43.42c9.54-13.61,22.67-22.65,34.3-29s22.38-11.07,31-15.43C2229.47,1788.11,2238.88,1780.73,2240.44,1782.25Z"/>
         </g>
      </g>
      <g>
         <path d="M1109,1638.79c-2,.26-48.87,6.59-71.38,39.61-14.09,20.68-15.26,46.93-3.48,78a3.69,3.69,0,0,0,4.86,1.91,3.74,3.74,0,0,0,2.38-4.69c-10.95-28.93-10.08-53.05,2.61-71.69,20.39-30,65.09-36,65.54-36.1a3.94,3.94,0,0,0,3.55-4,3.48,3.48,0,0,0-4.07-3.06"/>
         <path d="M2006.83,1740.47s-38,66-250,76c-307.77,14.52-637.26-153.74-660-100s16,116,86,152c74,38.07,230.82,92.89,408,122,129.49,21.27,294.29-2.25,370.78-25s59.24-73.61,28.22-86c0,0,55.89-20.45,62.73-50.41C2066.83,1766.47,2006.83,1740.47,2006.83,1740.47Z" style="fill: #ac693c;stroke: #000;stroke-width: 9.3018px"/>
         <path d="M1191.63,1778.34s396.74,192.78,797.21,100.13" style="fill: none;stroke: #000;stroke-linecap: round;stroke-width: 9.3018px"/>
      </g>
   </g>
</svg>
