<svg xmlns="http://www.w3.org/2000/svg" viewBox="0 0 2500 2500">
    <title>PepeFrogDrinkWine</title>
    <g>
        <g>
            <path d="M1120,1665.55c-2-.1-49.26-2.14-77.26,26.39-17.52,17.86-23.31,43.5-17.21,76.21a3.69,3.69,0,0,0,4.45,2.73,3.74,3.74,0,0,0,3.17-4.2c-5.67-30.41-.55-54,15.23-70.1,25.36-25.89,70.44-24,70.89-24a3.94,3.94,0,0,0,4.2-3.34,3.48,3.48,0,0,0-3.47-3.73"/>
            <path d="M1995,1723s-4,76-56,76-96-20-204-20-228,20-352,16-276-88-292-56,4,84,96,124,242,132,522,132,308-84,288-130c0,0,32-30,28-82S1995,1723,1995,1723Z" style="fill: #ac693c;stroke: #000;stroke-width: 9.3018px"/>
            <path d="M1143.79,1792.87s216,75,492,90S1997,1865,1997,1865" style="fill: #ac693c;stroke: #000;stroke-linecap: round;stroke-linejoin: round;stroke-width: 9.3018px"/>
            <path d="M1521.83,1870.88s99-9,138-21,162-12,240,33c0,0-111,51-195,51S1521.83,1870.88,1521.83,1870.88Z"/>
        </g>
        <g>
            <g>
                <path d="M2278.68,2307.86c-9.55-122.65-73.83-23.49-73.83-23.49s-40.24,157.87-207.22,216.08l233.74,0.13C2251.42,2466.87,2285.5,2395.43,2278.68,2307.86Z" style="fill: #68984e;isolation: isolate"/>
                <path d="M2028.09,2492.59A325.6,325.6,0,0,0,2139,2409.68c50.47-57.9,67.3-116.13,69.28-123.48,7.79-11.82,30.17-39.73,45.77-35.08,11,3.28,18.27,23,20.92,57.09,0.59,7.61.86,15.08,0.86,22.41,0,52.79-14.41,98-27.4,128.09a344.78,344.78,0,0,1-21.53,41.87h9a357.35,357.35,0,0,0,19.24-38.14c13.37-30.91,28.19-77.43,28.22-131.82,0-7.56-.28-15.27-0.89-23.11-3-38.87-11.67-59.9-26.42-64.28-24.08-7.16-53,36.9-54.19,38.78l-0.37.58-0.18.68c-0.16.61-16.26,61.91-67.94,121.06A318.14,318.14,0,0,1,2025,2485.15a335.07,335.07,0,0,1-40.43,15.29h24.81Q2018.89,2496.79,2028.09,2492.59Z"/>
            </g>
            <path d="M2150.33,2222.11c-24.65-20.54-103.18-56.41-131.65-34.16s0.87,63.16,39.19,72.4,77.61,38.71,77.61,38.71l-0.21-3.21C2155.64,2290.9,2175,2242.65,2150.33,2222.11Z" style="fill: #68984e;stroke: #000;stroke-width: 7px"/>
            <g>
                <path d="M1925,1866.57c-4,37.08-5.32,75.75,12.91,107.83,20.63,36.31,90.26,55.4,145.06,52.5,49.27-2.61,92.59-29.23,113.27-74.69,10.22-22.47,8.37-53.53,4.35-85.64H1925Z" style="fill: #76000c;isolation: isolate"/>
                <path d="M1905.73,1683.87a4,4,0,0,0-3.33,5.88c0.12,0.22,11.66,22.35,23.6,85.86,3.64,19.37.61,44-2.6,70.14-5.27,42.87-11.25,91.47,11,130.63,21.55,37.92,92.55,57.5,148.75,54.51,52.4-2.78,96-31.58,116.7-77,13-28.64,7.27-69.9,1.71-109.81-1.28-9.15-2.6-18.62-3.64-27.64-8.72-75.55,20.13-123,20.42-123.44a4,4,0,0,0-3-6.1C2087.52,1675,1907.54,1683.78,1905.73,1683.87Zm302.76,10.47c-6.34,12.45-20.24,45.18-20.24,93.3a259,259,0,0,0,1.73,29.7c1.05,9.11,2.38,18.62,3.66,27.82,3,21.75,6.12,43.92,6.12,63.87,0,15.62-1.89,29.88-7.19,41.52-19.42,42.69-60.48,69.74-109.84,72.35-52.61,2.79-121.62-15.72-141.37-50.48-11.36-20-14.85-43-14.85-66.57,0-19.86,2.49-40.08,4.83-59.14,2.2-17.9,4.32-35.14,4.32-50.75a118.83,118.83,0,0,0-1.8-21.83c-9-47.83-17.68-72.47-21.86-82.54C1943.43,1690.22,2094.82,1684.46,2208.5,1694.34Z"/>
            </g>
            <path d="M1996,2013.79c-1,1.63-.26,3.64,1.7,4.49,0.37,0.16,36.76,16.25,40.93,42.83,4.52,28.79,4.25,236.9,1.56,247-1.51,4.59-30.67,24-50,36.87-38.1,25.38-53.62,36.32-53.62,42.4,0,4.26,6.55,5.51,12.69,6.33,23.27,3.14,80.16,3,121.79,1.84,24.51-.66,47-1.7,63.41-2.93,8.78-.66,15.72-1.37,20.63-2.11,7.5-1.13,10.34-2.28,11.26-4.57a3.71,3.71,0,0,0,.26-1.4c0-6-13.06-18.23-57.76-54.73-11.75-9.6-22.84-18.65-25.41-21.52-1.37-2.82-2.34-18.68-2.34-48.49,0-19.28.41-44.39,1.37-75.57,1.94-62.72,5.28-119.43,7.45-126.42,5.34-17.19,30.2-32.5,40.63-38.29a3.21,3.21,0,0,0,1.78-2.77,2.92,2.92,0,0,0-.67-1.84,4.52,4.52,0,0,0-5.55-.92c-13.92,7.71-38.13,23.44-43.94,42.16-2.65,8.54-6,72.76-7.77,129.91-0.62,20.31-1.31,48.64-1.31,73.88,0,3.1,0,6.15,0,9.14,0.29,39,2.4,41.47,3.66,42.93,2.61,3,11.75,10.55,26.44,22.54,17.76,14.5,49.84,40.7,54.78,48.64-9.45,2.3-50.09,5.14-106.24,6.13-60,1.06-97.44-.67-106.41-3.05,5.09-6.32,31.7-24.05,49.8-36.11,34.67-23.09,51.18-34.63,52.78-40.62,1.42-5.32,2.21-51.41,2.21-102.8,0-61.4-1.13-130.38-3.65-146.46-4.72-30-43.52-47.15-45.17-47.86A4.43,4.43,0,0,0,1996,2013.79Z"/>
            <path d="M2263.3,2160.27s-25-44.48-62.76-63.76-157.54.64-157.12,27.85,11.73,36.16,29.45,35.66c0,0-35.61,23.12-27.56,44.7s53.13,1.69,90.34,15.91c0,0-19.67,7.43-22.37,28.29s14.68,25.71,14.68,25.71-29.47,3.28-32.83,28.56-6.5,22.09,4.71,43.69,38.42,21.18,37.93,3.47,15.89-9.36,20.81,9,7.11,60.79,42,51.58S2342.35,2322.86,2263.3,2160.27Z" style="fill: #68984e;stroke: #000;stroke-width: 7px"/>
            <g>
                <path d="M2072.87,2160s87.42-40.94,125.56,6" style="fill: none;stroke: #000;stroke-linecap: round;stroke-linejoin: round;stroke-width: 8px"/>
                <path d="M2135.66,2220.63s46.46-1.74,58.25,25.55" style="fill: none;stroke: #000;stroke-linecap: round;stroke-linejoin: round;stroke-width: 8px"/>
                <path d="M2125.5,2274.25s35.71-4,49,11.7" style="fill: none;stroke: #000;stroke-linecap: round;stroke-linejoin: round;stroke-width: 8px"/>
            </g>
        </g>
    </g>
</svg>
