<?xml version="1.0" encoding="iso-8859-1"?>
<!-- Generator: Adobe Illustrator 21.1.0, SVG Export Plug-In . SVG Version: 6.00 Build 0)  -->
<svg version="1.1" xmlns="http://www.w3.org/2000/svg" xmlns:xlink="http://www.w3.org/1999/xlink" x="0px" y="0px"
	 viewBox="0 0 2500 2500" style="enable-background:new 0 0 2500 2500;" xml:space="preserve">
<g id="Extreme_Sad_Lips">
	
		<path style="fill-rule:evenodd;clip-rule:evenodd;fill:#AC693C;stroke:#000000;stroke-width:8.5039;stroke-linecap:round;stroke-linejoin:round;stroke-miterlimit:2.6131;" d="
		M1431.653,1962.455c-89.816,18.32-157.236,29.878-202.262,34.673c-88.842,11.63-140.612-19.432-155.308-93.185
		c-0.759-35.818,18.504-54.118,57.789-54.9c81.009,4.737,161.673-2.968,241.992-23.115c229.51-41.612,308.635-88.428,548.635-22.428
		c63.522,24.771,100.483,41.66,69.707,82.384c81.821,49.944-79.707,88.616-138.707,46.616
		C1695.379,1858.554,1673.24,1909.217,1431.653,1962.455z"/>
	
		<path style="fill-rule:evenodd;clip-rule:evenodd;fill:none;stroke:#000000;stroke-width:8.5039;stroke-linecap:round;stroke-linejoin:round;stroke-miterlimit:2.6131;" d="
		M1992.207,1885.884c-127.733-19.224-165.633-55.816-281.707-50.384c-138.029,6.46-431.824,104.842-536.731,84.335"/>
	
		<path style="fill-rule:evenodd;clip-rule:evenodd;fill:none;stroke:#000000;stroke-width:8.5039;stroke-linecap:round;stroke-linejoin:round;stroke-miterlimit:2.6131;" d="
		M1047.983,2011.054c34.118,41.134,75.554,50.667,124.309,28.597"/>
</g>
<g id="Layer_1">
</g>
</svg>
