<?xml version="1.0" encoding="iso-8859-1"?>
<!-- Generator: Adobe Illustrator 21.1.0, SVG Export Plug-In . SVG Version: 6.00 Build 0)  -->
<svg version="1.1" xmlns="http://www.w3.org/2000/svg" xmlns:xlink="http://www.w3.org/1999/xlink" x="0px" y="0px"
	 viewBox="0 0 2500 2500" style="enable-background:new 0 0 2500 2500;" xml:space="preserve">
<g id="Fake_Smile">
	<g>
		<g>
			<g>
				<g>
					<path style="fill:#9F4238;" d="M2014.537,1699.497c-28.302-32.317-76.914-16.189-335.269-9.692
						c-149.649,3.766-446.23-12.683-513.836,69.608c-42.586,51.823,28.261,212.25,306.638,270.675
						C1914.285,2122.907,2085.366,1780.337,2014.537,1699.497z"/>
					<path style="fill:none;stroke:#000000;stroke-width:8.5039;" d="M2014.537,1699.497
						c-28.302-32.317-76.914-16.189-335.269-9.692c-149.649,3.766-446.23-12.683-513.836,69.608
						c-42.586,51.823,28.261,212.25,306.638,270.675C1914.285,2122.907,2085.366,1780.337,2014.537,1699.497z"/>
				</g>
			</g>
		</g>
		<g>
			<path style="fill:#FFFFFF;stroke:#000000;stroke-width:8.5039;" d="M1964.798,1744.231
				c-23.769-22.563-64.597-11.304-281.553-6.768c-125.672,2.63-374.737-8.856-431.513,48.6
				c-35.762,36.177,23.732,148.187,257.509,188.978C1880.608,2039.841,2024.274,1800.668,1964.798,1744.231z"/>
		</g>
		<path d="M1935.052,1814.276c1.506-39.395-3.319-66.24-8.304-83.038c-3.375-0.233-7.021-0.399-10.978-0.499
			c5.001,15.862,10.506,43.3,8.802,85.043c-34.238,4.808-69.956,8.579-106.37,11.492c-0.794-27.144-2.845-52.543-4.424-72.138
			c-0.634-7.826-1.246-15.43-1.626-21.578c-3.36,0.127-6.73,0.255-10.246,0.393c0.327,5.439,0.877,12.484,1.63,21.844
			c1.584,19.606,3.64,45.121,4.419,72.282c-41.908,3.157-84.616,5.206-126.924,6.414c0.322-40.049-2.539-76.259-4.611-96.912
			c-3.376,0.055-6.824,0.111-10.35,0.144c1.979,20.321,4.809,56.835,4.466,97.045c-41.773,1.063-83.032,1.318-122.65,1.025
			c-1.142-41.998-8.101-76.519-13.476-97.405c-3.495,0.039-6.979,0.089-10.49,0.139c5.302,20.082,12.551,54.72,13.736,97.183
			c-53.374-0.526-103.456-2.021-147.39-3.855c-0.436-36.177-3.433-67.353-5.708-86.184c-3.433,0.36-6.824,0.748-10.189,1.147
			c2.244,18.515,5.188,49.087,5.64,84.6c-61.424-2.692-109.73-5.959-136.349-7.948c0.706,3.063,1.672,6.214,2.913,9.448
			c27.456,2.022,74.463,5.134,133.493,7.71c0,30.328-1.957,63.625-7.706,95.727c3.178,1.346,6.367,2.692,9.68,4.005
			c6.17-33.248,8.257-67.846,8.278-99.299c43.98,1.827,94.093,3.317,147.478,3.838c0.249,39.417-4.928,84.832-21.515,131.295
			c3.396,0.565,6.808,1.152,10.168,1.662c16.597-47.027,21.826-92.957,21.577-132.873c39.524,0.293,80.69,0.033,122.375-1.013
			c-1.065,51.419-7.722,107.158-28.032,141.973c3.889-0.078,7.769-0.166,11.591-0.316c19.432-36.825,25.892-91.601,26.931-141.939
			c42.406-1.202,85.239-3.246,127.277-6.403c0.768,44.397-2.327,91.795-16.633,124.277c4.31-1.451,8.522-2.968,12.686-4.519
			c12.245-33.48,14.935-78.497,14.188-120.556c36.149-2.88,71.618-6.601,105.669-11.326c-1.22,19.085-3.942,40.956-8.74,65.714
			c4.466-4.093,8.699-8.219,12.682-12.384c3.474-20.298,5.562-38.559,6.553-54.819c11.685-1.706,23.115-3.584,34.409-5.539
			c1.412-3.395,2.659-6.751,3.729-10.041C1960.378,1810.289,1947.869,1812.382,1935.052,1814.276z"/>
	</g>
	<g>
		<path d="M1066.261,1710.735c-1.429,0.482-35.041,12.173-44.96,41.379c-6.209,18.273-1.626,39.092,13.609,61.882
			c0.888,1.328,2.688,1.689,4.022,0.797c1.33-0.889,1.688-2.693,0.802-4.025c-14.168-21.19-18.521-40.286-12.946-56.758
			c8.968-26.482,41.011-37.671,41.334-37.776c1.519-0.525,2.329-2.172,1.818-3.684
			C1069.424,1711.03,1067.774,1710.224,1066.261,1710.735z"/>
	</g>
</g>
<g id="Layer_1">
</g>
</svg>
