<svg xmlns="http://www.w3.org/2000/svg" viewBox="0 0 2500 2500">
    <title>PepeFrogFeelsBirthday</title>
    <g>
        <g>
            <path d="M1279.37,77.6c-34,11.34-280.3,911.76-307.2,1010.45,9.25-3.35,18.45-7.07,27.83-10.05,6-2,12-5,21-6,6,0,12-4,18-5,7,0,14-2,21-2,67-4,130-14,198-28,5-1,10,0,15,0,2-1,4-3,6-3,13-1,26,2,39-1,8-2,16-1,24-2,2-1,4-3,6-3q87-1.5,174,0c2,0,4,3,6,3,39,1,78-3,117,1,17,2,34,0,51,2l9,3c7,0,14-1,21,0,7,2,14,5,21,6,10,0,20,1,30,2,18,3,36,1,54,3,1.91,0.15,3.81.27,5.72,0.39C1818,1013.16,1314.69,65.82,1279.37,77.6Z" style="fill: #ed133f;stroke: #000;stroke-linecap: round;stroke-linejoin: round;stroke-width: 10px"/>
            <path d="M1807,992.67c-20.33-38.05-49.69-92.86-84.32-157-63-24.24-126.41-45-191.71-65.66-148.54-46.91-279.9-108.16-414.59-196.78-10.35,35.86-20.64,71.8-30.69,107.13C1170.57,743.27,1262.31,795.84,1363,835,1510.69,893.53,1660.7,936.32,1807,992.67Z" style="fill: #fcdae1;stroke: #000;stroke-linecap: round;stroke-linejoin: round;stroke-width: 10px"/>
            <path d="M1273,1037c2-1,4-3,6-3,13-1,26,2,39-1,8-2,16-1,24-2,2-1,4-3,6-3q68.07-1.17,136.15-.5C1386.71,967.15,1289.39,906,1186,848c-43.61-24.37-83.93-51.19-127-73.11-14.89,52.91-28.77,102.67-40.94,146.53,50.17,33.57,101.71,63.92,157,93.59,18.11,9.9,36.38,19,54.78,27.62q14-2.69,28.22-5.62C1263,1036,1268,1037,1273,1037Z" style="fill: #fcdae1;stroke: #000;stroke-linecap: round;stroke-linejoin: round;stroke-width: 10px"/>
            <path d="M1339,554c100.29,46.15,201.37,84.43,301.14,129.51-31.07-56.92-63.63-116.19-96-174.4-36.72-18-73.32-37-110.19-57.11-82.09-44.84-163-85.06-245-124.18-11.7,38.26-24,79.17-36.45,121.45A670.64,670.64,0,0,0,1223,494C1262,516,1300,536,1339,554Z" style="fill: #fcdae1;stroke: #000;stroke-linecap: round;stroke-linejoin: round;stroke-width: 10px"/>
            <path d="M1477.87,390.71c-36.56-64.65-71.15-124.61-101-174.4-43.47-21.63-86.83-43.75-131.38-63.55-9.4,26.59-20.19,59.21-31.94,96.14L1216,250C1307.35,290.07,1390.36,343,1477.87,390.71Z" style="fill: #fcdae1;stroke: #000;stroke-linecap: round;stroke-linejoin: round;stroke-width: 10px"/>
            <path d="M943.44,1127.39s377.93-132,911.82-30c0,0,44.62-27.59,11.62-57.59s-165-54-516.05-36S896.09,1086,943.44,1127.39Z" style="fill: #ff86bb;stroke: #000;stroke-linecap: round;stroke-linejoin: round;stroke-width: 10px"/>
        </g>
        <g>
            <g>
                <path d="M1111.1,1697.49c-2,0-49.3.7-75.61,30.79-16.46,18.84-20.77,44.77-12.79,77.07a3.69,3.69,0,0,0,4.6,2.47,3.73,3.73,0,0,0,2.92-4.37c-7.41-30-3.66-53.88,11.16-70.86,23.83-27.31,68.94-28,69.39-28a3.94,3.94,0,0,0,4-3.57,3.48,3.48,0,0,0-3.68-3.52"/>
                <path d="M1987.94,1704.47s0.38,76.1-51.53,79.1-97-14.44-204.81-8.22-226.47,33.09-350.5,36.24-280.61-72-294.74-39.1,8.83,83.63,103,118.27,249.2,117.85,528.73,101.73,302.65-101.59,280-146.36c0,0,30.22-31.79,23.23-83.48S1987.94,1704.47,1987.94,1704.47Z" style="fill: #ac693c;stroke: #000;stroke-width: 9.3018px"/>
                <path d="M1142.17,1823.23s220,62.45,496.41,61.54,359.53-38.64,359.53-38.64" style="fill: #ac693c;stroke: #000;stroke-linecap: round;stroke-linejoin: round;stroke-width: 9.3018px"/>
                <path d="M1524.07,1879.35s98.33-14.69,136.58-28.91,161.06-21.31,241.53,19.13c0,0-107.89,57.31-191.76,62.15S1524.07,1879.35,1524.07,1879.35Z"/>
            </g>
            <g>
                <path d="M1880.5,1878.21c-30.56-6.75-49.5-11.21-49.5-11.21s-36-28-112-16-88,56-88,56,94.39,21.22,214.62,48C1838.15,1924.41,1848.69,1891.24,1880.5,1878.21Z" style="fill: #fff;stroke: #000;stroke-linecap: round;stroke-linejoin: round;stroke-width: 10px"/>
                <path d="M2395,1843c-116-44-100,100-100,100-94.74,3.06-315.56-42.92-414.5-64.79-31.81,13-42.35,46.2-34.87,76.8,160.9,35.85,368.1,81.68,457.38,100C2459,2087,2511,1887,2395,1843Z" style="fill: #ed133f;stroke: #000;stroke-linecap: round;stroke-linejoin: round;stroke-width: 10px"/>
                <g>
                    <path d="M1976,1898.46c-19.89-4-38.69-8-55.74-11.61-2.87,28.54.62,57.81,6.62,86.23l61.07,13.54A187.62,187.62,0,0,1,1976,1898.46Z" style="fill: #fcdae1;stroke: #000;stroke-linecap: round;stroke-linejoin: round;stroke-width: 10px"/>
                    <path d="M2043,1911.56c0,30.92,4.92,62.06,15.81,90.71,21.79,4.8,43.22,9.51,64,14-15.13-28.94-23.2-62.26-25.57-95C2079.11,1918.21,2060.92,1914.92,2043,1911.56Z" style="fill: #fcdae1;stroke: #000;stroke-linecap: round;stroke-linejoin: round;stroke-width: 10px"/>
                    <path d="M2162.68,1931.74c0.73,32.89,8.47,65.38,18.39,97.29,23,5,44.48,9.63,63.87,13.77-11.17-33.87-21.38-68.27-23.84-103.66C2202.76,1937.21,2183.09,1934.69,2162.68,1931.74Z" style="fill: #fcdae1;stroke: #000;stroke-linecap: round;stroke-linejoin: round;stroke-width: 10px"/>
                    <path d="M2289.35,1943.12c-7.3.09-15.24-.08-23.74-0.48,0.31,37.59,8.57,75.45,25.32,109.87L2303,2055c20,4.11,38.34,4.38,54.81,1.66C2319.67,2033.81,2297.95,1988.72,2289.35,1943.12Z" style="fill: #fcdae1;stroke: #000;stroke-linecap: round;stroke-linejoin: round;stroke-width: 10px"/>
                    <path d="M2302,1958c13.49,17.09,41.54,18,56.51,2.71-11.81-8.55-18.5-22.57-18.25-37.79-18-.91-33.93-10.65-43.92-25a193.93,193.93,0,0,0-1.71,40.35,47.31,47.31,0,0,1,1.38,4.7C2298,1949,2299,1955,2302,1958Z" style="fill: #fcdae1;stroke: #000;stroke-linecap: round;stroke-linejoin: round;stroke-width: 10px"/>
                    <path d="M2395,1843a126.11,126.11,0,0,0-30.67-7.85c6.72,19,10.55,40,4.45,58.05,7.53,2.75,15.05,6,20.46,10.85A34,34,0,0,1,2392,1902c13.72-11,28.85-21,40.88-33.66A97,97,0,0,0,2395,1843Z" style="fill: #fcdae1;stroke: #000;stroke-linecap: round;stroke-linejoin: round;stroke-width: 10px"/>
                </g>
                <path d="M2295,1943s10,82.55,71.54,58.55,33-105,6-105-42,43.5-27,57" style="fill: none;stroke: #000;stroke-linecap: round;stroke-linejoin: round;stroke-width: 10px"/>
                <path d="M2457.95,1939.73c-1,.78-1.93,1.54-2.95,2.27-15.38,11-35,19.27-52.33,15.06-1.87,14-8.58,27.66-22.51,37.31,14.56,10.89,32,19,50.06,20.45A125.42,125.42,0,0,0,2457.95,1939.73Z" style="fill: #fcdae1;stroke: #000;stroke-linecap: round;stroke-linejoin: round;stroke-width: 10px"/>
            </g>
        </g>
    </g>
</svg>
