<?xml version="1.0" encoding="iso-8859-1"?>
<!-- Generator: Adobe Illustrator 21.1.0, SVG Export Plug-In . SVG Version: 6.00 Build 0)  -->
<svg version="1.1" xmlns="http://www.w3.org/2000/svg" xmlns:xlink="http://www.w3.org/1999/xlink" x="0px" y="0px"
	 viewBox="0 0 2500 2500" style="enable-background:new 0 0 2500 2500;" xml:space="preserve">
<g id="Lips_to_Kiss">
	
		<path style="fill-rule:evenodd;clip-rule:evenodd;fill:#E03825;stroke:#000000;stroke-width:8.5039;stroke-linecap:round;stroke-linejoin:round;stroke-miterlimit:2.6131;" d="
		M1649.536,1900.573c1.554-10.639,2.773-25.171,3.66-43.599c207.5-137.438,330.729-167.957,369.69-91.557
		c1.911,38.544-20.051,74.875-65.885,108.996c77.584,80.285,76.974,137.449-1.831,171.488
		C1818.511,2078.432,1716.633,2029.988,1649.536,1900.573z"/>
	
		<path style="fill-rule:evenodd;clip-rule:evenodd;stroke:#000000;stroke-width:8.5039;stroke-linecap:round;stroke-linejoin:round;stroke-miterlimit:2.6131;" d="
		M1968.22,1886.5c-7.556-7-2.519-2-11.22-12.087c-27.511-66.372-129.998-57.652-307.464,26.159
		C1872.207,1984.574,2006.657,1982.127,1968.22,1886.5z"/>
	
		<path style="fill-rule:evenodd;clip-rule:evenodd;fill:none;stroke:#000000;stroke-width:8.5039;stroke-linecap:round;stroke-linejoin:round;stroke-miterlimit:2.6131;" d="
		M1585.932,2016.475c66.411-86.751,80.443-173.464,42.095-260.138"/>
	
		<path style="fill-rule:evenodd;clip-rule:evenodd;fill:none;stroke:#000000;stroke-width:8.5039;stroke-linecap:round;stroke-linejoin:round;stroke-miterlimit:2.6131;" d="
		M1940.695,1705.592c-36.274-22.979-79.057-15.322-128.349,22.971"/>
</g>
<g id="Layer_1">
</g>
</svg>
