<?xml version="1.0" encoding="iso-8859-1"?>
<svg version="1.1" xmlns="http://www.w3.org/2000/svg" xmlns:xlink="http://www.w3.org/1999/xlink" x="0px" y="0px"
 	 viewBox="0 0 2500 2500" style="enable-background:new 0 0 2500 2500;" xml:space="preserve">
	<g id="Layer-1">
		<path d="M1955.9,1690.19c0,0 -332.975,-13.285 -567.629,-21.529c-234.654,-8.242 -242.023,-12.412 -248.326,36.555c-6.303,48.967 65.45,276.349 331.034,346.843c265.585,70.495 431.784,-65.061 487.152,-183.551c55.366,-118.491 27.635,-169.203 -2.231,-178.318Z" style="fill:#ac693c;fill-rule:nonzero;stroke:#000;stroke-width:9.3px;stroke-linecap:butt;stroke-linejoin:miter;stroke-miterlimit:4;"/>
		<path d="M1887.2,1731.25c0,0 -252.859,-10.231 -431.052,-16.635c-178.192,-6.401 -183.797,-9.426 -188.487,25.906c-4.691,35.333 50.23,199.595 252.029,250.989c201.799,51.395 327.735,-46.127 369.547,-131.546c41.814,-85.42 20.657,-122.076 -2.037,-128.714Z" style="fill:#922823;fill-rule:nonzero;stroke:#000;stroke-width:9.3px;stroke-linecap:butt;stroke-linejoin:miter;stroke-miterlimit:4;"/>
		<path d="M1679.92,1906.09c-41.772,-7.421 -82.156,3.216 -120.745,19.917c-1.137,0.521 -3.513,0.688 -5.422,1.783c-7.917,-3.185 -15.977,-5.896 -24.392,-7.798c-43.659,-9.626 -90.527,-2.781 -127.65,20.431c32.129,21.103 71.086,39.147 117.986,51.093c119.912,30.539 213.036,8.497 277.641,-32.342c-33.946,-28.809 -73.654,-46.819 -117.418,-53.084Z" style="fill:#bb433e;fill-rule:nonzero;stroke:#000;stroke-width:9.3px;stroke-linecap:butt;stroke-linejoin:miter;stroke-miterlimit:4;"/>
	</g>
</svg>