<?xml version="1.0" encoding="iso-8859-1"?>
<!-- Generator: Adobe Illustrator 21.1.0, SVG Export Plug-In . SVG Version: 6.00 Build 0)  -->
<svg version="1.1" xmlns="http://www.w3.org/2000/svg" xmlns:xlink="http://www.w3.org/1999/xlink" x="0px" y="0px"
	 viewBox="0 0 2500 2500" style="enable-background:new 0 0 2500 2500;" xml:space="preserve">
<g id="Mad_Lips_2">
	<path style="fill:#9F4238;stroke:#000000;stroke-width:8.5039;" d="M1660.7,1731.572c96.267-7.096,249.955-113.567,300.622-73.642
		c50.667,39.925,15.2,266.164-73.467,279.473s-136.801-122.436-233.068-117.112c-96.267,5.323-288.802,202.285-407.869,165.022
		c-119.068-37.263-164.668-266.164-88.667-298.104s157.627,7.803,298.094,30.167C1595.679,1739.557,1660.7,1731.572,1660.7,1731.572
		z"/>
	<path style="fill:#8D2B38;stroke:#000000;stroke-width:8.5039;" d="M1253.048,1825.484c-35.848-23.96-47.686-66.131-47.777-108.535
		c-40.247,13.116-59.883,65.07-21.687,140.604c34.556,68.34,66.951,89.248,108.501,85.229
		C1264.062,1914.784,1250.631,1866.796,1253.048,1825.484z"/>
	<path style="fill:#FFFFFF;stroke:#000000;stroke-width:8.5039;" d="M1905.311,1706.921
		c-60.761,6.716-179.324,56.133-242.924,58.364c-76,2.662-96.267,4.434-202.668-16.859
		c-106.401-21.293-197.601-37.263-238.135-34.601c-5.728,0.374-11.18,1.451-16.313,3.124c0.091,42.404,11.93,84.575,47.777,108.535
		c-2.417,41.312,11.014,89.3,39.037,117.299c10.232-0.993,21.011-3.472,32.525-7.153c58.267-18.632,226.309-155.264,325.11-155.264
		c89.434,0,156.033,95.954,214.835,108.223c26.333-29.055,44.046-68.251,30.182-106.253
		C1909.121,1760.512,1912.14,1733.116,1905.311,1706.921z"/>
	<path style="fill:#8D2B38;stroke:#000000;stroke-width:8.5039;" d="M1933.455,1708.501c-6.611-2.605-16.299-2.891-28.144-1.58
		c6.828,26.195,3.81,53.592-10.574,75.415c13.864,38.001-3.85,77.198-30.182,106.253c6.155,1.284,12.231,1.664,18.233,0.904
		C1946.122,1881.508,1973.989,1724.471,1933.455,1708.501z"/>
	<path style="fill:none;stroke:#000000;stroke-width:8.5039;" d="M1253.048,1825.484c0,0-4.443,5.458,110.403-15.835
		c114.847-21.293,217.863-37.263,270.222-37.263s217.868,24.844,256.714,10.646"/>
	<path style="fill:none;stroke:#000000;stroke-width:8.5039;stroke-linecap:round;stroke-linejoin:round;" d="M1302.651,1733.345
		c0,0,3.38,72.759,30.4,81.627c0,0-15.195,46.137,23.646,63.879"/>
	<path style="fill:none;stroke:#000000;stroke-width:8.5039;stroke-linecap:round;stroke-linejoin:round;" d="M1403.985,1745.77
		c0,0-8.446,39.041,15.2,53.233c0,0,1.687,42.586,16.887,49.682"/>
	<path style="fill:none;stroke:#000000;stroke-width:8.5039;stroke-linecap:round;stroke-linejoin:round;" d="M1812.701,1736.896
		c0,0,0.005,37.263-11.821,47.91c0,0,11.821,44.359-3.38,58.556"/>
	<path style="fill:none;stroke:#000000;stroke-width:8.5039;stroke-linecap:round;stroke-linejoin:round;" d="M1866.747,1724.476
		c0,0,5.067,44.359-15.2,60.329c0,0,27.021,49.682-8.446,76.299"/>
</g>
<g id="Layer_1">
</g>
</svg>
