<?xml version="1.0" encoding="iso-8859-1"?>
<!-- Generator: Adobe Illustrator 21.1.0, SVG Export Plug-In . SVG Version: 6.00 Build 0)  -->
<svg version="1.1" xmlns="http://www.w3.org/2000/svg" xmlns:xlink="http://www.w3.org/1999/xlink" x="0px" y="0px"
	 viewBox="0 0 2500 2500" style="enable-background:new 0 0 2500 2500;" xml:space="preserve">
<g id="Mad_Mouth">
	<g>
		<path style="stroke:#000000;stroke-width:8.5039;" d="M1873.981,1793.815c0,0-121.268,56.713-111.02,144.359
			c0,0-170.801,132.331-348.428,96.241c-177.629-36.09-232.284-154.676-227.16-225.134c5.124-70.458,104.185-79.052,169.09-42.962
			s257.908,68.741,346.722,67.024S1873.981,1793.815,1873.981,1793.815z"/>
		<path style="fill:#AC0A2B;stroke:#000000;stroke-width:8.5039;" d="M1465.772,2006.915
			c46.115-30.934,107.603-5.156,148.594-41.245c10.248-10.311-10.248-25.778-15.372-25.778
			c-81.983-5.156-158.842,30.934-245.949,15.467c-24.939-3.137-44.169,12.819-55.423,35.078
			c31.064,18.855,69.584,34.363,116.91,43.98c11.073,2.25,22.117,3.841,33.095,4.854
			C1449.93,2026.072,1456.12,2014.2,1465.772,2006.915z"/>
		<path style="fill:#FFFFFF;stroke:#000000;stroke-width:8.5039;" d="M1255.691,1754.286c0,0,15.237,33.618,92.231,80.774
			c78.565,48.118,253.635,101.397,407.353,68.741c105.866-22.491,166.528-54.996,171.652-67.024
			c5.124-12.028-8.536-77.335-8.536-77.335s-109.314,79.052-295.482,56.713C1442.514,1794.51,1255.691,1754.286,1255.691,1754.286z"
			/>
		<path style="fill:#9F4238;stroke:#000000;stroke-width:8.5039;" d="M1920.097,1687.257c0,0,0.005,123.742-283.523,106.553
			s-392.837-127.181-454.324-48.123c-61.487,79.057-11.959,288.724,216.912,323.097c228.871,34.373,438.097-82.491,411.626-137.492
			c-12.274-25.506-78.57,17.184-153.718,51.557c-75.148,34.373-242.536,54.996-331.35,3.439s-153.721-159.821-105.896-201.067
			c47.824-41.246,218.623,70.458,433.829,70.458s300.601-96.241,304.019-137.487
			C1961.088,1676.946,1937.175,1673.507,1920.097,1687.257z"/>
	</g>
</g>
<g id="Layer_1">
</g>
</svg>
