<?xml version="1.0" encoding="iso-8859-1"?>
<svg version="1.1" xmlns="http://www.w3.org/2000/svg" xmlns:xlink="http://www.w3.org/1999/xlink" x="0px" y="0px"
	 viewBox="0 0 2500 2500" style="enable-background:new 0 0 2500 2500;" xml:space="preserve">
    <g>
      <path d="M943.62,1626s-18,84,21,114,150,51,177,96" style="fill: none;stroke: #000;stroke-linecap: round;stroke-linejoin: round;stroke-width: 8.504px"/>
      <path d="M1666.69,1776c-16.16,0-108-51-204-24s-294,111-279,168,105,33,162,18,213-15,279,12,156,15,204-9,141,6,165-54-39-150-111-150S1714.7,1776,1666.69,1776Z" style="fill: #ac693c;stroke: #000;stroke-width: 9.3018px"/>
      <path d="M1327.66,1890s141-57,207-63,126,54,171,42,150-63,198-51,60,36,60,36" style="fill: none;stroke: #000;stroke-width: 9.3018px"/>
    </g>
</svg>

