<?xml version="1.0" encoding="iso-8859-1"?>
<!-- Generator: Adobe Illustrator 21.1.0, SVG Export Plug-In . SVG Version: 6.00 Build 0)  -->
<svg version="1.1" xmlns="http://www.w3.org/2000/svg" xmlns:xlink="http://www.w3.org/1999/xlink" x="0px" y="0px"
	 viewBox="0 0 2500 2500" style="enable-background:new 0 0 2500 2500;" xml:space="preserve">
<g id="Open_Mouth">
	<g>
		<path style="fill:#9F4238;stroke:#000000;stroke-width:8.5039;stroke-linecap:round;stroke-linejoin:round;" d="
			M1548.867,1610.202c-60.844,4.223-155.492,47.363-205.915,89.266c-93.315,77.537-142.25,199.838-115.827,271.117
			c34.316,92.579,248.717,100.753,300.291,102.499c130.411,4.404,315.574-39.744,312.306-171.93
			C1834.574,1692.855,1739.338,1596.975,1548.867,1610.202z"/>
		<path style="stroke:#000000;stroke-width:8.5039;stroke-linecap:round;stroke-linejoin:round;" d="M1602.06,1660.889
			c90.415-0.859,191.331,58.414,200.767,201.686c5.746,87.231-41.183,158.703-216.21,168.623s-275.411-33.068-280.559-89.272
			C1300.91,1885.722,1368.692,1663.104,1602.06,1660.889z"/>
		<path style="fill:#AC0A2B;stroke:#000000;stroke-width:8.5039;stroke-linecap:round;stroke-linejoin:round;" d="
			M1445.502,1943.854c-43.199-15.715-97.518-19.265-134.448,15.675c22.648,47.222,119.341,80.521,275.562,71.669
			c24.241-1.374,46.079-3.991,65.821-7.648C1617.589,1933.843,1519.151,1909.706,1445.502,1943.854z"/>
	</g>
</g>
<g id="Layer_1">
</g>
</svg>
