<?xml version="1.0" encoding="iso-8859-1"?>
 <svg version="1.1" xmlns="http://www.w3.org/2000/svg" xmlns:xlink="http://www.w3.org/1999/xlink" x="0px" y="0px"
 	 viewBox="0 0 2500 2500" style="enable-background:new 0 0 2500 2500;" xml:space="preserve">
     <g id="Layer-1">
        <path d="M1194.72,1716.54c-0.766,-22.685 420.202,-229.448 643.108,-344.895c-6.343,-14.826 -13.245,-29.355 -20.669,-43.568c0.149,-0.597 0.154,-1.245 0.418,-1.807c98.517,-209.361 -207.472,-295.428 -207.472,-295.428c-11.771,-86.068 -58.969,-157.167 -137.45,-160.909c-78.48,-3.742 -104.776,18.711 -104.776,18.711c0,0 -83.469,-48.647 -216.887,-33.679c-99.616,11.176 -177.351,141.256 -210.349,206.454c-200.632,104.981 -377.309,329.764 -377.309,571.896c0,347.133 232.008,606.213 668.302,613.906c187.985,3.314 461.519,-82.559 576.704,-213.395c-199.563,-114.865 -612.895,-295.863 -613.62,-317.286Z" style="fill:#68984e;fill-rule:nonzero;stroke:#000;stroke-width:9px;"/>
        <path d="M1256.39,1710.8c0,0 611.889,-283.49 620.308,-319.979c8.42,-36.489 -25.261,-67.365 -58.943,-64.557c-33.683,2.807 -679.253,291.911 -684.867,378.921c-5.613,87.013 598.779,376.116 646.495,384.537c47.717,8.42 81.399,-53.33 58.944,-84.204c-22.455,-30.876 -581.937,-294.718 -581.937,-294.718Z" style="fill:#ac693c;fill-rule:nonzero;stroke:#000;stroke-width:9.3px;stroke-linecap:butt;stroke-linejoin:miter;"/>
        <path d="M1080.11,1629.9c0,0 -78.568,72.957 -5.612,145.913" style="fill:none;stroke:#000;stroke-width:9.3px;stroke-linecap:butt;stroke-linejoin:miter;"/>
        <path d="M1744.77,1157.86c-5.679,-11.984 -25.589,-36.507 -31.551,-48.455c-15.046,-1.144 -31.292,-1.856 -48.754,-2.129c-143.688,3.345 -251.523,59.206 -323.508,167.583c125.742,78.355 274.884,81.23 417.847,17.729c11.535,-50.608 8.761,-86.085 -14.034,-134.728Z" style="fill:#fff;fill-rule:nonzero;stroke:#000;stroke-width:10px;"/>
        <path d="M1727.36,1254.69c8.618,-56.213 -2.425,-98.7 -33.125,-127.458c-81.075,-21.301 -126.92,3.79 -137.537,75.281c-3.866,71.333 14.862,109.395 56.182,114.188c67.292,2.532 105.452,-18.138 114.48,-62.011"/>
        <path d="M1619.43,1150.89c-0.702,-5.741 -2.768,-9.126 -6.206,-10.155c-10.181,-2.049 -16.548,1.914 -19.102,11.889c0.263,11.073 5.568,17.966 15.917,20.683c9.224,-5.474 12.354,-12.948 9.391,-22.417" style="fill:#fff;"/>
        <path d="M1620.85,1227.66c3.232,-2.202 5.794,-5.367 7.689,-9.499c2.108,-11.285 -2.972,-16.517 -15.24,-15.699c-5.391,3.367 -7.316,9.548 -5.774,18.543c3.152,7.889 7.595,10.106 13.325,6.655" style="fill:#fff;"/>
        <path d="M1670.23,1204.91c19.893,-14.458 20.767,-28.389 2.628,-41.798c-14.576,-4.206 -23.205,1.753 -25.882,17.883c1.205,17.807 8.957,25.779 23.254,23.915" style="fill:#fff;"/>
        <path d="M1180.78,1105.68c0,0 89.81,-112.263 228.265,-78.584" style="fill:none;stroke:#000;stroke-width:9.3px;stroke-linecap:butt;stroke-linejoin:miter;"/>
        <path d="M1371.35,889.812c0,0 133.787,49.037 188.141,139.855" style="fill:none;stroke:#000;stroke-width:9.3px;stroke-linecap:butt;stroke-linejoin:miter;"/>
        <path d="M1349.17,1079.49c11.226,-3.741 160.909,-48.646 224.523,-41.162c63.616,7.484 52.39,37.421 71.1,37.421c18.71,0 62.017,18.67 68.429,33.658" style="fill:none;stroke:#000;stroke-width:9.3px;stroke-linecap:butt;stroke-linejoin:miter;"/>
        <path d="M1618.47,1082.07c0,0 -151.569,-5.614 -224.546,50.523c-72.978,56.136 -81.399,95.432 -120.693,115.08c-39.296,19.648 -84.206,56.137 -53.331,75.785c30.875,19.646 120.694,-42.103 120.694,-42.103" style="fill:none;stroke:#000;stroke-width:9.3px;stroke-linecap:butt;stroke-linejoin:miter;"/>
        <path d="M1483.88,1420.01c0,0 101.035,-14.969 145.939,-59.873" style="fill:none;stroke:#000;stroke-width:9.3px;stroke-linecap:butt;stroke-linejoin:miter;"/>
    </g>
</svg>