<svg xmlns="http://www.w3.org/2000/svg" viewBox="0 0 2500 2500">
  <title>Rabbit teeth</title>
  <g>
    <g>
      <path d="M1781.46,1740.37C1736,1790.11,1663,1818,1604.63,1833.2c7.42,40,15.73,178,46.73,191.78,36.59,16.26,111.81,10.17,122-4.06s20.33-52.86,20.33-52.86,6.1,48.78,30.49,50.82,65,16.27,81.31-8.13c12.55-18.82,19-124.72,21.36-172.15C1831.15,1801.53,1781.46,1740.37,1781.46,1740.37Z" style="fill: #fff;isolation: isolate"/>
      <path d="M1777,1736.26c-45.3,49.62-119.55,76.89-173.86,91a6.39,6.39,0,0,0-4.46,7l5.38,39.35c9.71,79.24,19.79,145.74,44.87,156.89,36.38,16.17,116.21,12.41,129.41-6.09,5.42-7.59,10.68-21.14,14.63-32.89,5,15,14.09,32,30.73,33.38l17.11,2.44c24.43,4.09,54.83,9.16,69.79-13.26,12.32-18.48,19-105.49,22.38-175.23a6.11,6.11,0,0,0-3.89-6c-92.88-36-142.35-95.79-142.84-96.39A6.1,6.1,0,0,0,1777,1736.26Zm4.12,12.94c13.74,15.16,60.45,61.78,139.42,93.38-4.6,91.18-12.07,152.74-20.11,164.79-10.58,15.86-35.57,11.68-57.63,8l-18.11-2.56c-15.84-1.33-23.51-34.12-24.95-45.51a6.1,6.1,0,0,0-11.95-.79c-2.75,10.45-11.6,40-19.39,50.87-7.48,10.48-78.34,18.12-114.54,2-20.81-9.25-31.81-99-37.72-147.23,0,0-3.6-26.3-4.73-34.54C1664.94,1823.2,1735,1796.4,1781.08,1749.2Z"/>
    </g>
    <path d="M1513.12,1850.15s183-16.27,268.34-109.78c0,0,52.86,65.05,154.5,101.65" style="fill: none;stroke: #000;stroke-linecap: round;stroke-linejoin: round;stroke-width: 12.1973px"/>
    <path d="M1775.88,1747.71c0.24,1.09,24,110.21,12.1,219.73l11.36,1.24c12.16-111.45-12-222.37-12.3-223.45Z"/>
  </g>
</svg>
