<?xml version="1.0" encoding="iso-8859-1"?>
<!-- Generator: Adobe Illustrator 21.1.0, SVG Export Plug-In . SVG Version: 6.00 Build 0)  -->
<svg version="1.1" xmlns="http://www.w3.org/2000/svg" xmlns:xlink="http://www.w3.org/1999/xlink" x="0px" y="0px"
	 viewBox="0 0 2500 2500" style="enable-background:new 0 0 2500 2500;" xml:space="preserve">
<g id="Sad_Lips_2">
	<g>
		<path d="M1032.456,1729.721c-1.66,0.936-40.556,23.079-47.435,58.108c-4.301,21.927,5,43.703,27.658,64.738
			c1.311,1.23,3.578,1.136,5.046-0.216c1.465-1.352,1.577-3.445,0.25-4.675c-21.062-19.56-29.792-39.493-25.924-59.25
			c6.206-31.766,43.283-52.929,43.658-53.135c1.761-0.995,2.45-3.033,1.548-4.562
			C1036.358,1729.192,1034.212,1728.741,1032.456,1729.721z"/>
	</g>
	<g>
		<path style="fill:#9F4238;stroke:#000000;stroke-width:8.5039;" d="M1652.407,1898.592
			c98.433,11.074,179.247,107.877,248.806,95.333c69.559-12.544,56.182-62.719,56.182-62.719s48.156-2.509,53.507-50.175
			c5.351-47.667-208.885-142.823-347.793-150.526c-181.024-10.025-545.767,115.403-553.793,195.683
			c-8.026,80.28,139.117,50.175,219.377,22.579C1408.952,1921.171,1585.524,1891.066,1652.407,1898.592z"/>
		<path style="fill:none;stroke:#000000;stroke-width:8.5039;" d="M1178.884,1917.829c0,0,228.291-123.762,424.479-113.727
			c196.198,10.035,329.954,86.964,354.032,127.104"/>
	</g>
</g>
<g id="Layer_1">
</g>
</svg>
