<?xml version="1.0" encoding="iso-8859-1"?>
<!-- Generator: Adobe Illustrator 21.1.0, SVG Export Plug-In . SVG Version: 6.00 Build 0)  -->
<svg version="1.1" xmlns="http://www.w3.org/2000/svg" xmlns:xlink="http://www.w3.org/1999/xlink" x="0px" y="0px"
	 viewBox="0 0 2500 2500" style="enable-background:new 0 0 2500 2500;" xml:space="preserve">
<g id="Smiling_Lips">
	<g>
		<path d="M1112.188,1900.31c-0.426,1.446-10.167,35.675,8.04,60.572c11.39,15.58,31.063,23.789,58.469,24.411
			c1.597,0.036,2.926-1.23,2.962-2.834c0.036-1.599-1.234-2.929-2.834-2.969c-25.483-0.577-43.615-7.984-53.895-22.01
			c-16.524-22.554-7.274-55.21-7.175-55.534c0.443-1.545-0.44-3.154-1.971-3.604
			C1114.247,1897.891,1112.639,1898.778,1112.188,1900.31z"/>
	</g>
	<path style="fill:none;stroke:#000000;stroke-width:8.5039;stroke-linecap:round;stroke-linejoin:round;" d="M1885.491,1713.279
		c0,0,23.073,75.359,81.509,63.054"/>
	<path style="fill:none;stroke:#000000;stroke-width:8.5039;stroke-linecap:round;stroke-linejoin:round;" d="M1231.896,1658.682
		c0,0,8.761,54.719-18.454,83.045c-37.677,39.216-108.42,41.522-149.942,16.148"/>
	<g>
		<path style="fill:#9F4238;stroke:#000000;stroke-width:8.5039;stroke-linecap:round;stroke-linejoin:round;" d="M1902.22,1748.809
			c-41.869,24.118-132.209,65.856-268.125,75.124c-193.763,13.21-413.945-83.671-413.945-83.671c-1.764,0-4.023,0.495-6.573,1.316
			c-0.047,0.049-0.088,0.099-0.135,0.149c-12.066,12.561-27.54,21.289-44.343,26.582c21.129,18.959,228.941,200.949,420.959,200.949
			c180.769,0,322.957-147.284,351.463-191.5C1926.811,1772.607,1913.326,1761.812,1902.22,1748.809z"/>
	</g>
	<path style="fill:none;stroke:#000000;stroke-width:8.5039;stroke-linecap:round;stroke-linejoin:round;" d="M1201.908,1753.261
		c0,0,219.236,120.44,378.315,129.181c209.919,11.534,332.179-117.647,332.179-117.647"/>
</g>
<g id="Layer_1">
</g>
</svg>
