<?xml version="1.0" encoding="iso-8859-1"?>
<!-- Generator: Adobe Illustrator 21.1.0, SVG Export Plug-In . SVG Version: 6.00 Build 0)  -->
<svg version="1.1" xmlns="http://www.w3.org/2000/svg" xmlns:xlink="http://www.w3.org/1999/xlink" x="0px" y="0px"
	 viewBox="0 0 2500 2500" style="enable-background:new 0 0 2500 2500;" xml:space="preserve">
<g id="Smug_Lips">
	
		<path style="fill-rule:evenodd;clip-rule:evenodd;fill:#AC693C;stroke:#000000;stroke-width:8.5039;stroke-linecap:round;stroke-linejoin:round;stroke-miterlimit:2.6131;" d="
		M2018.531,1813.437c-0.031-0.937,4.662-2.766,0.209-3.33c27.028-35.462,8.871-57.746-5.612-64.804l-0.012-0.08
		c-97.798,108.345-417.989,97.776-960.69-31.762c-38.219-9.123-125.965-15.928-86.404,49.29
		C1124.847,2024.582,2201.173,1996.583,2018.531,1813.437L2018.531,1813.437z"/>
	
		<path style="fill:none;stroke:#000000;stroke-width:8.5039;stroke-linecap:round;stroke-linejoin:round;stroke-miterlimit:2.6131;" d="
		M2018.531,1813.437c-134.531,106.47-700.719,103.994-982.161-46.22"/>
	
		<path style="fill-rule:evenodd;clip-rule:evenodd;fill:#68984E;stroke:#000000;stroke-width:8.5039;stroke-linecap:round;stroke-linejoin:round;stroke-miterlimit:2.6131;" d="
		M1551.925,2085.821c23.819-27.158,50.497-29.31,80.036-6.453c9.873-11.174,24.072-18.058,42.601-20.655
		c56.246-61.938,107.452-91.199,153.618-87.781c27.895,21.391,45.968,40.324,54.217,56.8
		c99.968,39.136,180.003,134.232,240.109,285.291c6.489,35.08-30.518,64.34-111.018,87.781
		c-175.582,24.553-303.382-5.999-383.399-91.654c-4.453-18.837-5.314-41.213-2.582-67.127c-0.512-26.021-11.7-51.408-33.564-76.164
		C1548.979,2136.982,1535.639,2110.303,1551.925,2085.821L1551.925,2085.821z M1701.025,2204.585
		c13.547,17.008,29.038,29.271,46.473,36.791c0.746-39.208,23.122-67.823,67.127-85.845c16.58-20.911,30.781-39.629,42.6-56.154
		c-28.432-22.781-57.047-24.071-85.844-3.873c-29.1,27.778-56.425,43.054-81.973,45.828
		C1696.127,2160.401,1700,2181.486,1701.025,2204.585L1701.025,2204.585z"/>
	
		<path style="fill:none;stroke:#000000;stroke-width:8.5039;stroke-linecap:round;stroke-linejoin:round;stroke-miterlimit:2.6131;" d="
		M1631.961,2079.368c-12.031,41.85,7.117,62.504,57.445,61.963 M1674.562,2058.713c37.062,16.741,41.15,37.826,12.263,63.255
		 M1747.498,2241.376c11.98,34.98,41.241,49.61,87.781,43.891c2.441,43.891,31.916,53.789,88.428,29.691
		c0.497,35.867,21.152,45.549,61.963,29.046c24.449-28.469,45.749-52.996,63.9-73.582 M1923.707,2314.958
		c25.45-27.05,49.116-52.438,70.999-76.163 M1835.279,2285.267c17.369-39.565,42.973-70.332,76.809-92.3 M1814.625,2155.531
		c31.34-21.894,61.031-44.055,89.072-66.481"/>
</g>
<g id="Layer_1">
</g>
</svg>
