<?xml version="1.0" encoding="iso-8859-1"?>
<!-- Generator: Adobe Illustrator 21.1.0, SVG Export Plug-In . SVG Version: 6.00 Build 0)  -->
<svg version="1.1" xmlns="http://www.w3.org/2000/svg" xmlns:xlink="http://www.w3.org/1999/xlink" x="0px" y="0px"
	 viewBox="0 0 2500 2500" style="enable-background:new 0 0 2500 2500;" xml:space="preserve">
<g id="Surprised_Mouth">
	
		<path style="fill-rule:evenodd;clip-rule:evenodd;fill:#AC693C;stroke:#000000;stroke-width:8.5039;stroke-linecap:round;stroke-linejoin:round;stroke-miterlimit:2.6131;" d="
		M2003.125,1797.173c-7.625,13.327-4.625,7.327-14.625,26.327c89.549,65.399,119,143,45.25,199.716
		c-111.25,76.284-286.246,87.885-410.883,95.176c-284.044-6.797-500.119-121.36-648.226-343.69
		c-52.519-106.267,14.246-134.395,96.979-115.004C1437.5,1835.5,1733.5,1837.5,1999.5,1711.5
		C2035.5,1696.5,2092.947,1771.341,2003.125,1797.173z"/>
	<path style="fill-rule:evenodd;clip-rule:evenodd;fill:#CCCCCC;stroke:#000000;stroke-width:8.5039;stroke-miterlimit:2.6131;" d="
		M1876.545,1836.132c42.651-10.613,84.844-23.599,126.58-38.959c-281.871,103.593-568.554,95.882-860.047-23.133
		c-53.266-26.333-74.108-16.639-62.526,29.082c126.607,119.131,290.791,195.8,492.55,230.008
		c173.469,8.536,310.005-13.936,409.607-67.416c10.844-18.51-1.065-43.626-35.729-75.347
		C1925.202,1868.43,1901.724,1850.352,1876.545,1836.132z"/>
	<path style="fill-rule:evenodd;clip-rule:evenodd;fill:#EF4545;stroke:#000000;stroke-width:8.5039;stroke-miterlimit:2.6131;" d="
		M1080.552,1803.122c46.467,44.607,103.229,85.523,170.284,122.749c77.949-57.581,131.664-53.371,349.063,82.804
		c78.817,32.236,199.601,12.825,172.265-77.991c-10.278-21.618-29.8-43.754-58.568-66.411
		c-196.495,16.995-386.667-13.082-570.518-90.233C1090.052,1747.524,1069.21,1757.218,1080.552,1803.122z"/>
	
		<path style="fill-rule:evenodd;clip-rule:evenodd;fill:none;stroke:#000000;stroke-width:8.5039;stroke-linecap:round;stroke-linejoin:round;stroke-miterlimit:2.6131;" d="
		M916.253,1692.336c-21.631,48.869-11.708,90.214,29.767,124.034"/>
	
		<polygon style="fill-rule:evenodd;clip-rule:evenodd;stroke:#000000;stroke-width:8.5039;stroke-linecap:round;stroke-linejoin:round;stroke-miterlimit:2.6131;" points="
		1876.5,1836.5 1908.093,1856.625 2014.333,1846.563 1988.5,1823.5 1998.897,1798.717 1922.294,1823.789 	"/>
</g>
<g id="Layer_1">
</g>
</svg>
