<?xml version="1.0" encoding="iso-8859-1"?>
<!-- Generator: Adobe Illustrator 21.1.0, SVG Export Plug-In . SVG Version: 6.00 Build 0)  -->
<svg version="1.1" xmlns="http://www.w3.org/2000/svg" xmlns:xlink="http://www.w3.org/1999/xlink" x="0px" y="0px"
	 viewBox="0 0 2500 2500" style="enable-background:new 0 0 2500 2500;" xml:space="preserve">
<g id="Tongue_Out">
	<g>
		<path d="M1132.117,1717.77c-1.57,1.035-38.36,25.52-44.866,64.254c-4.068,24.246,4.729,48.325,26.16,71.585
			c1.24,1.36,3.384,1.257,4.773-0.239c1.386-1.495,1.492-3.809,0.236-5.169c-19.921-21.629-28.178-43.67-24.52-65.516
			c5.87-35.126,40.939-58.528,41.294-58.755c1.665-1.1,2.317-3.354,1.464-5.044
			C1135.807,1717.185,1133.777,1716.686,1132.117,1717.77z"/>
	</g>
	<path style="fill:#E6E6E6;" d="M2033.944,1897.345c46.373-72.136,36.068-123.662,36.068-123.662s-41.407,1.972-100.143,4.433
		c-90.633,33.109-187.435,93.31-142.028,196.512c12.912,23.242,36.179,45.181,63.31,57.403c9.354-2.561,17.002-5.122,22.568-7.593
		C1975.55,1996.954,1987.571,1969.481,2033.944,1897.345z"/>
	<g>
		<path style="fill:#1E1E1E;stroke:#000000;stroke-width:8.5039;" d="M1827.842,1968.795
			c-45.407-111.127,51.395-175.95,142.028-211.602c-86.311,3.89-210.058,8.918-294.889,10.024
			c-142.556,1.853-249.039-88.772-379.572-16.645s-42.931,234.867,80.728,295.898c112.531,55.537,420.407,12.05,515.015-15.865
			C1864.02,2017.445,1840.753,1993.821,1827.842,1968.795z"/>
		<path style="fill:#AC0A2B;stroke:#000000;stroke-width:8.5039;" d="M1544.45,2065.889c0,0,46.373-149.802,113.356-163.673
			s72.136,44.386,164.882,11.096s185.492-102.642,293.696-61.03c108.204,41.612,136.543,119.287,90.17,127.609
			c-46.373,8.322-133.967-88.772-234.442-55.482c-100.475,33.289-216.408,66.579-273.086,47.16
			c-56.678-19.419-66.983,74.901-66.983,74.901L1544.45,2065.889z"/>
		<path style="fill:#9F4238;stroke:#000000;stroke-width:8.5039;" d="M1656.091,1706.181
			c183.771,18.498,322.891-51.781,384.722-48.081c61.831,3.701,49.81,98.02,25.763,101.716
			c-24.047,3.695-185.492,101.721-432.816,42.538c-132.865-31.794-286.828-96.173-348.656-7.401
			c-33.466,48.048-8.3,163.336,66.986,216.375c63.808,44.955,177.25,18.796,276.523,22.193
			c216.408,7.401,343.496-64.726,370.98-42.533c14.628,11.812,39.505,85.071-92.741,99.868
			c-74.023,8.285-190.092-0.336-326.333,11.096c-396.748,33.289-412.205-214.533-360.68-332.893
			S1489.065,1689.368,1656.091,1706.181z"/>
		<g>
			<path style="fill:#8AAEFF;stroke:#000000;stroke-width:8.5039;stroke-linecap:round;stroke-linejoin:round;" d="
				M2214.284,1805.122c0,0,56.678-33.289,103.051-13.871s7.729,69.353-18.034,58.256
				C2273.539,1838.411,2247.776,1794.026,2214.284,1805.122z"/>
			<path style="fill:#8AAEFF;stroke:#000000;stroke-width:8.5039;stroke-linecap:round;stroke-linejoin:round;" d="
				M2121.538,2010.406c0,0,20.61,11.097,18.034,52.708c-2.576,41.612,41.221,41.612,46.373,8.322
				C2191.097,2038.148,2147.301,2004.858,2121.538,2010.406z"/>
			
				<ellipse style="fill:#8AAEFF;stroke:#000000;stroke-width:8.5039;stroke-linecap:round;stroke-linejoin:round;" cx="2290.284" cy="2070.05" rx="16.746" ry="18.032"/>
		</g>
	</g>
</g>
<g id="Layer_1">
</g>
</svg>
