<?xml version="1.0" encoding="iso-8859-1"?>
<!-- Generator: Adobe Illustrator 21.1.0, SVG Export Plug-In . SVG Version: 6.00 Build 0)  -->
<svg version="1.1" xmlns="http://www.w3.org/2000/svg" xmlns:xlink="http://www.w3.org/1999/xlink" x="0px" y="0px"
	 viewBox="0 0 2500 2500" style="enable-background:new 0 0 2500 2500;" xml:space="preserve">
<g id="What_Mouth">
	<g>
		<path d="M999.256,1750.22c-1.717,1.05-41.956,25.902-49.083,65.236c-4.457,24.621,5.156,49.077,28.583,72.707
			c1.356,1.381,3.7,1.277,5.219-0.241c1.516-1.518,1.632-3.868,0.26-5.25c-21.777-21.972-30.799-44.358-26.791-66.543
			c6.43-35.67,44.786-59.422,45.175-59.653c1.821-1.116,2.535-3.405,1.602-5.122
			C1003.292,1749.627,1001.072,1749.12,999.256,1750.22z"/>
	</g>
	<path d="M1709.445,1791.939c-72.946,3.328-192.81-11.155-285.601,4.876c-97.667,16.871-172.801,33.75-227.28,65.657
		c-54.478,31.907-97.7,118.291-73.294,142.718c24.406,24.427,319.293-26.192,503.355-50.546c10.218-1.351,20.392-2.519,30.517-3.561
		c-1.479-2.499-2.892-5.052-4.218-7.705C1631.831,1883.544,1663.482,1830.325,1709.445,1791.939z"/>
	<path style="fill:#AC0A2B;stroke:#000000;stroke-width:8.5039;" d="M1562.783,1915.177c-78.86-67.639-185.919-50.77-270.451-0.088
		c-31.931,19.941-66.668,54.028-80.239,94.235c100.932-7.984,266.474-34.479,391.658-51.6
		C1593.5,1941.472,1579.716,1927.277,1562.783,1915.177z"/>
	<path style="fill:#E6E6E6;" d="M2026.734,1768.839c0,0-234.774,16.827-306.147,22.438c-3.566,0.279-7.307,0.487-11.142,0.662
		c-45.963,38.386-77.613,91.605-56.52,151.44c1.325,2.652,2.738,5.206,4.218,7.705c172.191-17.722,326.331,7.43,326.331,7.43
		C2077.407,1881.539,2026.734,1768.839,2026.734,1768.839z"/>
	<path style="fill:#9F4238;stroke:#000000;stroke-width:8.5039;" d="M2007.965,1720c-26.294,11.26-154.023,37.509-326.804,26.184
		s-375.634,14.899-518.395,89.981s-93.975,202.808-11.335,202.835c82.64,0.027,338.085-63.745,537.166-48.653
		c199.081,15.092,277.396,46.398,308.012-3.658c41.345-67.599-259.155-86.483-462.002-60.253s-390.677,82.518-409.45,52.458
		c-18.772-30.06,52.636-127.692,247.968-157.683s315.527,0.103,435.725,0.142c120.199,0.039,202.835-7.444,221.633-45.003
		C2049.281,1738.793,2007.965,1720,2007.965,1720z"/>
</g>
<g id="Layer_1">
</g>
</svg>
