<?xml version="1.0" encoding="iso-8859-1"?>
<!-- Generator: Adobe Illustrator 21.1.0, SVG Export Plug-In . SVG Version: 6.00 Build 0)  -->
<svg version="1.1" xmlns="http://www.w3.org/2000/svg" xmlns:xlink="http://www.w3.org/1999/xlink" x="0px" y="0px"
	 viewBox="0 0 2500 2500" style="enable-background:new 0 0 2500 2500;" xml:space="preserve">
<g id="Wide_Mouth">
	<path style="fill:#9F4238;stroke:#000000;stroke-width:8.5039;" d="M1158.947,1784.119
		c13.411-93.74,322.132-187.265,510.022-171.425c187.89,15.84,263.857,80.323,245.815,92.465
		c-18.042,12.143-83,52.629-90.196,72.827c-7.196,20.199-21.491,117.129-28.59,193.86c-7.099,76.731-53.089,121.22-262.636,117.523
		C1323.815,2085.671,1129.477,1990.094,1158.947,1784.119z"/>
	<path style="stroke:#000000;stroke-width:8.5039;stroke-linecap:round;stroke-linejoin:round;" d="M1210.443,1793.12
		c0,0,81.139-90.983,327.668-115.612c209.475-20.925,311.643,23.718,286.372,35.872c-25.271,12.155-46.936,16.236-54.099,56.621
		c-7.163,40.385,7.571,209.948-53.81,234.275c-61.381,24.327-325.139,4.571-422.762-43.723
		C1196.187,1912.259,1210.443,1793.12,1210.443,1793.12z"/>
	<path style="fill:#FFFFFF;stroke:#000000;stroke-width:8.5039;" d="M1739.949,1753.383c1.721-25.105,0.956-50.2,0.28-75.301
		c-48.423-6.705-116.235-9.156-202.117-0.575c-166.96,16.68-257.992,63.768-299.409,92.445
		C1402.51,1793.332,1575.279,1785.698,1739.949,1753.383z"/>
	<g>
		<path d="M1604.245,1672.84c-3.614,0.142-7.265,0.313-10.959,0.502c0.604,3.548,1.107,7.096,1.409,10.633
			c2.88,33.679,1.708,64.308-3.328,91.465c3.767-0.385,7.529-0.799,11.291-1.207c4.692-27.422,5.68-58.021,2.831-91.398
			C1605.203,1679.48,1604.769,1676.145,1604.245,1672.84z"/>
		<path d="M1686.479,1673.119c-3.652-0.195-7.367-0.36-11.156-0.502c1.744,8.289,2.911,16.675,3.238,25.481
			c0.438,11.847-1.576,23.212-3.711,35.24c-1.835,10.348-3.617,21.015-3.795,31.987c3.614-0.544,7.227-1.095,10.835-1.668
			c0.324-9.204,1.886-18.374,3.59-27.959c2.16-12.194,4.4-24.808,3.907-38.091
			C1689.077,1689.167,1688.005,1681.072,1686.479,1673.119z"/>
		<path d="M1482.805,1684.519c-3.629,0.562-7.201,1.141-10.74,1.727c0.744,8.581,1.578,17.115,2.46,25.518
			c2.354,22.484,4.79,45.73,4.149,68.604l10.828,0.385c0.671-23.766-1.813-47.469-4.21-70.39
			C1484.399,1701.84,1483.549,1693.2,1482.805,1684.519z"/>
		<path d="M1374.604,1708.396c1.306,19.167,1.254,38.65,1.152,57.791l-0.032,16.076c3.609,0.147,7.224,0.295,10.839,0.414
			l0.032-16.413c0.105-20.134,0.156-40.647-1.337-60.943C1381.645,1706.331,1378.09,1707.355,1374.604,1708.396z"/>
	</g>
	<path style="fill:#FFFFFF;stroke:#000000;stroke-width:8.5039;" d="M1698.359,1913.456
		c-128.979,72.045-291.069,56.145-430.489,30.708c7.636,6.032,16.207,11.572,25.942,16.389
		c87.395,43.236,307.823,63.565,397.115,49.905C1700.537,1977.343,1709.533,1947.211,1698.359,1913.456z"/>
	<g>
		<path d="M1603.992,1950.311c-3.809,0.958-7.628,1.87-11.463,2.727l0.088,8.748c0.283,18.016,0.512,35.428-1.169,52.406
			c3.874,0.124,7.711,0.224,11.49,0.295c1.67-17.688,1.446-35.479,1.174-52.927L1603.992,1950.311z"/>
		<path d="M1492.146,1965.186c2.045,14.198,3.798,28.201,4.694,42.217c3.88,0.425,7.749,0.839,11.623,1.223
			c-0.85-14.631-2.641-29.185-4.744-43.915C1499.867,1964.907,1496.009,1965.055,1492.146,1965.186z"/>
		<path d="M1385.298,1961.184c0.603,9.409,0.894,18.908,0.846,28.626c3.775,0.822,7.586,1.626,11.445,2.412
			c0.095-10.161-0.144-20.121-0.726-29.974C1393.004,1961.911,1389.146,1961.563,1385.298,1961.184z"/>
		<path d="M1675.251,1925.252c-3.595,1.68-7.218,3.277-10.857,4.832c5.093,30.595,4.193,56.289-3.389,83.415
			c4.228-0.267,8.329-0.57,12.245-0.931C1680.444,1984.438,1680.893,1957.407,1675.251,1925.252z"/>
	</g>
</g>
<g id="Layer_1">
</g>
</svg>
