<?xml version="1.0" encoding="iso-8859-1"?>
<!-- Generator: Adobe Illustrator 21.1.0, SVG Export Plug-In . SVG Version: 6.00 Build 0)  -->
<svg version="1.1" xmlns="http://www.w3.org/2000/svg" xmlns:xlink="http://www.w3.org/1999/xlink" x="0px" y="0px"
	 viewBox="0 0 2500 2500" style="enable-background:new 0 0 2500 2500;" xml:space="preserve">
<g id="Wtf_Mouth">
	<g>
		<path d="M1076.551,1702.455c-1.624,0.862-39.698,21.274-48.393,56.738c-5.438,22.199,1.961,45.033,22,67.885
			c1.159,1.335,3.302,1.371,4.772,0.072c1.467-1.299,1.704-3.435,0.53-4.772c-18.628-21.249-25.604-42.163-20.711-62.165
			c7.854-32.162,44.151-51.677,44.518-51.865c1.723-0.916,2.501-2.963,1.747-4.581
			C1080.264,1702.14,1078.269,1701.554,1076.551,1702.455z"/>
	</g>
	<path style="fill:#FFFFFF;stroke:#000000;stroke-width:8.5039;" d="M2021.965,1759.342c0,0,18.372,78.478,10.193,85.709
		c-8.18,7.231-38.844,2.765-38.844,2.765s-13.533,66.201-42.51,90.199c-28.977,23.998-715.2,30.736-761.75,33.027
		c-46.549,2.291-81.205,20.783-55.716-16.321c25.488-37.104,442.538-194.482,468.539-198.038
		C1627.879,1753.127,2021.965,1759.342,2021.965,1759.342z"/>
	<path style="fill:#9F4238;stroke:#000000;stroke-width:8.5039;" d="M1999.601,1703.822
		c-246.997-8.333-626.396,68.003-786.201,150.981c-159.802,82.978-170.237,140.773-149.689,142.038
		c20.548,1.265,430.194-7.887,519.444-5.832c89.25,2.056,331.561,30.726,349.947,11.232s17.701-64.227,17.701-64.227
		s-232.664-17.764-522.233-4.653c-141.321,6.401-283.141,20.385-283.141,20.385s172.704-91.615,383.197-137.98
		c170.762-37.612,470.015-44.356,484.089-45.821C2054.234,1765.624,2030.652,1704.868,1999.601,1703.822z"/>
	<g>
		<g>
			<path d="M1908.161,1830.996c-15.843,2.71-72.54,5.998-127.367,9.174c-46.129,2.674-89.707,5.198-107.162,7.275
				c-37.64,4.476-151.132,23.371-205.493,35.585c-29.045,6.531-84.483,16.361-133.394,25.038
				c-41.738,7.4-77.778,13.793-87.628,16.414c-20.517,5.464-72.124,14.222-72.643,14.311c-2.629,0.448-4.396,2.937-3.953,5.563
				c0.445,2.626,2.937,4.396,5.563,3.953c2.137-0.362,52.57-8.924,73.511-14.499c9.461-2.519,45.318-8.877,86.832-16.242
				c49.013-8.695,104.568-18.544,133.832-25.121c54.111-12.163,167.059-30.966,204.517-35.423
				c17.166-2.04,60.597-4.558,106.575-7.221c55.095-3.194,112.064-6.495,128.441-9.299c28.032-4.8,81.548,11.748,82.087,11.918
				c2.539,0.796,5.245-0.624,6.041-3.168c0.796-2.539-0.624-5.245-3.168-6.042
				C1992.469,1842.496,1938.487,1825.803,1908.161,1830.996z"/>
		</g>
		<g>
			<path d="M1900.062,1773.686c-2.65,0.184-4.607,2.275-4.366,4.666l5.34,52.876c0.24,2.386,2.588,4.173,5.243,3.989
				c2.65-0.184,4.607-2.275,4.366-4.666l-5.34-52.876C1905.064,1775.288,1902.717,1773.502,1900.062,1773.686z"/>
		</g>
		<g>
			<path d="M1747.723,1786.71c-2.637,0.382-4.465,2.832-4.083,5.469c1.032,7.123,6.438,43.068,11.489,50.746
				c1.464,2.225,4.458,2.843,6.683,1.378c2.225-1.464,2.842-4.458,1.378-6.683c-2.579-3.92-7.111-26.89-9.998-46.827
				C1752.811,1788.157,1750.36,1786.329,1747.723,1786.71z"/>
		</g>
		<g>
			<path d="M1870.673,1837.163c-2.663,0.058-4.777,2.264-4.72,4.931c0.424,19.529-21.885,82.204-22.11,82.834
				c-0.895,2.508,0.411,5.272,2.918,6.167c2.508,0.894,5.272-0.411,6.167-2.919c0.943-2.646,23.131-64.995,22.676-86.294
				C1875.547,1839.221,1873.341,1837.106,1870.673,1837.163z"/>
		</g>
		<g>
			<path d="M1607.822,1804.005c-2.588,0.641-4.159,3.264-3.513,5.847l12.406,49.75c0.641,2.588,3.264,4.159,5.847,3.513
				c2.588-0.641,4.159-3.264,3.513-5.847l-12.406-49.75C1613.027,1804.93,1610.405,1803.359,1607.822,1804.005z"/>
		</g>
		<g>
			<path d="M1485.435,1827.344c-2.615,0.519-4.313,3.058-3.793,5.669l9.838,49.592c0.519,2.615,3.058,4.312,5.668,3.793
				c2.615-0.519,4.312-3.058,3.793-5.668l-9.838-49.592C1490.584,1828.522,1488.045,1826.825,1485.435,1827.344z"/>
		</g>
		<g>
			<path d="M1722.771,1851.1l-14.702,71.285c-0.539,2.611,1.137,5.161,3.748,5.699c2.61,0.539,5.161-1.137,5.699-3.748
				l14.702-71.285c0.539-2.611-1.137-5.161-3.748-5.699C1725.859,1846.814,1723.309,1848.49,1722.771,1851.1z"/>
		</g>
		<g>
			<path d="M1579.595,1863.924c-2.661-0.048-4.861,2.072-4.909,4.738l-1.069,59.234c-0.048,2.661,2.072,4.861,4.738,4.909
				c2.661,0.048,4.861-2.072,4.909-4.738l1.069-59.233C1584.381,1866.172,1582.261,1863.972,1579.595,1863.924z"/>
		</g>
		<g>
			<path d="M1377.607,1856.886c-2.57,0.687-4.102,3.333-3.42,5.907l10.47,39.318c0.687,2.57,3.333,4.102,5.908,3.42
				c2.57-0.687,4.102-3.333,3.42-5.908l-10.47-39.318C1382.827,1857.736,1380.181,1856.204,1377.607,1856.886z"/>
		</g>
		<g>
			<path d="M1424.036,1898.418c-2.57,0.687-4.102,3.333-3.42,5.908l6.282,23.591c0.688,2.57,3.333,4.102,5.908,3.42
				c2.57-0.687,4.102-3.333,3.42-5.908l-6.282-23.591C1429.256,1899.268,1426.611,1897.736,1424.036,1898.418z"/>
		</g>
		<g>
			<path d="M1292.524,1885.527c-2.407,1.146-3.425,4.029-2.274,6.431l11.419,23.907c0.272,0.565,0.648,1.077,1.111,1.498
				l24.42,22.129c1.975,1.789,5.025,1.639,6.818-0.336c0.762-0.844,1.174-1.886,1.239-2.94c0.087-1.415-0.444-2.853-1.574-3.879
				c0,0-22.388-20.287-23.719-21.487c-0.758-1.598-11.009-23.051-11.009-23.051
				C1297.81,1885.394,1294.927,1884.376,1292.524,1885.527z"/>
		</g>
	</g>
</g>
<g id="Layer_1">
</g>
</svg>
