<svg id="Layer_1" data-name="Layer 1" xmlns="http://www.w3.org/2000/svg" viewBox="0 0 2500 2500">
  <title>Cowboy Neck</title>
  <g>
    <path d="M586.89,2033.92S665.42,1956,629.31,1890s-247-87.22-256.28-139.49c0,0-90.82,41.54-11.22,167.48S547.43,2062.07,586.89,2033.92Z" style="fill: #de4e4e;stroke: #000;stroke-width: 9.3018px"/>
    <path d="M629.76,2048.9s24-108-42-144c-70.12-38.25-254.21,60.89-291,21,0,0-54,84,81,147S611.76,2093.9,629.76,2048.9Z" style="fill: #de4e4e;stroke: #000;stroke-width: 9.3018px"/>
    <path d="M665.76,1962.89c-52.32-48.83-141,18-123,66s81,87,114,78S710.77,2004.89,665.76,1962.89Z" style="fill: #de4e4e;stroke: #000;stroke-width: 9.3018px"/>
    <g>
      <path d="M1851,2342.13c-4-52.62-44-113.34-96-153.82s-68-24.29-68-24.29,16-24.29-24-40.48-36.84,15.39-36.84,15.39c-12.83,96.35-87.16,170.81-87.16,170.81C823,2249,695,1998.06,695,1998.06s-60,4-72,12.14-20,48.58-20,48.58S401.87,2262.32,802.4,2500H1841.15C1849,2428,1852.62,2363.47,1851,2342.13Z" style="fill: #de4e4e;isolation: isolate"/>
      <path d="M620.35,2346.78c-35.08-43.11-55.78-87.11-61.53-130.78a190.71,190.71,0,0,1-1.64-24.94,195.19,195.19,0,0,1,20.69-86.8c13.28-26.61,28.28-42,28.43-42.15l1-1,0.28-1.39c3-14.92,10.46-40.48,18-45.58s43.83-9.46,66.82-11.15c7.62,13,45.17,69.38,153.79,132.25,70.87,41,157.55,76.27,257.61,104.74,124.91,35.54,271.2,60.6,434.81,74.48l2.14,0.18,1.52-1.53c0.77-.77,19.15-19.31,39.37-50,18.69-28.39,42.39-72.86,49.13-123.52l0.07-.53-0.05-.55c0-.09-0.71-8.63,4.52-12.58,4.79-3.62,13.77-2.92,26,2,13,5.25,21.08,12,23.47,19.57a17.69,17.69,0,0,1-1.63,14l7.18,5.91-0.13.13c0.15-.12,15.06-12,62,24.56a284.33,284.33,0,0,1,64.92,71.17c17.28,27.26,27.41,54.68,29.28,79.28,0.25,3.31.38,7.66,0.38,12.93,0,28.62-3.66,84.09-10.26,144.58h9.35c7.79-71.8,11.45-136.61,9.81-158.23-4-52.34-42.37-114-97.8-157.19-32.92-25.63-52.58-29.53-63.34-28.27a26.38,26.38,0,0,0,.31-3.86,25.88,25.88,0,0,0-1.14-7.62c-3.24-10.56-13-19.19-28.94-25.65-15.62-6.32-27.41-6.58-35-.76-7.36,5.61-8.23,14.94-8.23,19,0,0.54,0,1,0,1.3-11.64,86.05-74,155.23-84.29,166.14-161.68-13.82-306.31-38.6-429.86-73.67-99.24-28.17-185.18-63-255.43-103.51-119.47-68.89-152.46-131.17-152.78-131.79l-1.4-2.73-3,.2c-6.27.42-61.6,4.38-74.27,12.92-12.32,8.32-20,42.14-21.7,50.21-3.68,4-16.86,19-29,43.14A204.73,204.73,0,0,0,547.87,2191a200.45,200.45,0,0,0,1.7,26c6,45.46,27.32,91.08,63.51,135.59,41,50.44,101.59,100,180.18,147.34h18.39C727.38,2450.76,663,2399.21,620.35,2346.78Z"/>
    </g>
    <path d="M606.29,2062.1S731,2287,915,2355" style="fill: none;stroke: #000;stroke-linecap: round;stroke-linejoin: round;stroke-width: 9px"/>
    <path d="M587,2095s-8,244,212,336" style="fill: none;stroke: #000;stroke-linecap: round;stroke-linejoin: round;stroke-width: 9px"/>
    <path d="M1683.11,2161.44S1707,2371,1635,2427" style="fill: none;stroke: #000;stroke-linecap: round;stroke-linejoin: round;stroke-width: 9px"/>
    <path d="M1339,2351s119.22,30.88,199.61-36.56" style="fill: none;stroke: #000;stroke-linecap: round;stroke-linejoin: round;stroke-width: 9px"/>
    <path d="M1707,2187s56,200,44,292" style="fill: none;stroke: #000;stroke-linecap: round;stroke-linejoin: round;stroke-width: 9px"/>
  </g>
</svg>
