<?xml version="1.0" encoding="iso-8859-1"?>
<!-- Generator: Adobe Illustrator 21.1.0, SVG Export Plug-In . SVG Version: 6.00 Build 0)  -->
<svg version="1.1" xmlns="http://www.w3.org/2000/svg" xmlns:xlink="http://www.w3.org/1999/xlink" x="0px" y="0px"
	 viewBox="0 0 2500 2500" style="enable-background:new 0 0 2500 2500;" xml:space="preserve">
<g id="Dollar_Necklace">
	<path style="fill-rule:evenodd;clip-rule:evenodd;fill:#D9BF3C;stroke:#000000;stroke-width:8.5039;stroke-miterlimit:2.6131;" d="
		M641.65,2043.613c13.451-4.146,28.489-1.661,41.923,5.711c11.823,6.487,22.671,17.001,29.74,29.999
		c1.773,3.262,3.209,6.432,4.316,9.477c4.09,11.252,4.635,22.464,1.985,32.073c-3.104,11.25-10.399,20.358-21.487,25.487
		c-1.807,0.837-3.577,1.526-5.3,2.057c-13.454,4.147-28.49,1.661-41.925-5.71c-11.822-6.488-22.67-17.002-29.739-30
		c-1.774-3.262-3.209-6.432-4.317-9.477c-4.089-11.252-4.634-22.463-1.984-32.072c3.104-11.251,10.398-20.358,21.486-25.488
		C638.156,2044.833,639.927,2044.143,641.65,2043.613L641.65,2043.613z M665.059,2078.245c-4.511-2.476-8.805-3.543-11.811-2.617
		c-0.322,0.099-0.511,0.162-0.563,0.186c-1.125,0.52-1.98,1.858-2.49,3.708c-0.962,3.49-0.589,8.043,1.241,13.081
		c0.648,1.781,1.409,3.489,2.279,5.091c3.861,7.1,9.581,12.73,15.702,16.09c4.512,2.476,8.807,3.543,11.811,2.617
		c0.323-0.098,0.511-0.161,0.564-0.186c1.126-0.521,1.98-1.859,2.49-3.708c0.962-3.49,0.588-8.043-1.242-13.081
		c-0.647-1.781-1.408-3.488-2.278-5.091C676.901,2087.235,671.182,2081.605,665.059,2078.245z"/>
	<path style="fill-rule:evenodd;clip-rule:evenodd;fill:#D9BF3C;stroke:#000000;stroke-width:8.5039;stroke-miterlimit:2.6131;" d="
		M712.919,2094.626c13.451-4.146,28.489-1.66,41.924,5.711c11.822,6.487,22.67,17.001,29.739,29.999
		c1.774,3.262,3.209,6.432,4.316,9.477c4.089,11.251,4.635,22.464,1.985,32.072c-3.104,11.251-10.398,20.358-21.487,25.487
		c-1.807,0.837-3.577,1.526-5.3,2.057c-13.453,4.146-28.49,1.66-41.925-5.711c-11.822-6.488-22.67-17.001-29.739-30
		c-1.774-3.263-3.209-6.432-4.317-9.477c-4.089-11.252-4.635-22.463-1.984-32.073c3.104-11.251,10.398-20.358,21.487-25.488
		C709.425,2095.847,711.195,2095.158,712.919,2094.626L712.919,2094.626z M736.328,2129.26c-4.511-2.475-8.805-3.543-11.811-2.617
		c-0.322,0.099-0.51,0.161-0.563,0.186c-1.125,0.52-1.98,1.858-2.49,3.708c-0.962,3.49-0.589,8.043,1.241,13.081
		c0.648,1.781,1.409,3.489,2.279,5.091c3.861,7.1,9.58,12.73,15.703,16.09c4.511,2.475,8.806,3.543,11.811,2.618
		c0.322-0.099,0.51-0.163,0.563-0.186c1.126-0.521,1.981-1.86,2.49-3.708c0.962-3.49,0.588-8.044-1.242-13.081
		c-0.647-1.781-1.408-3.488-2.278-5.09C748.17,2138.249,742.45,2132.618,736.328,2129.26z"/>
	<path style="fill-rule:evenodd;clip-rule:evenodd;fill:#D9BF3C;stroke:#000000;stroke-width:8.5039;stroke-miterlimit:2.6131;" d="
		M778.519,2148.058c13.452-4.146,28.489-1.661,41.924,5.711c11.823,6.487,22.671,17.001,29.74,29.999
		c1.773,3.262,3.208,6.432,4.316,9.477c4.089,11.251,4.635,22.463,1.985,32.072c-3.104,11.25-10.399,20.358-21.487,25.487
		c-1.807,0.837-3.577,1.526-5.301,2.057c-13.452,4.146-28.489,1.66-41.924-5.711c-11.822-6.488-22.67-17.001-29.739-29.999
		c-1.774-3.263-3.21-6.432-4.317-9.477c-4.089-11.252-4.635-22.463-1.984-32.073c3.104-11.251,10.398-20.358,21.486-25.488
		C775.024,2149.279,776.795,2148.59,778.519,2148.058L778.519,2148.058z M801.928,2182.692c-4.511-2.475-8.805-3.543-11.811-2.617
		c-0.322,0.099-0.51,0.161-0.563,0.186c-1.126,0.52-1.98,1.858-2.49,3.708c-0.962,3.49-0.589,8.043,1.241,13.081
		c0.648,1.781,1.409,3.489,2.278,5.091c3.861,7.1,9.581,12.73,15.703,16.09c4.511,2.475,8.806,3.543,11.811,2.618
		c0.323-0.099,0.511-0.162,0.564-0.186c1.125-0.521,1.98-1.86,2.49-3.708c0.962-3.49,0.588-8.044-1.242-13.081
		c-0.647-1.781-1.408-3.488-2.279-5.09C813.77,2191.681,808.05,2186.05,801.928,2182.692z"/>
	<path style="fill-rule:evenodd;clip-rule:evenodd;fill:#D9BF3C;stroke:#000000;stroke-width:8.5039;stroke-miterlimit:2.6131;" d="
		M834.214,2201.089c10.544-8.754,25.393-11.998,40.873-10.163c13.622,1.615,28.084,7.287,40.15,16.632
		c3.028,2.346,5.706,4.73,8.029,7.12c8.585,8.836,13.905,18.937,15.608,28.739c1.994,11.478-0.775,22.528-8.731,31.316
		c-1.297,1.433-2.622,2.717-3.974,3.839c-10.545,8.754-25.393,11.998-40.873,10.163c-13.622-1.615-28.084-7.288-40.15-16.632
		c-3.028-2.346-5.706-4.73-8.029-7.121c-8.585-8.835-13.905-18.935-15.608-28.738c-1.993-11.479,0.775-22.528,8.731-31.318
		C831.537,2203.495,832.863,2202.211,834.214,2201.089L834.214,2201.089z M870.557,2224.306c-5.199-0.617-9.593-0.019-11.949,1.937
		c-0.253,0.209-0.398,0.336-0.436,0.378c-0.807,0.892-1.015,2.436-0.688,4.323c0.619,3.56,2.919,7.606,6.763,11.562
		c1.359,1.399,2.79,2.688,4.276,3.84c6.59,5.104,14.253,8.176,21.307,9.011c5.198,0.616,9.593,0.019,11.949-1.937
		c0.254-0.21,0.398-0.336,0.436-0.378c0.807-0.892,1.015-2.437,0.687-4.322c-0.618-3.56-2.919-7.607-6.762-11.563
		c-1.359-1.398-2.79-2.687-4.276-3.84C885.272,2228.212,877.61,2225.141,870.557,2224.306z"/>
	<path style="fill-rule:evenodd;clip-rule:evenodd;fill:#D9BF3C;stroke:#000000;stroke-width:8.5039;stroke-miterlimit:2.6131;" d="
		M921.456,2221.763c10.544-8.754,25.392-11.998,40.873-10.163c13.622,1.615,28.084,7.287,40.149,16.631
		c3.028,2.346,5.706,4.73,8.03,7.121c8.585,8.835,13.905,18.936,15.608,28.739c1.993,11.478-0.776,22.528-8.732,31.317
		c-1.296,1.433-2.622,2.717-3.974,3.839c-10.544,8.754-25.392,11.998-40.872,10.163c-13.623-1.615-28.085-7.288-40.15-16.632
		c-3.028-2.346-5.706-4.73-8.029-7.121c-8.585-8.835-13.905-18.936-15.608-28.739c-1.993-11.478,0.775-22.527,8.732-31.317
		C918.778,2224.169,920.104,2222.885,921.456,2221.763L921.456,2221.763z M957.797,2244.979c-5.198-0.616-9.592-0.019-11.948,1.937
		c-0.253,0.209-0.398,0.336-0.436,0.378c-0.807,0.892-1.015,2.436-0.688,4.322c0.619,3.561,2.919,7.606,6.762,11.563
		c1.36,1.399,2.791,2.688,4.277,3.84c6.59,5.104,14.253,8.176,21.307,9.011c5.198,0.617,9.593,0.019,11.949-1.937
		c0.254-0.21,0.398-0.336,0.436-0.378c0.808-0.892,1.016-2.437,0.688-4.322c-0.619-3.561-2.919-7.607-6.762-11.563
		c-1.359-1.398-2.79-2.688-4.277-3.84C972.513,2248.886,964.851,2245.815,957.797,2244.979z"/>
	<path style="fill-rule:evenodd;clip-rule:evenodd;fill:#D9BF3C;stroke:#000000;stroke-width:8.5039;stroke-miterlimit:2.6131;" d="
		M1004.542,2246.743c10.544-8.755,25.392-11.998,40.872-10.164c13.623,1.615,28.084,7.287,40.15,16.631
		c3.028,2.346,5.706,4.731,8.03,7.121c8.585,8.835,13.904,18.936,15.608,28.738c1.993,11.479-0.776,22.528-8.731,31.317
		c-1.297,1.434-2.622,2.717-3.973,3.838c-10.545,8.755-25.392,11.998-40.872,10.164c-13.623-1.615-28.085-7.288-40.15-16.632
		c-3.028-2.346-5.706-4.73-8.03-7.121c-8.585-8.835-13.905-18.936-15.608-28.738c-1.993-11.478,0.775-22.528,8.732-31.317
		C1001.864,2249.148,1003.19,2247.864,1004.542,2246.743L1004.542,2246.743z M1040.883,2269.958
		c-5.198-0.616-9.592-0.019-11.949,1.938c-0.253,0.209-0.398,0.336-0.436,0.378c-0.807,0.892-1.016,2.436-0.688,4.323
		c0.619,3.56,2.918,7.606,6.762,11.563c1.359,1.399,2.791,2.688,4.277,3.84c6.59,5.104,14.252,8.176,21.307,9.011
		c5.198,0.616,9.593,0.018,11.949-1.937c0.253-0.21,0.398-0.336,0.436-0.378c0.808-0.893,1.016-2.437,0.688-4.322
		c-0.619-3.561-2.919-7.607-6.762-11.563c-1.36-1.399-2.791-2.688-4.277-3.84
		C1055.599,2273.865,1047.937,2270.795,1040.883,2269.958z"/>
	<path style="fill-rule:evenodd;clip-rule:evenodd;fill:#D9BF3C;stroke:#000000;stroke-width:8.5039;stroke-miterlimit:2.6131;" d="
		M1670.622,2160.939c-12.207-6.728-27.465-7.292-42.262-2.761c-13.021,3.987-26,12.103-35.849,23.399
		c-2.471,2.835-4.59,5.647-6.362,8.403c-6.542,10.181-9.611,21.03-9.196,30.947c0.488,11.612,5.556,21.964,15.231,29.182
		c1.577,1.178,3.151,2.203,4.715,3.065c12.208,6.729,27.465,7.292,42.261,2.762c13.021-3.988,26.001-12.104,35.85-23.398
		c2.471-2.836,4.59-5.647,6.361-8.403c6.542-10.182,9.612-21.03,9.196-30.947c-0.488-11.613-5.556-21.964-15.231-29.183
		C1673.76,2162.827,1672.186,2161.801,1670.622,2160.939L1670.622,2160.939z M1639.91,2190.126
		c4.969-1.521,9.407-1.711,12.134-0.208c0.293,0.161,0.463,0.26,0.509,0.294c0.982,0.732,1.515,2.21,1.595,4.119
		c0.151,3.602-1.244,7.977-4.173,12.536c-1.035,1.613-2.165,3.129-3.378,4.521c-5.379,6.171-12.243,10.534-18.985,12.599
		c-4.969,1.521-9.407,1.71-12.135,0.207c-0.293-0.161-0.462-0.26-0.508-0.293c-0.983-0.734-1.516-2.212-1.595-4.12
		c-0.15-3.602,1.245-7.977,4.173-12.536c1.036-1.612,2.165-3.128,3.378-4.521C1626.304,2196.554,1633.167,2192.19,1639.91,2190.126z
		"/>
	<path style="fill-rule:evenodd;clip-rule:evenodd;fill:#D9BF3C;stroke:#000000;stroke-width:8.5039;stroke-miterlimit:2.6131;" d="
		M1594.427,2200.101c-12.207-6.728-27.465-7.291-42.262-2.761c-13.021,3.987-26,12.103-35.849,23.398
		c-2.471,2.835-4.59,5.647-6.362,8.402c-6.542,10.182-9.611,21.03-9.195,30.947c0.488,11.613,5.556,21.964,15.231,29.183
		c1.577,1.178,3.151,2.203,4.715,3.064c12.208,6.729,27.465,7.292,42.262,2.762c13.021-3.987,26-12.103,35.849-23.398
		c2.471-2.835,4.591-5.647,6.362-8.402c6.541-10.182,9.611-21.03,9.196-30.948c-0.488-11.612-5.556-21.964-15.231-29.183
		C1597.565,2201.989,1595.991,2200.963,1594.427,2200.101L1594.427,2200.101z M1563.715,2229.288
		c4.969-1.522,9.406-1.71,12.134-0.208c0.293,0.161,0.463,0.26,0.509,0.294c0.982,0.732,1.515,2.21,1.595,4.119
		c0.151,3.602-1.244,7.976-4.173,12.536c-1.036,1.612-2.165,3.129-3.378,4.521c-5.379,6.171-12.243,10.534-18.985,12.599
		c-4.969,1.522-9.408,1.71-12.134,0.208c-0.294-0.161-0.463-0.26-0.509-0.294c-0.983-0.733-1.516-2.211-1.595-4.119
		c-0.151-3.602,1.245-7.977,4.173-12.536c1.035-1.612,2.165-3.129,3.378-4.521
		C1550.109,2235.716,1556.972,2231.352,1563.715,2229.288z"/>
	<path style="fill-rule:evenodd;clip-rule:evenodd;fill:#D9BF3C;stroke:#000000;stroke-width:8.5039;stroke-miterlimit:2.6131;" d="
		M1528.002,2240.842c-8.324-10.653-22.1-16.778-37.643-18.065c-13.678-1.132-29.093,1.533-42.998,8.264
		c-3.489,1.69-6.646,3.487-9.458,5.361c-10.388,6.926-17.872,15.738-21.755,24.979c-4.544,10.821-4.338,22.17,1.448,32.341
		c0.943,1.659,1.947,3.177,3.014,4.542c8.324,10.653,22.1,16.777,37.643,18.065c13.678,1.132,29.093-1.533,42.998-8.264
		c3.489-1.69,6.646-3.488,9.458-5.36c10.388-6.926,17.872-15.738,21.754-24.979c4.544-10.821,4.339-22.169-1.448-32.341
		C1530.074,2243.726,1529.068,2242.207,1528.002,2240.842L1528.002,2240.842z M1487.235,2256.298
		c5.219,0.432,9.378,1.89,11.239,4.271c0.2,0.254,0.313,0.408,0.341,0.456c0.587,1.031,0.441,2.582-0.306,4.361
		c-1.41,3.355-4.573,6.852-9.224,9.953c-1.644,1.096-3.334,2.072-5.048,2.902c-7.595,3.677-15.778,5.153-22.86,4.566
		c-5.219-0.433-9.379-1.891-11.238-4.271c-0.2-0.255-0.313-0.408-0.341-0.456c-0.588-1.033-0.441-2.583,0.306-4.361
		c1.41-3.355,4.573-6.853,9.224-9.954c1.644-1.097,3.334-2.072,5.048-2.902C1471.97,2257.187,1480.152,2255.711,1487.235,2256.298z"
		/>
	<path style="fill-rule:evenodd;clip-rule:evenodd;fill:#D9BF3C;stroke:#000000;stroke-width:8.5039;stroke-miterlimit:2.6131;" d="
		M1438.069,2243.685c-8.323-10.653-22.099-16.778-37.643-18.065c-13.677-1.133-29.093,1.533-42.998,8.263
		c-3.489,1.69-6.646,3.488-9.457,5.362c-10.388,6.926-17.873,15.738-21.755,24.979c-4.544,10.82-4.338,22.169,1.448,32.341
		c0.943,1.658,1.948,3.176,3.015,4.541c8.324,10.654,22.099,16.778,37.643,18.065c13.677,1.133,29.093-1.532,42.998-8.263
		c3.489-1.689,6.646-3.487,9.458-5.361c10.388-6.925,17.873-15.738,21.754-24.978c4.545-10.821,4.339-22.169-1.447-32.341
		C1440.141,2246.569,1439.136,2245.05,1438.069,2243.685L1438.069,2243.685z M1397.303,2259.141c5.22,0.432,9.378,1.89,11.239,4.271
		c0.2,0.254,0.313,0.407,0.341,0.456c0.587,1.031,0.442,2.582-0.306,4.361c-1.41,3.355-4.573,6.852-9.224,9.953
		c-1.645,1.096-3.335,2.071-5.049,2.901c-7.595,3.677-15.777,5.153-22.86,4.567c-5.22-0.433-9.379-1.891-11.239-4.271
		c-0.201-0.255-0.313-0.408-0.341-0.457c-0.588-1.032-0.442-2.583,0.306-4.36c1.41-3.355,4.573-6.853,9.224-9.954
		c1.645-1.097,3.335-2.071,5.049-2.901C1382.039,2260.031,1390.22,2258.554,1397.303,2259.141z"/>
	<path style="fill-rule:evenodd;clip-rule:evenodd;fill:#D9BF3C;stroke:#000000;stroke-width:8.5039;stroke-miterlimit:2.6131;" d="
		M1351.225,2251.563c-8.324-10.653-22.1-16.778-37.643-18.065c-13.678-1.133-29.094,1.533-42.998,8.263
		c-3.49,1.69-6.647,3.488-9.458,5.361c-10.388,6.926-17.873,15.738-21.754,24.979c-4.544,10.82-4.338,22.169,1.447,32.341
		c0.943,1.658,1.948,3.176,3.015,4.541c8.324,10.654,22.1,16.778,37.643,18.065c13.677,1.133,29.093-1.532,42.998-8.263
		c3.489-1.69,6.646-3.488,9.458-5.362c10.388-6.926,17.872-15.738,21.754-24.978c4.544-10.821,4.338-22.169-1.448-32.341
		C1353.297,2254.446,1352.292,2252.928,1351.225,2251.563L1351.225,2251.563z M1310.459,2267.019
		c5.219,0.432,9.377,1.89,11.238,4.271c0.2,0.254,0.313,0.407,0.341,0.456c0.588,1.032,0.442,2.582-0.306,4.36
		c-1.411,3.356-4.573,6.852-9.224,9.954c-1.645,1.096-3.334,2.071-5.048,2.901c-7.595,3.677-15.778,5.153-22.861,4.566
		c-5.219-0.433-9.378-1.891-11.239-4.271c-0.201-0.254-0.313-0.407-0.341-0.456c-0.588-1.032-0.442-2.583,0.306-4.36
		c1.41-3.356,4.573-6.853,9.224-9.954c1.644-1.096,3.334-2.071,5.048-2.901C1295.193,2267.908,1303.376,2266.431,1310.459,2267.019z
		"/>
	<path style="fill-rule:evenodd;clip-rule:evenodd;fill:#D9BF3C;stroke:#000000;stroke-width:8.5039;stroke-miterlimit:2.6131;" d="
		M1088.992,2369.131c16.598,6.813,30.783,11.628,42.553,14.564l0.988-50.444c-13.866-5.975-24.414-12.488-31.609-19.516
		c-8.656-8.394-12.85-17.816-12.646-28.227c0.277-14.13,8.931-25.531,25.96-34.249c6.062-3.116,12.747-5.638,20.051-7.57
		l0.644-32.885l23.195,0.454l-0.557,28.448c6.963-0.633,14.338-0.874,22.123-0.722c4.098,0.08,8.33,0.292,12.694,0.631l0.542-27.676
		l23.202,0.454l-0.588,30.008c10.414,1.652,21.796,3.969,34.193,6.923l-0.805,41.107c-11.907-4.974-23.256-8.974-34.093-12.002
		l-0.797,40.709c20.112,8.157,34.009,15.673,41.728,22.551c9.247,8.282,13.763,17.918,13.546,28.989
		c-0.335,17.104-9.816,30.763-28.442,40.938c-8.425,4.584-18.038,8.071-28.848,10.465l-0.689,35.165l-23.202-0.454l0.615-31.379
		c-6.835,0.513-14.035,0.695-21.604,0.546c-4.25-0.083-8.653-0.288-13.209-0.613l-0.603,30.764l-23.195-0.454l0.642-32.791
		c-11.34-1.593-23.776-3.877-37.151-6.818L1088.992,2369.131L1088.992,2369.131z M1154.669,2387.758
		c4.149,0.424,8.269,0.675,12.357,0.755c8.791,0.172,16.288-0.634,22.49-2.401l0.574-29.284c-5.582-3.04-12.694-6.218-21.341-9.527
		c-3.956-1.524-7.004-2.74-9.144-3.568l-4.043-1.533L1154.669,2387.758L1154.669,2387.758z M1156.846,2276.636l-0.379,19.341
		c3.066,2.235,7.246,4.298,12.576,6.238l21.957,8.155l0.724-36.952c-4.021-0.56-7.747-0.874-11.185-0.941
		c-9.34-0.183-16.681,0.954-22.087,3.369C1157.887,2276.1,1157.353,2276.362,1156.846,2276.636z"/>
</g>
<g id="Layer_1">
</g>
</svg>
