<?xml version="1.0" encoding="iso-8859-1"?>
<!-- Generator: Adobe Illustrator 21.1.0, SVG Export Plug-In . SVG Version: 6.00 Build 0)  -->
<svg version="1.1" xmlns="http://www.w3.org/2000/svg" xmlns:xlink="http://www.w3.org/1999/xlink" x="0px" y="0px"
	 viewBox="0 0 2500 2500" style="enable-background:new 0 0 2500 2500;" xml:space="preserve">
<g id="Punk_Necklace">
	
		<path style="fill-rule:evenodd;clip-rule:evenodd;stroke:#000000;stroke-width:8.5039;stroke-linecap:round;stroke-linejoin:round;stroke-miterlimit:2.6131;" d="
		M1634.5,2145.5l-6-12l-52.254,5.181c-78.439,6.088-178.112,8.261-299.063,6.513c-265.722-14.316-452.573-58.139-560.555-131.47
		c-0.594,0.935-1.146,1.888-1.659,2.858l-4.469-3.082l-3.72,3.141L665.5,2051.5l-28,14c0,0,382,188,536,202s509-84,509-84
		L1634.5,2145.5z"/>
	<path style="fill-rule:evenodd;clip-rule:evenodd;fill:#DDDDDD;stroke:#000000;stroke-width:8.5039;stroke-miterlimit:2.6131;" d="
		M1277.485,2225.864c-34.386-39.48-70.492-38.701-108.319,2.34c11.024,22.299,28.79,48.166,53.301,77.602
		c9.177,8.967,19.681,9.082,31.509,0.344C1267.55,2272.303,1275.388,2245.542,1277.485,2225.864z"/>
	<path style="fill-rule:evenodd;clip-rule:evenodd;fill:#DDDDDD;stroke:#000000;stroke-width:8.5039;stroke-miterlimit:2.6131;" d="
		M1450.868,2196.999c-36.583-29.392-68.315-22.993-95.197,19.2c13.254,17.93,33.021,37.941,59.303,60.034
		c9.515,6.459,18.801,4.899,27.854-4.681C1449.449,2239.542,1452.13,2214.691,1450.868,2196.999z"/>
	<path style="fill-rule:evenodd;clip-rule:evenodd;fill:#DDDDDD;stroke:#000000;stroke-width:8.5039;stroke-miterlimit:2.6131;" d="
		M1601.723,2174.723c-30.338-21.251-54.999-14.565-73.982,20.062c11.369,13.434,27.976,28.169,49.822,44.206
		c7.829,4.594,15.062,2.883,21.695-5.132C1602.813,2208.305,1603.635,2188.593,1601.723,2174.723z"/>
	<path style="fill-rule:evenodd;clip-rule:evenodd;fill:#DDDDDD;stroke:#000000;stroke-width:8.5039;stroke-miterlimit:2.6131;" d="
		M1098.89,2216.556c-16.664-49.632-50.321-62.726-100.973-39.281c1.654,24.821,8.171,55.517,19.555,92.09
		c5.048,11.795,14.709,15.921,28.98,12.373C1071.943,2255.661,1089.423,2233.934,1098.89,2216.556z"/>
	<path style="fill-rule:evenodd;clip-rule:evenodd;fill:#DDDDDD;stroke:#000000;stroke-width:8.5039;stroke-miterlimit:2.6131;" d="
		M929.018,2169.503c-9.802-44.962-37.953-59.629-84.456-44.001c-0.935,21.844,1.817,49.289,8.257,82.335
		c3.28,10.79,11.326,15.32,24.134,13.589C901.726,2201.086,919.081,2183.779,929.018,2169.503z"/>
	<path style="fill-rule:evenodd;clip-rule:evenodd;fill:#DDDDDD;stroke:#000000;stroke-width:8.5039;stroke-miterlimit:2.6131;" d="
		M786.243,2111.643c-2.423-39.594-24.47-55.799-66.144-48.616c-3.676,18.485-4.95,42.227-3.82,71.227
		c1.372,9.624,7.628,14.544,18.768,14.757C758.83,2134.95,775.896,2122.494,786.243,2111.643z"/>
</g>
<g id="Layer_1">
</g>
</svg>
