<?xml version="1.0" encoding="iso-8859-1"?>
<!-- Generator: Adobe Illustrator 21.1.0, SVG Export Plug-In . SVG Version: 6.00 Build 0)  -->
<svg version="1.1" xmlns="http://www.w3.org/2000/svg" xmlns:xlink="http://www.w3.org/1999/xlink" x="0px" y="0px"
	 viewBox="0 0 2500 2500" style="enable-background:new 0 0 2500 2500;" xml:space="preserve">
<g id="White_Shirt">
	<path style="fill-rule:evenodd;clip-rule:evenodd;fill:#FFFFFF;" d="M1634.754,2148.807c1.927,5.057,0,0-5.78-15.17l-26.192,2.763
		l0.003,0.001c-29.47,61.966-189.929,58.995-254.948,60.108c-259.599,4.447-472.17-48.054-637.709-157.502
		C580.824,2055.622,354.002,2296.891,300,2500h1618C1826.858,2320.131,1699.317,2185.588,1634.754,2148.807z"/>
	<path d="M1921.838,2497.953c-52.422-103.453-111.68-182.186-152.16-230.017c-47.648-56.301-96.657-101.775-131.49-122.059
		l-5.24-13.755c-0.688-1.804-2.514-2.915-4.42-2.715l-26.191,2.764c-1.548,0.163-2.844,1.149-3.445,2.517
		c-26.341,54.989-167.671,56.593-235.615,57.365c-5.611,0.064-10.811,0.123-15.512,0.204
		c-257.506,4.411-471.255-48.344-635.291-156.798c-0.851-0.562-1.872-0.795-2.887-0.671
		c-63.114,8.11-151.304,68.642-235.909,161.923c-40.95,45.149-78.518,95.538-108.641,145.719
		c-32.805,54.65-56.069,107.297-69.145,156.477c-0.096,0.361-0.138,0.728-0.138,1.093h8.572l1.925-6.625l0.01-0.005
		c26.418-92.389,89.352-197.931,173.716-290.945c39.791-43.871,81.821-81.72,121.548-109.454
		c40.329-28.155,77.485-45.256,107.594-49.536c82.484,54.297,177.882,95.059,283.573,121.162
		c106.146,26.215,225.66,38.395,355.219,36.163c4.687-0.08,9.869-0.139,15.464-0.202c74.146-0.843,211.385-2.402,242.165-60.173
		l20.627-2.176l4.615,12.111c0.028,0.073,0.057,0.148,0.086,0.227l0.634,1.664l0.073-0.028c0.886,1.744,2.336,3.436,5.005,2.635
		c61.333,37.311,182.281,162.978,272.64,337.181l0.032,0.001l0.434,0.897c0.471,0.91,0.947,1.814,1.416,2.727L1912,2498l1.125,2
		h9.167C1922.313,2499.301,1922.164,2498.597,1921.838,2497.953z"/>
	
		<polyline style="fill-rule:evenodd;clip-rule:evenodd;fill:none;stroke:#000000;stroke-width:8.5039;stroke-miterlimit:2.6131;" points="
		632.781,2072.986 1170.5,2376.5 1348,2197 1382.503,2500 	"/>
	
		<polyline style="fill-rule:evenodd;clip-rule:evenodd;fill:none;stroke:#000000;stroke-width:8.5039;stroke-miterlimit:2.6131;" points="
		1637.5,2154.5 1536.5,2316.5 1423.605,2225.138 1378.5,2196.5 	"/>
	
		<line style="fill-rule:evenodd;clip-rule:evenodd;fill:#FFFFFF;stroke:#000000;stroke-width:8.5039;stroke-miterlimit:2.6131;" x1="1434" y1="2500" x2="1387" y2="2222"/>
	
		<circle style="fill-rule:evenodd;clip-rule:evenodd;stroke:#000000;stroke-width:8.5039;stroke-miterlimit:2.6131;" cx="1369.5" cy="2216.5" r="19"/>
	
		<circle style="fill-rule:evenodd;clip-rule:evenodd;stroke:#000000;stroke-width:8.5039;stroke-miterlimit:2.6131;" cx="1387" cy="2348" r="20.5"/>
	
		<circle style="fill-rule:evenodd;clip-rule:evenodd;stroke:#000000;stroke-width:8.5039;stroke-miterlimit:2.6131;" cx="1402" cy="2449" r="22.5"/>
</g>
<g id="Layer_1">
</g>
</svg>
