<?xml version="1.0" encoding="iso-8859-1"?>
<!-- Generator: Adobe Illustrator 21.1.0, SVG Export Plug-In . SVG Version: 6.00 Build 0)  -->
<svg version="1.1" xmlns="http://www.w3.org/2000/svg" xmlns:xlink="http://www.w3.org/1999/xlink" x="0px" y="0px"
	 viewBox="0 0 2500 2500" style="enable-background:new 0 0 2500 2500;" xml:space="preserve">
<g id="Darth_Pepe">
	<path style="fill-rule:evenodd;clip-rule:evenodd;" d="M1634.754,2148.807c1.927,5.057,0,0-5.78-15.17l-26.192,2.763l0.003,0.001
		c-29.47,61.966-189.929,58.995-254.948,60.108c-259.599,4.447-472.17-48.054-637.709-157.502
		C580.824,2055.622,354.002,2296.891,300,2500h1618C1826.858,2320.131,1699.317,2185.588,1634.754,2148.807z"/>
	<path style="fill-rule:evenodd;clip-rule:evenodd;fill:#000001;stroke:#000001;stroke-width:0.5;stroke-miterlimit:2.6131;" d="
		M2005.5,1329.5c-695.016-259.275-1129.057-15.901-1235.407,757.183c7.759,62.559,2.795,117.83-14.895,165.817
		c295.226,0,552.076,0,847.302,0c52-150,150-124,356-239c58.268-33.321,60.814-35.514,116-65
		C2086.256,1773.173,2067.281,1559.129,2005.5,1329.5z"/>
	
		<path style="fill-rule:evenodd;clip-rule:evenodd;fill:#191919;stroke:#000000;stroke-width:8.5039;stroke-linecap:round;stroke-linejoin:round;stroke-miterlimit:2.6131;" d="
		M867.603,1293.527c135.408-338.495,331.41-420.844,588.004-247.048c241.577-117.709,380.271-75.33,416.082,127.137
		c85.736,16.593,133.412,45.005,143.028,85.238c38.849,13.16,55.222,33.628,49.121,61.401
		c34.595,16.186,41.096,32.078,19.504,47.676c27.655,37.786,20.431,64.754-21.671,80.905c15.662,25.919-1.675,43.978-52.01,54.177
		c-17.8,44.837-54.641,74.213-110.522,88.128c78.07,53.384,133.361,153.359,109.076,195.761
		C1911.489,1973.108,1862.5,2013.5,1695.5,2090.5c-47,16-109,27-173,38c-84.606,9.871-95.396,18.86-245.317,16.694
		c-265.722-14.316-452.573-58.139-560.555-131.47C551.93,1890.923,644.393,1306.53,867.603,1293.527z"/>
	
		<path style="fill-rule:evenodd;clip-rule:evenodd;fill:none;stroke:#000000;stroke-width:8.5039;stroke-linecap:round;stroke-linejoin:round;stroke-miterlimit:2.6131;" d="
		M867.603,1293.527c-6.666,40.876-12.204,79.643-16.615,116.301"/>
	
		<path style="fill-rule:evenodd;clip-rule:evenodd;fill:none;stroke:#000000;stroke-width:8.5039;stroke-linecap:round;stroke-linejoin:round;stroke-miterlimit:2.6131;" d="
		M1525.676,1561.525c-51.268,27.946-114.836,54.192-190.704,78.737"/>
	
		<path style="fill-rule:evenodd;clip-rule:evenodd;fill:none;stroke:#000000;stroke-width:8.5039;stroke-linecap:round;stroke-linejoin:round;stroke-miterlimit:2.6131;" d="
		M1661.48,1575.972c43.172,17.706,78.809,35.524,106.91,53.455"/>
	
		<path style="fill-rule:evenodd;clip-rule:evenodd;fill:none;stroke:#000000;stroke-width:8.5039;stroke-linecap:round;stroke-linejoin:round;stroke-miterlimit:2.6131;" d="
		M1899.139,1591.141c-51.724,10.804-107.176,16.714-166.355,17.731"/>
	
		<path style="fill-rule:evenodd;clip-rule:evenodd;fill:none;stroke:#000000;stroke-width:8.5039;stroke-linecap:round;stroke-linejoin:round;stroke-miterlimit:2.6131;" d="
		M1153.659,1482.787c60.118,38.148,137.411,57.893,231.879,59.234c39.01-0.234,79.221,0.007,120.635,0.722
		c32.19-13.808,57.713-18.865,76.571-15.17c48.169-23.217,60.691-48.499,37.562-75.848"/>
	
		<path style="fill-rule:evenodd;clip-rule:evenodd;fill:none;stroke:#000000;stroke-width:8.5039;stroke-linecap:round;stroke-linejoin:round;stroke-miterlimit:2.6131;" d="
		M1455.607,1046.479c34.191,41.927,51.047,84.546,50.566,127.858c-162.616-97.202-306.126-95.756-430.529,4.334"/>
	
		<path style="fill-rule:evenodd;clip-rule:evenodd;fill:none;stroke:#000000;stroke-width:8.5039;stroke-linecap:round;stroke-linejoin:round;stroke-miterlimit:2.6131;" d="
		M1871.688,1173.615c-13.481,2.256-24.317,0.329-32.506-5.78c-3.124-4.977-8.661-7.145-16.614-6.501
		c-15.036,5.566-26.834,5.807-35.396,0.723c-9.792-4.853-23.998-7.501-42.619-7.946c-88.686-4.572-168.146,2.17-238.38,20.226
		c20.481,29.685,50.58,58.098,90.295,85.239c17.034,9.995,18.72,25.887,5.057,47.676c-140.781-70.757-280.197-57.274-418.249,40.452
		c-23.248,12.323-56.235,17.861-98.964,16.615c-20.681-3.351-31.758,4.112-33.229,22.393c-0.159,13.995,10.436,21.459,31.784,22.394
		c26.147,0.214,47.337,2.38,63.568,6.501"/>
	
		<path style="fill-rule:evenodd;clip-rule:evenodd;fill:none;stroke:#000000;stroke-width:8.5039;stroke-linecap:round;stroke-linejoin:round;stroke-miterlimit:2.6131;" d="
		M1559.124,1231.308c-146.388-18.638-254.816-7.048-325.282,34.77c-40.94,36.795-86.93,57.984-137.972,63.568"/>

		<path style="fill-rule:evenodd;clip-rule:evenodd;fill:none;stroke:#000000;stroke-width:8.5039;stroke-linecap:round;stroke-linejoin:round;stroke-miterlimit:2.6131;" d="
		M1609.225,1290.928c119.034-61.942,254.197-72.633,405.492-32.075"/>

		<path style="fill-rule:evenodd;clip-rule:evenodd;fill:none;stroke:#000000;stroke-width:8.5039;stroke-linecap:round;stroke-linejoin:round;stroke-miterlimit:2.6131;" d="
		M1618.139,1315.921c160.721-64.233,309.287-62.788,445.699,4.334"/>

	
		<path style="fill-rule:evenodd;clip-rule:evenodd;fill:none;stroke:#000000;stroke-width:8.5039;stroke-linecap:round;stroke-linejoin:round;stroke-miterlimit:2.6131;" d="
		M1969.207,1894.534c-127.733,19.224-249.637,26.119-365.711,20.687c-138.029-6.46-347.82-75.145-452.727-54.638"/>
	<path style="fill-rule:evenodd;clip-rule:evenodd;fill:#000001;stroke:#505050;stroke-width:5.6693;stroke-miterlimit:2.6131;" d="
		M412.3,2128.921c-1.823,47.878,32.057,43.055,46.531,43.096c232.612-42.71,261.313-42.449,452.101-87.216
		c46.694-10.866,60.72-34.55,42.079-71.05C905.453,1803.083,974,1533,1146,1295c-210,198-275.934,416.221-362.237,759.741
		c-75.781,41.269-176.445,65.324-301.986,72.163C475.867,2127.225,418.322,2128.675,412.3,2128.921z"/>
	<path style="fill-rule:evenodd;clip-rule:evenodd;fill:#000001;stroke:#505050;stroke-width:5.6693;stroke-miterlimit:2.6131;" d="
		M648.272,1443.154c-110.646,285.899-189.304,514.487-235.972,685.767c158.356-0.831,282.178-25.558,371.463-74.181
		C870.066,1711.221,1023.576,1311.445,1291,1206c104.25-39.75,173.278-24.959,248.365,22.484
		c25.029,15.814,50.731,35.257,78.635,57.516c144.638-115.33,309.414-104.026,399-33c-4-45-25-50-40.244-64.849
		c-158.831-404.802-427.412-580.81-805.743-528.023c-38.348,5.351-77.824,13.052-118.427,23.104
		C775.608,749.858,640.836,1003.165,648.272,1443.154z"/>

	<path style="fill-rule:evenodd;clip-rule:evenodd;fill:#000001;stroke:#505050;stroke-width:5.6693;stroke-miterlimit:2.6131;" d="
		M1191.842,657.45"/>
	<path style="fill-rule:evenodd;clip-rule:evenodd;fill:#000001;stroke:#505050;stroke-width:5.6693;stroke-miterlimit:2.6131;" d="
		M1202.815,655.45c0,0,200.185,113.55,256.185,257.55s45.182,294.588,45.182,294.588"/>
	<path style="fill-rule:evenodd;clip-rule:evenodd;fill:#000001;stroke:#505050;stroke-width:5.6693;stroke-miterlimit:2.6131;" d="
		M1323,651c0,0,207.777,133.93,286,257c75,118,102,323,102,323"/>
</g>
<g id="Layer_1">
</g>
</svg>
