<svg xmlns="http://www.w3.org/2000/svg" viewBox="0 0 2500 2500">
  <title>PepeFrogDracula</title>
  <g>
    <path d="M1634.12,2148.81l-5.78-15.17-26.19,2.76h0c-29.47,62-189.93,59-254.95,60.11Q957.8,2203.18,709.5,2039c-129.3,16.62-356.12,257.88-410.13,461h1618c-91.14-179.87-218.68-314.41-283.25-351.19" style="fill-rule: evenodd"/>
    <path d="M1558.16,2172.13c-60.71,25-162.42,23.55-211,24.38q-5,.09-10,0.14c37.69,71,68.88,142,90.14,222.36a811.14,811.14,0,0,1,16,81H1750.9a850.86,850.86,0,0,0-149.54-280C1587.56,2203.05,1574.14,2186.11,1558.16,2172.13Z" style="fill: #fff;stroke: #000;stroke-linecap: round;stroke-linejoin: round;stroke-width: 8px"/>
    <path d="M1921.21,2498a1201.83,1201.83,0,0,0-152.16-230c-47.65-56.3-96.66-101.78-131.49-122.06l-5.24-13.75a4.26,4.26,0,0,0-4.42-2.71l-26.19,2.76a4.25,4.25,0,0,0-3.45,2.52c-26.34,55-167.67,56.59-235.62,57.37-5.61.06-10.81,0.12-15.51,0.21-257.51,4.41-471.26-48.34-635.29-156.8a4.28,4.28,0,0,0-2.89-.67c-63.11,8.11-151.31,68.64-235.91,161.92-41,45.15-78.52,95.54-108.64,145.72-32.8,54.65-56.07,107.3-69.15,156.48a4.26,4.26,0,0,0-.14,1.09h8.57l1.92-6.62h0C332,2401,395,2295.44,479.34,2202.42c39.79-43.87,81.82-81.72,121.55-109.45,40.33-28.16,77.48-45.26,107.59-49.54,82.48,54.3,177.88,95.06,283.57,121.16,106.15,26.21,225.66,38.39,355.22,36.16,4.69-.08,9.87-0.14,15.46-0.2,74.15-.84,211.38-2.4,242.17-60.17l20.63-2.18,4.62,12.11,0.09,0.23,0.63,1.66,0.07,0c0.89,1.74,2.34,3.44,5,2.63,61.33,37.31,182.28,163,272.64,337.18h0l0.43,0.9,1.42,2.73,0.9,2.38,1.13,2h9.17a4.25,4.25,0,0,0-.45-2"/>
    <path d="M1410.37,2235s-508-448-816-444-436,312-436,312,152-48,564,20S1410.37,2235,1410.37,2235Z" style="fill: #ff231e;stroke: #000;stroke-width: 9px"/>
    <g>
      <g>
        <path d="M1578.88,2185.16s153.64-127.78,240.2-110.35,22.07,69.65,22.07,69.65,56.73,10.59,49.48,55.41-25.25,44.32-25.25,44.32,44.32,25.25,28.4,57.82-45.57,19.74-45.57,19.74,26.76,49.1-28,47.19c-101.72-3.55-242.78-132.78-242.78-132.78Z" style="fill: #fff;stroke: #000;stroke-linecap: round;stroke-linejoin: round;stroke-width: 8px"/>
        <path d="M1475.65,2197.38s8.89-31.76,49.32-46.64,67.75,9.89,79.19,30.22,14.54,52.43-5.78,63.86-68.75,26.09-96.19,5.32S1475.65,2197.38,1475.65,2197.38Z" style="fill: #fff;stroke: #000;stroke-linecap: round;stroke-linejoin: round;stroke-width: 8px"/>
        <path d="M1492.2,2177.83s-213.57-90-321.53-93-50.77,98.62-50.77,98.62-41.1,38.87-14.12,75.64,83,38.33,83,38.33-53.76,62.53-14.23,79.63,112.85-28.86,112.85-28.86-50.1,74.63,26.09,68.75,200.61-162.47,197.39-190.57S1512,2186.38,1492.2,2177.83Z" style="fill: #fff;stroke: #000;stroke-linecap: round;stroke-linejoin: round;stroke-width: 8px"/>
      </g>
      <path d="M1498.29,2206.5c-38,.61-70.16,16.52-101.26,31.89-9.92,4.9-20.17,10-30.47,14.48a4.5,4.5,0,1,0,3.61,8.25c10.5-4.59,20.85-9.71,30.86-14.66,31.6-15.62,61.44-30.38,97.41-31A4.5,4.5,0,0,0,1498.29,2206.5Z"/>
      <path d="M1342.47,2186.92a4.5,4.5,0,0,0,3.8,8.16c32.78-15.28,65.9-10.2,101-4.81,14.71,2.26,29.92,4.59,44.93,5.23a4.5,4.5,0,0,0,.38-9c-14.52-.62-29.48-2.91-44-5.13C1413.75,2176,1377.71,2170.49,1342.47,2186.92Z"/>
      <path d="M1673.51,2168.4c-34.31,3.83-52.48,12.2-55.53,25.6a4.5,4.5,0,0,0,8.78,2c3.82-16.76,59.41-22.38,109.44-20.5a4.5,4.5,0,1,0,.34-9C1728.45,2166.2,1700,2165.44,1673.51,2168.4Z"/>
      <path d="M1612.22,2216.5a4.5,4.5,0,1,0,.3,9c57.77-1.91,97.64,4.72,101.57,16.88a4.5,4.5,0,0,0,8.56-2.76C1715.59,2217.73,1658.7,2215,1612.22,2216.5Z"/>
    </g>
  </g>
</svg>
