<?xml version="1.0" encoding="iso-8859-1"?>
<svg version="1.1" xmlns="http://www.w3.org/2000/svg" xmlns:xlink="http://www.w3.org/1999/xlink" x="0px" y="0px"
	 viewBox="0 0 2500 2500" style="enable-background:new 0 0 2500 2500;" xml:space="preserve">
    <g>
      <path d="M1634.31,2148.81l-5.78-15.17-26.19,2.76h0c-29.47,62-189.93,59-254.95,60.11Q958,2203.18,709.69,2039c-129.3,16.62-356.12,257.88-410.13,461h1618c-91.14-179.87-218.68-314.41-283.25-351.19" style="fill: #3b434f;fill-rule: evenodd"/>
      <path d="M1921.4,2498a1201.79,1201.79,0,0,0-152.16-230c-47.65-56.3-96.66-101.78-131.49-122.06l-5.24-13.75a4.26,4.26,0,0,0-4.42-2.71l-26.19,2.76a4.25,4.25,0,0,0-3.45,2.52c-26.34,55-167.67,56.59-235.61,57.37-5.61.06-10.81,0.12-15.51,0.2-257.5,4.41-471.25-48.34-635.29-156.8a4.29,4.29,0,0,0-2.89-.67c-63.12,8.11-151.31,68.64-235.91,161.92-41,45.15-78.52,95.54-108.64,145.72-32.8,54.65-56.07,107.3-69.14,156.48a4.25,4.25,0,0,0-.14,1.09h8.57l1.93-6.62h0c26.42-92.39,89.35-197.93,173.71-290.95,39.79-43.87,81.82-81.72,121.55-109.45,40.33-28.16,77.48-45.26,107.59-49.54,82.48,54.3,177.88,95.06,283.57,121.16,106.15,26.21,225.66,38.39,355.22,36.16,4.69-.08,9.87-0.14,15.46-0.2,74.15-.84,211.38-2.4,242.17-60.17l20.63-2.18,4.62,12.11,0.09,0.23,0.63,1.66,0.07,0c0.88,1.75,2.34,3.44,5,2.64,61.33,37.31,182.28,163,272.64,337.18h0l0.44,0.9,1.42,2.73,0.9,2.38,1.13,2h9.17a4.26,4.26,0,0,0-.46-2"/>
      <path d="M707.33,2035.77a4,4,0,0,0-.88,5.59c0.61,0.83,61.74,84.48,148.53,167.38,51,48.75,100.86,87.74,148.07,115.88,59.31,35.35,114.73,53.62,164.71,54.32,72.3,1,128.54-17.79,167.14-55.87,42.55-42,50.9-94.55,52.54-114.28,16.26,12.5,63.15,47.54,117,78.85,90.27,52.45,156.23,69.92,196,51.94,21.6-9.76,33.76-24.4,36.14-43.51,7.06-56.69-75.07-135.64-107.31-161.28a4,4,0,0,0-5,6.26c29.16,23.19,110.92,101.26,104.35,154-2,16.16-12.61,28.68-31.5,37.21-89.73,40.52-308.69-132.74-310.89-134.5a4,4,0,0,0-6.49,3.13c0,0.67-.67,67.33-50.63,116.53-37,36.46-91.31,54.46-161.34,53.49-48.55-.67-102.6-18.56-160.67-53.16-46.69-27.82-96-66.42-146.61-114.74-86.29-82.4-147.07-165.55-147.67-166.38A4,4,0,0,0,707.33,2035.77Z"/>
      <path d="M1388.11,2206.31a4,4,0,0,0-1.88,5.33c0.66,1.38,66.1,139.19,92.69,278.05a4,4,0,1,0,7.86-1.5c-26.79-139.9-92.67-278.62-93.33-280A4,4,0,0,0,1388.11,2206.31Z"/>
      <ellipse cx="1453.91" cy="2300.87" rx="18.39" ry="20" transform="translate(-979.18 1081.06) rotate(-31.08)" style="fill: #fff;stroke: #000;stroke-width: 5px"/>
      <ellipse cx="1508.91" cy="2440.87" rx="18.39" ry="20" transform="translate(-1043.56 1129.56) rotate(-31.08)" style="fill: #fff;stroke: #000;stroke-width: 5px"/>
      <path d="M1636.11,2392.43s104.31,0.29,142.26-22.77c0,0,22.1,49.91.74,66.27S1649.05,2481.75,1636.11,2392.43Z" style="fill: #3b434f;stroke: #00001a;stroke-linecap: round;stroke-linejoin: round;stroke-width: 7px"/>
      <path d="M1056.16,2416.29s103.29,14.5,144-3.17c0,0,15.09,52.46-8.3,65.75S1056.81,2506.53,1056.16,2416.29Z" style="fill: #3b434f;stroke: #00001a;stroke-linecap: round;stroke-linejoin: round;stroke-width: 7px"/>
    </g>
</svg>