<?xml version="1.0" encoding="iso-8859-1"?>
<svg version="1.1"
    xmlns="http://www.w3.org/2000/svg"
    xmlns:xlink="http://www.w3.org/1999/xlink" x="0px" y="0px"
	 viewBox="0 0 2500 2500" style="enable-background:new 0 0 2500 2500;" xml:space="preserve">
    <g id="Layer-1">
        <path style="fill-rule:evenodd;clip-rule:evenodd;fill:#68984E;stroke:#000;stroke-linecap:round;stroke-linejoin:round;stroke-width:7px" d="M1634.754,2148.807c1.927,5.057,0,0-5.78-15.17l-26.192,2.763
            l0.003,0.001c-29.47,61.966-189.929,58.995-254.948,60.108c-259.599,4.447-472.17-48.054-637.709-157.502
            C580.824,2055.622,354.002,2296.891,300,2500h1618C1826.858,2320.131,1699.317,2185.588,1634.754,2148.807z"/>
        <path d="M363.635,2483.03c-1.5,-4.5 -6,-71.997 -9,-86.996c-3,-14.999 -14.999,-46.497 -37.498,-52.497c-22.499,-6 -71.996,-4.5 -71.996,-4.5l-4.144,3.744c0,0 -6.356,29.254 -24.355,33.754c-17.999,4.5 -31.499,31.499 -13.499,29.999c17.999,-1.5 43.498,-23.999 43.498,-23.999c0,0 -28.498,32.999 -16.499,41.998c11.999,8.999 32.998,-20.999 32.998,-20.999c0,0 -29.999,49.496 -10.5,44.997c19.499,-4.499 32.999,-29.998 32.999,-29.998c0,0 8.999,16.5 1.5,26.999c-7.5,10.499 -19.5,31.498 -4.5,34.498c14.999,3 26.999,-4.5 26.999,-4.5c0,0 -3,22.499 5.999,19.499c9,-3 20.999,-14.999 20.999,-14.999c0,0 1.5,14.999 9,13.499c7.499,-1.5 19.499,-5.999 17.999,-10.499Z" style="fill:#fff;fill-rule:nonzero;"/>
        <path d="M316.235,2346.92c21.671,5.779 32.59,37.909 34.968,49.802c1.621,8.102 3.792,33.064 5.536,53.121c1.856,21.338 2.74,30.955 3.446,33.831c-1.015,1.61 -7.559,4.889 -15.236,6.425c-0.443,0.088 -0.727,0.027 -1.083,-0.236c-1.994,-1.471 -3.415,-6.947 -3.748,-10.184c-0.138,-1.344 -1.036,-2.49 -2.308,-2.943c-1.273,-0.453 -2.693,-0.134 -3.648,0.82c-3.181,3.176 -12.907,11.913 -19.632,14.154c-0.226,0.075 -0.321,0.079 -0.38,0.082c-0.944,-0.818 -1.493,-4.465 -1.493,-8.829c0,-2.235 0.144,-4.655 0.45,-6.971c0.02,-0.153 0.03,-0.305 0.03,-0.458c0,-1.176 -0.596,-2.286 -1.601,-2.936c-1.134,-0.736 -2.595,-0.749 -3.745,-0.04c-0.109,0.067 -11.092,6.716 -24.466,4.042c-2.844,-0.57 -3.632,-1.796 -3.977,-2.669c-1.746,-4.416 2.529,-15.011 10.639,-26.364c8.674,-12.143 -0.866,-29.957 -1.276,-30.709c-0.616,-1.13 -1.804,-1.83 -3.092,-1.823c-1.288,0.007 -2.468,0.722 -3.073,1.86c-0.128,0.241 -13.006,24.146 -30.693,28.227c-1.557,0.359 -2.071,0.123 -2.076,0.121c-2.014,-2.574 4.66,-20.589 16.356,-39.894c0.978,-1.615 0.5,-3.713 -1.081,-4.744c-1.581,-1.032 -3.696,-0.624 -4.779,0.922c-3.794,5.412 -15.491,19.754 -23.934,21.099c-1.637,0.261 -2.941,-0.023 -4.097,-0.892c-0.896,-0.671 -1.36,-1.568 -1.505,-2.907c-0.875,-8.095 10.916,-25.153 18.553,-34.004c1.202,-1.393 1.12,-3.48 -0.188,-4.774c-1.309,-1.295 -3.396,-1.355 -4.776,-0.138c-0.247,0.218 -24.847,21.75 -41.474,23.136c-4.284,0.357 -4.541,-1.199 -4.652,-1.864c-0.046,-0.28 -0.069,-0.576 -0.069,-0.886c0,-6.11 8.816,-17.73 19.36,-20.365c18.036,-4.509 25.258,-29.677 26.655,-35.278c0.743,-0.672 1.53,-1.382 2.378,-2.149c7.787,-0.177 49.921,-0.862 69.711,4.415Zm-71.2,-11.38c-0.83,0.024 -1.624,0.345 -2.241,0.901l-4.144,3.745c-0.542,0.489 -0.917,1.137 -1.073,1.85c-0.059,0.272 -6.122,27.189 -21.784,31.105c-14.507,3.627 -26.1,19.516 -24.499,29.185c0.334,2.015 2.195,8.526 12.139,7.697c8.679,-0.723 18.718,-5.809 27.173,-11.195c-3.793,6.447 -6.909,13.467 -6.909,19.201c0,0.528 0.026,1.044 0.08,1.548c0.351,3.245 1.825,5.928 4.264,7.757c2.665,1.999 5.917,2.761 9.404,2.204c3.535,-0.564 7.157,-2.481 10.594,-4.979c-3.07,6.986 -5.38,13.959 -5.38,19.141c0,2.299 0.453,4.245 1.495,5.686c1.328,1.836 4.015,3.769 9.273,2.556c14.815,-3.418 26.097,-17.471 31.6,-25.708c0.856,2.641 1.612,5.83 1.612,9.034c0,2.916 -0.621,5.813 -2.348,8.231c-4.949,6.929 -12.32,18.803 -12.32,28.06c0,1.76 0.267,3.426 0.867,4.945c1.007,2.545 3.405,5.817 9.114,6.959c9.821,1.965 18.359,-0.159 23.71,-2.208c-0.021,0.615 -0.042,1.233 -0.042,1.882c0,5.273 0.805,11.37 4.119,14.109c1.912,1.581 4.4,1.973 7.005,1.105c6.089,-2.03 13.166,-7.576 17.707,-11.537c0.953,3.172 2.552,6.679 5.251,8.675c1.947,1.441 4.236,1.95 6.62,1.473c0.66,-0.132 16.2,-3.307 20.026,-9.899c1.218,-2.099 1.003,-3.953 0.607,-5.138l0.012,0.038c-0.59,-2.096 -2.005,-18.369 -3.254,-32.727c-1.851,-21.282 -3.949,-45.404 -5.646,-53.887c-3.253,-16.266 -15.806,-48.733 -40.028,-55.193c-22.733,-6.062 -70.962,-4.678 -73.004,-4.616Z" style="fill-rule:nonzero;"/>
        <path d="M1779.99,2484.23c1.5,-4.5 5.999,-71.997 8.999,-86.996c3,-14.999 14.999,-46.497 37.498,-52.497c22.499,-6 71.997,-4.5 71.997,-4.5l4.144,3.744c0,0 6.355,29.254 24.354,33.754c17.999,4.5 31.499,31.499 13.5,29.999c-18,-1.5 -43.498,-23.999 -43.498,-23.999c0,0 28.498,32.999 16.499,41.998c-11.999,8.999 -32.998,-20.999 -32.998,-20.999c0,0 29.998,49.496 10.499,44.997c-19.499,-4.499 -32.998,-29.998 -32.998,-29.998c0,0 -9,16.5 -1.5,26.999c7.499,10.499 19.499,31.498 4.5,34.498c-15,3 -26.999,-4.5 -26.999,-4.5c0,0 3,22.5 -6,19.5c-8.999,-3 -20.999,-15 -20.999,-15c0,0 -1.5,15 -8.999,13.5c-7.5,-1.5 -19.499,-6 -17.999,-10.5Z" style="fill:#fff;fill-rule:nonzero;"/>
        <path d="M1897.1,2343.7c0.847,0.767 1.635,1.478 2.378,2.15c1.397,5.6 8.619,30.768 26.655,35.277c10.544,2.636 19.359,14.255 19.359,20.365c0,0.311 -0.022,0.607 -0.068,0.886c-0.111,0.665 -0.368,2.222 -4.653,1.864c-16.627,-1.386 -41.226,-22.918 -41.473,-23.136c-1.38,-1.216 -3.468,-1.157 -4.776,0.138c-1.308,1.294 -1.39,3.381 -0.188,4.774c7.637,8.851 19.428,25.91 18.553,34.004c-0.145,1.339 -0.609,2.236 -1.505,2.908c-1.156,0.868 -2.46,1.152 -4.097,0.891c-8.443,-1.345 -20.14,-15.686 -23.934,-21.098c-1.083,-1.546 -3.198,-1.955 -4.779,-0.923c-1.581,1.031 -2.059,3.13 -1.081,4.744c11.696,19.306 18.37,37.32 16.356,39.894c-0.005,0.002 -0.519,0.239 -2.077,-0.121c-17.686,-4.081 -30.565,-27.986 -30.693,-28.227c-0.604,-1.138 -1.784,-1.853 -3.072,-1.86c-1.288,-0.006 -2.476,0.693 -3.093,1.824c-0.409,0.752 -9.949,18.565 -1.275,30.709c8.109,11.352 12.384,21.947 10.638,26.363c-0.344,0.873 -1.132,2.1 -3.976,2.669c-13.374,2.675 -24.358,-3.975 -24.467,-4.042c-1.149,-0.709 -2.61,-0.695 -3.744,0.04c-1.005,0.65 -1.602,1.761 -1.602,2.936c0,0.153 0.01,0.305 0.031,0.458c0.306,2.316 0.45,4.736 0.45,6.971c0,4.364 -0.549,8.011 -1.493,8.829c-0.059,-0.003 -0.154,-0.007 -0.38,-0.082c-6.725,-2.241 -16.451,-10.977 -19.632,-14.154c-0.955,-0.954 -2.375,-1.273 -3.648,-0.819c-1.272,0.453 -2.17,1.598 -2.308,2.942c-0.333,3.237 -1.754,8.713 -3.748,10.185c-0.356,0.262 -0.64,0.323 -1.083,0.235c-7.677,-1.536 -14.221,-4.815 -15.237,-6.425c0.706,-2.876 1.59,-12.493 3.447,-33.831c1.744,-20.057 3.915,-45.019 5.536,-53.121c2.378,-11.893 13.297,-44.023 34.968,-49.802c19.79,-5.277 61.924,-4.592 69.711,-4.415Zm-71.515,-2.349c-24.223,6.46 -36.775,38.927 -40.028,55.193c-1.698,8.483 -3.795,32.605 -5.646,53.888c-1.249,14.357 -2.664,30.63 -3.255,32.726l0.013,-0.038c-0.396,1.186 -0.611,3.039 0.606,5.138c3.827,6.593 19.367,9.767 20.027,9.899c2.384,0.478 4.673,-0.032 6.62,-1.472c2.699,-1.997 4.298,-5.503 5.251,-8.676c4.541,3.962 11.618,9.508 17.707,11.537c2.605,0.868 5.093,0.476 7.005,-1.105c3.314,-2.739 4.119,-8.836 4.119,-14.109c0,-0.648 -0.022,-1.267 -0.042,-1.882c5.35,2.049 13.889,4.173 23.71,2.208c5.709,-1.141 8.107,-4.414 9.113,-6.959c0.601,-1.518 0.867,-3.184 0.867,-4.945c0,-9.257 -7.37,-21.131 -12.319,-28.06c-1.728,-2.418 -2.349,-5.315 -2.349,-8.231c0,-3.203 0.756,-6.393 1.613,-9.033c5.503,8.236 16.785,22.29 31.599,25.708c5.258,1.213 7.946,-0.721 9.274,-2.557c1.042,-1.44 1.495,-3.387 1.495,-5.686c0,-5.182 -2.31,-12.155 -5.38,-19.141c3.437,2.498 7.059,4.415 10.594,4.979c3.487,0.557 6.739,-0.205 9.403,-2.204c2.439,-1.829 3.914,-4.511 4.265,-7.757c0.053,-0.504 0.08,-1.02 0.08,-1.547c0,-5.735 -3.116,-12.754 -6.909,-19.202c8.455,5.386 18.494,10.472 27.172,11.196c9.945,0.828 11.806,-5.683 12.139,-7.698c1.602,-9.669 -9.991,-25.558 -24.498,-29.185c-15.662,-3.916 -21.725,-30.833 -21.784,-31.105c-0.156,-0.713 -0.531,-1.361 -1.073,-1.85l-4.145,-3.744c-0.616,-0.557 -1.41,-0.877 -2.24,-0.902c-2.042,-0.062 -50.272,-1.446 -73.004,4.616Z" style="fill-rule:nonzero;"/>
        <path d="M1911,2456l-44,-68l40,-44c-112,-153 -278.025,-213.363 -278.025,-213.363c-74.026,62.636 -245.975,57.363 -245.975,57.363l-44,144l-100,-140c-372,-8 -532,-168 -532,-168c-320,56 -472,320 -472,320l72,52l-20,64c0,0 46.858,17.851 101.096,40l1477.13,0c28.396,-23.435 45.769,-44 45.769,-44Z" style="fill:#86493b;fill-rule:nonzero;"/>
        <path d="M1911,2456l-44,-68l40,-44c-112,-153 -278.025,-213.363 -278.025,-213.363c-74.026,62.636 -245.975,57.363 -245.975,57.363l-44,144l-100,-140c-372,-8 -532,-168 -532,-168c-320,56 -472,320 -472,320l72,52l-20,64c0,0 46.858,17.851 101.096,40l1477.13,0c28.396,-23.435 45.769,-44 45.769,-44Z" style="fill:#86493b;fill-rule:nonzero;"/>
        <path d="M1845,2345l26.884,-44.279c-29.724,-33.202 -61.387,-60.975 -91.698,-83.803c-3.642,26.032 -13.186,44.082 -13.186,44.082l20,12c-6,40 -66,88 -66,88l20,22c0,0 -192,72 -592,82c-400,10 -584,-54 -584,-54l18,-36c-98,-30 -160,-136 -160,-136l26,-20c-18.507,-10.41 -37.683,-35.538 -50.564,-54.878c-55.648,44.081 -96.8,89.564 -123.892,123.769c32.002,20.414 66.456,31.109 66.456,31.109l-20,40c48,84 212,104 212,104l-10.65,37l1279.13,0l-2.479,-19l60,-108l-14,-28Z" style="fill:#cf4238;fill-rule:nonzero;"/>
        <path d="M292.555,2457.31c2.213,-7.081 18.74,-59.968 18.74,-59.968c0.139,-0.443 0.205,-0.895 0.205,-1.342c0,-1.418 -0.672,-2.786 -1.865,-3.648c0,0 -62.529,-45.16 -68.638,-49.572c8.935,-14.46 46.603,-72.334 113.313,-134.715c45.003,-42.082 94.221,-77.946 146.289,-106.596c64.37,-35.42 133.315,-59.835 204.949,-72.622c8.566,8.055 48.605,43.523 126.025,80.219c50.503,23.939 106.46,43.346 166.316,57.685c74.084,17.747 154.403,27.711 238.74,29.671c2.515,3.521 98.709,138.193 98.709,138.193c0.996,1.395 2.696,2.102 4.388,1.826c1.69,-0.276 3.077,-1.488 3.578,-3.126c0,0 41.111,-134.547 43.008,-140.752c11.25,0.147 48.86,0.145 92.472,-5.291c68.695,-8.561 119.434,-25.904 150.984,-51.515c9.449,3.685 46.853,19.019 94.068,48.146c49.602,30.6 120.321,83.085 177.32,159.836c-4.417,4.858 -37.486,41.234 -37.486,41.234c-0.774,0.851 -1.17,1.936 -1.17,3.028c0,0.846 0.237,1.695 0.722,2.443c0,0 38.752,59.889 42.149,65.14c-5.818,6.481 -22.919,24.762 -47.416,44.416l14.301,0c25.867,-21.888 41.468,-40.25 42.182,-41.097c0.704,-0.833 1.062,-1.866 1.062,-2.904c0,-0.847 -0.238,-1.696 -0.722,-2.443c0,0 -38.67,-59.762 -42.118,-65.092c4.133,-4.547 37.67,-41.437 37.67,-41.437c0.775,-0.854 1.17,-1.939 1.17,-3.028c0,-0.93 -0.287,-1.862 -0.869,-2.657c-58.285,-79.622 -131.297,-133.8 -182.282,-165.23c-55.259,-34.062 -97.417,-49.551 -97.836,-49.705c-1.518,-0.551 -3.212,-0.248 -4.445,0.794c-71.845,60.793 -241.228,56.353 -242.93,56.301c-2.029,-0.062 -3.849,1.242 -4.442,3.183c0,0 -36.632,119.885 -41.335,135.279c-9.507,-13.31 -94.699,-132.579 -94.699,-132.579c-0.825,-1.156 -2.146,-1.854 -3.565,-1.884c-84.387,-1.814 -164.707,-11.71 -238.731,-29.411c-59.2,-14.156 -114.529,-33.309 -164.451,-56.925c-84.988,-40.206 -125.337,-79.952 -125.735,-80.349c-1.036,-1.034 -2.513,-1.502 -3.956,-1.249c-73.48,12.86 -144.183,37.795 -210.144,74.116c-52.748,29.045 -102.595,65.392 -148.155,108.032c-77.592,72.618 -116.442,139.374 -116.825,140.04c-0.406,0.705 -0.6,1.477 -0.6,2.242c0,1.402 0.655,2.777 1.865,3.651c0,0 64.496,46.581 69.373,50.103c-1.751,5.603 -19.033,60.907 -19.033,60.907c-0.14,0.446 -0.206,0.898 -0.206,1.343c0,1.82 1.113,3.523 2.899,4.204c0.825,0.314 41.555,15.858 90.715,35.795l23.792,0c-48.99,-20.159 -94.063,-37.585 -107.35,-42.69Z" style="fill-rule:nonzero;"/>
        <path d="M862.781,2236.92l108.19,-81.694c-50.664,-13.775 -93.564,-30.026 -129.09,-46.317l20.9,128.011Z" style="fill:#fff247;fill-rule:nonzero;stroke:#000;stroke-width:9px;"/>
        <path d="M1051.8,2308.93l82.353,-123.531c-41.545,-4.424 -79.82,-10.759 -114.925,-18.389l32.572,141.92Z" style="fill:#fff247;fill-rule:nonzero;stroke:#000;stroke-width:9px;"/>
        <path d="M697.764,2176.91l124.987,-77.12c-67.15,-33.218 -103.728,-64.677 -113.227,-73.405l-11.76,150.525Z" style="fill:#fff247;fill-rule:nonzero;stroke:#000;stroke-width:9px;"/>
        <path d="M1679.27,2153.54c-30.511,-15.71 -50.293,-22.903 -50.293,-22.903c-4.155,3.514 -8.619,6.813 -13.341,9.914l69.229,51.363l-5.595,-38.374Z" style="fill:#fff247;fill-rule:nonzero;stroke:#000;stroke-width:9px;"/>
        <path d="M1522.95,2175.42l83.904,76.501l-11.616,-99.899c-21.89,10.586 -47.081,18.089 -72.288,23.398Z" style="fill:#fff247;fill-rule:nonzero;stroke:#000;stroke-width:9px;"/>
        <path d="M1383,2188l91.842,117.925l25.783,-126.339c-61.756,10.127 -117.625,8.414 -117.625,8.414Z" style="fill:#fff247;fill-rule:nonzero;stroke:#000;stroke-width:9px;"/>
        <path d="M1157.35,2187.63l53.462,127.293l29.574,-120.982l-1.389,-1.944c-28.45,-0.611 -55.654,-2.117 -81.647,-4.367Z" style="fill:#fff247;fill-rule:nonzero;stroke:#000;stroke-width:9px;"/>
        <path d="M1773.15,2259.68c-1.281,2.126 -0.595,4.889 1.529,6.174c0.488,0.296 49.321,30.644 88.168,123.876c0.956,2.294 3.591,3.379 5.884,2.424c2.294,-0.956 3.379,-3.591 2.424,-5.884c-40.108,-96.26 -89.746,-126.873 -91.839,-128.128c-2.128,-1.278 -4.885,-0.588 -6.166,1.538Z" style="fill-rule:nonzero;"/>
        <path d="M1711.45,2348.23c-2.08,-1.355 -4.86,-0.766 -6.219,1.311c-1.358,2.078 -0.773,4.865 1.302,6.227c0.548,0.359 53.454,36.011 97.657,144.233l9.708,0c-45.59,-113.744 -100.095,-150.239 -102.448,-151.771Z" style="fill-rule:nonzero;"/>
        <path d="M468.933,2204c-1.205,0.623 -29.9,15.614 -64.917,46.629c-32.315,28.622 -76.11,76.802 -101.229,143.788c-0.873,2.327 0.306,4.921 2.633,5.794c2.327,0.872 4.92,-0.307 5.793,-2.634c24.432,-65.149 67.083,-112.105 98.56,-140.025c34.21,-30.342 63.009,-45.41 63.296,-45.559c2.206,-1.142 3.069,-3.858 1.927,-6.064c-1.143,-2.207 -3.856,-3.071 -6.063,-1.929Z" style="fill-rule:nonzero;"/>
        <path d="M626.986,2290.09c1.153,-2.201 0.304,-4.922 -1.898,-6.074c-2.201,-1.154 -4.921,-0.303 -6.074,1.898c-3.101,5.92 -66.387,127.127 -96.664,214.088l9.571,0c30.835,-86.908 94.317,-208.483 95.065,-209.912Z" style="fill-rule:nonzero;"/>
    </g>
</svg>