<svg xmlns="http://www.w3.org/2000/svg" viewBox="0 0 2500 2500">
    <title>PepeFrogPokemonBack</title>
    <g>
        <polygon points="642 2387 618 1995 482 2019 514 1819 370 1835 450 1571 290 1067 34 1627 290 1643 226 1931 386 1939 346 2163 506 2115 642 2387" style="fill: #fef135;stroke: #000;stroke-width: 9px"/>
        <g>
            <path d="M1146,1011s28-132-76-300S534,379,462,419s12,272,192,428,404,200,404,200Z" style="fill: #fef135;stroke: #000;stroke-width: 9px"/>
            <path d="M775.68,496.74C638.27,433.6,500,397.89,462,419c-32.72,18.18-33.22,76-7.14,148.33,11-3.66,22-6.95,32.14-10.33C581.4,523.87,678.06,505.78,775.68,496.74Z" style="stroke: #000;stroke-width: 9px"/>
        </g>
        <g>
            <path d="M1674.11,1059.9s82.23-107,60.93-303.42-340.2-530.83-422.41-525.83-106.58,250.54-11.54,469,278.11,354.79,278.11,354.79Z" style="fill: #fef135;stroke: #000;stroke-width: 9px"/>
            <path d="M1562,436.16c-96.7-116.26-206-208.15-249.4-205.51-37.36,2.27-62.77,54.22-70.46,130.72,11.5,1.45,22.84,3.23,33.45,4.56C1375.06,376.78,1470.06,402.18,1562,436.16Z" style="stroke: #000;stroke-width: 9px"/>
        </g>
        <g>
            <path d="M1635.11,2148.81l-5.78-15.17-26.19,2.76h0c-29.47,62-189.93,59-254.95,60.11q-389.4,6.67-637.71-157.5c-129.3,16.62-356.12,257.88-410.13,461h1618c-91.14-179.87-218.68-314.41-283.25-351.19" style="fill: #fef135;fill-rule: evenodd"/>
            <path d="M1922.19,2498a1201.78,1201.78,0,0,0-152.16-230c-47.65-56.3-96.66-101.78-131.49-122.06l-5.24-13.75a4.26,4.26,0,0,0-4.42-2.71l-26.19,2.76a4.25,4.25,0,0,0-3.45,2.52c-26.34,55-167.67,56.59-235.62,57.37-5.61.06-10.81,0.12-15.51,0.2-257.51,4.41-471.26-48.34-635.29-156.8a4.28,4.28,0,0,0-2.89-.67c-63.11,8.11-151.31,68.64-235.91,161.92-41,45.15-78.52,95.54-108.64,145.72-32.8,54.65-56.07,107.3-69.15,156.48a4.25,4.25,0,0,0-.14,1.09h8.57l1.92-6.62h0C333,2401,396,2295.44,480.33,2202.42c39.79-43.87,81.82-81.72,121.55-109.45,40.33-28.16,77.48-45.26,107.59-49.54C792,2097.73,887.35,2138.49,993,2164.6c106.15,26.21,225.66,38.39,355.22,36.16,4.69-.08,9.87-0.14,15.46-0.2,74.15-.84,211.38-2.4,242.16-60.17l20.63-2.18,4.62,12.11,0.09,0.23,0.63,1.66,0.07,0c0.89,1.75,2.34,3.44,5,2.64,61.33,37.31,182.28,163,272.64,337.18h0l0.43,0.9,1.42,2.73,0.9,2.38,1.13,2h9.17a4.25,4.25,0,0,0-.45-2"/>
            <path d="M1603.13,2136.4h0c-29.47,62-189.93,59-254.95,60.11q-389.4,6.67-637.71-157.5a43.17,43.17,0,0,1,6.5-25.28q162,110,560.56,131.47Q1480.07,2148.12,1603.13,2136.4Z" style="fill: #fef135;stroke: #000;stroke-linecap: round;stroke-linejoin: round;stroke-width: 8.504px"/>
        </g>
    </g>
</svg>
