<?xml version="1.0" encoding="iso-8859-1"?>
<!-- Generator: Adobe Illustrator 21.1.0, SVG Export Plug-In . SVG Version: 6.00 Build 0)  -->
<svg version="1.1" xmlns="http://www.w3.org/2000/svg" xmlns:xlink="http://www.w3.org/1999/xlink" x="0px" y="0px"
	 viewBox="0 0 2500 2500" style="enable-background:new 0 0 2500 2500;" xml:space="preserve">
<g id="Layer_67">
	<path style="fill-rule:evenodd;clip-rule:evenodd;" d="M1634.754,2148.807c1.927,5.057,0,0-5.78-15.17l-26.192,2.763l0.003,0.001
		c-29.47,61.966-189.929,58.995-254.948,60.108c-259.599,4.447-472.17-48.054-637.709-157.502
		C580.824,2055.622,354.002,2296.891,300,2500h1618C1826.858,2320.131,1699.317,2185.588,1634.754,2148.807z"/>
	<polygon style="fill-rule:evenodd;clip-rule:evenodd;fill:#FFFFFF;" points="801,2087 1435,2500 1458,2500 1521,2500 1563,2500 
		1589,2138 	"/>
	
		<polyline style="fill-rule:evenodd;clip-rule:evenodd;fill:none;stroke:#333333;stroke-width:8.5039;stroke-linecap:round;stroke-linejoin:round;stroke-miterlimit:2.6131;" points="
		751,2073 751,2361 1313,2475 	"/>
	
		<polyline style="fill-rule:evenodd;clip-rule:evenodd;fill:none;stroke:#333333;stroke-width:8.5039;stroke-linecap:round;stroke-linejoin:round;stroke-miterlimit:2.6131;" points="
		1611,2165 1768,2365 1589,2475 	"/>
	
		<path style="fill-rule:evenodd;clip-rule:evenodd;fill:none;stroke:#333333;stroke-width:8.5039;stroke-linecap:round;stroke-linejoin:round;stroke-miterlimit:2.6131;" d="
		M1131.5,2332.5"/>
	
		<polyline style="fill-rule:evenodd;clip-rule:evenodd;fill:none;stroke:#000000;stroke-width:8.5039;stroke-linecap:round;stroke-linejoin:round;stroke-miterlimit:2.6131;" points="
		1626.5,2302.5 1376.084,2196.77 1194.5,2362.5 	"/>
	<polygon style="fill-rule:evenodd;clip-rule:evenodd;fill:#DD0000;" points="1276.128,2287.998 1389.5,2350.5 1432,2500 1571,2500 
		1467.5,2332.5 1490.313,2244.999 1376.5,2196.5 	"/>
	
		<line style="fill-rule:evenodd;clip-rule:evenodd;fill:#DD0000;stroke:#000000;stroke-width:8.5039;stroke-linecap:round;stroke-linejoin:round;stroke-miterlimit:2.6131;" x1="1389.5" y1="2350.5" x2="1467.5" y2="2332.5"/>
	
		<polyline style="fill-rule:evenodd;clip-rule:evenodd;fill:none;stroke:#000000;stroke-width:8.5039;stroke-linecap:round;stroke-linejoin:round;stroke-miterlimit:2.6131;" points="
		1430.5,2496.5 1389.5,2350.5 1276.128,2287.998 1376.5,2196.5 1490.313,2244.999 1467.5,2332.5 1569.5,2496.5 	"/>
</g>
<g id="Layer_1">
</g>
</svg>
