<svg xmlns="http://www.w3.org/2000/svg" viewBox="0 0 2500 2500">
  <title>Vitalik shirt back</title>
  <g>
    <path d="M1633.41,2148.81l-5.78-15.17-26.19,2.76h0c-29.47,62-189.93,59-254.95,60.11q-389.4,6.67-637.71-157.5c-129.3,16.62-356.12,257.88-410.13,461h1618c-91.14-179.87-218.68-314.41-283.25-351.19" style="fill: #5686fc;fill-rule: evenodd"/>
    <path d="M1920.5,2498a1201.78,1201.78,0,0,0-152.16-230c-47.65-56.3-96.66-101.78-131.49-122.06l-5.24-13.75a4.26,4.26,0,0,0-4.42-2.71l-26.19,2.76a4.25,4.25,0,0,0-3.45,2.52c-26.34,55-167.67,56.59-235.62,57.37-5.61.06-10.81,0.12-15.51,0.2-257.51,4.41-471.26-48.34-635.29-156.8a4.28,4.28,0,0,0-2.89-.67c-63.11,8.11-151.31,68.64-235.91,161.92-41,45.15-78.52,95.54-108.64,145.72-32.8,54.65-56.07,107.3-69.15,156.48a4.25,4.25,0,0,0-.14,1.09H303l1.92-6.62h0c26.42-92.39,89.35-197.93,173.72-290.95,39.79-43.87,81.82-81.72,121.55-109.45,40.33-28.16,77.48-45.26,107.59-49.54,82.48,54.3,177.88,95.06,283.57,121.16,106.15,26.21,225.66,38.39,355.22,36.16,4.69-.08,9.87-0.14,15.46-0.2,74.15-.84,211.38-2.4,242.17-60.17l20.63-2.18,4.62,12.11,0.09,0.23,0.63,1.66,0.07,0c0.88,1.75,2.34,3.44,5,2.64,61.33,37.31,182.28,163,272.64,337.18h0l0.44,0.9,1.42,2.73,0.9,2.38,1.13,2H1921a4.26,4.26,0,0,0-.46-2"/>
    <path d="M798.34,2210.71c2.11-20.4,2.7-46.21-14.75-60.15-21.57-17.23-52.11,4.78-68.48-9.56-18.08-15.83-18.29-35.62-48.56-29.59-34.11,6.79-46.63,28.76-61,57.64-40.48-48.86-73.92,22.4-74.84,57.65-28.39-.35-45.28,19.14-39.79,48.81,4.13,22.33,55.67,35.09,86.09,27.88,14.11,25.11,50.23,17.32,77.61-.13,7.54,41,103.42,34.42,116.25,1.85,26.43,16.29,83.5,12.19,92.19-24C872.27,2242.66,835.57,2208.46,798.34,2210.71Z" style="fill: #fff"/>

    <path d="M1414.28,2304.64L1407,2313c99.75,31.26,186.19,135.67,223.87,187h16.62C1571.09,2367.66,1448,2316.56,1414.28,2304.64Z" style="fill: #ff1f2f"/>
    <path d="M1715.22,2500h16c-75.84-151.37-232.8-224.58-276-242.37l-6.58,7.55C1486.1,2279,1639.52,2343.81,1715.22,2500Z" style="fill: #9244ed"/>
    <path d="M1731.22,2500h15.57c-93.2-173.4-285.79-249-285.79-249l-5.78,6.63C1498.42,2275.42,1655.38,2348.63,1731.22,2500Z" style="fill: #4230a9"/>
    <path d="M1696.6,2500h18.62c-75.7-156.19-229.12-221-266.57-234.82l-9.07,10.41C1472.8,2287.63,1619.18,2348,1696.6,2500Z" style="fill: #1962bd"/>
    <path d="M1679.79,2500h16.8c-77.42-152-223.8-212.37-257-224.4l-9,10.36C1466.11,2298,1603.93,2352.88,1679.79,2500Z" style="fill: #92e800"/>
    <path d="M1430.55,2286l-8.41,9.65c36.56,12.41,165.79,64.72,241,204.39h16.65C1603.93,2352.88,1466.11,2298,1430.55,2286Z" style="fill: #ffd200"/>
    <path d="M1422.15,2295.61l-7.87,9c33.71,11.92,156.81,63,233.22,195.36h15.64C1587.94,2360.32,1458.71,2308,1422.15,2295.61Z" style="fill: #f70"/>

    <path d="M1185,2211c-10.5,16.09-17.9,30.45-18.3,45.69-28.39-.35-45.28,19.14-39.79,48.81,4.13,22.33,55.67,35.09,86.09,27.88,14.11,25.11,50.23,17.32,77.61-.13,7.54,41,103.42,34.42,116.25,1.85,26.43,16.29,83.5,12.19,92.19-24,9.23-38.45-27.47-72.65-64.69-70.41a151.29,151.29,0,0,0,.89-23.81C1417.29,2218.85,1208.07,2217.35,1185,2211Z" style="fill: #fff"/>
    <path d="M1103,2285l-86-4s-38-48-60-42-28,52-28,52-104,30-108,36,102,8,158,6S1103,2285,1103,2285Z" style="fill: #422177"/>
    <path d="M1211,2399.13l-76.25-3.55s-33.69-42.55-53.19-37.24-24.82,46.1-24.82,46.1-92.2,26.6-95.75,31.92,90.43,7.09,140.08,5.32S1211,2399.13,1211,2399.13Z" style="fill: #422177"/>
    <path d="M933,2407.36l-58-2.7s-25.61-32.35-40.43-28.3-18.87,35-18.87,35-70.08,20.22-72.78,24.26,68.74,5.39,106.47,4S933,2407.36,933,2407.36Z" style="fill: #422177"/>
  </g>
</svg>
