<svg xmlns="http://www.w3.org/2000/svg" viewBox="0 0 2500 2500">
   <title>PepeFrogExplosionGoggles</title>
   <g>
      <path d="M1064.81,1291.82s-126,0-162-81c0,0-48,39-42,87s144,126,204,126C1064.81,1423.84,1106.82,1300.83,1064.81,1291.82Z" style="stroke: #000;stroke-width: 11px"/>
      <g>
         <g>
            <path d="M1831.42,1612s-228-95.17-279.12-220.85,120.79-215.17,261.81-238,233.22,41.34,256.23,87.52S1867.3,1614.65,1831.42,1612Z" style="fill: #532d3c;stroke: #000;stroke-width: 11px"/>
            <ellipse cx="1939.51" cy="1404.73" rx="239.71" ry="223.11" transform="translate(312.33 3161.79) rotate(-83.11)" style="fill: #532d3c;stroke: #000;stroke-width: 11px"/>
            <ellipse cx="1970.13" cy="1408.43" rx="216.6" ry="192.26" transform="translate(335.61 3195.45) rotate(-83.11)" style="fill: #532d3c;stroke: #000;stroke-width: 11px"/>
            <ellipse cx="1975.19" cy="1409.04" rx="188.62" ry="167.43" transform="translate(339.46 3201) rotate(-83.11)" style="fill: #fff;stroke: #000;stroke-width: 11px"/>
         </g>
         <g>
            <path d="M2102.45,1468.09c13.22-20.89-9.21-40.25-9.21-40.25s23,7.12,28-14.12-15.64-49.73-15.64-49.73c15.22-3.94,18.68-20.65.82-50.55s-44.07-24.9-44.07-24.9-11.1-28.07-35.48-33.73-38.53,36.66-38.53,36.66-20.26-37.67-52.13-28.31-35.16,53.66-35.16,53.66c-5.4-1.77-52.82,19.18-55.77,55.84s35.35,36.78,35.35,36.78c-16.65,5.41-29.23,43.19-20.33,58.9s34.14,1.48,34.14,1.48-10.42,19.48,9.87,25,37.93-22.89,37.93-22.89c5.78,49.71-15.65,100.35-23.22,116.35a150,150,0,0,0,33.57,8.05c36.14,4.37,71.16-4.6,101.1-23.37-21.29-34.54-18.19-106.19-18.19-106.19C2053.4,1495.1,2089.23,1489,2102.45,1468.09Z" style="fill: #ffb63f;stroke: #000;stroke-linecap: round;stroke-linejoin: round;stroke-width: 11px"/>
            <path d="M1879.81,1426.21c-8.51,6.93-18.48,26.57-4.23,34.48s24.9-6.22,24.9-6.22-2.25,30.92,10.5,31.47,20.82-17.34,20.82-17.34l8-15.16s5.94,10.29,15.08,9.77,17.21-18.41,17.21-18.41,8.12,23.15,18.25,20.86,14.72-24,14.72-24,17.3,21.73,27,9.37,22.21-7.25,21.06-1.83-3.56,19,5.47,21.22,39.27-1,37.09-13.9-13-15.16-13-15.16-1.87-20.15,5.42-19.83,27.67-7,23.43-14.49-11.09-17.81-11.09-17.81-3,26.32-14.72,24-30-3.12-37.53,2.94-20.46,9.15-33.13,6.78-28.7-11.27-30.08-.39-24.5,18.1-31.51,11.41-17.58-15.35-22.33-11-18.68,10.14-25.93,8.91S1879.81,1426.21,1879.81,1426.21Z" style="fill: #fff73f"/>
            <path d="M1947.62,1573.87s11.79-33.54,11.81-62.12,10.66-21.43,12.8-14.65,11.88,34.57,14.63,27.39,4.48-33.25,4.48-33.25,19.63-4,20.48,4.53,3,29.92,7.82,44.12,14,27.36,8,27.1-15.39-9.79-18.34-11.74-11.69,3.14-13.75,8.53-14.33-6.09-16-9.81-14.17,18.24-17.88,19.9S1947.62,1573.87,1947.62,1573.87Z" style="fill: #fff73f"/>
            <g>
               <path d="M1880.61,1409.45s32-2.8,40.21-24.34c0,0,36.15,28.93,60.21-.13,0,0,10.93,21.45,31.28,15s23.71-20.87,23.71-20.87,20,21.85,33.1,15.11,9.93-18.73,9.93-18.73,20.54,12.91,26.55-11.54" style="fill: none;stroke: #000;stroke-linecap: round;stroke-linejoin: round;stroke-width: 11px"/>
               <path d="M2047.06,1439.82a35.13,35.13,0,0,1-11,22.33c-10.45,9.58-21.54-8.23-21.54-8.23s-1.82,20.9-18.48,26.57-18.17-22.68-18.17-22.68-0.75,17.3-16.38,20.27-22-19.19-22-19.19" style="fill: none;stroke: #000;stroke-linecap: round;stroke-linejoin: round;stroke-width: 11px"/>
               <path d="M1908.47,1438.39s5.42,29.42,35.47,9.44" style="fill: none;stroke: #000;stroke-linecap: round;stroke-linejoin: round;stroke-width: 11px"/>
               <path d="M2040.18,1430.1s14,13.38,24.59-6.24" style="fill: none;stroke: #000;stroke-linecap: round;stroke-linejoin: round;stroke-width: 11px"/>
               <path d="M1967.39,1496.28s5.74,36.12-2.78,64.34" style="fill: none;stroke: #000;stroke-linecap: round;stroke-linejoin: round;stroke-width: 11px"/>
               <path d="M2003.65,1501.49s-4.14,25.36,4.66,47" style="fill: none;stroke: #000;stroke-linecap: round;stroke-linejoin: round;stroke-width: 11px"/>
            </g>
            <path d="M1876.65,1344.59c-11.92,8.61-24.48,31.78-6.72,42.89s39.82-6.79,42.51-12.76,13.7-7.31,18.37-2.86,7.92,13.72,23.25,10.73,24.41-16,24.41-16-16.38,13.28-30.58,4.15-17.92-21.45-29-17.67-17.81,18.08-29.87,15.73S1876.65,1344.59,1876.65,1344.59Z" style="fill: #fff73f"/>
            <path d="M1990,1367.73s8.19,21.64,23.12,13.77,13.14-22.54,19.73-20.43,18.45,23.3,27.29,15.77,8.17-20.32,8.17-20.32,11.32,5.35,20.51,3.93,12.11-12.86,13.45-15.84,5.57-16.18-2.78-20.19-11.87,7.39-13.22,10.37-3,13.86-9,11.17-19.21-5.7-19.4-1.45-1.53,21.22-6.33,19.79-16.18-19.55-22.36-17.38-10.58,19.61-14.3,21.27S1990,1367.73,1990,1367.73Z" style="fill: #fff73f"/>
         </g>
      </g>
      <g>
         <g>
            <path d="M1374.75,1639s-254.49-93.53-316.46-228.9S1180.51,1168.5,1334,1136.74s257.64,34.27,285.06,83.81S1414.21,1640.18,1374.75,1639Z" style="fill: #532d3c;stroke: #000;stroke-width: 11px"/>
            <ellipse cx="1483.42" cy="1406.62" rx="263.04" ry="244.83" transform="translate(-33.16 2777.43) rotate(-85.59)" style="fill: #532d3c;stroke: #000;stroke-width: 11px"/>
            <ellipse cx="1517.18" cy="1409.23" rx="237.68" ry="210.98" transform="translate(-4.6 2813.48) rotate(-85.59)" style="fill: #532d3c;stroke: #000;stroke-width: 11px"/>
            <ellipse cx="1522.75" cy="1409.66" rx="206.98" ry="183.72" transform="translate(0.11 2819.43) rotate(-85.59)" style="fill: #fff;stroke: #000;stroke-width: 11px"/>
         </g>
         <g>
            <path d="M1665.06,1468.37c13.5-23.53-12-43.69-12-43.69s25.5,6.72,30-16.81-19.5-53.78-19.5-53.78c16.5-5,19.5-23.53-1.5-55.46s-49.5-25.21-49.5-25.21-13.5-30.25-40.5-35.29-40.5,42-40.5,42-24-40.33-58.5-28.57-36,60.5-36,60.5c-6-1.68-57,23.53-58.5,63.86s40.5,38.65,40.5,38.65c-18,6.72-30,48.74-19.5,65.54s37.5,0,37.5,0-10.5,21.85,12,26.89,40.5-26.89,40.5-26.89c8.69,54.23-12.4,110.75-19.94,128.65a164.57,164.57,0,0,0,37.19,7.24c39.83,3.07,77.79-8.41,109.73-30.41-25-36.86-25-115.56-25-115.56C1612.57,1500.3,1651.56,1491.89,1665.06,1468.37Z" style="fill: #ffb63f;stroke: #000;stroke-linecap: round;stroke-linejoin: round;stroke-width: 11px"/>
            <path d="M1419,1433c-9,8-19,30-3,38s27-8,27-8-1,34,13,34,22-20,22-20l8-17s7,11,17,10,18-21,18-21,10,25,21,22,15-27,15-27,20,23,30,9,24-9,23-3-3,21,7,23,43-3,40-17-15-16-15-16-3-22,5-22,30-9,25-17-13-19-13-19-2,29-15,27-33-2-41,5-22,11-36,9-32-11-33,1-26,21-34,14-20-16-25-11-20,12-28,11S1419,1433,1419,1433Z" style="fill: #fff73f"/>
            <path d="M1500.33,1591.67s11.33-37.33,10-68.67,10.67-24,13.33-16.67,14.67,37.33,17.33,29.33,3.33-36.67,3.33-36.67,21.33-5.33,22.67,4,4.67,32.67,10.67,48,16.67,29.33,10,29.33-17.33-10-20.67-12-12.67,4-14.67,10-16-6-18-10-14.67,20.67-18.67,22.67S1500.33,1591.67,1500.33,1591.67Z" style="fill: #fff73f"/>
            <g>
               <path d="M1419.08,1414.59S1454,1410,1462,1386c0,0,41,30,66-3,0,0,13,23,35,15s25-24,25-24,23,23,37,15,10-21,10-21,23.13,13.18,28.56-13.91" style="fill: none;stroke: #000;stroke-linecap: round;stroke-linejoin: round;stroke-width: 11px"/>
               <path d="M1603,1440a38.55,38.55,0,0,1-11,25c-11,11-24-8-24-8s-1,23-19,30-21-24-21-24,0,19-17,23-25-20-25-20" style="fill: none;stroke: #000;stroke-linecap: round;stroke-linejoin: round;stroke-width: 11px"/>
               <path d="M1451,1445s7.33,32,39.33,8.67" style="fill: none;stroke: #000;stroke-linecap: round;stroke-linejoin: round;stroke-width: 11px"/>
               <path d="M1595,1429.67s16,14,26.67-8" style="fill: none;stroke: #000;stroke-linecap: round;stroke-linejoin: round;stroke-width: 11px"/>
               <path d="M1518.33,1505.67s8,39.33,0,70.67" style="fill: none;stroke: #000;stroke-linecap: round;stroke-linejoin: round;stroke-width: 11px"/>
               <path d="M1558.33,1509.67s-3.33,28,7.33,51.33" style="fill: none;stroke: #000;stroke-linecap: round;stroke-linejoin: round;stroke-width: 11px"/>
            </g>
            <path d="M1411.67,1343.67c-12.67,10-25.33,36-5.33,47.33s43.33-9.33,46-16,14.67-8.67,20-4,9.33,14.67,26,10.67,26-18.67,26-18.67-17.33,15.33-33.33,6-20.67-22.67-32.67-18-18.67,20.67-32,18.67S1411.67,1343.67,1411.67,1343.67Z" style="fill: #fff73f"/>
            <path d="M1537,1363.67s10,23.33,26,14,13.33-25.33,20.67-23.33,21.33,24.67,30.67,16,8-22.67,8-22.67S1635,1353,1645,1351s12.67-14.67,14-18,5.33-18-4-22-12.67,8.67-14,12-2.67,15.33-9.33,12.67-21.33-5.33-21.33-.67-0.67,23.33-6,22-18.67-20.67-25.33-18-10.67,22-14.67,24S1537,1363.67,1537,1363.67Z" style="fill: #fff73f"/>
         </g>
      </g>
   </g>
</svg>
