<?xml version="1.0" encoding="iso-8859-1"?>
 <svg version="1.1" xmlns="http://www.w3.org/2000/svg" xmlns:xlink="http://www.w3.org/1999/xlink" x="0px" y="0px"
 	 viewBox="0 0 2500 2500" style="enable-background:new 0 0 2500 2500;" xml:space="preserve">
     <g id="Layer-1">
        <path d="M1137.82,1402.84c0,0 -182.824,-189.835 -256.824,-183.835c-74,6 -68,86 -54,86c14,0 28,-4 38,-12c10,-8 -4,-28 36,-16c40,12 204,134 236,182c32,48 21.648,-40.33 0.824,-56.165Z" style="fill:#0f0f0f;fill-rule:nonzero;stroke:#000;stroke-width:12px;"/>
        <path d="M1636.06,1397.08c0,0 56.603,-33.066 89.798,1.466l10.697,79.53c0,0 -23.999,-58.496 -56.997,-55.497c-32.998,2.999 -56.998,40.498 -56.998,40.498c0,0 -1.499,-53.998 13.5,-65.997Z" style="fill:#0f0f0f;fill-rule:nonzero;stroke:#000;stroke-width:12px;"/>
        <path d="M1137.82,1402.84c0,0 282.028,-6.001 501.05,-9.001c0,0 18.003,174.018 -87.008,231.023c-105.011,57.006 -456.046,84.008 -414.042,-222.022Z" style="fill:#0f0f0f;fill-rule:nonzero;stroke:#000;stroke-width:12px;"/>
        <path d="M2177.04,1420.75c0,0 -253.928,-13.34 -451.176,-22.204c0,0 -21.114,156.277 71.892,210.593c93.009,54.313 408.518,88.515 379.284,-188.389Z" style="fill:#0f0f0f;fill-rule:nonzero;stroke:#000;stroke-width:12px;"/>
        <path d="M1185,1525c0,0 -14,-72 -8,-84c6,-12 418,-20 418,-20c0,0 -384,32 -392,42c-8,10 -18,62 -18,62Z" style="fill:#fff;fill-rule:nonzero;"/>
        <path d="M1769.19,1517.84c0,0 -11.339,-68.18 -5.378,-79.33c5.959,-11.15 394.252,-8.106 394.252,-8.106c0,0 -362.535,20.283 -370.327,29.496c-7.793,9.214 -18.547,57.94 -18.547,57.94Z" style="fill:#fff;fill-rule:nonzero;"/>
    </g>
</svg>