<?xml version="1.0" encoding="iso-8859-1"?>
<svg version="1.1" xmlns="http://www.w3.org/2000/svg" xmlns:xlink="http://www.w3.org/1999/xlink" x="0px" y="0px"
	 viewBox="0 0 2500 2500" style="enable-background:new 0 0 2500 2500;" xml:space="preserve">
    <g>
        <path d="M1038,1331c21.44-8.25,158.52-23.3,205.91-28.32-3.34-24.24-9-42.27-17.91-47.68-36-22-454,56-490,88s-52,120-52,120c-6,32,16,46,40,32s18-80,40-96,146-18,206-10,244,138,260,128c6-3.77,12.06-38.76,15.3-82.1C1156.27,1393.44,1012.84,1340.68,1038,1331Z" style="fill: #ac4226;stroke: #000;stroke-width: 9.3018px"/>
        <g>
          <path d="M2105.07,1320.34s9.45,160.06-40.17,212.45-328.44,40.74-371,2.91-52-256.1-26-282.29,413.51-20.37,423-8.73S2105.07,1302.88,2105.07,1320.34Z" style="fill: #ac4226;stroke: #000;stroke-width: 9.3018px"/>
          <path d="M2075.35,1334s7.63,129.32-32.46,171.64-265.36,32.92-299.72,2.35-42-206.91-21-228.07,334.08-16.46,341.72-7.05S2075.35,1319.88,2075.35,1334Z" style="fill: #a91917;stroke: #000;stroke-width: 9.3018px"/>
        </g>
        <g>
          <path d="M1665,1329.83s9.74,165-41.41,219-338.61,42-382.46,3-53.59-264-26.8-291,426.31-21,436.05-9S1665,1311.82,1665,1329.83Z" style="fill: #ac4226;stroke: #000;stroke-width: 9.3018px"/>
          <path d="M1634.41,1343.9s7.87,133.32-33.46,177-273.57,33.94-309,2.42-43.3-213.31-21.65-235.13,344.42-17,352.3-7.27S1634.41,1329.35,1634.41,1343.9Z" style="fill: #a91917;stroke: #000;stroke-width: 9.3018px"/>
        </g>
        <path d="M1285.84,1402.84s-6-54,6-90,264-30,264-30-228,42-243,57S1285.84,1402.84,1285.84,1402.84Z" style="fill: #ac4226"/>
        <path d="M1744.88,1393.83s-6-54,6-90,264-30,264-30-228,42-243,57S1744.88,1393.83,1744.88,1393.83Z" style="fill: #ac4226"/>
    </g>
</svg>