<?xml version="1.0" encoding="iso-8859-1"?>
<!-- Generator: Adobe Illustrator 21.1.0, SVG Export Plug-In . SVG Version: 6.00 Build 0)  -->
<svg version="1.1" xmlns="http://www.w3.org/2000/svg" xmlns:xlink="http://www.w3.org/1999/xlink" x="0px" y="0px"
	 viewBox="0 0 2500 2500" style="enable-background:new 0 0 2500 2500;" xml:space="preserve">
<g id="Pirate">

	<path style="fill-rule:evenodd;clip-rule:evenodd;fill:#7F0502;stroke:#000000;stroke-width:8.5039;stroke-miterlimit:2.6131;" d="
		M871.848,1294.431c421.133-79.308,808.925-90.86,1163.375-34.656C1831.361,731.642,1023.497,710.33,871.848,1294.431
		L871.848,1294.431z"/>
	<path style="fill-rule:evenodd;clip-rule:evenodd;fill:#7F0502;stroke:#000000;stroke-width:8.5039;stroke-miterlimit:2.6131;" d="
		M743.845,1367.511c11.984-14.733,23.687-26.76,35.108-36.079c-78.405-49.527-154.601-49.345-228.59,0.543
		C603.501,1376.799,667.995,1388.644,743.845,1367.511L743.845,1367.511z"/>
	<path style="fill-rule:evenodd;clip-rule:evenodd;fill:#7F0502;stroke:#000000;stroke-width:8.5039;stroke-miterlimit:2.6131;" d="
		M706.282,1425.024c11.983-23.604,28.907-47.876,50.774-72.817c-113.706-18.702-173.813,19.56-180.318,114.784
		C628.572,1469.346,671.754,1455.357,706.282,1425.024L706.282,1425.024z"/>
	<path style="fill-rule:evenodd;clip-rule:evenodd;stroke:#000000;stroke-width:0.5;stroke-miterlimit:2.6131;" d="
		M2033.915,1259.775c137.917,41.331,142.615,136.154,14.092,284.47c-44.575,40.262-145.761,62.054-303.559,65.374
		c-122.243-16.543-155.146-89.718-98.707-219.525c-2.412-75.915,20.716-129.922,69.383-162.023
		C1824.192,1233.011,1930.459,1243.571,2033.915,1259.775L2033.915,1259.775z"/>
	<path style="fill-rule:evenodd;clip-rule:evenodd;fill:#666666;" d="M1853.834,1367.653c-5.828-3.2-7.721-6.483-6.924-12.009
		c1.14-7.905,6.461-11.109,16.186-9.746c8.347,1.169,12.125,4.567,12.826,11.534c0.395,3.922-3.125,11.719-5.857,12.974
		C1867.698,1371.493,1857.758,1369.807,1853.834,1367.653L1853.834,1367.653L1853.834,1367.653z M1899.197,1376.897
		c-0.373-0.803-2.406-1.703-4.519-1.999c-2.704-0.379-4.352-1.721-5.566-4.534c-4.088-9.476,8.601-17.866,20.165-13.333
		c8.863,3.473,10.487,14.337,2.947,19.706C1908.195,1379.607,1900.499,1379.701,1899.197,1376.897L1899.197,1376.897z
		 M1867.492,1392.366c0.453-3.14,7.531-15.747,9.956-17.735c1.721-1.41,12.204,13.109,11.783,16.319
		c-0.176,1.339-1.184,3.559-2.241,4.935c-1.91,2.486-1.938,2.48-4.895-1.023l-2.974-3.524l-6.038,2.064l-6.038,2.064
		L1867.492,1392.366L1867.492,1392.366L1867.492,1392.366z M1865.469,1413.694c2.326-1.657,2.627-1.614,3.492,0.489
		c1.041,2.532,5.684,3.727,7.301,1.879c0.643-0.736,2.22-0.44,4.241,0.795c3.746,2.288,8.502,0.474,7.666-2.925
		c-0.296-1.203,0.182-1.691,1.188-1.214c0.926,0.439,1.697,2.135,1.714,3.767c0.039,3.769,1.675,3.988,5.858,0.781
		c2.514-1.927,3.483-4.127,4.013-9.109c0.614-5.764,1.258-6.889,5.262-9.18c2.509-1.436,5.417-2.513,6.461-2.394
		c2.868,0.327,8.68-3.338,8.92-5.626c0.117-1.11,1.11-4.651,2.207-7.869c1.254-3.674,1.632-7.43,1.017-10.097
		c-1.792-7.783-1.239-12.792,1.772-16.052c2.206-2.388,3.037-5.222,3.567-12.145c0.409-5.347,0.035-9.344-0.919-9.8
		c-0.885-0.424-1.172-1.271-0.637-1.883c0.536-0.611,0.264-1.212-0.602-1.333c-0.867-0.121-1.074-0.795-0.46-1.496
		c1.352-1.546-7.019-11.841-9.965-12.253c-1.153-0.161-1.686-0.764-1.182-1.339c1.089-1.245-9.463-7.231-11.365-6.447
		c-0.725,0.299-1.182-0.396-1.017-1.544s-0.48-2.275-1.436-2.506c-11.121-2.686-15.514-2.991-24.556-1.702
		c-5.652,0.806-11.452,1.832-12.89,2.279c-1.437,0.449-3.213,0.731-3.945,0.629c-2.296-0.323-11.437,4.286-15.55,7.838
		c-6.99,6.038-13.707,22.348-9.374,22.761c2.676,0.255,6.471-3.168,6.913-6.236c0.621-4.304,6.421-8.868,11.897-9.361
		c2.271-0.205,5.626-1.359,7.454-2.567c3.773-2.492,4.879-1.999,3.148,1.403c-1.344,2.642-8.063,4.943-10.556,3.615
		c-0.911-0.484-3.011,0.189-4.667,1.498c-2.937,2.319-2.952,2.436-0.588,4.7c2.183,2.091,2.18,2.293-0.022,2.024
		c-1.416-0.173-3.026,1.071-3.826,2.957c-0.76,1.79-2.664,3.696-4.233,4.233c-3.184,1.092-5.023,8.566-2.798,11.375
		c0.94,1.188,0.201,3.321-2.603,7.513c-3.46,5.173-3.853,6.686-3.379,13.003c0.727,9.674,3.105,12.98,12.602,17.514
		c8.305,3.965,12.382,9.449,11.141,14.983c-0.62,2.768,2.834,10.387,4.838,10.667
		C1862.314,1415.423,1864.068,1414.692,1865.469,1413.694L1865.469,1413.694L1865.469,1413.694z M1886.562,1439.183
		c7.3-0.45,9.973-2.205,11.999-7.877c0.5-1.399,2.504-4.14,4.454-6.092c2.798-2.8,3.934-5.802,5.389-14.235
		c1.014-5.878,1.435-10.745,0.936-10.815c-2.267-0.318-4.96,3.733-4.769,7.174c0.325,5.859-4.059,11.499-11.329,14.573
		c-4.139,1.75-6.669,2.18-6.869,1.169c-0.589-2.989-5.739-2.454-7.61,0.79c-1.002,1.737-2.17,3.109-2.597,3.05
		c-0.426-0.06-1.159-1.699-1.631-3.642c-0.852-3.511-6.344-5.853-6.773-2.888c-0.347,2.406-8.901-1.333-11.166-4.88
		c-1.133-1.774-2.397-5.893-2.809-9.153c-0.78-6.164-7.695-15.565-9.251-12.577c-0.439,0.841-0.188,2.298,0.556,3.238
		c0.744,0.94,0.941,4.569,0.436,8.065c-0.545,3.776-0.235,6.896,0.76,7.684c2.695,2.132,6.429,9.939,6.461,13.511
		C1852.819,1433.926,1869.373,1440.244,1886.562,1439.183L1886.562,1439.183L1886.562,1439.183z M1869.287,1460.062
		c3.284-1.057,6.04-2.4,6.124-2.983c0.084-0.584-4.199-3.406-9.519-6.271c-5.32-2.866-12.648-7.008-16.285-9.206
		c-3.637-2.197-11.086-6.62-16.554-9.829c-20.797-12.204-23.815-14.323-23.698-16.643c0.184-3.642,0.041-4.802-1.122-9.081
		c-0.597-2.198-1.006-4.544-0.909-5.216c0.097-0.671-1.285-2.444-3.071-3.94c-2.461-2.061-4.352-2.58-7.809-2.14
		c-7.691,0.979-8.79,3.67-5.288,12.944l3.062,8.108l-3.207,1.757c-1.764,0.966-5.026,2.73-7.249,3.921
		c-2.223,1.19-4.403,3.343-4.843,4.783c-0.44,1.439-1.315,2.884-1.943,3.209c-1.818,0.94,1.996,6.857,6.307,9.785
		c5.134,3.488,10.801,3.062,16.589-1.249c2.505-1.866,5.559-3.251,6.788-3.079c1.229,0.172,9.014,3.672,17.3,7.777
		c8.287,4.105,15.114,7.136,15.171,6.737c0.058-0.4,0.953,0.161,1.988,1.245c2.053,2.151,17.473,10.446,20.39,10.97
		C1862.502,1461.838,1866.003,1461.119,1869.287,1460.062L1869.287,1460.062L1869.287,1460.062z M1962.246,1531.132l4.684-2.767
		l-0.967-7.678c-0.847-6.726-0.675-7.886,1.385-9.353c1.293-0.922,2.875-1.621,3.516-1.555c0.64,0.066,3.117-1.093,5.507-2.576
		c5.559-3.452,6.082-7.864,1.477-12.455c-4.134-4.121-7.673-3.937-16.763,0.871c-5.447,2.882-13.816,2.842-16.858-0.08
		c-0.849-0.815-4.555-3.035-8.235-4.932c-3.681-1.897-8.779-4.677-11.33-6.177c-2.552-1.501-4.947-2.834-5.324-2.962
		c-0.377-0.128-4.164-2.078-8.415-4.334c-9.742-5.17-13.903-5.696-21.246-2.691c-6.626,2.711-6.436,3.016,5.333,8.564
		c4.64,2.188,11.576,5.894,15.412,8.237c3.837,2.343,7.872,4.385,8.965,4.538c1.094,0.153,2.26,0.863,2.591,1.577
		c0.332,0.715,2.106,1.888,3.944,2.609c1.838,0.72,7.576,3.869,12.753,6.997l9.413,5.689l-1.302,6.704
		c-0.716,3.688-0.733,8.168-0.038,9.954C1948.528,1533.888,1956.081,1534.775,1962.246,1531.132L1962.246,1531.132
		L1962.246,1531.132z M1790.996,1516.263c0.864-0.616,1.782-4.164,2.04-7.885c0.258-3.721,0.904-6.418,1.438-5.993
		c0.533,0.426,1.797-0.662,2.809-2.416c1.129-1.957,4.768-4.122,9.423-5.607c4.171-1.33,7.775-2.23,8.009-2
		c0.234,0.231,4.068-0.525,8.519-1.678c19.52-5.06,22.827-5.853,23.587-5.655c0.443,0.116,1.758-0.468,2.922-1.297
		c1.165-0.83,2.946-1.392,3.959-1.25c1.012,0.142,2.708-0.489,3.767-1.402c1.862-1.605,14.554-5.873,17.485-5.881
		c5.752-0.015,10.761-1.047,10.265-2.116c-0.325-0.702,1.13-1.751,3.235-2.331c2.105-0.58,3.901-1.564,3.991-2.188
		c0.09-0.624,2.84-1.743,6.11-2.487c3.27-0.743,6.009-1.792,6.087-2.33c0.078-0.539,2.951-1.393,6.384-1.897
		c3.434-0.505,7.333-1.746,8.665-2.759c1.332-1.012,3.06-1.771,3.838-1.683c0.779,0.086,7.17-1.63,14.203-3.814
		c7.033-2.183,13.767-3.833,14.963-3.665c1.198,0.168,5.706,1.723,10.018,3.455c9.03,3.628,12.182,3.156,16.365-2.453
		c3.192-4.282,2.424-9.925-1.603-11.785c-4.62-2.132-6.367-6.307-6.115-14.613c0.286-9.399,0.593-8.425-2.931-9.288
		c-8.771-2.147-15.852-0.303-14.828,3.861c0.244,0.99-0.873,3.915-2.482,6.5c-1.609,2.584-2.634,5.326-2.277,6.094
		c0.356,0.768-0.361,1.254-1.593,1.082c-1.233-0.173-2.792,0.684-3.466,1.903c-2.539,4.602-9.529,7.677-38.787,17.06
		c-9.499,3.047-17.779,6.119-18.399,6.827c-0.62,0.709-1.524,1.179-2.01,1.045c-0.89-0.245-8.816,2.112-22.739,6.762
		c-4.154,1.387-8.268,2.425-9.143,2.306c-0.875-0.12-2.445,0.52-3.491,1.422c-1.045,0.901-4.237,1.725-7.092,1.832
		c-5.012,0.186-21.282,4.5-24.957,6.617c-0.986,0.569-7.814,2.473-15.173,4.231l-13.379,3.196l-6.065-4.427
		c-8.473-6.187-12.273-6.429-16.766-1.071c-2.005,2.391-3.726,4.909-3.825,5.597c-0.099,0.688,3.038,3.609,6.972,6.491
		c3.933,2.881,7.401,5.776,7.704,6.431c0.857,1.848,0.116,7.094-1.62,11.45c-1.333,3.345-1.103,4.239,1.491,5.796
		C1779.743,1518.193,1788.274,1518.202,1790.996,1516.263L1790.996,1516.263L1790.996,1516.263z"/>
	<path style="fill:none;stroke:#000000;stroke-width:8.5039;stroke-linecap:round;stroke-linejoin:round;stroke-miterlimit:10;" d="
		M1198.307,1106.241c0,0,116.086-44.607,222.09-66.774c106.004-22.167,264.873-38.612,264.873-38.612"/>
	<path style="fill:none;stroke:#000000;stroke-width:8.5039;stroke-linecap:round;stroke-linejoin:round;stroke-miterlimit:10;" d="
		M1461.5,1103.289c0,0,180,39.825,279,0"/>
</g>
<g id="Layer_1">
</g>
</svg>
