<?xml version="1.0" encoding="iso-8859-1"?>
<!-- Generator: Adobe Illustrator 21.1.0, SVG Export Plug-In . SVG Version: 6.00 Build 0)  -->
<svg version="1.1" xmlns="http://www.w3.org/2000/svg" xmlns:xlink="http://www.w3.org/1999/xlink" x="0px" y="0px"
	 viewBox="0 0 2500 2500" style="enable-background:new 0 0 2500 2500;" xml:space="preserve">
<g id="Sunglasses_1">
	<path style="fill-rule:evenodd;clip-rule:evenodd;stroke:#000000;fill:#ff0000;stroke-width:9.5;stroke-miterlimit:2.6131;" d="
		M2120.803,1419.139c-3.423-45.098-7.636-88.517-12.639-130.258l-1042.734-80.269l-3.995,63.23
		c-133.967,52.533-303.133,122.147-507.497,208.841c-58.48,36.521-64.72,95.016-18.72,175.487
		c74.091,32.645,106.699-3.76,97.827-109.214c192.749-53.177,332.349-81.693,418.801-85.547
		c5.177,51.776,21.454,93.187,48.829,124.234c79.13,89.746,295.059,91.547,391.778,28.044
		c48.001-31.515,85.118-81.132,111.35-148.85c42.402,91.858,107.853,151.827,196.35,179.908
		C1991.923,1705.594,2128.815,1644.17,2120.803,1419.139z"/>
	<path style="fill-rule:evenodd;clip-rule:evenodd;fill:#4D4D4D;" d="M1207.163,1229.146c61.865-0.866,112.938,0.451,153.219,3.951
		c24.649,26.794,2.684,113.099,23.97,136.602c25.556,28.222,55.834-11.425,79.152,27.976
		c16.847,28.463,28.783,118.124,42.511,159.845c-21.334,34.932-62.395,51.509-123.182,49.73
		c-13.234-24.673-23.772-51.039-31.615-79.098c-12.54-44.871-6.443-149.443-61.368-138.037
		c-27.999,5.814-58.845,31.237-79.529-23.176C1194.711,1325.874,1200.666,1259.044,1207.163,1229.146z"/>
	<path style="fill-rule:evenodd;clip-rule:evenodd;fill:#4D4D4D;" d="M2030.597,1601.869
		c-13.389-53.869-17.594-264.866-83.511-233.918c-21.697,22.866-39.372,13.867-53.025-26.997
		c-1.375-32.466-9.138-54.292-23.288-65.477c-75.152-6.534-130.888-12.183-167.209-16.946
		c-0.696,123.502,27.378,166.112,84.221,127.828c24.478-24.564,45.182-6.023,62.113,55.624
		c11.179,84.366,28.131,144.51,50.854,180.431C1962.522,1627.673,2005.804,1620.825,2030.597,1601.869z"/>
</g>
<g id="Layer_1">
</g>
</svg>
