<?xml version="1.0" encoding="iso-8859-1"?>
<!-- Generator: Adobe Illustrator 21.1.0, SVG Export Plug-In . SVG Version: 6.00 Build 0)  -->
<svg version="1.1" xmlns="http://www.w3.org/2000/svg" xmlns:xlink="http://www.w3.org/1999/xlink" x="0px" y="0px"
	 viewBox="0 0 2500 2500" style="enable-background:new 0 0 2500 2500;" xml:space="preserve">
<g id="Sunglasses_2">
	<path style="fill-rule:evenodd;clip-rule:evenodd;fill:#1A1A1A;" d="M1122.766,1626.865
		c-48.917-59.707-68.01-149.613-57.279-269.713c50.57-88.892,167.973-124.285,352.212-106.181
		c148.834,11.439,228.688,69.709,239.557,174.811C1617.888,1692.71,1273.046,1810.299,1122.766,1626.865z"/>
	<path style="fill-rule:evenodd;clip-rule:evenodd;fill:#1A1A1A;" d="M1657.256,1425.783
		c1.395-92.35,54.487-136.809,159.272-133.375c94.27-2.465,172.826,0.988,235.671,10.359c28.701,13.948,48.317,32.886,58.85,56.807
		c25.915,58.863,22.873,160.494-16.357,232.627C1998.411,1769.234,1692.954,1685.966,1657.256,1425.783z"/>
	<path style="fill-rule:evenodd;clip-rule:evenodd;fill:#ADADAD;stroke:#000;stroke-linecap:round;stroke-linejoin:round;stroke-width:5.5px" d="M2125.845,1353.061c-6.105-13.864-14.846-26.289-26.219-37.267
		c-11.031-10.648-24.502-19.84-40.408-27.57l-4.678-1.454c-31.769-4.737-67.67-7.987-107.698-9.746
		c-39.411-1.731-82.819-1.982-130.209-0.752c-1.254-0.04-2.631-0.074-4.115-0.102c-37.557-24.051-79.797-38.803-127.832-42.946
		c-47.641-4.109-100.913,2.302-160.902,20.525c-30.407-9.557-65.362-15.863-104.885-18.901l-0.001,0.028
		c-94.111-9.214-171.464-4.692-232.046,13.572c-60.467,18.229-104.537,50.02-132.214,95.354
		c-75.273,25.513-148.739,51.927-220.362,79.25c-73.687,28.112-146.346,57.511-217.966,88.192c-0.341,0.146-0.673,0.302-0.999,0.467
		l-0.012-0.023c-13.523,6.896-23.651,14.164-30.377,21.796c-7.784,8.832-11.372,18.276-10.765,28.327
		c0.579,9.6,5.041,18.705,13.373,27.302c8.62,8.893,21.91,17.591,39.866,26.087c8.066,3.805,17.692,0.352,21.497-7.714
		c3.805-8.066,0.352-17.692-7.714-21.497c-14.434-6.83-24.607-13.293-30.509-19.382c-2.744-2.831-4.169-5.065-4.267-6.691
		c-0.071-1.177,0.863-2.868,2.797-5.062c3.98-4.513,10.86-9.273,20.641-14.271c70.334-30.115,142.319-59.221,215.943-87.308
		c66.657-25.429,133.945-49.756,201.847-72.995c-2.978,51.622-0.212,97.542,8.323,137.729c10.095,47.54,28.196,87.244,54.296,119.1
		c43.212,52.748,101.413,82.167,164.193,91.426c46.313,6.83,95.102,2.609,142.092-11.365
		c46.872-13.941,91.968-37.558,131.022-69.552c47.985-39.313,87.013-91.3,109.275-153.594
		c17.903,52.322,47.159,95.566,82.617,128.818c39.035,36.609,85.563,61.124,132.749,72.352
		c47.671,11.342,96.239,9.161,138.791-7.741c40.083-15.918,74.61-44.773,97.868-87.538c20.165-37.081,31.311-81.259,34.311-123.929
		C2146.379,1430.272,2140.246,1385.774,2125.845,1353.061z M1682.031,1265.471c24.917,2.148,48.05,7.503,69.601,15.827
		c-18.67,3.994-35.026,10.297-49.079,18.895c-13.621-8.408-28.048-12.619-43.324-12.33c-14.959,0.283-30.292,4.881-46.011,14.054
		c-4.587-4.065-9.42-7.966-14.52-11.688c-7.938-5.792-16.489-11.146-25.65-16.063
		C1612.846,1265.355,1649.027,1262.625,1682.031,1265.471z M1636.073,1326.284c8.361-4.005,16.242-6.035,23.661-6.176
		c5.327-0.101,10.561,0.794,15.707,2.621c-8.599,9.637-15.583,20.684-20.952,33.139
		C1649.338,1345.347,1643.193,1335.49,1636.073,1326.284z M1527.07,1622.581c-35.787,29.317-76.961,50.914-119.639,63.608
		c-42.563,12.658-86.622,16.499-128.309,10.353c-55.096-8.126-106.092-33.848-143.836-79.919
		c-22.816-27.847-38.723-62.955-47.719-105.316c-9.036-42.548-11.146-92.257-6.336-149.11
		c23.322-39.122,61.606-66.718,114.854-82.768c56.737-17.104,130.085-21.236,220.036-12.397l0.379,0.064
		c71.409,5.488,125.822,21.883,163.232,49.183c35.505,25.908,55.92,62.264,61.239,109.056
		C1628.297,1507.831,1584.834,1575.257,1527.07,1622.581z M2110.919,1473.834c-2.701,38.416-12.578,77.902-30.389,110.655
		c-19.427,35.721-48.147,59.777-81.43,72.994c-36.163,14.363-77.977,16.089-119.443,6.223
		c-41.95-9.981-83.336-31.796-118.082-64.384c-44.224-41.474-77.741-100.395-88.169-174.615l0.075-2.626
		c1.279-39.043,12.858-67.808,34.728-86.287c22.444-18.96,56.452-28.098,102.016-27.41c1.621,0.024,3.557,0.075,5.798,0.147h0.885
		c46.682-1.22,89.533-0.974,128.542,0.74c37.507,1.649,71.488,4.692,101.931,9.127c11.821,5.969,21.779,12.858,29.865,20.664
		c8.244,7.958,14.582,16.967,19.009,27.023C2108.59,1394.107,2113.783,1433.123,2110.919,1473.834z"/>
	<path style="fill-rule:evenodd;clip-rule:evenodd;fill:#FFFFFF;" d="M1191.67,1371.663c-0.883,0.19-1.753-0.371-1.942-1.252
		c-0.192-0.883,0.37-1.753,1.252-1.944c0.849-0.183,1.265-0.772,1.36-1.4c0.078-0.524-0.018-1.063-0.248-1.47
		c-0.147-0.257-0.335-0.439-0.529-0.454c-0.483-0.038-1.205,0.438-2.168,1.773c-0.581,0.806-0.834,1.506-0.835,2.103
		c-0.003,0.445,0.141,0.866,0.385,1.251c0.292,0.459,0.731,0.884,1.262,1.268c1.802,1.297,4.461,2.011,6.43,2.019
		c0.901,0.003,1.627,0.737,1.624,1.636c-0.003,0.899-0.737,1.626-1.636,1.622c-2.534-0.01-5.974-0.94-8.321-2.633
		c-0.85-0.614-1.58-1.335-2.105-2.161c-0.573-0.899-0.902-1.906-0.898-3.014c0.006-1.257,0.443-2.599,1.45-3.995
		c1.745-2.422,3.535-3.246,5.056-3.128c1.382,0.105,2.463,0.946,3.123,2.115c0.577,1.02,0.828,2.318,0.644,3.541
		C1195.294,1369.403,1194.096,1371.135,1191.67,1371.663L1191.67,1371.663z M1139.021,1379.465
		c-0.003,0.901-0.736,1.627-1.635,1.624c-0.901-0.003-1.627-0.737-1.625-1.636c0.009-1.161,0.011-2.32,0.012-3.48
		c0.022-14.028,0.046-28.334,11.166-40.297c3.016-3.245,6.563-3.892,9.658-2.779c2.118,0.763,3.986,2.366,5.275,4.526
		c1.253,2.098,1.972,4.735,1.843,7.633c-0.275,6.31-4.567,13.922-16.207,19.774c-0.804,0.403-1.785,0.077-2.186-0.728
		c-0.402-0.804-0.076-1.783,0.728-2.186c10.366-5.21,14.174-11.704,14.407-17.001c0.097-2.231-0.442-4.239-1.384-5.818
		c-0.905-1.517-2.172-2.626-3.576-3.132c-1.912-0.688-4.164-0.222-6.168,1.935c-10.255,11.031-10.278,24.685-10.297,38.073
		C1139.032,1377.14,1139.029,1378.309,1139.021,1379.465L1139.021,1379.465z M1159.382,1369.15c2.354,0.774,4.261-0.113,5.445-1.577
		c0.78-0.965,1.222-2.212,1.242-3.383c0.023-1.34-0.482-2.608-1.62-3.401c-1.254-0.873-3.217-1.072-5.946,0.128
		c-1.579,0.694-2.636,1.632-3.278,2.713c-0.564,0.951-0.789,1.987-0.751,3.053c0.035,0.985,0.297,1.977,0.718,2.933
		c1.165,2.649,3.661,5.195,5.844,6.491c2.407,1.428,3.496-0.303,4.807-2.387c0.548-0.872,1.165-1.855,1.855-2.282
		c0.767-0.473,1.004-1.478,0.531-2.244c-0.474-0.765-1.479-1.003-2.243-0.53c-1.34,0.83-2.169,2.148-2.903,3.317
		c-0.385,0.613-0.064,1.505-0.385,1.314c-1.692-1.004-3.621-2.965-4.515-4.995c-0.264-0.604-0.43-1.193-0.448-1.731
		c-0.017-0.456,0.075-0.89,0.304-1.276c0.303-0.511,0.873-0.985,1.782-1.384c1.508-0.664,2.371-0.71,2.763-0.436
		c0.162,0.113,0.233,0.367,0.228,0.667c-0.008,0.466-0.198,0.979-0.528,1.387c-0.399,0.495-1.06,0.79-1.892,0.517
		c-0.856-0.278-1.778,0.191-2.057,1.049C1158.056,1367.95,1158.526,1368.872,1159.382,1369.15L1159.382,1369.15z M1170.937,1363.207
		c0.148,2.155-1.5,6.097-3.446,10.745c-2.447,5.853-5.339,12.766-5.986,19.469c-0.084,0.895,0.574,1.691,1.47,1.776
		c0.454,0.043,0.881-0.106,1.204-0.378c2.569-1.997,4.986-9.016,7.236-15.554c1.832-5.325,3.546-10.304,4.55-11.011
		c0.398-0.28,0.554-0.61,0.788-1.103c0.222-0.473,0.601-1.274,1.113-1.896c0.674-0.82,1.802-1.373,3.622,0.124
		c0.324,0.266,0.499,1.224,0.499,2.348c0,0.688-0.083,1.384-0.249,1.999c-0.155,0.56-0.373,1.054-0.656,1.398
		c-0.199,0.242-0.439,0.393-0.721,0.393c-0.11,0-0.37,0.014-0.662,0.029c-0.52,0.026-1.028,0.248-1.13,0.156
		c-0.67-0.604-1.702-0.549-2.306,0.121c-0.603,0.67-0.549,1.704,0.122,2.307c0.895,0.808,2.389,0.731,3.481,0.676
		c0.153-0.008,0.293-0.016,0.495-0.016c1.36,0,2.432-0.615,3.238-1.595c0.591-0.716,1.013-1.63,1.282-2.614
		c0.254-0.93,0.378-1.921,0.378-2.854c0-2.012-0.594-3.955-1.701-4.867c-3.883-3.195-6.537-1.708-8.21,0.326
		c-0.601,0.731-1.027,1.505-1.32,2.097c0.153-0.835,0.218-1.601,0.17-2.292c-0.06-0.899-0.839-1.581-1.737-1.52
		C1171.559,1361.529,1170.877,1362.308,1170.937,1363.207L1170.937,1363.207z M1173.951,1365.665
		c0.15-0.099,0.331-0.222,0.135-0.083c-0.047,0.032-0.093,0.068-0.139,0.105L1173.951,1365.665z"/>
</g>
<g id="Layer_1">
</g>
</svg>
