<?xml version="1.0" encoding="iso-8859-1"?>
<!-- Generator: Adobe Illustrator 21.1.0, SVG Export Plug-In . SVG Version: 6.00 Build 0)  -->
<svg version="1.1" xmlns="http://www.w3.org/2000/svg" xmlns:xlink="http://www.w3.org/1999/xlink" x="0px" y="0px"
	 viewBox="0 0 2500 2500" style="enable-background:new 0 0 2500 2500;" xml:space="preserve">
<g id="Thug_Life_Glasses">
	<g>
		<path style="fill:#000044;" d="M1652.851,1262.357c91.063,4.806,179.421,9.473,265.518,14.016c83.502,4.408,164.637,8.705,243.738,12.882
			c4.627,0.24,4.627,0.24,5.234,8.039c1.568,20.033,3.033,40.201,4.614,60.407c1.588,20.309,3.185,40.69,4.902,61.212
			c0.491,4.821-0.209,6.081-2.968,5.934c-10.684-0.586-21.208-0.578-32.003-1.132c-2.527-0.143-3.248,0.951-2.903,5.627
			c1.639,19.263,2.937,38.518,4.47,57.918c0.464,4.712-0.107,6.412-2.889,6.259c-10.655-0.529-21.263-0.321-31.917-0.817
			c-3.125-0.122-4.208,0.912-3.678,7.026c1.544,19.214,2.63,38.494,4.184,57.882c0.495,5.585-0.48,6.668-3.284,6.515
			c-10.973-0.333-21.899,0.001-32.993-0.405c-2.916-0.085-3.394,1.574-3.082,6.489c1.502,20.084,2.545,40.271,4.06,60.495
			c0.433,4.985-0.318,6.122-3.02,6.141c-46.763,0.271-94.228,0.583-142.396,0.934c-48.99,0.356-98.802,0.757-149.319,1.2
			c-3.407,0.025-4.048-1.827-4.075-6.947c-0.596-21.073-1.54-42.032-2.015-62.92c-0.166-5.861-1.248-7.053-4.507-6.958
			c-12.344,0.24-24.704-0.155-37.166,0.047c-3.027,0.061-3.646-1.474-3.753-6.144c-0.499-21.37-1.344-42.557-1.721-63.739
			c-0.118-5.044-0.958-6.365-3.962-6.379c-12.476,0.089-24.85-0.456-37.442-0.367c-3.236,0.022-4.185-1.385-4.284-6.729
			c-0.421-22.953-0.902-45.759-1.49-68.447c-0.589-22.616-1.173-45.081-1.587-67.427c-0.099-5.382-0.925-6.995-4.336-7.094
			c-27.294-0.892-17.378-0.039-45.245-1.44c-3.413-0.179-4.31,1.272-4.264,6.808c0.42,22.68,0.727,45.472,1.035,68.416
			c0.309,23.019,0.733,46.154,1.159,69.405c0.045,5.345-0.752,6.857-3.988,6.726c-13.18-0.564-26.238-0.4-39.299-0.925
			c-3.122-0.092-4.157,1.084-3.908,6.354c0.305,21.575,0.261,43.183,0.683,64.911c0.017,5.346-0.675,7.188-4.171,7.095
			c-13.052-0.447-26.102,0.069-39.269-0.573c-4.311-0.176-5.131,2.183-5.026,8.692c0.432,21.345,0.279,42.844,0.478,64.379
			c-0.01,5.231-0.484,7.326-4.125,7.353c-97.159,0.553-197.018,1.281-300.055,2.153c-3.526,0.066-4.662-1.101-4.36-6.938
			c0.73-23.018,1.224-46.074,2.063-68.889c0.314-6.24-0.315-8.473-4.747-8.371c-14.468,0.501-28.776-0.301-43.244,0.203
			c-5.136,0.18-5.862-2.233-5.493-9.175c1.051-22.378,1.518-44.637,2.56-66.768c0.346-6.287-0.993-7.617-4.925-7.6
			c-14.809,0.12-29.818-0.582-44.972-0.507c-3.469-0.016-4.211-1.634-4-6.738c1.077-23.087,1.921-46.138,2.987-69.018
			c0.342-5.47-0.631-6.942-4.189-6.961c-15.259-0.148-30.491-1.001-45.758-1.028c-4.134,0.007-4.248-2.49-4.018-7.385
			c1.151-24.724,2.296-49.323,3.434-73.754c1.134-24.308,2.261-48.534,3.382-72.592c0.311-6.678,1.613-7.936,5.786-7.674
			c109.567,5.875,215.749,11.529,318.547,16.957C1499.589,1254.255,1558.854,1257.39,1652.851,1262.357L1652.851,1262.357z"/>
		<path style="fill:#FFFFFF;" d="M1432.832,1403.995c0.152-23.156,0.532-46.15,0.339-69.002c0.07-5.975,1.123-8.531,5.216-8.243
			c12.964,0.879,25.816,1.443,38.558,1.571c4.208,0.055,5.103,2.669,5.064,8.596c-0.263,22.708-0.07,45.541-0.219,68.483
			c-0.118,0.347-0.348,0.734-0.466,1.121c-1.621,2.254-3.685,2.041-5.749,1.981c-12.158-0.185-24.317-0.527-36.473-1.027
			c-1.949-0.095-4.016,0.042-5.709-2.365C1433.282,1404.714,1432.943,1404.352,1432.832,1403.995L1432.832,1403.995z"/>
		<path style="fill:#FFFFFF;" d="M1530.058,1406.83c-0.079-22.971-0.043-45.822-0.351-68.608c0.009-5.888,1.15-7.737,4.789-7.51
			c12.738,0.789,25.25,1.34,37.874,1.622c3.412,0.062,4.557,1.994,4.575,7.493c0.071,20.145,0.254,40.296,0.552,60.603
			c0.251,5.887-1.004,7.891-4.788,7.705c-14.103-0.68-28.435-0.973-42.765-1.426
			C1529.944,1406.749,1529.944,1406.787,1530.058,1406.83L1530.058,1406.83z"/>
		<path style="fill:#FFFFFF;" d="M1979.553,1419.171c-1.241-21.108-2.36-42.109-3.702-62.97c-0.292-5.484,0.263-7.819,3.796-7.567
			c10.709,0.794,21.402,1.229,32.073,1.307c3.407,0.034,4.34,2.451,4.657,7.861c1.209,20.75,2.426,41.608,3.763,62.574
			c-0.097,0.319-0.19,0.636-0.399,0.987c-1.139,2.097-2.869,1.871-4.587,1.859c-10.084-0.142-20.064-0.462-30.279-0.891
			c-1.722-0.085-3.433,0.045-4.924-2.106C1979.818,1419.858,1979.685,1419.497,1979.553,1419.171L1979.553,1419.171z"/>
		<path style="fill:#FFFFFF;" d="M2060.269,1421.535c-1.444-21.002-2.767-41.898-4.312-62.691c-0.34-5.413,0.573-7.068,3.649-6.871
			c10.594,0.678,21.058,1.108,31.508,1.324c2.839,0.046,3.866,1.806,4.324,6.863c1.145,18.4,2.29,36.871,3.784,55.421
			c0.368,5.373-0.422,7.207-3.523,7.049c-11.711-0.587-23.625-0.789-35.552-1.203
			C2060.151,1421.461,2060.152,1421.497,2060.269,1421.535L2060.269,1421.535z"/>
		<path style="fill:#FFFFFF;" d="M1432.384,1482.467c-16.758-0.321-33.402-0.599-50.392-0.882c0.114,0.039,0.114,0.079,0.231,0.081
			c0.279-23.845,0.673-47.648,0.72-71.263c0.101-6.14,1.281-8.083,5.178-7.893c15.014,0.707,29.921,0.978,44.711,1.484l-0.113-0.122
			c1.812,2.055,2.122,4.974,2.202,8.043c-0.005,20.754-0.127,41.624-0.365,62.53c-0.145,2.591-0.291,5.183-1.47,7.208
			C1432.854,1481.924,1432.62,1482.156,1432.384,1482.467L1432.384,1482.467z"/>
		<path style="fill:#FFFFFF;" d="M1529.945,1406.71c0.194,23.091,0.156,46.252,0.349,69.613c0.222,6.044-1.168,8.038-4.867,7.897
			c-14.447-0.515-29.126-0.683-43.805-0.928c-0.114-0.275-0.344-0.514-0.573-0.791c-1.257-2.051-1.356-4.668-1.338-7.206
			c-0.089-20.77-0.178-41.5,0.077-62.106c0.02-3.084,0.384-5.922,2.117-7.903c-0.115,0.036-0.115,0.075-0.115,0.114
			c16.165,0.506,32.218,0.968,48.269,1.431C1529.944,1406.787,1529.944,1406.749,1529.945,1406.71L1529.945,1406.71z"/>
		<path style="fill:#FFFFFF;" d="M1983.598,1490.704c-13.87-0.233-27.624-0.501-41.609-0.734c0.002,0.036,0.002,0.072,0.119,0.073
			c-1.165-21.722-2.212-43.371-3.483-64.879c-0.271-5.594,0.674-7.404,3.888-7.239c12.394,0.61,24.77,0.859,37.04,1.248
			l-0.121-0.111c1.475,1.906,1.96,4.53,2.11,7.324c1.359,18.958,2.377,37.945,3.283,57.037c0.125,2.329,0.136,4.693-0.688,6.575
			C1984.036,1490.244,1983.817,1490.457,1983.598,1490.704L1983.598,1490.704z"/>
		<path style="fill:#FFFFFF;" d="M2060.147,1421.426c1.336,21.109,2.675,42.249,4.252,63.539c0.349,5.516-0.573,7.338-3.7,7.215
			c-12.037-0.487-24.165-0.549-36.301-0.753c-0.13-0.252-0.374-0.506-0.62-0.758c-1.033-1.867-1.286-4.218-1.421-6.569
			c-1.33-18.946-2.543-37.818-3.407-56.648c-0.163-2.778-0.086-5.404,1.298-7.178c-0.113,0.032-0.111,0.068-0.108,0.102
			c13.414,0.389,26.714,0.773,40.128,1.159C2060.152,1421.497,2060.151,1421.461,2060.147,1421.426L2060.147,1421.426z"/>
		<path style="fill:#FFFFFF;" d="M1381.992,1481.584c-0.051,24.045-0.569,48.166-0.739,72.409c0.127,6.378-1.305,8.391-5.265,8.254
			c-13.745-0.342-27.379-0.368-41.25-0.194c-3.731,0.062-5.085-2.02-4.954-8.086c0.703-21.748,1.056-43.46,1.174-65.055
			c0.135-6.266,1.453-8.359,5.381-8.213c15.366,0.576,30.626,0.712,45.884,0.966
			C1382.106,1481.664,1382.106,1481.624,1381.992,1481.584L1381.992,1481.584z"/>
		<path style="fill:#FFFFFF;" d="M1481.622,1483.292c0.077,23.494-0.079,47.024-0.004,70.713c0.075,6.244-0.875,8.932-5.185,8.795
			c-13.048-0.415-26.331-0.478-39.502-0.185c-4.313,0.098-5.214-2.621-5.257-8.911c0.51-23.9,0.553-47.609,0.711-71.236
			c-0.23,0.036-0.116,0.076-0.116,0.076c1.539-3.156,3.853-3.353,5.932-3.318c12.596,0.022,25.074,0.238,37.667,0.69
			c2.195,0.037,4.388,0.31,5.87,3.457C1481.621,1483.369,1481.621,1483.331,1481.622,1483.292L1481.622,1483.292z"/>
		<path style="fill:#FFFFFF;" d="M1941.99,1489.969c1.171,21.866,2.232,43.841,3.528,65.89c0.28,5.773-0.68,7.644-3.948,7.521
			c-11.315-0.343-22.616-0.361-33.909-0.197c-3.143,0.057-4.272-1.8-4.51-7.323c-0.857-19.8-1.829-39.528-2.794-59.15
			c-0.361-5.667,0.594-7.613,3.95-7.448c12.611,0.503,25.202,0.57,37.801,0.78
			C1941.992,1490.041,1941.991,1490.006,1941.99,1489.969L1941.99,1489.969z"/>
		<path style="fill:#FFFFFF;" d="M2024.399,1491.426c1.362,21.393,2.611,42.822,4.102,64.394c0.331,5.696-0.226,8.148-3.845,8.024
			c-10.972-0.407-21.807-0.46-32.627-0.19c-3.723,0.091-4.553-2.35-4.857-8.084c-1.158-21.753-2.31-43.327-3.573-64.866
			c-0.114,0.035-0.112,0.07-0.112,0.07c1.117-2.882,2.955-3.064,4.803-3.032c10.504,0.037,20.788,0.217,31.196,0.575
			c1.849,0.032,3.595,0.275,5.033,3.182C2024.403,1491.498,2024.401,1491.461,2024.399,1491.426L2024.399,1491.426z"/>
		<path style="fill:#000044;" d="M1481.737,1483.371c-16.413-0.275-32.941-0.55-49.469-0.828c0.075-26.38,0.264-52.603,0.452-78.67
			c16.509,0.474,32.789,0.944,49.185,1.413C1481.85,1431.197,1481.793,1457.226,1481.737,1483.371L1481.737,1483.371z"/>
		<path style="fill:#000044;" d="M2024.518,1491.499c-13.638-0.266-27.162-0.493-41.032-0.725c-1.395-24.048-2.669-47.916-4.054-71.713
			c13.758,0.396,27.173,0.785,40.816,1.212C2021.629,1443.908,2023.127,1467.613,2024.518,1491.499L2024.518,1491.499z"/>
		<polygon  style="fill:#000044;fill-rule:evenodd;clip-rule:evenodd;" points="1108.643,1309.796 1075.504,1239.706 878.534,1259.408
			864,1295.875 1108.643,1309.796 		"/>
	</g>
</g>
<g id="Layer_1">
</g>
</svg>
